<svg version="1.1" viewBox="0.0 0.0 960.0 288.0" fill="none" stroke="none" stroke-linecap="square" stroke-miterlimit="10" xmlns:xlink="http://www.w3.org/1999/xlink" xmlns="http://www.w3.org/2000/svg"><clipPath id="gaee1b2f52a_0_0.0"><path d="m0 0l960.0 0l0 288.0l-960.0 0l0 -288.0z" clip-rule="nonzero"/></clipPath><g clip-path="url(#gaee1b2f52a_0_0.0)"><path fill="#ffffff" d="m0 0l960.0 0l0 288.0l-960.0 0z" fill-rule="evenodd"/><path fill="#0000ff" d="m407.53806 128.37796l0 0c0 -3.1223755 2.531189 -5.653549 5.653534 -5.653549l0 0c1.4994202 0 2.937439 0.59563446 3.9976807 1.6558838c1.0602417 1.0602417 1.6558838 2.4982452 1.6558838 3.9976654l0 0c0 3.1223602 -2.531189 5.653534 -5.6535645 5.653534l0 0c-3.122345 0 -5.653534 -2.5311737 -5.653534 -5.653534z" fill-rule="evenodd"/><path fill="#0000ff" d="m484.27036 90.7664l0 0c0 -3.1223679 2.5311584 -5.6535416 5.653534 -5.6535416l0 0c1.4994202 0 2.9374084 0.5956421 3.9976501 1.6558838c1.0602417 1.0602417 1.6558838 2.4982452 1.6558838 3.9976578l0 0c0 3.1223679 -2.5311584 5.6535416 -5.653534 5.6535416l0 0c-3.1223755 0 -5.653534 -2.5311737 -5.653534 -5.6535416z" fill-rule="evenodd"/><path fill="#0000ff" d="m398.07086 165.82152l0 0c0 -3.1223602 2.531189 -5.653534 5.653534 -5.653534l0 0c1.4994202 0 2.937439 0.59562683 3.9976807 1.6558838c1.0602417 1.0602417 1.6558838 2.4982452 1.6558838 3.9976501l0 0c0 3.1223755 -2.531189 5.653549 -5.6535645 5.653549l0 0c-3.122345 0 -5.653534 -2.5311737 -5.653534 -5.653549z" fill-rule="evenodd"/><path fill="#0000ff" d="m445.06824 217.00525l0 0c0 -3.1223602 2.531189 -5.653549 5.653534 -5.653549l0 0c1.4994202 0 2.937439 0.5956421 3.9976807 1.6558838c1.0602417 1.060257 1.6558838 2.4982452 1.6558838 3.9976654l0 0c0 3.1223602 -2.531189 5.653549 -5.6535645 5.653549l0 0c-3.122345 0 -5.653534 -2.531189 -5.653534 -5.653549z" fill-rule="evenodd"/><path fill="#0000ff" d="m515.937 156.29134l0 0c0 -3.1223602 2.531189 -5.653534 5.6535645 -5.653534l0 0c1.4993896 0 2.937378 0.59562683 3.9976196 1.6558838c1.0602417 1.0602417 1.6558838 2.4982452 1.6558838 3.9976501l0 0c0 3.1223755 -2.531189 5.653549 -5.6535034 5.653549l0 0c-3.1223755 0 -5.6535645 -2.5311737 -5.6535645 -5.653549z" fill-rule="evenodd"/><path fill="#0000ff" d="m527.2441 189.94751l0 0c0 -3.1223755 2.531189 -5.653549 5.6535645 -5.653549l0 0c1.4993896 0 2.937378 0.5956421 3.9976807 1.6558838c1.0602417 1.0602417 1.6558838 2.4982452 1.6558838 3.9976654l0 0c0 3.1223602 -2.531189 5.653534 -5.6535645 5.653534l0 0c-3.1223755 0 -5.6535645 -2.5311737 -5.6535645 -5.653534z" fill-rule="evenodd"/><path fill="#0000ff" d="m515.937 122.63517l0 0c0 -3.1223679 2.531189 -5.6535416 5.6535645 -5.6535416l0 0c1.4993896 0 2.937378 0.5956421 3.9976196 1.6558838c1.0602417 1.0602417 1.6558838 2.4982452 1.6558838 3.9976578l0 0c0 3.1223679 -2.531189 5.6535416 -5.6535034 5.6535416l0 0c-3.1223755 0 -5.6535645 -2.5311737 -5.6535645 -5.6535416z" fill-rule="evenodd"/><path fill="#0000ff" d="m433.76117 102.073494l0 0c0 -3.1223679 2.5311584 -5.653549 5.653534 -5.653549l0 0c1.4994202 0 2.9374084 0.5956421 3.9976501 1.6558838c1.0602417 1.0602493 1.6558838 2.4982529 1.6558838 3.9976654l0 0c0 3.1223602 -2.5311584 5.6535416 -5.653534 5.6535416l0 0c-3.1223755 0 -5.653534 -2.5311813 -5.653534 -5.6535416z" fill-rule="evenodd"/><path fill="#0000ff" d="m484.27036 221.81627l0 0c0 -3.1223602 2.5311584 -5.653534 5.653534 -5.653534l0 0c1.4994202 0 2.9374084 0.59562683 3.9976501 1.6558838c1.0602417 1.0602417 1.6558838 2.4982452 1.6558838 3.9976501l0 0c0 3.1223755 -2.5311584 5.653549 -5.653534 5.653549l0 0c-3.1223755 0 -5.653534 -2.5311737 -5.653534 -5.653549z" fill-rule="evenodd"/><path fill="#0000ff" d="m501.77954 141.48819l0 0c0 -3.1223602 2.5311584 -5.653549 5.653534 -5.653549l0 0c1.4994202 0 2.9374084 0.5956421 3.9976501 1.6558838c1.0602417 1.060257 1.6558838 2.4982452 1.6558838 3.9976654l0 0c0 3.1223602 -2.5311584 5.653549 -5.653534 5.653549l0 0c-3.1223755 0 -5.653534 -2.531189 -5.653534 -5.653549z" fill-rule="evenodd"/><path fill="#0000ff" d="m404.6063 194.97375l0 0c0 -3.1223602 2.531189 -5.653549 5.6535645 -5.653549l0 0c1.4993896 0 2.9374084 0.5956421 3.9976501 1.6558838c1.0602417 1.060257 1.6558838 2.4982452 1.6558838 3.9976654l0 0c0 3.1223602 -2.531189 5.653549 -5.653534 5.653549l0 0c-3.1223755 0 -5.6535645 -2.531189 -5.6535645 -5.653549z" fill-rule="evenodd"/><path fill="#0000ff" d="m418.84515 149.87401l0 0c0 -3.1223602 2.5311584 -5.653534 5.653534 -5.653534l0 0c1.4994202 0 2.9374084 0.5956421 3.9976501 1.6558838c1.0602417 1.0602417 1.6558838 2.4982452 1.6558838 3.9976501l0 0c0 3.1223755 -2.5311584 5.653549 -5.653534 5.653549l0 0c-3.1223755 0 -5.653534 -2.5311737 -5.653534 -5.653549z" fill-rule="evenodd"/><path fill="#3c78d8" d="m440.55737 165.71744l50.80316 0l0 0c5.108032 0 10.006836 2.0291443 13.618744 5.6410675c3.6119385 3.6119232 5.641083 8.510742 5.641083 13.618774l0 12.439545c0 3.766739 -3.0535583 6.8202972 -6.820282 6.8202972l-75.68225 0c-3.7667542 0 -6.820282 -3.0535583 -6.820282 -6.8202972l0 -12.439545l0 0c0 -10.636917 8.622925 -19.259842 19.259827 -19.259842z" fill-rule="evenodd"/><path fill="#6d9eeb" d="m437.66568 135.25757l0 0c0 -14.863853 12.669983 -26.913383 28.299194 -26.913383l0 0c7.505432 0 14.70343 2.8355103 20.01056 7.882744c5.307129 5.047241 8.288666 11.892761 8.288666 19.03064l0 0c0 14.863861 -12.669983 26.913391 -28.299225 26.913391l0 0c-15.629211 0 -28.299194 -12.04953 -28.299194 -26.913391z" fill-rule="evenodd"/></g></svg>