<svg version="1.1" viewBox="0.0 0.0 288.0 288.0" fill="none" stroke="none" stroke-linecap="square" stroke-miterlimit="10" xmlns:xlink="http://www.w3.org/1999/xlink" xmlns="http://www.w3.org/2000/svg"><clipPath id="ga841602e52_0_95.0"><path d="m0 0l288.0 0l0 288.0l-288.0 0l0 -288.0z" clip-rule="nonzero"/></clipPath><g clip-path="url(#ga841602e52_0_95.0)"><path fill="#ffffff" d="m0 0l288.0 0l0 288.0l-288.0 0z" fill-rule="evenodd"/><path fill="#000000" fill-opacity="0.0" d="m125.37008 120.085915l-0.28346252 93.29134" fill-rule="evenodd"/><path stroke="#d9d9d9" stroke-width="1.0" stroke-linejoin="round" stroke-linecap="butt" d="m125.37008 120.085915l-0.28346252 93.29134" fill-rule="evenodd"/><path fill="#000000" fill-opacity="0.0" d="m50.738846 153.31859l140.56693 -8.535431" fill-rule="evenodd"/><path stroke="#93c47d" stroke-width="4.0" stroke-linejoin="round" stroke-linecap="butt" d="m50.738846 153.31859l140.56693 -8.535431" fill-rule="evenodd"/><path fill="#000000" fill-opacity="0.0" d="m49.666668 153.58267l76.47244 -33.76377" fill-rule="evenodd"/><path stroke="#00ff00" stroke-width="4.0" stroke-linejoin="round" stroke-linecap="butt" d="m49.666668 153.58267l76.47244 -33.76377" fill-rule="evenodd"/><path fill="#000000" fill-opacity="0.0" d="m179.29553 79.07874l49.385834 0l0 17.669289l-49.385834 0z" fill-rule="evenodd"/><path fill="#000000" fill-opacity="0.0" d="m143.99869 150.04462l73.102356 0l0 17.669296l-73.102356 0z" fill-rule="evenodd"/><path fill="#281e96" d="m152.29556 163.09837q-0.8125 0 -1.5 -0.28125q-0.671875 -0.28125 -1.171875 -0.78125q-0.5 -0.5 -0.78125 -1.171875q-0.265625 -0.6875 -0.265625 -1.5q0 -0.8125 0.265625 -1.484375q0.28125 -0.6875 0.78125 -1.1875q0.5 -0.5 1.171875 -0.78125q0.6875 -0.28125 1.5 -0.28125q0.8125 0 1.484375 0.28125q0.6875 0.28125 1.1875 0.78125q0.5 0.5 0.765625 1.1875q0.28125 0.671875 0.28125 1.484375q0 0.8125 -0.28125 1.5q-0.265625 0.671875 -0.765625 1.171875q-0.5 0.5 -1.1875 0.78125q-0.671875 0.28125 -1.484375 0.28125zm0 -0.6875q0.640625 0 1.1875 -0.21875q0.5625 -0.234375 0.96875 -0.65625q0.40625 -0.421875 0.625 -0.96875q0.21875 -0.5625 0.21875 -1.203125q0 -0.65625 -0.21875 -1.203125q-0.21875 -0.5625 -0.625 -0.96875q-0.40625 -0.421875 -0.96875 -0.640625q-0.546875 -0.234375 -1.1875 -0.234375q-0.65625 0 -1.203125 0.234375q-0.546875 0.21875 -0.953125 0.640625q-0.40625 0.40625 -0.640625 0.96875q-0.21875 0.546875 -0.21875 1.203125q0 0.640625 0.21875 1.203125q0.234375 0.546875 0.640625 0.96875q0.40625 0.421875 0.953125 0.65625q0.546875 0.21875 1.203125 0.21875zm5.434952 -2.546875q0.03125 -0.578125 0.296875 -1.03125q0.28125 -0.46875 0.71875 -0.71875q0.453125 -0.265625 0.984375 -0.265625q0.4375 0 0.671875 0.125q0.234375 0.109375 0.171875 0.34375q-0.03125 0.140625 -0.125 0.1875q-0.09375 0.046875 -0.21875 0.046875q-0.125 -0.015625 -0.28125 -0.03125q-0.53125 -0.046875 -0.9375 0.109375q-0.390625 0.15625 -0.640625 0.484375q-0.234375 0.3125 -0.234375 0.75l-0.40625 0zm0.046875 3.140625q-0.15625 0 -0.25 -0.09375q-0.09375 -0.09375 -0.09375 -0.265625l0 -4.390625q0 -0.171875 0.09375 -0.265625q0.09375 -0.09375 0.25 -0.09375q0.171875 0 0.265625 0.09375q0.09375 0.09375 0.09375 0.265625l0 4.390625q0 0.171875 -0.09375 0.265625q-0.09375 0.09375 -0.265625 0.09375zm4.444153 0q-0.171875 0 -0.28125 -0.09375q-0.09375 -0.109375 -0.09375 -0.265625l0 -4.375q0 -0.171875 0.09375 -0.265625q0.109375 -0.109375 0.28125 -0.109375q0.15625 0 0.25 0.109375q0.09375 0.09375 0.09375 0.265625l0 4.375q0 0.15625 -0.09375 0.265625q-0.09375 0.09375 -0.25 0.09375zm0.015625 -6.078125q-0.203125 0 -0.359375 -0.140625q-0.140625 -0.15625 -0.140625 -0.359375q0 -0.234375 0.15625 -0.375q0.15625 -0.140625 0.359375 -0.140625q0.1875 0 0.34375 0.140625q0.15625 0.140625 0.15625 0.375q0 0.203125 -0.15625 0.359375q-0.140625 0.140625 -0.359375 0.140625zm4.4145813 6.125q-0.75 0 -1.3125 -0.328125q-0.5625 -0.328125 -0.890625 -0.921875q-0.328125 -0.59375 -0.328125 -1.34375q0 -0.765625 0.328125 -1.34375q0.34375 -0.59375 0.9375 -0.921875q0.59375 -0.34375 1.328125 -0.34375q0.765625 0 1.34375 0.34375q0.578125 0.328125 0.90625 0.921875q0.34375 0.578125 0.34375 1.34375l-0.421875 0.21875q0 0.703125 -0.296875 1.234375q-0.28125 0.53125 -0.796875 0.84375q-0.5 0.296875 -1.140625 0.296875zm0.09375 1.96875q-0.75 0 -1.3125 -0.28125q-0.546875 -0.265625 -0.921875 -0.75q-0.09375 -0.109375 -0.078125 -0.25q0.015625 -0.125 0.125 -0.203125q0.125 -0.078125 0.265625 -0.0625q0.15625 0.03125 0.25 0.140625q0.265625 0.34375 0.6875 0.546875q0.421875 0.203125 0.984375 0.203125q0.53125 0 0.9375 -0.25q0.421875 -0.25 0.671875 -0.71875q0.25 -0.453125 0.25 -1.0625l0 -1.421875l0.265625 -0.53125l0.4375 0.078125l0 1.90625q0 0.75 -0.34375 1.34375q-0.328125 0.609375 -0.90625 0.953125q-0.578125 0.359375 -1.3125 0.359375zm-0.03125 -2.625q0.5625 0 0.984375 -0.234375q0.421875 -0.25 0.65625 -0.6875q0.25 -0.453125 0.25 -1.015625q0 -0.5625 -0.25 -1.0q-0.234375 -0.453125 -0.65625 -0.703125q-0.421875 -0.25 -0.984375 -0.25q-0.546875 0 -0.984375 0.25q-0.421875 0.25 -0.671875 0.703125q-0.234375 0.4375 -0.234375 1.0q0 0.5625 0.234375 1.015625q0.25 0.4375 0.671875 0.6875q0.4375 0.234375 0.984375 0.234375zm4.518265 0.609375q-0.171875 0 -0.28125 -0.09375q-0.09375 -0.109375 -0.09375 -0.265625l0 -4.375q0 -0.171875 0.09375 -0.265625q0.109375 -0.109375 0.28125 -0.109375q0.15625 0 0.25 0.109375q0.09375 0.09375 0.09375 0.265625l0 4.375q0 0.15625 -0.09375 0.265625q-0.09375 0.09375 -0.25 0.09375zm0.015625 -6.078125q-0.203125 0 -0.359375 -0.140625q-0.140625 -0.15625 -0.140625 -0.359375q0 -0.234375 0.15625 -0.375q0.15625 -0.140625 0.359375 -0.140625q0.1875 0 0.34375 0.140625q0.15625 0.140625 0.15625 0.375q0 0.203125 -0.15625 0.359375q-0.140625 0.140625 -0.359375 0.140625zm6.5395813 6.078125q-0.15625 0 -0.265625 -0.09375q-0.109375 -0.109375 -0.109375 -0.265625l0 -2.421875q0 -0.578125 -0.21875 -0.953125q-0.21875 -0.375 -0.59375 -0.5625q-0.375 -0.1875 -0.84375 -0.1875q-0.46875 0 -0.84375 0.1875q-0.359375 0.171875 -0.578125 0.484375q-0.203125 0.3125 -0.203125 0.703125l-0.515625 0q0.015625 -0.59375 0.3125 -1.046875q0.296875 -0.46875 0.796875 -0.734375q0.5 -0.265625 1.09375 -0.265625q0.671875 0 1.1875 0.28125q0.53125 0.265625 0.828125 0.796875q0.296875 0.53125 0.296875 1.296875l0 2.421875q0 0.15625 -0.109375 0.265625q-0.09375 0.09375 -0.234375 0.09375zm-4.015625 0q-0.171875 0 -0.265625 -0.09375q-0.09375 -0.109375 -0.09375 -0.265625l0 -4.375q0 -0.171875 0.09375 -0.265625q0.09375 -0.109375 0.265625 -0.109375q0.15625 0 0.25 0.109375q0.109375 0.09375 0.109375 0.265625l0 4.375q0 0.15625 -0.109375 0.265625q-0.09375 0.09375 -0.25 0.09375zm8.205765 0.046875q-0.71875 0 -1.296875 -0.34375q-0.5625 -0.34375 -0.90625 -0.921875q-0.328125 -0.59375 -0.328125 -1.328125q0 -0.75 0.34375 -1.328125q0.34375 -0.59375 0.921875 -0.9375q0.59375 -0.34375 1.328125 -0.34375q0.75 0 1.328125 0.34375q0.578125 0.34375 0.921875 0.9375q0.34375 0.578125 0.34375 1.328125l-0.28125 0.21875q0 0.671875 -0.3125 1.21875q-0.3125 0.53125 -0.859375 0.84375q-0.53125 0.3125 -1.203125 0.3125zm0.0625 -0.65625q0.546875 0 0.96875 -0.25q0.421875 -0.25 0.671875 -0.6875q0.25 -0.453125 0.25 -1.0q0 -0.5625 -0.25 -1.0q-0.25 -0.4375 -0.671875 -0.6875q-0.421875 -0.265625 -0.96875 -0.265625q-0.53125 0 -0.96875 0.265625q-0.421875 0.25 -0.671875 0.6875q-0.25 0.4375 -0.25 1.0q0 0.546875 0.25 1.0q0.25 0.4375 0.671875 0.6875q0.4375 0.25 0.96875 0.25zm2.234375 0.609375q-0.15625 0 -0.265625 -0.09375q-0.09375 -0.109375 -0.09375 -0.265625l0 -1.59375l0.171875 -0.734375l0.546875 0.140625l0 2.1875q0 0.15625 -0.109375 0.265625q-0.09375 0.09375 -0.25 0.09375zm2.8620148 0q-0.375 0 -0.671875 -0.203125q-0.28125 -0.203125 -0.453125 -0.5625q-0.15625 -0.375 -0.15625 -0.84375l0 -5.328125q0 -0.15625 0.09375 -0.25q0.09375 -0.09375 0.25 -0.09375q0.171875 0 0.265625 0.09375q0.09375 0.09375 0.09375 0.25l0 5.328125q0 0.390625 0.15625 0.65625q0.171875 0.25 0.421875 0.25l0.234375 0q0.140625 0 0.21875 0.09375q0.09375 0.09375 0.09375 0.25q0 0.15625 -0.125 0.265625q-0.109375 0.09375 -0.296875 0.09375l-0.125 0z" fill-rule="nonzero"/><path fill="#281e96" d="m149.20181 176.19212q-0.171875 0 -0.265625 -0.109375q-0.09375 -0.09375 -0.09375 -0.265625l0 -4.390625q0 -0.734375 0.34375 -1.3125q0.34375 -0.59375 0.921875 -0.921875q0.59375 -0.34375 1.3125 -0.34375q0.75 0 1.328125 0.34375q0.59375 0.34375 0.9375 0.9375q0.34375 0.578125 0.34375 1.328125q0 0.734375 -0.34375 1.328125q-0.328125 0.578125 -0.90625 0.921875q-0.5625 0.34375 -1.28125 0.34375q-0.625 0 -1.140625 -0.265625q-0.5 -0.265625 -0.796875 -0.703125l0 2.734375q0 0.171875 -0.109375 0.265625q-0.09375 0.109375 -0.25 0.109375zm2.21875 -2.796875q0.546875 0 0.96875 -0.25q0.4375 -0.25 0.671875 -0.6875q0.25 -0.453125 0.25 -1.0q0 -0.5625 -0.25 -1.0q-0.234375 -0.4375 -0.671875 -0.6875q-0.421875 -0.265625 -0.96875 -0.265625q-0.53125 0 -0.96875 0.265625q-0.421875 0.25 -0.671875 0.6875q-0.234375 0.4375 -0.234375 1.0q0 0.546875 0.234375 1.0q0.25 0.4375 0.671875 0.6875q0.4375 0.25 0.96875 0.25zm4.313736 -2.53125q0.03125 -0.578125 0.296875 -1.03125q0.28125 -0.46875 0.71875 -0.71875q0.453125 -0.265625 0.984375 -0.265625q0.4375 0 0.671875 0.125q0.234375 0.109375 0.171875 0.34375q-0.03125 0.140625 -0.125 0.1875q-0.09375 0.046875 -0.21875 0.046875q-0.125 -0.015625 -0.28125 -0.03125q-0.53125 -0.046875 -0.9375 0.109375q-0.390625 0.15625 -0.640625 0.484375q-0.234375 0.3125 -0.234375 0.75l-0.40625 0zm0.046875 3.140625q-0.15625 0 -0.25 -0.09375q-0.09375 -0.09375 -0.09375 -0.265625l0 -4.390625q0 -0.171875 0.09375 -0.265625q0.09375 -0.09375 0.25 -0.09375q0.171875 0 0.265625 0.09375q0.09375 0.09375 0.09375 0.265625l0 4.390625q0 0.171875 -0.09375 0.265625q-0.09375 0.09375 -0.265625 0.09375zm5.867691 0.046875q-0.734375 0 -1.328125 -0.328125q-0.59375 -0.34375 -0.9375 -0.921875q-0.328125 -0.59375 -0.328125 -1.34375q0 -0.75 0.328125 -1.34375q0.34375 -0.59375 0.9375 -0.921875q0.59375 -0.34375 1.328125 -0.34375q0.75 0 1.328125 0.34375q0.59375 0.328125 0.921875 0.921875q0.34375 0.59375 0.34375 1.34375q0 0.75 -0.34375 1.34375q-0.328125 0.578125 -0.921875 0.921875q-0.578125 0.328125 -1.328125 0.328125zm0 -0.65625q0.546875 0 0.96875 -0.25q0.4375 -0.25 0.671875 -0.6875q0.25 -0.4375 0.25 -1.0q0 -0.5625 -0.25 -1.0q-0.234375 -0.453125 -0.671875 -0.703125q-0.421875 -0.25 -0.96875 -0.25q-0.53125 0 -0.96875 0.25q-0.421875 0.25 -0.671875 0.703125q-0.25 0.4375 -0.25 1.0q0 0.5625 0.25 1.0q0.25 0.4375 0.671875 0.6875q0.4375 0.25 0.96875 0.25zm6.31514 0.65625q-0.734375 0 -1.328125 -0.34375q-0.578125 -0.34375 -0.921875 -0.921875q-0.34375 -0.59375 -0.34375 -1.34375q0 -0.734375 0.328125 -1.3125q0.34375 -0.59375 0.90625 -0.9375q0.578125 -0.34375 1.296875 -0.34375q0.625 0 1.125 0.265625q0.5 0.265625 0.8125 0.71875l0 -2.75q0 -0.171875 0.09375 -0.265625q0.109375 -0.09375 0.265625 -0.09375q0.15625 0 0.25 0.09375q0.109375 0.09375 0.109375 0.265625l0 4.40625q-0.015625 0.71875 -0.359375 1.3125q-0.328125 0.578125 -0.921875 0.921875q-0.578125 0.328125 -1.3125 0.328125zm0 -0.65625q0.546875 0 0.96875 -0.25q0.421875 -0.265625 0.671875 -0.703125q0.25 -0.4375 0.25 -1.0q0 -0.546875 -0.25 -0.984375q-0.25 -0.453125 -0.671875 -0.703125q-0.421875 -0.25 -0.96875 -0.25q-0.53125 0 -0.96875 0.25q-0.421875 0.25 -0.671875 0.703125q-0.25 0.4375 -0.25 0.984375q0 0.5625 0.25 1.0q0.25 0.4375 0.671875 0.703125q0.4375 0.25 0.96875 0.25zm6.501236 0.671875q-0.671875 0 -1.1875 -0.28125q-0.515625 -0.28125 -0.828125 -0.8125q-0.296875 -0.53125 -0.296875 -1.296875l0 -2.421875q0 -0.140625 0.09375 -0.25q0.109375 -0.109375 0.25 -0.109375q0.171875 0 0.265625 0.109375q0.109375 0.109375 0.109375 0.25l0 2.421875q0 0.578125 0.21875 0.953125q0.21875 0.375 0.59375 0.5625q0.375 0.1875 0.859375 0.1875q0.453125 0 0.8125 -0.171875q0.375 -0.1875 0.578125 -0.484375q0.21875 -0.3125 0.21875 -0.703125l0.515625 0q-0.015625 0.578125 -0.3125 1.046875q-0.296875 0.46875 -0.796875 0.734375q-0.484375 0.265625 -1.09375 0.265625zm2.046875 -0.0625q-0.15625 0 -0.265625 -0.09375q-0.09375 -0.109375 -0.09375 -0.265625l0 -4.390625q0 -0.15625 0.09375 -0.25q0.109375 -0.109375 0.265625 -0.109375q0.15625 0 0.25 0.109375q0.109375 0.09375 0.109375 0.25l0 4.390625q0 0.15625 -0.109375 0.265625q-0.09375 0.09375 -0.25 0.09375zm4.31514 0.046875q-0.734375 0 -1.3125 -0.34375q-0.5625 -0.34375 -0.90625 -0.921875q-0.328125 -0.59375 -0.328125 -1.328125q0 -0.75 0.3125 -1.328125q0.328125 -0.59375 0.875 -0.9375q0.546875 -0.34375 1.265625 -0.34375q0.578125 0 1.046875 0.234375q0.484375 0.21875 0.859375 0.671875q0.09375 0.109375 0.0625 0.234375q-0.015625 0.125 -0.15625 0.21875q-0.09375 0.078125 -0.21875 0.0625q-0.125 -0.03125 -0.21875 -0.140625q-0.546875 -0.625 -1.375 -0.625q-0.515625 0 -0.921875 0.25q-0.390625 0.25 -0.609375 0.703125q-0.21875 0.4375 -0.21875 1.0q0 0.5625 0.234375 1.0q0.234375 0.4375 0.65625 0.6875q0.421875 0.25 0.953125 0.25q0.375 0 0.671875 -0.09375q0.296875 -0.09375 0.53125 -0.296875q0.125 -0.09375 0.234375 -0.109375q0.125 -0.015625 0.234375 0.078125q0.109375 0.09375 0.125 0.234375q0.015625 0.125 -0.09375 0.21875q-0.6875 0.625 -1.703125 0.625zm5.2783203 -0.046875q-0.484375 0 -0.875 -0.234375q-0.390625 -0.234375 -0.609375 -0.640625q-0.21875 -0.40625 -0.21875 -0.921875l0 -4.5625q0 -0.15625 0.09375 -0.25q0.09375 -0.109375 0.25 -0.109375q0.15625 0 0.265625 0.109375q0.109375 0.09375 0.109375 0.25l0 4.5625q0 0.46875 0.265625 0.78125q0.28125 0.296875 0.71875 0.296875l0.265625 0q0.140625 0 0.234375 0.109375q0.09375 0.09375 0.09375 0.25q0 0.15625 -0.109375 0.265625q-0.109375 0.09375 -0.28125 0.09375l-0.203125 0zm-2.3125 -4.296875q-0.140625 0 -0.234375 -0.078125q-0.09375 -0.09375 -0.09375 -0.21875q0 -0.140625 0.09375 -0.234375q0.09375 -0.09375 0.234375 -0.09375l2.375 0q0.140625 0 0.234375 0.09375q0.09375 0.09375 0.09375 0.234375q0 0.125 -0.09375 0.21875q-0.09375 0.078125 -0.234375 0.078125l-2.375 0zm4.5936584 4.296875q-0.171875 0 -0.28125 -0.09375q-0.09375 -0.109375 -0.09375 -0.265625l0 -4.375q0 -0.171875 0.09375 -0.265625q0.109375 -0.109375 0.28125 -0.109375q0.15625 0 0.25 0.109375q0.09375 0.09375 0.09375 0.265625l0 4.375q0 0.15625 -0.09375 0.265625q-0.09375 0.09375 -0.25 0.09375zm0.015625 -6.078125q-0.203125 0 -0.359375 -0.140625q-0.140625 -0.15625 -0.140625 -0.359375q0 -0.234375 0.15625 -0.375q0.15625 -0.140625 0.359375 -0.140625q0.1875 0 0.34375 0.140625q0.15625 0.140625 0.15625 0.375q0 0.203125 -0.15625 0.359375q-0.140625 0.140625 -0.359375 0.140625zm3.8989563 6.078125q-0.21875 0 -0.328125 -0.25l-2.078125 -4.390625q-0.046875 -0.109375 0 -0.234375q0.046875 -0.125 0.1875 -0.1875q0.125 -0.0625 0.25 -0.015625q0.125 0.046875 0.1875 0.15625l1.984375 4.3125l-0.390625 0l1.96875 -4.3125q0.046875 -0.125 0.1875 -0.15625q0.140625 -0.046875 0.265625 0q0.125 0.0625 0.171875 0.203125q0.046875 0.125 0 0.234375l-2.046875 4.390625q-0.109375 0.25 -0.359375 0.25zm3.9396973 0q-0.171875 0 -0.28125 -0.09375q-0.09375 -0.109375 -0.09375 -0.265625l0 -4.375q0 -0.171875 0.09375 -0.265625q0.109375 -0.109375 0.28125 -0.109375q0.15625 0 0.25 0.109375q0.09375 0.09375 0.09375 0.265625l0 4.375q0 0.15625 -0.09375 0.265625q-0.09375 0.09375 -0.25 0.09375zm0.015625 -6.078125q-0.203125 0 -0.359375 -0.140625q-0.140625 -0.15625 -0.140625 -0.359375q0 -0.234375 0.15625 -0.375q0.15625 -0.140625 0.359375 -0.140625q0.1875 0 0.34375 0.140625q0.15625 0.140625 0.15625 0.375q0 0.203125 -0.15625 0.359375q-0.140625 0.140625 -0.359375 0.140625zm4.1489563 6.078125q-0.484375 0 -0.875 -0.234375q-0.390625 -0.234375 -0.609375 -0.640625q-0.21875 -0.40625 -0.21875 -0.921875l0 -4.5625q0 -0.15625 0.09375 -0.25q0.09375 -0.109375 0.25 -0.109375q0.15625 0 0.265625 0.109375q0.109375 0.09375 0.109375 0.25l0 4.5625q0 0.46875 0.265625 0.78125q0.28125 0.296875 0.71875 0.296875l0.265625 0q0.140625 0 0.234375 0.109375q0.09375 0.09375 0.09375 0.25q0 0.15625 -0.109375 0.265625q-0.109375 0.09375 -0.28125 0.09375l-0.203125 0zm-2.3125 -4.296875q-0.140625 0 -0.234375 -0.078125q-0.09375 -0.09375 -0.09375 -0.21875q0 -0.140625 0.09375 -0.234375q0.09375 -0.09375 0.234375 -0.09375l2.375 0q0.140625 0 0.234375 0.09375q0.09375 0.09375 0.09375 0.234375q0 0.125 -0.09375 0.21875q-0.09375 0.078125 -0.234375 0.078125l-2.375 0zm4.9530334 6.515625q-0.078125 0 -0.171875 -0.03125q-0.3125 -0.140625 -0.171875 -0.453125l3.015625 -6.640625q0.140625 -0.296875 0.4375 -0.171875q0.328125 0.140625 0.1875 0.4375l-3.03125 6.640625q-0.09375 0.21875 -0.265625 0.21875zm1.03125 -2.375q-0.140625 0.0625 -0.265625 0.03125q-0.109375 -0.046875 -0.1875 -0.1875l-2.078125 -4.3125q-0.0625 -0.140625 -0.015625 -0.265625q0.046875 -0.125 0.171875 -0.1875q0.140625 -0.0625 0.265625 -0.015625q0.125 0.03125 0.1875 0.171875l2.046875 4.3125q0.078125 0.140625 0.046875 0.265625q-0.03125 0.125 -0.171875 0.1875z" fill-rule="nonzero"/><path fill="#281e96" d="m151.10806 185.0515q-0.734375 0 -1.3125 -0.34375q-0.5625 -0.34375 -0.90625 -0.921875q-0.328125 -0.59375 -0.328125 -1.328125q0 -0.75 0.3125 -1.328125q0.328125 -0.59375 0.875 -0.9375q0.546875 -0.34375 1.265625 -0.34375q0.578125 0 1.046875 0.234375q0.484375 0.21875 0.859375 0.671875q0.09375 0.109375 0.0625 0.234375q-0.015625 0.125 -0.15625 0.21875q-0.09375 0.078125 -0.21875 0.0625q-0.125 -0.03125 -0.21875 -0.140625q-0.546875 -0.625 -1.375 -0.625q-0.515625 0 -0.921875 0.25q-0.390625 0.25 -0.609375 0.703125q-0.21875 0.4375 -0.21875 1.0q0 0.5625 0.234375 1.0q0.234375 0.4375 0.65625 0.6875q0.421875 0.25 0.953125 0.25q0.375 0 0.671875 -0.09375q0.296875 -0.09375 0.53125 -0.296875q0.125 -0.09375 0.234375 -0.109375q0.125 -0.015625 0.234375 0.078125q0.109375 0.09375 0.125 0.234375q0.015625 0.125 -0.09375 0.21875q-0.6875 0.625 -1.703125 0.625zm5.5126953 0.015625q-0.671875 0 -1.1875 -0.28125q-0.515625 -0.28125 -0.828125 -0.8125q-0.296875 -0.53125 -0.296875 -1.296875l0 -2.421875q0 -0.140625 0.09375 -0.25q0.109375 -0.109375 0.25 -0.109375q0.171875 0 0.265625 0.109375q0.109375 0.109375 0.109375 0.25l0 2.421875q0 0.578125 0.21875 0.953125q0.21875 0.375 0.59375 0.5625q0.375 0.1875 0.859375 0.1875q0.453125 0 0.8125 -0.171875q0.375 -0.1875 0.578125 -0.484375q0.21875 -0.3125 0.21875 -0.703125l0.515625 0q-0.015625 0.578125 -0.3125 1.046875q-0.296875 0.46875 -0.796875 0.734375q-0.484375 0.265625 -1.09375 0.265625zm2.046875 -0.0625q-0.15625 0 -0.265625 -0.09375q-0.09375 -0.109375 -0.09375 -0.265625l0 -4.390625q0 -0.15625 0.09375 -0.25q0.109375 -0.109375 0.265625 -0.109375q0.15625 0 0.25 0.109375q0.109375 0.09375 0.109375 0.25l0 4.390625q0 0.15625 -0.109375 0.265625q-0.09375 0.09375 -0.25 0.09375zm2.3463898 -3.140625q0.03125 -0.578125 0.296875 -1.03125q0.28125 -0.46875 0.71875 -0.71875q0.453125 -0.265625 0.984375 -0.265625q0.4375 0 0.671875 0.125q0.234375 0.109375 0.171875 0.34375q-0.03125 0.140625 -0.125 0.1875q-0.09375 0.046875 -0.21875 0.046875q-0.125 -0.015625 -0.28125 -0.03125q-0.53125 -0.046875 -0.9375 0.109375q-0.390625 0.15625 -0.640625 0.484375q-0.234375 0.3125 -0.234375 0.75l-0.40625 0zm0.046875 3.140625q-0.15625 0 -0.25 -0.09375q-0.09375 -0.09375 -0.09375 -0.265625l0 -4.390625q0 -0.171875 0.09375 -0.265625q0.09375 -0.09375 0.25 -0.09375q0.171875 0 0.265625 0.09375q0.09375 0.09375 0.09375 0.265625l0 4.390625q0 0.171875 -0.09375 0.265625q-0.09375 0.09375 -0.265625 0.09375zm5.662903 0q-0.21875 0 -0.328125 -0.25l-2.078125 -4.390625q-0.046875 -0.109375 0 -0.234375q0.046875 -0.125 0.1875 -0.1875q0.125 -0.0625 0.25 -0.015625q0.125 0.046875 0.1875 0.15625l1.984375 4.3125l-0.390625 0l1.96875 -4.3125q0.046875 -0.125 0.1875 -0.15625q0.140625 -0.046875 0.265625 0q0.125 0.0625 0.171875 0.203125q0.046875 0.125 0 0.234375l-2.046875 4.390625q-0.109375 0.25 -0.359375 0.25zm5.5499115 0.046875q-0.765625 0 -1.34375 -0.328125q-0.578125 -0.328125 -0.921875 -0.921875q-0.328125 -0.59375 -0.328125 -1.34375q0 -0.765625 0.3125 -1.34375q0.3125 -0.59375 0.859375 -0.921875q0.5625 -0.34375 1.28125 -0.34375q0.703125 0 1.234375 0.328125q0.53125 0.328125 0.8125 0.890625q0.296875 0.5625 0.296875 1.296875q0 0.15625 -0.09375 0.25q-0.09375 0.078125 -0.25 0.078125l-3.96875 0l0 -0.59375l4.046875 0l-0.40625 0.28125q0.015625 -0.53125 -0.1875 -0.953125q-0.203125 -0.4375 -0.59375 -0.671875q-0.375 -0.25 -0.890625 -0.25q-0.53125 0 -0.9375 0.25q-0.40625 0.25 -0.625 0.703125q-0.21875 0.4375 -0.21875 1.0q0 0.5625 0.25 1.015625q0.25 0.4375 0.671875 0.6875q0.4375 0.25 1.0 0.25q0.328125 0 0.671875 -0.109375q0.34375 -0.125 0.546875 -0.296875q0.109375 -0.09375 0.234375 -0.09375q0.125 0 0.21875 0.0625q0.125 0.109375 0.125 0.25q0.015625 0.125 -0.109375 0.21875q-0.296875 0.265625 -0.78125 0.4375q-0.46875 0.171875 -0.90625 0.171875z" fill-rule="nonzero"/><path fill="#000000" fill-opacity="0.0" d="m45.82677 94.53543l73.102356 0l0 17.669296l-73.102356 0z" fill-rule="evenodd"/><path fill="#281e96" d="m51.123646 107.49543q-0.15625 0 -0.265625 -0.09375q-0.09375 -0.109375 -0.09375 -0.265625l0 -6.5625q0 -0.15625 0.09375 -0.25q0.109375 -0.109375 0.265625 -0.109375q0.171875 0 0.28125 0.125l4.453125 5.859375l0 -5.625q0 -0.15625 0.09375 -0.25q0.109375 -0.109375 0.28125 -0.109375q0.140625 0 0.25 0.109375q0.109375 0.09375 0.109375 0.25l0 6.5625q0 0.15625 -0.109375 0.265625q-0.109375 0.09375 -0.25 0.09375q-0.078125 0 -0.15625 -0.03125q-0.078125 -0.03125 -0.125 -0.09375l-4.46875 -5.859375l0 5.625q0 0.15625 -0.109375 0.265625q-0.09375 0.09375 -0.25 0.09375zm9.555084 0.046875q-0.765625 0 -1.34375 -0.328125q-0.578125 -0.328125 -0.921875 -0.921875q-0.328125 -0.59375 -0.328125 -1.34375q0 -0.765625 0.3125 -1.34375q0.3125 -0.59375 0.859375 -0.921875q0.5625 -0.34375 1.28125 -0.34375q0.703125 0 1.234375 0.328125q0.53125 0.328125 0.8125 0.890625q0.296875 0.5625 0.296875 1.296875q0 0.15625 -0.09375 0.25q-0.09375 0.078125 -0.25 0.078125l-3.96875 0l0 -0.59375l4.046875 0l-0.40625 0.28125q0.015625 -0.53125 -0.1875 -0.953125q-0.203125 -0.4375 -0.59375 -0.671875q-0.375 -0.25 -0.890625 -0.25q-0.53125 0 -0.9375 0.25q-0.40625 0.25 -0.625 0.703125q-0.21875 0.4375 -0.21875 1.0q0 0.5625 0.25 1.015625q0.25 0.4375 0.671875 0.6875q0.4375 0.25 1.0 0.25q0.328125 0 0.671875 -0.109375q0.34375 -0.125 0.546875 -0.296875q0.109375 -0.09375 0.234375 -0.09375q0.125 0 0.21875 0.0625q0.125 0.109375 0.125 0.25q0.015625 0.125 -0.109375 0.21875q-0.296875 0.265625 -0.78125 0.4375q-0.46875 0.171875 -0.90625 0.171875zm4.384556 -0.046875q-0.125 0 -0.21875 -0.0625q-0.09375 -0.0625 -0.125 -0.171875l-1.4531288 -4.359375q-0.0625 -0.234375 0 -0.375q0.0625 -0.140625 0.265625 -0.140625q0.125 0 0.21875 0.078125q0.09375 0.0625 0.140625 0.203125l1.2968788 3.953125l-0.21875 0l1.203125 -3.953125q0.046875 -0.109375 0.125 -0.1875q0.09375 -0.09375 0.234375 -0.09375q0.140625 0 0.21875 0.078125q0.09375 0.078125 0.140625 0.203125l1.140625 3.875l-0.15625 0l1.265625 -3.875q0.09375 -0.28125 0.34375 -0.28125q0.203125 0 0.28125 0.15625q0.078125 0.15625 0 0.359375l-1.453125 4.359375q-0.03125 0.109375 -0.125 0.171875q-0.09375 0.0625 -0.203125 0.0625q-0.125 0 -0.234375 -0.0625q-0.09375 -0.0625 -0.109375 -0.171875l-1.1875 -3.890625l0.109375 0l-1.171875 3.890625q-0.03125 0.109375 -0.125 0.171875q-0.09375 0.0625 -0.203125 0.0625z" fill-rule="nonzero"/><path fill="#281e96" d="m51.029896 120.68293q-0.171875 0 -0.265625 -0.109375q-0.09375 -0.09375 -0.09375 -0.265625l0 -4.390625q0 -0.734375 0.34375 -1.3125q0.34375 -0.59375 0.921875 -0.921875q0.59375 -0.34375 1.3125 -0.34375q0.75 0 1.328125 0.34375q0.59375 0.34375 0.9375 0.9375q0.34375 0.578125 0.34375 1.328125q0 0.734375 -0.34375 1.328125q-0.328125 0.578125 -0.90625 0.921875q-0.5625 0.34375 -1.28125 0.34375q-0.625 0 -1.140625 -0.265625q-0.5 -0.265625 -0.796875 -0.703125l0 2.734375q0 0.171875 -0.109375 0.265625q-0.09375 0.109375 -0.25 0.109375zm2.21875 -2.796875q0.546875 0 0.96875 -0.25q0.4375 -0.25 0.671875 -0.6875q0.25 -0.453125 0.25 -1.0q0 -0.5625 -0.25 -1.0q-0.234375 -0.4375 -0.671875 -0.6875q-0.421875 -0.265625 -0.96875 -0.265625q-0.53125 0 -0.96875 0.265625q-0.421875 0.25 -0.671875 0.6875q-0.234375 0.4375 -0.234375 1.0q0 0.546875 0.234375 1.0q0.25 0.4375 0.671875 0.6875q0.4375 0.25 0.96875 0.25zm4.313736 -2.53125q0.03125 -0.578125 0.296875 -1.03125q0.28125 -0.46875 0.71875 -0.71875q0.453125 -0.265625 0.984375 -0.265625q0.4375 0 0.671875 0.125q0.234375 0.109375 0.171875 0.34375q-0.03125 0.140625 -0.125 0.1875q-0.09375 0.046875 -0.21875 0.046875q-0.125 -0.015625 -0.28125 -0.03125q-0.53125 -0.046875 -0.9375 0.109375q-0.390625 0.15625 -0.640625 0.484375q-0.234375 0.3125 -0.234375 0.75l-0.40625 0zm0.046875 3.140625q-0.15625 0 -0.25 -0.09375q-0.09375 -0.09375 -0.09375 -0.265625l0 -4.390625q0 -0.171875 0.09375 -0.265625q0.09375 -0.09375 0.25 -0.09375q0.171875 0 0.265625 0.09375q0.09375 0.09375 0.09375 0.265625l0 4.390625q0 0.171875 -0.09375 0.265625q-0.09375 0.09375 -0.265625 0.09375zm5.867691 0.046875q-0.734375 0 -1.328125 -0.328125q-0.59375 -0.34375 -0.9375 -0.921875q-0.328125 -0.59375 -0.328125 -1.34375q0 -0.75 0.328125 -1.34375q0.34375 -0.59375 0.9375 -0.921875q0.59375 -0.34375 1.328125 -0.34375q0.7500038 0 1.3281288 0.34375q0.59375 0.328125 0.921875 0.921875q0.34375 0.59375 0.34375 1.34375q0 0.75 -0.34375 1.34375q-0.328125 0.578125 -0.921875 0.921875q-0.578125 0.328125 -1.3281288 0.328125zm0 -0.65625q0.5468788 0 0.9687538 -0.25q0.4375 -0.25 0.671875 -0.6875q0.25 -0.4375 0.25 -1.0q0 -0.5625 -0.25 -1.0q-0.234375 -0.453125 -0.671875 -0.703125q-0.421875 -0.25 -0.9687538 -0.25q-0.53125 0 -0.96875 0.25q-0.421875 0.25 -0.671875 0.703125q-0.25 0.4375 -0.25 1.0q0 0.5625 0.25 1.0q0.25 0.4375 0.671875 0.6875q0.4375 0.25 0.96875 0.25zm6.3151436 0.65625q-0.734375 0 -1.328125 -0.34375q-0.578125 -0.34375 -0.921875 -0.921875q-0.34375 -0.59375 -0.34375 -1.34375q0 -0.734375 0.328125 -1.3125q0.34375 -0.59375 0.90625 -0.9375q0.578125 -0.34375 1.296875 -0.34375q0.625 0 1.125 0.265625q0.5 0.265625 0.8125 0.71875l0 -2.75q0 -0.171875 0.09375 -0.265625q0.109375 -0.09375 0.265625 -0.09375q0.15625 0 0.25 0.09375q0.109375 0.09375 0.109375 0.265625l0 4.40625q-0.015625 0.71875 -0.359375 1.3125q-0.328125 0.578125 -0.921875 0.921875q-0.578125 0.328125 -1.3125 0.328125zm0 -0.65625q0.546875 0 0.96875 -0.25q0.421875 -0.265625 0.671875 -0.703125q0.25 -0.4375 0.25 -1.0q0 -0.546875 -0.25 -0.984375q-0.25 -0.453125 -0.671875 -0.703125q-0.421875 -0.25 -0.96875 -0.25q-0.53125 0 -0.96875 0.25q-0.421875 0.25 -0.671875 0.703125q-0.25 0.4375 -0.25 0.984375q0 0.5625 0.25 1.0q0.25 0.4375 0.671875 0.703125q0.4375 0.25 0.96875 0.25zm6.501236 0.671875q-0.671875 0 -1.1875 -0.28125q-0.515625 -0.28125 -0.828125 -0.8125q-0.296875 -0.53125 -0.296875 -1.296875l0 -2.421875q0 -0.140625 0.09375 -0.25q0.109375 -0.109375 0.25 -0.109375q0.171875 0 0.265625 0.109375q0.109375 0.109375 0.109375 0.25l0 2.421875q0 0.578125 0.21875 0.953125q0.21875 0.375 0.59375 0.5625q0.375 0.1875 0.859375 0.1875q0.453125 0 0.8125 -0.171875q0.375 -0.1875 0.578125 -0.484375q0.21875 -0.3125 0.21875 -0.703125l0.515625 0q-0.015625 0.578125 -0.3125 1.046875q-0.296875 0.46875 -0.796875 0.734375q-0.484375 0.265625 -1.09375 0.265625zm2.046875 -0.0625q-0.15625 0 -0.265625 -0.09375q-0.09375 -0.109375 -0.09375 -0.265625l0 -4.390625q0 -0.15625 0.09375 -0.25q0.109375 -0.109375 0.265625 -0.109375q0.15625 0 0.25 0.109375q0.109375 0.09375 0.109375 0.25l0 4.390625q0 0.15625 -0.109375 0.265625q-0.09375 0.09375 -0.25 0.09375zm4.31514 0.046875q-0.734375 0 -1.3125 -0.34375q-0.5625 -0.34375 -0.90625 -0.921875q-0.328125 -0.59375 -0.328125 -1.328125q0 -0.75 0.3125 -1.328125q0.328125 -0.59375 0.875 -0.9375q0.546875 -0.34375 1.265625 -0.34375q0.578125 0 1.046875 0.234375q0.484375 0.21875 0.859375 0.671875q0.09375 0.109375 0.0625 0.234375q-0.015625 0.125 -0.15625 0.21875q-0.09375 0.078125 -0.21875 0.0625q-0.125 -0.03125 -0.21875 -0.140625q-0.546875 -0.625 -1.375 -0.625q-0.515625 0 -0.921875 0.25q-0.390625 0.25 -0.609375 0.703125q-0.21875 0.4375 -0.21875 1.0q0 0.5625 0.234375 1.0q0.234375 0.4375 0.65625 0.6875q0.421875 0.25 0.953125 0.25q0.375 0 0.671875 -0.09375q0.296875 -0.09375 0.53125 -0.296875q0.125 -0.09375 0.234375 -0.109375q0.125 -0.015625 0.234375 0.078125q0.109375 0.09375 0.125 0.234375q0.015625 0.125 -0.09375 0.21875q-0.6875 0.625 -1.703125 0.625zm5.2783203 -0.046875q-0.484375 0 -0.875 -0.234375q-0.390625 -0.234375 -0.609375 -0.640625q-0.21875 -0.40625 -0.21875 -0.921875l0 -4.5625q0 -0.15625 0.09375 -0.25q0.09375 -0.109375 0.25 -0.109375q0.15625 0 0.265625 0.109375q0.109375 0.09375 0.109375 0.25l0 4.5625q0 0.46875 0.265625 0.78125q0.28125 0.296875 0.71875 0.296875l0.265625 0q0.140625 0 0.234375 0.109375q0.09375 0.09375 0.09375 0.25q0 0.15625 -0.109375 0.265625q-0.109375 0.09375 -0.28125 0.09375l-0.203125 0zm-2.3125 -4.296875q-0.140625 0 -0.234375 -0.078125q-0.09375 -0.09375 -0.09375 -0.21875q0 -0.140625 0.09375 -0.234375q0.09375 -0.09375 0.234375 -0.09375l2.375 0q0.140625 0 0.234375 0.09375q0.09375 0.09375 0.09375 0.234375q0 0.125 -0.09375 0.21875q-0.09375 0.078125 -0.234375 0.078125l-2.375 0zm4.5936584 4.296875q-0.171875 0 -0.28125 -0.09375q-0.09375 -0.109375 -0.09375 -0.265625l0 -4.375q0 -0.171875 0.09375 -0.265625q0.109375 -0.109375 0.28125 -0.109375q0.15625 0 0.25 0.109375q0.09375 0.09375 0.09375 0.265625l0 4.375q0 0.15625 -0.09375 0.265625q-0.09375 0.09375 -0.25 0.09375zm0.015625 -6.078125q-0.203125 0 -0.359375 -0.140625q-0.140625 -0.15625 -0.140625 -0.359375q0 -0.234375 0.15625 -0.375q0.15625 -0.140625 0.359375 -0.140625q0.1875 0 0.34375 0.140625q0.15625 0.140625 0.15625 0.375q0 0.203125 -0.15625 0.359375q-0.140625 0.140625 -0.359375 0.140625zm3.8989563 6.078125q-0.21875 0 -0.328125 -0.25l-2.078125 -4.390625q-0.046875 -0.109375 0 -0.234375q0.046875 -0.125 0.1875 -0.1875q0.125 -0.0625 0.25 -0.015625q0.125 0.046875 0.1875 0.15625l1.984375 4.3125l-0.390625 0l1.96875 -4.3125q0.046875 -0.125 0.1875 -0.15625q0.140625 -0.046875 0.265625 0q0.125 0.0625 0.171875 0.203125q0.046875 0.125 0 0.234375l-2.046875 4.390625q-0.109375 0.25 -0.359375 0.25zm3.9396973 0q-0.171875 0 -0.28125 -0.09375q-0.09375 -0.109375 -0.09375 -0.265625l0 -4.375q0 -0.171875 0.09375 -0.265625q0.109375 -0.109375 0.28125 -0.109375q0.15625 0 0.25 0.109375q0.09375 0.09375 0.09375 0.265625l0 4.375q0 0.15625 -0.09375 0.265625q-0.09375 0.09375 -0.25 0.09375zm0.015625 -6.078125q-0.203125 0 -0.359375 -0.140625q-0.140625 -0.15625 -0.140625 -0.359375q0 -0.234375 0.15625 -0.375q0.15625 -0.140625 0.359375 -0.140625q0.1875 0 0.34375 0.140625q0.15625 0.140625 0.15625 0.375q0 0.203125 -0.15625 0.359375q-0.140625 0.140625 -0.359375 0.140625zm4.1489563 6.078125q-0.484375 0 -0.875 -0.234375q-0.390625 -0.234375 -0.609375 -0.640625q-0.21875 -0.40625 -0.21875 -0.921875l0 -4.5625q0 -0.15625 0.09375 -0.25q0.09375 -0.109375 0.25 -0.109375q0.15625 0 0.265625 0.109375q0.109375 0.09375 0.109375 0.25l0 4.5625q0 0.46875 0.265625 0.78125q0.28125 0.296875 0.71875 0.296875l0.265625 0q0.140625 0 0.234375 0.109375q0.09375 0.09375 0.09375 0.25q0 0.15625 -0.109375 0.265625q-0.109375 0.09375 -0.28125 0.09375l-0.203125 0zm-2.3125 -4.296875q-0.140625 0 -0.234375 -0.078125q-0.09375 -0.09375 -0.09375 -0.21875q0 -0.140625 0.09375 -0.234375q0.09375 -0.09375 0.234375 -0.09375l2.375 0q0.140625 0 0.234375 0.09375q0.09375 0.09375 0.09375 0.234375q0 0.125 -0.09375 0.21875q-0.09375 0.078125 -0.234375 0.078125l-2.375 0zm4.9530334 6.515625q-0.078125 0 -0.171875 -0.03125q-0.3125 -0.140625 -0.171875 -0.453125l3.015625 -6.640625q0.140625 -0.296875 0.4375 -0.171875q0.328125 0.140625 0.1875 0.4375l-3.03125 6.640625q-0.09375 0.21875 -0.265625 0.21875zm1.03125 -2.375q-0.140625 0.0625 -0.265625 0.03125q-0.109375 -0.046875 -0.1875 -0.1875l-2.078125 -4.3125q-0.0625 -0.140625 -0.015625 -0.265625q0.046875 -0.125 0.171875 -0.1875q0.140625 -0.0625 0.265625 -0.015625q0.125 0.03125 0.1875 0.171875l2.046875 4.3125q0.078125 0.140625 0.046875 0.265625q-0.03125 0.125 -0.171875 0.1875z" fill-rule="nonzero"/><path fill="#281e96" d="m52.936146 129.54231q-0.734375 0 -1.3125 -0.34375q-0.5625 -0.34375 -0.90625 -0.921875q-0.328125 -0.5937576 -0.328125 -1.3281326q0 -0.75 0.3125 -1.328125q0.328125 -0.59375 0.875 -0.9375q0.546875 -0.34375 1.265625 -0.34375q0.578125 0 1.046875 0.234375q0.484375 0.21875 0.859375 0.671875q0.09375 0.109375 0.0625 0.234375q-0.015625 0.125 -0.15625 0.21875q-0.09375 0.078125 -0.21875 0.0625q-0.125 -0.03125 -0.21875 -0.140625q-0.546875 -0.625 -1.375 -0.625q-0.515625 0 -0.921875 0.25q-0.390625 0.25 -0.609375 0.703125q-0.21875 0.4375 -0.21875 1.0q0 0.5625 0.234375 1.0q0.234375 0.43750763 0.65625 0.6875076q0.421875 0.25 0.953125 0.25q0.375 0 0.671875 -0.09375q0.296875 -0.09375 0.53125 -0.296875q0.125 -0.09375 0.234375 -0.109375q0.125 -0.015625 0.234375 0.078125q0.109375 0.09375 0.125 0.234375q0.015625 0.125 -0.09375 0.21875q-0.6875 0.625 -1.703125 0.625zm5.5126953 0.015625q-0.671875 0 -1.1875 -0.28125q-0.515625 -0.28125 -0.828125 -0.8125q-0.296875 -0.5312576 -0.296875 -1.2968826l0 -2.421875q0 -0.140625 0.09375 -0.25q0.109375 -0.109375 0.25 -0.109375q0.171875 0 0.265625 0.109375q0.109375 0.109375 0.109375 0.25l0 2.421875q0 0.578125 0.21875 0.9531326q0.21875 0.375 0.59375 0.5625q0.375 0.1875 0.859375 0.1875q0.453125 0 0.8125 -0.171875q0.375 -0.1875 0.578125 -0.484375q0.21875 -0.31250763 0.21875 -0.7031326l0.515625 0q-0.015625 0.5781326 -0.3125 1.0468826q-0.296875 0.46875 -0.796875 0.734375q-0.484375 0.265625 -1.09375 0.265625zm2.046875 -0.0625q-0.15625 0 -0.265625 -0.09375q-0.09375 -0.109375 -0.09375 -0.265625l0 -4.3906326q0 -0.15625 0.09375 -0.25q0.109375 -0.109375 0.265625 -0.109375q0.15625 0 0.25 0.109375q0.109375 0.09375 0.109375 0.25l0 4.3906326q0 0.15625 -0.109375 0.265625q-0.09375 0.09375 -0.25 0.09375zm2.3463898 -3.1406326q0.03125 -0.578125 0.296875 -1.03125q0.28125 -0.46875 0.71875 -0.71875q0.4531288 -0.265625 0.9843788 -0.265625q0.4375 0 0.671875 0.125q0.234375 0.109375 0.171875 0.34375q-0.03125 0.140625 -0.125 0.1875q-0.09375 0.046875 -0.21875 0.046875q-0.125 -0.015625 -0.28125 -0.03125q-0.53125 -0.046875 -0.9375 0.109375q-0.3906288 0.15625 -0.6406288 0.484375q-0.234375 0.3125 -0.234375 0.75l-0.40625 0zm0.046875 3.1406326q-0.15625 0 -0.25 -0.09375q-0.09375 -0.09375 -0.09375 -0.265625l0 -4.3906326q0 -0.171875 0.09375 -0.265625q0.09375 -0.09375 0.25 -0.09375q0.171875 0 0.265625 0.09375q0.09375 0.09375 0.09375 0.265625l0 4.3906326q0 0.171875 -0.09375 0.265625q-0.09375 0.09375 -0.265625 0.09375zm5.6629066 0q-0.21875 0 -0.328125 -0.25l-2.078125 -4.3906326q-0.046875 -0.109375 0 -0.234375q0.046875 -0.125 0.1875 -0.1875q0.125 -0.0625 0.25 -0.015625q0.125 0.046875 0.1875 0.15625l1.984375 4.3125076l-0.390625 0l1.96875 -4.3125076q0.046875 -0.125 0.1875 -0.15625q0.140625 -0.046875 0.265625 0q0.125 0.0625 0.171875 0.203125q0.046875 0.125 0 0.234375l-2.046875 4.3906326q-0.109375 0.25 -0.359375 0.25zm5.5499115 0.046875q-0.765625 0 -1.34375 -0.328125q-0.578125 -0.328125 -0.921875 -0.921875q-0.328125 -0.5937576 -0.328125 -1.3437576q0 -0.765625 0.3125 -1.34375q0.3125 -0.59375 0.859375 -0.921875q0.5625 -0.34375 1.28125 -0.34375q0.703125 0 1.234375 0.328125q0.53125 0.328125 0.8125 0.890625q0.296875 0.5625 0.296875 1.296875q0 0.15625 -0.09375 0.25q-0.09375 0.078125 -0.25 0.078125l-3.96875 0l0 -0.59375l4.046875 0l-0.40625 0.28125q0.015625 -0.53125 -0.1875 -0.953125q-0.203125 -0.4375 -0.59375 -0.671875q-0.375 -0.25 -0.890625 -0.25q-0.53125 0 -0.9375 0.25q-0.40625 0.25 -0.625 0.703125q-0.21875 0.4375 -0.21875 1.0q0 0.5625 0.25 1.015625q0.25 0.43750763 0.671875 0.6875076q0.4375 0.25 1.0 0.25q0.328125 0 0.671875 -0.109375q0.34375 -0.125 0.546875 -0.296875q0.109375 -0.09375 0.234375 -0.09375q0.125 0 0.21875 0.0625q0.125 0.109375 0.125 0.25q0.015625 0.125 -0.109375 0.21875q-0.296875 0.265625 -0.78125 0.4375q-0.46875 0.171875 -0.90625 0.171875z" fill-rule="nonzero"/><path fill="#000000" fill-opacity="0.0" d="m37.712597 216.93788l1.1653557 -162.20473" fill-rule="evenodd"/><path stroke="#281e96" stroke-width="4.0" stroke-linejoin="round" stroke-linecap="butt" d="m37.712597 216.9379l0.99293137 -138.20535" fill-rule="evenodd"/><path fill="#281e96" stroke="#281e96" stroke-width="4.0" stroke-linecap="butt" d="m45.31229 78.78001l-6.476349 -18.199387l-6.737171 18.104454z" fill-rule="evenodd"/><path fill="#000000" fill-opacity="0.0" d="m37.71391 214.94781l172.7874 0.15748596" fill-rule="evenodd"/><path stroke="#281e96" stroke-width="4.0" stroke-linejoin="round" stroke-linecap="butt" d="m37.71391 214.94781l148.78741 0.13560486" fill-rule="evenodd"/><path fill="#281e96" stroke="#281e96" stroke-width="4.0" stroke-linecap="butt" d="m186.4953 221.69035l18.158401 -6.590393l-18.146362 -6.623474z" fill-rule="evenodd"/><path fill="#000000" fill-opacity="0.0" d="m116.32546 200.16536l136.97638 0l0 33.102356l-136.97638 0z" fill-rule="evenodd"/><path fill="#4332ff" d="m218.2835 220.68535q-0.1875 0 -0.328125 -0.140625q-0.140625 -0.140625 -0.140625 -0.328125l0 -8.90625l0.9375 0l0 8.90625q0 0.1875 -0.140625 0.328125q-0.125 0.140625 -0.328125 0.140625zm-3.3125 -8.515625q-0.1875 0 -0.3125 -0.125q-0.109375 -0.125 -0.109375 -0.296875q0 -0.1875 0.109375 -0.3125q0.125 -0.125 0.3125 -0.125l6.640625 0q0.1875 0 0.3125 0.125q0.125 0.125 0.125 0.3125q0 0.171875 -0.125 0.296875q-0.125 0.125 -0.3125 0.125l-6.640625 0zm8.865067 8.515625q-0.203125 0 -0.34375 -0.125q-0.125 -0.125 -0.125 -0.34375l0 -5.625q0 -0.21875 0.125 -0.34375q0.140625 -0.125 0.34375 -0.125q0.203125 0 0.328125 0.125q0.140625 0.125 0.140625 0.34375l0 5.625q0 0.21875 -0.140625 0.34375q-0.125 0.125 -0.328125 0.125zm0.046875 -7.8125q-0.265625 0 -0.46875 -0.1875q-0.1875 -0.203125 -0.1875 -0.46875q0 -0.296875 0.203125 -0.46875q0.203125 -0.1875 0.453125 -0.1875q0.265625 0 0.453125 0.1875q0.203125 0.171875 0.203125 0.46875q0 0.265625 -0.203125 0.46875q-0.1875 0.1875 -0.453125 0.1875zm11.639893 7.8125q-0.203125 0 -0.34375 -0.125q-0.125 -0.125 -0.125 -0.328125l0 -3.453125q0 -0.859375 -0.453125 -1.359375q-0.4375 -0.5 -1.140625 -0.5q-0.734375 0 -1.21875 0.5q-0.46875 0.5 -0.453125 1.328125l-0.828125 0q0.015625 -0.796875 0.34375 -1.40625q0.34375 -0.625 0.921875 -0.953125q0.59375 -0.34375 1.328125 -0.34375q0.71875 0 1.265625 0.34375q0.546875 0.328125 0.84375 0.953125q0.3125 0.609375 0.3125 1.4375l0 3.453125q0 0.203125 -0.125 0.328125q-0.125 0.125 -0.328125 0.125zm-8.40625 0q-0.21875 0 -0.34375 -0.125q-0.125 -0.125 -0.125 -0.328125l0 -5.640625q0 -0.203125 0.125 -0.328125q0.125 -0.140625 0.34375 -0.140625q0.203125 0 0.328125 0.140625q0.125 0.125 0.125 0.328125l0 5.640625q0 0.203125 -0.125 0.328125q-0.125 0.125 -0.328125 0.125zm4.21875 0q-0.203125 0 -0.34375 -0.125q-0.125 -0.125 -0.125 -0.328125l0 -3.453125q0 -0.859375 -0.453125 -1.359375q-0.4375 -0.5 -1.140625 -0.5q-0.734375 0 -1.21875 0.5q-0.484375 0.484375 -0.484375 1.25l-0.65625 0q0.03125 -0.765625 0.34375 -1.359375q0.3125 -0.59375 0.859375 -0.921875q0.5625 -0.34375 1.25 -0.34375q0.71875 0 1.265625 0.34375q0.546875 0.328125 0.84375 0.953125q0.3125 0.609375 0.3125 1.4375l0 3.453125q0 0.203125 -0.125 0.328125q-0.125 0.125 -0.328125 0.125zm9.66095 0.0625q-0.984375 0 -1.734375 -0.421875q-0.75 -0.4375 -1.171875 -1.1875q-0.421875 -0.75 -0.421875 -1.734375q0 -0.984375 0.390625 -1.734375q0.40625 -0.75 1.109375 -1.171875q0.71875 -0.4375 1.640625 -0.4375q0.90625 0 1.578125 0.421875q0.6875 0.40625 1.0625 1.140625q0.375 0.734375 0.375 1.671875q0 0.1875 -0.125 0.3125q-0.125 0.109375 -0.3125 0.109375l-5.09375 0l0 -0.78125l5.1875 0l-0.515625 0.375q0.015625 -0.6875 -0.25 -1.234375q-0.265625 -0.5625 -0.75 -0.875q-0.484375 -0.3125 -1.15625 -0.3125q-0.6875 0 -1.203125 0.328125q-0.515625 0.328125 -0.796875 0.890625q-0.28125 0.5625 -0.28125 1.296875q0 0.734375 0.3125 1.296875q0.328125 0.5625 0.875 0.890625q0.5625 0.328125 1.28125 0.328125q0.421875 0 0.859375 -0.140625q0.4375 -0.15625 0.703125 -0.390625q0.140625 -0.109375 0.296875 -0.109375q0.171875 -0.015625 0.296875 0.09375q0.15625 0.140625 0.15625 0.3125q0.015625 0.15625 -0.140625 0.28125q-0.390625 0.328125 -1.0 0.5625q-0.609375 0.21875 -1.171875 0.21875z" fill-rule="nonzero"/><path fill="#000000" fill-opacity="0.0" d="m125.876335 120.026245l63.055122 -19.653542" fill-rule="evenodd"/><path stroke="#00ff00" stroke-width="4.0" stroke-linejoin="round" stroke-linecap="butt" d="m125.876335 120.026245l63.055122 -19.653542" fill-rule="evenodd"/><path fill="#000000" fill-opacity="0.0" d="m104.07874 216.67455l42.299202 0l0 16.53543l-42.299202 0z" fill-rule="evenodd"/><path fill="#4332ff" d="m110.07874 227.07454q-0.453125 0 -0.8125 -0.203125q-0.34375 -0.203125 -0.546875 -0.546875q-0.203125 -0.359375 -0.203125 -0.8125q0 -0.453125 0.203125 -0.796875q0.203125 -0.359375 0.546875 -0.5625q0.359375 -0.203125 0.8125 -0.203125q0.4375 0 0.78125 0.203125q0.359375 0.203125 0.5625 0.5625q0.203125 0.34375 0.203125 0.796875q0 0.453125 -0.203125 0.8125q-0.203125 0.34375 -0.5625 0.546875q-0.34375 0.203125 -0.78125 0.203125zm-0.015625 -0.484375q0.3125 0 0.546875 -0.140625q0.25 -0.140625 0.390625 -0.375q0.140625 -0.25 0.140625 -0.5625q0 -0.3125 -0.140625 -0.5625q-0.140625 -0.25 -0.390625 -0.390625q-0.234375 -0.140625 -0.546875 -0.140625q-0.296875 0 -0.546875 0.140625q-0.234375 0.140625 -0.375 0.390625q-0.140625 0.25 -0.140625 0.5625q0 0.3125 0.140625 0.5625q0.140625 0.234375 0.375 0.375q0.25 0.140625 0.546875 0.140625zm-1.359375 -1.875l1.640625 -2.703125q0.09375 -0.140625 0.234375 -0.140625q0.109375 0 0.171875 0.0625q0.078125 0.0625 0.09375 0.15625q0.015625 0.09375 -0.03125 0.171875l-1.109375 1.796875l-1.0 0.65625zm10.694809 2.359375q-0.109375 0 -0.1875 -0.0625q-0.0625 -0.078125 -0.0625 -0.1875l0 -1.921875q0 -0.46875 -0.25 -0.734375q-0.25 -0.28125 -0.640625 -0.28125q-0.40625 0 -0.671875 0.28125q-0.265625 0.265625 -0.25 0.71875l-0.46875 0q0.015625 -0.4375 0.203125 -0.78125q0.1875 -0.34375 0.5 -0.53125q0.328125 -0.1875 0.75 -0.1875q0.390625 0 0.6875 0.1875q0.3125 0.1875 0.46875 0.53125q0.171875 0.34375 0.171875 0.796875l0 1.921875q0 0.109375 -0.078125 0.1875q-0.0625 0.0625 -0.171875 0.0625zm-4.65625 0q-0.125 0 -0.203125 -0.0625q-0.0625 -0.078125 -0.0625 -0.1875l0 -3.125q0 -0.125 0.0625 -0.1875q0.078125 -0.078125 0.203125 -0.078125q0.109375 0 0.171875 0.078125q0.078125 0.0625 0.078125 0.1875l0 3.125q0 0.109375 -0.078125 0.1875q-0.0625 0.0625 -0.171875 0.0625zm2.328125 0q-0.109375 0 -0.1875 -0.0625q-0.0625 -0.078125 -0.0625 -0.1875l0 -1.921875q0 -0.46875 -0.25 -0.734375q-0.25 -0.28125 -0.625 -0.28125q-0.421875 0 -0.6875 0.265625q-0.265625 0.265625 -0.265625 0.703125l-0.359375 0q0.015625 -0.4375 0.1875 -0.765625q0.171875 -0.328125 0.46875 -0.515625q0.3125 -0.1875 0.703125 -0.1875q0.390625 0 0.6875 0.1875q0.3125 0.1875 0.484375 0.53125q0.171875 0.34375 0.171875 0.796875l0 1.921875q0 0.109375 -0.078125 0.1875q-0.0625 0.0625 -0.1875 0.0625zm5.3658905 0.03125q-0.53125 0 -0.953125 -0.234375q-0.40625 -0.25 -0.65625 -0.65625q-0.234375 -0.421875 -0.234375 -0.953125q0 -0.546875 0.234375 -0.953125q0.25 -0.421875 0.65625 -0.65625q0.421875 -0.25 0.953125 -0.25q0.53125 0 0.953125 0.25q0.421875 0.234375 0.65625 0.65625q0.234375 0.40625 0.25 0.953125q0 0.53125 -0.25 0.953125q-0.234375 0.40625 -0.65625 0.65625q-0.421875 0.234375 -0.953125 0.234375zm0 -0.46875q0.390625 0 0.6875 -0.171875q0.3125 -0.1875 0.484375 -0.5q0.171875 -0.3125 0.171875 -0.703125q0 -0.40625 -0.171875 -0.71875q-0.171875 -0.3125 -0.484375 -0.484375q-0.296875 -0.1875 -0.6875 -0.1875q-0.375 0 -0.6875 0.1875q-0.296875 0.171875 -0.484375 0.484375q-0.171875 0.3125 -0.171875 0.71875q0 0.390625 0.171875 0.703125q0.1875 0.3125 0.484375 0.5q0.3125 0.171875 0.6875 0.171875zm5.974968 0.4375q-0.109375 0 -0.1875 -0.0625q-0.0625 -0.078125 -0.0625 -0.1875l0 -1.734375q0 -0.40625 -0.17186737 -0.671875q-0.15625 -0.265625 -0.421875 -0.390625q-0.265625 -0.140625 -0.609375 -0.140625q-0.328125 0 -0.59375 0.125q-0.25 0.125 -0.40625 0.34375q-0.15625 0.21875 -0.15625 0.5l-0.359375 0q0.015625 -0.421875 0.21875 -0.75q0.21875 -0.328125 0.5625 -0.515625q0.359375 -0.203125 0.796875 -0.203125q0.46875 0 0.84375 0.203125q0.37499237 0.203125 0.5781174 0.578125q0.21875 0.375 0.21875 0.921875l0 1.734375q0 0.109375 -0.078125 0.1875q-0.0625 0.0625 -0.171875 0.0625zm-2.8593674 0q-0.125 0 -0.203125 -0.0625q-0.0625 -0.078125 -0.0625 -0.1875l0 -3.125q0 -0.125 0.0625 -0.1875q0.078125 -0.078125 0.203125 -0.078125q0.109375 0 0.171875 0.078125q0.078125 0.0625 0.078125 0.1875l0 3.125q0 0.109375 -0.078125 0.1875q-0.0625 0.0625 -0.171875 0.0625zm5.678093 0q-0.359375 0 -0.640625 -0.15625q-0.265625 -0.171875 -0.4375 -0.453125q-0.15625 -0.296875 -0.15625 -0.671875l0 -3.265625q0 -0.109375 0.0625 -0.171875q0.078125 -0.078125 0.1875 -0.078125q0.125 0 0.1875 0.078125q0.078125 0.0625 0.078125 0.171875l0 3.265625q0 0.34375 0.1875 0.5625q0.203125 0.203125 0.53125 0.203125l0.171875 0q0.109375 0 0.171875 0.078125q0.0625 0.078125 0.0625 0.1875q0 0.109375 -0.078125 0.1875q-0.078125 0.0625 -0.203125 0.0625l-0.125 0zm-1.671875 -3.0625q-0.09375 0 -0.15625 -0.0625q-0.0625 -0.0625 -0.0625 -0.15625q0 -0.09375 0.0625 -0.15625q0.0625 -0.0625 0.15625 -0.0625l1.703125 0q0.09375 0 0.15625 0.0625q0.078125 0.0625 0.078125 0.15625q0 0.09375 -0.078125 0.15625q-0.0625 0.0625 -0.15625 0.0625l-1.703125 0zm6.0351562 3.0625q-0.109375 0 -0.1875 -0.0625q-0.0625 -0.078125 -0.0625 -0.1875l0 -1.734375q0 -0.40625 -0.171875 -0.671875q-0.15625 -0.265625 -0.421875 -0.390625q-0.265625 -0.140625 -0.609375 -0.140625q-0.328125 0 -0.59375 0.125q-0.25 0.125 -0.40625 0.34375q-0.15625 0.21875 -0.15625 0.5l-0.359375 0q0.015625 -0.421875 0.21875 -0.75q0.21875 -0.328125 0.5625 -0.515625q0.359375 -0.203125 0.796875 -0.203125q0.46875 0 0.84375 0.203125q0.375 0.203125 0.578125 0.578125q0.21875 0.375 0.21875 0.921875l0 1.734375q0 0.109375 -0.078125 0.1875q-0.0625 0.0625 -0.171875 0.0625zm-2.859375 0q-0.125 0 -0.203125 -0.0625q-0.0625 -0.078125 -0.0625 -0.1875l0 -3.125q0 -0.125 0.0625 -0.1875q0.078125 -0.078125 0.203125 -0.078125q0.109375 0 0.171875 0.078125q0.078125 0.0625 0.078125 0.1875l0 3.125q0 0.109375 -0.078125 0.1875q-0.0625 0.0625 -0.171875 0.0625zm0 -1.484375q-0.125 0 -0.203125 -0.0625q-0.0625 -0.078125 -0.0625 -0.203125l0 -3.1875q0 -0.125 0.0625 -0.1875q0.078125 -0.078125 0.203125 -0.078125q0.109375 0 0.171875 0.078125q0.078125 0.0625 0.078125 0.1875l0 3.1875q0 0.125 -0.078125 0.203125q-0.0625 0.0625 -0.171875 0.0625zm5.5218506 1.515625q-0.390625 0 -0.78125 -0.125q-0.390625 -0.140625 -0.625 -0.40625q-0.078125 -0.078125 -0.0625 -0.171875q0.015625 -0.109375 0.09375 -0.1875q0.09375 -0.0625 0.1875 -0.046875q0.109375 0.015625 0.171875 0.09375q0.171875 0.1875 0.421875 0.28125q0.265625 0.09375 0.59375 0.09375q0.484375 0 0.703125 -0.15625q0.21875 -0.171875 0.234375 -0.421875q0 -0.234375 -0.234375 -0.390625q-0.21875 -0.15625 -0.734375 -0.25q-0.671875 -0.09375 -0.984375 -0.359375q-0.3125 -0.28125 -0.3125 -0.640625q0 -0.34375 0.171875 -0.5625q0.1875 -0.234375 0.484375 -0.34375q0.296875 -0.109375 0.65625 -0.109375q0.4375 0 0.765625 0.15625q0.328125 0.140625 0.515625 0.40625q0.078125 0.09375 0.0625 0.1875q-0.015625 0.09375 -0.109375 0.140625q-0.078125 0.046875 -0.1875 0.03125q-0.09375 -0.015625 -0.171875 -0.09375q-0.171875 -0.1875 -0.390625 -0.28125q-0.21875 -0.09375 -0.5 -0.09375q-0.359375 0 -0.59375 0.15625q-0.21875 0.140625 -0.21875 0.375q0 0.15625 0.078125 0.265625q0.09375 0.109375 0.296875 0.203125q0.203125 0.078125 0.578125 0.140625q0.484375 0.078125 0.78125 0.234375q0.296875 0.15625 0.40625 0.375q0.125 0.203125 0.125 0.453125q0 0.3125 -0.1875 0.546875q-0.171875 0.234375 -0.5 0.375q-0.3125 0.125 -0.734375 0.125z" fill-rule="nonzero"/><path fill="#00ff00" d="m184.19197 98.048l9.212601 0.8503952l-7.102356 5.889763z" fill-rule="evenodd"/><path fill="#93c47d" d="m187.33423 141.67151l8.834656 2.724411l-8.173233 4.2992096z" fill-rule="evenodd"/><path fill="#000000" fill-opacity="0.0" d="m122.850395 121.519684l42.299217 0l0 16.53543l-42.299217 0z" fill-rule="evenodd"/><path fill="#d9d9d9" d="m128.44414 131.91968q-0.109375 0 -0.1875 -0.0625q-0.078125 -0.078125 -0.078125 -0.203125l0 -4.3281174l-0.6562424 0.234375q-0.078125 0.046875 -0.140625 0.046875q-0.109375 0 -0.1875 -0.078125q-0.078125 -0.078125 -0.078125 -0.1875q0 -0.078125 0.03125 -0.140625q0.046875 -0.0625 0.140625 -0.09375l1.0312424 -0.359375q0.03125 -0.015625 0.0625 -0.015625q0.046875 -0.015625 0.0625 -0.015625q0.109375 0 0.171875 0.078125q0.078125 0.078125 0.078125 0.171875l0 4.6874924q0 0.125 -0.078125 0.203125q-0.0625 0.0625 -0.171875 0.0625zm2.812912 0q-0.484375 0 -0.84375 -0.3125q-0.34375 -0.3125 -0.53125 -0.890625q-0.1875 -0.59375 -0.1875 -1.40625q0 -0.8125 0.1875 -1.3906174q0.1875 -0.59375 0.53125 -0.90625q0.359375 -0.3125 0.84375 -0.3125q0.515625 0 0.859375 0.328125q0.359375 0.3125 0.53125 0.90625q0.1875 0.5781174 0.1875 1.3749924q0 0.8125 -0.1875 1.40625q-0.171875 0.578125 -0.53125 0.890625q-0.34375 0.3125 -0.859375 0.3125zm0 -0.515625q0.359375 0 0.59375 -0.265625q0.234375 -0.28125 0.34375 -0.75q0.125 -0.46875 0.125 -1.078125q0 -0.59375 -0.125 -1.0625q-0.109375 -0.46874237 -0.34375 -0.7343674q-0.234375 -0.28125 -0.59375 -0.28125q-0.34375 0 -0.578125 0.265625q-0.234375 0.265625 -0.34375 0.7499924q-0.109375 0.46875 -0.109375 1.0625q0 0.609375 0.109375 1.078125q0.109375 0.46875 0.34375 0.75q0.234375 0.265625 0.578125 0.265625zm2.9725494 0.515625q-0.109375 0 -0.1875 -0.0625q-0.0625 -0.078125 -0.0625 -0.203125q0 -0.09375 0.046875 -0.171875l3.65625 -4.6562424q0.046875 -0.046875 0.09375 -0.078125q0.0625 -0.03125 0.109375 -0.03125q0.125 0 0.1875 0.078125q0.078125 0.078125 0.078125 0.1875q0 0.078125 -0.046875 0.15625l-3.671875 4.6874924q-0.09375 0.09375 -0.203125 0.09375zm0.484375 -2.609375q-0.359375 0 -0.65625 -0.171875q-0.296875 -0.171875 -0.484375 -0.46875q-0.171875 -0.296875 -0.171875 -0.65625q0 -0.34374237 0.171875 -0.6406174q0.1875 -0.296875 0.484375 -0.46875q0.296875 -0.1875 0.65625 -0.1875q0.34375 0 0.640625 0.1875q0.296875 0.171875 0.46875 0.46875q0.1875 0.296875 0.1875 0.6406174q0 0.359375 -0.1875 0.65625q-0.171875 0.296875 -0.46875 0.46875q-0.296875 0.171875 -0.640625 0.171875zm0 -0.5q0.203125 0 0.375 -0.109375q0.1875 -0.109375 0.296875 -0.28125q0.125 -0.1875 0.125 -0.40625q0 -0.21874237 -0.125 -0.39061737q-0.109375 -0.1875 -0.296875 -0.296875q-0.171875 -0.109375 -0.375 -0.109375q-0.21875 0 -0.40625 0.109375q-0.171875 0.109375 -0.28125 0.296875q-0.109375 0.171875 -0.109375 0.39061737q0 0.21875 0.109375 0.40625q0.109375 0.171875 0.28125 0.28125q0.1875 0.109375 0.40625 0.109375zm2.6875 3.109375q-0.34375 0 -0.640625 -0.171875q-0.296875 -0.1875 -0.484375 -0.46875q-0.171875 -0.296875 -0.171875 -0.65625q0 -0.359375 0.171875 -0.65625q0.1875 -0.296875 0.46875 -0.46875q0.296875 -0.171875 0.65625 -0.171875q0.359375 0 0.65625 0.171875q0.296875 0.171875 0.46875 0.46875q0.1875 0.296875 0.1875 0.65625q0 0.359375 -0.1875 0.65625q-0.171875 0.28125 -0.46875 0.46875q-0.296875 0.171875 -0.65625 0.171875zm0 -0.5q0.21875 0 0.390625 -0.109375q0.1875 -0.109375 0.296875 -0.28125q0.109375 -0.1875 0.109375 -0.40625q0 -0.21875 -0.109375 -0.390625q-0.109375 -0.1875 -0.296875 -0.296875q-0.171875 -0.109375 -0.390625 -0.109375q-0.203125 0 -0.390625 0.109375q-0.1875 0.109375 -0.296875 0.296875q-0.09375 0.171875 -0.09375 0.390625q0 0.21875 0.09375 0.40625q0.109375 0.171875 0.296875 0.28125q0.1875 0.109375 0.390625 0.109375zm5.8710327 0.53125q-0.515625 0 -0.9375 -0.234375q-0.40625 -0.25 -0.65625 -0.65625q-0.234375 -0.421875 -0.25 -0.9375l0 -3.1406174q0 -0.125 0.0625 -0.1875q0.078125 -0.078125 0.203125 -0.078125q0.109375 0 0.171875 0.078125q0.078125 0.0625 0.078125 0.1875l0 1.9531174q0.21875 -0.3125 0.578125 -0.5q0.375 -0.1875 0.8125 -0.1875q0.515625 0 0.921875 0.25q0.40625 0.234375 0.640625 0.65625q0.234375 0.421875 0.234375 0.9375q0 0.53125 -0.25 0.953125q-0.234375 0.421875 -0.65625 0.671875q-0.421875 0.234375 -0.953125 0.234375zm0 -0.46875q0.390625 0 0.6875 -0.171875q0.3125 -0.1875 0.484375 -0.5q0.1875 -0.3125 0.1875 -0.71875q0 -0.390625 -0.1875 -0.703125q-0.171875 -0.3125 -0.484375 -0.484375q-0.296875 -0.1875 -0.6875 -0.1875q-0.375 0 -0.6875 0.1875q-0.296875 0.171875 -0.46875 0.484375q-0.171875 0.3125 -0.171875 0.703125q0 0.40625 0.171875 0.71875q0.171875 0.3125 0.46875 0.5q0.3125 0.171875 0.6875 0.171875zm4.5184174 0.46875q-0.53125 0 -0.953125 -0.234375q-0.40625 -0.25 -0.65625 -0.65625q-0.234375 -0.421875 -0.234375 -0.953125q0 -0.546875 0.234375 -0.953125q0.25 -0.421875 0.65625 -0.65625q0.421875 -0.25 0.953125 -0.25q0.53125 0 0.953125 0.25q0.421875 0.234375 0.65625 0.65625q0.234375 0.40625 0.25 0.953125q0 0.53125 -0.25 0.953125q-0.234375 0.40625 -0.65625 0.65625q-0.421875 0.234375 -0.953125 0.234375zm0 -0.46875q0.390625 0 0.6875 -0.171875q0.3125 -0.1875 0.484375 -0.5q0.171875 -0.3125 0.171875 -0.703125q0 -0.40625 -0.171875 -0.71875q-0.171875 -0.3125 -0.484375 -0.484375q-0.296875 -0.1875 -0.6875 -0.1875q-0.375 0 -0.6875 0.1875q-0.296875 0.171875 -0.484375 0.484375q-0.171875 0.3125 -0.171875 0.71875q0 0.390625 0.171875 0.703125q0.1875 0.3125 0.484375 0.5q0.3125 0.171875 0.6875 0.171875zm4.5062256 0.46875q-0.53125 0 -0.953125 -0.234375q-0.40625 -0.25 -0.65625 -0.65625q-0.234375 -0.421875 -0.234375 -0.953125q0 -0.546875 0.234375 -0.953125q0.25 -0.421875 0.65625 -0.65625q0.421875 -0.25 0.953125 -0.25q0.53125 0 0.953125 0.25q0.421875 0.234375 0.65625 0.65625q0.234375 0.40625 0.25 0.953125q0 0.53125 -0.25 0.953125q-0.234375 0.40625 -0.65625 0.65625q-0.421875 0.234375 -0.953125 0.234375zm0 -0.46875q0.390625 0 0.6875 -0.171875q0.3125 -0.1875 0.484375 -0.5q0.171875 -0.3125 0.171875 -0.703125q0 -0.40625 -0.171875 -0.71875q-0.171875 -0.3125 -0.484375 -0.484375q-0.296875 -0.1875 -0.6875 -0.1875q-0.375 0 -0.6875 0.1875q-0.296875 0.171875 -0.484375 0.484375q-0.171875 0.3125 -0.171875 0.71875q0 0.390625 0.171875 0.703125q0.1875 0.3125 0.484375 0.5q0.3125 0.171875 0.6875 0.171875zm4.1312256 0.46875q-0.390625 0 -0.78125 -0.125q-0.390625 -0.140625 -0.625 -0.40625q-0.078125 -0.078125 -0.0625 -0.171875q0.015625 -0.109375 0.09375 -0.1875q0.09375 -0.0625 0.1875 -0.046875q0.109375 0.015625 0.171875 0.09375q0.171875 0.1875 0.421875 0.28125q0.265625 0.09375 0.59375 0.09375q0.484375 0 0.703125 -0.15625q0.21875 -0.171875 0.234375 -0.421875q0 -0.234375 -0.234375 -0.390625q-0.21875 -0.15625 -0.734375 -0.25q-0.671875 -0.09375 -0.984375 -0.359375q-0.3125 -0.28125 -0.3125 -0.640625q0 -0.34375 0.171875 -0.5625q0.1875 -0.234375 0.484375 -0.34375q0.296875 -0.109375 0.65625 -0.109375q0.4375 0 0.765625 0.15625q0.328125 0.140625 0.515625 0.40625q0.078125 0.09375 0.0625 0.1875q-0.015625 0.09375 -0.109375 0.140625q-0.078125 0.046875 -0.1875 0.03125q-0.09375 -0.015625 -0.171875 -0.09375q-0.171875 -0.1875 -0.390625 -0.28125q-0.21875 -0.09375 -0.5 -0.09375q-0.359375 0 -0.59375 0.15625q-0.21875 0.140625 -0.21875 0.375q0 0.15625 0.078125 0.265625q0.09375 0.109375 0.296875 0.203125q0.203125 0.078125 0.578125 0.140625q0.484375 0.078125 0.78125 0.234375q0.296875 0.15625 0.40625 0.375q0.125 0.203125 0.125 0.453125q0 0.3125 -0.1875 0.546875q-0.171875 0.234375 -0.5 0.375q-0.3125 0.125 -0.734375 0.125zm3.743927 -0.03125q-0.359375 0 -0.640625 -0.15625q-0.265625 -0.171875 -0.4375 -0.453125q-0.15625 -0.296875 -0.15625 -0.671875l0 -3.2656174q0 -0.109375 0.0625 -0.171875q0.078125 -0.078125 0.1875 -0.078125q0.125 0 0.1875 0.078125q0.078125 0.0625 0.078125 0.171875l0 3.2656174q0 0.34375 0.1875 0.5625q0.203125 0.203125 0.53125 0.203125l0.171875 0q0.109375 0 0.171875 0.078125q0.0625 0.078125 0.0625 0.1875q0 0.109375 -0.078125 0.1875q-0.078125 0.0625 -0.203125 0.0625l-0.125 0zm-1.671875 -3.0625q-0.09375 0 -0.15625 -0.0625q-0.0625 -0.0625 -0.0625 -0.15625q0 -0.09375 0.0625 -0.15625q0.0625 -0.0625 0.15625 -0.0625l1.703125 0q0.09375 0 0.15625 0.0625q0.078125 0.0625 0.078125 0.15625q0 0.09375 -0.078125 0.15625q-0.0625 0.0625 -0.15625 0.0625l-1.703125 0z" fill-rule="nonzero"/><path fill="#000000" fill-opacity="0.0" d="m190.51772 78.357124l71.87401 0l0 37.133858l-71.87401 0z" fill-rule="evenodd"/><path fill="#d9d9d9" d="m197.58022 88.819626q-0.578125 0 -1.0625 -0.1875q-0.484375 -0.203125 -0.84375 -0.5625q-0.34375 -0.359375 -0.546875 -0.84375q-0.203125 -0.5 -0.203125 -1.078125q0 -0.5625 0.203125 -1.046875q0.203125 -0.484375 0.546875 -0.84375q0.359375 -0.359375 0.84375 -0.5625q0.484375 -0.203125 1.0625 -0.203125q0.578125 0 1.0625 0.203125q0.484375 0.203125 0.84375 0.5625q0.359375 0.359375 0.546875 0.84375q0.203125 0.484375 0.203125 1.046875q0 0.578125 -0.203125 1.078125q-0.1875 0.484375 -0.546875 0.84375q-0.359375 0.359375 -0.84375 0.5625q-0.484375 0.1875 -1.0625 0.1875zm0 -0.484375q0.46875 0 0.859375 -0.15625q0.390625 -0.171875 0.671875 -0.46875q0.296875 -0.296875 0.453125 -0.6875q0.171875 -0.40625 0.171875 -0.875q0 -0.453125 -0.171875 -0.84375q-0.15625 -0.40625 -0.453125 -0.703125q-0.28125 -0.296875 -0.671875 -0.453125q-0.390625 -0.15625 -0.859375 -0.15625q-0.453125 0 -0.859375 0.15625q-0.390625 0.15625 -0.6875 0.453125q-0.28125 0.296875 -0.4375 0.703125q-0.15625 0.390625 -0.15625 0.84375q0 0.46875 0.15625 0.875q0.15625 0.390625 0.4375 0.6875q0.296875 0.296875 0.6875 0.46875q0.40625 0.15625 0.859375 0.15625zm6.7865753 0.421875q-0.109375 0 -0.1875 -0.0625q-0.0625 -0.078125 -0.0625 -0.1875l0 -1.734375q0 -0.40625 -0.171875 -0.671875q-0.15625 -0.265625 -0.421875 -0.390625q-0.265625 -0.140625 -0.609375 -0.140625q-0.328125 0 -0.59375 0.125q-0.25 0.125 -0.40625 0.34375q-0.15625 0.21875 -0.15625 0.5l-0.359375 0q0.015625 -0.421875 0.21875 -0.75q0.21875 -0.328125 0.5625 -0.515625q0.359375 -0.203125 0.796875 -0.203125q0.46875 0 0.84375 0.203125q0.375 0.203125 0.578125 0.578125q0.21875 0.375 0.21875 0.921875l0 1.734375q0 0.109375 -0.078125 0.1875q-0.0625 0.0625 -0.171875 0.0625zm-2.859375 0q-0.125 0 -0.203125 -0.0625q-0.0625 -0.078125 -0.0625 -0.1875l0 -3.125q0 -0.125 0.0625 -0.1875q0.078125 -0.078125 0.203125 -0.078125q0.109375 0 0.171875 0.078125q0.078125 0.0625 0.078125 0.1875l0 3.125q0 0.109375 -0.078125 0.1875q-0.0625 0.0625 -0.171875 0.0625zm5.8499756 0.03125q-0.53125 0 -0.9375 -0.234375q-0.40625 -0.234375 -0.640625 -0.65625q-0.21875 -0.421875 -0.21875 -0.953125q0 -0.546875 0.234375 -0.96875q0.25 -0.421875 0.65625 -0.65625q0.421875 -0.234375 0.953125 -0.234375q0.546875 0 0.953125 0.234375q0.421875 0.234375 0.65625 0.65625q0.234375 0.421875 0.25 0.96875l-0.296875 0.15625q0 0.484375 -0.21875 0.875q-0.203125 0.375 -0.5625 0.59375q-0.359375 0.21875 -0.828125 0.21875zm0.0625 1.40625q-0.515625 0 -0.921875 -0.203125q-0.40625 -0.1875 -0.65625 -0.53125q-0.078125 -0.078125 -0.078125 -0.171875q0.015625 -0.09375 0.109375 -0.15625q0.09375 -0.0625 0.1875 -0.046875q0.109375 0.03125 0.171875 0.109375q0.1875 0.234375 0.484375 0.375q0.3125 0.15625 0.71875 0.15625q0.375 0 0.671875 -0.1875q0.296875 -0.171875 0.46875 -0.5q0.171875 -0.328125 0.171875 -0.765625l0 -1.0l0.203125 -0.390625l0.3125 0.0625l0 1.359375q0 0.53125 -0.25 0.953125q-0.234375 0.4375 -0.65625 0.6875q-0.40625 0.25 -0.9375 0.25zm-0.015625 -1.875q0.40625 0 0.703125 -0.171875q0.296875 -0.171875 0.46875 -0.484375q0.171875 -0.3125 0.171875 -0.71875q0 -0.40625 -0.171875 -0.71875q-0.171875 -0.328125 -0.46875 -0.5q-0.296875 -0.171875 -0.703125 -0.171875q-0.390625 0 -0.703125 0.171875q-0.296875 0.171875 -0.46875 0.5q-0.171875 0.3125 -0.171875 0.71875q0 0.40625 0.171875 0.71875q0.171875 0.3125 0.46875 0.484375q0.3125 0.171875 0.703125 0.171875zm4.5062256 0.46875q-0.53125 0 -0.953125 -0.234375q-0.40625 -0.25 -0.65625 -0.65625q-0.234375 -0.421875 -0.234375 -0.953125q0 -0.546875 0.234375 -0.953125q0.25 -0.421875 0.65625 -0.65625q0.421875 -0.25 0.953125 -0.25q0.53125 0 0.953125 0.25q0.421875 0.234375 0.65625 0.65625q0.234375 0.40625 0.25 0.953125q0 0.53125 -0.25 0.953125q-0.234375 0.40625 -0.65625 0.65625q-0.421875 0.234375 -0.953125 0.234375zm0 -0.46875q0.390625 0 0.6875 -0.171875q0.3125 -0.1875 0.484375 -0.5q0.171875 -0.3125 0.171875 -0.703125q0 -0.40625 -0.171875 -0.71875q-0.171875 -0.3125 -0.484375 -0.484375q-0.296875 -0.1875 -0.6875 -0.1875q-0.375 0 -0.6875 0.1875q-0.296875 0.171875 -0.484375 0.484375q-0.171875 0.3125 -0.171875 0.71875q0 0.390625 0.171875 0.703125q0.1875 0.3125 0.484375 0.5q0.3125 0.171875 0.6875 0.171875zm3.2249756 0.4375q-0.125 0 -0.203125 -0.0625q-0.0625 -0.078125 -0.0625 -0.203125l0 -3.109375q0 -0.125 0.0625 -0.1875q0.078125 -0.078125 0.203125 -0.078125q0.109375 0 0.171875 0.078125q0.078125 0.0625 0.078125 0.1875l0 3.109375q0 0.125 -0.078125 0.203125q-0.0625 0.0625 -0.171875 0.0625zm0.015625 -4.328125q-0.140625 0 -0.25 -0.109375q-0.109375 -0.109375 -0.109375 -0.265625q0 -0.15625 0.109375 -0.25q0.109375 -0.109375 0.25 -0.109375q0.140625 0 0.25 0.109375q0.109375 0.09375 0.109375 0.25q0 0.15625 -0.109375 0.265625q-0.09375 0.109375 -0.25 0.109375zm4.6580048 4.328125q-0.109375 0 -0.1875 -0.0625q-0.0625 -0.078125 -0.0625 -0.1875l0 -1.734375q0 -0.40625 -0.171875 -0.671875q-0.15625 -0.265625 -0.421875 -0.390625q-0.265625 -0.140625 -0.609375 -0.140625q-0.328125 0 -0.59375 0.125q-0.25 0.125 -0.40625 0.34375q-0.15625 0.21875 -0.15625 0.5l-0.359375 0q0.015625 -0.421875 0.21875 -0.75q0.21875 -0.328125 0.5625 -0.515625q0.359375 -0.203125 0.796875 -0.203125q0.46875 0 0.84375 0.203125q0.375 0.203125 0.578125 0.578125q0.21875 0.375 0.21875 0.921875l0 1.734375q0 0.109375 -0.078125 0.1875q-0.0625 0.0625 -0.171875 0.0625zm-2.859375 0q-0.125 0 -0.203125 -0.0625q-0.0625 -0.078125 -0.0625 -0.1875l0 -3.125q0 -0.125 0.0625 -0.1875q0.078125 -0.078125 0.203125 -0.078125q0.109375 0 0.171875 0.078125q0.078125 0.0625 0.078125 0.1875l0 3.125q0 0.109375 -0.078125 0.1875q-0.0625 0.0625 -0.171875 0.0625zm5.8499756 0.03125q-0.53125 0 -0.9375 -0.234375q-0.40625 -0.234375 -0.640625 -0.65625q-0.21875 -0.421875 -0.21875 -0.953125q0 -0.546875 0.234375 -0.96875q0.25 -0.421875 0.65625 -0.65625q0.421875 -0.234375 0.953125 -0.234375q0.546875 0 0.953125 0.234375q0.421875 0.234375 0.65625 0.65625q0.234375 0.421875 0.25 0.96875l-0.296875 0.15625q0 0.484375 -0.21875 0.875q-0.203125 0.375 -0.5625 0.59375q-0.359375 0.21875 -0.828125 0.21875zm0.0625 1.40625q-0.515625 0 -0.921875 -0.203125q-0.40625 -0.1875 -0.65625 -0.53125q-0.078125 -0.078125 -0.078125 -0.171875q0.015625 -0.09375 0.109375 -0.15625q0.09375 -0.0625 0.1875 -0.046875q0.109375 0.03125 0.171875 0.109375q0.1875 0.234375 0.484375 0.375q0.3125 0.15625 0.71875 0.15625q0.375 0 0.671875 -0.1875q0.296875 -0.171875 0.46875 -0.5q0.171875 -0.328125 0.171875 -0.765625l0 -1.0l0.203125 -0.390625l0.3125 0.0625l0 1.359375q0 0.53125 -0.25 0.953125q-0.234375 0.4375 -0.65625 0.6875q-0.40625 0.25 -0.9375 0.25zm-0.015625 -1.875q0.40625 0 0.703125 -0.171875q0.296875 -0.171875 0.46875 -0.484375q0.171875 -0.3125 0.171875 -0.71875q0 -0.40625 -0.171875 -0.71875q-0.171875 -0.328125 -0.46875 -0.5q-0.296875 -0.171875 -0.703125 -0.171875q-0.390625 0 -0.703125 0.171875q-0.296875 0.171875 -0.46875 0.5q-0.171875 0.3125 -0.171875 0.71875q0 0.40625 0.171875 0.71875q0.171875 0.3125 0.46875 0.484375q0.3125 0.171875 0.703125 0.171875z" fill-rule="nonzero"/><path fill="#d9d9d9" d="m196.72084 96.788376q-0.515625 0 -0.921875 -0.234375q-0.40625 -0.25 -0.640625 -0.671875q-0.234375 -0.421875 -0.234375 -0.9375q0 -0.53125 0.234375 -0.953125q0.25 -0.421875 0.671875 -0.65625q0.421875 -0.25 0.9375 -0.25q0.53125 0 0.9375 0.25q0.421875 0.234375 0.65625 0.65625q0.25 0.421875 0.265625 0.953125l-0.203125 0.15625q0 0.484375 -0.234375 0.875q-0.21875 0.375 -0.609375 0.59375q-0.375 0.21875 -0.859375 0.21875zm0.046875 -0.46875q0.390625 0 0.6875 -0.171875q0.3125 -0.1875 0.484375 -0.5q0.171875 -0.3125 0.171875 -0.703125q0 -0.40625 -0.171875 -0.71875q-0.171875 -0.3125 -0.484375 -0.484375q-0.296875 -0.1875 -0.6875 -0.1875q-0.375 0 -0.6875 0.1875q-0.296875 0.171875 -0.484375 0.484375q-0.171875 0.3125 -0.171875 0.71875q0 0.390625 0.171875 0.703125q0.1875 0.3125 0.484375 0.5q0.3125 0.171875 0.6875 0.171875zm1.59375 0.4375q-0.109375 0 -0.1875 -0.0625q-0.0625 -0.078125 -0.0625 -0.1875l0 -1.140625l0.125 -0.53125l0.390625 0.109375l0 1.5625q0 0.109375 -0.078125 0.1875q-0.078125 0.0625 -0.1875 0.0625zm2.8812256 0.03125q-0.515625 0 -0.9375 -0.234375q-0.40625 -0.25 -0.640625 -0.671875q-0.234375 -0.421875 -0.234375 -0.9375q0 -0.53125 0.21875 -0.953125q0.234375 -0.421875 0.625 -0.65625q0.390625 -0.25 0.90625 -0.25q0.40625 0 0.75 0.15625q0.34375 0.15625 0.59375 0.484375q0.078125 0.078125 0.0625 0.171875q-0.015625 0.078125 -0.109375 0.15625q-0.078125 0.046875 -0.171875 0.03125q-0.09375 -0.015625 -0.15625 -0.09375q-0.375 -0.4375 -0.96875 -0.4375q-0.375 0 -0.65625 0.1875q-0.28125 0.171875 -0.4375 0.484375q-0.15625 0.3125 -0.15625 0.71875q0 0.390625 0.15625 0.703125q0.171875 0.3125 0.46875 0.5q0.3125 0.171875 0.6875 0.171875q0.265625 0 0.484375 -0.0625q0.21875 -0.078125 0.375 -0.21875q0.078125 -0.0625 0.15625 -0.0625q0.09375 -0.015625 0.171875 0.046875q0.078125 0.0625 0.078125 0.15625q0.015625 0.09375 -0.046875 0.171875q-0.484375 0.4375 -1.21875 0.4375zm3.9670715 0q-0.515625 0 -0.9375 -0.234375q-0.40625 -0.25 -0.640625 -0.671875q-0.234375 -0.421875 -0.234375 -0.9375q0 -0.53125 0.21875 -0.953125q0.234375 -0.421875 0.625 -0.65625q0.390625 -0.25 0.90625 -0.25q0.40625 0 0.75 0.15625q0.34375 0.15625 0.59375 0.484375q0.078125 0.078125 0.0625 0.171875q-0.015625 0.078125 -0.109375 0.15625q-0.078125 0.046875 -0.171875 0.03125q-0.09375 -0.015625 -0.15625 -0.09375q-0.375 -0.4375 -0.96875 -0.4375q-0.375 0 -0.65625 0.1875q-0.28125 0.171875 -0.4375 0.484375q-0.15625 0.3125 -0.15625 0.71875q0 0.390625 0.15625 0.703125q0.171875 0.3125 0.46875 0.5q0.3125 0.171875 0.6875 0.171875q0.265625 0 0.484375 -0.0625q0.21875 -0.078125 0.375 -0.21875q0.078125 -0.0625 0.15625 -0.0625q0.09375 -0.015625 0.171875 0.046875q0.078125 0.0625 0.078125 0.15625q0.015625 0.09375 -0.046875 0.171875q-0.484375 0.4375 -1.21875 0.4375zm3.9983215 0q-0.546875 0 -0.96875 -0.234375q-0.40625 -0.234375 -0.640625 -0.65625q-0.234375 -0.421875 -0.234375 -0.953125q0 -0.546875 0.21875 -0.953125q0.234375 -0.421875 0.625 -0.65625q0.390625 -0.25 0.90625 -0.25q0.5 0 0.875 0.234375q0.375 0.21875 0.578125 0.625q0.21875 0.40625 0.21875 0.921875q0 0.109375 -0.078125 0.171875q-0.0625 0.0625 -0.171875 0.0625l-2.828125 0l0 -0.421875l2.890625 0l-0.296875 0.203125q0.015625 -0.375 -0.140625 -0.6875q-0.140625 -0.3125 -0.421875 -0.484375q-0.265625 -0.171875 -0.625 -0.171875q-0.390625 0 -0.671875 0.1875q-0.28125 0.171875 -0.4375 0.5q-0.15625 0.3125 -0.15625 0.71875q0 0.40625 0.171875 0.71875q0.171875 0.3125 0.46875 0.5q0.3125 0.171875 0.71875 0.171875q0.234375 0 0.46875 -0.078125q0.25 -0.09375 0.40625 -0.21875q0.0625 -0.0625 0.15625 -0.0625q0.09375 0 0.171875 0.046875q0.078125 0.078125 0.078125 0.171875q0.015625 0.09375 -0.0625 0.15625q-0.234375 0.1875 -0.578125 0.3125q-0.328125 0.125 -0.640625 0.125zm3.2275085 -0.03125q-0.265625 0 -0.484375 -0.140625q-0.203125 -0.15625 -0.328125 -0.40625q-0.109375 -0.265625 -0.109375 -0.609375l0 -3.796875q0 -0.109375 0.0625 -0.171875q0.078125 -0.078125 0.1875 -0.078125q0.109375 0 0.171875 0.078125q0.078125 0.0625 0.078125 0.171875l0 3.796875q0 0.296875 0.109375 0.484375q0.125 0.171875 0.3125 0.171875l0.15625 0q0.109375 0 0.15625 0.078125q0.0625 0.0625 0.0625 0.171875q0 0.109375 -0.078125 0.1875q-0.078125 0.0625 -0.21875 0.0625l-0.078125 0zm2.5364227 0.03125q-0.546875 0 -0.96875 -0.234375q-0.40625 -0.234375 -0.640625 -0.65625q-0.234375 -0.421875 -0.234375 -0.953125q0 -0.546875 0.21875 -0.953125q0.234375 -0.421875 0.625 -0.65625q0.390625 -0.25 0.90625 -0.25q0.5 0 0.875 0.234375q0.375 0.21875 0.578125 0.625q0.21875 0.40625 0.21875 0.921875q0 0.109375 -0.078125 0.171875q-0.0625 0.0625 -0.171875 0.0625l-2.828125 0l0 -0.421875l2.890625 0l-0.296875 0.203125q0.015625 -0.375 -0.140625 -0.6875q-0.140625 -0.3125 -0.421875 -0.484375q-0.265625 -0.171875 -0.625 -0.171875q-0.390625 0 -0.671875 0.1875q-0.28125 0.171875 -0.4375 0.5q-0.15625 0.3125 -0.15625 0.71875q0 0.40625 0.171875 0.71875q0.171875 0.3125 0.46875 0.5q0.3125 0.171875 0.71875 0.171875q0.234375 0 0.46875 -0.078125q0.25 -0.09375 0.40625 -0.21875q0.0625 -0.0625 0.15625 -0.0625q0.09375 0 0.171875 0.046875q0.078125 0.078125 0.078125 0.171875q0.015625 0.09375 -0.0625 0.15625q-0.234375 0.1875 -0.578125 0.3125q-0.328125 0.125 -0.640625 0.125zm2.6493835 -2.28125q0.015625 -0.40625 0.203125 -0.734375q0.203125 -0.328125 0.515625 -0.515625q0.328125 -0.1875 0.71875 -0.1875q0.296875 0 0.453125 0.09375q0.171875 0.09375 0.140625 0.25q-0.03125 0.109375 -0.09375 0.140625q-0.0625 0.03125 -0.15625 0.03125q-0.078125 -0.015625 -0.203125 -0.015625q-0.359375 -0.046875 -0.65625 0.0625q-0.296875 0.109375 -0.46875 0.34375q-0.15625 0.21875 -0.15625 0.53125l-0.296875 0zm0.046875 2.25q-0.125 0 -0.203125 -0.0625q-0.0625 -0.078125 -0.0625 -0.1875l0 -3.140625q0 -0.109375 0.0625 -0.171875q0.078125 -0.078125 0.203125 -0.078125q0.109375 0 0.171875 0.078125q0.078125 0.0625 0.078125 0.171875l0 3.140625q0 0.109375 -0.078125 0.1875q-0.0625 0.0625 -0.171875 0.0625zm4.1256104 0.03125q-0.515625 0 -0.921875 -0.234375q-0.40625 -0.25 -0.640625 -0.671875q-0.234375 -0.421875 -0.234375 -0.9375q0 -0.53125 0.234375 -0.953125q0.25 -0.421875 0.671875 -0.65625q0.421875 -0.25 0.9375 -0.25q0.53125 0 0.9375 0.25q0.421875 0.234375 0.65625 0.65625q0.25 0.421875 0.265625 0.953125l-0.203125 0.15625q0 0.484375 -0.234375 0.875q-0.21875 0.375 -0.609375 0.59375q-0.375 0.21875 -0.859375 0.21875zm0.046875 -0.46875q0.390625 0 0.6875 -0.171875q0.3125 -0.1875 0.484375 -0.5q0.171875 -0.3125 0.171875 -0.703125q0 -0.40625 -0.171875 -0.71875q-0.171875 -0.3125 -0.484375 -0.484375q-0.296875 -0.1875 -0.6875 -0.1875q-0.375 0 -0.6875 0.1875q-0.296875 0.171875 -0.484375 0.484375q-0.171875 0.3125 -0.171875 0.71875q0 0.390625 0.171875 0.703125q0.1875 0.3125 0.484375 0.5q0.3125 0.171875 0.6875 0.171875zm1.59375 0.4375q-0.109375 0 -0.1875 -0.0625q-0.0625 -0.078125 -0.0625 -0.1875l0 -1.140625l0.125 -0.53125l0.390625 0.109375l0 1.5625q0 0.109375 -0.078125 0.1875q-0.078125 0.0625 -0.1875 0.0625zm2.6937256 0q-0.359375 0 -0.640625 -0.15625q-0.265625 -0.171875 -0.4375 -0.453125q-0.15625 -0.296875 -0.15625 -0.671875l0 -3.265625q0 -0.109375 0.0625 -0.171875q0.078125 -0.078125 0.1875 -0.078125q0.125 0 0.1875 0.078125q0.078125 0.0625 0.078125 0.171875l0 3.265625q0 0.34375 0.1875 0.5625q0.203125 0.203125 0.53125 0.203125l0.171875 0q0.109375 0 0.171875 0.078125q0.0625 0.078125 0.0625 0.1875q0 0.109375 -0.078125 0.1875q-0.078125 0.0625 -0.203125 0.0625l-0.125 0zm-1.671875 -3.0625q-0.09375 0 -0.15625 -0.0625q-0.0625 -0.0625 -0.0625 -0.15625q0 -0.09375 0.0625 -0.15625q0.0625 -0.0625 0.15625 -0.0625l1.703125 0q0.09375 0 0.15625 0.0625q0.078125 0.0625 0.078125 0.15625q0 0.09375 -0.078125 0.15625q-0.0625 0.0625 -0.15625 0.0625l-1.703125 0zm4.5664062 3.09375q-0.546875 0 -0.96875 -0.234375q-0.40625 -0.234375 -0.640625 -0.65625q-0.234375 -0.421875 -0.234375 -0.953125q0 -0.546875 0.21875 -0.953125q0.234375 -0.421875 0.625 -0.65625q0.390625 -0.25 0.90625 -0.25q0.5 0 0.875 0.234375q0.375 0.21875 0.578125 0.625q0.21875 0.40625 0.21875 0.921875q0 0.109375 -0.078125 0.171875q-0.0625 0.0625 -0.171875 0.0625l-2.828125 0l0 -0.421875l2.890625 0l-0.296875 0.203125q0.015625 -0.375 -0.140625 -0.6875q-0.140625 -0.3125 -0.421875 -0.484375q-0.265625 -0.171875 -0.625 -0.171875q-0.390625 0 -0.671875 0.1875q-0.28125 0.171875 -0.4375 0.5q-0.15625 0.3125 -0.15625 0.71875q0 0.40625 0.171875 0.71875q0.171875 0.3125 0.46875 0.5q0.3125 0.171875 0.71875 0.171875q0.234375 0 0.46875 -0.078125q0.25 -0.09375 0.40625 -0.21875q0.0625 -0.0625 0.15625 -0.0625q0.09375 0 0.171875 0.046875q0.078125 0.078125 0.078125 0.171875q0.015625 0.09375 -0.0625 0.15625q-0.234375 0.1875 -0.578125 0.3125q-0.328125 0.125 -0.640625 0.125zm3.9535522 0q-0.515625 0 -0.9375 -0.234375q-0.421875 -0.25 -0.671875 -0.671875q-0.234375 -0.421875 -0.234375 -0.953125q0 -0.515625 0.234375 -0.9375q0.234375 -0.421875 0.640625 -0.65625q0.40625 -0.25 0.921875 -0.25q0.453125 0 0.8125 0.1875q0.359375 0.1875 0.578125 0.5l0 -1.953125q0 -0.125 0.0625 -0.1875q0.078125 -0.078125 0.1875 -0.078125q0.109375 0 0.1875 0.078125q0.078125 0.0625 0.078125 0.1875l0 3.140625q-0.015625 0.515625 -0.265625 0.9375q-0.234375 0.40625 -0.65625 0.65625q-0.40625 0.234375 -0.9375 0.234375zm0 -0.46875q0.390625 0 0.6875 -0.171875q0.3125 -0.1875 0.484375 -0.5q0.171875 -0.3125 0.171875 -0.71875q0 -0.390625 -0.171875 -0.703125q-0.171875 -0.3125 -0.484375 -0.484375q-0.296875 -0.1875 -0.6875 -0.1875q-0.375 0 -0.6875 0.1875q-0.296875 0.171875 -0.484375 0.484375q-0.171875 0.3125 -0.171875 0.703125q0 0.40625 0.171875 0.71875q0.1875 0.3125 0.484375 0.5q0.3125 0.171875 0.6875 0.171875z" fill-rule="nonzero"/><path fill="#d9d9d9" d="m195.43959 104.757126q-0.109375 0 -0.1875 -0.0625q-0.0625 -0.078125 -0.0625 -0.203125l0 -4.671875q0 -0.109375 0.0625 -0.1875q0.078125 -0.078125 0.1875 -0.078125q0.109375 0 0.1875 0.078125q0.078125 0.078125 0.078125 0.1875l0 4.671875q0 0.125 -0.078125 0.203125q-0.078125 0.0625 -0.1875 0.0625zm6.444168 0q-0.109375 0 -0.1875 -0.0625q-0.0625 -0.078125 -0.0625 -0.1875l0 -1.921875q0 -0.46875 -0.25 -0.734375q-0.25 -0.28125 -0.640625 -0.28125q-0.40625 0 -0.671875 0.28125q-0.265625 0.265625 -0.25 0.71875l-0.46875 0q0.015625 -0.4375 0.203125 -0.78125q0.1875 -0.34375 0.5 -0.53125q0.328125 -0.1875 0.75 -0.1875q0.390625 0 0.6875 0.1875q0.3125 0.1875 0.46875 0.53125q0.171875 0.34375 0.171875 0.796875l0 1.921875q0 0.109375 -0.078125 0.1875q-0.0625 0.0625 -0.171875 0.0625zm-4.65625 0q-0.125 0 -0.203125 -0.0625q-0.0625 -0.078125 -0.0625 -0.1875l0 -3.125q0 -0.125 0.0625 -0.1875q0.078125 -0.078125 0.203125 -0.078125q0.109375 0 0.171875 0.078125q0.078125 0.0625 0.078125 0.1875l0 3.125q0 0.109375 -0.078125 0.1875q-0.0625 0.0625 -0.171875 0.0625zm2.328125 0q-0.109375 0 -0.1875 -0.0625q-0.0625 -0.078125 -0.0625 -0.1875l0 -1.921875q0 -0.46875 -0.25 -0.734375q-0.25 -0.28125 -0.625 -0.28125q-0.421875 0 -0.6875 0.265625q-0.265625 0.265625 -0.265625 0.703125l-0.359375 0q0.015625 -0.4375 0.1875 -0.765625q0.171875 -0.328125 0.46875 -0.515625q0.3125 -0.1875 0.703125 -0.1875q0.390625 0 0.6875 0.1875q0.3125 0.1875 0.484375 0.53125q0.171875 0.34375 0.171875 0.796875l0 1.921875q0 0.109375 -0.078125 0.1875q-0.0625 0.0625 -0.1875 0.0625zm3.9752655 1.5625q-0.125 0 -0.203125 -0.078125q-0.0625 -0.0625 -0.0625 -0.1875l0 -3.140625q0.015625 -0.515625 0.25 -0.921875q0.25 -0.421875 0.65625 -0.65625q0.421875 -0.25 0.9375 -0.25q0.53125 0 0.953125 0.25q0.421875 0.234375 0.65625 0.65625q0.25 0.421875 0.25 0.953125q0 0.515625 -0.234375 0.9375q-0.234375 0.421875 -0.640625 0.671875q-0.40625 0.234375 -0.921875 0.234375q-0.4375 0 -0.8125 -0.1875q-0.359375 -0.1875 -0.578125 -0.5l0 1.953125q0 0.125 -0.078125 0.1875q-0.0625 0.078125 -0.171875 0.078125zm1.578125 -2.0q0.390625 0 0.6875 -0.171875q0.3125 -0.1875 0.484375 -0.5q0.1875 -0.3125 0.1875 -0.703125q0 -0.40625 -0.1875 -0.71875q-0.171875 -0.3125 -0.484375 -0.484375q-0.296875 -0.1875 -0.6875 -0.1875q-0.375 0 -0.6875 0.1875q-0.296875 0.171875 -0.46875 0.484375q-0.171875 0.3125 -0.171875 0.71875q0 0.390625 0.171875 0.703125q0.171875 0.3125 0.46875 0.5q0.3125 0.171875 0.6875 0.171875zm3.0809174 -1.8125q0.015625 -0.40625 0.203125 -0.734375q0.203125 -0.328125 0.515625 -0.515625q0.328125 -0.1875 0.71875 -0.1875q0.296875 0 0.453125 0.09375q0.171875 0.09375 0.140625 0.25q-0.03125 0.109375 -0.09375 0.140625q-0.0625 0.03125 -0.15625 0.03125q-0.078125 -0.015625 -0.203125 -0.015625q-0.359375 -0.046875 -0.65625 0.0625q-0.296875 0.109375 -0.46875 0.34375q-0.15625 0.21875 -0.15625 0.53125l-0.296875 0zm0.046875 2.25q-0.125 0 -0.203125 -0.0625q-0.0625 -0.078125 -0.0625 -0.1875l0 -3.140625q0 -0.109375 0.0625 -0.171875q0.078125 -0.078125 0.203125 -0.078125q0.109375 0 0.171875 0.078125q0.078125 0.0625 0.078125 0.171875l0 3.140625q0 0.109375 -0.078125 0.1875q-0.0625 0.0625 -0.171875 0.0625zm4.1724854 0.03125q-0.53125 0 -0.953125 -0.234375q-0.40625 -0.25 -0.65625 -0.65625q-0.234375 -0.421875 -0.234375 -0.953125q0 -0.546875 0.234375 -0.953125q0.25 -0.421875 0.65625 -0.65625q0.421875 -0.25 0.953125 -0.25q0.53125 0 0.953125 0.25q0.421875 0.234375 0.65625 0.65625q0.234375 0.40625 0.25 0.953125q0 0.53125 -0.25 0.953125q-0.234375 0.40625 -0.65625 0.65625q-0.421875 0.234375 -0.953125 0.234375zm0 -0.46875q0.390625 0 0.6875 -0.171875q0.3125 -0.1875 0.484375 -0.5q0.171875 -0.3125 0.171875 -0.703125q0 -0.40625 -0.171875 -0.71875q-0.171875 -0.3125 -0.484375 -0.484375q-0.296875 -0.1875 -0.6875 -0.1875q-0.375 0 -0.6875 0.1875q-0.296875 0.171875 -0.484375 0.484375q-0.171875 0.3125 -0.171875 0.71875q0 0.390625 0.171875 0.703125q0.1875 0.3125 0.484375 0.5q0.3125 0.171875 0.6875 0.171875zm3.8999786 0.4375q-0.15625 0 -0.234375 -0.171875l-1.484375 -3.140625q-0.03125 -0.078125 0 -0.15625q0.03125 -0.09375 0.125 -0.140625q0.09375 -0.046875 0.171875 -0.015625q0.09375 0.03125 0.140625 0.125l1.421875 3.0625l-0.28125 0l1.40625 -3.0625q0.03125 -0.09375 0.125 -0.125q0.109375 -0.03125 0.203125 0q0.09375 0.046875 0.125 0.140625q0.03125 0.09375 -0.015625 0.171875l-1.453125 3.140625q-0.078125 0.171875 -0.25 0.171875zm3.9537811 0.03125q-0.546875 0 -0.96875 -0.234375q-0.40625 -0.234375 -0.640625 -0.65625q-0.234375 -0.421875 -0.234375 -0.953125q0 -0.546875 0.21875 -0.953125q0.234375 -0.421875 0.625 -0.65625q0.390625 -0.25 0.90625 -0.25q0.5 0 0.875 0.234375q0.375 0.21875 0.578125 0.625q0.21875 0.40625 0.21875 0.921875q0 0.109375 -0.078125 0.171875q-0.0625 0.0625 -0.171875 0.0625l-2.828125 0l0 -0.421875l2.890625 0l-0.296875 0.203125q0.015625 -0.375 -0.140625 -0.6875q-0.140625 -0.3125 -0.421875 -0.484375q-0.265625 -0.171875 -0.625 -0.171875q-0.390625 0 -0.671875 0.1875q-0.28125 0.171875 -0.4375 0.5q-0.15625 0.3125 -0.15625 0.71875q0 0.40625 0.171875 0.71875q0.171875 0.3125 0.46875 0.5q0.3125 0.171875 0.71875 0.171875q0.234375 0 0.46875 -0.078125q0.25 -0.09375 0.40625 -0.21875q0.0625 -0.0625 0.15625 -0.0625q0.09375 0 0.171875 0.046875q0.078125 0.078125 0.078125 0.171875q0.015625 0.09375 -0.0625 0.15625q-0.234375 0.1875 -0.578125 0.3125q-0.328125 0.125 -0.640625 0.125zm7.3525085 -0.03125q-0.109375 0 -0.1875 -0.0625q-0.0625 -0.078125 -0.0625 -0.1875l0 -1.921875q0 -0.46875 -0.25 -0.734375q-0.25 -0.28125 -0.640625 -0.28125q-0.40625 0 -0.671875 0.28125q-0.265625 0.265625 -0.25 0.71875l-0.46875 0q0.015625 -0.4375 0.203125 -0.78125q0.1875 -0.34375 0.5 -0.53125q0.328125 -0.1875 0.75 -0.1875q0.390625 0 0.6875 0.1875q0.3125 0.1875 0.46875 0.53125q0.171875 0.34375 0.171875 0.796875l0 1.921875q0 0.109375 -0.078125 0.1875q-0.0625 0.0625 -0.171875 0.0625zm-4.65625 0q-0.125 0 -0.203125 -0.0625q-0.0625 -0.078125 -0.0625 -0.1875l0 -3.125q0 -0.125 0.0625 -0.1875q0.078125 -0.078125 0.203125 -0.078125q0.109375 0 0.171875 0.078125q0.078125 0.0625 0.078125 0.1875l0 3.125q0 0.109375 -0.078125 0.1875q-0.0625 0.0625 -0.171875 0.0625zm2.328125 0q-0.109375 0 -0.1875 -0.0625q-0.0625 -0.078125 -0.0625 -0.1875l0 -1.921875q0 -0.46875 -0.25 -0.734375q-0.25 -0.28125 -0.625 -0.28125q-0.421875 0 -0.6875 0.265625q-0.265625 0.265625 -0.265625 0.703125l-0.359375 0q0.015625 -0.4375 0.1875 -0.765625q0.171875 -0.328125 0.46875 -0.515625q0.3125 -0.1875 0.703125 -0.1875q0.390625 0 0.6875 0.1875q0.3125 0.1875 0.484375 0.53125q0.171875 0.34375 0.171875 0.796875l0 1.921875q0 0.109375 -0.078125 0.1875q-0.0625 0.0625 -0.1875 0.0625zm5.3658905 0.03125q-0.546875 0 -0.96875 -0.234375q-0.40625 -0.234375 -0.640625 -0.65625q-0.234375 -0.421875 -0.234375 -0.953125q0 -0.546875 0.21875 -0.953125q0.234375 -0.421875 0.625 -0.65625q0.390625 -0.25 0.90625 -0.25q0.5 0 0.875 0.234375q0.375 0.21875 0.578125 0.625q0.21875 0.40625 0.21875 0.921875q0 0.109375 -0.078125 0.171875q-0.0625 0.0625 -0.171875 0.0625l-2.828125 0l0 -0.421875l2.890625 0l-0.296875 0.203125q0.015625 -0.375 -0.140625 -0.6875q-0.140625 -0.3125 -0.421875 -0.484375q-0.265625 -0.171875 -0.625 -0.171875q-0.390625 0 -0.671875 0.1875q-0.28125 0.171875 -0.4375 0.5q-0.15625 0.3125 -0.15625 0.71875q0 0.40625 0.171875 0.71875q0.171875 0.3125 0.46875 0.5q0.3125 0.171875 0.71875 0.171875q0.234375 0 0.46875 -0.078125q0.25 -0.09375 0.40625 -0.21875q0.0625 -0.0625 0.15625 -0.0625q0.09375 0 0.171875 0.046875q0.078125 0.078125 0.078125 0.171875q0.015625 0.09375 -0.0625 0.15625q-0.234375 0.1875 -0.578125 0.3125q-0.328125 0.125 -0.640625 0.125zm5.5556335 -0.03125q-0.109375 0 -0.1875 -0.0625q-0.0625 -0.078125 -0.0625 -0.1875l0 -1.734375q0 -0.40625 -0.171875 -0.671875q-0.15625 -0.265625 -0.421875 -0.390625q-0.265625 -0.140625 -0.609375 -0.140625q-0.328125 0 -0.59375 0.125q-0.25 0.125 -0.40625 0.34375q-0.15625 0.21875 -0.15625 0.5l-0.359375 0q0.015625 -0.421875 0.21875 -0.75q0.21875 -0.328125 0.5625 -0.515625q0.359375 -0.203125 0.796875 -0.203125q0.46875 0 0.84375 0.203125q0.375 0.203125 0.578125 0.578125q0.21875 0.375 0.21875 0.921875l0 1.734375q0 0.109375 -0.078125 0.1875q-0.0625 0.0625 -0.171875 0.0625zm-2.859375 0q-0.125 0 -0.203125 -0.0625q-0.0625 -0.078125 -0.0625 -0.1875l0 -3.125q0 -0.125 0.0625 -0.1875q0.078125 -0.078125 0.203125 -0.078125q0.109375 0 0.171875 0.078125q0.078125 0.0625 0.078125 0.1875l0 3.125q0 0.109375 -0.078125 0.1875q-0.0625 0.0625 -0.171875 0.0625zm5.6781006 0q-0.359375 0 -0.640625 -0.15625q-0.265625 -0.171875 -0.4375 -0.453125q-0.15625 -0.296875 -0.15625 -0.671875l0 -3.265625q0 -0.109375 0.0625 -0.171875q0.078125 -0.078125 0.1875 -0.078125q0.125 0 0.1875 0.078125q0.078125 0.0625 0.078125 0.171875l0 3.265625q0 0.34375 0.1875 0.5625q0.203125 0.203125 0.53125 0.203125l0.171875 0q0.109375 0 0.171875 0.078125q0.0625 0.078125 0.0625 0.1875q0 0.109375 -0.078125 0.1875q-0.078125 0.0625 -0.203125 0.0625l-0.125 0zm-1.671875 -3.0625q-0.09375 0 -0.15625 -0.0625q-0.0625 -0.0625 -0.0625 -0.15625q0 -0.09375 0.0625 -0.15625q0.0625 -0.0625 0.15625 -0.0625l1.703125 0q0.09375 0 0.15625 0.0625q0.078125 0.0625 0.078125 0.15625q0 0.09375 -0.078125 0.15625q-0.0625 0.0625 -0.15625 0.0625l-1.703125 0zm6.4697876 3.09375q-0.515625 0 -0.921875 -0.234375q-0.40625 -0.25 -0.640625 -0.671875q-0.234375 -0.421875 -0.234375 -0.9375q0 -0.53125 0.234375 -0.953125q0.25 -0.421875 0.671875 -0.65625q0.421875 -0.25 0.9375 -0.25q0.53125 0 0.9375 0.25q0.421875 0.234375 0.65625 0.65625q0.25 0.421875 0.265625 0.953125l-0.203125 0.15625q0 0.484375 -0.234375 0.875q-0.21875 0.375 -0.609375 0.59375q-0.375 0.21875 -0.859375 0.21875zm0.046875 -0.46875q0.390625 0 0.6875 -0.171875q0.3125 -0.1875 0.484375 -0.5q0.171875 -0.3125 0.171875 -0.703125q0 -0.40625 -0.171875 -0.71875q-0.171875 -0.3125 -0.484375 -0.484375q-0.296875 -0.1875 -0.6875 -0.1875q-0.375 0 -0.6875 0.1875q-0.296875 0.171875 -0.484375 0.484375q-0.171875 0.3125 -0.171875 0.71875q0 0.390625 0.171875 0.703125q0.1875 0.3125 0.484375 0.5q0.3125 0.171875 0.6875 0.171875zm1.59375 0.4375q-0.109375 0 -0.1875 -0.0625q-0.0625 -0.078125 -0.0625 -0.1875l0 -1.140625l0.125 -0.53125l0.390625 0.109375l0 1.5625q0 0.109375 -0.078125 0.1875q-0.078125 0.0625 -0.1875 0.0625zm2.6937256 0q-0.359375 0 -0.640625 -0.15625q-0.265625 -0.171875 -0.4375 -0.453125q-0.15625 -0.296875 -0.15625 -0.671875l0 -3.265625q0 -0.109375 0.0625 -0.171875q0.078125 -0.078125 0.1875 -0.078125q0.125 0 0.1875 0.078125q0.078125 0.0625 0.078125 0.171875l0 3.265625q0 0.34375 0.1875 0.5625q0.203125 0.203125 0.53125 0.203125l0.171875 0q0.109375 0 0.171875 0.078125q0.0625 0.078125 0.0625 0.1875q0 0.109375 -0.078125 0.1875q-0.078125 0.0625 -0.203125 0.0625l-0.125 0zm-1.671875 -3.0625q-0.09375 0 -0.15625 -0.0625q-0.0625 -0.0625 -0.0625 -0.15625q0 -0.09375 0.0625 -0.15625q0.0625 -0.0625 0.15625 -0.0625l1.703125 0q0.09375 0 0.15625 0.0625q0.078125 0.0625 0.078125 0.15625q0 0.09375 -0.078125 0.15625q-0.0625 0.0625 -0.15625 0.0625l-1.703125 0z" fill-rule="nonzero"/><path fill="#d9d9d9" d="m196.62709 112.757126q-0.46875 0 -0.859375 -0.21875q-0.375 -0.234375 -0.59375 -0.609375q-0.21875 -0.390625 -0.21875 -0.859375q0 -0.109375 0.0625 -0.1875q0.078125 -0.078125 0.1875 -0.078125q0.109375 0 0.1875 0.078125q0.078125 0.078125 0.078125 0.1875q0 0.328125 0.15625 0.59375q0.15625 0.265625 0.40625 0.421875q0.265625 0.15625 0.59375 0.15625q0.34375 0 0.609375 -0.15625q0.265625 -0.15625 0.40625 -0.421875q0.15625 -0.265625 0.15625 -0.59375q0 -0.34375 -0.15625 -0.609375q-0.140625 -0.265625 -0.40625 -0.40625q-0.265625 -0.15625 -0.609375 -0.15625l-1.15625 0q-0.109375 0 -0.1875 -0.078125q-0.078125 -0.078125 -0.078125 -0.1875l0 -1.828125q0 -0.09375 0.078125 -0.171875q0.078125 -0.078125 0.1875 -0.078125l2.328125 0q0.109375 0 0.1875 0.078125q0.078125 0.078125 0.078125 0.171875q0 0.109375 -0.078125 0.1875q-0.0625 0.078125 -0.1875 0.078125l-2.078125 0l0 1.3125l0.90625 0q0.5 0 0.875 0.21875q0.375 0.21875 0.59375 0.609375q0.234375 0.375 0.234375 0.859375q0 0.46875 -0.234375 0.859375q-0.21875 0.375 -0.59375 0.609375q-0.375 0.21875 -0.875 0.21875zm3.1265411 0q-0.109375 0 -0.1875 -0.0625q-0.0625 -0.078125 -0.0625 -0.203125q0 -0.09375 0.046875 -0.171875l3.65625 -4.65625q0.046875 -0.046875 0.09375 -0.078125q0.0625 -0.03125 0.109375 -0.03125q0.125 0 0.1875 0.078125q0.078125 0.078125 0.078125 0.1875q0 0.078125 -0.046875 0.15625l-3.671875 4.6875q-0.09375 0.09375 -0.203125 0.09375zm0.484375 -2.609375q-0.359375 0 -0.65625 -0.171875q-0.296875 -0.171875 -0.484375 -0.46875q-0.171875 -0.296875 -0.171875 -0.65625q0 -0.34375 0.171875 -0.640625q0.1875 -0.296875 0.484375 -0.46875q0.296875 -0.1875 0.65625 -0.1875q0.34375 0 0.640625 0.1875q0.296875 0.171875 0.46875 0.46875q0.1875 0.296875 0.1875 0.640625q0 0.359375 -0.1875 0.65625q-0.171875 0.296875 -0.46875 0.46875q-0.296875 0.171875 -0.640625 0.171875zm0 -0.5q0.203125 0 0.375 -0.109375q0.1875 -0.109375 0.296875 -0.28125q0.125 -0.1875 0.125 -0.40625q0 -0.21875 -0.125 -0.390625q-0.109375 -0.1875 -0.296875 -0.296875q-0.171875 -0.109375 -0.375 -0.109375q-0.21875 0 -0.40625 0.109375q-0.171875 0.109375 -0.28125 0.296875q-0.109375 0.171875 -0.109375 0.390625q0 0.21875 0.109375 0.40625q0.109375 0.171875 0.28125 0.28125q0.1875 0.109375 0.40625 0.109375zm2.6875 3.109375q-0.34375 0 -0.640625 -0.171875q-0.296875 -0.1875 -0.484375 -0.46875q-0.171875 -0.296875 -0.171875 -0.65625q0 -0.359375 0.171875 -0.65625q0.1875 -0.296875 0.46875 -0.46875q0.296875 -0.171875 0.65625 -0.171875q0.359375 0 0.65625 0.171875q0.296875 0.171875 0.46875 0.46875q0.1875 0.296875 0.1875 0.65625q0 0.359375 -0.1875 0.65625q-0.171875 0.28125 -0.46875 0.46875q-0.296875 0.171875 -0.65625 0.171875zm0 -0.5q0.21875 0 0.390625 -0.109375q0.1875 -0.109375 0.296875 -0.28125q0.109375 -0.1875 0.109375 -0.40625q0 -0.21875 -0.109375 -0.390625q-0.109375 -0.1875 -0.296875 -0.296875q-0.171875 -0.109375 -0.390625 -0.109375q-0.203125 0 -0.390625 0.109375q-0.1875 0.109375 -0.296875 0.296875q-0.09375 0.171875 -0.09375 0.390625q0 0.21875 0.09375 0.40625q0.109375 0.171875 0.296875 0.28125q0.1875 0.109375 0.390625 0.109375zm4.2929077 2.0625q-0.125 0 -0.203125 -0.078125q-0.0625 -0.0625 -0.0625 -0.1875l0 -3.140625q0.015625 -0.515625 0.25 -0.921875q0.25 -0.421875 0.65625 -0.65625q0.421875 -0.25 0.9375 -0.25q0.53125 0 0.953125 0.25q0.421875 0.234375 0.65625 0.65625q0.25 0.421875 0.25 0.953125q0 0.515625 -0.234375 0.9375q-0.234375 0.421875 -0.640625 0.671875q-0.40625 0.234375 -0.921875 0.234375q-0.4375 0 -0.8125 -0.1875q-0.359375 -0.1875 -0.578125 -0.5l0 1.953125q0 0.125 -0.078125 0.1875q-0.0625 0.078125 -0.171875 0.078125zm1.578125 -2.0q0.390625 0 0.6875 -0.171875q0.3125 -0.1875 0.484375 -0.5q0.1875 -0.3125 0.1875 -0.703125q0 -0.40625 -0.1875 -0.71875q-0.171875 -0.3125 -0.484375 -0.484375q-0.296875 -0.1875 -0.6875 -0.1875q-0.375 0 -0.6875 0.1875q-0.296875 0.171875 -0.46875 0.484375q-0.171875 0.3125 -0.171875 0.71875q0 0.390625 0.171875 0.703125q0.171875 0.3125 0.46875 0.5q0.3125 0.171875 0.6875 0.171875zm4.5184174 0.46875q-0.546875 0 -0.96875 -0.234375q-0.40625 -0.234375 -0.640625 -0.65625q-0.234375 -0.421875 -0.234375 -0.953125q0 -0.546875 0.21875 -0.953125q0.234375 -0.421875 0.625 -0.65625q0.390625 -0.25 0.90625 -0.25q0.5 0 0.875 0.234375q0.375 0.21875 0.578125 0.625q0.21875 0.40625 0.21875 0.921875q0 0.109375 -0.078125 0.171875q-0.0625 0.0625 -0.171875 0.0625l-2.828125 0l0 -0.421875l2.890625 0l-0.296875 0.203125q0.015625 -0.375 -0.140625 -0.6875q-0.140625 -0.3125 -0.421875 -0.484375q-0.265625 -0.171875 -0.625 -0.171875q-0.390625 0 -0.671875 0.1875q-0.28125 0.171875 -0.4375 0.5q-0.15625 0.3125 -0.15625 0.71875q0 0.40625 0.171875 0.71875q0.171875 0.3125 0.46875 0.5q0.3125 0.171875 0.71875 0.171875q0.234375 0 0.46875 -0.078125q0.25 -0.09375 0.40625 -0.21875q0.0625 -0.0625 0.15625 -0.0625q0.09375 0 0.171875 0.046875q0.078125 0.078125 0.078125 0.171875q0.015625 0.09375 -0.0625 0.15625q-0.234375 0.1875 -0.578125 0.3125q-0.328125 0.125 -0.640625 0.125zm2.6493835 -2.28125q0.015625 -0.40625 0.203125 -0.734375q0.203125 -0.328125 0.515625 -0.515625q0.328125 -0.1875 0.71875 -0.1875q0.296875 0 0.453125 0.09375q0.171875 0.09375 0.140625 0.25q-0.03125 0.109375 -0.09375 0.140625q-0.0625 0.03125 -0.15625 0.03125q-0.078125 -0.015625 -0.203125 -0.015625q-0.359375 -0.046875 -0.65625 0.0625q-0.296875 0.109375 -0.46875 0.34375q-0.15625 0.21875 -0.15625 0.53125l-0.296875 0zm0.046875 2.25q-0.125 0 -0.203125 -0.0625q-0.0625 -0.078125 -0.0625 -0.1875l0 -3.140625q0 -0.109375 0.0625 -0.171875q0.078125 -0.078125 0.203125 -0.078125q0.109375 0 0.171875 0.078125q0.078125 0.0625 0.078125 0.171875l0 3.140625q0 0.109375 -0.078125 0.1875q-0.0625 0.0625 -0.171875 0.0625zm6.1394043 0q-0.453125 0 -0.8125 -0.203125q-0.34375 -0.203125 -0.546875 -0.546875q-0.203125 -0.359375 -0.203125 -0.8125q0 -0.453125 0.203125 -0.796875q0.203125 -0.359375 0.546875 -0.5625q0.359375 -0.203125 0.8125 -0.203125q0.4375 0 0.78125 0.203125q0.359375 0.203125 0.5625 0.5625q0.203125 0.34375 0.203125 0.796875q0 0.453125 -0.203125 0.8125q-0.203125 0.34375 -0.5625 0.546875q-0.34375 0.203125 -0.78125 0.203125zm-0.015625 -0.484375q0.3125 0 0.546875 -0.140625q0.25 -0.140625 0.390625 -0.375q0.140625 -0.25 0.140625 -0.5625q0 -0.3125 -0.140625 -0.5625q-0.140625 -0.25 -0.390625 -0.390625q-0.234375 -0.140625 -0.546875 -0.140625q-0.296875 0 -0.546875 0.140625q-0.234375 0.140625 -0.375 0.390625q-0.140625 0.25 -0.140625 0.5625q0 0.3125 0.140625 0.5625q0.140625 0.234375 0.375 0.375q0.25 0.140625 0.546875 0.140625zm-1.359375 -1.875l1.640625 -2.703125q0.09375 -0.140625 0.234375 -0.140625q0.109375 0 0.171875 0.0625q0.078125 0.0625 0.09375 0.15625q0.015625 0.09375 -0.03125 0.171875l-1.109375 1.796875l-1.0 0.65625zm10.694809 2.359375q-0.109375 0 -0.1875 -0.0625q-0.0625 -0.078125 -0.0625 -0.1875l0 -1.921875q0 -0.46875 -0.25 -0.734375q-0.25 -0.28125 -0.640625 -0.28125q-0.40625 0 -0.671875 0.28125q-0.265625 0.265625 -0.25 0.71875l-0.46875 0q0.015625 -0.4375 0.203125 -0.78125q0.1875 -0.34375 0.5 -0.53125q0.328125 -0.1875 0.75 -0.1875q0.390625 0 0.6875 0.1875q0.3125 0.1875 0.46875 0.53125q0.171875 0.34375 0.171875 0.796875l0 1.921875q0 0.109375 -0.078125 0.1875q-0.0625 0.0625 -0.171875 0.0625zm-4.65625 0q-0.125 0 -0.203125 -0.0625q-0.0625 -0.078125 -0.0625 -0.1875l0 -3.125q0 -0.125 0.0625 -0.1875q0.078125 -0.078125 0.203125 -0.078125q0.109375 0 0.171875 0.078125q0.078125 0.0625 0.078125 0.1875l0 3.125q0 0.109375 -0.078125 0.1875q-0.0625 0.0625 -0.171875 0.0625zm2.328125 0q-0.109375 0 -0.1875 -0.0625q-0.0625 -0.078125 -0.0625 -0.1875l0 -1.921875q0 -0.46875 -0.25 -0.734375q-0.25 -0.28125 -0.625 -0.28125q-0.421875 0 -0.6875 0.265625q-0.265625 0.265625 -0.265625 0.703125l-0.359375 0q0.015625 -0.4375 0.1875 -0.765625q0.171875 -0.328125 0.46875 -0.515625q0.3125 -0.1875 0.703125 -0.1875q0.390625 0 0.6875 0.1875q0.3125 0.1875 0.484375 0.53125q0.171875 0.34375 0.171875 0.796875l0 1.921875q0 0.109375 -0.078125 0.1875q-0.0625 0.0625 -0.1875 0.0625zm5.3658905 0.03125q-0.53125 0 -0.953125 -0.234375q-0.40625 -0.25 -0.65625 -0.65625q-0.234375 -0.421875 -0.234375 -0.953125q0 -0.546875 0.234375 -0.953125q0.25 -0.421875 0.65625 -0.65625q0.421875 -0.25 0.953125 -0.25q0.53125 0 0.953125 0.25q0.421875 0.234375 0.65625 0.65625q0.234375 0.40625 0.25 0.953125q0 0.53125 -0.25 0.953125q-0.234375 0.40625 -0.65625 0.65625q-0.421875 0.234375 -0.953125 0.234375zm0 -0.46875q0.390625 0 0.6875 -0.171875q0.3125 -0.1875 0.484375 -0.5q0.171875 -0.3125 0.171875 -0.703125q0 -0.40625 -0.171875 -0.71875q-0.171875 -0.3125 -0.484375 -0.484375q-0.296875 -0.1875 -0.6875 -0.1875q-0.375 0 -0.6875 0.1875q-0.296875 0.171875 -0.484375 0.484375q-0.171875 0.3125 -0.171875 0.71875q0 0.390625 0.171875 0.703125q0.1875 0.3125 0.484375 0.5q0.3125 0.171875 0.6875 0.171875zm5.9749756 0.4375q-0.109375 0 -0.1875 -0.0625q-0.0625 -0.078125 -0.0625 -0.1875l0 -1.734375q0 -0.40625 -0.171875 -0.671875q-0.15625 -0.265625 -0.421875 -0.390625q-0.265625 -0.140625 -0.609375 -0.140625q-0.328125 0 -0.59375 0.125q-0.25 0.125 -0.40625 0.34375q-0.15625 0.21875 -0.15625 0.5l-0.359375 0q0.015625 -0.421875 0.21875 -0.75q0.21875 -0.328125 0.5625 -0.515625q0.359375 -0.203125 0.796875 -0.203125q0.46875 0 0.84375 0.203125q0.375 0.203125 0.578125 0.578125q0.21875 0.375 0.21875 0.921875l0 1.734375q0 0.109375 -0.078125 0.1875q-0.0625 0.0625 -0.171875 0.0625zm-2.859375 0q-0.125 0 -0.203125 -0.0625q-0.0625 -0.078125 -0.0625 -0.1875l0 -3.125q0 -0.125 0.0625 -0.1875q0.078125 -0.078125 0.203125 -0.078125q0.109375 0 0.171875 0.078125q0.078125 0.0625 0.078125 0.1875l0 3.125q0 0.109375 -0.078125 0.1875q-0.0625 0.0625 -0.171875 0.0625zm5.6781006 0q-0.359375 0 -0.640625 -0.15625q-0.265625 -0.171875 -0.4375 -0.453125q-0.15625 -0.296875 -0.15625 -0.671875l0 -3.265625q0 -0.109375 0.0625 -0.171875q0.078125 -0.078125 0.1875 -0.078125q0.125 0 0.1875 0.078125q0.078125 0.0625 0.078125 0.171875l0 3.265625q0 0.34375 0.1875 0.5625q0.203125 0.203125 0.53125 0.203125l0.171875 0q0.109375 0 0.171875 0.078125q0.0625 0.078125 0.0625 0.1875q0 0.109375 -0.078125 0.1875q-0.078125 0.0625 -0.203125 0.0625l-0.125 0zm-1.671875 -3.0625q-0.09375 0 -0.15625 -0.0625q-0.0625 -0.0625 -0.0625 -0.15625q0 -0.09375 0.0625 -0.15625q0.0625 -0.0625 0.15625 -0.0625l1.703125 0q0.09375 0 0.15625 0.0625q0.078125 0.0625 0.078125 0.15625q0 0.09375 -0.078125 0.15625q-0.0625 0.0625 -0.15625 0.0625l-1.703125 0zm6.0351562 3.0625q-0.109375 0 -0.1875 -0.0625q-0.0625 -0.078125 -0.0625 -0.1875l0 -1.734375q0 -0.40625 -0.171875 -0.671875q-0.15625 -0.265625 -0.421875 -0.390625q-0.265625 -0.140625 -0.609375 -0.140625q-0.328125 0 -0.59375 0.125q-0.25 0.125 -0.40625 0.34375q-0.15625 0.21875 -0.15625 0.5l-0.359375 0q0.015625 -0.421875 0.21875 -0.75q0.21875 -0.328125 0.5625 -0.515625q0.359375 -0.203125 0.796875 -0.203125q0.46875 0 0.84375 0.203125q0.375 0.203125 0.578125 0.578125q0.21875 0.375 0.21875 0.921875l0 1.734375q0 0.109375 -0.078125 0.1875q-0.0625 0.0625 -0.171875 0.0625zm-2.859375 0q-0.125 0 -0.203125 -0.0625q-0.0625 -0.078125 -0.0625 -0.1875l0 -3.125q0 -0.125 0.0625 -0.1875q0.078125 -0.078125 0.203125 -0.078125q0.109375 0 0.171875 0.078125q0.078125 0.0625 0.078125 0.1875l0 3.125q0 0.109375 -0.078125 0.1875q-0.0625 0.0625 -0.171875 0.0625zm0 -1.484375q-0.125 0 -0.203125 -0.0625q-0.0625 -0.078125 -0.0625 -0.203125l0 -3.1875q0 -0.125 0.0625 -0.1875q0.078125 -0.078125 0.203125 -0.078125q0.109375 0 0.171875 0.078125q0.078125 0.0625 0.078125 0.1875l0 3.1875q0 0.125 -0.078125 0.203125q-0.0625 0.0625 -0.171875 0.0625zm5.5218506 1.515625q-0.390625 0 -0.78125 -0.125q-0.390625 -0.140625 -0.625 -0.40625q-0.078125 -0.078125 -0.0625 -0.171875q0.015625 -0.109375 0.09375 -0.1875q0.09375 -0.0625 0.1875 -0.046875q0.109375 0.015625 0.171875 0.09375q0.171875 0.1875 0.421875 0.28125q0.265625 0.09375 0.59375 0.09375q0.484375 0 0.703125 -0.15625q0.21875 -0.171875 0.234375 -0.421875q0 -0.234375 -0.234375 -0.390625q-0.21875 -0.15625 -0.734375 -0.25q-0.671875 -0.09375 -0.984375 -0.359375q-0.3125 -0.28125 -0.3125 -0.640625q0 -0.34375 0.171875 -0.5625q0.1875 -0.234375 0.484375 -0.34375q0.296875 -0.109375 0.65625 -0.109375q0.4375 0 0.765625 0.15625q0.328125 0.140625 0.515625 0.40625q0.078125 0.09375 0.0625 0.1875q-0.015625 0.09375 -0.109375 0.140625q-0.078125 0.046875 -0.1875 0.03125q-0.09375 -0.015625 -0.171875 -0.09375q-0.171875 -0.1875 -0.390625 -0.28125q-0.21875 -0.09375 -0.5 -0.09375q-0.359375 0 -0.59375 0.15625q-0.21875 0.140625 -0.21875 0.375q0 0.15625 0.078125 0.265625q0.09375 0.109375 0.296875 0.203125q0.203125 0.078125 0.578125 0.140625q0.484375 0.078125 0.78125 0.234375q0.296875 0.15625 0.40625 0.375q0.125 0.203125 0.125 0.453125q0 0.3125 -0.1875 0.546875q-0.171875 0.234375 -0.5 0.375q-0.3125 0.125 -0.734375 0.125z" fill-rule="nonzero"/><path fill="#000000" fill-opacity="0.0" d="m124.544395 121.65647l18.141731 0.12598419" fill-rule="evenodd"/><path stroke="#d9d9d9" stroke-width="1.0" stroke-linejoin="round" stroke-linecap="butt" d="m124.544395 121.65647l18.141731 0.12598419" fill-rule="evenodd"/><path fill="#000000" fill-opacity="0.0" d="m125.08539 147.11548l18.141739 0.12599182" fill-rule="evenodd"/><path stroke="#d9d9d9" stroke-width="1.0" stroke-linejoin="round" stroke-linecap="butt" d="m125.08539 147.11548l18.141739 0.12599182" fill-rule="evenodd"/></g></svg>