<svg version="1.1" viewBox="0.0 0.0 576.0 576.0" fill="none" stroke="none" stroke-linecap="square" stroke-miterlimit="10" xmlns:xlink="http://www.w3.org/1999/xlink" xmlns="http://www.w3.org/2000/svg"><clipPath id="gaab07ba975_0_0.0"><path d="m0 0l576.0 0l0 576.0l-576.0 0l0 -576.0z" clip-rule="nonzero"/></clipPath><g clip-path="url(#gaab07ba975_0_0.0)"><path fill="#ffffff" d="m0 0l576.0 0l0 576.0l-576.0 0z" fill-rule="evenodd"/><path fill="#000000" fill-opacity="0.0" d="m232.28609 32.84777l-116.97638 158.96063" fill-rule="evenodd"/><path stroke="#fce5cd" stroke-width="4.0" stroke-linejoin="round" stroke-linecap="butt" d="m232.28609 32.84777l-116.97638 158.96063" fill-rule="evenodd"/><path fill="#000000" fill-opacity="0.0" d="m232.54994 32.55713l278.74017 228.6929" fill-rule="evenodd"/><path stroke="#efefef" stroke-width="8.0" stroke-linejoin="round" stroke-linecap="butt" d="m232.54994 32.55713l278.74017 228.6929" fill-rule="evenodd"/><path fill="#000000" fill-opacity="0.0" d="m511.8294 261.11285l-482.83466 72.787415" fill-rule="evenodd"/><path stroke="#f9cb9c" stroke-width="4.0" stroke-linejoin="round" stroke-linecap="butt" d="m511.8294 261.11285l-482.83466 72.787415" fill-rule="evenodd"/><path fill="#000000" fill-opacity="0.0" d="m264.45874 176.71242l-8.598434 366.70868" fill-rule="evenodd"/><path stroke="#efefef" stroke-width="3.0" stroke-linejoin="round" stroke-linecap="butt" d="m264.45874 176.71242l-8.598434 366.70868" fill-rule="evenodd"/><path fill="#000000" fill-opacity="0.0" d="m433.80054 76.64304l-201.35434 -43.65354" fill-rule="evenodd"/><path stroke="#ff9900" stroke-width="8.0" stroke-linejoin="round" stroke-linecap="butt" d="m433.80054 76.64304l-201.35434 -43.65354" fill-rule="evenodd"/><path fill="#000000" fill-opacity="0.0" d="m28.711496 334.56934l124.56693 41.039368" fill-rule="evenodd"/><path stroke="#666666" stroke-width="4.0" stroke-linejoin="round" stroke-linecap="butt" d="m28.711496 334.56934l124.56693 41.039368" fill-rule="evenodd"/><path fill="#000000" fill-opacity="0.0" d="m539.13385 524.02625l-283.43304 19.118103" fill-rule="evenodd"/><path stroke="#f9cb9c" stroke-width="4.0" stroke-linejoin="round" stroke-linecap="butt" d="m539.13385 524.02625l-283.43304 19.118103" fill-rule="evenodd"/><path fill="#000000" fill-opacity="0.0" d="m434.07874 76.50394l-280.7874 299.3701" fill-rule="evenodd"/><path stroke="#f9cb9c" stroke-width="4.0" stroke-linejoin="round" stroke-linecap="butt" d="m434.07874 76.50394l-280.7874 299.3701" fill-rule="evenodd"/><path fill="#000000" fill-opacity="0.0" d="m511.2756 260.41995l-255.14963 283.14963" fill-rule="evenodd"/><path stroke="#f9cb9c" stroke-width="4.0" stroke-linejoin="round" stroke-linecap="butt" d="m511.2756 260.41995l-255.14963 283.14963" fill-rule="evenodd"/><path fill="#000000" fill-opacity="0.0" d="m114.755905 191.81627l-86.362206 142.20473" fill-rule="evenodd"/><path stroke="#cccccc" stroke-width="2.0" stroke-linejoin="round" stroke-linecap="butt" d="m114.755905 191.81627l-86.362206 142.20473" fill-rule="evenodd"/><path fill="#000000" fill-opacity="0.0" d="m264.16272 176.56955l-148.97638 14.834656" fill-rule="evenodd"/><path stroke="#cccccc" stroke-width="4.0" stroke-linejoin="round" stroke-linecap="butt" d="m264.16272 176.56955l-148.97638 14.834656" fill-rule="evenodd"/><path fill="#000000" fill-opacity="0.0" d="m115.03412 191.81627l38.23622 183.62206" fill-rule="evenodd"/><path stroke="#ff9900" stroke-width="8.0" stroke-linejoin="round" stroke-linecap="butt" d="m115.03412 191.81627l38.23622 183.62206" fill-rule="evenodd"/><path fill="#000000" fill-opacity="0.0" d="m511.13647 260.41995l26.582703 257.82675" fill-rule="evenodd"/><path stroke="#e69138" stroke-width="4.0" stroke-linejoin="round" stroke-linecap="butt" d="m511.13647 260.41995l26.582703 257.82675" fill-rule="evenodd"/><path fill="#ff0000" d="m107.54447 191.19379l0 0c0 -4.139969 3.2432861 -7.496063 7.244095 -7.496063l0 0c1.9212494 0 3.7638168 0.78974915 5.122345 2.1955414c1.3585281 1.405777 2.1217499 3.312439 2.1217499 5.300522l0 0c0 4.1399536 -3.2432938 7.496063 -7.244095 7.496063l0 0c-4.0008087 0 -7.244095 -3.3561096 -7.244095 -7.496063z" fill-rule="evenodd"/><path fill="#ff0000" d="m256.76093 176.19492l0 0c0 -4.1399536 3.2432861 -7.496063 7.24411 -7.496063l0 0c1.9212341 0 3.763794 0.7897644 5.122345 2.1955566c1.3585205 1.405777 2.1217346 3.3124237 2.1217346 5.3005066l0 0c0 4.139969 -3.2432861 7.496063 -7.2440796 7.496063l0 0c-4.000824 0 -7.24411 -3.3560944 -7.24411 -7.496063z" fill-rule="evenodd"/><path fill="#ff0000" d="m21.548557 333.87958l0 0c0 -4.1399536 3.24329 -7.496063 7.244093 -7.496063l0 0c1.9212532 0 3.7638187 0.7897644 5.1223507 2.1955566c1.3585281 1.4057617 2.121746 3.312439 2.121746 5.3005066l0 0c0 4.1399536 -3.2432938 7.496063 -7.2440968 7.496063l0 0c-4.000803 0 -7.244093 -3.3561096 -7.244093 -7.496063z" fill-rule="evenodd"/><path fill="#ff0000" d="m248.42723 543.01166l0 0c0 -4.1399536 3.2432861 -7.4960938 7.244095 -7.4960938l0 0c1.9212646 0 3.7638245 0.7897949 5.122345 2.1955566c1.358551 1.4057617 2.1217651 3.312439 2.1217651 5.300537l0 0c0 4.1399536 -3.2433167 7.4960327 -7.24411 7.4960327l0 0c-4.0008087 0 -7.244095 -3.356079 -7.244095 -7.4960327z" fill-rule="evenodd"/><path fill="#ff0000" d="m503.68805 260.34583l0 0c0 -4.1399536 3.2432861 -7.496048 7.2440796 -7.496048l0 0c1.9212646 0 3.763855 0.78974915 5.1223755 2.1955414c1.3585205 1.4057922 2.121704 3.312439 2.121704 5.3005066l0 0c0 4.139984 -3.2432861 7.496063 -7.2440796 7.496063l0 0c-4.0007935 0 -7.2440796 -3.356079 -7.2440796 -7.496063z" fill-rule="evenodd"/><path fill="#ff0000" d="m225.10393 32.989502l0 0c0 -4.1399612 3.2433014 -7.496063 7.244095 -7.496063l0 0c1.9212494 0 3.7638245 0.7897606 5.122345 2.1955452c1.3585358 1.4057846 2.1217499 3.312437 2.1217499 5.300518l0 0c0 4.1399612 -3.2432861 7.496063 -7.244095 7.496063l0 0c-4.0007935 0 -7.244095 -3.356102 -7.244095 -7.496063z" fill-rule="evenodd"/><path fill="#ff0000" d="m426.19998 76.52084l0 0c0 -4.1399612 3.2432861 -7.496063 7.2440796 -7.496063l0 0c1.9212646 0 3.7638245 0.7897568 5.122345 2.1955414c1.358551 1.4057846 2.1217651 3.312439 2.1217651 5.300522l0 0c0 4.1399612 -3.2432861 7.496063 -7.24411 7.496063l0 0c-4.0007935 0 -7.2440796 -3.356102 -7.2440796 -7.496063z" fill-rule="evenodd"/><path fill="#ff0000" d="m145.90834 374.91577l0 0c0 -4.1399536 3.2433014 -7.4960327 7.244095 -7.4960327l0 0c1.9212646 0 3.7638245 0.7897339 5.12236 2.1955261c1.3585205 1.4057922 2.1217346 3.312439 2.1217346 5.3005066l0 0c0 4.139984 -3.2432861 7.496063 -7.244095 7.496063l0 0c-4.0007935 0 -7.244095 -3.356079 -7.244095 -7.496063z" fill-rule="evenodd"/><path fill="#ff0000" d="m531.569 523.5375l0 0c0 -4.1399536 3.2432861 -7.4960938 7.2440796 -7.4960938l0 0c1.9212646 0 3.763855 0.7897949 5.1223755 2.1955566c1.3585205 1.4057617 2.121704 3.312439 2.121704 5.300537l0 0c0 4.1399536 -3.2432861 7.4960327 -7.2440796 7.4960327l0 0c-4.0007935 0 -7.2440796 -3.356079 -7.2440796 -7.4960327z" fill-rule="evenodd"/><path fill="#ff0000" d="m18.081366 474.3074l0 0c0 -4.1399536 3.24329 -7.496063 7.244093 -7.496063l0 0c1.9212532 0 3.7638187 0.7897644 5.122349 2.1955261c1.358532 1.4057922 2.121746 3.312439 2.121746 5.300537l0 0c0 4.1399536 -3.2432919 7.496063 -7.244095 7.496063l0 0c-4.000803 0 -7.244093 -3.3561096 -7.244093 -7.496063z" fill-rule="evenodd"/><path fill="#000000" fill-opacity="0.0" d="m28.51181 459.49545l205.13387 0l0 35.3071l-205.13387 0z" fill-rule="evenodd"/><path fill="#000000" d="m38.04306 477.45544q-0.21875 0 -0.3125 -0.171875q-0.09375 -0.1875 -0.015625 -0.34375l2.75 -6.515625q0.09375 -0.25 0.34375 -0.25q0.25 0 0.34375 0.25l2.765625 6.515625q0.078125 0.1875 -0.03125 0.359375q-0.109375 0.15625 -0.296875 0.15625q-0.125 0 -0.21875 -0.046875q-0.078125 -0.0625 -0.125 -0.171875l-2.578125 -6.234375l0.296875 0l-2.578125 6.234375q-0.046875 0.109375 -0.140625 0.171875q-0.09375 0.046875 -0.203125 0.046875zm0.609375 -1.734375l0.28125 -0.625l3.796875 0l0.28125 0.625l-4.359375 0zm8.042053 1.78125q-0.546875 0 -1.09375 -0.1875q-0.546875 -0.1875 -0.875 -0.5625q-0.109375 -0.109375 -0.09375 -0.25q0.03125 -0.140625 0.140625 -0.234375q0.140625 -0.09375 0.28125 -0.078125q0.140625 0.015625 0.234375 0.125q0.21875 0.25 0.578125 0.390625q0.375 0.140625 0.828125 0.140625q0.6875 0 0.984375 -0.234375q0.3125 -0.234375 0.328125 -0.578125q0 -0.328125 -0.328125 -0.546875q-0.3125 -0.21875 -1.03125 -0.34375q-0.953125 -0.15625 -1.390625 -0.515625q-0.4375 -0.375 -0.4375 -0.890625q0 -0.484375 0.25 -0.796875q0.265625 -0.3125 0.671875 -0.46875q0.421875 -0.171875 0.9375 -0.171875q0.625 0 1.0625 0.21875q0.453125 0.21875 0.734375 0.578125q0.09375 0.125 0.078125 0.265625q-0.015625 0.125 -0.140625 0.203125q-0.125 0.0625 -0.265625 0.046875q-0.140625 -0.03125 -0.25 -0.140625q-0.234375 -0.265625 -0.546875 -0.390625q-0.296875 -0.125 -0.703125 -0.125q-0.5 0 -0.8125 0.21875q-0.3125 0.203125 -0.3125 0.515625q0 0.21875 0.109375 0.375q0.125 0.15625 0.40625 0.28125q0.28125 0.109375 0.796875 0.203125q0.703125 0.109375 1.109375 0.328125q0.40625 0.21875 0.578125 0.515625q0.171875 0.296875 0.171875 0.640625q0 0.4375 -0.265625 0.765625q-0.25 0.328125 -0.703125 0.515625q-0.453125 0.1875 -1.03125 0.1875zm5.0278625 0q-0.546875 0 -1.09375 -0.1875q-0.546875 -0.1875 -0.875 -0.5625q-0.109375 -0.109375 -0.09375 -0.25q0.03125 -0.140625 0.140625 -0.234375q0.140625 -0.09375 0.28125 -0.078125q0.140625 0.015625 0.234375 0.125q0.21875 0.25 0.578125 0.390625q0.375 0.140625 0.828125 0.140625q0.6875 0 0.984375 -0.234375q0.3125 -0.234375 0.328125 -0.578125q0 -0.328125 -0.328125 -0.546875q-0.3125 -0.21875 -1.03125 -0.34375q-0.953125 -0.15625 -1.390625 -0.515625q-0.4375 -0.375 -0.4375 -0.890625q0 -0.484375 0.25 -0.796875q0.265625 -0.3125 0.671875 -0.46875q0.421875 -0.171875 0.9375 -0.171875q0.625 0 1.0625 0.21875q0.453125 0.21875 0.734375 0.578125q0.09375 0.125 0.078125 0.265625q-0.015625 0.125 -0.140625 0.203125q-0.125 0.0625 -0.265625 0.046875q-0.140625 -0.03125 -0.25 -0.140625q-0.234375 -0.265625 -0.546875 -0.390625q-0.296875 -0.125 -0.703125 -0.125q-0.5 0 -0.8125 0.21875q-0.3125 0.203125 -0.3125 0.515625q0 0.21875 0.109375 0.375q0.125 0.15625 0.40625 0.28125q0.28125 0.109375 0.796875 0.203125q0.703125 0.109375 1.109375 0.328125q0.40625 0.21875 0.578125 0.515625q0.171875 0.296875 0.171875 0.640625q0 0.4375 -0.265625 0.765625q-0.25 0.328125 -0.703125 0.515625q-0.453125 0.1875 -1.03125 0.1875zm5.5591125 0q-0.765625 0 -1.34375 -0.328125q-0.578125 -0.328125 -0.921875 -0.921875q-0.328125 -0.59375 -0.328125 -1.34375q0 -0.765625 0.3125 -1.34375q0.3125 -0.59375 0.859375 -0.921875q0.5625 -0.34375 1.28125 -0.34375q0.703125 0 1.234375 0.328125q0.53125 0.328125 0.8125 0.890625q0.296875 0.5625 0.296875 1.296875q0 0.15625 -0.09375 0.25q-0.09375 0.078125 -0.25 0.078125l-3.96875 0l0 -0.59375l4.046875 0l-0.40625 0.28125q0.015625 -0.53125 -0.1875 -0.953125q-0.203125 -0.4375 -0.59375 -0.671875q-0.375 -0.25 -0.890625 -0.25q-0.53125 0 -0.9375 0.25q-0.40625 0.25 -0.625 0.703125q-0.21875 0.4375 -0.21875 1.0q0 0.5625 0.25 1.015625q0.25 0.4375 0.671875 0.6875q0.4375 0.25 1.0 0.25q0.328125 0 0.671875 -0.109375q0.34375 -0.125 0.546875 -0.296875q0.109375 -0.09375 0.234375 -0.09375q0.125 0 0.21875 0.0625q0.125 0.109375 0.125 0.25q0.015625 0.125 -0.109375 0.21875q-0.296875 0.265625 -0.78125 0.4375q-0.46875 0.171875 -0.90625 0.171875zm5.399338 -0.046875q-0.484375 0 -0.875 -0.234375q-0.390625 -0.234375 -0.609375 -0.640625q-0.21875 -0.40625 -0.21875 -0.921875l0 -4.5625q0 -0.15625 0.09375 -0.25q0.09375 -0.109375 0.25 -0.109375q0.15625 0 0.265625 0.109375q0.109375 0.09375 0.109375 0.25l0 4.5625q0 0.46875 0.265625 0.78125q0.28125 0.296875 0.71875 0.296875l0.265625 0q0.140625 0 0.234375 0.109375q0.09375 0.09375 0.09375 0.25q0 0.15625 -0.109375 0.265625q-0.109375 0.09375 -0.28125 0.09375l-0.203125 0zm-2.3125 -4.296875q-0.140625 0 -0.234375 -0.078125q-0.09375 -0.09375 -0.09375 -0.21875q0 -0.140625 0.09375 -0.234375q0.09375 -0.09375 0.234375 -0.09375l2.375 0q0.140625 0 0.234375 0.09375q0.09375 0.09375 0.09375 0.234375q0 0.125 -0.09375 0.21875q-0.09375 0.078125 -0.234375 0.078125l-2.375 0zm5.8592834 4.34375q-0.546875 0 -1.09375 -0.1875q-0.546875 -0.1875 -0.875 -0.5625q-0.109375 -0.109375 -0.09375 -0.25q0.03125 -0.140625 0.140625 -0.234375q0.140625 -0.09375 0.28125 -0.078125q0.140625 0.015625 0.234375 0.125q0.21875 0.25 0.578125 0.390625q0.375 0.140625 0.828125 0.140625q0.6875 0 0.984375 -0.234375q0.3125 -0.234375 0.328125 -0.578125q0 -0.328125 -0.328125 -0.546875q-0.3125 -0.21875 -1.03125 -0.34375q-0.953125 -0.15625 -1.390625 -0.515625q-0.4375 -0.375 -0.4375 -0.890625q0 -0.484375 0.25 -0.796875q0.265625 -0.3125 0.671875 -0.46875q0.421875 -0.171875 0.9375 -0.171875q0.625 0 1.0625 0.21875q0.453125 0.21875 0.734375 0.578125q0.09375 0.125 0.078125 0.265625q-0.015625 0.125 -0.140625 0.203125q-0.125 0.0625 -0.265625 0.046875q-0.140625 -0.03125 -0.25 -0.140625q-0.234375 -0.265625 -0.546875 -0.390625q-0.296875 -0.125 -0.703125 -0.125q-0.5 0 -0.8125 0.21875q-0.3125 0.203125 -0.3125 0.515625q0 0.21875 0.109375 0.375q0.125 0.15625 0.40625 0.28125q0.28125 0.109375 0.796875 0.203125q0.703125 0.109375 1.109375 0.328125q0.40625 0.21875 0.578125 0.515625q0.171875 0.296875 0.171875 0.640625q0 0.4375 -0.265625 0.765625q-0.25 0.328125 -0.703125 0.515625q-0.453125 0.1875 -1.03125 0.1875zm3.1528625 1.46875q-0.09375 0 -0.140625 -0.0625q-0.046875 -0.046875 -0.046875 -0.125q0 -0.140625 0.078125 -0.265625q0.09375 -0.109375 0.171875 -0.25q0.09375 -0.125 0.09375 -0.3125q0 -0.171875 -0.0625 -0.28125q-0.0625 -0.109375 -0.15625 -0.203125q-0.09375 -0.078125 -0.15625 -0.1875q-0.0625 -0.109375 -0.0625 -0.265625q0 -0.234375 0.15625 -0.375q0.15625 -0.140625 0.375 -0.140625q0.28125 0 0.453125 0.21875q0.1875 0.21875 0.1875 0.609375q0 0.265625 -0.078125 0.546875q-0.0625 0.296875 -0.203125 0.546875q-0.125 0.25 -0.28125 0.390625q-0.15625 0.15625 -0.328125 0.15625zm5.2944183 0.671875q-0.171875 0 -0.265625 -0.109375q-0.09375 -0.09375 -0.09375 -0.265625l0 -4.390625q0 -0.734375 0.34375 -1.3125q0.34375 -0.59375 0.921875 -0.921875q0.59375 -0.34375 1.3125 -0.34375q0.75 0 1.328125 0.34375q0.59375 0.34375 0.9375 0.9375q0.34375 0.578125 0.34375 1.328125q0 0.734375 -0.34375 1.328125q-0.328125 0.578125 -0.90625 0.921875q-0.5625 0.34375 -1.28125 0.34375q-0.625 0 -1.140625 -0.265625q-0.5 -0.265625 -0.796875 -0.703125l0 2.734375q0 0.171875 -0.109375 0.265625q-0.09375 0.109375 -0.25 0.109375zm2.21875 -2.796875q0.546875 0 0.96875 -0.25q0.4375 -0.25 0.671875 -0.6875q0.25 -0.453125 0.25 -1.0q0 -0.5625 -0.25 -1.0q-0.234375 -0.4375 -0.671875 -0.6875q-0.421875 -0.265625 -0.96875 -0.265625q-0.53125 0 -0.96875 0.265625q-0.421875 0.25 -0.671875 0.6875q-0.234375 0.4375 -0.234375 1.0q0 0.546875 0.234375 1.0q0.25 0.4375 0.671875 0.6875q0.4375 0.25 0.96875 0.25zm4.313736 -2.53125q0.03125 -0.578125 0.296875 -1.03125q0.28125 -0.46875 0.71875 -0.71875q0.453125 -0.265625 0.984375 -0.265625q0.4375 0 0.671875 0.125q0.234375 0.109375 0.171875 0.34375q-0.03125 0.140625 -0.125 0.1875q-0.09375 0.046875 -0.21875 0.046875q-0.125 -0.015625 -0.28125 -0.03125q-0.53125 -0.046875 -0.9375 0.109375q-0.390625 0.15625 -0.640625 0.484375q-0.234375 0.3125 -0.234375 0.75l-0.40625 0zm0.046875 3.140625q-0.15625 0 -0.25 -0.09375q-0.09375 -0.09375 -0.09375 -0.265625l0 -4.390625q0 -0.171875 0.09375 -0.265625q0.09375 -0.09375 0.25 -0.09375q0.171875 0 0.265625 0.09375q0.09375 0.09375 0.09375 0.265625l0 4.390625q0 0.171875 -0.09375 0.265625q-0.09375 0.09375 -0.265625 0.09375zm5.867691 0.046875q-0.734375 0 -1.328125 -0.328125q-0.59375 -0.34375 -0.9375 -0.921875q-0.328125 -0.59375 -0.328125 -1.34375q0 -0.75 0.328125 -1.34375q0.34375 -0.59375 0.9375 -0.921875q0.59375 -0.34375 1.328125 -0.34375q0.75 0 1.328125 0.34375q0.59375 0.328125 0.921875 0.921875q0.34375 0.59375 0.34375 1.34375q0 0.75 -0.34375 1.34375q-0.328125 0.578125 -0.921875 0.921875q-0.578125 0.328125 -1.328125 0.328125zm0 -0.65625q0.546875 0 0.96875 -0.25q0.4375 -0.25 0.671875 -0.6875q0.25 -0.4375 0.25 -1.0q0 -0.5625 -0.25 -1.0q-0.234375 -0.453125 -0.671875 -0.703125q-0.421875 -0.25 -0.96875 -0.25q-0.53125 0 -0.96875 0.25q-0.421875 0.25 -0.671875 0.703125q-0.25 0.4375 -0.25 1.0q0 0.5625 0.25 1.0q0.25 0.4375 0.671875 0.6875q0.4375 0.25 0.96875 0.25zm6.268265 0.65625q-0.734375 0 -1.3125 -0.34375q-0.5625 -0.34375 -0.90625 -0.921875q-0.328125 -0.59375 -0.328125 -1.328125q0 -0.75 0.3125 -1.328125q0.328125 -0.59375 0.875 -0.9375q0.546875 -0.34375 1.265625 -0.34375q0.578125 0 1.046875 0.234375q0.484375 0.21875 0.859375 0.671875q0.09375 0.109375 0.0625 0.234375q-0.015625 0.125 -0.15625 0.21875q-0.09375 0.078125 -0.21875 0.0625q-0.125 -0.03125 -0.21875 -0.140625q-0.546875 -0.625 -1.375 -0.625q-0.515625 0 -0.921875 0.25q-0.390625 0.25 -0.609375 0.703125q-0.21875 0.4375 -0.21875 1.0q0 0.5625 0.234375 1.0q0.234375 0.4375 0.65625 0.6875q0.421875 0.25 0.953125 0.25q0.375 0 0.671875 -0.09375q0.296875 -0.09375 0.53125 -0.296875q0.125 -0.09375 0.234375 -0.109375q0.125 -0.015625 0.234375 0.078125q0.109375 0.09375 0.125 0.234375q0.015625 0.125 -0.09375 0.21875q-0.6875 0.625 -1.703125 0.625zm5.6064453 0q-0.765625 0 -1.34375 -0.328125q-0.578125 -0.328125 -0.921875 -0.921875q-0.328125 -0.59375 -0.328125 -1.34375q0 -0.765625 0.3125 -1.34375q0.3125 -0.59375 0.859375 -0.921875q0.5625 -0.34375 1.28125 -0.34375q0.703125 0 1.234375 0.328125q0.53125 0.328125 0.8125 0.890625q0.296875 0.5625 0.296875 1.296875q0 0.15625 -0.09375 0.25q-0.09375 0.078125 -0.25 0.078125l-3.96875 0l0 -0.59375l4.046875 0l-0.40625 0.28125q0.015625 -0.53125 -0.1875 -0.953125q-0.203125 -0.4375 -0.59375 -0.671875q-0.375 -0.25 -0.890625 -0.25q-0.53125 0 -0.9375 0.25q-0.40625 0.25 -0.625 0.703125q-0.21875 0.4375 -0.21875 1.0q0 0.5625 0.25 1.015625q0.25 0.4375 0.671875 0.6875q0.4375 0.25 1.0 0.25q0.328125 0 0.671875 -0.109375q0.34375 -0.125 0.546875 -0.296875q0.109375 -0.09375 0.234375 -0.09375q0.125 0 0.21875 0.0625q0.125 0.109375 0.125 0.25q0.015625 0.125 -0.109375 0.21875q-0.296875 0.265625 -0.78125 0.4375q-0.46875 0.171875 -0.90625 0.171875zm5.196213 0q-0.546875 0 -1.09375 -0.1875q-0.546875 -0.1875 -0.875 -0.5625q-0.109375 -0.109375 -0.09375 -0.25q0.03125 -0.140625 0.140625 -0.234375q0.140625 -0.09375 0.28125 -0.078125q0.140625 0.015625 0.234375 0.125q0.21875 0.25 0.578125 0.390625q0.375 0.140625 0.828125 0.140625q0.6875 0 0.984375 -0.234375q0.3125 -0.234375 0.328125 -0.578125q0 -0.328125 -0.328125 -0.546875q-0.3125 -0.21875 -1.03125 -0.34375q-0.953125 -0.15625 -1.390625 -0.515625q-0.4375 -0.375 -0.4375 -0.890625q0 -0.484375 0.25 -0.796875q0.265625 -0.3125 0.671875 -0.46875q0.421875 -0.171875 0.9375 -0.171875q0.625 0 1.0625 0.21875q0.453125 0.21875 0.734375 0.578125q0.09375 0.125 0.078125 0.265625q-0.015625 0.125 -0.140625 0.203125q-0.125 0.0625 -0.265625 0.046875q-0.140625 -0.03125 -0.25 -0.140625q-0.234375 -0.265625 -0.546875 -0.390625q-0.296875 -0.125 -0.703125 -0.125q-0.5 0 -0.8125 0.21875q-0.3125 0.203125 -0.3125 0.515625q0 0.21875 0.109375 0.375q0.125 0.15625 0.40625 0.28125q0.28125 0.109375 0.796875 0.203125q0.703125 0.109375 1.109375 0.328125q0.40625 0.21875 0.578125 0.515625q0.171875 0.296875 0.171875 0.640625q0 0.4375 -0.265625 0.765625q-0.25 0.328125 -0.703125 0.515625q-0.453125 0.1875 -1.03125 0.1875zm5.0278625 0q-0.546875 0 -1.09375 -0.1875q-0.546875 -0.1875 -0.875 -0.5625q-0.109375 -0.109375 -0.09375 -0.25q0.03125 -0.140625 0.140625 -0.234375q0.140625 -0.09375 0.28125 -0.078125q0.140625 0.015625 0.234375 0.125q0.21875 0.25 0.578125 0.390625q0.375 0.140625 0.828125 0.140625q0.6875 0 0.984375 -0.234375q0.3125 -0.234375 0.328125 -0.578125q0 -0.328125 -0.328125 -0.546875q-0.3125 -0.21875 -1.03125 -0.34375q-0.953125 -0.15625 -1.390625 -0.515625q-0.4375 -0.375 -0.4375 -0.890625q0 -0.484375 0.25 -0.796875q0.265625 -0.3125 0.671875 -0.46875q0.421875 -0.171875 0.9375 -0.171875q0.625 0 1.0625 0.21875q0.453125 0.21875 0.734375 0.578125q0.09375 0.125 0.078125 0.265625q-0.015625 0.125 -0.140625 0.203125q-0.125 0.0625 -0.265625 0.046875q-0.140625 -0.03125 -0.25 -0.140625q-0.234375 -0.265625 -0.546875 -0.390625q-0.296875 -0.125 -0.703125 -0.125q-0.5 0 -0.8125 0.21875q-0.3125 0.203125 -0.3125 0.515625q0 0.21875 0.109375 0.375q0.125 0.15625 0.40625 0.28125q0.28125 0.109375 0.796875 0.203125q0.703125 0.109375 1.109375 0.328125q0.40625 0.21875 0.578125 0.515625q0.171875 0.296875 0.171875 0.640625q0 0.4375 -0.265625 0.765625q-0.25 0.328125 -0.703125 0.515625q-0.453125 0.1875 -1.03125 0.1875zm5.5591125 0q-0.765625 0 -1.34375 -0.328125q-0.578125 -0.328125 -0.921875 -0.921875q-0.328125 -0.59375 -0.328125 -1.34375q0 -0.765625 0.3125 -1.34375q0.3125 -0.59375 0.859375 -0.921875q0.5625 -0.34375 1.28125 -0.34375q0.703125 0 1.234375 0.328125q0.53125 0.328125 0.8125 0.890625q0.296875 0.5625 0.296875 1.296875q0 0.15625 -0.09375 0.25q-0.09375 0.078125 -0.25 0.078125l-3.96875 0l0 -0.59375l4.046875 0l-0.40625 0.28125q0.015625 -0.53125 -0.1875 -0.953125q-0.203125 -0.4375 -0.59375 -0.671875q-0.375 -0.25 -0.890625 -0.25q-0.53125 0 -0.9375 0.25q-0.40625 0.25 -0.625 0.703125q-0.21875 0.4375 -0.21875 1.0q0 0.5625 0.25 1.015625q0.25 0.4375 0.671875 0.6875q0.4375 0.25 1.0 0.25q0.328125 0 0.671875 -0.109375q0.34375 -0.125 0.546875 -0.296875q0.109375 -0.09375 0.234375 -0.09375q0.125 0 0.21875 0.0625q0.125 0.109375 0.125 0.25q0.015625 0.125 -0.109375 0.21875q-0.296875 0.265625 -0.78125 0.4375q-0.46875 0.171875 -0.90625 0.171875zm5.196213 0q-0.546875 0 -1.09375 -0.1875q-0.546875 -0.1875 -0.875 -0.5625q-0.109375 -0.109375 -0.09375 -0.25q0.03125 -0.140625 0.140625 -0.234375q0.140625 -0.09375 0.28125 -0.078125q0.140625 0.015625 0.234375 0.125q0.21875 0.25 0.578125 0.390625q0.375 0.140625 0.828125 0.140625q0.6875 0 0.984375 -0.234375q0.3125 -0.234375 0.328125 -0.578125q0 -0.328125 -0.328125 -0.546875q-0.3125 -0.21875 -1.03125 -0.34375q-0.953125 -0.15625 -1.390625 -0.515625q-0.4375 -0.375 -0.4375 -0.890625q0 -0.484375 0.25 -0.796875q0.265625 -0.3125 0.671875 -0.46875q0.421875 -0.171875 0.9375 -0.171875q0.625 0 1.0625 0.21875q0.453125 0.21875 0.734375 0.578125q0.09375 0.125 0.078125 0.265625q-0.015625 0.125 -0.140625 0.203125q-0.125 0.0625 -0.265625 0.046875q-0.140625 -0.03125 -0.25 -0.140625q-0.234375 -0.265625 -0.546875 -0.390625q-0.296875 -0.125 -0.703125 -0.125q-0.5 0 -0.8125 0.21875q-0.3125 0.203125 -0.3125 0.515625q0 0.21875 0.109375 0.375q0.125 0.15625 0.40625 0.28125q0.28125 0.109375 0.796875 0.203125q0.703125 0.109375 1.109375 0.328125q0.40625 0.21875 0.578125 0.515625q0.171875 0.296875 0.171875 0.640625q0 0.4375 -0.265625 0.765625q-0.25 0.328125 -0.703125 0.515625q-0.453125 0.1875 -1.03125 0.1875zm3.1528625 1.46875q-0.09375 0 -0.140625 -0.0625q-0.046875 -0.046875 -0.046875 -0.125q0 -0.140625 0.078125 -0.265625q0.09375 -0.109375 0.171875 -0.25q0.09375 -0.125 0.09375 -0.3125q0 -0.171875 -0.0625 -0.28125q-0.0625 -0.109375 -0.15625 -0.203125q-0.09375 -0.078125 -0.15625 -0.1875q-0.0625 -0.109375 -0.0625 -0.265625q0 -0.234375 0.15625 -0.375q0.15625 -0.140625 0.375 -0.140625q0.28125 0 0.453125 0.21875q0.1875 0.21875 0.1875 0.609375q0 0.265625 -0.078125 0.546875q-0.0625 0.296875 -0.203125 0.546875q-0.125 0.25 -0.28125 0.390625q-0.15625 0.15625 -0.328125 0.15625zm5.2944183 0.671875q-0.171875 0 -0.265625 -0.109375q-0.09375 -0.09375 -0.09375 -0.265625l0 -4.390625q0 -0.734375 0.34375 -1.3125q0.34375 -0.59375 0.921875 -0.921875q0.59375 -0.34375 1.3125 -0.34375q0.75 0 1.328125 0.34375q0.59375 0.34375 0.9375 0.9375q0.34375 0.578125 0.34375 1.328125q0 0.734375 -0.34375 1.328125q-0.328125 0.578125 -0.90625 0.921875q-0.5625 0.34375 -1.28125 0.34375q-0.625 0 -1.140625 -0.265625q-0.5 -0.265625 -0.796875 -0.703125l0 2.734375q0 0.171875 -0.109375 0.265625q-0.09375 0.109375 -0.25 0.109375zm2.21875 -2.796875q0.546875 0 0.96875 -0.25q0.4375 -0.25 0.671875 -0.6875q0.25 -0.453125 0.25 -1.0q0 -0.5625 -0.25 -1.0q-0.234375 -0.4375 -0.671875 -0.6875q-0.421875 -0.265625 -0.96875 -0.265625q-0.53125 0 -0.96875 0.265625q-0.421875 0.25 -0.671875 0.6875q-0.234375 0.4375 -0.234375 1.0q0 0.546875 0.234375 1.0q0.25 0.4375 0.671875 0.6875q0.4375 0.25 0.96875 0.25zm6.329361 0.65625q-0.765625 0 -1.34375 -0.328125q-0.578125 -0.328125 -0.921875 -0.921875q-0.328125 -0.59375 -0.328125 -1.34375q0 -0.765625 0.3125 -1.34375q0.3125 -0.59375 0.859375 -0.921875q0.5625 -0.34375 1.28125 -0.34375q0.703125 0 1.234375 0.328125q0.53125 0.328125 0.8125 0.890625q0.296875 0.5625 0.296875 1.296875q0 0.15625 -0.09375 0.25q-0.09375 0.078125 -0.25 0.078125l-3.96875 0l0 -0.59375l4.046875 0l-0.40625 0.28125q0.015625 -0.53125 -0.1875 -0.953125q-0.203125 -0.4375 -0.59375 -0.671875q-0.375 -0.25 -0.890625 -0.25q-0.53125 0 -0.9375 0.25q-0.40625 0.25 -0.625 0.703125q-0.21875 0.4375 -0.21875 1.0q0 0.5625 0.25 1.015625q0.25 0.4375 0.671875 0.6875q0.4375 0.25 1.0 0.25q0.328125 0 0.671875 -0.109375q0.34375 -0.125 0.546875 -0.296875q0.109375 -0.09375 0.234375 -0.09375q0.125 0 0.21875 0.0625q0.125 0.109375 0.125 0.25q0.015625 0.125 -0.109375 0.21875q-0.296875 0.265625 -0.78125 0.4375q-0.46875 0.171875 -0.90625 0.171875zm5.540802 0q-0.734375 0 -1.328125 -0.328125q-0.59375 -0.34375 -0.9375 -0.921875q-0.328125 -0.59375 -0.328125 -1.34375q0 -0.75 0.328125 -1.34375q0.34375 -0.59375 0.9375 -0.921875q0.59375 -0.34375 1.328125 -0.34375q0.75 0 1.328125 0.34375q0.59375 0.328125 0.921875 0.921875q0.34375 0.59375 0.34375 1.34375q0 0.75 -0.34375 1.34375q-0.328125 0.578125 -0.921875 0.921875q-0.578125 0.328125 -1.328125 0.328125zm0 -0.65625q0.546875 0 0.96875 -0.25q0.4375 -0.25 0.671875 -0.6875q0.25 -0.4375 0.25 -1.0q0 -0.5625 -0.25 -1.0q-0.234375 -0.453125 -0.671875 -0.703125q-0.421875 -0.25 -0.96875 -0.25q-0.53125 0 -0.96875 0.25q-0.421875 0.25 -0.671875 0.703125q-0.25 0.4375 -0.25 1.0q0 0.5625 0.25 1.0q0.25 0.4375 0.671875 0.6875q0.4375 0.25 0.96875 0.25zm4.362015 2.796875q-0.171875 0 -0.265625 -0.109375q-0.09375 -0.09375 -0.09375 -0.265625l0 -4.390625q0 -0.734375 0.34375 -1.3125q0.34375 -0.59375 0.921875 -0.921875q0.59375 -0.34375 1.3125 -0.34375q0.75 0 1.328125 0.34375q0.59375 0.34375 0.9375 0.9375q0.34375 0.578125 0.34375 1.328125q0 0.734375 -0.34375 1.328125q-0.328125 0.578125 -0.90625 0.921875q-0.5625 0.34375 -1.28125 0.34375q-0.625 0 -1.140625 -0.265625q-0.5 -0.265625 -0.796875 -0.703125l0 2.734375q0 0.171875 -0.109375 0.265625q-0.09375 0.109375 -0.25 0.109375zm2.21875 -2.796875q0.546875 0 0.96875 -0.25q0.4375 -0.25 0.671875 -0.6875q0.25 -0.453125 0.25 -1.0q0 -0.5625 -0.25 -1.0q-0.234375 -0.4375 -0.671875 -0.6875q-0.421875 -0.265625 -0.96875 -0.265625q-0.53125 0 -0.96875 0.265625q-0.421875 0.25 -0.671875 0.6875q-0.234375 0.4375 -0.234375 1.0q0 0.546875 0.234375 1.0q0.25 0.4375 0.671875 0.6875q0.4375 0.25 0.96875 0.25zm5.110611 0.609375q-0.375 0 -0.671875 -0.203125q-0.28125 -0.203125 -0.453125 -0.5625q-0.15625 -0.375 -0.15625 -0.84375l0 -5.328125q0 -0.15625 0.09375 -0.25q0.09375 -0.09375 0.25 -0.09375q0.171875 0 0.265625 0.09375q0.09375 0.09375 0.09375 0.25l0 5.328125q0 0.390625 0.15625 0.65625q0.171875 0.25 0.421875 0.25l0.234375 0q0.140625 0 0.21875 0.09375q0.09375 0.09375 0.09375 0.25q0 0.15625 -0.125 0.265625q-0.109375 0.09375 -0.296875 0.09375l-0.125 0zm3.5692902 0.046875q-0.765625 0 -1.34375 -0.328125q-0.578125 -0.328125 -0.921875 -0.921875q-0.328125 -0.59375 -0.328125 -1.34375q0 -0.765625 0.3125 -1.34375q0.3125 -0.59375 0.859375 -0.921875q0.5625 -0.34375 1.28125 -0.34375q0.703125 0 1.234375 0.328125q0.53125 0.328125 0.8125 0.890625q0.296875 0.5625 0.296875 1.296875q0 0.15625 -0.09375 0.25q-0.09375 0.078125 -0.25 0.078125l-3.96875 0l0 -0.59375l4.046875 0l-0.40625 0.28125q0.015625 -0.53125 -0.1875 -0.953125q-0.203125 -0.4375 -0.59375 -0.671875q-0.375 -0.25 -0.890625 -0.25q-0.53125 0 -0.9375 0.25q-0.40625 0.25 -0.625 0.703125q-0.21875 0.4375 -0.21875 1.0q0 0.5625 0.25 1.015625q0.25 0.4375 0.671875 0.6875q0.4375 0.25 1.0 0.25q0.328125 0 0.671875 -0.109375q0.34375 -0.125 0.546875 -0.296875q0.109375 -0.09375 0.234375 -0.09375q0.125 0 0.21875 0.0625q0.125 0.109375 0.125 0.25q0.015625 0.125 -0.109375 0.21875q-0.296875 0.265625 -0.78125 0.4375q-0.46875 0.171875 -0.90625 0.171875z" fill-rule="nonzero"/></g></svg>