<svg version="1.1" viewBox="0.0 0.0 576.0 576.0" fill="none" stroke="none" stroke-linecap="square" stroke-miterlimit="10" xmlns:xlink="http://www.w3.org/1999/xlink" xmlns="http://www.w3.org/2000/svg"><clipPath id="gad8e689a68_0_0.0"><path d="m0 0l576.0 0l0 576.0l-576.0 0l0 -576.0z" clip-rule="nonzero"/></clipPath><g clip-path="url(#gad8e689a68_0_0.0)"><path fill="#ffffff" d="m0 0l576.0 0l0 576.0l-576.0 0z" fill-rule="evenodd"/><path fill="#000000" fill-opacity="0.0" d="m477.31268 208.26772l-387.84253 -0.5354309" fill-rule="evenodd"/><path stroke="#cccccc" stroke-width="4.0" stroke-linejoin="round" stroke-linecap="butt" d="m477.31268 208.26772l-387.84253 -0.5354309" fill-rule="evenodd"/><path fill="#000000" fill-opacity="0.0" d="m477.31268 245.60104l-387.84253 -0.5354309" fill-rule="evenodd"/><path stroke="#efefef" stroke-width="4.0" stroke-linejoin="round" stroke-linecap="butt" d="m477.31268 245.60104l-387.84253 -0.5354309" fill-rule="evenodd"/><path fill="#000000" fill-opacity="0.0" d="m477.31268 282.9344l-387.84253 -0.5354309" fill-rule="evenodd"/><path stroke="#f9cb9c" stroke-width="4.0" stroke-linejoin="round" stroke-linecap="butt" d="m477.31268 282.9344l-387.84253 -0.5354309" fill-rule="evenodd"/><path fill="#000000" fill-opacity="0.0" d="m477.31268 320.26773l-387.84253 -0.5354614" fill-rule="evenodd"/><path stroke="#e69138" stroke-width="4.0" stroke-linejoin="round" stroke-linecap="butt" d="m477.31268 320.26773l-387.84253 -0.5354614" fill-rule="evenodd"/><path fill="#3c78d8" d="m210.33595 208.0l0 0c0 -2.9049377 2.4677277 -5.259842 5.5118103 -5.259842l0 0c1.4618225 0 2.8637848 0.55415344 3.8974457 1.5405731c1.0336609 0.9864044 1.6143646 2.3242645 1.6143646 3.7192688l0 0c0 2.9049377 -2.4677124 5.259842 -5.5118103 5.259842l0 0c-3.0440826 0 -5.5118103 -2.3549042 -5.5118103 -5.259842z" fill-rule="evenodd"/><path fill="#3c78d8" d="m272.8517 208.0l0 0c0 -2.9049377 2.4677124 -5.259842 5.5118103 -5.259842l0 0c1.4618225 0 2.8637695 0.55415344 3.8974304 1.5405731c1.0336609 0.9864044 1.6143799 2.3242645 1.6143799 3.7192688l0 0c0 2.9049377 -2.467743 5.259842 -5.5118103 5.259842l0 0c-3.044098 0 -5.5118103 -2.3549042 -5.5118103 -5.259842z" fill-rule="evenodd"/><path fill="#3c78d8" d="m241.59383 208.0l0 0c0 -2.9049377 2.4677277 -5.259842 5.5118103 -5.259842l0 0c1.4618225 0 2.8637848 0.55415344 3.8974457 1.5405731c1.0336609 0.9864044 1.6143646 2.3242645 1.6143646 3.7192688l0 0c0 2.9049377 -2.4677124 5.259842 -5.5118103 5.259842l0 0c-3.0440826 0 -5.5118103 -2.3549042 -5.5118103 -5.259842z" fill-rule="evenodd"/><path fill="#3c78d8" d="m304.1096 208.0l0 0c0 -2.9049377 2.4677124 -5.259842 5.5118103 -5.259842l0 0c1.4618225 0 2.8637695 0.55415344 3.8974304 1.5405731c1.0336609 0.9864044 1.6143799 2.3242645 1.6143799 3.7192688l0 0c0 2.9049377 -2.467743 5.259842 -5.5118103 5.259842l0 0c-3.044098 0 -5.5118103 -2.3549042 -5.5118103 -5.259842z" fill-rule="evenodd"/><path fill="#c9daf8" d="m272.85303 320.0l0 0c0 -2.9049377 2.4677124 -5.259857 5.5118103 -5.259857l0 0c1.4618225 0 2.8637695 0.5541687 3.8974304 1.5405884c1.0336609 0.9864197 1.6143799 2.3242798 1.6143799 3.7192688l0 0c0 2.9049377 -2.467743 5.259857 -5.5118103 5.259857l0 0c-3.044098 0 -5.5118103 -2.3549194 -5.5118103 -5.259857z" fill-rule="evenodd"/><path fill="#3c78d8" d="m335.36746 208.0l0 0c0 -2.9049377 2.4677124 -5.259842 5.5118103 -5.259842l0 0c1.4618225 0 2.8637695 0.55415344 3.8974304 1.5405731c1.0336609 0.9864044 1.6143799 2.3242645 1.6143799 3.7192688l0 0c0 2.9049377 -2.467743 5.259842 -5.5118103 5.259842l0 0c-3.044098 0 -5.5118103 -2.3549042 -5.5118103 -5.259842z" fill-rule="evenodd"/><path fill="#3c78d8" d="m272.85303 245.33333l0 0c0 -2.9049225 2.4677124 -5.259842 5.5118103 -5.259842l0 0c1.4618225 0 2.8637695 0.5541687 3.8974304 1.5405731c1.0336609 0.9864197 1.6143799 2.3242798 1.6143799 3.7192688l0 0c0 2.9049377 -2.467743 5.259842 -5.5118103 5.259842l0 0c-3.044098 0 -5.5118103 -2.3549042 -5.5118103 -5.259842z" fill-rule="evenodd"/><path fill="#3c78d8" d="m241.59514 245.33333l0 0c0 -2.9049225 2.4677277 -5.259842 5.5118103 -5.259842l0 0c1.4618225 0 2.8637848 0.5541687 3.8974457 1.5405731c1.0336609 0.9864197 1.6143646 2.3242798 1.6143646 3.7192688l0 0c0 2.9049377 -2.4677124 5.259842 -5.5118103 5.259842l0 0c-3.0440826 0 -5.5118103 -2.3549042 -5.5118103 -5.259842z" fill-rule="evenodd"/><path fill="#3c78d8" d="m304.1109 245.33333l0 0c0 -2.9049225 2.4677124 -5.259842 5.5118103 -5.259842l0 0c1.4618225 0 2.8637695 0.5541687 3.8974304 1.5405731c1.0336609 0.9864197 1.6143799 2.3242798 1.6143799 3.7192688l0 0c0 2.9049377 -2.467743 5.259842 -5.5118103 5.259842l0 0c-3.044098 0 -5.5118103 -2.3549042 -5.5118103 -5.259842z" fill-rule="evenodd"/><path fill="#c9daf8" d="m273.37857 282.66666l0 0c0 -2.9049072 2.4677124 -5.2598267 5.5118103 -5.2598267l0 0c1.4618225 0 2.8637695 0.5541687 3.8974304 1.5405579c1.0336609 0.9864197 1.6143799 2.3242798 1.6143799 3.7192688l0 0c0 2.9049377 -2.4677124 5.259857 -5.5118103 5.259857l0 0c-3.044098 0 -5.5118103 -2.3549194 -5.5118103 -5.259857z" fill-rule="evenodd"/><path fill="#c9daf8" d="m242.1207 282.66666l0 0c0 -2.9049072 2.4677124 -5.2598267 5.5118103 -5.2598267l0 0c1.4618225 0 2.8637695 0.5541687 3.8974304 1.5405579c1.0336761 0.9864197 1.6143799 2.3242798 1.6143799 3.7192688l0 0c0 2.9049377 -2.4677277 5.259857 -5.5118103 5.259857l0 0c-3.044098 0 -5.5118103 -2.3549194 -5.5118103 -5.259857z" fill-rule="evenodd"/><path fill="#c9daf8" d="m304.63644 282.66666l0 0c0 -2.9049072 2.4677124 -5.2598267 5.5118103 -5.2598267l0 0c1.4618225 0 2.8637695 0.5541687 3.8974304 1.5405579c1.0336609 0.9864197 1.6143799 2.3242798 1.6143799 3.7192688l0 0c0 2.9049377 -2.4677124 5.259857 -5.5118103 5.259857l0 0c-3.044098 0 -5.5118103 -2.3549194 -5.5118103 -5.259857z" fill-rule="evenodd"/></g></svg>