<svg version="1.1" viewBox="0.0 0.0 576.0 576.0" fill="none" stroke="none" stroke-linecap="square" stroke-miterlimit="10" xmlns:xlink="http://www.w3.org/1999/xlink" xmlns="http://www.w3.org/2000/svg"><clipPath id="p.0"><path d="m0 0l576.0 0l0 576.0l-576.0 0l0 -576.0z" clip-rule="nonzero"/></clipPath><g clip-path="url(#p.0)"><path fill="#ffffff" d="m0 0l576.0 0l0 576.0l-576.0 0z" fill-rule="evenodd"/><path fill="#6aa84f" d="m31.307087 191.74803l125.22835 0l0 384.25195l-125.22835 0z" fill-rule="evenodd"/><path fill="#e06666" d="m225.73885 191.74803l125.22835 0l0 384.25195l-125.22835 0z" fill-rule="evenodd"/><path fill="#6d9eeb" d="m420.17322 191.74803l125.22833 0l0 384.25195l-125.22833 0z" fill-rule="evenodd"/><path fill="#000000" fill-opacity="0.0" d="m31.304462 154.08661l122.86615 0l0 52.598434l-122.86615 0z" fill-rule="evenodd"/><path fill="#000000" d="m49.55619 178.60286q-1.296875 0 -2.4375 -0.484375q-1.125 -0.5 -1.984375 -1.390625q-0.84375 -0.890625 -1.328125 -2.046875q-0.484375 -1.15625 -0.484375 -2.484375q0 -1.3125 0.46875 -2.46875q0.484375 -1.171875 1.328125 -2.046875q0.859375 -0.875 1.984375 -1.375q1.140625 -0.515625 2.453125 -0.515625q1.15625 0 2.09375 0.34375q0.9375 0.328125 1.828125 1.0625q0.140625 0.109375 0.15625 0.265625q0.03125 0.15625 -0.03125 0.296875q-0.0625 0.125 -0.1875 0.1875q-0.03125 0.125 -0.171875 0.203125q-0.125 0.0625 -0.296875 0.046875q-0.15625 -0.015625 -0.328125 -0.15625q-0.625 -0.53125 -1.359375 -0.796875q-0.734375 -0.265625 -1.703125 -0.265625q-1.046875 0 -1.953125 0.421875q-0.890625 0.40625 -1.59375 1.125q-0.6875 0.71875 -1.078125 1.671875q-0.390625 0.9375 -0.390625 2.0q0 1.078125 0.390625 2.03125q0.390625 0.9375 1.078125 1.65625q0.703125 0.71875 1.59375 1.125q0.90625 0.40625 1.953125 0.40625q0.875 0 1.65625 -0.28125q0.78125 -0.28125 1.5 -0.828125q0.1875 -0.15625 0.390625 -0.125q0.21875 0.03125 0.375 0.1875q0.171875 0.15625 0.171875 0.421875q0 0.125 -0.03125 0.234375q-0.03125 0.09375 -0.140625 0.203125q-0.828125 0.75 -1.84375 1.0625q-1.0 0.3125 -2.078125 0.3125zm4.09375 -1.8125l-1.21875 -0.265625l0 -3.21875l-2.5 0q-0.265625 0 -0.453125 -0.15625q-0.171875 -0.15625 -0.171875 -0.40625q0 -0.234375 0.171875 -0.375q0.1875 -0.15625 0.453125 -0.15625l3.09375 0q0.265625 0 0.4375 0.171875q0.1875 0.15625 0.1875 0.4375l0 3.96875zm5.8054047 1.734375q-1.28125 0 -2.296875 -0.578125q-1.0 -0.578125 -1.578125 -1.578125q-0.578125 -1.015625 -0.578125 -2.296875q0 -1.28125 0.578125 -2.296875q0.578125 -1.015625 1.578125 -1.578125q1.015625 -0.578125 2.296875 -0.578125q1.28125 0 2.28125 0.578125q1.0 0.5625 1.578125 1.578125q0.578125 1.015625 0.59375 2.296875q0 1.28125 -0.59375 2.296875q-0.578125 1.0 -1.578125 1.578125q-1.0 0.578125 -2.28125 0.578125zm0 -1.125q0.9375 0 1.671875 -0.421875q0.734375 -0.4375 1.140625 -1.1875q0.421875 -0.75 0.421875 -1.71875q0 -0.953125 -0.421875 -1.703125q-0.40625 -0.765625 -1.140625 -1.203125q-0.734375 -0.4375 -1.671875 -0.4375q-0.921875 0 -1.65625 0.4375q-0.734375 0.4375 -1.171875 1.203125q-0.421875 0.75 -0.421875 1.703125q0 0.96875 0.421875 1.71875q0.4375 0.75 1.171875 1.1875q0.734375 0.421875 1.65625 0.421875zm9.367645 1.046875q-0.390625 0 -0.578125 -0.421875l-3.5625 -7.53125q-0.09375 -0.203125 -0.015625 -0.40625q0.09375 -0.21875 0.328125 -0.328125q0.21875 -0.109375 0.421875 -0.03125q0.21875 0.078125 0.328125 0.28125l3.40625 7.375l-0.65625 0l3.359375 -7.375q0.09375 -0.21875 0.328125 -0.28125q0.234375 -0.078125 0.453125 0.015625q0.234375 0.109375 0.3125 0.328125q0.078125 0.21875 -0.015625 0.40625l-3.5 7.546875q-0.203125 0.421875 -0.609375 0.421875zm9.496765 0.078125q-1.296875 0 -2.296875 -0.5625q-1.0 -0.578125 -1.578125 -1.578125q-0.5625 -1.015625 -0.5625 -2.3125q0 -1.3125 0.53125 -2.3125q0.546875 -1.0 1.484375 -1.5625q0.953125 -0.578125 2.1875 -0.578125q1.21875 0 2.109375 0.546875q0.90625 0.546875 1.40625 1.53125q0.5 0.96875 0.5 2.21875q0 0.265625 -0.171875 0.421875q-0.15625 0.140625 -0.40625 0.140625l-6.796875 0l0 -1.015625l6.921875 0l-0.6875 0.484375q0.015625 -0.921875 -0.34375 -1.65625q-0.34375 -0.734375 -1.0 -1.15625q-0.640625 -0.421875 -1.53125 -0.421875q-0.921875 0 -1.609375 0.4375q-0.6875 0.4375 -1.0625 1.203125q-0.375 0.75 -0.375 1.71875q0 0.984375 0.421875 1.734375q0.421875 0.75 1.15625 1.1875q0.75 0.421875 1.703125 0.421875q0.578125 0 1.15625 -0.1875q0.59375 -0.203125 0.9375 -0.515625q0.1875 -0.140625 0.40625 -0.140625q0.21875 -0.015625 0.375 0.109375q0.21875 0.203125 0.21875 0.421875q0.015625 0.21875 -0.1875 0.390625q-0.515625 0.4375 -1.34375 0.734375q-0.8125 0.296875 -1.5625 0.296875zm6.3708954 -5.46875q0.046875 -1.0 0.515625 -1.78125q0.46875 -0.78125 1.234375 -1.21875q0.765625 -0.453125 1.6875 -0.453125q0.734375 0 1.125 0.203125q0.40625 0.203125 0.3125 0.609375q-0.0625 0.234375 -0.21875 0.328125q-0.140625 0.078125 -0.359375 0.0625q-0.21875 -0.015625 -0.484375 -0.046875q-0.90625 -0.078125 -1.609375 0.1875q-0.6875 0.265625 -1.09375 0.8125q-0.40625 0.546875 -0.40625 1.296875l-0.703125 0zm0.09375 5.390625q-0.28125 0 -0.453125 -0.15625q-0.15625 -0.15625 -0.15625 -0.453125l0 -7.53125q0 -0.296875 0.15625 -0.453125q0.171875 -0.15625 0.453125 -0.15625q0.296875 0 0.453125 0.15625q0.15625 0.15625 0.15625 0.453125l0 7.53125q0 0.296875 -0.15625 0.453125q-0.15625 0.15625 -0.453125 0.15625zm14.218636 0q-0.265625 0 -0.453125 -0.171875q-0.171875 -0.1875 -0.171875 -0.4375l0 -4.15625q0 -1.0 -0.375 -1.640625q-0.375 -0.640625 -1.03125 -0.953125q-0.640625 -0.328125 -1.453125 -0.328125q-0.7812424 0 -1.4218674 0.3125q-0.625 0.296875 -1.0 0.828125q-0.359375 0.53125 -0.359375 1.203125l-0.875 0q0.03125 -1.015625 0.53125 -1.796875q0.515625 -0.796875 1.359375 -1.25q0.859375 -0.453125 1.8906174 -0.453125q1.140625 0 2.03125 0.46875q0.90625 0.46875 1.421875 1.390625q0.515625 0.90625 0.515625 2.21875l0 4.15625q0 0.25 -0.171875 0.4375q-0.171875 0.171875 -0.4375 0.171875zm-6.8749924 0q-0.28125 0 -0.453125 -0.171875q-0.171875 -0.171875 -0.171875 -0.4375l0 -7.515625q0 -0.296875 0.171875 -0.453125q0.171875 -0.171875 0.453125 -0.171875q0.28125 0 0.4375 0.171875q0.171875 0.15625 0.171875 0.453125l0 7.515625q0 0.265625 -0.171875 0.4375q-0.15625 0.171875 -0.4375 0.171875zm22.035133 0q-0.28125 0 -0.453125 -0.171875q-0.171875 -0.171875 -0.171875 -0.4375l0 -4.609375q0 -1.140625 -0.59375 -1.796875q-0.59375 -0.671875 -1.515625 -0.671875q-1.0 0 -1.640625 0.671875q-0.625 0.65625 -0.609375 1.765625l-1.09375 0q0.015625 -1.0625 0.453125 -1.875q0.453125 -0.828125 1.234375 -1.265625q0.78125 -0.453125 1.78125 -0.453125q0.9375 0 1.671875 0.453125q0.734375 0.4375 1.140625 1.265625q0.40625 0.8125 0.40625 1.90625l0 4.609375q0 0.265625 -0.171875 0.4375q-0.171875 0.171875 -0.4375 0.171875zm-11.203125 0q-0.28125 0 -0.453125 -0.171875q-0.171875 -0.171875 -0.171875 -0.4375l0 -7.515625q0 -0.28125 0.171875 -0.453125q0.171875 -0.171875 0.453125 -0.171875q0.28125 0 0.4375 0.171875q0.171875 0.171875 0.171875 0.453125l0 7.515625q0 0.265625 -0.171875 0.4375q-0.15625 0.171875 -0.4375 0.171875zm5.625 0q-0.28125 0 -0.453125 -0.171875q-0.171875 -0.171875 -0.171875 -0.4375l0 -4.609375q0 -1.140625 -0.59375 -1.796875q-0.59375 -0.671875 -1.53125 -0.671875q-0.984375 0 -1.625 0.65625q-0.640625 0.640625 -0.640625 1.6875l-0.875 0q0.03125 -1.03125 0.453125 -1.8125q0.421875 -0.796875 1.15625 -1.234375q0.734375 -0.453125 1.671875 -0.453125q0.9375 0 1.65625 0.453125q0.734375 0.4375 1.140625 1.265625q0.40625 0.8125 0.40625 1.90625l0 4.609375q0 0.265625 -0.171875 0.4375q-0.15625 0.171875 -0.421875 0.171875zm12.870773 0.078125q-1.296875 0 -2.296875 -0.5625q-1.0 -0.578125 -1.578125 -1.578125q-0.5625 -1.015625 -0.5625 -2.3125q0 -1.3125 0.53125 -2.3125q0.546875 -1.0 1.484375 -1.5625q0.953125 -0.578125 2.1875 -0.578125q1.21875 0 2.109375 0.546875q0.90625 0.546875 1.40625 1.53125q0.5 0.96875 0.5 2.21875q0 0.265625 -0.171875 0.421875q-0.15625 0.140625 -0.40625 0.140625l-6.796875 0l0 -1.015625l6.921875 0l-0.6875 0.484375q0.015625 -0.921875 -0.34375 -1.65625q-0.34375 -0.734375 -1.0 -1.15625q-0.640625 -0.421875 -1.53125 -0.421875q-0.921875 0 -1.609375 0.4375q-0.6875 0.4375 -1.0625 1.203125q-0.375 0.75 -0.375 1.71875q0 0.984375 0.421875 1.734375q0.421875 0.75 1.15625 1.1875q0.75 0.421875 1.703125 0.421875q0.578125 0 1.15625 -0.1875q0.59375 -0.203125 0.9375 -0.515625q0.1875 -0.140625 0.40625 -0.140625q0.21875 -0.015625 0.375 0.109375q0.21875 0.203125 0.21875 0.421875q0.015625 0.21875 -0.1875 0.390625q-0.515625 0.4375 -1.34375 0.734375q-0.8125 0.296875 -1.5625 0.296875zm13.35527 -0.078125q-0.265625 0 -0.453125 -0.171875q-0.171875 -0.1875 -0.171875 -0.4375l0 -4.15625q0 -1.0 -0.375 -1.640625q-0.375 -0.640625 -1.03125 -0.953125q-0.640625 -0.328125 -1.453125 -0.328125q-0.78125 0 -1.421875 0.3125q-0.625 0.296875 -1.0 0.828125q-0.359375 0.53125 -0.359375 1.203125l-0.875 0q0.03125 -1.015625 0.53125 -1.796875q0.515625 -0.796875 1.359375 -1.25q0.859375 -0.453125 1.890625 -0.453125q1.140625 0 2.03125 0.46875q0.90625 0.46875 1.421875 1.390625q0.515625 0.90625 0.515625 2.21875l0 4.15625q0 0.25 -0.171875 0.4375q-0.171875 0.171875 -0.4375 0.171875zm-6.875 0q-0.28125 0 -0.453125 -0.171875q-0.171875 -0.171875 -0.171875 -0.4375l0 -7.515625q0 -0.296875 0.171875 -0.453125q0.171875 -0.171875 0.453125 -0.171875q0.28125 0 0.4375 0.171875q0.171875 0.15625 0.171875 0.453125l0 7.515625q0 0.265625 -0.171875 0.4375q-0.15625 0.171875 -0.4375 0.171875zm13.628891 0q-0.84375 0 -1.515625 -0.390625q-0.65625 -0.40625 -1.046875 -1.09375q-0.375 -0.703125 -0.375 -1.609375l0 -7.8125q0 -0.28125 0.15625 -0.453125q0.171875 -0.171875 0.453125 -0.171875q0.265625 0 0.4375 0.171875q0.1875 0.171875 0.1875 0.453125l0 7.8125q0 0.828125 0.46875 1.34375q0.484375 0.515625 1.234375 0.515625l0.4375 0q0.25 0 0.40625 0.1875q0.171875 0.171875 0.171875 0.4375q0 0.265625 -0.203125 0.4375q-0.1875 0.171875 -0.46875 0.171875l-0.34375 0zm-3.984375 -7.359375q-0.234375 0 -0.40625 -0.140625q-0.15625 -0.15625 -0.15625 -0.390625q0 -0.234375 0.15625 -0.390625q0.171875 -0.15625 0.40625 -0.15625l4.078125 0q0.25 0 0.40625 0.15625q0.15625 0.15625 0.15625 0.390625q0 0.234375 -0.15625 0.390625q-0.15625 0.140625 -0.40625 0.140625l-4.078125 0z" fill-rule="nonzero"/><path fill="#000000" fill-opacity="0.0" d="m227.50919 154.08661l122.86615 0l0 52.598434l-122.86615 0z" fill-rule="evenodd"/><path fill="#000000" d="m275.27298 178.44661q-0.265625 0 -0.453125 -0.171875q-0.171875 -0.1875 -0.171875 -0.453125l0 -11.25q0 -0.265625 0.171875 -0.4375q0.1875 -0.1875 0.453125 -0.1875l3.0 0q1.171875 0 2.078125 0.5q0.90625 0.484375 1.421875 1.359375q0.53125 0.859375 0.53125 2.0q0 1.09375 -0.53125 1.9375q-0.515625 0.84375 -1.421875 1.328125q-0.90625 0.484375 -2.078125 0.484375l-2.375 0l0 4.265625q0 0.265625 -0.171875 0.453125q-0.171875 0.171875 -0.453125 0.171875zm6.6875 0q-0.203125 0 -0.328125 -0.078125q-0.109375 -0.078125 -0.203125 -0.234375l-3.078125 -4.90625l1.25 -0.3125l2.859375 4.578125q0.234375 0.375 0.078125 0.671875q-0.140625 0.28125 -0.578125 0.28125zm-6.0625 -6.09375l2.375 0q0.8125 0 1.4375 -0.328125q0.640625 -0.328125 1.0 -0.90625q0.375 -0.578125 0.375 -1.3125q0 -0.78125 -0.375 -1.375q-0.359375 -0.609375 -1.0 -0.9375q-0.625 -0.34375 -1.4375 -0.34375l-2.375 0l0 5.203125zm9.3411255 6.09375q-0.296875 0 -0.5 -0.171875q-0.203125 -0.171875 -0.203125 -0.453125l0 -11.25q0 -0.265625 0.171875 -0.4375q0.1875 -0.1875 0.453125 -0.1875l3.890625 0q0.96875 0 1.734375 0.40625q0.7812805 0.40625 1.2344055 1.125q0.453125 0.703125 0.453125 1.625q0 0.859375 -0.46875 1.53125q-0.453125 0.671875 -1.2031555 1.03125q1.0625305 0.28125 1.7187805 1.078125q0.65625 0.796875 0.65625 2.0q0 1.09375 -0.5 1.9375q-0.484375 0.828125 -1.3594055 1.296875q-0.875 0.46875 -1.984375 0.46875l-4.09375 0zm0.546875 -1.203125l3.546875 0q0.765625 0 1.359375 -0.296875q0.59375 -0.3125 0.9219055 -0.859375q0.34375 -0.5625 0.34375 -1.34375q0 -0.71875 -0.34375 -1.25q-0.32815552 -0.53125 -0.9219055 -0.828125q-0.59375 -0.296875 -1.359375 -0.296875l-3.546875 0l0 4.875zm0 -6.078125l3.265625 0q0.96875 0 1.578125 -0.546875q0.625 -0.546875 0.625 -1.515625q0 -0.953125 -0.625 -1.453125q-0.609375 -0.5 -1.578125 -0.5l-3.265625 0l0 4.015625zm8.702545 7.28125q-0.359375 0 -0.53125 -0.296875q-0.15625 -0.3125 -0.015625 -0.59375l4.703125 -11.171875q0.171875 -0.4375 0.59375 -0.4375q0.421875 0 0.59375 0.4375l4.71875 11.1875q0.15625 0.296875 -0.03125 0.59375q-0.1875 0.28125 -0.515625 0.28125q-0.203125 0 -0.359375 -0.09375q-0.140625 -0.09375 -0.234375 -0.296875l-4.40625 -10.671875l0.5 0l-4.4375 10.671875q-0.078125 0.203125 -0.234375 0.296875q-0.140625 0.09375 -0.34375 0.09375zm1.0625 -2.96875l0.484375 -1.078125l6.484375 0l0.484375 1.078125l-7.453125 0z" fill-rule="nonzero"/><path fill="#000000" fill-opacity="0.0" d="m421.35434 154.08661l122.86612 0l0 52.598434l-122.86612 0z" fill-rule="evenodd"/><path fill="#000000" d="m438.05408 178.44661q-0.265625 0 -0.453125 -0.171875q-0.171875 -0.1875 -0.171875 -0.453125l0 -11.25q0 -0.265625 0.171875 -0.4375q0.1875 -0.1875 0.453125 -0.1875l2.890625 0q1.375 0 2.515625 0.46875q1.140625 0.453125 1.96875 1.296875q0.84375 0.828125 1.296875 1.96875q0.453125 1.140625 0.453125 2.515625q0 1.375 -0.453125 2.515625q-0.453125 1.140625 -1.296875 1.984375q-0.828125 0.84375 -1.96875 1.296875q-1.140625 0.453125 -2.515625 0.453125l-2.890625 0zm0.625 -1.125l2.265625 0q1.46875 0 2.59375 -0.65625q1.125 -0.671875 1.765625 -1.828125q0.640625 -1.15625 0.640625 -2.640625q0 -1.5 -0.640625 -2.65625q-0.640625 -1.15625 -1.765625 -1.8125q-1.125 -0.65625 -2.59375 -0.65625l-2.265625 0l0 10.25zm11.429382 -4.265625q0.046875 -1.0 0.515625 -1.78125q0.46875 -0.78125 1.234375 -1.21875q0.765625 -0.453125 1.6875 -0.453125q0.734375 0 1.125 0.203125q0.40625 0.203125 0.3125 0.609375q-0.0625 0.234375 -0.21875 0.328125q-0.140625 0.078125 -0.359375 0.0625q-0.21875 -0.015625 -0.484375 -0.046875q-0.90625 -0.078125 -1.609375 0.1875q-0.6875 0.265625 -1.09375 0.8125q-0.40625 0.546875 -0.40625 1.296875l-0.703125 0zm0.09375 5.390625q-0.28125 0 -0.453125 -0.15625q-0.15625 -0.15625 -0.15625 -0.453125l0 -7.53125q0 -0.296875 0.15625 -0.453125q0.171875 -0.15625 0.453125 -0.15625q0.296875 0 0.453125 0.15625q0.15625 0.15625 0.15625 0.453125l0 7.53125q0 0.296875 -0.15625 0.453125q-0.15625 0.15625 -0.453125 0.15625zm10.047394 0.078125q-1.296875 0 -2.296875 -0.5625q-1.0 -0.578125 -1.578125 -1.578125q-0.5625 -1.015625 -0.5625 -2.3125q0 -1.3125 0.53125 -2.3125q0.546875 -1.0 1.484375 -1.5625q0.953125 -0.578125 2.1875 -0.578125q1.21875 0 2.109375 0.546875q0.90625 0.546875 1.40625 1.53125q0.5 0.96875 0.5 2.21875q0 0.265625 -0.171875 0.421875q-0.15625 0.140625 -0.40625 0.140625l-6.796875 0l0 -1.015625l6.921875 0l-0.6875 0.484375q0.015625 -0.921875 -0.34375 -1.65625q-0.34375 -0.734375 -1.0 -1.15625q-0.640625 -0.421875 -1.53125 -0.421875q-0.921875 0 -1.609375 0.4375q-0.6875 0.4375 -1.0625 1.203125q-0.375 0.75 -0.375 1.71875q0 0.984375 0.421875 1.734375q0.421875 0.75 1.15625 1.1875q0.75 0.421875 1.703125 0.421875q0.578125 0 1.15625 -0.1875q0.59375 -0.203125 0.9375 -0.515625q0.1875 -0.140625 0.40625 -0.140625q0.21875 -0.015625 0.375 0.109375q0.21875 0.203125 0.21875 0.421875q0.015625 0.21875 -0.1875 0.390625q-0.515625 0.4375 -1.34375 0.734375q-0.8125 0.296875 -1.5625 0.296875zm9.394653 0q-1.234375 0 -2.21875 -0.578125q-0.96875 -0.59375 -1.546875 -1.59375q-0.5625 -1.015625 -0.5625 -2.28125q0 -1.265625 0.578125 -2.265625q0.59375 -1.015625 1.59375 -1.59375q1.015625 -0.59375 2.28125 -0.59375q1.265625 0 2.265625 0.59375q1.0 0.578125 1.578125 1.59375q0.59375 1.0 0.609375 2.265625l-0.5 0.390625q0 1.15625 -0.546875 2.078125q-0.53125 0.921875 -1.453125 1.453125q-0.90625 0.53125 -2.078125 0.53125zm0.125 -1.125q0.9375 0 1.65625 -0.421875q0.734375 -0.4375 1.15625 -1.1875q0.421875 -0.765625 0.421875 -1.71875q0 -0.953125 -0.421875 -1.703125q-0.421875 -0.75 -1.15625 -1.1875q-0.71875 -0.453125 -1.65625 -0.453125q-0.90625 0 -1.640625 0.453125q-0.734375 0.4375 -1.171875 1.1875q-0.4375 0.75 -0.4375 1.703125q0 0.953125 0.4375 1.71875q0.4375 0.75 1.171875 1.1875q0.734375 0.421875 1.640625 0.421875zm3.828125 1.046875q-0.28125 0 -0.453125 -0.171875q-0.171875 -0.171875 -0.171875 -0.4375l0 -2.734375l0.296875 -1.265625l0.953125 0.234375l0 3.765625q0 0.265625 -0.1875 0.4375q-0.171875 0.171875 -0.4375 0.171875zm14.847626 0q-0.28125 0 -0.453125 -0.171875q-0.171875 -0.171875 -0.171875 -0.4375l0 -4.609375q0 -1.140625 -0.59375 -1.796875q-0.59375 -0.671875 -1.515625 -0.671875q-1.0 0 -1.640625 0.671875q-0.625 0.65625 -0.609375 1.765625l-1.09375 0q0.015625 -1.0625 0.453125 -1.875q0.453125 -0.828125 1.234375 -1.265625q0.78125 -0.453125 1.78125 -0.453125q0.9375 0 1.671875 0.453125q0.734375 0.4375 1.140625 1.265625q0.40625 0.8125 0.40625 1.90625l0 4.609375q0 0.265625 -0.171875 0.4375q-0.171875 0.171875 -0.4375 0.171875zm-11.203125 0q-0.28125 0 -0.453125 -0.171875q-0.171875 -0.171875 -0.171875 -0.4375l0 -7.515625q0 -0.28125 0.171875 -0.453125q0.171875 -0.171875 0.453125 -0.171875q0.28125 0 0.4375 0.171875q0.171875 0.171875 0.171875 0.453125l0 7.515625q0 0.265625 -0.171875 0.4375q-0.15625 0.171875 -0.4375 0.171875zm5.625 0q-0.28125 0 -0.453125 -0.171875q-0.171875 -0.171875 -0.171875 -0.4375l0 -4.609375q0 -1.140625 -0.59375 -1.796875q-0.59375 -0.671875 -1.53125 -0.671875q-0.984375 0 -1.625 0.65625q-0.640625 0.640625 -0.640625 1.6875l-0.875 0q0.03125 -1.03125 0.453125 -1.8125q0.421875 -0.796875 1.15625 -1.234375q0.734375 -0.453125 1.671875 -0.453125q0.9375 0 1.65625 0.453125q0.734375 0.4375 1.140625 1.265625q0.40625 0.8125 0.40625 1.90625l0 4.609375q0 0.265625 -0.171875 0.4375q-0.15625 0.171875 -0.421875 0.171875zm13.339539 0.078125q-1.25 0 -2.25 -0.578125q-1.0 -0.578125 -1.59375 -1.578125q-0.578125 -1.0 -0.59375 -2.234375l0 -7.5625q0 -0.28125 0.171875 -0.453125q0.171875 -0.171875 0.453125 -0.171875q0.28125 0 0.4375 0.171875q0.171875 0.171875 0.171875 0.453125l0 4.703125q0.53125 -0.75 1.390625 -1.203125q0.875 -0.453125 1.953125 -0.453125q1.234375 0 2.203125 0.59375q0.984375 0.578125 1.546875 1.59375q0.578125 1.0 0.578125 2.25q0 1.28125 -0.59375 2.296875q-0.578125 1.0 -1.59375 1.59375q-1.0 0.578125 -2.28125 0.578125zm0 -1.125q0.921875 0 1.65625 -0.4375q0.734375 -0.4375 1.15625 -1.1875q0.4375 -0.75 0.4375 -1.71875q0 -0.9375 -0.4375 -1.6875q-0.421875 -0.765625 -1.15625 -1.203125q-0.734375 -0.4375 -1.65625 -0.4375q-0.921875 0 -1.65625 0.4375q-0.734375 0.4375 -1.15625 1.203125q-0.40625 0.75 -0.40625 1.6875q0 0.96875 0.40625 1.71875q0.421875 0.75 1.15625 1.1875q0.734375 0.4375 1.65625 0.4375zm10.858887 1.125q-1.28125 0 -2.296875 -0.578125q-1.0 -0.578125 -1.578125 -1.578125q-0.578125 -1.015625 -0.578125 -2.296875q0 -1.28125 0.578125 -2.296875q0.578125 -1.015625 1.578125 -1.578125q1.015625 -0.578125 2.296875 -0.578125q1.28125 0 2.28125 0.578125q1.0 0.5625 1.578125 1.578125q0.578125 1.015625 0.59375 2.296875q0 1.28125 -0.59375 2.296875q-0.578125 1.0 -1.578125 1.578125q-1.0 0.578125 -2.28125 0.578125zm0 -1.125q0.9375 0 1.671875 -0.421875q0.734375 -0.4375 1.140625 -1.1875q0.421875 -0.75 0.421875 -1.71875q0 -0.953125 -0.421875 -1.703125q-0.40625 -0.765625 -1.140625 -1.203125q-0.734375 -0.4375 -1.671875 -0.4375q-0.921875 0 -1.65625 0.4375q-0.734375 0.4375 -1.171875 1.203125q-0.421875 0.75 -0.421875 1.703125q0 0.96875 0.421875 1.71875q0.4375 0.75 1.171875 1.1875q0.734375 0.421875 1.65625 0.421875zm10.707031 1.125q-1.234375 0 -2.21875 -0.578125q-0.96875 -0.59375 -1.546875 -1.59375q-0.5625 -1.015625 -0.5625 -2.28125q0 -1.265625 0.578125 -2.265625q0.59375 -1.015625 1.59375 -1.59375q1.015625 -0.59375 2.28125 -0.59375q1.265625 0 2.265625 0.59375q1.0 0.578125 1.578125 1.59375q0.59375 1.0 0.609375 2.265625l-0.5 0.390625q0 1.15625 -0.546875 2.078125q-0.53125 0.921875 -1.453125 1.453125q-0.90625 0.53125 -2.078125 0.53125zm0.125 -1.125q0.9375 0 1.65625 -0.421875q0.734375 -0.4375 1.15625 -1.1875q0.421875 -0.765625 0.421875 -1.71875q0 -0.953125 -0.421875 -1.703125q-0.421875 -0.75 -1.15625 -1.1875q-0.71875 -0.453125 -1.65625 -0.453125q-0.90625 0 -1.640625 0.453125q-0.734375 0.4375 -1.171875 1.1875q-0.4375 0.75 -0.4375 1.703125q0 0.953125 0.4375 1.71875q0.4375 0.75 1.171875 1.1875q0.734375 0.421875 1.640625 0.421875zm3.828125 1.046875q-0.28125 0 -0.453125 -0.171875q-0.171875 -0.171875 -0.171875 -0.4375l0 -2.734375l0.296875 -1.265625l0.953125 0.234375l0 3.765625q0 0.265625 -0.1875 0.4375q-0.171875 0.171875 -0.4375 0.171875zm6.4414062 0q-0.84375 0 -1.515625 -0.390625q-0.65625 -0.40625 -1.046875 -1.09375q-0.375 -0.703125 -0.375 -1.609375l0 -7.8125q0 -0.28125 0.15625 -0.453125q0.171875 -0.171875 0.453125 -0.171875q0.265625 0 0.4375 0.171875q0.1875 0.171875 0.1875 0.453125l0 7.8125q0 0.828125 0.46875 1.34375q0.484375 0.515625 1.234375 0.515625l0.4375 0q0.25 0 0.40625 0.1875q0.171875 0.171875 0.171875 0.4375q0 0.265625 -0.203125 0.4375q-0.1875 0.171875 -0.46875 0.171875l-0.34375 0zm-3.984375 -7.359375q-0.234375 0 -0.40625 -0.140625q-0.15625 -0.15625 -0.15625 -0.390625q0 -0.234375 0.15625 -0.390625q0.171875 -0.15625 0.40625 -0.15625l4.078125 0q0.25 0 0.40625 0.15625q0.15625 0.15625 0.15625 0.390625q0 0.234375 -0.15625 0.390625q-0.15625 0.140625 -0.40625 0.140625l-4.078125 0z" fill-rule="nonzero"/></g></svg>