<svg version="1.1" viewBox="0.0 0.0 576.0 576.0" fill="none" stroke="none" stroke-linecap="square" stroke-miterlimit="10" xmlns:xlink="http://www.w3.org/1999/xlink" xmlns="http://www.w3.org/2000/svg"><clipPath id="ga826bf408c_0_0.0"><path d="m0 0l576.0 0l0 576.0l-576.0 0l0 -576.0z" clip-rule="nonzero"/></clipPath><g clip-path="url(#ga826bf408c_0_0.0)"><path fill="#ffffff" d="m0 0l576.0 0l0 576.0l-576.0 0z" fill-rule="evenodd"/><path fill="#000000" fill-opacity="0.0" d="m419.90552 222.28609l0.5354309 82.5197" fill-rule="evenodd"/><path stroke="#595959" stroke-width="3.0" stroke-linejoin="round" stroke-linecap="butt" stroke-dasharray="12.0,9.0" d="m419.90552 222.28609l0.5354309 82.5197" fill-rule="evenodd"/><path fill="#000000" fill-opacity="0.0" d="m122.979004 348.96326l299.55905 -44.15747" fill-rule="evenodd"/><path stroke="#93c47d" stroke-width="8.0" stroke-linejoin="round" stroke-linecap="butt" d="m122.979004 348.96326l299.55905 -44.15747" fill-rule="evenodd"/><path fill="#281e96" d="m482.2861 505.14435l18.519684 9.8897705l-18.519684 9.8897705z" fill-rule="evenodd"/><path fill="#281e96" d="m69.685036 82.149605l-9.889759 -18.519684l-9.889767 18.519684z" fill-rule="evenodd"/><path fill="#000000" fill-opacity="0.0" d="m54.12861 515.5696l428.1575 -0.5354614" fill-rule="evenodd"/><path stroke="#281e96" stroke-width="12.0" stroke-linejoin="round" stroke-linecap="butt" d="m54.12861 515.5696l428.1575 -0.5354614" fill-rule="evenodd"/><path fill="#000000" fill-opacity="0.0" d="m59.528786 82.14873l0.5354309 428.15747" fill-rule="evenodd"/><path stroke="#281e96" stroke-width="12.0" stroke-linejoin="round" stroke-linecap="butt" d="m59.528786 82.14873l0.5354309 428.15747" fill-rule="evenodd"/><path fill="#ff0000" d="m400.99213 368.04843l19.382507 -59.41751l18.979706 59.385986z" fill-rule="evenodd"/><path fill="#000000" fill-opacity="0.0" d="m36.669292 28.322834l146.20471 0l0 35.307087l-146.20471 0z" fill-rule="evenodd"/><path fill="#281e96" d="m48.263042 55.242832q-0.3125 0 -0.53125 -0.203125q-0.203125 -0.203125 -0.203125 -0.53125l0 -13.109375q0 -0.3125 0.203125 -0.515625q0.21875 -0.21875 0.53125 -0.21875l3.734375 0q1.375 0 2.4375 0.609375q1.0625 0.609375 1.65625 1.671875q0.609375 1.0625 0.609375 2.46875q0 1.359375 -0.609375 2.421875q-0.59375 1.046875 -1.65625 1.65625q-1.0625 0.59375 -2.4375 0.59375l-3.0 0l0 4.421875q0 0.328125 -0.21875 0.53125q-0.203125 0.203125 -0.515625 0.203125zm0.734375 -6.546875l3.0 0q0.953125 0 1.6875 -0.421875q0.75 -0.421875 1.171875 -1.15625q0.421875 -0.75 0.421875 -1.703125q0 -1.0 -0.421875 -1.734375q-0.421875 -0.75 -1.171875 -1.171875q-0.734375 -0.4375 -1.6875 -0.4375l-3.0 0l0 6.625zm10.370758 0.265625q0.046875 -1.15625 0.59375 -2.0625q0.5625 -0.921875 1.4375 -1.4375q0.890625 -0.53125 1.96875 -0.53125q0.8593712 0 1.3281212 0.25q0.46875 0.234375 0.359375 0.703125q-0.078125 0.28125 -0.265625 0.375q-0.171875 0.078125 -0.421875 0.0625q-0.25 -0.015625 -0.5624962 -0.03125q-1.046875 -0.09375 -1.859375 0.21875q-0.8125 0.296875 -1.296875 0.9375q-0.46875 0.640625 -0.46875 1.515625l-0.8125 0zm0.109375 6.28125q-0.34375 0 -0.53125 -0.1875q-0.1875 -0.1875 -0.1875 -0.515625l0 -8.796875q0 -0.328125 0.1875 -0.515625q0.1875 -0.1875 0.53125 -0.1875q0.328125 0 0.515625 0.1875q0.1875 0.1875 0.1875 0.515625l0 8.796875q0 0.328125 -0.1875 0.515625q-0.1875 0.1875 -0.515625 0.1875zm11.735394 0.09375q-1.5 0 -2.671875 -0.671875q-1.171875 -0.671875 -1.84375 -1.84375q-0.671875 -1.171875 -0.671875 -2.671875q0 -1.515625 0.671875 -2.6875q0.671875 -1.171875 1.84375 -1.84375q1.171875 -0.671875 2.671875 -0.671875q1.484375 0 2.65625 0.671875q1.171875 0.671875 1.84375 1.84375q0.671875 1.171875 0.6875 2.6875q0 1.5 -0.6875 2.671875q-0.671875 1.171875 -1.84375 1.84375q-1.171875 0.671875 -2.65625 0.671875zm0 -1.3125q1.078125 0 1.9375 -0.5q0.859375 -0.5 1.34375 -1.375q0.484375 -0.875 0.484375 -2.0q0 -1.125 -0.484375 -2.0q-0.484375 -0.890625 -1.34375 -1.390625q-0.859375 -0.515625 -1.9375 -0.515625q-1.078125 0 -1.9375 0.515625q-0.859375 0.5 -1.359375 1.390625q-0.5 0.875 -0.5 2.0q0 1.125 0.5 2.0q0.5 0.875 1.359375 1.375q0.859375 0.5 1.9375 0.5zm12.63028 1.3125q-1.484375 0 -2.65625 -0.671875q-1.171875 -0.6875 -1.859375 -1.859375q-0.671875 -1.1875 -0.671875 -2.671875q0 -1.46875 0.65625 -2.640625q0.671875 -1.1875 1.796875 -1.859375q1.140625 -0.6875 2.578125 -0.6875q1.25 0 2.25 0.53125q1.015625 0.53125 1.640625 1.40625l0 -5.484375q0 -0.328125 0.203125 -0.53125q0.203125 -0.203125 0.515625 -0.203125q0.3125 0 0.515625 0.203125q0.21875 0.203125 0.21875 0.53125l0 8.8125q-0.046875 1.453125 -0.734375 2.625q-0.671875 1.15625 -1.84375 1.828125q-1.15625 0.671875 -2.609375 0.671875zm0 -1.3125q1.078125 0 1.921875 -0.5q0.859375 -0.515625 1.34375 -1.390625q0.5 -0.890625 0.5 -2.0q0 -1.109375 -0.5 -1.984375q-0.484375 -0.890625 -1.34375 -1.390625q-0.84375 -0.515625 -1.921875 -0.515625q-1.0625 0 -1.921875 0.515625q-0.859375 0.5 -1.375 1.390625q-0.5 0.875 -0.5 1.984375q0 1.109375 0.5 2.0q0.515625 0.875 1.375 1.390625q0.859375 0.5 1.921875 0.5zm12.986847 1.328125q-1.328125 0 -2.375 -0.546875q-1.046875 -0.546875 -1.65625 -1.609375q-0.59375 -1.0625 -0.59375 -2.59375l0 -4.859375q0 -0.296875 0.203125 -0.5q0.203125 -0.203125 0.5 -0.203125q0.3125 0 0.515625 0.203125q0.203125 0.203125 0.203125 0.5l0 4.859375q0 1.15625 0.4375 1.90625q0.453125 0.734375 1.203125 1.109375q0.75 0.375 1.703125 0.375q0.921875 0 1.65625 -0.34375q0.734375 -0.359375 1.15625 -0.96875q0.4375 -0.625 0.4375 -1.40625l1.03125 0q-0.0625 1.171875 -0.65625 2.09375q-0.578125 0.921875 -1.578125 1.453125q-0.984375 0.53125 -2.1875 0.53125zm4.09375 -0.109375q-0.3125 0 -0.515625 -0.1875q-0.1875 -0.203125 -0.1875 -0.546875l0 -8.765625q0 -0.3125 0.1875 -0.5q0.203125 -0.203125 0.515625 -0.203125q0.328125 0 0.53125 0.203125q0.203125 0.1875 0.203125 0.5l0 8.765625q0 0.34375 -0.203125 0.546875q-0.203125 0.1875 -0.53125 0.1875zm8.645905 0.09375q-1.484375 0 -2.625 -0.671875q-1.140625 -0.6875 -1.8125 -1.859375q-0.65625 -1.1875 -0.65625 -2.65625q0 -1.484375 0.625 -2.65625q0.640625 -1.1875 1.734375 -1.859375q1.109375 -0.6875 2.546875 -0.6875q1.140625 0 2.09375 0.453125q0.96875 0.4375 1.6875 1.34375q0.203125 0.21875 0.140625 0.46875q-0.046875 0.25 -0.3125 0.4375q-0.203125 0.15625 -0.453125 0.109375q-0.25 -0.046875 -0.4375 -0.28125q-1.078125 -1.234375 -2.71875 -1.234375q-1.046875 0 -1.84375 0.515625q-0.78125 0.5 -1.234375 1.375q-0.4375 0.875 -0.4375 2.015625q0 1.125 0.46875 2.0q0.46875 0.875 1.3125 1.375q0.84375 0.5 1.921875 0.5q0.71875 0 1.328125 -0.1875q0.609375 -0.203125 1.078125 -0.609375q0.21875 -0.1875 0.453125 -0.203125q0.25 -0.015625 0.453125 0.140625q0.234375 0.21875 0.25 0.484375q0.03125 0.25 -0.171875 0.4375q-1.359375 1.25 -3.390625 1.25zm10.556625 -0.09375q-0.984375 0 -1.765625 -0.46875q-0.765625 -0.46875 -1.21875 -1.28125q-0.453125 -0.8125 -0.453125 -1.84375l0 -9.125q0 -0.328125 0.1875 -0.53125q0.203125 -0.203125 0.53125 -0.203125q0.3125 0 0.515625 0.203125q0.203125 0.203125 0.203125 0.53125l0 9.125q0 0.9375 0.5625 1.546875q0.5625 0.609375 1.4375 0.609375l0.5 0q0.296875 0 0.484375 0.203125q0.1875 0.203125 0.1875 0.53125q0 0.3125 -0.21875 0.515625q-0.21875 0.1875 -0.5625 0.1875l-0.390625 0zm-4.640625 -8.578125q-0.28125 0 -0.46875 -0.171875q-0.1875 -0.1875 -0.1875 -0.453125q0 -0.28125 0.1875 -0.453125q0.1875 -0.171875 0.46875 -0.171875l4.75 0q0.28125 0 0.46875 0.171875q0.1875 0.171875 0.1875 0.453125q0 0.265625 -0.1875 0.453125q-0.1875 0.171875 -0.46875 0.171875l-4.75 0zm9.171692 8.578125q-0.328125 0 -0.53125 -0.1875q-0.1875 -0.203125 -0.1875 -0.546875l0 -8.75q0 -0.328125 0.1875 -0.515625q0.203125 -0.203125 0.53125 -0.203125q0.3125 0 0.515625 0.203125q0.203125 0.1875 0.203125 0.515625l0 8.75q0 0.34375 -0.203125 0.546875q-0.203125 0.1875 -0.515625 0.1875zm0.0625 -12.140625q-0.421875 0 -0.71875 -0.296875q-0.296875 -0.3125 -0.296875 -0.734375q0 -0.46875 0.3125 -0.734375q0.3125 -0.265625 0.71875 -0.265625q0.390625 0 0.6875 0.265625q0.3125 0.265625 0.3125 0.734375q0 0.421875 -0.296875 0.734375q-0.296875 0.296875 -0.71875 0.296875zm7.79792 12.140625q-0.453125 0 -0.671875 -0.484375l-4.1406326 -8.78125q-0.109375 -0.25 -0.03125 -0.484375q0.09375 -0.25 0.37500763 -0.375q0.265625 -0.140625 0.5 -0.046875q0.25 0.09375 0.375 0.34375l3.984375 8.59375l-0.765625 0l3.921875 -8.59375q0.109375 -0.265625 0.375 -0.34375q0.265625 -0.09375 0.53125 0.015625q0.265625 0.140625 0.359375 0.390625q0.09375 0.25 -0.015625 0.46875l-4.09375 8.8125q-0.21875 0.484375 -0.703125 0.484375zm7.84816 0q-0.328125 0 -0.53125 -0.1875q-0.1875 -0.203125 -0.1875 -0.546875l0 -8.75q0 -0.328125 0.1875 -0.515625q0.203125 -0.203125 0.53125 -0.203125q0.3125 0 0.515625 0.203125q0.203125 0.1875 0.203125 0.515625l0 8.75q0 0.34375 -0.203125 0.546875q-0.203125 0.1875 -0.515625 0.1875zm0.0625 -12.140625q-0.421875 0 -0.71875 -0.296875q-0.296875 -0.3125 -0.296875 -0.734375q0 -0.46875 0.3125 -0.734375q0.3125 -0.265625 0.71875 -0.265625q0.390625 0 0.6875 0.265625q0.3125 0.265625 0.3125 0.734375q0 0.421875 -0.296875 0.734375q-0.296875 0.296875 -0.71875 0.296875zm8.297913 12.140625q-0.984375 0 -1.765625 -0.46875q-0.765625 -0.46875 -1.21875 -1.28125q-0.453125 -0.8125 -0.453125 -1.84375l0 -9.125q0 -0.328125 0.1875 -0.53125q0.203125 -0.203125 0.53125 -0.203125q0.3125 0 0.515625 0.203125q0.203125 0.203125 0.203125 0.53125l0 9.125q0 0.9375 0.5625 1.546875q0.5625 0.609375 1.4375 0.609375l0.5 0q0.296875 0 0.484375 0.203125q0.1875 0.203125 0.1875 0.53125q0 0.3125 -0.21875 0.515625q-0.21875 0.1875 -0.5625 0.1875l-0.390625 0zm-4.640625 -8.578125q-0.28125 0 -0.46875 -0.171875q-0.1875 -0.1875 -0.1875 -0.453125q0 -0.28125 0.1875 -0.453125q0.1875 -0.171875 0.46875 -0.171875l4.75 0q0.28125 0 0.46875 0.171875q0.1875 0.171875 0.1875 0.453125q0 0.265625 -0.1875 0.453125q-0.1875 0.171875 -0.46875 0.171875l-4.75 0zm9.906067 13.015625q-0.15625 0 -0.34375 -0.078125q-0.625 -0.28125 -0.34375 -0.890625l6.015625 -13.28125q0.28125 -0.59375 0.890625 -0.34375q0.640625 0.265625 0.359375 0.890625l-6.046875 13.28125q-0.1875 0.421875 -0.53125 0.421875zm2.0625 -4.75q-0.28125 0.125 -0.53125 0.046875q-0.234375 -0.09375 -0.375 -0.375l-4.171875 -8.609375q-0.125 -0.28125 -0.03125 -0.515625q0.09375 -0.25 0.375 -0.390625q0.28125 -0.125 0.515625 -0.03125q0.25 0.078125 0.375 0.359375l4.09375 8.609375q0.140625 0.28125 0.078125 0.53125q-0.046875 0.234375 -0.328125 0.375z" fill-rule="nonzero"/><path fill="#000000" fill-opacity="0.0" d="m495.5503 493.70175l72.787415 0l0 35.3071l-72.787415 0z" fill-rule="evenodd"/><path fill="#281e96" d="m510.22217 520.62177q-0.984375 0 -1.765625 -0.46875q-0.765625 -0.46875 -1.21875 -1.28125q-0.453125 -0.8125 -0.453125 -1.84375l0 -9.1250305q0 -0.328125 0.1875 -0.53125q0.203125 -0.203125 0.53125 -0.203125q0.3125 0 0.515625 0.203125q0.203125 0.203125 0.203125 0.53125l0 9.1250305q0 0.9375 0.5625 1.546875q0.5625 0.609375 1.4375 0.609375l0.5 0q0.296875 0 0.484375 0.203125q0.1875 0.203125 0.1875 0.53125q0 0.3125 -0.21875 0.515625q-0.21875 0.1875 -0.5625 0.1875l-0.390625 0zm-4.640625 -8.578125q-0.28125 0 -0.46875 -0.17190552q-0.1875 -0.1875 -0.1875 -0.453125q0 -0.28125 0.1875 -0.453125q0.1875 -0.171875 0.46875 -0.171875l4.75 0q0.28125 0 0.46875 0.171875q0.1875 0.171875 0.1875 0.453125q0 0.265625 -0.1875 0.453125q-0.1875 0.17190552 -0.46875 0.17190552l-4.75 0zm9.171692 8.578125q-0.328125 0 -0.53125 -0.1875q-0.1875 -0.203125 -0.1875 -0.546875l0 -8.7500305q0 -0.328125 0.1875 -0.515625q0.203125 -0.203125 0.53125 -0.203125q0.3125 0 0.515625 0.203125q0.203125 0.1875 0.203125 0.515625l0 8.7500305q0 0.34375 -0.203125 0.546875q-0.203125 0.1875 -0.515625 0.1875zm0.0625 -12.1406555q-0.421875 0 -0.71875 -0.296875q-0.296875 -0.3125 -0.296875 -0.734375q0 -0.46875 0.3125 -0.734375q0.3125 -0.265625 0.71875 -0.265625q0.390625 0 0.6875 0.265625q0.3125 0.265625 0.3125 0.734375q0 0.421875 -0.296875 0.734375q-0.296875 0.296875 -0.71875 0.296875zm18.094788 12.1406555q-0.3125 0 -0.53125 -0.1875q-0.203125 -0.203125 -0.203125 -0.515625l0 -5.375q0 -1.328125 -0.6875 -2.09375q-0.6875 -0.7812805 -1.765625 -0.7812805q-1.15625 0 -1.90625 0.7812805q-0.734375 0.765625 -0.71875 2.046875l-1.28125 0q0.015625 -1.25 0.53125 -2.1875q0.53125 -0.9531555 1.4375 -1.4687805q0.921875 -0.53125 2.078125 -0.53125q1.109375 0 1.953125 0.53125q0.84375 0.515625 1.3125 1.4687805q0.484375 0.9375 0.484375 2.234375l0 5.375q0 0.3125 -0.203125 0.515625q-0.1875 0.1875 -0.5 0.1875zm-13.0625 0q-0.328125 0 -0.53125 -0.1875q-0.203125 -0.203125 -0.203125 -0.515625l0 -8.7812805q0 -0.3125 0.203125 -0.515625q0.203125 -0.203125 0.53125 -0.203125q0.3125 0 0.5 0.203125q0.203125 0.203125 0.203125 0.515625l0 8.7812805q0 0.3125 -0.203125 0.515625q-0.1875 0.1875 -0.5 0.1875zm6.546875 0q-0.3125 0 -0.515625 -0.1875q-0.203125 -0.203125 -0.203125 -0.515625l0 -5.375q0 -1.328125 -0.703125 -2.09375q-0.6875 -0.7812805 -1.765625 -0.7812805q-1.15625 0 -1.90625 0.7656555q-0.75 0.75 -0.75 1.953125l-1.015625 0q0.03125 -1.1875 0.515625 -2.109375q0.5 -0.9219055 1.359375 -1.4375305q0.859375 -0.53125 1.9375 -0.53125q1.109375 0 1.953125 0.53125q0.859375 0.515625 1.328125 1.4687805q0.46875 0.9375 0.46875 2.234375l0 5.375q0 0.3125 -0.203125 0.515625q-0.1875 0.1875 -0.5 0.1875zm15.026855 0.09375q-1.515625 0 -2.6875 -0.65625q-1.15625 -0.671875 -1.828125 -1.84375q-0.65625 -1.171875 -0.65625 -2.6875q0 -1.53125 0.625 -2.6875q0.625 -1.1719055 1.71875 -1.8437805q1.109375 -0.671875 2.546875 -0.671875q1.40625 0 2.453125 0.640625q1.0625 0.640625 1.640625 1.7812805q0.578125 1.140625 0.578125 2.59375q0 0.296875 -0.1875 0.484375q-0.1875 0.171875 -0.484375 0.171875l-7.921875 0l0 -1.203125l8.078125 0l-0.796875 0.578125q0.015625 -1.078125 -0.40625 -1.9375q-0.40625 -0.859375 -1.15625 -1.34375q-0.75 -0.48440552 -1.796875 -0.48440552q-1.0625 0 -1.875 0.5156555q-0.796875 0.5 -1.234375 1.390625q-0.4375 0.875 -0.4375 2.015625q0 1.140625 0.484375 2.015625q0.5 0.875 1.359375 1.390625q0.859375 0.5 1.984375 0.5q0.671875 0 1.34375 -0.234375q0.6875 -0.234375 1.09375 -0.59375q0.203125 -0.171875 0.46875 -0.171875q0.265625 -0.015625 0.4375 0.140625q0.25 0.21875 0.25 0.484375q0.015625 0.25 -0.203125 0.4375q-0.625 0.53125 -1.578125 0.875q-0.9375 0.34375 -1.8125 0.34375z" fill-rule="nonzero"/><path fill="#000000" fill-opacity="0.0" d="m120.87664 350.01575l302.70865 -134.01575" fill-rule="evenodd"/><path stroke="#00ff00" stroke-width="8.0" stroke-linejoin="round" stroke-linecap="butt" d="m120.87664 350.01575l302.70865 -134.01575" fill-rule="evenodd"/><path fill="#000000" fill-opacity="0.0" d="m358.59106 158.15749l98.80316 0l0 35.307083l-98.80316 0z" fill-rule="evenodd"/><path fill="#000000" fill-opacity="0.0" d="m195.10498 340.55643l146.20474 0l0 35.3071l-146.20474 0z" fill-rule="evenodd"/><path fill="#281e96" d="m212.69873 367.66394q-1.609375 0 -2.984375 -0.5625q-1.359375 -0.5625 -2.359375 -1.5625q-1.0 -1.015625 -1.546875 -2.375q-0.546875 -1.359375 -0.546875 -2.984375q0 -1.609375 0.546875 -2.96875q0.546875 -1.359375 1.546875 -2.359375q1.0 -1.015625 2.359375 -1.5625q1.375 -0.5625 2.984375 -0.5625q1.609375 0 2.96875 0.5625q1.359375 0.546875 2.359375 1.5625q1.015625 1.0 1.5625 2.359375q0.5625 1.359375 0.5625 2.96875q0 1.625 -0.5625 2.984375q-0.546875 1.359375 -1.5625 2.375q-1.0 1.0 -2.359375 1.5625q-1.359375 0.5625 -2.96875 0.5625zm0 -1.375q1.296875 0 2.390625 -0.453125q1.109375 -0.46875 1.921875 -1.296875q0.8125 -0.828125 1.25 -1.9375q0.453125 -1.109375 0.453125 -2.421875q0 -1.28125 -0.453125 -2.390625q-0.4375 -1.109375 -1.25 -1.9375q-0.8125 -0.84375 -1.921875 -1.296875q-1.09375 -0.453125 -2.390625 -0.453125q-1.296875 0 -2.40625 0.453125q-1.09375 0.453125 -1.90625 1.296875q-0.8125 0.828125 -1.265625 1.9375q-0.4375 1.109375 -0.4375 2.390625q0 1.3125 0.4375 2.421875q0.453125 1.109375 1.265625 1.9375q0.8125 0.828125 1.90625 1.296875q1.109375 0.453125 2.40625 0.453125zm10.869904 -5.09375q0.046875 -1.15625 0.59375 -2.0625q0.5625 -0.921875 1.4375 -1.4375q0.890625 -0.53125 1.96875 -0.53125q0.859375 0 1.328125 0.25q0.46875 0.234375 0.359375 0.703125q-0.078125 0.28125 -0.265625 0.375q-0.171875 0.078125 -0.421875 0.0625q-0.25 -0.015625 -0.5625 -0.03125q-1.046875 -0.09375 -1.859375 0.21875q-0.8125 0.296875 -1.296875 0.9375q-0.46875 0.640625 -0.46875 1.515625l-0.8125 0zm0.109375 6.28125q-0.34375 0 -0.53125 -0.1875q-0.1875 -0.1875 -0.1875 -0.515625l0 -8.796875q0 -0.328125 0.1875 -0.515625q0.1875 -0.1875 0.53125 -0.1875q0.328125 0 0.515625 0.1875q0.1875 0.1875 0.1875 0.515625l0 8.796875q0 0.328125 -0.1875 0.515625q-0.1875 0.1875 -0.515625 0.1875zm8.857071 0q-0.328125 0 -0.53125 -0.1875q-0.1875 -0.203125 -0.1875 -0.546875l0 -8.75q0 -0.328125 0.1875 -0.515625q0.203125 -0.203125 0.53125 -0.203125q0.3125 0 0.515625 0.203125q0.203125 0.1875 0.203125 0.515625l0 8.75q0 0.34375 -0.203125 0.546875q-0.203125 0.1875 -0.515625 0.1875zm0.0625 -12.140625q-0.421875 0 -0.71875 -0.296875q-0.296875 -0.3125 -0.296875 -0.734375q0 -0.46875 0.3125 -0.734375q0.3125 -0.265625 0.71875 -0.265625q0.390625 0 0.6875 0.265625q0.3125 0.265625 0.3125 0.734375q0 0.421875 -0.296875 0.734375q-0.296875 0.296875 -0.71875 0.296875zm8.797913 12.234375q-1.46875 0 -2.609375 -0.65625q-1.140625 -0.671875 -1.78125 -1.84375q-0.640625 -1.171875 -0.640625 -2.6875q0 -1.53125 0.671875 -2.703125q0.671875 -1.171875 1.84375 -1.828125q1.171875 -0.671875 2.671875 -0.671875q1.5 0 2.671875 0.671875q1.171875 0.65625 1.828125 1.828125q0.671875 1.171875 0.6875 2.703125l-0.84375 0.453125q0 1.375 -0.578125 2.453125q-0.578125 1.0625 -1.59375 1.671875q-1.015625 0.609375 -2.328125 0.609375zm0.1875 3.9375q-1.46875 0 -2.59375 -0.5625q-1.109375 -0.546875 -1.84375 -1.484375q-0.203125 -0.234375 -0.1875 -0.5q0.03125 -0.25 0.28125 -0.421875q0.234375 -0.171875 0.53125 -0.125q0.3125 0.0625 0.46875 0.296875q0.546875 0.671875 1.390625 1.078125q0.859375 0.40625 1.96875 0.40625q1.046875 0 1.890625 -0.5q0.84375 -0.5 1.328125 -1.421875q0.5 -0.90625 0.5 -2.140625l0 -2.828125l0.546875 -1.09375l0.875 0.171875l0 3.8125q0 1.5 -0.671875 2.703125q-0.671875 1.203125 -1.828125 1.90625q-1.15625 0.703125 -2.65625 0.703125zm-0.03125 -5.25q1.09375 0 1.9375 -0.484375q0.859375 -0.5 1.34375 -1.375q0.484375 -0.875 0.484375 -2.015625q0 -1.140625 -0.484375 -2.015625q-0.484375 -0.890625 -1.34375 -1.390625q-0.84375 -0.5 -1.9375 -0.5q-1.109375 0 -1.96875 0.5q-0.859375 0.5 -1.34375 1.390625q-0.484375 0.875 -0.484375 2.015625q0 1.140625 0.484375 2.015625q0.484375 0.875 1.34375 1.375q0.859375 0.484375 1.96875 0.484375zm9.00528 1.21875q-0.328125 0 -0.53125 -0.1875q-0.1875 -0.203125 -0.1875 -0.546875l0 -8.75q0 -0.328125 0.1875 -0.515625q0.203125 -0.203125 0.53125 -0.203125q0.3125 0 0.515625 0.203125q0.203125 0.1875 0.203125 0.515625l0 8.75q0 0.34375 -0.203125 0.546875q-0.203125 0.1875 -0.515625 0.1875zm0.0625 -12.140625q-0.421875 0 -0.71875 -0.296875q-0.296875 -0.3125 -0.296875 -0.734375q0 -0.46875 0.3125 -0.734375q0.3125 -0.265625 0.71875 -0.265625q0.390625 0 0.6875 0.265625q0.3125 0.265625 0.3125 0.734375q0 0.421875 -0.296875 0.734375q-0.296875 0.296875 -0.71875 0.296875zm13.047928 12.140625q-0.3125 0 -0.515625 -0.203125q-0.203125 -0.203125 -0.203125 -0.5l0 -4.859375q0 -1.15625 -0.4375 -1.890625q-0.4375 -0.75 -1.203125 -1.125q-0.75 -0.375 -1.703125 -0.375q-0.90625 0 -1.65625 0.359375q-0.734375 0.34375 -1.171875 0.96875q-0.421875 0.609375 -0.421875 1.390625l-1.0156403 0q0.03125 -1.171875 0.625 -2.09375q0.60939026 -0.921875 1.5937653 -1.453125q0.984375 -0.53125 2.203125 -0.53125q1.3125 0 2.359375 0.546875q1.046875 0.546875 1.65625 1.609375q0.609375 1.0625 0.609375 2.59375l0 4.859375q0 0.296875 -0.203125 0.5q-0.203125 0.203125 -0.515625 0.203125zm-8.01564 0q-0.328125 0 -0.53125 -0.1875q-0.203125 -0.203125 -0.203125 -0.515625l0 -8.78125q0 -0.328125 0.203125 -0.515625q0.203125 -0.203125 0.53125 -0.203125q0.3125 0 0.50001526 0.203125q0.203125 0.1875 0.203125 0.515625l0 8.78125q0 0.3125 -0.203125 0.515625q-0.18751526 0.1875 -0.50001526 0.1875zm16.39592 0.09375q-1.4375 0 -2.578125 -0.671875q-1.125 -0.6875 -1.796875 -1.859375q-0.65625 -1.1875 -0.65625 -2.65625q0 -1.484375 0.671875 -2.65625q0.6875 -1.1875 1.859375 -1.859375q1.171875 -0.6875 2.65625 -0.6875q1.46875 0 2.625 0.6875q1.171875 0.671875 1.859375 1.859375q0.6875 1.171875 0.703125 2.65625l-0.578125 0.453125q0 1.34375 -0.625 2.421875q-0.625 1.0625 -1.703125 1.6875q-1.078125 0.625 -2.4375 0.625zm0.15625 -1.3125q1.078125 0 1.921875 -0.5q0.859375 -0.5 1.34375 -1.390625q0.5 -0.890625 0.5 -1.984375q0 -1.125 -0.5 -2.0q-0.484375 -0.875 -1.34375 -1.390625q-0.84375 -0.515625 -1.921875 -0.515625q-1.0625 0 -1.921875 0.515625q-0.859375 0.515625 -1.375 1.390625q-0.5 0.875 -0.5 2.0q0 1.09375 0.5 1.984375q0.515625 0.890625 1.375 1.390625q0.859375 0.5 1.921875 0.5zm4.453125 1.21875q-0.3125 0 -0.515625 -0.1875q-0.203125 -0.203125 -0.203125 -0.515625l0 -3.203125l0.34375 -1.46875l1.109375 0.28125l0 4.390625q0 0.3125 -0.21875 0.515625q-0.203125 0.1875 -0.515625 0.1875zm5.7240295 0q-0.734375 0 -1.328125 -0.40625q-0.59375 -0.421875 -0.921875 -1.140625q-0.3125 -0.734375 -0.3125 -1.6875l0 -10.625q0 -0.3125 0.1875 -0.515625q0.203125 -0.203125 0.515625 -0.203125q0.3125 0 0.5 0.203125q0.203125 0.203125 0.203125 0.515625l0 10.625q0 0.8125 0.328125 1.3125q0.328125 0.5 0.828125 0.5l0.46875 0q0.28125 0 0.453125 0.203125q0.171875 0.1875 0.171875 0.515625q0 0.3125 -0.234375 0.515625q-0.234375 0.1875 -0.609375 0.1875l-0.25 0z" fill-rule="nonzero"/><path fill="#281e96" d="m206.51123 393.83582q-0.328125 0 -0.53125 -0.203125q-0.203125 -0.1875 -0.203125 -0.515625l0 -8.8125q0.03125 -1.453125 0.703125 -2.609375q0.6875 -1.171875 1.84375 -1.84375q1.171875 -0.671875 2.625 -0.671875q1.5 0 2.671875 0.6875q1.171875 0.671875 1.84375 1.859375q0.6875 1.171875 0.6875 2.65625q0 1.46875 -0.65625 2.65625q-0.65625 1.171875 -1.796875 1.859375q-1.140625 0.671875 -2.578125 0.671875q-1.25 0 -2.265625 -0.53125q-1.015625 -0.53125 -1.640625 -1.40625l0 5.484375q0 0.328125 -0.203125 0.515625q-0.1875 0.203125 -0.5 0.203125zm4.4375 -5.578125q1.078125 0 1.9375 -0.5q0.859375 -0.5 1.359375 -1.390625q0.5 -0.890625 0.5 -1.984375q0 -1.125 -0.5 -2.0q-0.5 -0.875 -1.359375 -1.390625q-0.859375 -0.515625 -1.9375 -0.515625q-1.0625 0 -1.921875 0.515625q-0.859375 0.515625 -1.34375 1.390625q-0.484375 0.875 -0.484375 2.0q0 1.09375 0.484375 1.984375q0.484375 0.890625 1.34375 1.390625q0.859375 0.5 1.921875 0.5zm8.627472 -5.0625q0.046875 -1.15625 0.59375 -2.0625q0.5625 -0.921875 1.4375 -1.4375q0.890625 -0.53125 1.96875 -0.53125q0.859375 0 1.328125 0.25q0.46875 0.234375 0.359375 0.703125q-0.078125 0.28125 -0.265625 0.375q-0.171875 0.078125 -0.421875 0.0625q-0.25 -0.015625 -0.5625 -0.03125q-1.046875 -0.09375 -1.859375 0.21875q-0.8125 0.296875 -1.296875 0.9375q-0.46875 0.640625 -0.46875 1.515625l-0.8125 0zm0.109375 6.28125q-0.34375 0 -0.53125 -0.1875q-0.1875 -0.1875 -0.1875 -0.515625l0 -8.796875q0 -0.328125 0.1875 -0.515625q0.1875 -0.1875 0.53125 -0.1875q0.328125 0 0.515625 0.1875q0.1875 0.1875 0.1875 0.515625l0 8.796875q0 0.328125 -0.1875 0.515625q-0.1875 0.1875 -0.515625 0.1875zm11.735397 0.09375q-1.5 0 -2.671875 -0.671875q-1.171875 -0.671875 -1.84375 -1.84375q-0.671875 -1.171875 -0.671875 -2.671875q0 -1.515625 0.671875 -2.6875q0.671875 -1.171875 1.84375 -1.84375q1.171875 -0.671875 2.671875 -0.671875q1.484375 0 2.65625 0.671875q1.171875 0.671875 1.84375 1.84375q0.671875 1.171875 0.6875 2.6875q0 1.5 -0.6875 2.671875q-0.671875 1.171875 -1.84375 1.84375q-1.171875 0.671875 -2.65625 0.671875zm0 -1.3125q1.078125 0 1.9375 -0.5q0.859375 -0.5 1.34375 -1.375q0.484375 -0.875 0.484375 -2.0q0 -1.125 -0.484375 -2.0q-0.484375 -0.890625 -1.34375 -1.390625q-0.859375 -0.515625 -1.9375 -0.515625q-1.078125 0 -1.9375 0.515625q-0.859375 0.5 -1.359375 1.390625q-0.5 0.875 -0.5 2.0q0 1.125 0.5 2.0q0.5 0.875 1.359375 1.375q0.859375 0.5 1.9375 0.5zm12.63028 1.3125q-1.484375 0 -2.65625 -0.671875q-1.171875 -0.6875 -1.859375 -1.859375q-0.671875 -1.1875 -0.671875 -2.671875q0 -1.46875 0.65625 -2.640625q0.671875 -1.1875 1.796875 -1.859375q1.140625 -0.6875 2.578125 -0.6875q1.25 0 2.25 0.53125q1.015625 0.53125 1.640625 1.40625l0 -5.484375q0 -0.328125 0.203125 -0.53125q0.203125 -0.203125 0.515625 -0.203125q0.3125 0 0.515625 0.203125q0.21875 0.203125 0.21875 0.53125l0 8.8125q-0.046875 1.453125 -0.734375 2.625q-0.671875 1.15625 -1.84375 1.828125q-1.15625 0.671875 -2.609375 0.671875zm0 -1.3125q1.078125 0 1.921875 -0.5q0.859375 -0.515625 1.34375 -1.390625q0.5 -0.890625 0.5 -2.0q0 -1.109375 -0.5 -1.984375q-0.484375 -0.890625 -1.34375 -1.390625q-0.84375 -0.515625 -1.921875 -0.515625q-1.0625 0 -1.921875 0.515625q-0.859375 0.5 -1.375 1.390625q-0.5 0.875 -0.5 1.984375q0 1.109375 0.5 2.0q0.515625 0.875 1.375 1.390625q0.859375 0.5 1.921875 0.5zm12.986862 1.328125q-1.3281403 0 -2.3750153 -0.546875q-1.046875 -0.546875 -1.65625 -1.609375q-0.59375 -1.0625 -0.59375 -2.59375l0 -4.859375q0 -0.296875 0.203125 -0.5q0.203125 -0.203125 0.5 -0.203125q0.3125 0 0.515625 0.203125q0.203125 0.203125 0.203125 0.5l0 4.859375q0 1.15625 0.4375 1.90625q0.453125 0.734375 1.203125 1.109375q0.75001526 0.375 1.7031403 0.375q0.921875 0 1.65625 -0.34375q0.734375 -0.359375 1.15625 -0.96875q0.4375 -0.625 0.4375 -1.40625l1.03125 0q-0.0625 1.171875 -0.65625 2.09375q-0.578125 0.921875 -1.578125 1.453125q-0.984375 0.53125 -2.1875 0.53125zm4.09375 -0.109375q-0.3125 0 -0.515625 -0.1875q-0.1875 -0.203125 -0.1875 -0.546875l0 -8.765625q0 -0.3125 0.1875 -0.5q0.203125 -0.203125 0.515625 -0.203125q0.328125 0 0.53125 0.203125q0.203125 0.1875 0.203125 0.5l0 8.765625q0 0.34375 -0.203125 0.546875q-0.203125 0.1875 -0.53125 0.1875zm8.645905 0.09375q-1.484375 0 -2.625 -0.671875q-1.140625 -0.6875 -1.8125 -1.859375q-0.65625 -1.1875 -0.65625 -2.65625q0 -1.484375 0.625 -2.65625q0.640625 -1.1875 1.734375 -1.859375q1.109375 -0.6875 2.546875 -0.6875q1.140625 0 2.09375 0.453125q0.96875 0.4375 1.6875 1.34375q0.203125 0.21875 0.140625 0.46875q-0.046875 0.25 -0.3125 0.4375q-0.203125 0.15625 -0.453125 0.109375q-0.25 -0.046875 -0.4375 -0.28125q-1.078125 -1.234375 -2.71875 -1.234375q-1.046875 0 -1.84375 0.515625q-0.78125 0.5 -1.234375 1.375q-0.4375 0.875 -0.4375 2.015625q0 1.125 0.46875 2.0q0.46875 0.875 1.3125 1.375q0.84375 0.5 1.921875 0.5q0.71875 0 1.328125 -0.1875q0.609375 -0.203125 1.078125 -0.609375q0.21875 -0.1875 0.453125 -0.203125q0.25 -0.015625 0.453125 0.140625q0.234375 0.21875 0.25 0.484375q0.03125 0.25 -0.171875 0.4375q-1.359375 1.25 -3.390625 1.25zm10.55661 -0.09375q-0.984375 0 -1.765625 -0.46875q-0.765625 -0.46875 -1.21875 -1.28125q-0.453125 -0.8125 -0.453125 -1.84375l0 -9.125q0 -0.328125 0.1875 -0.53125q0.203125 -0.203125 0.53125 -0.203125q0.3125 0 0.515625 0.203125q0.203125 0.203125 0.203125 0.53125l0 9.125q0 0.9375 0.5625 1.546875q0.5625 0.609375 1.4375 0.609375l0.5 0q0.296875 0 0.484375 0.203125q0.1875 0.203125 0.1875 0.53125q0 0.3125 -0.21875 0.515625q-0.21875 0.1875 -0.5625 0.1875l-0.390625 0zm-4.640625 -8.578125q-0.28125 0 -0.46875 -0.171875q-0.1875 -0.1875 -0.1875 -0.453125q0 -0.28125 0.1875 -0.453125q0.1875 -0.171875 0.46875 -0.171875l4.75 0q0.28125 0 0.46875 0.171875q0.1875 0.171875 0.1875 0.453125q0 0.265625 -0.1875 0.453125q-0.1875 0.171875 -0.46875 0.171875l-4.75 0zm9.171692 8.578125q-0.328125 0 -0.53125 -0.1875q-0.1875 -0.203125 -0.1875 -0.546875l0 -8.75q0 -0.328125 0.1875 -0.515625q0.203125 -0.203125 0.53125 -0.203125q0.3125 0 0.515625 0.203125q0.203125 0.1875 0.203125 0.515625l0 8.75q0 0.34375 -0.203125 0.546875q-0.203125 0.1875 -0.515625 0.1875zm0.0625 -12.140625q-0.421875 0 -0.71875 -0.296875q-0.296875 -0.3125 -0.296875 -0.734375q0 -0.46875 0.3125 -0.734375q0.3125 -0.265625 0.71875 -0.265625q0.390625 0 0.6875 0.265625q0.3125 0.265625 0.3125 0.734375q0 0.421875 -0.296875 0.734375q-0.296875 0.296875 -0.71875 0.296875zm7.7979126 12.140625q-0.453125 0 -0.671875 -0.484375l-4.140625 -8.78125q-0.109375 -0.25 -0.03125 -0.484375q0.09375 -0.25 0.375 -0.375q0.265625 -0.140625 0.5 -0.046875q0.25 0.09375 0.375 0.34375l3.984375 8.59375l-0.765625 0l3.921875 -8.59375q0.109375 -0.265625 0.375 -0.34375q0.265625 -0.09375 0.53125 0.015625q0.265625 0.140625 0.359375 0.390625q0.09375 0.25 -0.015625 0.46875l-4.09375 8.8125q-0.21875 0.484375 -0.703125 0.484375zm7.848175 0q-0.328125 0 -0.53125 -0.1875q-0.1875 -0.203125 -0.1875 -0.546875l0 -8.75q0 -0.328125 0.1875 -0.515625q0.203125 -0.203125 0.53125 -0.203125q0.3125 0 0.515625 0.203125q0.203125 0.1875 0.203125 0.515625l0 8.75q0 0.34375 -0.203125 0.546875q-0.203125 0.1875 -0.515625 0.1875zm0.0625 -12.140625q-0.421875 0 -0.71875 -0.296875q-0.296875 -0.3125 -0.296875 -0.734375q0 -0.46875 0.3125 -0.734375q0.3125 -0.265625 0.71875 -0.265625q0.390625 0 0.6875 0.265625q0.3125 0.265625 0.3125 0.734375q0 0.421875 -0.296875 0.734375q-0.296875 0.296875 -0.71875 0.296875zm8.297913 12.140625q-0.984375 0 -1.765625 -0.46875q-0.765625 -0.46875 -1.21875 -1.28125q-0.453125 -0.8125 -0.453125 -1.84375l0 -9.125q0 -0.328125 0.1875 -0.53125q0.203125 -0.203125 0.53125 -0.203125q0.3125 0 0.515625 0.203125q0.203125 0.203125 0.203125 0.53125l0 9.125q0 0.9375 0.5625 1.546875q0.5625 0.609375 1.4375 0.609375l0.5 0q0.296875 0 0.484375 0.203125q0.1875 0.203125 0.1875 0.53125q0 0.3125 -0.21875 0.515625q-0.21875 0.1875 -0.5625 0.1875l-0.390625 0zm-4.640625 -8.578125q-0.28125 0 -0.46875 -0.171875q-0.1875 -0.1875 -0.1875 -0.453125q0 -0.28125 0.1875 -0.453125q0.1875 -0.171875 0.46875 -0.171875l4.75 0q0.28125 0 0.46875 0.171875q0.1875 0.171875 0.1875 0.453125q0 0.265625 -0.1875 0.453125q-0.1875 0.171875 -0.46875 0.171875l-4.75 0zm9.906067 13.015625q-0.15625 0 -0.34375 -0.078125q-0.625 -0.28125 -0.34375 -0.890625l6.015625 -13.28125q0.28125 -0.59375 0.890625 -0.34375q0.640625 0.265625 0.359375 0.890625l-6.046875 13.28125q-0.1875 0.421875 -0.53125 0.421875zm2.0625 -4.75q-0.28125 0.125 -0.53125 0.046875q-0.234375 -0.09375 -0.375 -0.375l-4.171875 -8.609375q-0.125 -0.28125 -0.03125 -0.515625q0.09375 -0.25 0.375 -0.390625q0.28125 -0.125 0.515625 -0.03125q0.25 0.078125 0.375 0.359375l4.09375 8.609375q0.140625 0.28125 0.078125 0.53125q-0.046875 0.234375 -0.328125 0.375z" fill-rule="nonzero"/><path fill="#281e96" d="m210.33936 411.5702q-1.484375 0 -2.625 -0.671875q-1.140625 -0.6875 -1.8125 -1.859375q-0.65625 -1.1875 -0.65625 -2.65625q0 -1.484375 0.625 -2.65625q0.640625 -1.1875 1.734375 -1.859375q1.109375 -0.6875 2.546875 -0.6875q1.140625 0 2.09375 0.453125q0.96875 0.4375 1.6875 1.34375q0.203125 0.21875 0.140625 0.46875q-0.046875 0.25 -0.3125 0.4375q-0.203125 0.15625 -0.453125 0.109375q-0.25 -0.046875 -0.4375 -0.28125q-1.078125 -1.234375 -2.71875 -1.234375q-1.046875 0 -1.84375 0.515625q-0.78125 0.5 -1.234375 1.375q-0.4375 0.875 -0.4375 2.015625q0 1.125 0.46875 2.0q0.46875 0.875 1.3125 1.375q0.84375 0.5 1.921875 0.5q0.71875 0 1.328125 -0.1875q0.609375 -0.203125 1.078125 -0.609375q0.21875 -0.1875 0.453125 -0.203125q0.25 -0.015625 0.453125 0.140625q0.234375 0.21875 0.25 0.484375q0.03125 0.25 -0.171875 0.4375q-1.359375 1.25 -3.390625 1.25zm11.00975 0.015625q-1.328125 0 -2.375 -0.546875q-1.046875 -0.546875 -1.65625 -1.609375q-0.59375 -1.0625 -0.59375 -2.59375l0 -4.859375q0 -0.296875 0.203125 -0.5q0.203125 -0.203125 0.5 -0.203125q0.3125 0 0.515625 0.203125q0.203125 0.203125 0.203125 0.5l0 4.859375q0 1.15625 0.4375 1.90625q0.453125 0.734375 1.203125 1.109375q0.75 0.375 1.703125 0.375q0.921875 0 1.65625 -0.34375q0.734375 -0.359375 1.15625 -0.96875q0.4375 -0.625 0.4375 -1.40625l1.03125 0q-0.0625 1.171875 -0.65625 2.09375q-0.578125 0.921875 -1.578125 1.453125q-0.984375 0.53125 -2.1875 0.53125zm4.09375 -0.109375q-0.3125 0 -0.515625 -0.1875q-0.1875 -0.203125 -0.1875 -0.546875l0 -8.765625q0 -0.3125 0.1875 -0.5q0.203125 -0.203125 0.515625 -0.203125q0.328125 0 0.53125 0.203125q0.203125 0.1875 0.203125 0.5l0 8.765625q0 0.34375 -0.203125 0.546875q-0.203125 0.1875 -0.53125 0.1875zm4.6927795 -6.28125q0.046875 -1.15625 0.59375 -2.0625q0.5625 -0.921875 1.4375 -1.4375q0.890625 -0.53125 1.96875 -0.53125q0.859375 0 1.328125 0.25q0.46875 0.234375 0.359375 0.703125q-0.078125 0.28125 -0.265625 0.375q-0.171875 0.078125 -0.421875 0.0625q-0.25 -0.015625 -0.5625 -0.03125q-1.046875 -0.09375 -1.859375 0.21875q-0.8125 0.296875 -1.296875 0.9375q-0.46875 0.640625 -0.46875 1.515625l-0.8125 0zm0.109375 6.28125q-0.34375 0 -0.53125 -0.1875q-0.1875 -0.1875 -0.1875 -0.515625l0 -8.796875q0 -0.328125 0.1875 -0.515625q0.1875 -0.1875 0.53125 -0.1875q0.328125 0 0.515625 0.1875q0.1875 0.1875 0.1875 0.515625l0 8.796875q0 0.328125 -0.1875 0.515625q-0.1875 0.1875 -0.515625 0.1875zm11.325821 0q-0.453125 0 -0.671875 -0.484375l-4.140625 -8.78125q-0.109375 -0.25 -0.03125 -0.484375q0.09375 -0.25 0.375 -0.375q0.265625 -0.140625 0.5 -0.046875q0.25 0.09375 0.375 0.34375l3.984375 8.59375l-0.765625 0l3.921875 -8.59375q0.109375 -0.265625 0.375 -0.34375q0.265625 -0.09375 0.53125 0.015625q0.265625 0.140625 0.359375 0.390625q0.09375 0.25 -0.015625 0.46875l-4.09375 8.8125q-0.21875 0.484375 -0.703125 0.484375zm11.084198 0.09375q-1.515625 0 -2.6875 -0.65625q-1.15625 -0.671875 -1.828125 -1.84375q-0.65625 -1.171875 -0.65625 -2.6875q0 -1.53125 0.625 -2.6875q0.625 -1.171875 1.71875 -1.84375q1.109375 -0.671875 2.546875 -0.671875q1.40625 0 2.453125 0.640625q1.0625 0.640625 1.640625 1.78125q0.578125 1.140625 0.578125 2.59375q0 0.296875 -0.1875 0.484375q-0.1875 0.171875 -0.484375 0.171875l-7.921875 0l0 -1.203125l8.078125 0l-0.796875 0.578125q0.015625 -1.078125 -0.40625 -1.9375q-0.40625 -0.859375 -1.15625 -1.34375q-0.75 -0.484375 -1.796875 -0.484375q-1.0625 0 -1.875 0.515625q-0.796875 0.5 -1.234375 1.390625q-0.4375 0.875 -0.4375 2.015625q0 1.140625 0.484375 2.015625q0.5 0.875 1.359375 1.390625q0.859375 0.5 1.984375 0.5q0.671875 0 1.34375 -0.234375q0.6875 -0.234375 1.09375 -0.59375q0.203125 -0.171875 0.46875 -0.171875q0.265625 -0.015625 0.4375 0.140625q0.25 0.21875 0.25 0.484375q0.015625 0.25 -0.203125 0.4375q-0.625 0.53125 -1.578125 0.875q-0.9375 0.34375 -1.8125 0.34375z" fill-rule="nonzero"/><path fill="#000000" fill-opacity="0.0" d="m177.61679 202.86089l146.20474 0l0 35.3071l-146.20474 0z" fill-rule="evenodd"/><path fill="#281e96" d="m189.21054 229.78088q-0.3125 0 -0.53125 -0.203125q-0.203125 -0.203125 -0.203125 -0.53125l0 -13.109375q0 -0.3125 0.203125 -0.515625q0.21875 -0.21875 0.53125 -0.21875q0.328125 0 0.5625 0.265625l8.921875 11.71875l0 -11.25q0 -0.3125 0.203125 -0.515625q0.203125 -0.21875 0.515625 -0.21875q0.296875 0 0.515625 0.21875q0.21875 0.203125 0.21875 0.515625l0 13.109375q0 0.328125 -0.21875 0.53125q-0.21875 0.203125 -0.515625 0.203125q-0.140625 0 -0.296875 -0.046875q-0.15625 -0.0625 -0.25 -0.203125l-8.921875 -11.703125l0 11.21875q0 0.328125 -0.21875 0.53125q-0.21875 0.203125 -0.515625 0.203125zm19.110153 0.09375q-1.515625 0 -2.6875 -0.65625q-1.15625 -0.671875 -1.828125 -1.84375q-0.65625 -1.171875 -0.65625 -2.6875q0 -1.53125 0.625 -2.6875q0.625 -1.171875 1.71875 -1.84375q1.109375 -0.671875 2.546875 -0.671875q1.40625 0 2.453125 0.640625q1.0625 0.640625 1.640625 1.78125q0.578125 1.140625 0.578125 2.59375q0 0.296875 -0.1875 0.484375q-0.1875 0.171875 -0.484375 0.171875l-7.921875 0l0 -1.203125l8.078125 0l-0.796875 0.578125q0.015625 -1.078125 -0.40625 -1.9375q-0.40625 -0.859375 -1.15625 -1.34375q-0.75 -0.484375 -1.796875 -0.484375q-1.0625 0 -1.875 0.515625q-0.796875 0.5 -1.234375 1.390625q-0.4375 0.875 -0.4375 2.015625q0 1.140625 0.484375 2.015625q0.5 0.875 1.359375 1.390625q0.859375 0.5 1.984375 0.5q0.671875 0 1.34375 -0.234375q0.6875 -0.234375 1.09375 -0.59375q0.203125 -0.171875 0.46875 -0.171875q0.265625 -0.015625 0.4375 0.140625q0.25 0.21875 0.25 0.484375q0.015625 0.25 -0.203125 0.4375q-0.625 0.53125 -1.578125 0.875q-0.9375 0.34375 -1.8125 0.34375zm8.769104 -0.09375q-0.25 0 -0.4375 -0.125q-0.1875 -0.140625 -0.265625 -0.34375l-2.90625 -8.734375q-0.109375 -0.453125 0.015625 -0.71875q0.140625 -0.28125 0.53125 -0.28125q0.234375 0 0.421875 0.140625q0.1875 0.125 0.28125 0.40625l2.59375 7.921875l-0.40625 0l2.40625 -7.90625q0.078125 -0.25 0.25 -0.40625q0.171875 -0.15625 0.453125 -0.15625q0.28125 0 0.453125 0.15625q0.1875 0.140625 0.265625 0.40625l2.28125 7.71875l-0.3125 0l2.53125 -7.734375q0.1875 -0.546875 0.703125 -0.546875q0.40625 0 0.546875 0.3125q0.15625 0.296875 0 0.6875l-2.90625 8.734375q-0.078125 0.203125 -0.25 0.34375q-0.171875 0.125 -0.421875 0.125q-0.234375 0 -0.4375 -0.125q-0.1875 -0.140625 -0.25 -0.34375l-2.34375 -7.796875l0.21875 0l-2.34375 7.796875q-0.078125 0.21875 -0.265625 0.34375q-0.1875 0.125 -0.40625 0.125z" fill-rule="nonzero"/><path fill="#281e96" d="m189.02304 256.14026q-0.328125 0 -0.53125 -0.203125q-0.203125 -0.1875 -0.203125 -0.515625l0 -8.8125q0.03125 -1.453125 0.703125 -2.609375q0.6875 -1.171875 1.84375 -1.84375q1.171875 -0.671875 2.625 -0.671875q1.5 0 2.671875 0.6875q1.171875 0.671875 1.84375 1.859375q0.6875 1.171875 0.6875 2.65625q0 1.46875 -0.65625 2.65625q-0.65625 1.171875 -1.796875 1.859375q-1.140625 0.671875 -2.578125 0.671875q-1.25 0 -2.265625 -0.53125q-1.015625 -0.53125 -1.640625 -1.40625l0 5.484375q0 0.328125 -0.203125 0.515625q-0.1875 0.203125 -0.5 0.203125zm4.4375 -5.578125q1.078125 0 1.9375 -0.5q0.859375 -0.5 1.359375 -1.390625q0.5 -0.890625 0.5 -1.984375q0 -1.125 -0.5 -2.0q-0.5 -0.875 -1.359375 -1.390625q-0.859375 -0.515625 -1.9375 -0.515625q-1.0625 0 -1.921875 0.515625q-0.859375 0.515625 -1.34375 1.390625q-0.484375 0.875 -0.484375 2.0q0 1.09375 0.484375 1.984375q0.484375 0.890625 1.34375 1.390625q0.859375 0.5 1.921875 0.5zm8.627472 -5.0625q0.046875 -1.15625 0.59375 -2.0625q0.5625 -0.921875 1.4375 -1.4375q0.890625 -0.53125 1.96875 -0.53125q0.859375 0 1.328125 0.25q0.46875 0.234375 0.359375 0.703125q-0.078125 0.28125 -0.265625 0.375q-0.171875 0.078125 -0.421875 0.0625q-0.25 -0.015625 -0.5625 -0.03125q-1.046875 -0.09375 -1.859375 0.21875q-0.8125 0.296875 -1.296875 0.9375q-0.46875 0.640625 -0.46875 1.515625l-0.8125 0zm0.109375 6.28125q-0.34375 0 -0.53125 -0.1875q-0.1875 -0.1875 -0.1875 -0.515625l0 -8.796875q0 -0.328125 0.1875 -0.515625q0.1875 -0.1875 0.53125 -0.1875q0.328125 0 0.515625 0.1875q0.1875 0.1875 0.1875 0.515625l0 8.796875q0 0.328125 -0.1875 0.515625q-0.1875 0.1875 -0.515625 0.1875zm11.735397 0.09375q-1.5 0 -2.671875 -0.671875q-1.171875 -0.671875 -1.84375 -1.84375q-0.671875 -1.171875 -0.671875 -2.671875q0 -1.515625 0.671875 -2.6875q0.671875 -1.171875 1.84375 -1.84375q1.171875 -0.671875 2.671875 -0.671875q1.484375 0 2.65625 0.671875q1.171875 0.671875 1.84375 1.84375q0.671875 1.171875 0.6875 2.6875q0 1.5 -0.6875 2.671875q-0.671875 1.171875 -1.84375 1.84375q-1.171875 0.671875 -2.65625 0.671875zm0 -1.3125q1.078125 0 1.9375 -0.5q0.859375 -0.5 1.34375 -1.375q0.484375 -0.875 0.484375 -2.0q0 -1.125 -0.484375 -2.0q-0.484375 -0.890625 -1.34375 -1.390625q-0.859375 -0.515625 -1.9375 -0.515625q-1.078125 0 -1.9375 0.515625q-0.859375 0.5 -1.359375 1.390625q-0.5 0.875 -0.5 2.0q0 1.125 0.5 2.0q0.5 0.875 1.359375 1.375q0.859375 0.5 1.9375 0.5zm12.63028 1.3125q-1.484375 0 -2.65625 -0.671875q-1.171875 -0.6875 -1.859375 -1.859375q-0.671875 -1.1875 -0.671875 -2.671875q0 -1.46875 0.65625 -2.640625q0.671875 -1.1875 1.796875 -1.859375q1.140625 -0.6875 2.578125 -0.6875q1.25 0 2.25 0.53125q1.015625 0.53125 1.640625 1.40625l0 -5.484375q0 -0.328125 0.203125 -0.53125q0.203125 -0.203125 0.515625 -0.203125q0.3125 0 0.515625 0.203125q0.21875 0.203125 0.21875 0.53125l0 8.8125q-0.046875 1.453125 -0.734375 2.625q-0.671875 1.15625 -1.84375 1.828125q-1.15625 0.671875 -2.609375 0.671875zm0 -1.3125q1.078125 0 1.921875 -0.5q0.859375 -0.515625 1.34375 -1.390625q0.5 -0.890625 0.5 -2.0q0 -1.109375 -0.5 -1.984375q-0.484375 -0.890625 -1.34375 -1.390625q-0.84375 -0.515625 -1.921875 -0.515625q-1.0625 0 -1.921875 0.515625q-0.859375 0.5 -1.375 1.390625q-0.5 0.875 -0.5 1.984375q0 1.109375 0.5 2.0q0.515625 0.875 1.375 1.390625q0.859375 0.5 1.921875 0.5zm12.986847 1.328125q-1.328125 0 -2.375 -0.546875q-1.046875 -0.546875 -1.65625 -1.609375q-0.59375 -1.0625 -0.59375 -2.59375l0 -4.859375q0 -0.296875 0.203125 -0.5q0.203125 -0.203125 0.5 -0.203125q0.3125 0 0.515625 0.203125q0.203125 0.203125 0.203125 0.5l0 4.859375q0 1.15625 0.4375 1.90625q0.453125 0.734375 1.203125 1.109375q0.75 0.375 1.703125 0.375q0.921875 0 1.65625 -0.34375q0.734375 -0.359375 1.15625 -0.96875q0.4375 -0.625 0.4375 -1.40625l1.03125 0q-0.0625 1.171875 -0.65625 2.09375q-0.578125 0.921875 -1.578125 1.453125q-0.984375 0.53125 -2.1875 0.53125zm4.09375 -0.109375q-0.3125 0 -0.515625 -0.1875q-0.1875 -0.203125 -0.1875 -0.546875l0 -8.765625q0 -0.3125 0.1875 -0.5q0.203125 -0.203125 0.515625 -0.203125q0.328125 0 0.53125 0.203125q0.203125 0.1875 0.203125 0.5l0 8.765625q0 0.34375 -0.203125 0.546875q-0.203125 0.1875 -0.53125 0.1875zm8.645905 0.09375q-1.484375 0 -2.625 -0.671875q-1.140625 -0.6875 -1.8125 -1.859375q-0.65625 -1.1875 -0.65625 -2.65625q0 -1.484375 0.625 -2.65625q0.640625 -1.1875 1.734375 -1.859375q1.109375 -0.6875 2.546875 -0.6875q1.140625 0 2.09375 0.453125q0.96875 0.4375 1.6875 1.34375q0.20314026 0.21875 0.14064026 0.46875q-0.04689026 0.25 -0.31251526 0.4375q-0.203125 0.15625 -0.453125 0.109375q-0.25 -0.046875 -0.4375 -0.28125q-1.078125 -1.234375 -2.71875 -1.234375q-1.046875 0 -1.84375 0.515625q-0.78125 0.5 -1.234375 1.375q-0.4375 0.875 -0.4375 2.015625q0 1.125 0.46875 2.0q0.46875 0.875 1.3125 1.375q0.84375 0.5 1.921875 0.5q0.71875 0 1.328125 -0.1875q0.609375 -0.203125 1.078125 -0.609375q0.21875 -0.1875 0.453125 -0.203125q0.25 -0.015625 0.453125 0.140625q0.234375 0.21875 0.25 0.484375q0.03125 0.25 -0.171875 0.4375q-1.359375 1.25 -3.390625 1.25zm10.556625 -0.09375q-0.984375 0 -1.765625 -0.46875q-0.765625 -0.46875 -1.21875 -1.28125q-0.453125 -0.8125 -0.453125 -1.84375l0 -9.125q0 -0.328125 0.1875 -0.53125q0.203125 -0.203125 0.53125 -0.203125q0.3125 0 0.515625 0.203125q0.203125 0.203125 0.203125 0.53125l0 9.125q0 0.9375 0.5625 1.546875q0.5625 0.609375 1.4375 0.609375l0.5 0q0.296875 0 0.484375 0.203125q0.1875 0.203125 0.1875 0.53125q0 0.3125 -0.21875 0.515625q-0.21875 0.1875 -0.5625 0.1875l-0.390625 0zm-4.640625 -8.578125q-0.28125 0 -0.46875 -0.171875q-0.1875 -0.1875 -0.1875 -0.453125q0 -0.28125 0.1875 -0.453125q0.1875 -0.171875 0.46875 -0.171875l4.75 0q0.28125 0 0.46875 0.171875q0.1875 0.171875 0.1875 0.453125q0 0.265625 -0.1875 0.453125q-0.1875 0.171875 -0.46875 0.171875l-4.75 0zm9.171692 8.578125q-0.328125 0 -0.53125 -0.1875q-0.1875 -0.203125 -0.1875 -0.546875l0 -8.75q0 -0.328125 0.1875 -0.515625q0.203125 -0.203125 0.53125 -0.203125q0.3125 0 0.515625 0.203125q0.203125 0.1875 0.203125 0.515625l0 8.75q0 0.34375 -0.203125 0.546875q-0.203125 0.1875 -0.515625 0.1875zm0.0625 -12.140625q-0.421875 0 -0.71875 -0.296875q-0.296875 -0.3125 -0.296875 -0.734375q0 -0.46875 0.3125 -0.734375q0.3125 -0.265625 0.71875 -0.265625q0.390625 0 0.6875 0.265625q0.3125 0.265625 0.3125 0.734375q0 0.421875 -0.296875 0.734375q-0.296875 0.296875 -0.71875 0.296875zm7.7979126 12.140625q-0.453125 0 -0.671875 -0.484375l-4.140625 -8.78125q-0.109375 -0.25 -0.03125 -0.484375q0.09375 -0.25 0.375 -0.375q0.265625 -0.140625 0.5 -0.046875q0.25 0.09375 0.375 0.34375l3.984375 8.59375l-0.765625 0l3.921875 -8.59375q0.109375 -0.265625 0.375 -0.34375q0.265625 -0.09375 0.53125 0.015625q0.265625 0.140625 0.359375 0.390625q0.09375 0.25 -0.015625 0.46875l-4.09375 8.8125q-0.21875 0.484375 -0.703125 0.484375zm7.848175 0q-0.328125 0 -0.53125 -0.1875q-0.1875 -0.203125 -0.1875 -0.546875l0 -8.75q0 -0.328125 0.1875 -0.515625q0.203125 -0.203125 0.53125 -0.203125q0.3125 0 0.515625 0.203125q0.203125 0.1875 0.203125 0.515625l0 8.75q0 0.34375 -0.203125 0.546875q-0.203125 0.1875 -0.515625 0.1875zm0.0625 -12.140625q-0.421875 0 -0.71875 -0.296875q-0.296875 -0.3125 -0.296875 -0.734375q0 -0.46875 0.3125 -0.734375q0.3125 -0.265625 0.71875 -0.265625q0.390625 0 0.6875 0.265625q0.3125 0.265625 0.3125 0.734375q0 0.421875 -0.296875 0.734375q-0.296875 0.296875 -0.71875 0.296875zm8.297913 12.140625q-0.984375 0 -1.765625 -0.46875q-0.765625 -0.46875 -1.21875 -1.28125q-0.453125 -0.8125 -0.453125 -1.84375l0 -9.125q0 -0.328125 0.1875 -0.53125q0.203125 -0.203125 0.53125 -0.203125q0.3125 0 0.515625 0.203125q0.203125 0.203125 0.203125 0.53125l0 9.125q0 0.9375 0.5625 1.546875q0.5625 0.609375 1.4375 0.609375l0.5 0q0.296875 0 0.484375 0.203125q0.1875 0.203125 0.1875 0.53125q0 0.3125 -0.21875 0.515625q-0.21875 0.1875 -0.5625 0.1875l-0.390625 0zm-4.640625 -8.578125q-0.28125 0 -0.46875 -0.171875q-0.1875 -0.1875 -0.1875 -0.453125q0 -0.28125 0.1875 -0.453125q0.1875 -0.171875 0.46875 -0.171875l4.75 0q0.28125 0 0.46875 0.171875q0.1875 0.171875 0.1875 0.453125q0 0.265625 -0.1875 0.453125q-0.1875 0.171875 -0.46875 0.171875l-4.75 0zm9.906067 13.015625q-0.15625 0 -0.34375 -0.078125q-0.625 -0.28125 -0.34375 -0.890625l6.015625 -13.28125q0.28125 -0.59375 0.890625 -0.34375q0.640625 0.265625 0.359375 0.890625l-6.046875 13.28125q-0.1875 0.421875 -0.53125 0.421875zm2.0625 -4.75q-0.28125 0.125 -0.53125 0.046875q-0.234375 -0.09375 -0.375 -0.375l-4.171875 -8.609375q-0.125 -0.28125 -0.03125 -0.515625q0.09375 -0.25 0.375 -0.390625q0.28125 -0.125 0.515625 -0.03125q0.25 0.078125 0.375 0.359375l4.09375 8.609375q0.140625 0.28125 0.078125 0.53125q-0.046875 0.234375 -0.328125 0.375z" fill-rule="nonzero"/><path fill="#281e96" d="m192.85117 273.87463q-1.484375 0 -2.625 -0.671875q-1.140625 -0.6875 -1.8125 -1.859375q-0.65625 -1.1875 -0.65625 -2.65625q0 -1.484375 0.625 -2.65625q0.640625 -1.1875 1.734375 -1.859375q1.109375 -0.6875 2.546875 -0.6875q1.140625 0 2.09375 0.453125q0.96875 0.4375 1.6875 1.34375q0.203125 0.21875 0.140625 0.46875q-0.046875 0.25 -0.3125 0.4375q-0.203125 0.15625 -0.453125 0.109375q-0.25 -0.046875 -0.4375 -0.28125q-1.078125 -1.234375 -2.71875 -1.234375q-1.046875 0 -1.84375 0.515625q-0.78125 0.5 -1.234375 1.375q-0.4375 0.875 -0.4375 2.015625q0 1.125 0.46875 2.0q0.46875 0.875 1.3125 1.375q0.84375 0.5 1.921875 0.5q0.71875 0 1.328125 -0.1875q0.609375 -0.203125 1.078125 -0.609375q0.21875 -0.1875 0.453125 -0.203125q0.25 -0.015625 0.453125 0.140625q0.234375 0.21875 0.25 0.484375q0.03125 0.25 -0.171875 0.4375q-1.359375 1.25 -3.390625 1.25zm11.00975 0.015625q-1.328125 0 -2.375 -0.546875q-1.046875 -0.546875 -1.65625 -1.609375q-0.59375 -1.0625 -0.59375 -2.59375l0 -4.859375q0 -0.296875 0.203125 -0.5q0.203125 -0.203125 0.5 -0.203125q0.3125 0 0.515625 0.203125q0.203125 0.203125 0.203125 0.5l0 4.859375q0 1.15625 0.4375 1.90625q0.453125 0.734375 1.203125 1.109375q0.75 0.375 1.703125 0.375q0.921875 0 1.65625 -0.34375q0.734375 -0.359375 1.15625 -0.96875q0.4375 -0.625 0.4375 -1.40625l1.03125 0q-0.0625 1.171875 -0.65625 2.09375q-0.578125 0.921875 -1.578125 1.453125q-0.984375 0.53125 -2.1875 0.53125zm4.09375 -0.109375q-0.3125 0 -0.515625 -0.1875q-0.1875 -0.203125 -0.1875 -0.546875l0 -8.765625q0 -0.3125 0.1875 -0.5q0.203125 -0.203125 0.515625 -0.203125q0.328125 0 0.53125 0.203125q0.203125 0.1875 0.203125 0.5l0 8.765625q0 0.34375 -0.203125 0.546875q-0.203125 0.1875 -0.53125 0.1875zm4.6927795 -6.28125q0.046875 -1.15625 0.59375 -2.0625q0.5625 -0.921875 1.4375 -1.4375q0.890625 -0.53125 1.96875 -0.53125q0.859375 0 1.328125 0.25q0.46875 0.234375 0.359375 0.703125q-0.078125 0.28125 -0.265625 0.375q-0.171875 0.078125 -0.421875 0.0625q-0.25 -0.015625 -0.5625 -0.03125q-1.046875 -0.09375 -1.859375 0.21875q-0.8125 0.296875 -1.296875 0.9375q-0.46875 0.640625 -0.46875 1.515625l-0.8125 0zm0.109375 6.28125q-0.34375 0 -0.53125 -0.1875q-0.1875 -0.1875 -0.1875 -0.515625l0 -8.796875q0 -0.328125 0.1875 -0.515625q0.1875 -0.1875 0.53125 -0.1875q0.328125 0 0.515625 0.1875q0.1875 0.1875 0.1875 0.515625l0 8.796875q0 0.328125 -0.1875 0.515625q-0.1875 0.1875 -0.515625 0.1875zm11.325821 0q-0.453125 0 -0.671875 -0.484375l-4.140625 -8.78125q-0.109375 -0.25 -0.03125 -0.484375q0.09375 -0.25 0.375 -0.375q0.265625 -0.140625 0.5 -0.046875q0.25 0.09375 0.375 0.34375l3.984375 8.59375l-0.765625 0l3.921875 -8.59375q0.109375 -0.265625 0.375 -0.34375q0.265625 -0.09375 0.53125 0.015625q0.265625 0.140625 0.359375 0.390625q0.09375 0.25 -0.015625 0.46875l-4.09375 8.8125q-0.21875 0.484375 -0.703125 0.484375zm11.084198 0.09375q-1.515625 0 -2.6875 -0.65625q-1.15625 -0.671875 -1.828125 -1.84375q-0.65625 -1.171875 -0.65625 -2.6875q0 -1.53125 0.625 -2.6875q0.625 -1.171875 1.71875 -1.84375q1.109375 -0.671875 2.546875 -0.671875q1.40625 0 2.453125 0.640625q1.0625 0.640625 1.640625 1.78125q0.578125 1.140625 0.578125 2.59375q0 0.296875 -0.1875 0.484375q-0.1875 0.171875 -0.484375 0.171875l-7.921875 0l0 -1.203125l8.078125 0l-0.796875 0.578125q0.015625 -1.078125 -0.40625 -1.9375q-0.40625 -0.859375 -1.15625 -1.34375q-0.75 -0.484375 -1.796875 -0.484375q-1.0625 0 -1.875 0.515625q-0.796875 0.5 -1.234375 1.390625q-0.4375 0.875 -0.4375 2.015625q0 1.140625 0.484375 2.015625q0.5 0.875 1.359375 1.390625q0.859375 0.5 1.984375 0.5q0.671875 0 1.34375 -0.234375q0.6875 -0.234375 1.09375 -0.59375q0.203125 -0.171875 0.46875 -0.171875q0.265625 -0.015625 0.4375 0.140625q0.25 0.21875 0.25 0.484375q0.015625 0.25 -0.203125 0.4375q-0.625 0.53125 -1.578125 0.875q-0.9375 0.34375 -1.8125 0.34375z" fill-rule="nonzero"/><path fill="#000000" fill-opacity="0.0" d="m450.3937 304.29257l1.0393677 204.97638" fill-rule="evenodd"/><path stroke="#d9d9d9" stroke-width="1.0" stroke-linejoin="round" stroke-linecap="butt" d="m450.3937 304.29257l1.0393677 204.97638" fill-rule="evenodd"/><path fill="#000000" fill-opacity="0.0" d="m423.5853 304.86877l54.141724 -0.56692505" fill-rule="evenodd"/><path stroke="#d9d9d9" stroke-width="1.0" stroke-linejoin="round" stroke-linecap="butt" d="m423.5853 304.86877l54.141724 -0.56692505" fill-rule="evenodd"/><path fill="#000000" fill-opacity="0.0" d="m450.39362 393.39948l153.44879 0l0 33.102356l-153.44879 0z" fill-rule="evenodd"/><path fill="#4332ff" d="m460.3155 413.91946q-0.1875 0 -0.328125 -0.140625q-0.140625 -0.140625 -0.140625 -0.328125l0 -8.4375q0 -0.203125 0.125 -0.328125q0.140625 -0.140625 0.34375 -0.140625l5.625 0q0.203125 0 0.328125 0.125q0.140625 0.125 0.140625 0.328125q0 0.1875 -0.140625 0.328125q-0.125 0.125 -0.328125 0.125l-5.15625 0l0 3.3125l3.75 0q0.21875 0 0.34375 0.140625q0.125 0.125 0.125 0.3125q0 0.1875 -0.125 0.328125q-0.125 0.125 -0.34375 0.125l-3.75 0l0 3.78125q0 0.1875 -0.140625 0.328125q-0.125 0.140625 -0.328125 0.140625zm8.3125305 0q-0.203125 0 -0.34375 -0.125q-0.125 -0.125 -0.125 -0.34375l0 -5.625q0 -0.21875 0.125 -0.34375q0.140625 -0.125 0.34375 -0.125q0.203125 0 0.328125 0.125q0.140625 0.125 0.140625 0.34375l0 5.625q0 0.21875 -0.140625 0.34375q-0.125 0.125 -0.328125 0.125zm0.046875 -7.8125q-0.265625 0 -0.46875 -0.1875q-0.1875 -0.203125 -0.1875 -0.46875q0 -0.296875 0.203125 -0.46875q0.203125 -0.1875 0.453125 -0.1875q0.265625 0 0.453125 0.1875q0.203125 0.171875 0.203125 0.46875q0 0.265625 -0.203125 0.46875q-0.1875 0.1875 -0.453125 0.1875zm8.389893 7.8125q-0.203125 0 -0.34375 -0.125q-0.125 -0.140625 -0.125 -0.328125l0 -3.125q0 -0.734375 -0.28125 -1.21875q-0.28125 -0.484375 -0.765625 -0.71875q-0.484375 -0.25 -1.09375 -0.25q-0.59375 0 -1.0625 0.234375q-0.46875 0.234375 -0.75 0.625q-0.28125 0.390625 -0.28125 0.890625l-0.65625 0q0.03125 -0.75 0.40625 -1.34375q0.390625 -0.59375 1.015625 -0.9375q0.640625 -0.34375 1.421875 -0.34375q0.859375 0 1.53125 0.359375q0.671875 0.359375 1.046875 1.046875q0.390625 0.671875 0.390625 1.65625l0 3.125q0 0.1875 -0.125 0.328125q-0.125 0.125 -0.328125 0.125zm-5.15625 0q-0.21875 0 -0.34375 -0.125q-0.125 -0.125 -0.125 -0.328125l0 -5.640625q0 -0.21875 0.125 -0.34375q0.125 -0.125 0.34375 -0.125q0.203125 0 0.328125 0.125q0.125 0.125 0.125 0.34375l0 5.640625q0 0.203125 -0.125 0.328125q-0.125 0.125 -0.328125 0.125zm10.545929 0.0625q-0.921875 0 -1.65625 -0.4375q-0.734375 -0.4375 -1.15625 -1.1875q-0.421875 -0.765625 -0.421875 -1.71875q0 -0.953125 0.4375 -1.703125q0.4375 -0.765625 1.1875 -1.203125q0.765625 -0.4375 1.703125 -0.4375q0.953125 0 1.703125 0.4375q0.75 0.4375 1.1875 1.203125q0.4375 0.75 0.453125 1.703125l-0.375 0.296875q0 0.859375 -0.40625 1.546875q-0.390625 0.6875 -1.09375 1.09375q-0.6875 0.40625 -1.5625 0.40625zm0.09375 -0.84375q0.703125 0 1.25 -0.3125q0.546875 -0.328125 0.859375 -0.890625q0.3125 -0.578125 0.3125 -1.296875q0 -0.71875 -0.3125 -1.28125q-0.3125 -0.5625 -0.859375 -0.890625q-0.546875 -0.328125 -1.25 -0.328125q-0.671875 0 -1.234375 0.328125q-0.546875 0.328125 -0.875 0.890625q-0.328125 0.5625 -0.328125 1.28125q0 0.71875 0.328125 1.296875q0.328125 0.5625 0.875 0.890625q0.5625 0.3125 1.234375 0.3125zm2.875 0.78125q-0.203125 0 -0.34375 -0.125q-0.125 -0.125 -0.125 -0.328125l0 -2.0625l0.234375 -0.9375l0.703125 0.171875l0 2.828125q0 0.203125 -0.140625 0.328125q-0.125 0.125 -0.328125 0.125zm3.686554 0q-0.484375 0 -0.859375 -0.265625q-0.375 -0.265625 -0.59375 -0.734375q-0.203125 -0.46875 -0.203125 -1.078125l0 -6.84375q0 -0.203125 0.125 -0.328125q0.125 -0.125 0.328125 -0.125q0.203125 0 0.328125 0.125q0.125 0.125 0.125 0.328125l0 6.84375q0 0.515625 0.203125 0.84375q0.21875 0.328125 0.546875 0.328125l0.296875 0q0.171875 0 0.28125 0.125q0.109375 0.125 0.109375 0.328125q0 0.203125 -0.15625 0.328125q-0.140625 0.125 -0.375 0.125l-0.15625 0z" fill-rule="nonzero"/><path fill="#4332ff" d="m463.33112 427.9976q-0.859375 0 -1.53125 -0.359375q-0.671875 -0.359375 -1.0625 -1.03125q-0.390625 -0.6875 -0.390625 -1.671875l0 -3.125q0 -0.1875 0.125 -0.3125q0.140625 -0.140625 0.34375 -0.140625q0.203125 0 0.328125 0.140625q0.140625 0.125 0.140625 0.3125l0 3.125q0 0.734375 0.28125 1.21875q0.28125 0.484375 0.765625 0.734375q0.484375 0.234375 1.09375 0.234375q0.59375 0 1.0625 -0.234375q0.46875 -0.234375 0.75 -0.625q0.28125 -0.390625 0.28125 -0.90625l0.65625 0q-0.03125 0.765625 -0.421875 1.359375q-0.375 0.59375 -1.015625 0.9375q-0.625 0.34375 -1.40625 0.34375zm2.640625 -0.078125q-0.203125 0 -0.328125 -0.125q-0.125 -0.125 -0.125 -0.34375l0 -5.640625q0 -0.203125 0.125 -0.328125q0.125 -0.125 0.328125 -0.125q0.203125 0 0.328125 0.125q0.140625 0.125 0.140625 0.328125l0 5.640625q0 0.21875 -0.140625 0.34375q-0.125 0.125 -0.328125 0.125zm8.249054 0q-0.203125 0 -0.34375 -0.125q-0.125 -0.140625 -0.125 -0.328125l0 -3.125q0 -0.734375 -0.28125 -1.21875q-0.28125 -0.484375 -0.765625 -0.71875q-0.484375 -0.25 -1.09375 -0.25q-0.59375 0 -1.0625 0.234375q-0.46875 0.234375 -0.75 0.625q-0.28125 0.390625 -0.28125 0.890625l-0.65625 0q0.03125 -0.75 0.40625 -1.34375q0.390625 -0.59375 1.015625 -0.9375q0.640625 -0.34375 1.421875 -0.34375q0.859375 0 1.53125 0.359375q0.671875 0.359375 1.046875 1.046875q0.390625 0.671875 0.390625 1.65625l0 3.125q0 0.1875 -0.125 0.328125q-0.125 0.125 -0.328125 0.125zm-5.15625 0q-0.21875 0 -0.34375 -0.125q-0.125 -0.125 -0.125 -0.328125l0 -5.640625q0 -0.21875 0.125 -0.34375q0.125 -0.125 0.34375 -0.125q0.203125 0 0.328125 0.125q0.125 0.125 0.125 0.34375l0 5.640625q0 0.203125 -0.125 0.328125q-0.125 0.125 -0.328125 0.125zm10.545929 0.0625q-0.921875 0 -1.65625 -0.4375q-0.734375 -0.4375 -1.15625 -1.1875q-0.421875 -0.765625 -0.421875 -1.71875q0 -0.953125 0.4375 -1.703125q0.4375 -0.765625 1.1875 -1.203125q0.765625 -0.4375 1.703125 -0.4375q0.953125 0 1.703125 0.4375q0.75 0.4375 1.1875 1.203125q0.4375 0.75 0.453125 1.703125l-0.375 0.296875q0 0.859375 -0.40625 1.546875q-0.390625 0.6875 -1.09375 1.09375q-0.6875 0.40625 -1.5625 0.40625zm0.09375 -0.84375q0.703125 0 1.25 -0.3125q0.546875 -0.328125 0.859375 -0.890625q0.3125 -0.578125 0.3125 -1.296875q0 -0.71875 -0.3125 -1.28125q-0.3125 -0.5625 -0.859375 -0.890625q-0.546875 -0.328125 -1.25 -0.328125q-0.671875 0 -1.234375 0.328125q-0.546875 0.328125 -0.875 0.890625q-0.328125 0.5625 -0.328125 1.28125q0 0.71875 0.328125 1.296875q0.328125 0.5625 0.875 0.890625q0.5625 0.3125 1.234375 0.3125zm2.875 0.78125q-0.203125 0 -0.34375 -0.125q-0.125 -0.125 -0.125 -0.328125l0 -2.0625l0.234375 -0.9375l0.703125 0.171875l0 2.828125q0 0.203125 -0.140625 0.328125q-0.125 0.125 -0.328125 0.125zm4.561554 0.0625q-0.71875 0 -1.421875 -0.234375q-0.6875 -0.25 -1.109375 -0.734375q-0.140625 -0.140625 -0.125 -0.3125q0.03125 -0.1875 0.1875 -0.3125q0.171875 -0.125 0.34375 -0.09375q0.1875 0.015625 0.3125 0.15625q0.28125 0.328125 0.75 0.515625q0.484375 0.171875 1.0625 0.171875q0.890625 0 1.28125 -0.296875q0.390625 -0.3125 0.40625 -0.75q0 -0.421875 -0.40625 -0.703125q-0.40625 -0.28125 -1.34375 -0.4375q-1.21875 -0.203125 -1.78125 -0.671875q-0.5625 -0.484375 -0.5625 -1.140625q0 -0.625 0.328125 -1.03125q0.328125 -0.40625 0.859375 -0.609375q0.546875 -0.203125 1.1875 -0.203125q0.8125 0 1.390625 0.28125q0.578125 0.265625 0.9375 0.734375q0.125 0.15625 0.09375 0.328125q-0.015625 0.171875 -0.1875 0.28125q-0.140625 0.078125 -0.328125 0.046875q-0.1875 -0.03125 -0.3125 -0.171875q-0.3125 -0.34375 -0.703125 -0.5q-0.390625 -0.171875 -0.90625 -0.171875q-0.671875 0 -1.0625 0.28125q-0.390625 0.265625 -0.390625 0.671875q0 0.265625 0.140625 0.484375q0.15625 0.203125 0.515625 0.359375q0.375 0.140625 1.03125 0.25q0.90625 0.15625 1.421875 0.4375q0.53125 0.28125 0.75 0.65625q0.21875 0.375 0.21875 0.8125q0 0.578125 -0.328125 1.0q-0.328125 0.421875 -0.921875 0.671875q-0.578125 0.234375 -1.328125 0.234375zm6.468048 0q-0.71875 0 -1.421875 -0.234375q-0.6875 -0.25 -1.109375 -0.734375q-0.140625 -0.140625 -0.125 -0.3125q0.03125 -0.1875 0.1875 -0.3125q0.171875 -0.125 0.34375 -0.09375q0.1875 0.015625 0.3125 0.15625q0.28125 0.328125 0.75 0.515625q0.484375 0.171875 1.0625 0.171875q0.890625 0 1.28125 -0.296875q0.390625 -0.3125 0.40625 -0.75q0 -0.421875 -0.40625 -0.703125q-0.40625 -0.28125 -1.34375 -0.4375q-1.21875 -0.203125 -1.78125 -0.671875q-0.5625 -0.484375 -0.5625 -1.140625q0 -0.625 0.328125 -1.03125q0.328125 -0.40625 0.859375 -0.609375q0.546875 -0.203125 1.1875 -0.203125q0.8125 0 1.390625 0.28125q0.578125 0.265625 0.9375 0.734375q0.125 0.15625 0.09375 0.328125q-0.015625 0.171875 -0.1875 0.28125q-0.140625 0.078125 -0.328125 0.046875q-0.1875 -0.03125 -0.3125 -0.171875q-0.3125 -0.34375 -0.703125 -0.5q-0.390625 -0.171875 -0.90625 -0.171875q-0.671875 0 -1.0625 0.28125q-0.390625 0.265625 -0.390625 0.671875q0 0.265625 0.140625 0.484375q0.15625 0.203125 0.515625 0.359375q0.375 0.140625 1.03125 0.25q0.90625 0.15625 1.421875 0.4375q0.53125 0.28125 0.75 0.65625q0.21875 0.375 0.21875 0.8125q0 0.578125 -0.328125 1.0q-0.328125 0.421875 -0.921875 0.671875q-0.578125 0.234375 -1.328125 0.234375zm4.827423 -0.0625q-0.203125 0 -0.34375 -0.125q-0.125 -0.125 -0.125 -0.34375l0 -5.625q0 -0.21875 0.125 -0.34375q0.140625 -0.125 0.34375 -0.125q0.203125 0 0.328125 0.125q0.140625 0.125 0.140625 0.34375l0 5.625q0 0.21875 -0.140625 0.34375q-0.125 0.125 -0.328125 0.125zm0.046875 -7.8125q-0.265625 0 -0.46875 -0.1875q-0.1875 -0.203125 -0.1875 -0.46875q0 -0.296875 0.203125 -0.46875q0.203125 -0.1875 0.453125 -0.1875q0.265625 0 0.453125 0.1875q0.203125 0.171875 0.203125 0.46875q0 0.265625 -0.203125 0.46875q-0.1875 0.1875 -0.453125 0.1875zm5.0617676 7.875q-0.71875 0 -1.421875 -0.234375q-0.6875 -0.25 -1.109375 -0.734375q-0.140625 -0.140625 -0.125 -0.3125q0.03125 -0.1875 0.1875 -0.3125q0.171875 -0.125 0.34375 -0.09375q0.1875 0.015625 0.3125 0.15625q0.28125 0.328125 0.75 0.515625q0.484375 0.171875 1.0625 0.171875q0.890625 0 1.28125 -0.296875q0.390625 -0.3125 0.40625 -0.75q0 -0.421875 -0.40625 -0.703125q-0.40625 -0.28125 -1.34375 -0.4375q-1.21875 -0.203125 -1.78125 -0.671875q-0.5625 -0.484375 -0.5625 -1.140625q0 -0.625 0.328125 -1.03125q0.328125 -0.40625 0.859375 -0.609375q0.546875 -0.203125 1.1875 -0.203125q0.8125 0 1.390625 0.28125q0.578125 0.265625 0.9375 0.734375q0.125 0.15625 0.09375 0.328125q-0.015625 0.171875 -0.1875 0.28125q-0.140625 0.078125 -0.328125 0.046875q-0.1875 -0.03125 -0.3125 -0.171875q-0.3125 -0.34375 -0.703125 -0.5q-0.390625 -0.171875 -0.90625 -0.171875q-0.671875 0 -1.0625 0.28125q-0.390625 0.265625 -0.390625 0.671875q0 0.265625 0.140625 0.484375q0.15625 0.203125 0.515625 0.359375q0.375 0.140625 1.03125 0.25q0.90625 0.15625 1.421875 0.4375q0.53125 0.28125 0.75 0.65625q0.21875 0.375 0.21875 0.8125q0 0.578125 -0.328125 1.0q-0.328125 0.421875 -0.921875 0.671875q-0.578125 0.234375 -1.328125 0.234375zm6.733673 -0.0625q-0.625 0 -1.125 -0.296875q-0.5 -0.296875 -0.796875 -0.8125q-0.28125 -0.53125 -0.28125 -1.203125l0 -5.875q0 -0.203125 0.125 -0.328125q0.125 -0.140625 0.328125 -0.140625q0.203125 0 0.328125 0.140625q0.140625 0.125 0.140625 0.328125l0 5.875q0 0.609375 0.359375 1.0q0.359375 0.390625 0.921875 0.390625l0.328125 0q0.1875 0 0.3125 0.140625q0.125 0.125 0.125 0.328125q0 0.203125 -0.15625 0.328125q-0.140625 0.125 -0.34375 0.125l-0.265625 0zm-2.984375 -5.515625q-0.171875 0 -0.296875 -0.109375q-0.125 -0.125 -0.125 -0.296875q0 -0.171875 0.125 -0.28125q0.125 -0.125 0.296875 -0.125l3.0625 0q0.1875 0 0.296875 0.125q0.125 0.109375 0.125 0.28125q0 0.171875 -0.125 0.296875q-0.109375 0.109375 -0.296875 0.109375l-3.0625 0zm8.230286 5.578125q-0.984375 0 -1.734375 -0.421875q-0.75 -0.4375 -1.171875 -1.1875q-0.421875 -0.75 -0.421875 -1.734375q0 -0.984375 0.390625 -1.734375q0.40625 -0.75 1.109375 -1.171875q0.71875 -0.4375 1.640625 -0.4375q0.90625 0 1.578125 0.421875q0.6875 0.40625 1.0625 1.140625q0.375 0.734375 0.375 1.671875q0 0.1875 -0.125 0.3125q-0.125 0.109375 -0.3125 0.109375l-5.09375 0l0 -0.78125l5.1875 0l-0.515625 0.375q0.015625 -0.6875 -0.25 -1.234375q-0.265625 -0.5625 -0.75 -0.875q-0.484375 -0.3125 -1.15625 -0.3125q-0.6875 0 -1.203125 0.328125q-0.515625 0.328125 -0.796875 0.890625q-0.28125 0.5625 -0.28125 1.296875q0 0.734375 0.3125 1.296875q0.328125 0.5625 0.875 0.890625q0.5625 0.328125 1.28125 0.328125q0.421875 0 0.859375 -0.140625q0.4375 -0.15625 0.703125 -0.390625q0.140625 -0.109375 0.296875 -0.109375q0.171875 -0.015625 0.296875 0.09375q0.15625 0.140625 0.15625 0.3125q0.015625 0.15625 -0.140625 0.28125q-0.390625 0.328125 -1.0 0.5625q-0.609375 0.21875 -1.171875 0.21875zm7.1280518 0q-0.9375 0 -1.703125 -0.4375q-0.75 -0.4375 -1.1875 -1.1875q-0.4375 -0.765625 -0.4375 -1.71875q0 -0.953125 0.421875 -1.703125q0.421875 -0.765625 1.15625 -1.203125q0.734375 -0.4375 1.65625 -0.4375q0.8125 0 1.453125 0.34375q0.65625 0.34375 1.046875 0.90625l0 -3.53125q0 -0.21875 0.125 -0.34375q0.140625 -0.125 0.34375 -0.125q0.203125 0 0.328125 0.125q0.140625 0.125 0.140625 0.34375l0 5.671875q-0.03125 0.9375 -0.46875 1.6875q-0.4375 0.75 -1.1875 1.1875q-0.75 0.421875 -1.6875 0.421875zm0 -0.84375q0.703125 0 1.25 -0.328125q0.546875 -0.328125 0.859375 -0.890625q0.3125 -0.5625 0.3125 -1.28125q0 -0.71875 -0.3125 -1.28125q-0.3125 -0.578125 -0.859375 -0.890625q-0.546875 -0.328125 -1.25 -0.328125q-0.671875 0 -1.234375 0.328125q-0.546875 0.3125 -0.875 0.890625q-0.328125 0.5625 -0.328125 1.28125q0 0.71875 0.328125 1.28125q0.328125 0.5625 0.875 0.890625q0.5625 0.328125 1.234375 0.328125z" fill-rule="nonzero"/><path fill="#4332ff" d="m460.9405 444.73196q-0.21875 0 -0.34375 -0.125q-0.125 -0.125 -0.125 -0.34375l0 -5.671875q0.015625 -0.9375 0.453125 -1.6875q0.4375 -0.75 1.1875 -1.171875q0.75 -0.4375 1.6875 -0.4375q0.953125 0 1.703125 0.4375q0.765625 0.4375 1.203125 1.203125q0.4375 0.75 0.4375 1.703125q0 0.953125 -0.421875 1.71875q-0.421875 0.75 -1.15625 1.1875q-0.734375 0.4375 -1.65625 0.4375q-0.8125 0 -1.46875 -0.34375q-0.640625 -0.34375 -1.046875 -0.90625l0 3.53125q0 0.21875 -0.125 0.34375q-0.125 0.125 -0.328125 0.125zm2.859375 -3.59375q0.6875 0 1.234375 -0.3125q0.5625 -0.328125 0.875 -0.890625q0.328125 -0.578125 0.328125 -1.296875q0 -0.71875 -0.328125 -1.28125q-0.3125 -0.5625 -0.875 -0.890625q-0.546875 -0.328125 -1.234375 -0.328125q-0.6875 0 -1.25 0.328125q-0.546875 0.328125 -0.859375 0.890625q-0.3125 0.5625 -0.3125 1.28125q0 0.71875 0.3125 1.296875q0.3125 0.5625 0.859375 0.890625q0.5625 0.3125 1.25 0.3125zm5.5465393 -3.265625q0.03125 -0.734375 0.375 -1.328125q0.359375 -0.59375 0.921875 -0.921875q0.578125 -0.34375 1.28125 -0.34375q0.546875 0 0.84375 0.15625q0.3125 0.15625 0.234375 0.453125q-0.046875 0.1875 -0.171875 0.25q-0.109375 0.0625 -0.265625 0.046875q-0.15625 -0.015625 -0.375 -0.03125q-0.671875 -0.046875 -1.1875 0.15625q-0.515625 0.1875 -0.828125 0.59375q-0.3125 0.40625 -0.3125 0.96875l-0.515625 0zm0.0625 4.046875q-0.21875 0 -0.34375 -0.109375q-0.109375 -0.125 -0.109375 -0.34375l0 -5.65625q0 -0.21875 0.109375 -0.328125q0.125 -0.125 0.34375 -0.125q0.21875 0 0.328125 0.125q0.125 0.109375 0.125 0.328125l0 5.65625q0 0.21875 -0.125 0.34375q-0.109375 0.109375 -0.328125 0.109375zm7.5473022 0.0625q-0.953125 0 -1.71875 -0.421875q-0.75 -0.4375 -1.1875 -1.1875q-0.421875 -0.765625 -0.421875 -1.734375q0 -0.96875 0.421875 -1.71875q0.4375 -0.765625 1.1875 -1.1875q0.765625 -0.4375 1.71875 -0.4375q0.96875 0 1.71875 0.4375q0.75 0.421875 1.171875 1.1875q0.4375 0.75 0.453125 1.71875q0 0.96875 -0.4375 1.734375q-0.4375 0.75 -1.1875 1.1875q-0.75 0.421875 -1.71875 0.421875zm0 -0.84375q0.703125 0 1.25 -0.3125q0.5625 -0.328125 0.859375 -0.890625q0.3125 -0.578125 0.3125 -1.296875q0 -0.71875 -0.3125 -1.28125q-0.296875 -0.578125 -0.859375 -0.890625q-0.546875 -0.328125 -1.25 -0.328125q-0.6875 0 -1.25 0.328125q-0.546875 0.3125 -0.875 0.890625q-0.3125 0.5625 -0.3125 1.28125q0 0.71875 0.3125 1.296875q0.328125 0.5625 0.875 0.890625q0.5625 0.3125 1.25 0.3125zm8.124054 0.84375q-0.9375 0 -1.703125 -0.4375q-0.75 -0.4375 -1.1875 -1.1875q-0.4375 -0.765625 -0.4375 -1.71875q0 -0.953125 0.421875 -1.703125q0.421875 -0.765625 1.15625 -1.203125q0.734375 -0.4375 1.65625 -0.4375q0.8125 0 1.453125 0.34375q0.65625 0.34375 1.046875 0.90625l0 -3.53125q0 -0.21875 0.125 -0.34375q0.140625 -0.125 0.34375 -0.125q0.203125 0 0.328125 0.125q0.140625 0.125 0.140625 0.34375l0 5.671875q-0.03125 0.9375 -0.46875 1.6875q-0.4375 0.75 -1.1875 1.1875q-0.75 0.421875 -1.6875 0.421875zm0 -0.84375q0.703125 0 1.25 -0.328125q0.546875 -0.328125 0.859375 -0.890625q0.3125 -0.5625 0.3125 -1.28125q0 -0.71875 -0.3125 -1.28125q-0.3125 -0.578125 -0.859375 -0.890625q-0.546875 -0.328125 -1.25 -0.328125q-0.671875 0 -1.234375 0.328125q-0.546875 0.3125 -0.875 0.890625q-0.328125 0.5625 -0.328125 1.28125q0 0.71875 0.328125 1.28125q0.328125 0.5625 0.875 0.890625q0.5625 0.328125 1.234375 0.328125zm8.359039 0.859375q-0.859375 0 -1.53125 -0.359375q-0.671875 -0.359375 -1.0625 -1.03125q-0.390625 -0.6875 -0.390625 -1.671875l0 -3.125q0 -0.1875 0.125 -0.3125q0.140625 -0.140625 0.34375 -0.140625q0.203125 0 0.328125 0.140625q0.140625 0.125 0.140625 0.3125l0 3.125q0 0.734375 0.28125 1.21875q0.28125 0.484375 0.765625 0.734375q0.484375 0.234375 1.09375 0.234375q0.59375 0 1.0625 -0.234375q0.46875 -0.234375 0.75 -0.625q0.28125 -0.390625 0.28125 -0.90625l0.65625 0q-0.03125 0.765625 -0.421875 1.359375q-0.375 0.59375 -1.015625 0.9375q-0.625 0.34375 -1.40625 0.34375zm2.640625 -0.078125q-0.203125 0 -0.328125 -0.125q-0.125 -0.125 -0.125 -0.34375l0 -5.640625q0 -0.203125 0.125 -0.328125q0.125 -0.125 0.328125 -0.125q0.203125 0 0.328125 0.125q0.140625 0.125 0.140625 0.328125l0 5.640625q0 0.21875 -0.140625 0.34375q-0.125 0.125 -0.328125 0.125zm5.561554 0.0625q-0.953125 0 -1.703125 -0.4375q-0.734375 -0.4375 -1.15625 -1.1875q-0.421875 -0.765625 -0.421875 -1.71875q0 -0.953125 0.40625 -1.703125q0.40625 -0.765625 1.109375 -1.203125q0.71875 -0.4375 1.640625 -0.4375q0.734375 0 1.34375 0.296875q0.625 0.28125 1.09375 0.859375q0.125 0.140625 0.09375 0.3125q-0.03125 0.15625 -0.203125 0.265625q-0.140625 0.109375 -0.296875 0.078125q-0.15625 -0.03125 -0.28125 -0.171875q-0.703125 -0.796875 -1.75 -0.796875q-0.671875 0 -1.1875 0.328125q-0.5 0.3125 -0.796875 0.875q-0.28125 0.5625 -0.28125 1.296875q0 0.71875 0.296875 1.296875q0.3125 0.5625 0.84375 0.890625q0.546875 0.3125 1.25 0.3125q0.453125 0 0.84375 -0.125q0.390625 -0.125 0.703125 -0.390625q0.140625 -0.125 0.296875 -0.125q0.15625 -0.015625 0.28125 0.09375q0.140625 0.125 0.15625 0.296875q0.03125 0.171875 -0.109375 0.28125q-0.875 0.8125 -2.171875 0.8125zm6.777069 -0.0625q-0.625 0 -1.125 -0.296875q-0.5 -0.296875 -0.796875 -0.8125q-0.28125 -0.53125 -0.28125 -1.203125l0 -5.875q0 -0.203125 0.125 -0.328125q0.125 -0.140625 0.328125 -0.140625q0.203125 0 0.328125 0.140625q0.140625 0.125 0.140625 0.328125l0 5.875q0 0.609375 0.359375 1.0q0.359375 0.390625 0.921875 0.390625l0.328125 0q0.1875 0 0.3125 0.140625q0.125 0.125 0.125 0.328125q0 0.203125 -0.15625 0.328125q-0.140625 0.125 -0.34375 0.125l-0.265625 0zm-2.984375 -5.515625q-0.171875 0 -0.296875 -0.109375q-0.125 -0.125 -0.125 -0.296875q0 -0.171875 0.125 -0.28125q0.125 -0.125 0.296875 -0.125l3.0625 0q0.1875 0 0.296875 0.125q0.125 0.109375 0.125 0.28125q0 0.171875 -0.125 0.296875q-0.109375 0.109375 -0.296875 0.109375l-3.0625 0zm5.9021606 5.515625q-0.203125 0 -0.34375 -0.125q-0.125 -0.125 -0.125 -0.34375l0 -5.625q0 -0.21875 0.125 -0.34375q0.140625 -0.125 0.34375 -0.125q0.203125 0 0.328125 0.125q0.140625 0.125 0.140625 0.34375l0 5.625q0 0.21875 -0.140625 0.34375q-0.125 0.125 -0.328125 0.125zm0.046875 -7.8125q-0.265625 0 -0.46875 -0.1875q-0.1875 -0.203125 -0.1875 -0.46875q0 -0.296875 0.203125 -0.46875q0.203125 -0.1875 0.453125 -0.1875q0.265625 0 0.453125 0.1875q0.20309448 0.171875 0.20309448 0.46875q0 0.265625 -0.20309448 0.46875q-0.1875 0.1875 -0.453125 0.1875zm5.014862 7.8125q-0.296875 0 -0.4375 -0.3125l-2.65625 -5.65625q-0.078125 -0.15625 -0.015625 -0.3125q0.0625 -0.15625 0.234375 -0.234375q0.171875 -0.078125 0.328125 -0.015625q0.15625 0.046875 0.234375 0.203125l2.5625 5.53125l-0.5 0l2.53125 -5.53125q0.0625 -0.15625 0.234375 -0.203125q0.1875 -0.0625 0.34375 0q0.171875 0.09375 0.234375 0.25q0.0625 0.15625 -0.015625 0.3125l-2.625 5.65625q-0.140625 0.3125 -0.453125 0.3125zm5.0422974 0q-0.203125 0 -0.34375 -0.125q-0.125 -0.125 -0.125 -0.34375l0 -5.625q0 -0.21875 0.125 -0.34375q0.140625 -0.125 0.34375 -0.125q0.203125 0 0.328125 0.125q0.140625 0.125 0.140625 0.34375l0 5.625q0 0.21875 -0.140625 0.34375q-0.125 0.125 -0.328125 0.125zm0.046875 -7.8125q-0.265625 0 -0.46875 -0.1875q-0.1875 -0.203125 -0.1875 -0.46875q0 -0.296875 0.203125 -0.46875q0.203125 -0.1875 0.453125 -0.1875q0.265625 0 0.453125 0.1875q0.203125 0.171875 0.203125 0.46875q0 0.265625 -0.203125 0.46875q-0.1875 0.1875 -0.453125 0.1875zm5.3273926 7.8125q-0.625 0 -1.125 -0.296875q-0.5 -0.296875 -0.796875 -0.8125q-0.28125 -0.53125 -0.28125 -1.203125l0 -5.875q0 -0.203125 0.125 -0.328125q0.125 -0.140625 0.328125 -0.140625q0.203125 0 0.328125 0.140625q0.140625 0.125 0.140625 0.328125l0 5.875q0 0.609375 0.359375 1.0q0.359375 0.390625 0.921875 0.390625l0.328125 0q0.1875 0 0.3125 0.140625q0.125 0.125 0.125 0.328125q0 0.203125 -0.15625 0.328125q-0.140625 0.125 -0.34375 0.125l-0.265625 0zm-2.984375 -5.515625q-0.171875 0 -0.296875 -0.109375q-0.125 -0.125 -0.125 -0.296875q0 -0.171875 0.125 -0.28125q0.125 -0.125 0.296875 -0.125l3.0625 0q0.1875 0 0.296875 0.125q0.125 0.109375 0.125 0.28125q0 0.171875 -0.125 0.296875q-0.109375 0.109375 -0.296875 0.109375l-3.0625 0zm6.3709106 8.375q-0.09375 0 -0.21875 -0.046875q-0.40625 -0.1875 -0.21875 -0.578125l3.875 -8.546875q0.171875 -0.390625 0.578125 -0.21875q0.40625 0.171875 0.21875 0.5625l-3.875 8.546875q-0.125 0.28125 -0.359375 0.28125zm1.34375 -3.0625q-0.1875 0.078125 -0.34375 0.03125q-0.15625 -0.0625 -0.25 -0.234375l-2.671875 -5.546875q-0.09375 -0.171875 -0.03125 -0.328125q0.0625 -0.15625 0.234375 -0.25q0.1875 -0.078125 0.34375 -0.015625q0.15625 0.046875 0.234375 0.21875l2.640625 5.546875q0.09375 0.1875 0.046875 0.34375q-0.03125 0.15625 -0.203125 0.234375z" fill-rule="nonzero"/></g></svg>