<svg data-name="Layer 1" xmlns="http://www.w3.org/2000/svg" viewBox="0 0 3978.23 2237.63"><path d="M0 1022.12c0-444.76 171.28-635.37 505.55-635.37s505.56 190.61 505.56 635.37v580.13c0 444.76-171.28 635.37-505.54 635.37S0 2047.01 0 1602.25zm367.42 593.94c0 221 33.15 281.78 138.13 281.78s138.12-60.78 138.12-281.78v-607.75c0-221-35.91-281.77-138.12-281.77-105 0-138.13 60.77-138.13 281.77zm1513.85-861.9h-284.54v853.62c0 207.18 41.44 262.43 165.75 262.43h118.79V2210h-207.16c-384 0-447.53-171.28-447.53-602.22V754.16h-174V414.38c163-47 209.95-237.58 207.19-414.38h367.34c0 193.37-60.78 378.46-196.14 414.38h450.29zm864.64 0h-284.54v853.62c0 207.18 41.44 262.43 165.75 262.43h118.79V2210h-207.19c-384 0-447.54-171.28-447.54-602.22V754.16h-174.07V414.38c163-47 210-237.58 207.2-414.38h367.42c0 193.37-60.78 378.46-196.14 414.38h450.32zm63.53 268c0-444.76 171.27-635.37 505.54-635.37s505.55 190.61 505.55 635.37v580.13c0 444.76-171.28 635.37-505.55 635.37s-505.54-190.61-505.54-635.37zm367.42 593.94c0 221 33.15 281.78 138.12 281.78s138.13-60.82 138.13-281.82v-607.75c0-221-35.91-281.77-138.13-281.77-105 0-138.12 60.77-138.12 281.77zm694.09 453.93h-22.25v140h-28.13v-140h-22.25v-27.92h72.63zm79.35-27.92h27.92v167.93h-27.92v-80.82l-15.74 80.82h-14.27l-15.74-80.82v80.82h-27.92v-167.97h27.92l22.88 105.59z" fill="#d6fc49"/></svg>