<svg version="1.1" viewBox="0.0 0.0 288.0 288.0" fill="none" stroke="none" stroke-linecap="square" stroke-miterlimit="10" xmlns:xlink="http://www.w3.org/1999/xlink" xmlns="http://www.w3.org/2000/svg"><clipPath id="ge597dbf565_0_54.0"><path d="m0 0l288.0 0l0 288.0l-288.0 0l0 -288.0z" clip-rule="nonzero"/></clipPath><g clip-path="url(#ge597dbf565_0_54.0)"><path fill="#ffffff" d="m0 0l288.0 0l0 288.0l-288.0 0z" fill-rule="evenodd"/><path fill="#000000" fill-opacity="0.0" d="m14.041995 276.8714l0.8503933 -271.40158" fill-rule="evenodd"/><path stroke="#000000" stroke-width="4.0" stroke-linejoin="round" stroke-linecap="butt" d="m14.041995 276.8714l0.7751932 -247.4017" fill-rule="evenodd"/><path fill="#000000" stroke="#000000" stroke-width="4.0" stroke-linecap="butt" d="m21.424086 29.490398l-6.5500193 -18.173l-6.6637754 18.1316z" fill-rule="evenodd"/><path fill="#000000" fill-opacity="0.0" d="m12.716536 274.9003l269.7323 0.12597656" fill-rule="evenodd"/><path stroke="#000000" stroke-width="4.0" stroke-linejoin="round" stroke-linecap="butt" d="m12.716536 274.9003l245.73228 0.11477661" fill-rule="evenodd"/><path fill="#000000" stroke="#000000" stroke-width="4.0" stroke-linecap="butt" d="m258.44574 281.622l18.155457 -6.5984497l-18.149292 -6.6154175z" fill-rule="evenodd"/><path fill="#000000" fill-opacity="0.0" d="m190.55118 91.347374l103.62204 0l0 25.448814l-103.62204 0z" fill-rule="evenodd"/><path fill="#281e96" d="m212.8046 111.86737q-0.203125 0 -0.34375 -0.125q-0.125 -0.140625 -0.125 -0.34375l0 -8.4375q0 -0.203125 0.125 -0.328125q0.140625 -0.140625 0.34375 -0.140625l2.390625 0q0.890625 0 1.578125 0.390625q0.6875 0.390625 1.0625 1.078125q0.390625 0.6875 0.390625 1.578125q0 0.875 -0.390625 1.5625q-0.375 0.671875 -1.0625 1.0625q-0.6875 0.390625 -1.578125 0.390625l-1.921875 0l0 2.84375q0 0.203125 -0.140625 0.34375q-0.125 0.125 -0.328125 0.125zm0.46875 -4.21875l1.921875 0q0.625 0 1.09375 -0.265625q0.484375 -0.265625 0.75 -0.75q0.28125 -0.484375 0.28125 -1.09375q0 -0.625 -0.28125 -1.109375q-0.265625 -0.484375 -0.75 -0.75q-0.46875 -0.28125 -1.09375 -0.28125l-1.921875 0l0 4.25zm6.67218 0.171875q0.03125 -0.734375 0.375 -1.328125q0.359375 -0.59375 0.921875 -0.921875q0.578125 -0.34375 1.28125 -0.34375q0.546875 0 0.84375 0.15625q0.3125 0.15625 0.234375 0.453125q-0.046875 0.1875 -0.171875 0.25q-0.109375 0.0625 -0.265625 0.046875q-0.15625 -0.015625 -0.375 -0.03125q-0.671875 -0.046875 -1.1875 0.15625q-0.515625 0.1875 -0.828125 0.59375q-0.3125 0.40625 -0.3125 0.96875l-0.515625 0zm0.0625 4.046875q-0.21875 0 -0.34375 -0.109375q-0.109375 -0.125 -0.109375 -0.34375l0 -5.65625q0 -0.21875 0.109375 -0.328125q0.125 -0.125 0.34375 -0.125q0.21875 0 0.328125 0.125q0.125 0.109375 0.125 0.328125l0 5.65625q0 0.21875 -0.125 0.34375q-0.109375 0.109375 -0.328125 0.109375zm7.547287 0.0625q-0.953125 0 -1.71875 -0.421875q-0.75 -0.4375 -1.1875 -1.1875q-0.421875 -0.765625 -0.421875 -1.734375q0 -0.96875 0.421875 -1.71875q0.4375 -0.765625 1.1875 -1.1875q0.765625 -0.4375 1.71875 -0.4375q0.96875 0 1.71875 0.4375q0.75 0.421875 1.171875 1.1875q0.4375 0.75 0.453125 1.71875q0 0.96875 -0.4375 1.734375q-0.4375 0.75 -1.1875 1.1875q-0.75 0.421875 -1.71875 0.421875zm0 -0.84375q0.703125 0 1.25 -0.3125q0.5625 -0.328125 0.859375 -0.890625q0.3125 -0.578125 0.3125 -1.296875q0 -0.71875 -0.3125 -1.28125q-0.296875 -0.578125 -0.859375 -0.890625q-0.546875 -0.328125 -1.25 -0.328125q-0.6875 0 -1.25 0.328125q-0.546875 0.3125 -0.875 0.890625q-0.3125 0.5625 -0.3125 1.28125q0 0.71875 0.3125 1.296875q0.328125 0.5625 0.875 0.890625q0.5625 0.3125 1.25 0.3125zm8.124054 0.84375q-0.9375 0 -1.703125 -0.4375q-0.75 -0.4375 -1.1875 -1.1875q-0.4375 -0.765625 -0.4375 -1.71875q0 -0.953125 0.421875 -1.703125q0.421875 -0.765625 1.15625 -1.203125q0.734375 -0.4375 1.65625 -0.4375q0.8125 0 1.453125 0.34375q0.65625 0.34375 1.046875 0.90625l0 -3.53125q0 -0.21875 0.125 -0.34375q0.140625 -0.125 0.34375 -0.125q0.203125 0 0.328125 0.125q0.140625 0.125 0.140625 0.34375l0 5.671875q-0.03125 0.9375 -0.46875 1.6875q-0.4375 0.75 -1.1875 1.1875q-0.75 0.421875 -1.6875 0.421875zm0 -0.84375q0.703125 0 1.25 -0.328125q0.546875 -0.328125 0.859375 -0.890625q0.3125 -0.5625 0.3125 -1.28125q0 -0.71875 -0.3125 -1.28125q-0.3125 -0.578125 -0.859375 -0.890625q-0.546875 -0.328125 -1.25 -0.328125q-0.671875 0 -1.234375 0.328125q-0.546875 0.3125 -0.875 0.890625q-0.328125 0.5625 -0.328125 1.28125q0 0.71875 0.328125 1.28125q0.328125 0.5625 0.875 0.890625q0.5625 0.328125 1.234375 0.328125zm8.359055 0.859375q-0.859375 0 -1.53125 -0.359375q-0.671875 -0.359375 -1.0625 -1.03125q-0.390625 -0.6875 -0.390625 -1.671875l0 -3.125q0 -0.1875 0.125 -0.3125q0.140625 -0.140625 0.34375 -0.140625q0.203125 0 0.328125 0.140625q0.140625 0.125 0.140625 0.3125l0 3.125q0 0.734375 0.28125 1.21875q0.28125 0.484375 0.765625 0.734375q0.484375 0.234375 1.09375 0.234375q0.59375 0 1.0625 -0.234375q0.46875 -0.234375 0.75 -0.625q0.28125 -0.390625 0.28125 -0.90625l0.65625 0q-0.03125 0.765625 -0.421875 1.359375q-0.375 0.59375 -1.015625 0.9375q-0.625 0.34375 -1.40625 0.34375zm2.640625 -0.078125q-0.203125 0 -0.328125 -0.125q-0.125 -0.125 -0.125 -0.34375l0 -5.640625q0 -0.203125 0.125 -0.328125q0.125 -0.125 0.328125 -0.125q0.203125 0 0.328125 0.125q0.140625 0.125 0.140625 0.328125l0 5.640625q0 0.21875 -0.140625 0.34375q-0.125 0.125 -0.328125 0.125zm5.561554 0.0625q-0.953125 0 -1.703125 -0.4375q-0.734375 -0.4375 -1.15625 -1.1875q-0.421875 -0.765625 -0.421875 -1.71875q0 -0.953125 0.40625 -1.703125q0.40625 -0.765625 1.109375 -1.203125q0.71875 -0.4375 1.640625 -0.4375q0.734375 0 1.34375 0.296875q0.625 0.28125 1.09375 0.859375q0.125 0.140625 0.09375 0.3125q-0.03125 0.15625 -0.203125 0.265625q-0.140625 0.109375 -0.296875 0.078125q-0.15625 -0.03125 -0.28125 -0.171875q-0.703125 -0.796875 -1.75 -0.796875q-0.671875 0 -1.1875 0.328125q-0.5 0.3125 -0.796875 0.875q-0.28125 0.5625 -0.28125 1.296875q0 0.71875 0.296875 1.296875q0.3125 0.5625 0.84375 0.890625q0.546875 0.3125 1.25 0.3125q0.453125 0 0.84375 -0.125q0.390625 -0.125 0.703125 -0.390625q0.140625 -0.125 0.296875 -0.125q0.15625 -0.015625 0.28125 0.09375q0.140625 0.125 0.15625 0.296875q0.03125 0.171875 -0.109375 0.28125q-0.875 0.8125 -2.171875 0.8125zm6.7770386 -0.0625q-0.625 0 -1.125 -0.296875q-0.5 -0.296875 -0.796875 -0.8125q-0.28125 -0.53125 -0.28125 -1.203125l0 -5.875q0 -0.203125 0.125 -0.328125q0.125 -0.140625 0.328125 -0.140625q0.203125 0 0.328125 0.140625q0.140625 0.125 0.140625 0.328125l0 5.875q0 0.609375 0.359375 1.0q0.359375 0.390625 0.921875 0.390625l0.328125 0q0.1875 0 0.3125 0.140625q0.125 0.125 0.125 0.328125q0 0.203125 -0.15625 0.328125q-0.140625 0.125 -0.34375 0.125l-0.265625 0zm-2.984375 -5.515625q-0.17185974 0 -0.29685974 -0.109375q-0.125 -0.125 -0.125 -0.296875q0 -0.171875 0.125 -0.28125q0.125 -0.125 0.29685974 -0.125l3.0625 0q0.1875 0 0.296875 0.125q0.125 0.109375 0.125 0.28125q0 0.171875 -0.125 0.296875q-0.109375 0.109375 -0.296875 0.109375l-3.0625 0zm5.9021606 5.515625q-0.203125 0 -0.34375 -0.125q-0.125 -0.125 -0.125 -0.34375l0 -5.625q0 -0.21875 0.125 -0.34375q0.140625 -0.125 0.34375 -0.125q0.203125 0 0.328125 0.125q0.140625 0.125 0.140625 0.34375l0 5.625q0 0.21875 -0.140625 0.34375q-0.125 0.125 -0.328125 0.125zm0 -7.8125q-0.265625 0 -0.46875 -0.1875q-0.1875 -0.203125 -0.1875 -0.46875q0 -0.296875 0.203125 -0.46875q0.203125 -0.1875 0.453125 -0.1875q0.265625 0 0.453125 0.1875q0.203125 0.171875 0.203125 0.46875q0 0.265625 -0.203125 0.46875q-0.1875 0.1875 -0.453125 0.1875zm5.0617676 7.8125q-0.296875 0 -0.4375 -0.3125l-2.65625 -5.65625q-0.078125 -0.15625 -0.015625 -0.3125q0.0625 -0.15625 0.234375 -0.234375q0.171875 -0.078125 0.328125 -0.015625q0.15625 0.046875 0.234375 0.203125l2.5625 5.53125l-0.5 0l2.53125 -5.53125q0.0625 -0.15625 0.234375 -0.203125q0.1875 -0.0625 0.34375 0q0.171875 0.09375 0.234375 0.25q0.0625 0.15625 -0.015625 0.3125l-2.625 5.65625q-0.140625 0.3125 -0.453125 0.3125zm5.0422974 0q-0.203125 0 -0.34375 -0.125q-0.125 -0.125 -0.125 -0.34375l0 -5.625q0 -0.21875 0.125 -0.34375q0.140625 -0.125 0.34375 -0.125q0.203125 0 0.328125 0.125q0.140625 0.125 0.140625 0.34375l0 5.625q0 0.21875 -0.140625 0.34375q-0.125 0.125 -0.328125 0.125zm0 -7.8125q-0.265625 0 -0.46875 -0.1875q-0.1875 -0.203125 -0.1875 -0.46875q0 -0.296875 0.203125 -0.46875q0.203125 -0.1875 0.453125 -0.1875q0.265625 0 0.453125 0.1875q0.203125 0.171875 0.203125 0.46875q0 0.265625 -0.203125 0.46875q-0.1875 0.1875 -0.453125 0.1875zm5.3742676 7.8125q-0.625 0 -1.125 -0.296875q-0.5 -0.296875 -0.796875 -0.8125q-0.28125 -0.53125 -0.28125 -1.203125l0 -5.875q0 -0.203125 0.125 -0.328125q0.125 -0.140625 0.328125 -0.140625q0.203125 0 0.328125 0.140625q0.140625 0.125 0.140625 0.328125l0 5.875q0 0.609375 0.359375 1.0q0.359375 0.390625 0.921875 0.390625l0.328125 0q0.1875 0 0.3125 0.140625q0.125 0.125 0.125 0.328125q0 0.203125 -0.15625 0.328125q-0.140625 0.125 -0.34375 0.125l-0.265625 0zm-2.984375 -5.515625q-0.171875 0 -0.296875 -0.109375q-0.125 -0.125 -0.125 -0.296875q0 -0.171875 0.125 -0.28125q0.125 -0.125 0.296875 -0.125l3.0625 0q0.1875 0 0.296875 0.125q0.125 0.109375 0.125 0.28125q0 0.171875 -0.125 0.296875q-0.109375 0.109375 -0.296875 0.109375l-3.0625 0zm6.3709106 8.375q-0.09375 0 -0.21875 -0.046875q-0.40625 -0.1875 -0.21875 -0.578125l3.875 -8.546875q0.171875 -0.390625 0.578125 -0.21875q0.40625 0.171875 0.21875 0.5625l-3.875 8.546875q-0.125 0.28125 -0.359375 0.28125zm1.34375 -3.0625q-0.1875 0.078125 -0.34375 0.03125q-0.15625 -0.0625 -0.25 -0.234375l-2.671875 -5.546875q-0.09375 -0.171875 -0.03125 -0.328125q0.0625 -0.15625 0.234375 -0.25q0.1875 -0.078125 0.34375 -0.015625q0.15625 0.046875 0.234375 0.21875l2.640625 5.546875q0.09375 0.1875 0.046875 0.34375q-0.03125 0.15625 -0.203125 0.234375z" fill-rule="nonzero"/><path fill="#000000" fill-opacity="0.0" d="m20.401575 222.55643l55.11811 22.519684" fill-rule="evenodd"/><path stroke="#ff0000" stroke-width="4.0" stroke-linejoin="round" stroke-linecap="butt" d="m20.401575 222.55643l55.11811 22.519684" fill-rule="evenodd"/><path fill="#000000" fill-opacity="0.0" d="m193.4199 206.02557l101.92125 0l0 27.65355l-101.92125 0z" fill-rule="evenodd"/><path fill="#ff0000" d="m207.82616 226.67058q-0.96875 0 -1.8125 -0.375q-0.84375 -0.375 -1.484375 -1.03125q-0.640625 -0.671875 -1.0 -1.546875q-0.359375 -0.875 -0.359375 -1.859375q0 -0.984375 0.34375 -1.859375q0.359375 -0.875 1.0 -1.53125q0.640625 -0.65625 1.484375 -1.03125q0.84375 -0.375 1.828125 -0.375q0.875 0 1.578125 0.25q0.703125 0.25 1.375 0.796875q0.09375 0.078125 0.109375 0.203125q0.03125 0.109375 -0.015625 0.21875q-0.046875 0.09375 -0.15625 0.140625q-0.015625 0.09375 -0.109375 0.140625q-0.09375 0.046875 -0.21875 0.046875q-0.125 -0.015625 -0.25 -0.109375q-0.46875 -0.40625 -1.03125 -0.609375q-0.546875 -0.203125 -1.28125 -0.203125q-0.78125 0 -1.453125 0.3125q-0.671875 0.3125 -1.1875 0.859375q-0.515625 0.53125 -0.8125 1.25q-0.296875 0.703125 -0.296875 1.5q0 0.8125 0.296875 1.53125q0.296875 0.703125 0.8125 1.25q0.515625 0.53125 1.1875 0.84375q0.671875 0.296875 1.453125 0.296875q0.671875 0 1.25 -0.21875q0.59375 -0.21875 1.125 -0.625q0.140625 -0.125 0.296875 -0.09375q0.171875 0.015625 0.28125 0.140625q0.125 0.125 0.125 0.3125q0 0.09375 -0.03125 0.171875q-0.015625 0.078125 -0.09375 0.171875q-0.625 0.5625 -1.375 0.796875q-0.75 0.234375 -1.578125 0.234375zm3.078125 -1.375l-0.90625 -0.1875l0 -2.421875l-1.875 0q-0.203125 0 -0.34375 -0.109375q-0.125 -0.125 -0.125 -0.296875q0 -0.1875 0.125 -0.296875q0.140625 -0.125 0.34375 -0.125l2.3125 0q0.203125 0 0.328125 0.140625q0.140625 0.125 0.140625 0.328125l0 2.96875zm2.43956 1.25q-0.203125 0 -0.34375 -0.125q-0.125 -0.140625 -0.125 -0.34375l0 -8.4375q0 -0.203125 0.125 -0.328125q0.140625 -0.140625 0.34375 -0.140625l2.15625 0q1.03125 0 1.890625 0.34375q0.859375 0.34375 1.484375 0.984375q0.625 0.625 0.96875 1.484375q0.34375 0.84375 0.34375 1.875q0 1.03125 -0.34375 1.890625q-0.34375 0.859375 -0.96875 1.484375q-0.625 0.625 -1.484375 0.96875q-0.859375 0.34375 -1.890625 0.34375l-2.15625 0zm0.46875 -0.84375l1.6875 0q1.109375 0 1.953125 -0.5q0.84375 -0.5 1.3125 -1.359375q0.484375 -0.875 0.484375 -1.984375q0 -1.125 -0.484375 -1.984375q-0.46875 -0.875 -1.3125 -1.359375q-0.84375 -0.5 -1.953125 -0.5l-1.6875 0l0 7.6875zm8.771317 0.84375q-0.203125 0 -0.34375 -0.125q-0.125 -0.140625 -0.125 -0.34375l0 -8.4375q0 -0.203125 0.125 -0.328125q0.140625 -0.140625 0.34375 -0.140625l2.390625 0q0.890625 0 1.578125 0.390625q0.6875 0.390625 1.0625 1.078125q0.390625 0.6875 0.390625 1.578125q0 0.875 -0.390625 1.5625q-0.375 0.671875 -1.0625 1.0625q-0.6875 0.390625 -1.578125 0.390625l-1.921875 0l0 2.84375q0 0.203125 -0.140625 0.34375q-0.125 0.125 -0.328125 0.125zm0.46875 -4.21875l1.921875 0q0.625 0 1.09375 -0.265625q0.484375 -0.265625 0.75 -0.75q0.28125 -0.484375 0.28125 -1.09375q0 -0.625 -0.28125 -1.109375q-0.265625 -0.484375 -0.75 -0.75q-0.46875 -0.28125 -1.09375 -0.28125l-1.921875 0l0 4.25zm10.266327 7.03125q-0.21875 0 -0.34375 -0.125q-0.125 -0.125 -0.125 -0.34375l0 -5.671875q0.015625 -0.9375 0.453125 -1.6875q0.4375 -0.75 1.1875 -1.171875q0.75 -0.4375 1.6875 -0.4375q0.953125 0 1.703125 0.4375q0.765625 0.4375 1.203125 1.203125q0.4375 0.75 0.4375 1.703125q0 0.953125 -0.421875 1.71875q-0.421875 0.75 -1.15625 1.1875q-0.734375 0.4375 -1.65625 0.4375q-0.8125 0 -1.46875 -0.34375q-0.640625 -0.34375 -1.046875 -0.90625l0 3.53125q0 0.21875 -0.125 0.34375q-0.125 0.125 -0.328125 0.125zm2.859375 -3.59375q0.6875 0 1.234375 -0.3125q0.5625 -0.328125 0.875 -0.890625q0.328125 -0.578125 0.328125 -1.296875q0 -0.71875 -0.328125 -1.28125q-0.3125 -0.5625 -0.875 -0.890625q-0.546875 -0.328125 -1.234375 -0.328125q-0.6875 0 -1.25 0.328125q-0.546875 0.328125 -0.859375 0.890625q-0.3125 0.5625 -0.3125 1.28125q0 0.71875 0.3125 1.296875q0.3125 0.5625 0.859375 0.890625q0.5625 0.3125 1.25 0.3125zm8.140305 0.84375q-0.984375 0 -1.734375 -0.421875q-0.75 -0.4375 -1.171875 -1.1875q-0.421875 -0.75 -0.421875 -1.734375q0 -0.984375 0.390625 -1.734375q0.40625 -0.75 1.109375 -1.171875q0.71875 -0.4375 1.640625 -0.4375q0.90625 0 1.578125 0.421875q0.6875 0.40625 1.0625 1.140625q0.375 0.734375 0.375 1.671875q0 0.1875 -0.125 0.3125q-0.125 0.109375 -0.3125 0.109375l-5.09375 0l0 -0.78125l5.1875 0l-0.515625 0.375q0.015625 -0.6875 -0.25 -1.234375q-0.265625 -0.5625 -0.75 -0.875q-0.484375 -0.3125 -1.15625 -0.3125q-0.6875 0 -1.203125 0.328125q-0.515625 0.328125 -0.796875 0.890625q-0.28125 0.5625 -0.28125 1.296875q0 0.734375 0.3125 1.296875q0.328125 0.5625 0.875 0.890625q0.5625 0.328125 1.28125 0.328125q0.421875 0 0.859375 -0.140625q0.4375 -0.15625 0.703125 -0.390625q0.140625 -0.109375 0.296875 -0.109375q0.171875 -0.015625 0.296875 0.09375q0.15625 0.140625 0.15625 0.3125q0.015625 0.15625 -0.140625 0.28125q-0.390625 0.328125 -1.0 0.5625q-0.609375 0.21875 -1.171875 0.21875zm4.7743073 -4.109375q0.03125 -0.734375 0.375 -1.328125q0.359375 -0.59375 0.921875 -0.921875q0.578125 -0.34375 1.28125 -0.34375q0.546875 0 0.84375 0.15625q0.3125 0.15625 0.234375 0.453125q-0.046875 0.1875 -0.171875 0.25q-0.109375 0.0625 -0.265625 0.046875q-0.15625 -0.015625 -0.375 -0.03125q-0.671875 -0.046875 -1.1875 0.15625q-0.515625 0.1875 -0.828125 0.59375q-0.3125 0.40625 -0.3125 0.96875l-0.515625 0zm0.0625 4.046875q-0.21875 0 -0.34375 -0.109375q-0.109375 -0.125 -0.109375 -0.34375l0 -5.65625q0 -0.21875 0.109375 -0.328125q0.125 -0.125 0.34375 -0.125q0.21875 0 0.328125 0.125q0.125 0.109375 0.125 0.328125l0 5.65625q0 0.21875 -0.125 0.34375q-0.109375 0.109375 -0.328125 0.109375z" fill-rule="nonzero"/><path fill="#ff0000" d="m207.82616 240.67058q-0.96875 0 -1.8125 -0.375q-0.84375 -0.375 -1.484375 -1.03125q-0.640625 -0.671875 -1.0 -1.546875q-0.359375 -0.875 -0.359375 -1.859375q0 -0.984375 0.34375 -1.859375q0.359375 -0.875 1.0 -1.53125q0.640625 -0.65625 1.484375 -1.03125q0.84375 -0.375 1.828125 -0.375q0.875 0 1.578125 0.25q0.703125 0.25 1.375 0.796875q0.09375 0.078125 0.109375 0.203125q0.03125 0.109375 -0.015625 0.21875q-0.046875 0.09375 -0.15625 0.140625q-0.015625 0.09375 -0.109375 0.140625q-0.09375 0.046875 -0.21875 0.046875q-0.125 -0.015625 -0.25 -0.109375q-0.46875 -0.40625 -1.03125 -0.609375q-0.546875 -0.203125 -1.28125 -0.203125q-0.78125 0 -1.453125 0.3125q-0.671875 0.3125 -1.1875 0.859375q-0.515625 0.53125 -0.8125 1.25q-0.296875 0.703125 -0.296875 1.5q0 0.8125 0.296875 1.53125q0.296875 0.703125 0.8125 1.25q0.515625 0.53125 1.1875 0.84375q0.671875 0.296875 1.453125 0.296875q0.671875 0 1.25 -0.21875q0.59375 -0.21875 1.125 -0.625q0.140625 -0.125 0.296875 -0.09375q0.171875 0.015625 0.28125 0.140625q0.125 0.125 0.125 0.3125q0 0.09375 -0.03125 0.171875q-0.03125 0.078125 -0.09375 0.171875q-0.625 0.5625 -1.375 0.796875q-0.75 0.234375 -1.578125 0.234375zm7.334564 -0.0625q-0.921875 0 -1.65625 -0.4375q-0.734375 -0.4375 -1.15625 -1.1875q-0.421875 -0.765625 -0.421875 -1.71875q0 -0.953125 0.4375 -1.703125q0.4375 -0.765625 1.1875 -1.203125q0.765625 -0.4375 1.703125 -0.4375q0.953125 0 1.703125 0.4375q0.75 0.4375 1.1875 1.203125q0.4375 0.75 0.453125 1.703125l-0.375 0.296875q0 0.859375 -0.40625 1.546875q-0.390625 0.6875 -1.09375 1.09375q-0.6875 0.40625 -1.5625 0.40625zm0.09375 -0.84375q0.703125 0 1.25 -0.3125q0.546875 -0.328125 0.859375 -0.890625q0.3125 -0.578125 0.3125 -1.296875q0 -0.71875 -0.3125 -1.28125q-0.3125 -0.5625 -0.859375 -0.890625q-0.546875 -0.328125 -1.25 -0.328125q-0.671875 0 -1.234375 0.328125q-0.546875 0.328125 -0.875 0.890625q-0.328125 0.5625 -0.328125 1.28125q0 0.71875 0.328125 1.296875q0.328125 0.5625 0.875 0.890625q0.5625 0.3125 1.234375 0.3125zm2.875 0.78125q-0.203125 0 -0.34375 -0.125q-0.125 -0.125 -0.125 -0.328125l0 -2.0625l0.234375 -0.9375l0.703125 0.171875l0 2.828125q0 0.203125 -0.140625 0.328125q-0.125 0.125 -0.328125 0.125zm2.733429 2.8125q-0.21875 0 -0.34375 -0.125q-0.125 -0.125 -0.125 -0.34375l0 -5.671875q0.015625 -0.9375 0.453125 -1.6875q0.4375 -0.75 1.1875 -1.171875q0.75 -0.4375 1.6875 -0.4375q0.953125 0 1.703125 0.4375q0.765625 0.4375 1.203125 1.203125q0.4375 0.75 0.4375 1.703125q0 0.953125 -0.421875 1.71875q-0.421875 0.75 -1.15625 1.1875q-0.734375 0.4375 -1.65625 0.4375q-0.8125 0 -1.46875 -0.34375q-0.640625 -0.34375 -1.046875 -0.90625l0 3.53125q0 0.21875 -0.125 0.34375q-0.125 0.125 -0.328125 0.125zm2.859375 -3.59375q0.6875 0 1.234375 -0.3125q0.5625 -0.328125 0.875 -0.890625q0.328125 -0.578125 0.328125 -1.296875q0 -0.71875 -0.328125 -1.28125q-0.3125 -0.5625 -0.875 -0.890625q-0.546875 -0.328125 -1.234375 -0.328125q-0.6875 0 -1.25 0.328125q-0.546875 0.328125 -0.859375 0.890625q-0.3125 0.5625 -0.3125 1.28125q0 0.71875 0.3125 1.296875q0.3125 0.5625 0.859375 0.890625q0.5625 0.3125 1.25 0.3125zm5.8121796 0.78125q-0.203125 0 -0.34375 -0.125q-0.125 -0.125 -0.125 -0.34375l0 -5.625q0 -0.21875 0.125 -0.34375q0.140625 -0.125 0.34375 -0.125q0.203125 0 0.328125 0.125q0.140625 0.125 0.140625 0.34375l0 5.625q0 0.21875 -0.140625 0.34375q-0.125 0.125 -0.328125 0.125zm0 -7.8125q-0.265625 0 -0.46875 -0.1875q-0.1875 -0.203125 -0.1875 -0.46875q0 -0.296875 0.203125 -0.46875q0.203125 -0.1875 0.453125 -0.1875q0.265625 0 0.453125 0.1875q0.203125 0.171875 0.203125 0.46875q0 0.265625 -0.203125 0.46875q-0.1875 0.1875 -0.453125 0.1875zm5.3742676 7.8125q-0.625 0 -1.125 -0.296875q-0.5 -0.296875 -0.796875 -0.8125q-0.28125 -0.53125 -0.28125 -1.203125l0 -5.875q0 -0.203125 0.125 -0.328125q0.125 -0.140625 0.328125 -0.140625q0.203125 0 0.328125 0.140625q0.140625 0.125 0.140625 0.328125l0 5.875q0 0.609375 0.359375 1.0q0.359375 0.390625 0.921875 0.390625l0.328125 0q0.1875 0 0.3125 0.140625q0.125 0.125 0.125 0.328125q0 0.203125 -0.15625 0.328125q-0.140625 0.125 -0.34375 0.125l-0.265625 0zm-2.984375 -5.515625q-0.171875 0 -0.296875 -0.109375q-0.125 -0.125 -0.125 -0.296875q0 -0.171875 0.125 -0.28125q0.125 -0.125 0.296875 -0.125l3.0625 0q0.1875 0 0.296875 0.125q0.125 0.109375 0.125 0.28125q0 0.171875 -0.125 0.296875q-0.109375 0.109375 -0.296875 0.109375l-3.0625 0zm8.136536 5.578125q-0.921875 0 -1.65625 -0.4375q-0.734375 -0.4375 -1.15625 -1.1875q-0.421875 -0.765625 -0.421875 -1.71875q0 -0.953125 0.4375 -1.703125q0.4375 -0.765625 1.1875 -1.203125q0.765625 -0.4375 1.703125 -0.4375q0.953125 0 1.703125 0.4375q0.75 0.4375 1.1875 1.203125q0.4375 0.75 0.453125 1.703125l-0.375 0.296875q0 0.859375 -0.40625 1.546875q-0.390625 0.6875 -1.09375 1.09375q-0.6875 0.40625 -1.5625 0.40625zm0.09375 -0.84375q0.703125 0 1.25 -0.3125q0.546875 -0.328125 0.859375 -0.890625q0.3125 -0.578125 0.3125 -1.296875q0 -0.71875 -0.3125 -1.28125q-0.3125 -0.5625 -0.859375 -0.890625q-0.546875 -0.328125 -1.25 -0.328125q-0.671875 0 -1.234375 0.328125q-0.546875 0.328125 -0.875 0.890625q-0.328125 0.5625 -0.328125 1.28125q0 0.71875 0.328125 1.296875q0.328125 0.5625 0.875 0.890625q0.5625 0.3125 1.234375 0.3125zm2.875 0.78125q-0.203125 0 -0.34375 -0.125q-0.125 -0.125 -0.125 -0.328125l0 -2.0625l0.234375 -0.9375l0.703125 0.171875l0 2.828125q0 0.203125 -0.140625 0.328125q-0.125 0.125 -0.328125 0.125z" fill-rule="nonzero"/><path fill="#ff0000" d="m207.82616 254.67058q-0.96875 0 -1.8125 -0.375q-0.84375 -0.375 -1.484375 -1.03125q-0.640625 -0.671875 -1.0 -1.546875q-0.359375 -0.875 -0.359375 -1.859375q0 -0.984375 0.34375 -1.859375q0.359375 -0.875 1.0 -1.53125q0.640625 -0.65625 1.484375 -1.03125q0.84375 -0.375 1.828125 -0.375q0.875 0 1.578125 0.25q0.703125 0.25 1.375 0.796875q0.09375 0.078125 0.109375 0.203125q0.03125 0.109375 -0.015625 0.21875q-0.046875 0.09375 -0.15625 0.140625q-0.015625 0.09375 -0.109375 0.140625q-0.09375 0.046875 -0.21875 0.046875q-0.125 -0.015625 -0.25 -0.109375q-0.46875 -0.40625 -1.03125 -0.609375q-0.546875 -0.203125 -1.28125 -0.203125q-0.78125 0 -1.453125 0.3125q-0.671875 0.3125 -1.1875 0.859375q-0.515625 0.53125 -0.8125 1.25q-0.296875 0.703125 -0.296875 1.5q0 0.8125 0.296875 1.53125q0.296875 0.703125 0.8125 1.25q0.515625 0.53125 1.1875 0.84375q0.671875 0.296875 1.453125 0.296875q0.671875 0 1.25 -0.21875q0.59375 -0.21875 1.125 -0.625q0.140625 -0.125 0.296875 -0.09375q0.171875 0.015625 0.28125 0.140625q0.125 0.125 0.125 0.3125q0 0.09375 -0.03125 0.171875q-0.015625 0.078125 -0.09375 0.171875q-0.625 0.5625 -1.375 0.796875q-0.75 0.234375 -1.578125 0.234375zm3.078125 -1.375l-0.90625 -0.1875l0 -2.421875l-1.875 0q-0.203125 0 -0.34375 -0.109375q-0.125 -0.125 -0.125 -0.296875q0 -0.1875 0.125 -0.296875q0.140625 -0.125 0.34375 -0.125l2.3125 0q0.203125 0 0.328125 0.140625q0.140625 0.125 0.140625 0.328125l0 2.96875zm2.236435 -2.796875q0.03125 -0.734375 0.375 -1.328125q0.359375 -0.59375 0.921875 -0.921875q0.578125 -0.34375 1.28125 -0.34375q0.546875 0 0.84375 0.15625q0.3125 0.15625 0.234375 0.453125q-0.046875 0.1875 -0.171875 0.25q-0.109375 0.0625 -0.265625 0.046875q-0.15625 -0.015625 -0.375 -0.03125q-0.671875 -0.046875 -1.1875 0.15625q-0.515625 0.1875 -0.828125 0.59375q-0.3125 0.40625 -0.3125 0.96875l-0.515625 0zm0.0625 4.046875q-0.21875 0 -0.34375 -0.109375q-0.109375 -0.125 -0.109375 -0.34375l0 -5.65625q0 -0.21875 0.109375 -0.328125q0.125 -0.125 0.34375 -0.125q0.21875 0 0.328125 0.125q0.125 0.109375 0.125 0.328125l0 5.65625q0 0.21875 -0.125 0.34375q-0.109375 0.109375 -0.328125 0.109375zm7.547287 0.0625q-0.953125 0 -1.71875 -0.421875q-0.75 -0.4375 -1.1875 -1.1875q-0.421875 -0.765625 -0.421875 -1.734375q0 -0.96875 0.421875 -1.71875q0.4375 -0.765625 1.1875 -1.1875q0.765625 -0.4375 1.71875 -0.4375q0.96875 0 1.71875 0.4375q0.75 0.421875 1.171875 1.1875q0.4375 0.75 0.453125 1.71875q0 0.96875 -0.4375 1.734375q-0.4375 0.75 -1.1875 1.1875q-0.75 0.421875 -1.71875 0.421875zm0 -0.84375q0.703125 0 1.25 -0.3125q0.5625 -0.328125 0.859375 -0.890625q0.3125 -0.578125 0.3125 -1.296875q0 -0.71875 -0.3125 -1.28125q-0.296875 -0.578125 -0.859375 -0.890625q-0.546875 -0.328125 -1.25 -0.328125q-0.6875 0 -1.25 0.328125q-0.546875 0.3125 -0.875 0.890625q-0.3125 0.5625 -0.3125 1.28125q0 0.71875 0.3125 1.296875q0.328125 0.5625 0.875 0.890625q0.5625 0.3125 1.25 0.3125zm6.2640533 0.78125q-0.15625 0 -0.28125 -0.078125q-0.109375 -0.09375 -0.15625 -0.21875l-1.875 -5.625q-0.0625 -0.296875 0.015625 -0.46875q0.078125 -0.171875 0.328125 -0.171875q0.15625 0 0.28125 0.09375q0.125 0.078125 0.1875 0.25l1.65625 5.109375l-0.265625 0l1.5625 -5.09375q0.046875 -0.15625 0.15625 -0.25q0.109375 -0.109375 0.296875 -0.109375q0.171875 0 0.28125 0.09375q0.125 0.09375 0.171875 0.265625l1.46875 4.96875l-0.203125 0l1.640625 -4.984375q0.109375 -0.34375 0.4375 -0.34375q0.265625 0 0.359375 0.203125q0.09375 0.1875 0 0.4375l-1.875 5.625q-0.046875 0.125 -0.15625 0.21875q-0.109375 0.078125 -0.265625 0.078125q-0.15625 0 -0.28125 -0.078125q-0.125 -0.09375 -0.171875 -0.21875l-1.5 -5.015625l0.140625 0l-1.515625 5.015625q-0.046875 0.140625 -0.171875 0.21875q-0.109375 0.078125 -0.265625 0.078125zm9.958191 0q-0.625 0 -1.125 -0.296875q-0.5 -0.296875 -0.796875 -0.8125q-0.28125 -0.53125 -0.28125 -1.203125l0 -5.875q0 -0.203125 0.125 -0.328125q0.125 -0.140625 0.328125 -0.140625q0.203125 0 0.328125 0.140625q0.140625 0.125 0.140625 0.328125l0 5.875q0 0.609375 0.359375 1.0q0.359375 0.390625 0.921875 0.390625l0.328125 0q0.1875 0 0.3125 0.140625q0.125 0.125 0.125 0.328125q0 0.203125 -0.15625 0.328125q-0.140625 0.125 -0.34375 0.125l-0.265625 0zm-2.984375 -5.515625q-0.171875 0 -0.296875 -0.109375q-0.125 -0.125 -0.125 -0.296875q0 -0.171875 0.125 -0.28125q0.125 -0.125 0.296875 -0.125l3.0625 0q0.1875 0 0.296875 0.125q0.125 0.109375 0.125 0.28125q0 0.171875 -0.125 0.296875q-0.109375 0.109375 -0.296875 0.109375l-3.0625 0zm10.870911 5.515625q-0.203125 0 -0.34375 -0.125q-0.125 -0.140625 -0.125 -0.328125l0 -3.125q0 -0.734375 -0.28125 -1.21875q-0.28125 -0.484375 -0.765625 -0.71875q-0.484375 -0.25 -1.09375 -0.25q-0.59375 0 -1.0625 0.234375q-0.46875 0.234375 -0.75 0.625q-0.28125 0.390625 -0.28125 0.890625l-0.65625 0q0.03125 -0.75 0.40625 -1.34375q0.390625 -0.59375 1.015625 -0.9375q0.640625 -0.34375 1.421875 -0.34375q0.859375 0 1.53125 0.359375q0.671875 0.359375 1.046875 1.046875q0.390625 0.671875 0.390625 1.65625l0 3.125q0 0.1875 -0.125 0.328125q-0.125 0.125 -0.328125 0.125zm-5.15625 0q-0.21875 0 -0.34375 -0.125q-0.125 -0.125 -0.125 -0.328125l0 -5.640625q0 -0.21875 0.125 -0.34375q0.125 -0.125 0.34375 -0.125q0.203125 0 0.328125 0.125q0.125 0.125 0.125 0.34375l0 5.640625q0 0.203125 -0.125 0.328125q-0.125 0.125 -0.328125 0.125zm0 -2.671875q-0.21875 0 -0.34375 -0.125q-0.125 -0.140625 -0.125 -0.34375l0 -5.765625q0 -0.21875 0.125 -0.34375q0.125 -0.125 0.34375 -0.125q0.203125 0 0.328125 0.125q0.125 0.125 0.125 0.34375l0 5.765625q0 0.203125 -0.125 0.34375q-0.125 0.125 -0.328125 0.125z" fill-rule="nonzero"/><path fill="#000000" fill-opacity="0.0" d="m100.69669 244.54613l92.7244 -22.771652" fill-rule="evenodd"/><path stroke="#ff0000" stroke-width="4.0" stroke-linejoin="round" stroke-linecap="butt" d="m100.69669 244.54613l92.7244 -22.771652" fill-rule="evenodd"/><path fill="#000000" fill-opacity="0.0" d="m74.72484 244.81117l26.236221 -0.25196838" fill-rule="evenodd"/><path stroke="#ff0000" stroke-width="4.0" stroke-linejoin="round" stroke-linecap="butt" d="m74.72484 244.81117l26.236221 -0.25196838" fill-rule="evenodd"/><path fill="#000000" fill-opacity="0.0" d="m61.007874 215.1076l189.6063 -35.74803" fill-rule="evenodd"/><path stroke="#6aa84f" stroke-width="4.0" stroke-linejoin="round" stroke-linecap="butt" d="m61.007874 215.1076l189.6063 -35.74803" fill-rule="evenodd"/><path fill="#000000" fill-opacity="0.0" d="m41.16273 175.68373l188.28346 -55.2126" fill-rule="evenodd"/><path stroke="#281e96" stroke-width="4.0" stroke-linejoin="round" stroke-linecap="butt" d="m41.16273 175.68373l188.28346 -55.2126" fill-rule="evenodd"/><path fill="#000000" fill-opacity="0.0" d="m226.27856 148.68636l64.50394 0l0 25.448822l-64.50394 0z" fill-rule="evenodd"/><path fill="#6aa84f" d="m244.96535 169.20634q-0.171875 0 -0.296875 -0.109375q-0.125 -0.109375 -0.171875 -0.28125l-2.453125 -8.3125q-0.09375 -0.28125 0.015625 -0.46875q0.125 -0.203125 0.375 -0.203125q0.140625 0 0.265625 0.078125q0.125 0.078125 0.1875 0.28125l2.21875 7.734375l-0.265625 0l2.09375 -7.53125q0.03125 -0.125 0.15625 -0.203125q0.125 -0.09375 0.28125 -0.09375q0.15625 0 0.28125 0.078125q0.140625 0.078125 0.171875 0.234375l2.109375 7.515625l-0.28125 0l2.234375 -7.78125q0.09375 -0.3125 0.453125 -0.3125q0.265625 0 0.359375 0.203125q0.09375 0.203125 0.015625 0.46875l-2.4375 8.3125q-0.0625 0.1875 -0.1875 0.296875q-0.125 0.09375 -0.296875 0.09375q-0.171875 0 -0.296875 -0.109375q-0.125 -0.109375 -0.171875 -0.28125l-2.09375 -7.609375l0.296875 0l-2.078125 7.609375q-0.0625 0.171875 -0.1875 0.28125q-0.125 0.109375 -0.296875 0.109375zm10.701691 0.0625q-0.921875 0 -1.65625 -0.4375q-0.734375 -0.4375 -1.15625 -1.1875q-0.421875 -0.765625 -0.421875 -1.71875q0 -0.953125 0.4375 -1.703125q0.4375 -0.765625 1.1875 -1.203125q0.765625 -0.4375 1.703125 -0.4375q0.95310974 0 1.7031097 0.4375q0.75 0.4375 1.1875 1.203125q0.4375 0.75 0.453125 1.703125l-0.375 0.296875q0 0.859375 -0.40625 1.546875q-0.390625 0.6875 -1.09375 1.09375q-0.6875 0.40625 -1.5624847 0.40625zm0.09375 -0.84375q0.70310974 0 1.2499847 -0.3125q0.546875 -0.328125 0.859375 -0.890625q0.3125 -0.578125 0.3125 -1.296875q0 -0.71875 -0.3125 -1.28125q-0.3125 -0.5625 -0.859375 -0.890625q-0.546875 -0.328125 -1.2499847 -0.328125q-0.671875 0 -1.234375 0.328125q-0.546875 0.328125 -0.875 0.890625q-0.328125 0.5625 -0.328125 1.28125q0 0.71875 0.328125 1.296875q0.328125 0.5625 0.875 0.890625q0.5625 0.3125 1.234375 0.3125zm2.8749847 0.78125q-0.203125 0 -0.34375 -0.125q-0.125 -0.125 -0.125 -0.328125l0 -2.0625l0.234375 -0.9375l0.703125 0.171875l0 2.828125q0 0.203125 -0.140625 0.328125q-0.125 0.125 -0.328125 0.125zm5.155304 0.0625q-0.9375 0 -1.671875 -0.421875q-0.734375 -0.4375 -1.15625 -1.1875q-0.40625 -0.75 -0.40625 -1.734375q0 -0.984375 0.421875 -1.734375q0.4375 -0.75 1.1875 -1.171875q0.765625 -0.4375 1.71875 -0.4375q0.984375 0 1.734375 0.4375q0.75 0.421875 1.171875 1.171875q0.421875 0.75 0.4375 1.734375l-0.546875 0.296875q0 0.890625 -0.375 1.578125q-0.359375 0.6875 -1.015625 1.078125q-0.65625 0.390625 -1.5 0.390625zm0.125 2.53125q-0.953125 0 -1.671875 -0.359375q-0.71875 -0.34375 -1.1875 -0.96875q-0.125 -0.140625 -0.109375 -0.3125q0.015625 -0.15625 0.171875 -0.265625q0.15625 -0.109375 0.34375 -0.078125q0.203125 0.03125 0.296875 0.1875q0.359375 0.421875 0.90625 0.6875q0.546875 0.265625 1.265625 0.265625q0.671875 0 1.203125 -0.328125q0.546875 -0.3125 0.859375 -0.90625q0.3125 -0.59375 0.3125 -1.375l0 -1.828125l0.359375 -0.703125l0.5625 0.109375l0 2.453125q0 0.96875 -0.4375 1.734375q-0.421875 0.78125 -1.171875 1.234375q-0.75 0.453125 -1.703125 0.453125zm-0.03125 -3.375q0.71875 0 1.265625 -0.3125q0.546875 -0.328125 0.84375 -0.890625q0.3125 -0.5625 0.3125 -1.296875q0 -0.734375 -0.3125 -1.296875q-0.296875 -0.5625 -0.84375 -0.875q-0.546875 -0.328125 -1.265625 -0.328125q-0.703125 0 -1.265625 0.328125q-0.546875 0.3125 -0.859375 0.875q-0.3125 0.5625 -0.3125 1.296875q0 0.734375 0.3125 1.296875q0.3125 0.5625 0.859375 0.890625q0.5625 0.3125 1.265625 0.3125zm8.124054 0.84375q-0.984375 0 -1.734375 -0.421875q-0.75 -0.4375 -1.171875 -1.1875q-0.421875 -0.75 -0.421875 -1.734375q0 -0.984375 0.390625 -1.734375q0.40625 -0.75 1.109375 -1.171875q0.71875 -0.4375 1.640625 -0.4375q0.90625 0 1.578125 0.421875q0.6875 0.40625 1.0625 1.140625q0.375 0.734375 0.375 1.671875q0 0.1875 -0.125 0.3125q-0.125 0.109375 -0.3125 0.109375l-5.09375 0l0 -0.78125l5.1875 0l-0.515625 0.375q0.015625 -0.6875 -0.25 -1.234375q-0.265625 -0.5625 -0.75 -0.875q-0.484375 -0.3125 -1.15625 -0.3125q-0.6875 0 -1.203125 0.328125q-0.515625 0.328125 -0.796875 0.890625q-0.28125 0.5625 -0.28125 1.296875q0 0.734375 0.3125 1.296875q0.328125 0.5625 0.875 0.890625q0.5625 0.328125 1.28125 0.328125q0.421875 0 0.859375 -0.140625q0.4375 -0.15625 0.703125 -0.390625q0.140625 -0.109375 0.296875 -0.109375q0.171875 -0.015625 0.296875 0.09375q0.15625 0.140625 0.15625 0.3125q0.015625 0.15625 -0.140625 0.28125q-0.390625 0.328125 -1.0 0.5625q-0.609375 0.21875 -1.171875 0.21875zm6.6805725 0q-0.71875 0 -1.421875 -0.234375q-0.6875 -0.25 -1.109375 -0.734375q-0.140625 -0.140625 -0.125 -0.3125q0.03125 -0.1875 0.1875 -0.3125q0.171875 -0.125 0.34375 -0.09375q0.1875 0.015625 0.3125 0.15625q0.28125 0.328125 0.75 0.515625q0.484375 0.171875 1.0625 0.171875q0.890625 0 1.28125 -0.296875q0.390625 -0.3125 0.40625 -0.75q0 -0.421875 -0.40625 -0.703125q-0.40625 -0.28125 -1.34375 -0.4375q-1.21875 -0.203125 -1.78125 -0.671875q-0.5625 -0.484375 -0.5625 -1.140625q0 -0.625 0.328125 -1.03125q0.328125 -0.40625 0.859375 -0.609375q0.546875 -0.203125 1.1875 -0.203125q0.8125 0 1.390625 0.28125q0.578125 0.265625 0.9375 0.734375q0.125 0.15625 0.09375 0.328125q-0.015625 0.171875 -0.1875 0.28125q-0.140625 0.078125 -0.328125 0.046875q-0.1875 -0.03125 -0.3125 -0.171875q-0.3125 -0.34375 -0.703125 -0.5q-0.390625 -0.171875 -0.90625 -0.171875q-0.671875 0 -1.0625 0.28125q-0.390625 0.265625 -0.390625 0.671875q0 0.265625 0.140625 0.484375q0.15625 0.203125 0.515625 0.359375q0.375 0.140625 1.03125 0.25q0.90625 0.15625 1.421875 0.4375q0.53125 0.28125 0.75 0.65625q0.21875 0.375 0.21875 0.8125q0 0.578125 -0.328125 1.0q-0.328125 0.421875 -0.921875 0.671875q-0.578125 0.234375 -1.328125 0.234375z" fill-rule="nonzero"/></g></svg>