<svg version="1.1" viewBox="0.0 0.0 288.0 288.0" fill="none" stroke="none" stroke-linecap="square" stroke-miterlimit="10" xmlns:xlink="http://www.w3.org/1999/xlink" xmlns="http://www.w3.org/2000/svg"><clipPath id="ga2795b97e7_0_0.0"><path d="m0 0l288.0 0l0 288.0l-288.0 0l0 -288.0z" clip-rule="nonzero"/></clipPath><g clip-path="url(#ga2795b97e7_0_0.0)"><path fill="#ffffff" d="m0 0l288.0 0l0 288.0l-288.0 0z" fill-rule="evenodd"/><path fill="#000000" fill-opacity="0.0" d="m37.712597 216.93788l1.1653557 -162.20473" fill-rule="evenodd"/><path stroke="#281e96" stroke-width="4.0" stroke-linejoin="round" stroke-linecap="butt" d="m37.712597 216.9379l0.99293137 -138.20535" fill-rule="evenodd"/><path fill="#281e96" stroke="#281e96" stroke-width="4.0" stroke-linecap="butt" d="m45.31229 78.78001l-6.476349 -18.199387l-6.737171 18.104454z" fill-rule="evenodd"/><path fill="#000000" fill-opacity="0.0" d="m51.259842 146.34908l62.614174 40.692917" fill-rule="evenodd"/><path stroke="#ff0000" stroke-width="4.0" stroke-linejoin="round" stroke-linecap="butt" d="m51.259842 146.34908l62.614174 40.692917" fill-rule="evenodd"/><path fill="#000000" fill-opacity="0.0" d="m35.90551 216.49693l173.13385 0.4409485" fill-rule="evenodd"/><path stroke="#281e96" stroke-width="4.0" stroke-linejoin="round" stroke-linecap="butt" d="m35.90551 216.49695l149.13394 0.37982178" fill-rule="evenodd"/><path fill="#281e96" stroke="#281e96" stroke-width="4.0" stroke-linecap="butt" d="m185.02263 223.48367l18.169144 -6.560669l-18.135498 -6.6531525z" fill-rule="evenodd"/><path fill="#000000" fill-opacity="0.0" d="m164.8349 131.4365l130.92914 0l0 33.10237l-130.92914 0z" fill-rule="evenodd"/><path fill="#ff0000" d="m179.24115 152.0815q-0.96875 0 -1.8125 -0.375q-0.84375 -0.375 -1.484375 -1.03125q-0.640625 -0.671875 -1.0 -1.546875q-0.359375 -0.875 -0.359375 -1.859375q0 -0.984375 0.34375 -1.859375q0.359375 -0.875 1.0 -1.53125q0.640625 -0.65625 1.484375 -1.03125q0.84375 -0.375 1.828125 -0.375q0.875 0 1.578125 0.25q0.703125 0.25 1.375 0.796875q0.09375 0.078125 0.109375 0.203125q0.03125 0.109375 -0.015625 0.21875q-0.046875 0.09375 -0.15625 0.140625q-0.015625 0.09375 -0.109375 0.140625q-0.09375 0.046875 -0.21875 0.046875q-0.125 -0.015625 -0.25 -0.109375q-0.46875 -0.40625 -1.03125 -0.609375q-0.546875 -0.203125 -1.28125 -0.203125q-0.78125 0 -1.453125 0.3125q-0.671875 0.3125 -1.1875 0.859375q-0.515625 0.53125 -0.8125 1.25q-0.296875 0.703125 -0.296875 1.5q0 0.8125 0.296875 1.53125q0.296875 0.703125 0.8125 1.25q0.515625 0.53125 1.1875 0.84375q0.671875 0.296875 1.453125 0.296875q0.671875 0 1.25 -0.21875q0.59375 -0.21875 1.125 -0.625q0.140625 -0.125 0.296875 -0.09375q0.171875 0.015625 0.28125 0.140625q0.125 0.125 0.125 0.3125q0 0.09375 -0.03125 0.171875q-0.015625 0.078125 -0.09375 0.171875q-0.625 0.5625 -1.375 0.796875q-0.75 0.234375 -1.578125 0.234375zm3.078125 -1.375l-0.90625 -0.1875l0 -2.421875l-1.875 0q-0.203125 0 -0.34375 -0.109375q-0.125 -0.125 -0.125 -0.296875q0 -0.1875 0.125 -0.296875q0.140625 -0.125 0.34375 -0.125l2.3125 0q0.203125 0 0.328125 0.140625q0.140625 0.125 0.140625 0.328125l0 2.96875zm2.43956 1.25q-0.203125 0 -0.34375 -0.125q-0.125 -0.140625 -0.125 -0.34375l0 -8.4375q0 -0.203125 0.125 -0.328125q0.140625 -0.140625 0.34375 -0.140625l2.15625 0q1.03125 0 1.890625 0.34375q0.859375 0.34375 1.484375 0.984375q0.625 0.625 0.96875 1.484375q0.34375 0.84375 0.34375 1.875q0 1.03125 -0.34375 1.890625q-0.34375 0.859375 -0.96875 1.484375q-0.625 0.625 -1.484375 0.96875q-0.859375 0.34375 -1.890625 0.34375l-2.15625 0zm0.46875 -0.84375l1.6875 0q1.109375 0 1.953125 -0.5q0.84375 -0.5 1.3125 -1.359375q0.484375 -0.875 0.484375 -1.984375q0 -1.125 -0.484375 -1.984375q-0.46875 -0.875 -1.3125 -1.359375q-0.84375 -0.5 -1.953125 -0.5l-1.6875 0l0 7.6875zm8.771317 0.84375q-0.203125 0 -0.34375 -0.125q-0.125 -0.140625 -0.125 -0.34375l0 -8.4375q0 -0.203125 0.125 -0.328125q0.140625 -0.140625 0.34375 -0.140625l2.390625 0q0.890625 0 1.578125 0.390625q0.6875 0.390625 1.0625 1.078125q0.390625 0.6875 0.390625 1.578125q0 0.875 -0.390625 1.5625q-0.375 0.671875 -1.0625 1.0625q-0.6875 0.390625 -1.578125 0.390625l-1.921875 0l0 2.84375q0 0.203125 -0.140625 0.34375q-0.125 0.125 -0.328125 0.125zm0.46875 -4.21875l1.921875 0q0.625 0 1.09375 -0.265625q0.484375 -0.265625 0.75 -0.75q0.28125 -0.484375 0.28125 -1.09375q0 -0.625 -0.28125 -1.109375q-0.265625 -0.484375 -0.75 -0.75q-0.46875 -0.28125 -1.09375 -0.28125l-1.921875 0l0 4.25zm10.266327 7.03125q-0.21875 0 -0.34375 -0.125q-0.125 -0.125 -0.125 -0.34375l0 -5.671875q0.015625 -0.9375 0.453125 -1.6875q0.4375 -0.75 1.1875 -1.171875q0.75 -0.4375 1.6875 -0.4375q0.953125 0 1.703125 0.4375q0.765625 0.4375 1.203125 1.203125q0.4375 0.75 0.4375 1.703125q0 0.953125 -0.421875 1.71875q-0.421875 0.75 -1.15625 1.1875q-0.734375 0.4375 -1.65625 0.4375q-0.8125 0 -1.46875 -0.34375q-0.640625 -0.34375 -1.046875 -0.90625l0 3.53125q0 0.21875 -0.125 0.34375q-0.125 0.125 -0.328125 0.125zm2.859375 -3.59375q0.6875 0 1.234375 -0.3125q0.5625 -0.328125 0.875 -0.890625q0.328125 -0.578125 0.328125 -1.296875q0 -0.71875 -0.328125 -1.28125q-0.3125 -0.5625 -0.875 -0.890625q-0.546875 -0.328125 -1.234375 -0.328125q-0.6875 0 -1.25 0.328125q-0.546875 0.328125 -0.859375 0.890625q-0.3125 0.5625 -0.3125 1.28125q0 0.71875 0.3125 1.296875q0.3125 0.5625 0.859375 0.890625q0.5625 0.3125 1.25 0.3125zm8.140305 0.84375q-0.984375 0 -1.734375 -0.421875q-0.75 -0.4375 -1.171875 -1.1875q-0.421875 -0.75 -0.421875 -1.734375q0 -0.984375 0.390625 -1.734375q0.40625 -0.75 1.109375 -1.171875q0.71875 -0.4375 1.640625 -0.4375q0.90625 0 1.578125 0.421875q0.6875 0.40625 1.0625 1.140625q0.375 0.734375 0.375 1.671875q0 0.1875 -0.125 0.3125q-0.125 0.109375 -0.3125 0.109375l-5.09375 0l0 -0.78125l5.1875 0l-0.515625 0.375q0.015625 -0.6875 -0.25 -1.234375q-0.265625 -0.5625 -0.75 -0.875q-0.484375 -0.3125 -1.15625 -0.3125q-0.6875 0 -1.203125 0.328125q-0.515625 0.328125 -0.796875 0.890625q-0.28125 0.5625 -0.28125 1.296875q0 0.734375 0.3125 1.296875q0.328125 0.5625 0.875 0.890625q0.5625 0.328125 1.28125 0.328125q0.421875 0 0.859375 -0.140625q0.4375 -0.15625 0.703125 -0.390625q0.140625 -0.109375 0.296875 -0.109375q0.171875 -0.015625 0.296875 0.09375q0.15625 0.140625 0.15625 0.3125q0.015625 0.15625 -0.140625 0.28125q-0.390625 0.328125 -1.0 0.5625q-0.609375 0.21875 -1.171875 0.21875zm4.7743073 -4.109375q0.03125 -0.734375 0.375 -1.328125q0.359375 -0.59375 0.921875 -0.921875q0.578125 -0.34375 1.28125 -0.34375q0.546875 0 0.84375 0.15625q0.3125 0.15625 0.234375 0.453125q-0.046875 0.1875 -0.171875 0.25q-0.109375 0.0625 -0.265625 0.046875q-0.15625 -0.015625 -0.375 -0.03125q-0.671875 -0.046875 -1.1875 0.15625q-0.515625 0.1875 -0.828125 0.59375q-0.3125 0.40625 -0.3125 0.96875l-0.515625 0zm0.0625 4.046875q-0.21875 0 -0.34375 -0.109375q-0.109375 -0.125 -0.109375 -0.34375l0 -5.65625q0 -0.21875 0.109375 -0.328125q0.125 -0.125 0.34375 -0.125q0.21875 0 0.328125 0.125q0.125 0.109375 0.125 0.328125l0 5.65625q0 0.21875 -0.125 0.34375q-0.109375 0.109375 -0.328125 0.109375zm12.887054 0.125q-0.96875 0 -1.8125 -0.375q-0.84375 -0.375 -1.484375 -1.03125q-0.640625 -0.671875 -1.0 -1.546875q-0.359375 -0.875 -0.359375 -1.859375q0 -0.984375 0.34375 -1.859375q0.359375 -0.875 1.0 -1.53125q0.640625 -0.65625 1.484375 -1.03125q0.84375 -0.375 1.828125 -0.375q0.875 0 1.578125 0.25q0.703125 0.25 1.375 0.796875q0.09375 0.078125 0.109375 0.203125q0.03125 0.109375 -0.015625 0.21875q-0.046875 0.09375 -0.15625 0.140625q-0.015625 0.09375 -0.109375 0.140625q-0.09375 0.046875 -0.21875 0.046875q-0.125 -0.015625 -0.25 -0.109375q-0.46875 -0.40625 -1.03125 -0.609375q-0.546875 -0.203125 -1.28125 -0.203125q-0.78125 0 -1.453125 0.3125q-0.671875 0.3125 -1.1875 0.859375q-0.515625 0.53125 -0.8125 1.25q-0.296875 0.703125 -0.296875 1.5q0 0.8125 0.296875 1.53125q0.296875 0.703125 0.8125 1.25q0.515625 0.53125 1.1875 0.84375q0.671875 0.296875 1.453125 0.296875q0.671875 0 1.25 -0.21875q0.59375 -0.21875 1.125 -0.625q0.140625 -0.125 0.296875 -0.09375q0.171875 0.015625 0.28125 0.140625q0.125 0.125 0.125 0.3125q0 0.09375 -0.03125 0.171875q-0.03125 0.078125 -0.09375 0.171875q-0.625 0.5625 -1.375 0.796875q-0.75 0.234375 -1.578125 0.234375zm7.334564 -0.0625q-0.921875 0 -1.65625 -0.4375q-0.734375 -0.4375 -1.15625 -1.1875q-0.421875 -0.765625 -0.421875 -1.71875q0 -0.953125 0.4375 -1.703125q0.4375 -0.765625 1.1875 -1.203125q0.765625 -0.4375 1.703125 -0.4375q0.953125 0 1.703125 0.4375q0.75 0.4375 1.1875 1.203125q0.4375 0.75 0.453125 1.703125l-0.375 0.296875q0 0.859375 -0.40625 1.546875q-0.390625 0.6875 -1.09375 1.09375q-0.6875 0.40625 -1.5625 0.40625zm0.09375 -0.84375q0.703125 0 1.25 -0.3125q0.546875 -0.328125 0.859375 -0.890625q0.3125 -0.578125 0.3125 -1.296875q0 -0.71875 -0.3125 -1.28125q-0.3125 -0.5625 -0.859375 -0.890625q-0.546875 -0.328125 -1.25 -0.328125q-0.671875 0 -1.234375 0.328125q-0.546875 0.328125 -0.875 0.890625q-0.328125 0.5625 -0.328125 1.28125q0 0.71875 0.328125 1.296875q0.328125 0.5625 0.875 0.890625q0.5625 0.3125 1.234375 0.3125zm2.875 0.78125q-0.203125 0 -0.34375 -0.125q-0.125 -0.125 -0.125 -0.328125l0 -2.0625l0.234375 -0.9375l0.703125 0.171875l0 2.828125q0 0.203125 -0.140625 0.328125q-0.125 0.125 -0.328125 0.125zm2.733429 2.8125q-0.21875 0 -0.34375 -0.125q-0.125 -0.125 -0.125 -0.34375l0 -5.671875q0.015625 -0.9375 0.453125 -1.6875q0.4375 -0.75 1.1875 -1.171875q0.75 -0.4375 1.6875 -0.4375q0.953125 0 1.703125 0.4375q0.765625 0.4375 1.203125 1.203125q0.4375 0.75 0.4375 1.703125q0 0.953125 -0.421875 1.71875q-0.421875 0.75 -1.15625 1.1875q-0.734375 0.4375 -1.65625 0.4375q-0.8125 0 -1.46875 -0.34375q-0.640625 -0.34375 -1.046875 -0.90625l0 3.53125q0 0.21875 -0.125 0.34375q-0.125 0.125 -0.328125 0.125zm2.859375 -3.59375q0.6875 0 1.234375 -0.3125q0.5625 -0.328125 0.875 -0.890625q0.328125 -0.578125 0.328125 -1.296875q0 -0.71875 -0.328125 -1.28125q-0.3125 -0.5625 -0.875 -0.890625q-0.546875 -0.328125 -1.234375 -0.328125q-0.6875 0 -1.25 0.328125q-0.546875 0.328125 -0.859375 0.890625q-0.3125 0.5625 -0.3125 1.28125q0 0.71875 0.3125 1.296875q0.3125 0.5625 0.859375 0.890625q0.5625 0.3125 1.25 0.3125zm5.8121796 0.78125q-0.203125 0 -0.34375 -0.125q-0.125 -0.125 -0.125 -0.34375l0 -5.625q0 -0.21875 0.125 -0.34375q0.140625 -0.125 0.34375 -0.125q0.203125 0 0.328125 0.125q0.140625 0.125 0.140625 0.34375l0 5.625q0 0.21875 -0.140625 0.34375q-0.125 0.125 -0.328125 0.125zm0.046875 -7.8125q-0.265625 0 -0.46875 -0.1875q-0.1875 -0.203125 -0.1875 -0.46875q0 -0.296875 0.203125 -0.46875q0.203125 -0.1875 0.453125 -0.1875q0.265625 0 0.453125 0.1875q0.203125 0.171875 0.203125 0.46875q0 0.265625 -0.203125 0.46875q-0.1875 0.1875 -0.453125 0.1875zm5.3273773 7.8125q-0.625 0 -1.125 -0.296875q-0.5 -0.296875 -0.796875 -0.8125q-0.28125 -0.53125 -0.28125 -1.203125l0 -5.875q0 -0.203125 0.125 -0.328125q0.125 -0.140625 0.328125 -0.140625q0.203125 0 0.328125 0.140625q0.140625 0.125 0.140625 0.328125l0 5.875q0 0.609375 0.359375 1.0q0.359375 0.390625 0.921875 0.390625l0.328125 0q0.1875 0 0.3125 0.140625q0.125 0.125 0.125 0.328125q0 0.203125 -0.15625 0.328125q-0.140625 0.125 -0.34375 0.125l-0.265625 0zm-2.984375 -5.515625q-0.171875 0 -0.296875 -0.109375q-0.125 -0.125 -0.125 -0.296875q0 -0.171875 0.125 -0.28125q0.125 -0.125 0.296875 -0.125l3.0625 0q0.1875 0 0.296875 0.125q0.125 0.109375 0.125 0.28125q0 0.171875 -0.125 0.296875q-0.109375 0.109375 -0.296875 0.109375l-3.0625 0zm8.136536 5.578125q-0.921875 0 -1.65625 -0.4375q-0.734375 -0.4375 -1.15625 -1.1875q-0.421875 -0.765625 -0.421875 -1.71875q0 -0.953125 0.4375 -1.703125q0.4375 -0.765625 1.1875 -1.203125q0.765625 -0.4375 1.703125 -0.4375q0.953125 0 1.703125 0.4375q0.75 0.4375 1.1875 1.203125q0.4375 0.75 0.453125 1.703125l-0.375 0.296875q0 0.859375 -0.40625 1.546875q-0.390625 0.6875 -1.09375 1.09375q-0.6875 0.40625 -1.5625 0.40625zm0.09375 -0.84375q0.703125 0 1.25 -0.3125q0.546875 -0.328125 0.859375 -0.890625q0.3125 -0.578125 0.3125 -1.296875q0 -0.71875 -0.3125 -1.28125q-0.3125 -0.5625 -0.859375 -0.890625q-0.546875 -0.328125 -1.25 -0.328125q-0.671875 0 -1.234375 0.328125q-0.546875 0.328125 -0.875 0.890625q-0.328125 0.5625 -0.328125 1.28125q0 0.71875 0.328125 1.296875q0.328125 0.5625 0.875 0.890625q0.5625 0.3125 1.234375 0.3125zm2.875 0.78125q-0.203125 0 -0.34375 -0.125q-0.125 -0.125 -0.125 -0.328125l0 -2.0625l0.234375 -0.9375l0.703125 0.171875l0 2.828125q0 0.203125 -0.140625 0.328125q-0.125 0.125 -0.328125 0.125z" fill-rule="nonzero"/><path fill="#ff0000" d="m177.80365 166.019q-0.9375 0 -1.671875 -0.421875q-0.734375 -0.4375 -1.15625 -1.1875q-0.40625 -0.75 -0.40625 -1.734375q0 -0.984375 0.421875 -1.734375q0.4375 -0.75 1.1875 -1.171875q0.765625 -0.4375 1.71875 -0.4375q0.984375 0 1.734375 0.4375q0.75 0.421875 1.171875 1.171875q0.421875 0.75 0.4375 1.734375l-0.546875 0.296875q0 0.890625 -0.375 1.578125q-0.359375 0.6875 -1.015625 1.078125q-0.65625 0.390625 -1.5 0.390625zm0.125 2.53125q-0.953125 0 -1.671875 -0.359375q-0.71875 -0.34375 -1.1875 -0.96875q-0.125 -0.140625 -0.109375 -0.3125q0.015625 -0.15625 0.171875 -0.265625q0.15625 -0.109375 0.34375 -0.078125q0.203125 0.03125 0.296875 0.1875q0.359375 0.421875 0.90625 0.6875q0.546875 0.265625 1.265625 0.265625q0.671875 0 1.203125 -0.328125q0.546875 -0.3125 0.859375 -0.90625q0.3125 -0.59375 0.3125 -1.375l0 -1.828125l0.359375 -0.703125l0.5625 0.109375l0 2.453125q0 0.96875 -0.4375 1.734375q-0.421875 0.78125 -1.171875 1.234375q-0.75 0.453125 -1.703125 0.453125zm-0.03125 -3.375q0.71875 0 1.265625 -0.3125q0.546875 -0.328125 0.84375 -0.890625q0.3125 -0.5625 0.3125 -1.296875q0 -0.734375 -0.3125 -1.296875q-0.296875 -0.5625 -0.84375 -0.875q-0.546875 -0.328125 -1.265625 -0.328125q-0.703125 0 -1.265625 0.328125q-0.546875 0.3125 -0.859375 0.875q-0.3125 0.5625 -0.3125 1.296875q0 0.734375 0.3125 1.296875q0.3125 0.5625 0.859375 0.890625q0.5625 0.3125 1.265625 0.3125zm5.530304 -3.265625q0.03125 -0.734375 0.375 -1.328125q0.359375 -0.59375 0.921875 -0.921875q0.578125 -0.34375 1.28125 -0.34375q0.546875 0 0.84375 0.15625q0.3125 0.15625 0.234375 0.453125q-0.046875 0.1875 -0.171875 0.25q-0.109375 0.0625 -0.265625 0.046875q-0.15625 -0.015625 -0.375 -0.03125q-0.671875 -0.046875 -1.1875 0.15625q-0.515625 0.1875 -0.828125 0.59375q-0.3125 0.40625 -0.3125 0.96875l-0.515625 0zm0.0625 4.046875q-0.21875 0 -0.34375 -0.109375q-0.109375 -0.125 -0.109375 -0.34375l0 -5.65625q0 -0.21875 0.109375 -0.328125q0.125 -0.125 0.34375 -0.125q0.21875 0 0.328125 0.125q0.125 0.109375 0.125 0.328125l0 5.65625q0 0.21875 -0.125 0.34375q-0.109375 0.109375 -0.328125 0.109375zm7.547287 0.0625q-0.953125 0 -1.71875 -0.421875q-0.75 -0.4375 -1.1875 -1.1875q-0.421875 -0.765625 -0.421875 -1.734375q0 -0.96875 0.421875 -1.71875q0.4375 -0.765625 1.1875 -1.1875q0.765625 -0.4375 1.71875 -0.4375q0.96875 0 1.71875 0.4375q0.75 0.421875 1.171875 1.1875q0.4375 0.75 0.453125 1.71875q0 0.96875 -0.4375 1.734375q-0.4375 0.75 -1.1875 1.1875q-0.75 0.421875 -1.71875 0.421875zm0 -0.84375q0.703125 0 1.25 -0.3125q0.5625 -0.328125 0.859375 -0.890625q0.3125 -0.578125 0.3125 -1.296875q0 -0.71875 -0.3125 -1.28125q-0.296875 -0.578125 -0.859375 -0.890625q-0.546875 -0.328125 -1.25 -0.328125q-0.6875 0 -1.25 0.328125q-0.546875 0.3125 -0.875 0.890625q-0.3125 0.5625 -0.3125 1.28125q0 0.71875 0.3125 1.296875q0.328125 0.5625 0.875 0.890625q0.5625 0.3125 1.25 0.3125zm6.2640533 0.78125q-0.15625 0 -0.28125 -0.078125q-0.109375 -0.09375 -0.15625 -0.21875l-1.875 -5.625q-0.0625 -0.296875 0.015625 -0.46875q0.078125 -0.171875 0.328125 -0.171875q0.15625 0 0.28125 0.09375q0.125 0.078125 0.1875 0.25l1.65625 5.109375l-0.265625 0l1.5625 -5.09375q0.046875 -0.15625 0.15625 -0.25q0.109375 -0.109375 0.296875 -0.109375q0.171875 0 0.28125 0.09375q0.125 0.09375 0.171875 0.265625l1.46875 4.96875l-0.203125 0l1.640625 -4.984375q0.109375 -0.34375 0.4375 -0.34375q0.265625 0 0.359375 0.203125q0.09375 0.1875 0 0.4375l-1.875 5.625q-0.046875 0.125 -0.15625 0.21875q-0.109375 0.078125 -0.265625 0.078125q-0.15625 0 -0.28125 -0.078125q-0.125 -0.09375 -0.171875 -0.21875l-1.5 -5.015625l0.140625 0l-1.515625 5.015625q-0.046875 0.140625 -0.171875 0.21875q-0.109375 0.078125 -0.265625 0.078125zm9.958191 0q-0.625 0 -1.125 -0.296875q-0.5 -0.296875 -0.796875 -0.8125q-0.28125 -0.53125 -0.28125 -1.203125l0 -5.875q0 -0.203125 0.125 -0.328125q0.125 -0.140625 0.328125 -0.140625q0.203125 0 0.328125 0.140625q0.140625 0.125 0.140625 0.328125l0 5.875q0 0.609375 0.359375 1.0q0.359375 0.390625 0.921875 0.390625l0.328125 0q0.1875 0 0.3125 0.140625q0.125 0.125 0.125 0.328125q0 0.203125 -0.15625 0.328125q-0.140625 0.125 -0.34375 0.125l-0.265625 0zm-2.984375 -5.515625q-0.171875 0 -0.296875 -0.109375q-0.125 -0.125 -0.125 -0.296875q0 -0.171875 0.125 -0.28125q0.125 -0.125 0.296875 -0.125l3.0625 0q0.1875 0 0.296875 0.125q0.125 0.109375 0.125 0.28125q0 0.171875 -0.125 0.296875q-0.109375 0.109375 -0.296875 0.109375l-3.0625 0zm10.870911 5.515625q-0.203125 0 -0.34375 -0.125q-0.125 -0.140625 -0.125 -0.328125l0 -3.125q0 -0.734375 -0.28125 -1.21875q-0.28125 -0.484375 -0.765625 -0.71875q-0.484375 -0.25 -1.09375 -0.25q-0.59375 0 -1.0625 0.234375q-0.46875 0.234375 -0.75 0.625q-0.28125 0.390625 -0.28125 0.890625l-0.65625 0q0.03125 -0.75 0.40625 -1.34375q0.390625 -0.59375 1.015625 -0.9375q0.640625 -0.34375 1.421875 -0.34375q0.859375 0 1.53125 0.359375q0.671875 0.359375 1.046875 1.046875q0.390625 0.671875 0.390625 1.65625l0 3.125q0 0.1875 -0.125 0.328125q-0.125 0.125 -0.328125 0.125zm-5.15625 0q-0.21875 0 -0.34375 -0.125q-0.125 -0.125 -0.125 -0.328125l0 -5.640625q0 -0.21875 0.125 -0.34375q0.125 -0.125 0.34375 -0.125q0.203125 0 0.328125 0.125q0.125 0.125 0.125 0.34375l0 5.640625q0 0.203125 -0.125 0.328125q-0.125 0.125 -0.328125 0.125zm0 -2.671875q-0.21875 0 -0.34375 -0.125q-0.125 -0.140625 -0.125 -0.34375l0 -5.765625q0 -0.21875 0.125 -0.34375q0.125 -0.125 0.34375 -0.125q0.203125 0 0.328125 0.125q0.125 0.125 0.125 0.34375l0 5.765625q0 0.203125 -0.125 0.34375q-0.125 0.125 -0.328125 0.125z" fill-rule="nonzero"/><path fill="#000000" fill-opacity="0.0" d="m116.32546 200.16536l136.97638 0l0 33.102356l-136.97638 0z" fill-rule="evenodd"/><path fill="#4332ff" d="m218.2835 220.68535q-0.1875 0 -0.328125 -0.140625q-0.140625 -0.140625 -0.140625 -0.328125l0 -8.90625l0.9375 0l0 8.90625q0 0.1875 -0.140625 0.328125q-0.125 0.140625 -0.328125 0.140625zm-3.3125 -8.515625q-0.1875 0 -0.3125 -0.125q-0.109375 -0.125 -0.109375 -0.296875q0 -0.1875 0.109375 -0.3125q0.125 -0.125 0.3125 -0.125l6.640625 0q0.1875 0 0.3125 0.125q0.125 0.125 0.125 0.3125q0 0.171875 -0.125 0.296875q-0.125 0.125 -0.3125 0.125l-6.640625 0zm8.865067 8.515625q-0.203125 0 -0.34375 -0.125q-0.125 -0.125 -0.125 -0.34375l0 -5.625q0 -0.21875 0.125 -0.34375q0.140625 -0.125 0.34375 -0.125q0.203125 0 0.328125 0.125q0.140625 0.125 0.140625 0.34375l0 5.625q0 0.21875 -0.140625 0.34375q-0.125 0.125 -0.328125 0.125zm0.046875 -7.8125q-0.265625 0 -0.46875 -0.1875q-0.1875 -0.203125 -0.1875 -0.46875q0 -0.296875 0.203125 -0.46875q0.203125 -0.1875 0.453125 -0.1875q0.265625 0 0.453125 0.1875q0.203125 0.171875 0.203125 0.46875q0 0.265625 -0.203125 0.46875q-0.1875 0.1875 -0.453125 0.1875zm11.639893 7.8125q-0.203125 0 -0.34375 -0.125q-0.125 -0.125 -0.125 -0.328125l0 -3.453125q0 -0.859375 -0.453125 -1.359375q-0.4375 -0.5 -1.140625 -0.5q-0.734375 0 -1.21875 0.5q-0.46875 0.5 -0.453125 1.328125l-0.828125 0q0.015625 -0.796875 0.34375 -1.40625q0.34375 -0.625 0.921875 -0.953125q0.59375 -0.34375 1.328125 -0.34375q0.71875 0 1.265625 0.34375q0.546875 0.328125 0.84375 0.953125q0.3125 0.609375 0.3125 1.4375l0 3.453125q0 0.203125 -0.125 0.328125q-0.125 0.125 -0.328125 0.125zm-8.40625 0q-0.21875 0 -0.34375 -0.125q-0.125 -0.125 -0.125 -0.328125l0 -5.640625q0 -0.203125 0.125 -0.328125q0.125 -0.140625 0.34375 -0.140625q0.203125 0 0.328125 0.140625q0.125 0.125 0.125 0.328125l0 5.640625q0 0.203125 -0.125 0.328125q-0.125 0.125 -0.328125 0.125zm4.21875 0q-0.203125 0 -0.34375 -0.125q-0.125 -0.125 -0.125 -0.328125l0 -3.453125q0 -0.859375 -0.453125 -1.359375q-0.4375 -0.5 -1.140625 -0.5q-0.734375 0 -1.21875 0.5q-0.484375 0.484375 -0.484375 1.25l-0.65625 0q0.03125 -0.765625 0.34375 -1.359375q0.3125 -0.59375 0.859375 -0.921875q0.5625 -0.34375 1.25 -0.34375q0.71875 0 1.265625 0.34375q0.546875 0.328125 0.84375 0.953125q0.3125 0.609375 0.3125 1.4375l0 3.453125q0 0.203125 -0.125 0.328125q-0.125 0.125 -0.328125 0.125zm9.66095 0.0625q-0.984375 0 -1.734375 -0.421875q-0.75 -0.4375 -1.171875 -1.1875q-0.421875 -0.75 -0.421875 -1.734375q0 -0.984375 0.390625 -1.734375q0.40625 -0.75 1.109375 -1.171875q0.71875 -0.4375 1.640625 -0.4375q0.90625 0 1.578125 0.421875q0.6875 0.40625 1.0625 1.140625q0.375 0.734375 0.375 1.671875q0 0.1875 -0.125 0.3125q-0.125 0.109375 -0.3125 0.109375l-5.09375 0l0 -0.78125l5.1875 0l-0.515625 0.375q0.015625 -0.6875 -0.25 -1.234375q-0.265625 -0.5625 -0.75 -0.875q-0.484375 -0.3125 -1.15625 -0.3125q-0.6875 0 -1.203125 0.328125q-0.515625 0.328125 -0.796875 0.890625q-0.28125 0.5625 -0.28125 1.296875q0 0.734375 0.3125 1.296875q0.328125 0.5625 0.875 0.890625q0.5625 0.328125 1.28125 0.328125q0.421875 0 0.859375 -0.140625q0.4375 -0.15625 0.703125 -0.390625q0.140625 -0.109375 0.296875 -0.109375q0.171875 -0.015625 0.296875 0.09375q0.15625 0.140625 0.15625 0.3125q0.015625 0.15625 -0.140625 0.28125q-0.390625 0.328125 -1.0 0.5625q-0.609375 0.21875 -1.171875 0.21875z" fill-rule="nonzero"/><path fill="#000000" fill-opacity="0.0" d="m112.694855 187.04462l75.90552 -9.3858185" fill-rule="evenodd"/><path stroke="#ff0000" stroke-width="4.0" stroke-linejoin="round" stroke-linecap="butt" d="m112.694855 187.04462l75.90552 -9.3858185" fill-rule="evenodd"/></g></svg>