<svg version="1.1" viewBox="0.0 0.0 576.0 576.0" fill="none" stroke="none" stroke-linecap="square" stroke-miterlimit="10" xmlns:xlink="http://www.w3.org/1999/xlink" xmlns="http://www.w3.org/2000/svg"><clipPath id="gaef6ddb010_0_777.0"><path d="m0 0l576.0 0l0 576.0l-576.0 0l0 -576.0z" clip-rule="nonzero"/></clipPath><g clip-path="url(#gaef6ddb010_0_777.0)"><path fill="#ffffff" d="m0 0l576.0 0l0 576.0l-576.0 0z" fill-rule="evenodd"/><path fill="#ff0000" d="m520.2568 275.75674l-14.929169 1.559082l12.913422 -7.6378174z" fill-rule="evenodd"/><path stroke="#ffffff" stroke-width="1.0" stroke-linejoin="round" stroke-linecap="butt" d="m520.2568 275.75674l-14.929169 1.559082l12.913422 -7.6378174z" fill-rule="evenodd"/><path fill="#f3f3f3" d="m88.25459 224.24745l0 0c0 -2.2615356 16.35218 -4.094864 36.52362 -4.094864c20.171448 0 36.52362 1.8333282 36.52362 4.094864l0 16.37947c0 2.2615204 -16.352173 4.094864 -36.52362 4.094864c-20.17144 0 -36.52362 -1.8333435 -36.52362 -4.094864z" fill-rule="evenodd"/><path fill="#000000" fill-opacity="0.0" d="m161.30183 224.24745l0 0c0 2.2615356 -16.352173 4.094864 -36.52362 4.094864c-20.17144 0 -36.52362 -1.8333282 -36.52362 -4.094864" fill-rule="evenodd"/><path fill="#000000" fill-opacity="0.0" d="m88.25459 224.24745l0 0c0 -2.2615356 16.35218 -4.094864 36.52362 -4.094864c20.171448 0 36.52362 1.8333282 36.52362 4.094864l0 16.37947c0 2.2615204 -16.352173 4.094864 -36.52362 4.094864c-20.17144 0 -36.52362 -1.8333435 -36.52362 -4.094864z" fill-rule="evenodd"/><path stroke="#073763" stroke-width="1.0" stroke-linejoin="round" stroke-linecap="butt" d="m161.30183 224.24745l0 0c0 2.2615356 -16.352173 4.094864 -36.52362 4.094864c-20.17144 0 -36.52362 -1.8333282 -36.52362 -4.094864" fill-rule="evenodd"/><path stroke="#073763" stroke-width="1.0" stroke-linejoin="round" stroke-linecap="butt" d="m88.25459 224.24745l0 0c0 -2.2615356 16.35218 -4.094864 36.52362 -4.094864c20.171448 0 36.52362 1.8333282 36.52362 4.094864l0 16.37947c0 2.2615204 -16.352173 4.094864 -36.52362 4.094864c-20.17144 0 -36.52362 -1.8333435 -36.52362 -4.094864z" fill-rule="evenodd"/><path fill="#f3f3f3" d="m88.25459 203.30502l0 0c0 -2.2615356 16.35218 -4.094879 36.52362 -4.094879c20.171448 0 36.52362 1.8333435 36.52362 4.094879l0 16.379456c0 2.2615356 -16.352173 4.094879 -36.52362 4.094879c-20.17144 0 -36.52362 -1.8333435 -36.52362 -4.094879z" fill-rule="evenodd"/><path fill="#000000" fill-opacity="0.0" d="m161.30183 203.30502l0 0c0 2.2615204 -16.352173 4.094864 -36.52362 4.094864c-20.17144 0 -36.52362 -1.8333435 -36.52362 -4.094864" fill-rule="evenodd"/><path fill="#000000" fill-opacity="0.0" d="m88.25459 203.30502l0 0c0 -2.2615356 16.35218 -4.094879 36.52362 -4.094879c20.171448 0 36.52362 1.8333435 36.52362 4.094879l0 16.379456c0 2.2615356 -16.352173 4.094879 -36.52362 4.094879c-20.17144 0 -36.52362 -1.8333435 -36.52362 -4.094879z" fill-rule="evenodd"/><path stroke="#073763" stroke-width="1.0" stroke-linejoin="round" stroke-linecap="butt" d="m161.30183 203.30502l0 0c0 2.2615204 -16.352173 4.094864 -36.52362 4.094864c-20.17144 0 -36.52362 -1.8333435 -36.52362 -4.094864" fill-rule="evenodd"/><path stroke="#073763" stroke-width="1.0" stroke-linejoin="round" stroke-linecap="butt" d="m88.25459 203.30502l0 0c0 -2.2615356 16.35218 -4.094879 36.52362 -4.094879c20.171448 0 36.52362 1.8333435 36.52362 4.094879l0 16.379456c0 2.2615356 -16.352173 4.094879 -36.52362 4.094879c-20.17144 0 -36.52362 -1.8333435 -36.52362 -4.094879z" fill-rule="evenodd"/><path fill="#f3f3f3" d="m88.25459 182.36258l0 0c0 -2.2615356 16.35218 -4.094864 36.52362 -4.094864c20.171448 0 36.52362 1.8333282 36.52362 4.094864l0 16.37947c0 2.2615356 -16.352173 4.094864 -36.52362 4.094864c-20.17144 0 -36.52362 -1.8333282 -36.52362 -4.094864z" fill-rule="evenodd"/><path fill="#000000" fill-opacity="0.0" d="m161.30183 182.36258l0 0c0 2.2615356 -16.352173 4.094864 -36.52362 4.094864c-20.17144 0 -36.52362 -1.8333282 -36.52362 -4.094864" fill-rule="evenodd"/><path fill="#000000" fill-opacity="0.0" d="m88.25459 182.36258l0 0c0 -2.2615356 16.35218 -4.094864 36.52362 -4.094864c20.171448 0 36.52362 1.8333282 36.52362 4.094864l0 16.37947c0 2.2615356 -16.352173 4.094864 -36.52362 4.094864c-20.17144 0 -36.52362 -1.8333282 -36.52362 -4.094864z" fill-rule="evenodd"/><path stroke="#073763" stroke-width="1.0" stroke-linejoin="round" stroke-linecap="butt" d="m161.30183 182.36258l0 0c0 2.2615356 -16.352173 4.094864 -36.52362 4.094864c-20.17144 0 -36.52362 -1.8333282 -36.52362 -4.094864" fill-rule="evenodd"/><path stroke="#073763" stroke-width="1.0" stroke-linejoin="round" stroke-linecap="butt" d="m88.25459 182.36258l0 0c0 -2.2615356 16.35218 -4.094864 36.52362 -4.094864c20.171448 0 36.52362 1.8333282 36.52362 4.094864l0 16.37947c0 2.2615356 -16.352173 4.094864 -36.52362 4.094864c-20.17144 0 -36.52362 -1.8333282 -36.52362 -4.094864z" fill-rule="evenodd"/><path fill="#f3f3f3" d="m10.451444 300.7527l0 0c0 -2.2615051 16.35218 -4.0948486 36.523624 -4.0948486c20.17144 0 36.52362 1.8333435 36.52362 4.0948486l0 16.379486c0 2.2615356 -16.35218 4.0948486 -36.52362 4.0948486c-20.171442 0 -36.523624 -1.833313 -36.523624 -4.0948486z" fill-rule="evenodd"/><path fill="#000000" fill-opacity="0.0" d="m83.49869 300.7527l0 0c0 2.2615356 -16.35218 4.094879 -36.52362 4.094879c-20.171442 0 -36.523624 -1.8333435 -36.523624 -4.094879" fill-rule="evenodd"/><path fill="#000000" fill-opacity="0.0" d="m10.451444 300.7527l0 0c0 -2.2615051 16.35218 -4.0948486 36.523624 -4.0948486c20.17144 0 36.52362 1.8333435 36.52362 4.0948486l0 16.379486c0 2.2615356 -16.35218 4.0948486 -36.52362 4.0948486c-20.171442 0 -36.523624 -1.833313 -36.523624 -4.0948486z" fill-rule="evenodd"/><path stroke="#073763" stroke-width="1.0" stroke-linejoin="round" stroke-linecap="butt" d="m83.49869 300.7527l0 0c0 2.2615356 -16.35218 4.094879 -36.52362 4.094879c-20.171442 0 -36.523624 -1.8333435 -36.523624 -4.094879" fill-rule="evenodd"/><path stroke="#073763" stroke-width="1.0" stroke-linejoin="round" stroke-linecap="butt" d="m10.451444 300.7527l0 0c0 -2.2615051 16.35218 -4.0948486 36.523624 -4.0948486c20.17144 0 36.52362 1.8333435 36.52362 4.0948486l0 16.379486c0 2.2615356 -16.35218 4.0948486 -36.52362 4.0948486c-20.171442 0 -36.523624 -1.833313 -36.523624 -4.0948486z" fill-rule="evenodd"/><path fill="#f3f3f3" d="m10.451444 279.81027l0 0c0 -2.2615356 16.35218 -4.094879 36.523624 -4.094879c20.17144 0 36.52362 1.8333435 36.52362 4.094879l0 16.379456c0 2.2615356 -16.35218 4.094879 -36.52362 4.094879c-20.171442 0 -36.523624 -1.8333435 -36.523624 -4.094879z" fill-rule="evenodd"/><path fill="#000000" fill-opacity="0.0" d="m83.49869 279.81027l0 0c0 2.2615356 -16.35218 4.0948486 -36.52362 4.0948486c-20.171442 0 -36.523624 -1.833313 -36.523624 -4.0948486" fill-rule="evenodd"/><path fill="#000000" fill-opacity="0.0" d="m10.451444 279.81027l0 0c0 -2.2615356 16.35218 -4.094879 36.523624 -4.094879c20.17144 0 36.52362 1.8333435 36.52362 4.094879l0 16.379456c0 2.2615356 -16.35218 4.094879 -36.52362 4.094879c-20.171442 0 -36.523624 -1.8333435 -36.523624 -4.094879z" fill-rule="evenodd"/><path stroke="#073763" stroke-width="1.0" stroke-linejoin="round" stroke-linecap="butt" d="m83.49869 279.81027l0 0c0 2.2615356 -16.35218 4.0948486 -36.52362 4.0948486c-20.171442 0 -36.523624 -1.833313 -36.523624 -4.0948486" fill-rule="evenodd"/><path stroke="#073763" stroke-width="1.0" stroke-linejoin="round" stroke-linecap="butt" d="m10.451444 279.81027l0 0c0 -2.2615356 16.35218 -4.094879 36.523624 -4.094879c20.17144 0 36.52362 1.8333435 36.52362 4.094879l0 16.379456c0 2.2615356 -16.35218 4.094879 -36.52362 4.094879c-20.171442 0 -36.523624 -1.8333435 -36.523624 -4.094879z" fill-rule="evenodd"/><path fill="#f3f3f3" d="m10.451444 258.86783l0 0c0 -2.2615356 16.35218 -4.094864 36.523624 -4.094864c20.17144 0 36.52362 1.8333282 36.52362 4.094864l0 16.379456c0 2.2615356 -16.35218 4.094879 -36.52362 4.094879c-20.171442 0 -36.523624 -1.8333435 -36.523624 -4.094879z" fill-rule="evenodd"/><path fill="#000000" fill-opacity="0.0" d="m83.49869 258.86783l0 0c0 2.2615356 -16.35218 4.094879 -36.52362 4.094879c-20.171442 0 -36.523624 -1.8333435 -36.523624 -4.094879" fill-rule="evenodd"/><path fill="#000000" fill-opacity="0.0" d="m10.451444 258.86783l0 0c0 -2.2615356 16.35218 -4.094864 36.523624 -4.094864c20.17144 0 36.52362 1.8333282 36.52362 4.094864l0 16.379456c0 2.2615356 -16.35218 4.094879 -36.52362 4.094879c-20.171442 0 -36.523624 -1.8333435 -36.523624 -4.094879z" fill-rule="evenodd"/><path stroke="#073763" stroke-width="1.0" stroke-linejoin="round" stroke-linecap="butt" d="m83.49869 258.86783l0 0c0 2.2615356 -16.35218 4.094879 -36.52362 4.094879c-20.171442 0 -36.523624 -1.8333435 -36.523624 -4.094879" fill-rule="evenodd"/><path stroke="#073763" stroke-width="1.0" stroke-linejoin="round" stroke-linecap="butt" d="m10.451444 258.86783l0 0c0 -2.2615356 16.35218 -4.094864 36.523624 -4.094864c20.17144 0 36.52362 1.8333282 36.52362 4.094864l0 16.379456c0 2.2615356 -16.35218 4.094879 -36.52362 4.094879c-20.171442 0 -36.523624 -1.8333435 -36.523624 -4.094879z" fill-rule="evenodd"/><path fill="#f3f3f3" d="m88.25459 378.2606l0 0c0 -2.2615356 16.35218 -4.094879 36.52362 -4.094879c20.171448 0 36.52362 1.8333435 36.52362 4.094879l0 16.379456c0 2.2615356 -16.352173 4.0948486 -36.52362 4.0948486c-20.17144 0 -36.52362 -1.833313 -36.52362 -4.0948486z" fill-rule="evenodd"/><path fill="#000000" fill-opacity="0.0" d="m161.30183 378.2606l0 0c0 2.2615051 -16.352173 4.0948486 -36.52362 4.0948486c-20.17144 0 -36.52362 -1.8333435 -36.52362 -4.0948486" fill-rule="evenodd"/><path fill="#000000" fill-opacity="0.0" d="m88.25459 378.2606l0 0c0 -2.2615356 16.35218 -4.094879 36.52362 -4.094879c20.171448 0 36.52362 1.8333435 36.52362 4.094879l0 16.379456c0 2.2615356 -16.352173 4.0948486 -36.52362 4.0948486c-20.17144 0 -36.52362 -1.833313 -36.52362 -4.0948486z" fill-rule="evenodd"/><path stroke="#073763" stroke-width="1.0" stroke-linejoin="round" stroke-linecap="butt" d="m161.30183 378.2606l0 0c0 2.2615051 -16.352173 4.0948486 -36.52362 4.0948486c-20.17144 0 -36.52362 -1.8333435 -36.52362 -4.0948486" fill-rule="evenodd"/><path stroke="#073763" stroke-width="1.0" stroke-linejoin="round" stroke-linecap="butt" d="m88.25459 378.2606l0 0c0 -2.2615356 16.35218 -4.094879 36.52362 -4.094879c20.171448 0 36.52362 1.8333435 36.52362 4.094879l0 16.379456c0 2.2615356 -16.352173 4.0948486 -36.52362 4.0948486c-20.17144 0 -36.52362 -1.833313 -36.52362 -4.0948486z" fill-rule="evenodd"/><path fill="#f3f3f3" d="m88.25459 357.31815l0 0c0 -2.2615356 16.35218 -4.094879 36.52362 -4.094879c20.171448 0 36.52362 1.8333435 36.52362 4.094879l0 16.379456c0 2.2615356 -16.352173 4.094879 -36.52362 4.094879c-20.17144 0 -36.52362 -1.8333435 -36.52362 -4.094879z" fill-rule="evenodd"/><path fill="#000000" fill-opacity="0.0" d="m161.30183 357.31815l0 0c0 2.2615356 -16.352173 4.0948486 -36.52362 4.0948486c-20.17144 0 -36.52362 -1.833313 -36.52362 -4.0948486" fill-rule="evenodd"/><path fill="#000000" fill-opacity="0.0" d="m88.25459 357.31815l0 0c0 -2.2615356 16.35218 -4.094879 36.52362 -4.094879c20.171448 0 36.52362 1.8333435 36.52362 4.094879l0 16.379456c0 2.2615356 -16.352173 4.094879 -36.52362 4.094879c-20.17144 0 -36.52362 -1.8333435 -36.52362 -4.094879z" fill-rule="evenodd"/><path stroke="#073763" stroke-width="1.0" stroke-linejoin="round" stroke-linecap="butt" d="m161.30183 357.31815l0 0c0 2.2615356 -16.352173 4.0948486 -36.52362 4.0948486c-20.17144 0 -36.52362 -1.833313 -36.52362 -4.0948486" fill-rule="evenodd"/><path stroke="#073763" stroke-width="1.0" stroke-linejoin="round" stroke-linecap="butt" d="m88.25459 357.31815l0 0c0 -2.2615356 16.35218 -4.094879 36.52362 -4.094879c20.171448 0 36.52362 1.8333435 36.52362 4.094879l0 16.379456c0 2.2615356 -16.352173 4.094879 -36.52362 4.094879c-20.17144 0 -36.52362 -1.8333435 -36.52362 -4.094879z" fill-rule="evenodd"/><path fill="#f3f3f3" d="m88.25459 336.3757l0 0c0 -2.2615356 16.35218 -4.0948486 36.52362 -4.0948486c20.171448 0 36.52362 1.833313 36.52362 4.0948486l0 16.379486c0 2.2615051 -16.352173 4.0948486 -36.52362 4.0948486c-20.17144 0 -36.52362 -1.8333435 -36.52362 -4.0948486z" fill-rule="evenodd"/><path fill="#000000" fill-opacity="0.0" d="m161.30183 336.3757l0 0c0 2.2615356 -16.352173 4.094879 -36.52362 4.094879c-20.17144 0 -36.52362 -1.8333435 -36.52362 -4.094879" fill-rule="evenodd"/><path fill="#000000" fill-opacity="0.0" d="m88.25459 336.3757l0 0c0 -2.2615356 16.35218 -4.0948486 36.52362 -4.0948486c20.171448 0 36.52362 1.833313 36.52362 4.0948486l0 16.379486c0 2.2615051 -16.352173 4.0948486 -36.52362 4.0948486c-20.17144 0 -36.52362 -1.8333435 -36.52362 -4.0948486z" fill-rule="evenodd"/><path stroke="#073763" stroke-width="1.0" stroke-linejoin="round" stroke-linecap="butt" d="m161.30183 336.3757l0 0c0 2.2615356 -16.352173 4.094879 -36.52362 4.094879c-20.17144 0 -36.52362 -1.8333435 -36.52362 -4.094879" fill-rule="evenodd"/><path stroke="#073763" stroke-width="1.0" stroke-linejoin="round" stroke-linecap="butt" d="m88.25459 336.3757l0 0c0 -2.2615356 16.35218 -4.0948486 36.52362 -4.0948486c20.171448 0 36.52362 1.833313 36.52362 4.0948486l0 16.379486c0 2.2615051 -16.352173 4.0948486 -36.52362 4.0948486c-20.17144 0 -36.52362 -1.8333435 -36.52362 -4.0948486z" fill-rule="evenodd"/><path fill="#eeeeee" d="m251.48032 258.14304l73.03937 0l0 17.826782l-73.03937 0z" fill-rule="evenodd"/><path stroke="#000000" stroke-width="1.0" stroke-linejoin="round" stroke-linecap="butt" d="m251.48032 258.14304l73.03937 0l0 17.826782l-73.03937 0z" fill-rule="evenodd"/><path fill="#eeeeee" d="m251.48032 279.0853l73.03937 0l0 17.826782l-73.03937 0z" fill-rule="evenodd"/><path stroke="#000000" stroke-width="1.0" stroke-linejoin="round" stroke-linecap="butt" d="m251.48032 279.0853l73.03937 0l0 17.826782l-73.03937 0z" fill-rule="evenodd"/><path fill="#eeeeee" d="m251.48032 300.02756l73.03937 0l0 17.826782l-73.03937 0z" fill-rule="evenodd"/><path stroke="#000000" stroke-width="1.0" stroke-linejoin="round" stroke-linecap="butt" d="m251.48032 300.02756l73.03937 0l0 17.826782l-73.03937 0z" fill-rule="evenodd"/><path fill="#000000" fill-opacity="0.0" d="m83.49869 288.0l167.9685 0" fill-rule="evenodd"/><path stroke="#38761d" stroke-width="4.0" stroke-linejoin="round" stroke-linecap="butt" stroke-dasharray="16.0,12.0" d="m83.49869 288.0l167.9685 0" fill-rule="evenodd"/><path fill="#000000" fill-opacity="0.0" d="m161.30183 211.49475l90.17323 55.55905" fill-rule="evenodd"/><path stroke="#38761d" stroke-width="4.0" stroke-linejoin="round" stroke-linecap="butt" stroke-dasharray="16.0,12.0" d="m161.30183 211.49475l90.17323 55.55905" fill-rule="evenodd"/><path fill="#000000" fill-opacity="0.0" d="m161.30183 365.50787l90.17323 -56.566925" fill-rule="evenodd"/><path stroke="#38761d" stroke-width="4.0" stroke-linejoin="round" stroke-linecap="butt" stroke-dasharray="16.0,12.0" d="m161.30183 365.50787l90.17323 -56.566925" fill-rule="evenodd"/><path fill="#eeeeee" d="m304.24146 267.05643l0 0c0 -1.0610657 0.860199 -1.9212646 1.9212646 -1.9212646l0 0c0.509552 0 0.99823 0.2024231 1.358551 0.56274414c0.36029053 0.36029053 0.5627136 0.8489685 0.5627136 1.3585205l0 0c0 1.0610962 -0.86016846 1.9212646 -1.9212646 1.9212646l0 0c-1.0610657 0 -1.9212646 -0.86016846 -1.9212646 -1.9212646z" fill-rule="evenodd"/><path stroke="#595959" stroke-width="1.0" stroke-linejoin="round" stroke-linecap="butt" d="m304.24146 267.05643l0 0c0 -1.0610657 0.860199 -1.9212646 1.9212646 -1.9212646l0 0c0.509552 0 0.99823 0.2024231 1.358551 0.56274414c0.36029053 0.36029053 0.5627136 0.8489685 0.5627136 1.3585205l0 0c0 1.0610962 -0.86016846 1.9212646 -1.9212646 1.9212646l0 0c-1.0610657 0 -1.9212646 -0.86016846 -1.9212646 -1.9212646z" fill-rule="evenodd"/><path fill="#eeeeee" d="m310.66928 267.0551l0 0c0 -1.0610657 0.860199 -1.9212646 1.9212646 -1.9212646l0 0c0.509552 0 0.99823 0.2024231 1.358551 0.56274414c0.36029053 0.36029053 0.5627136 0.8489685 0.5627136 1.3585205l0 0c0 1.0610962 -0.86016846 1.9212646 -1.9212646 1.9212646l0 0c-1.0610657 0 -1.9212646 -0.86016846 -1.9212646 -1.9212646z" fill-rule="evenodd"/><path stroke="#595959" stroke-width="1.0" stroke-linejoin="round" stroke-linecap="butt" d="m310.66928 267.0551l0 0c0 -1.0610657 0.860199 -1.9212646 1.9212646 -1.9212646l0 0c0.509552 0 0.99823 0.2024231 1.358551 0.56274414c0.36029053 0.36029053 0.5627136 0.8489685 0.5627136 1.3585205l0 0c0 1.0610962 -0.86016846 1.9212646 -1.9212646 1.9212646l0 0c-1.0610657 0 -1.9212646 -0.86016846 -1.9212646 -1.9212646z" fill-rule="evenodd"/><path fill="#eeeeee" d="m317.0971 267.0538l0 0c0 -1.0610657 0.86016846 -1.9212646 1.9212646 -1.9212646l0 0c0.509552 0 0.99823 0.2024231 1.358551 0.56274414c0.36029053 0.36029053 0.5627136 0.8489685 0.5627136 1.3585205l0 0c0 1.0610962 -0.86016846 1.9212646 -1.9212646 1.9212646l0 0c-1.0610962 0 -1.9212646 -0.86016846 -1.9212646 -1.9212646z" fill-rule="evenodd"/><path stroke="#595959" stroke-width="1.0" stroke-linejoin="round" stroke-linecap="butt" d="m317.0971 267.0538l0 0c0 -1.0610657 0.86016846 -1.9212646 1.9212646 -1.9212646l0 0c0.509552 0 0.99823 0.2024231 1.358551 0.56274414c0.36029053 0.36029053 0.5627136 0.8489685 0.5627136 1.3585205l0 0c0 1.0610962 -0.86016846 1.9212646 -1.9212646 1.9212646l0 0c-1.0610962 0 -1.9212646 -0.86016846 -1.9212646 -1.9212646z" fill-rule="evenodd"/><path fill="#eeeeee" d="m304.24146 288.0l0 0c0 -1.0610962 0.860199 -1.9212646 1.9212646 -1.9212646l0 0c0.509552 0 0.99823 0.2024231 1.358551 0.5627136c0.36029053 0.36032104 0.5627136 0.848999 0.5627136 1.358551l0 0c0 1.0610962 -0.86016846 1.9212646 -1.9212646 1.9212646l0 0c-1.0610657 0 -1.9212646 -0.86016846 -1.9212646 -1.9212646z" fill-rule="evenodd"/><path stroke="#595959" stroke-width="1.0" stroke-linejoin="round" stroke-linecap="butt" d="m304.24146 288.0l0 0c0 -1.0610962 0.860199 -1.9212646 1.9212646 -1.9212646l0 0c0.509552 0 0.99823 0.2024231 1.358551 0.5627136c0.36029053 0.36032104 0.5627136 0.848999 0.5627136 1.358551l0 0c0 1.0610962 -0.86016846 1.9212646 -1.9212646 1.9212646l0 0c-1.0610657 0 -1.9212646 -0.86016846 -1.9212646 -1.9212646z" fill-rule="evenodd"/><path fill="#eeeeee" d="m310.66928 287.9987l0 0c0 -1.0610962 0.860199 -1.9212646 1.9212646 -1.9212646l0 0c0.509552 0 0.99823 0.2024231 1.358551 0.5627136c0.36029053 0.36032104 0.5627136 0.848999 0.5627136 1.358551l0 0c0 1.0610962 -0.86016846 1.9212646 -1.9212646 1.9212646l0 0c-1.0610657 0 -1.9212646 -0.86016846 -1.9212646 -1.9212646z" fill-rule="evenodd"/><path stroke="#595959" stroke-width="1.0" stroke-linejoin="round" stroke-linecap="butt" d="m310.66928 287.9987l0 0c0 -1.0610962 0.860199 -1.9212646 1.9212646 -1.9212646l0 0c0.509552 0 0.99823 0.2024231 1.358551 0.5627136c0.36029053 0.36032104 0.5627136 0.848999 0.5627136 1.358551l0 0c0 1.0610962 -0.86016846 1.9212646 -1.9212646 1.9212646l0 0c-1.0610657 0 -1.9212646 -0.86016846 -1.9212646 -1.9212646z" fill-rule="evenodd"/><path fill="#eeeeee" d="m317.0971 287.99738l0 0c0 -1.0610962 0.86016846 -1.9212646 1.9212646 -1.9212646l0 0c0.509552 0 0.99823 0.2024231 1.358551 0.5627136c0.36029053 0.36032104 0.5627136 0.848999 0.5627136 1.358551l0 0c0 1.0610962 -0.86016846 1.9212646 -1.9212646 1.9212646l0 0c-1.0610962 0 -1.9212646 -0.86016846 -1.9212646 -1.9212646z" fill-rule="evenodd"/><path stroke="#595959" stroke-width="1.0" stroke-linejoin="round" stroke-linecap="butt" d="m317.0971 287.99738l0 0c0 -1.0610962 0.86016846 -1.9212646 1.9212646 -1.9212646l0 0c0.509552 0 0.99823 0.2024231 1.358551 0.5627136c0.36029053 0.36032104 0.5627136 0.848999 0.5627136 1.358551l0 0c0 1.0610962 -0.86016846 1.9212646 -1.9212646 1.9212646l0 0c-1.0610962 0 -1.9212646 -0.86016846 -1.9212646 -1.9212646z" fill-rule="evenodd"/><path fill="#eeeeee" d="m304.24146 308.94357l0 0c0 -1.0610962 0.860199 -1.9212646 1.9212646 -1.9212646l0 0c0.509552 0 0.99823 0.2024231 1.358551 0.5627136c0.36029053 0.36032104 0.5627136 0.848999 0.5627136 1.358551l0 0c0 1.0610657 -0.86016846 1.9212646 -1.9212646 1.9212646l0 0c-1.0610657 0 -1.9212646 -0.860199 -1.9212646 -1.9212646z" fill-rule="evenodd"/><path stroke="#595959" stroke-width="1.0" stroke-linejoin="round" stroke-linecap="butt" d="m304.24146 308.94357l0 0c0 -1.0610962 0.860199 -1.9212646 1.9212646 -1.9212646l0 0c0.509552 0 0.99823 0.2024231 1.358551 0.5627136c0.36029053 0.36032104 0.5627136 0.848999 0.5627136 1.358551l0 0c0 1.0610657 -0.86016846 1.9212646 -1.9212646 1.9212646l0 0c-1.0610657 0 -1.9212646 -0.860199 -1.9212646 -1.9212646z" fill-rule="evenodd"/><path fill="#eeeeee" d="m310.66928 308.94226l0 0c0 -1.0610962 0.860199 -1.9212646 1.9212646 -1.9212646l0 0c0.509552 0 0.99823 0.2024231 1.358551 0.5627136c0.36029053 0.36032104 0.5627136 0.848999 0.5627136 1.358551l0 0c0 1.0610657 -0.86016846 1.9212646 -1.9212646 1.9212646l0 0c-1.0610657 0 -1.9212646 -0.860199 -1.9212646 -1.9212646z" fill-rule="evenodd"/><path stroke="#595959" stroke-width="1.0" stroke-linejoin="round" stroke-linecap="butt" d="m310.66928 308.94226l0 0c0 -1.0610962 0.860199 -1.9212646 1.9212646 -1.9212646l0 0c0.509552 0 0.99823 0.2024231 1.358551 0.5627136c0.36029053 0.36032104 0.5627136 0.848999 0.5627136 1.358551l0 0c0 1.0610657 -0.86016846 1.9212646 -1.9212646 1.9212646l0 0c-1.0610657 0 -1.9212646 -0.860199 -1.9212646 -1.9212646z" fill-rule="evenodd"/><path fill="#eeeeee" d="m317.0971 308.94095l0 0c0 -1.0610962 0.86016846 -1.9212646 1.9212646 -1.9212646l0 0c0.509552 0 0.99823 0.2024231 1.358551 0.5627136c0.36029053 0.36032104 0.5627136 0.848999 0.5627136 1.358551l0 0c0 1.0610657 -0.86016846 1.9212646 -1.9212646 1.9212646l0 0c-1.0610962 0 -1.9212646 -0.860199 -1.9212646 -1.9212646z" fill-rule="evenodd"/><path stroke="#595959" stroke-width="1.0" stroke-linejoin="round" stroke-linecap="butt" d="m317.0971 308.94095l0 0c0 -1.0610962 0.86016846 -1.9212646 1.9212646 -1.9212646l0 0c0.509552 0 0.99823 0.2024231 1.358551 0.5627136c0.36029053 0.36032104 0.5627136 0.848999 0.5627136 1.358551l0 0c0 1.0610657 -0.86016846 1.9212646 -1.9212646 1.9212646l0 0c-1.0610962 0 -1.9212646 -0.860199 -1.9212646 -1.9212646z" fill-rule="evenodd"/><path fill="#000000" fill-opacity="0.0" d="m335.1496 287.99738l120.566925 -0.25198364" fill-rule="evenodd"/><path stroke="#38761d" stroke-width="4.0" stroke-linejoin="round" stroke-linecap="butt" stroke-dasharray="16.0,12.0" d="m335.1496 287.99738l120.566925 -0.25198364" fill-rule="evenodd"/><path fill="#000000" fill-opacity="0.0" d="m461.54068 310.86353l-0.5354309 -61.29135" fill-rule="evenodd"/><path stroke="#595959" stroke-width="1.0" stroke-linejoin="round" stroke-linecap="butt" d="m461.54068 310.86353l-0.48303223 -55.291565" fill-rule="evenodd"/><path fill="#595959" stroke="#595959" stroke-width="1.0" stroke-linecap="butt" d="m462.70932 255.55753l-1.6913147 -4.5234985l-1.6119995 4.552353z" fill-rule="evenodd"/><path fill="#000000" fill-opacity="0.0" d="m461.0046 310.86353l66.677155 -0.4409485" fill-rule="evenodd"/><path stroke="#595959" stroke-width="1.0" stroke-linejoin="round" stroke-linecap="butt" d="m461.00464 310.86353l60.677307 -0.40127563" fill-rule="evenodd"/><path fill="#595959" stroke="#595959" stroke-width="1.0" stroke-linecap="butt" d="m521.6929 312.11395l4.5270386 -1.6817017l-4.548889 -1.6217041z" fill-rule="evenodd"/><path fill="#000000" fill-opacity="0.0" d="m465.7139 307.34122c3.2568054 -3.3893433 13.535004 -15.6111145 19.54071 -20.335968c6.0056763 -4.7248535 11.315826 -6.269043 16.493408 -8.013123c5.1776123 -1.7441101 12.143524 -2.0428772 14.572174 -2.4514465" fill-rule="evenodd"/><path stroke="#0000ff" stroke-width="1.0" stroke-linejoin="round" stroke-linecap="butt" d="m465.7139 307.34122c3.2568054 -3.3893433 13.535004 -15.6111145 19.54071 -20.335968c6.0056763 -4.7248535 11.315826 -6.269043 16.493408 -8.013123c5.1776123 -1.7441101 12.143524 -2.0428772 14.572174 -2.4514465" fill-rule="evenodd"/><path fill="#000000" fill-opacity="0.0" d="m501.9475 278.9265l14.519653 -8.881897" fill-rule="evenodd"/><path stroke="#0000ff" stroke-width="1.0" stroke-linejoin="round" stroke-linecap="butt" d="m501.9475 278.9265l14.519653 -8.881897" fill-rule="evenodd"/><path fill="#000000" fill-opacity="0.0" d="m76.83698 139.8924l109.70078 0l0 42.015747l-109.70078 0z" fill-rule="evenodd"/><path fill="#000000" d="m91.96198 153.4999q3.03125 0 4.65625 1.609375q1.640625 1.59375 1.640625 4.734375q0 3.515625 -1.625 5.25q-1.609375 1.71875 -4.671875 1.71875l-4.671875 0l0 -13.3125l4.671875 0zm0.109375 11.8125q2.0 0 3.203125 -1.296875q1.21875 -1.296875 1.21875 -3.9375q0 -2.640625 -1.109375 -3.859375q-1.09375 -1.234375 -3.25 -1.234375l-3.078125 0l0 10.328125l3.015625 0zm12.042145 -8.359375q1.96875 0 2.78125 0.703125q0.828125 0.6875 0.828125 1.875q0 5.015625 0 5.5625q0 0.546875 0.5 0.546875q0.109375 0 0.234375 -0.03125q0.140625 -0.03125 0.25 -0.0625l0 1.234375q-0.21875 0.125 -0.5 0.1875q-0.28125 0.078125 -0.625 0.078125q-0.65625 0 -1.0 -0.375q-0.34375 -0.375 -0.34375 -1.125q-0.640625 0.75 -1.5 1.125q-0.84375 0.375 -1.90625 0.375q-1.484375 0 -2.34375 -0.703125q-0.84375 -0.71875 -0.84375 -2.015625q0 -1.296875 0.828125 -2.046875q0.828125 -0.765625 3.90625 -1.15625q1.03125 -0.140625 1.390625 -0.390625q0.375 -0.265625 0.375 -0.796875q0 -0.796875 -0.515625 -1.1875q-0.5 -0.40625 -1.625 -0.40625q-1.171875 0 -1.765625 0.453125q-0.59375 0.4375 -0.640625 1.375l-1.578125 0q0.078125 -1.609375 1.125 -2.40625q1.0625 -0.8125 2.96875 -0.8125zm-2.796875 7.265625q0 0.671875 0.484375 1.046875q0.5 0.375 1.390625 0.375q1.34375 0 2.140625 -0.65625q0.796875 -0.671875 0.796875 -1.5l0 -1.65625q-0.390625 0.28125 -1.03125 0.390625q-0.640625 0.09375 -1.703125 0.234375q-1.046875 0.15625 -1.5625 0.578125q-0.515625 0.421875 -0.515625 1.1875zm11.067322 -9.9375l0 2.890625l1.921875 0l0 1.390625l-1.921875 0l0 6.046875q0 0.71875 0.484375 0.765625q0.484375 0.03125 1.0 0.03125l0.4375 0l0 1.40625l-1.296875 0q-1.3125 0 -1.765625 -0.453125q-0.4375 -0.46875 -0.4375 -1.5625l0 -6.234375l-1.65625 0l0 -1.390625l1.65625 0l0 -2.890625l1.578125 0zm7.6256256 2.671875q1.96875 0 2.78125 0.703125q0.828125 0.6875 0.828125 1.875q0 5.015625 0 5.5625q0 0.546875 0.5 0.546875q0.109375 0 0.234375 -0.03125q0.140625 -0.03125 0.25 -0.0625l0 1.234375q-0.21875 0.125 -0.5 0.1875q-0.28125 0.078125 -0.625 0.078125q-0.65625 0 -1.0 -0.375q-0.34375 -0.375 -0.34375 -1.125q-0.640625 0.75 -1.5 1.125q-0.84375 0.375 -1.90625 0.375q-1.484375 0 -2.34375 -0.703125q-0.84375 -0.71875 -0.84375 -2.015625q0 -1.296875 0.828125 -2.046875q0.828125 -0.765625 3.90625 -1.15625q1.03125 -0.140625 1.390625 -0.390625q0.375 -0.265625 0.375 -0.796875q0 -0.796875 -0.515625 -1.1875q-0.5 -0.40625 -1.625 -0.40625q-1.171875 0 -1.765625 0.453125q-0.59375 0.4375 -0.640625 1.375l-1.578125 0q0.078125 -1.609375 1.125 -2.40625q1.0625 -0.8125 2.96875 -0.8125zm-2.796875 7.265625q0 0.671875 0.484375 1.046875q0.5 0.375 1.390625 0.375q1.34375 0 2.140625 -0.65625q0.796875 -0.671875 0.796875 -1.5l0 -1.65625q-0.390625 0.28125 -1.03125 0.390625q-0.640625 0.09375 -1.703125 0.234375q-1.046875 0.15625 -1.5625 0.578125q-0.515625 0.421875 -0.515625 1.1875zm10.504822 -10.71875l0 4.984375l0.046875 0q0.37500763 -0.75 1.1718826 -1.140625q0.796875 -0.390625 1.90625 -0.390625q2.0625 0 3.25 1.421875q1.1875 1.421875 1.1875 3.640625q0 2.25 -1.1875 3.640625q-1.171875 1.390625 -3.203125 1.390625q-0.90625 0 -1.765625 -0.375q-0.859375 -0.375 -1.3593826 -1.140625l-0.046875 0l0 1.28125l-1.578125 0l0 -13.3125l1.578125 0zm-0.046875 8.484375q0 1.671875 0.8125076 2.671875q0.8125 0.984375 2.234375 0.984375q1.375 0 2.125 -0.984375q0.75 -0.984375 0.75 -2.75q0 -1.546875 -0.796875 -2.546875q-0.796875 -1.015625 -2.1875 -1.015625q-1.40625 0 -2.171875 1.015625q-0.7656326 1.015625 -0.7656326 2.625zm13.418312 -5.03125q1.96875 0 2.78125 0.703125q0.828125 0.6875 0.828125 1.875q0 5.015625 0 5.5625q0 0.546875 0.5 0.546875q0.109375 0 0.234375 -0.03125q0.140625 -0.03125 0.25 -0.0625l0 1.234375q-0.21875 0.125 -0.5 0.1875q-0.28125 0.078125 -0.625 0.078125q-0.65625 0 -1.0 -0.375q-0.34375 -0.375 -0.34375 -1.125q-0.640625 0.75 -1.5 1.125q-0.84375 0.375 -1.90625 0.375q-1.484375 0 -2.34375 -0.703125q-0.84375 -0.71875 -0.84375 -2.015625q0 -1.296875 0.828125 -2.046875q0.828125 -0.765625 3.90625 -1.15625q1.03125 -0.140625 1.390625 -0.390625q0.375 -0.265625 0.375 -0.796875q0 -0.796875 -0.515625 -1.1875q-0.5 -0.40625 -1.625 -0.40625q-1.171875 0 -1.765625 0.453125q-0.59375 0.4375 -0.640625 1.375l-1.578125 0q0.078125 -1.609375 1.125 -2.40625q1.0625 -0.8125 2.96875 -0.8125zm-2.796875 7.265625q0 0.671875 0.484375 1.046875q0.5 0.375 1.390625 0.375q1.34375 0 2.140625 -0.65625q0.796875 -0.671875 0.796875 -1.5l0 -1.65625q-0.390625 0.28125 -1.03125 0.390625q-0.640625 0.09375 -1.703125 0.234375q-1.046875 0.15625 -1.5625 0.578125q-0.515625 0.421875 -0.515625 1.1875zm12.082947 -7.265625q1.9375 0 2.890625 0.75q0.953125 0.75 1.03125 2.265625l-1.578125 0l0 -0.03125q-0.0625 -0.765625 -0.671875 -1.171875q-0.609375 -0.421875 -1.5625 -0.421875q-0.953125 0 -1.515625 0.328125q-0.546875 0.3125 -0.546875 0.90625q0 0.515625 0.484375 0.859375q0.5 0.328125 1.484375 0.546875l1.484375 0.328125q1.40625 0.3125 2.125 0.953125q0.734375 0.640625 0.734375 1.734375q0 1.421875 -1.109375 2.234375q-1.09375 0.8125 -2.984375 0.8125q-1.859375 0 -2.953125 -0.828125q-1.078125 -0.84375 -1.140625 -2.453125l1.59375 0q0.03125 0.90625 0.703125 1.390625q0.6875 0.484375 1.875 0.484375q1.15625 0 1.75 -0.359375q0.59375 -0.375 0.59375 -1.078125q0 -0.65625 -0.59375 -1.03125q-0.59375 -0.375 -2.40625 -0.734375q-1.828125 -0.359375 -2.578125 -1.015625q-0.734375 -0.65625 -0.734375 -1.734375q0 -1.265625 1.03125 -2.0q1.03125 -0.734375 2.59375 -0.734375zm10.125 0q2.078125 0 3.21875 1.5q1.15625 1.484375 1.15625 3.828125l0 0.1875l-7.234375 0l0 0.109375q0 1.390625 0.796875 2.234375q0.8125 0.828125 2.21875 0.828125q1.046875 0 1.671875 -0.484375q0.625 -0.5 0.828125 -1.40625l1.5625 0q-0.328125 1.609375 -1.40625 2.453125q-1.078125 0.84375 -2.71875 0.84375q-1.515625 0 -2.578125 -0.6875q-1.046875 -0.6875 -1.546875 -1.90625q-0.5 -1.234375 -0.5 -2.515625q0 -2.140625 1.28125 -3.5625q1.296875 -1.421875 3.25 -1.421875zm-2.859375 4.109375l5.546875 0q-0.078125 -1.171875 -0.859375 -1.9375q-0.765625 -0.78125 -1.9375 -0.78125q-1.09375 0 -1.875 0.734375q-0.765625 0.734375 -0.875 1.984375zm12.082947 -4.109375q1.9375 0 2.890625 0.75q0.953125 0.75 1.03125 2.265625l-1.578125 0l0 -0.03125q-0.0625 -0.765625 -0.671875 -1.171875q-0.609375 -0.421875 -1.5625 -0.421875q-0.953125 0 -1.515625 0.328125q-0.546875 0.3125 -0.546875 0.90625q0 0.515625 0.484375 0.859375q0.5 0.328125 1.484375 0.546875l1.484375 0.328125q1.40625 0.3125 2.125 0.953125q0.734375 0.640625 0.734375 1.734375q0 1.421875 -1.109375 2.234375q-1.09375 0.8125 -2.984375 0.8125q-1.859375 0 -2.953125 -0.828125q-1.078125 -0.84375 -1.140625 -2.453125l1.59375 0q0.03125 0.90625 0.703125 1.390625q0.6875 0.484375 1.875 0.484375q1.15625 0 1.75 -0.359375q0.59375 -0.375 0.59375 -1.078125q0 -0.65625 -0.59375 -1.03125q-0.59375 -0.375 -2.40625 -0.734375q-1.828125 -0.359375 -2.578125 -1.015625q-0.734375 -0.65625 -0.734375 -1.734375q0 -1.265625 1.03125 -2.0q1.03125 -0.734375 2.59375 -0.734375z" fill-rule="nonzero"/><path fill="#000000" fill-opacity="0.0" d="m241.53937 173.61942l148.56693 0l0 87.275604l-148.56693 0z" fill-rule="evenodd"/><path fill="#000000" d="m257.64874 186.89879q2.203125 0 3.6875 1.15625q1.5 1.140625 1.796875 3.171875l-1.765625 0q-0.296875 -1.359375 -1.296875 -2.09375q-0.984375 -0.734375 -2.4375 -0.734375q-2.125 0 -3.328125 1.5q-1.1875 1.484375 -1.1875 3.890625q0 2.546875 1.171875 4.0625q1.171875 1.515625 3.359375 1.515625q1.625 0 2.671875 -1.03125q1.046875 -1.046875 1.171875 -2.8125l1.765625 0q-0.28125 2.578125 -1.796875 3.953125q-1.5 1.375 -3.96875 1.375q-2.859375 0 -4.515625 -1.890625q-1.640625 -1.890625 -1.640625 -5.046875q0 -3.109375 1.703125 -5.0625q1.703125 -1.953125 4.609375 -1.953125zm11.566711 3.78125q2.078125 0 3.21875 1.5q1.15625 1.484375 1.15625 3.828125l0 0.1875l-7.234375 0l0 0.109375q0 1.390625 0.796875 2.234375q0.8125 0.828125 2.21875 0.828125q1.046875 0 1.671875 -0.484375q0.625 -0.5 0.828125 -1.40625l1.5625 0q-0.328125 1.609375 -1.40625 2.453125q-1.078125 0.84375 -2.71875 0.84375q-1.515625 0 -2.578125 -0.6875q-1.046875 -0.6875 -1.546875 -1.90625q-0.5 -1.234375 -0.5 -2.515625q0 -2.140625 1.28125 -3.5625q1.296875 -1.421875 3.25 -1.421875zm-2.859375 4.109375l5.546875 0q-0.078125 -1.171875 -0.859375 -1.9375q-0.765625 -0.78125 -1.9375 -0.78125q-1.09375 0 -1.875 0.734375q-0.765625 0.734375 -0.875 1.984375zm13.536072 -4.109375q1.75 0 2.53125 0.890625q0.796875 0.890625 0.796875 2.546875l0 6.421875l-1.59375 0l0 -6.59375q0 -0.8125 -0.53125 -1.34375q-0.515625 -0.53125 -1.4375 -0.53125q-1.34375 0 -2.09375 0.828125q-0.75 0.8125 -0.75 2.125l0 5.515625l-1.59375 0l0 -9.640625l1.5 0l0 1.53125l0.03125 0q0.53125 -0.90625 1.296875 -1.328125q0.78125 -0.421875 1.84375 -0.421875zm7.906952 -2.671875l0 2.890625l1.921875 0l0 1.390625l-1.921875 0l0 6.046875q0 0.71875 0.484375 0.765625q0.484375 0.03125 1.0 0.03125l0.4375 0l0 1.40625l-1.296875 0q-1.3125 0 -1.765625 -0.453125q-0.4375 -0.46875 -0.4375 -1.5625l0 -6.234375l-1.65625 0l0 -1.390625l1.65625 0l0 -2.890625l1.578125 0zm8.485016 2.65625q0.046875 0 0.09375 0q0.046875 0 0.125 0.015625l0 1.671875q-1.796875 0 -2.65625 0.953125q-0.84375 0.9375 -0.84375 2.921875l0 4.3125l-1.578125 0l0 -9.640625l1.484375 0l0 2.03125l0.046875 0q0.546875 -1.15625 1.359375 -1.703125q0.828125 -0.5625 1.96875 -0.5625zm4.9066772 0.015625q1.96875 0 2.78125 0.703125q0.828125 0.6875 0.828125 1.875q0 5.015625 0 5.5625q0 0.546875 0.5 0.546875q0.109375 0 0.234375 -0.03125q0.140625 -0.03125 0.25 -0.0625l0 1.234375q-0.21875 0.125 -0.5 0.1875q-0.28125 0.078125 -0.625 0.078125q-0.65625 0 -1.0 -0.375q-0.34375 -0.375 -0.34375 -1.125q-0.640625 0.75 -1.5 1.125q-0.84375 0.375 -1.90625 0.375q-1.484375 0 -2.34375 -0.703125q-0.84375 -0.71875 -0.84375 -2.015625q0 -1.296875 0.828125 -2.046875q0.828125 -0.765625 3.90625 -1.15625q1.03125 -0.140625 1.390625 -0.390625q0.375 -0.265625 0.375 -0.796875q0 -0.796875 -0.515625 -1.1875q-0.5 -0.40625 -1.625 -0.40625q-1.171875 0 -1.765625 0.453125q-0.59375 0.4375 -0.640625 1.375l-1.578125 0q0.078125 -1.609375 1.125 -2.40625q1.0625 -0.8125 2.96875 -0.8125zm-2.796875 7.265625q0 0.671875 0.484375 1.046875q0.5 0.375 1.390625 0.375q1.34375 0 2.140625 -0.65625q0.796875 -0.671875 0.796875 -1.5l0 -1.65625q-0.390625 0.28125 -1.03125 0.390625q-0.640625 0.09375 -1.703125 0.234375q-1.046875 0.15625 -1.5625 0.578125q-0.515625 0.421875 -0.515625 1.1875zm10.551697 -10.71875l0 13.3125l-1.59375 0l0 -13.3125l1.59375 0z" fill-rule="nonzero"/><path fill="#000000" d="m255.89874 213.08005q2.1875 0 3.421875 1.40625q1.25 1.40625 1.25 3.640625q0 2.25 -1.28125 3.65625q-1.265625 1.390625 -3.390625 1.390625q-2.09375 0 -3.390625 -1.375q-1.296875 -1.375 -1.296875 -3.671875q0 -2.296875 1.265625 -3.671875q1.265625 -1.375 3.421875 -1.375zm-3.015625 5.046875q0 1.65625 0.84375 2.65625q0.859375 0.984375 2.171875 0.984375q1.296875 0 2.140625 -0.984375q0.859375 -1.0 0.859375 -2.65625q0 -1.640625 -0.84375 -2.640625q-0.84375 -1.015625 -2.171875 -1.015625q-1.28125 0 -2.140625 0.984375q-0.859375 0.984375 -0.859375 2.671875zm14.322144 -5.046875q2.0625 0 3.25 1.421875q1.1875 1.421875 1.1875 3.640625q0 2.25 -1.1875 3.640625q-1.171875 1.390625 -3.203125 1.390625q-0.90625 0 -1.765625 -0.375q-0.859375 -0.375 -1.359375 -1.140625l-0.046875 0l0 4.984375l-1.578125 0l0 -13.34375l1.578125 0l0 1.3125l0.046875 0q0.375 -0.75 1.171875 -1.140625q0.8125 -0.390625 1.90625 -0.390625zm-3.171875 5.03125q0 1.671875 0.8125 2.671875q0.8125 0.984375 2.234375 0.984375q1.375 0 2.125 -0.984375q0.75 -0.984375 0.75 -2.75q0 -1.546875 -0.796875 -2.546875q-0.796875 -1.015625 -2.1875 -1.015625q-1.40625 0 -2.171875 1.015625q-0.765625 1.015625 -0.765625 2.625zm11.668304 -7.703125l0 2.890625l1.921875 0l0 1.390625l-1.921875 0l0 6.046875q0 0.71875 0.484375 0.765625q0.484375 0.03125 1.0 0.03125l0.4375 0l0 1.40625l-1.296875 0q-1.3125 0 -1.765625 -0.453125q-0.4375 -0.46875 -0.4375 -1.5625l0 -6.234375l-1.65625 0l0 -1.390625l1.65625 0l0 -2.890625l1.578125 0zm5.360016 -0.78125l0 1.9375l-1.59375 0l0 -1.9375l1.59375 0zm0 3.671875l0 9.640625l-1.59375 0l0 -9.640625l1.59375 0zm7.113556 -0.21875q1.046875 0 1.71875 0.421875q0.671875 0.421875 0.921875 1.21875q0.5 -0.78125 1.28125 -1.203125q0.796875 -0.4375 1.765625 -0.4375q1.625 0 2.40625 0.734375q0.78125 0.734375 0.78125 2.0l0 7.125l-1.578125 0l0 -6.390625q0 -1.046875 -0.453125 -1.5625q-0.4375 -0.515625 -1.421875 -0.515625q-1.1875 0 -1.859375 0.6875q-0.65625 0.6875 -0.65625 1.71875l0 6.0625l-1.59375 0l0 -6.390625q0 -1.046875 -0.4375 -1.5625q-0.4375 -0.515625 -1.359375 -0.515625q-0.765625 0 -1.34375 0.359375q-0.578125 0.359375 -0.90625 1.0q-0.328125 0.625 -0.328125 1.0625l0 6.046875l-1.59375 0l0 -9.640625l1.5 0l0 1.421875l0.03125 0q0.546875 -0.84375 1.3125 -1.234375q0.78125 -0.40625 1.8125 -0.40625zm12.945557 -3.453125l0 1.9375l-1.59375 0l0 -1.9375l1.59375 0zm0 3.671875l0 9.640625l-1.59375 0l0 -9.640625l1.59375 0zm5.676056 -0.21875q1.9375 0 2.890625 0.75q0.953125 0.75 1.03125 2.265625l-1.578125 0l0 -0.03125q-0.0625 -0.765625 -0.671875 -1.171875q-0.609375 -0.421875 -1.5625 -0.421875q-0.953125 0 -1.515625 0.328125q-0.546875 0.3125 -0.546875 0.90625q0 0.515625 0.484375 0.859375q0.5 0.328125 1.484375 0.546875l1.484375 0.328125q1.40625 0.3125 2.125 0.953125q0.734375 0.640625 0.734375 1.734375q0 1.421875 -1.109375 2.234375q-1.09375 0.8125 -2.984375 0.8125q-1.859375 0 -2.953125 -0.828125q-1.078125 -0.84375 -1.140625 -2.453125l1.59375 0q0.03125 0.90625 0.703125 1.390625q0.6875 0.484375 1.875 0.484375q1.15625 0 1.75 -0.359375q0.59375 -0.375 0.59375 -1.078125q0 -0.65625 -0.59375 -1.03125q-0.59375 -0.375 -2.40625 -0.734375q-1.828125 -0.359375 -2.578125 -1.015625q-0.734375 -0.65625 -0.734375 -1.734375q0 -1.265625 1.03125 -2.0q1.03125 -0.734375 2.59375 -0.734375zm10.0625 0q1.96875 0 2.78125 0.703125q0.828125 0.6875 0.828125 1.875q0 5.015625 0 5.5625q0 0.546875 0.5 0.546875q0.109375 0 0.234375 -0.03125q0.140625 -0.03125 0.25 -0.0625l0 1.234375q-0.21875 0.125 -0.5 0.1875q-0.28125 0.078125 -0.625 0.078125q-0.65625 0 -1.0 -0.375q-0.34375 -0.375 -0.34375 -1.125q-0.640625 0.75 -1.5 1.125q-0.84375 0.375 -1.90625 0.375q-1.484375 0 -2.34375 -0.703125q-0.84375 -0.71875 -0.84375 -2.015625q0 -1.296875 0.828125 -2.046875q0.828125 -0.765625 3.90625 -1.15625q1.03125 -0.140625 1.390625 -0.390625q0.375 -0.265625 0.375 -0.796875q0 -0.796875 -0.515625 -1.1875q-0.5 -0.40625 -1.625 -0.40625q-1.171875 0 -1.765625 0.453125q-0.59375 0.4375 -0.640625 1.375l-1.578125 0q0.078125 -1.609375 1.125 -2.40625q1.0625 -0.8125 2.96875 -0.8125zm-2.796875 7.265625q0 0.671875 0.484375 1.046875q0.5 0.375 1.390625 0.375q1.34375 0 2.140625 -0.65625q0.796875 -0.671875 0.796875 -1.5l0 -1.65625q-0.390625 0.28125 -1.03125 0.390625q-0.640625 0.09375 -1.703125 0.234375q-1.046875 0.15625 -1.5625 0.578125q-0.515625 0.421875 -0.515625 1.1875zm11.067322 -9.9375l0 2.890625l1.921875 0l0 1.390625l-1.921875 0l0 6.046875q0 0.71875 0.484375 0.765625q0.484375 0.03125 1.0 0.03125l0.4375 0l0 1.40625l-1.296875 0q-1.3125 0 -1.765625 -0.453125q-0.4375 -0.46875 -0.4375 -1.5625l0 -6.234375l-1.65625 0l0 -1.390625l1.65625 0l0 -2.890625l1.578125 0zm5.360016 -0.78125l0 1.9375l-1.59375 0l0 -1.9375l1.59375 0zm0 3.671875l0 9.640625l-1.59375 0l0 -9.640625l1.59375 0zm6.629181 -0.21875q2.1875 0 3.421875 1.40625q1.25 1.40625 1.25 3.640625q0 2.25 -1.28125 3.65625q-1.265625 1.390625 -3.390625 1.390625q-2.09375 0 -3.390625 -1.375q-1.296875 -1.375 -1.296875 -3.671875q0 -2.296875 1.265625 -3.671875q1.265625 -1.375 3.421875 -1.375zm-3.015625 5.046875q0 1.65625 0.84375 2.65625q0.859375 0.984375 2.171875 0.984375q1.296875 0 2.140625 -0.984375q0.859375 -1.0 0.859375 -2.65625q0 -1.640625 -0.84375 -2.640625q-0.84375 -1.015625 -2.171875 -1.015625q-1.28125 0 -2.140625 0.984375q-0.859375 0.984375 -0.859375 2.671875zm14.228394 -5.046875q1.75 0 2.53125 0.890625q0.796875 0.890625 0.796875 2.546875l0 6.421875l-1.59375 0l0 -6.59375q0 -0.8125 -0.53125 -1.34375q-0.515625 -0.53125 -1.4375 -0.53125q-1.34375 0 -2.09375 0.828125q-0.75 0.8125 -0.75 2.125l0 5.515625l-1.59375 0l0 -9.640625l1.5 0l0 1.53125l0.03125 0q0.53125 -0.90625 1.296875 -1.328125q0.78125 -0.421875 1.84375 -0.421875z" fill-rule="nonzero"/><path fill="#000000" d="m254.94562 235.48004q1.9375 0 2.890625 0.75q0.953125 0.75 1.03125 2.265625l-1.578125 0l0 -0.03125q-0.0625 -0.765625 -0.671875 -1.171875q-0.609375 -0.421875 -1.5625 -0.421875q-0.953125 0 -1.515625 0.328125q-0.546875 0.3125 -0.546875 0.90625q0 0.515625 0.484375 0.859375q0.5 0.328125 1.484375 0.546875l1.484375 0.328125q1.40625 0.3125 2.125 0.953125q0.734375 0.640625 0.734375 1.734375q0 1.421875 -1.109375 2.234375q-1.09375 0.8125 -2.984375 0.8125q-1.859375 0 -2.953125 -0.828125q-1.078125 -0.84375 -1.140625 -2.453125l1.59375 0q0.03125 0.90625 0.703125 1.390625q0.6875 0.484375 1.875 0.484375q1.15625 0 1.75 -0.359375q0.59375 -0.375 0.59375 -1.078125q0 -0.65625 -0.59375 -1.03125q-0.59375 -0.375 -2.40625 -0.734375q-1.828125 -0.359375 -2.578125 -1.015625q-0.734375 -0.65625 -0.734375 -1.734375q0 -1.265625 1.03125 -2.0q1.03125 -0.734375 2.59375 -0.734375zm6.859375 0.21875l2.8125 7.875l0.046875 0l2.703125 -7.875l1.6875 0l-4.109375 10.671875q-0.640625 1.671875 -1.234375 2.25q-0.59375 0.578125 -1.65625 0.578125q-0.296875 0 -0.578125 -0.03125q-0.265625 -0.03125 -0.53125 -0.125l0 -1.46875q0.234375 0.078125 0.46875 0.140625q0.234375 0.078125 0.46875 0.078125q0.96875 0 1.34375 -0.96875q0.390625 -0.953125 0.609375 -1.53125l-3.828125 -9.59375l1.796875 0zm11.796875 -0.21875q1.9375 0 2.890625 0.75q0.953125 0.75 1.03125 2.265625l-1.578125 0l0 -0.03125q-0.0625 -0.765625 -0.671875 -1.171875q-0.609375 -0.421875 -1.5625 -0.421875q-0.953125 0 -1.515625 0.328125q-0.546875 0.3125 -0.546875 0.90625q0 0.515625 0.484375 0.859375q0.5 0.328125 1.484375 0.546875l1.484375 0.328125q1.40625 0.3125 2.125 0.953125q0.734375 0.640625 0.734375 1.734375q0 1.421875 -1.109375 2.234375q-1.09375 0.8125 -2.984375 0.8125q-1.859375 0 -2.953125 -0.828125q-1.078125 -0.84375 -1.140625 -2.453125l1.59375 0q0.03125 0.90625 0.703125 1.390625q0.6875 0.484375 1.875 0.484375q1.15625 0 1.75 -0.359375q0.59375 -0.375 0.59375 -1.078125q0 -0.65625 -0.59375 -1.03125q-0.59375 -0.375 -2.40625 -0.734375q-1.828125 -0.359375 -2.578125 -1.015625q-0.734375 -0.65625 -0.734375 -1.734375q0 -1.265625 1.03125 -2.0q1.03125 -0.734375 2.59375 -0.734375zm8.3125 -2.671875l0 2.890625l1.921875 0l0 1.390625l-1.921875 0l0 6.046875q0 0.71875 0.484375 0.765625q0.484375 0.03125 1.0 0.03125l0.4375 0l0 1.40625l-1.296875 0q-1.3125 0 -1.765625 -0.453125q-0.4375 -0.46875 -0.4375 -1.5625l0 -6.234375l-1.65625 0l0 -1.390625l1.65625 0l0 -2.890625l1.578125 0zm7.460266 2.671875q2.078125 0 3.21875 1.5q1.15625 1.484375 1.15625 3.828125l0 0.1875l-7.234375 0l0 0.109375q0 1.390625 0.796875 2.234375q0.8125 0.828125 2.21875 0.828125q1.046875 0 1.671875 -0.484375q0.625 -0.5 0.828125 -1.40625l1.5625 0q-0.328125 1.609375 -1.40625 2.453125q-1.078125 0.84375 -2.71875 0.84375q-1.515625 0 -2.578125 -0.6875q-1.046875 -0.6875 -1.546875 -1.90625q-0.5 -1.234375 -0.5 -2.515625q0 -2.140625 1.28125 -3.5625q1.296875 -1.421875 3.25 -1.421875zm-2.859375 4.109375l5.546875 0q-0.078125 -1.171875 -0.859375 -1.9375q-0.765625 -0.78125 -1.9375 -0.78125q-1.09375 0 -1.875 0.734375q-0.765625 0.734375 -0.875 1.984375zm13.520447 -4.109375q1.046875 0 1.71875 0.421875q0.671875 0.421875 0.921875 1.21875q0.5 -0.78125 1.28125 -1.203125q0.796875 -0.4375 1.765625 -0.4375q1.625 0 2.40625 0.734375q0.78125 0.734375 0.78125 2.0l0 7.125l-1.578125 0l0 -6.390625q0 -1.046875 -0.453125 -1.5625q-0.4375 -0.515625 -1.421875 -0.515625q-1.1875 0 -1.859375 0.6875q-0.65625 0.6875 -0.65625 1.71875l0 6.0625l-1.59375 0l0 -6.390625q0 -1.046875 -0.4375 -1.5625q-0.4375 -0.515625 -1.359375 -0.515625q-0.765625 0 -1.34375 0.359375q-0.578125 0.359375 -0.90625 1.0q-0.328125 0.625 -0.328125 1.0625l0 6.046875l-1.59375 0l0 -9.640625l1.5 0l0 1.421875l0.03125 0q0.546875 -0.84375 1.3125 -1.234375q0.78125 -0.40625 1.8125 -0.40625zm14.476807 0q1.9375 0 2.890625 0.75q0.953125 0.75 1.03125 2.265625l-1.578125 0l0 -0.03125q-0.0625 -0.765625 -0.671875 -1.171875q-0.609375 -0.421875 -1.5625 -0.421875q-0.953125 0 -1.515625 0.328125q-0.546875 0.3125 -0.546875 0.90625q0 0.515625 0.484375 0.859375q0.5 0.328125 1.484375 0.546875l1.484375 0.328125q1.40625 0.3125 2.125 0.953125q0.734375 0.640625 0.734375 1.734375q0 1.421875 -1.109375 2.234375q-1.09375 0.8125 -2.984375 0.8125q-1.859375 0 -2.953125 -0.828125q-1.078125 -0.84375 -1.140625 -2.453125l1.59375 0q0.03125 0.90625 0.703125 1.390625q0.6875 0.484375 1.875 0.484375q1.15625 0 1.75 -0.359375q0.59375 -0.375 0.59375 -1.078125q0 -0.65625 -0.59375 -1.03125q-0.59375 -0.375 -2.40625 -0.734375q-1.828125 -0.359375 -2.578125 -1.015625q-0.734375 -0.65625 -0.734375 -1.734375q0 -1.265625 1.03125 -2.0q1.03125 -0.734375 2.59375 -0.734375z" fill-rule="nonzero"/><path fill="#000000" fill-opacity="0.0" d="m445.6706 184.94095l148.56696 0l0 64.62991l-148.56696 0z" fill-rule="evenodd"/><path fill="#000000" d="m457.96747 198.54845l0 13.3125l-1.765625 0l0 -13.3125l1.765625 0zm7.3905334 3.453125q1.75 0 2.53125 0.890625q0.796875 0.890625 0.796875 2.546875l0 6.421875l-1.59375 0l0 -6.59375q0 -0.8125 -0.53125 -1.34375q-0.515625 -0.53125 -1.4375 -0.53125q-1.34375 0 -2.09375 0.828125q-0.75 0.8125 -0.75 2.125l0 5.515625l-1.59375 0l0 -9.640625l1.5 0l0 1.53125l0.03125 0q0.53125 -0.90625 1.296875 -1.328125q0.78125 -0.421875 1.84375 -0.421875zm6.5476074 0.21875l2.703125 8.03125l0.03125 0l2.640625 -8.03125l1.65625 0l-3.53125 9.640625l-1.6875 0l-3.578125 -9.640625l1.765625 0zm12.5 -0.21875q2.078125 0 3.21875 1.5q1.15625 1.484375 1.15625 3.828125l0 0.1875l-7.234375 0l0 0.109375q0 1.390625 0.796875 2.234375q0.8125 0.828125 2.21875 0.828125q1.046875 0 1.671875 -0.484375q0.625 -0.5 0.828125 -1.40625l1.5625 0q-0.328125 1.609375 -1.40625 2.453125q-1.078125 0.84375 -2.71875 0.84375q-1.515625 0 -2.578125 -0.6875q-1.046875 -0.6875 -1.546875 -1.90625q-0.5 -1.234375 -0.5 -2.515625q0 -2.140625 1.28125 -3.5625q1.296875 -1.421875 3.25 -1.421875zm-2.859375 4.109375l5.546875 0q-0.078125 -1.171875 -0.859375 -1.9375q-0.765625 -0.78125 -1.9375 -0.78125q-1.09375 0 -1.875 0.734375q-0.765625 0.734375 -0.875 1.984375zm12.082947 -4.109375q1.9375 0 2.890625 0.75q0.953125 0.75 1.03125 2.265625l-1.578125 0l0 -0.03125q-0.0625 -0.765625 -0.671875 -1.171875q-0.609375 -0.421875 -1.5625 -0.421875q-0.953125 0 -1.515625 0.328125q-0.546875 0.3125 -0.546875 0.90625q0 0.515625 0.484375 0.859375q0.5 0.328125 1.484375 0.546875l1.484375 0.328125q1.40625 0.3125 2.125 0.953125q0.734375 0.640625 0.734375 1.734375q0 1.421875 -1.109375 2.234375q-1.09375 0.8125 -2.984375 0.8125q-1.859375 0 -2.953125 -0.828125q-1.078125 -0.84375 -1.140625 -2.453125l1.59375 0q0.03125 0.90625 0.703125 1.390625q0.6875 0.484375 1.875 0.484375q1.15625 0 1.75 -0.359375q0.59375 -0.375 0.59375 -1.078125q0 -0.65625 -0.59375 -1.03125q-0.59375 -0.375 -2.40625 -0.734375q-1.828125 -0.359375 -2.578125 -1.015625q-0.734375 -0.65625 -0.734375 -1.734375q0 -1.265625 1.03125 -2.0q1.03125 -0.734375 2.59375 -0.734375zm8.3125 -2.671875l0 2.890625l1.921875 0l0 1.390625l-1.921875 0l0 6.046875q0 0.71875 0.484375 0.765625q0.484375 0.03125 1.0 0.03125l0.4375 0l0 1.40625l-1.296875 0q-1.3125 0 -1.765625 -0.453125q-0.4375 -0.46875 -0.4375 -1.5625l0 -6.234375l-1.65625 0l0 -1.390625l1.65625 0l0 -2.890625l1.578125 0zm8.328735 2.671875q1.046875 0 1.71875 0.421875q0.6719055 0.421875 0.9219055 1.21875q0.5 -0.78125 1.28125 -1.203125q0.796875 -0.4375 1.765625 -0.4375q1.625 0 2.40625 0.734375q0.78125 0.734375 0.78125 2.0l0 7.125l-1.578125 0l0 -6.390625q0 -1.046875 -0.453125 -1.5625q-0.4375 -0.515625 -1.421875 -0.515625q-1.1875 0 -1.859375 0.6875q-0.65625 0.6875 -0.65625 1.71875l0 6.0625l-1.5937805 0l0 -6.390625q0 -1.046875 -0.4375 -1.5625q-0.4375 -0.515625 -1.359375 -0.515625q-0.765625 0 -1.34375 0.359375q-0.578125 0.359375 -0.90625 1.0q-0.328125 0.625 -0.328125 1.0625l0 6.046875l-1.59375 0l0 -9.640625l1.5 0l0 1.421875l0.03125 0q0.546875 -0.84375 1.3125 -1.234375q0.78125 -0.40625 1.8125 -0.40625zm15.273651 0q2.078125 0 3.21875 1.5q1.15625 1.484375 1.15625 3.828125l0 0.1875l-7.234375 0l0 0.109375q0 1.390625 0.796875 2.234375q0.8125 0.828125 2.21875 0.828125q1.046875 0 1.671875 -0.484375q0.625 -0.5 0.828125 -1.40625l1.5625 0q-0.328125 1.609375 -1.40625 2.453125q-1.078125 0.84375 -2.71875 0.84375q-1.515625 0 -2.578125 -0.6875q-1.046875 -0.6875 -1.546875 -1.90625q-0.5 -1.234375 -0.5 -2.515625q0 -2.140625 1.28125 -3.5625q1.296875 -1.421875 3.25 -1.421875zm-2.859375 4.109375l5.546875 0q-0.078125 -1.171875 -0.859375 -1.9375q-0.765625 -0.78125 -1.9375 -0.78125q-1.09375 0 -1.875 0.734375q-0.765625 0.734375 -0.875 1.984375zm13.536072 -4.109375q1.75 0 2.53125 0.890625q0.796875 0.890625 0.796875 2.546875l0 6.421875l-1.59375 0l0 -6.59375q0 -0.8125 -0.53125 -1.34375q-0.515625 -0.53125 -1.4375 -0.53125q-1.34375 0 -2.09375 0.828125q-0.75 0.8125 -0.75 2.125l0 5.515625l-1.59375 0l0 -9.640625l1.5 0l0 1.53125l0.03125 0q0.53125 -0.90625 1.296875 -1.328125q0.78125 -0.421875 1.84375 -0.421875zm7.9069824 -2.671875l0 2.890625l1.921875 0l0 1.390625l-1.921875 0l0 6.046875q0 0.71875 0.484375 0.765625q0.484375 0.03125 1.0 0.03125l0.4375 0l0 1.40625l-1.296875 0q-1.3125 0 -1.765625 -0.453125q-0.4375 -0.46875 -0.4375 -1.5625l0 -6.234375l-1.65625 0l0 -1.390625l1.65625 0l0 -2.890625l1.578125 0z" fill-rule="nonzero"/><path fill="#000000" d="m460.62372 224.40157q2.0625 0 3.25 1.421875q1.1875 1.421875 1.1875 3.640625q0 2.25 -1.1875 3.640625q-1.171875 1.390625 -3.203125 1.390625q-0.90625 0 -1.765625 -0.375q-0.859375 -0.375 -1.359375 -1.140625l-0.046875 0l0 4.984375l-1.578125 0l0 -13.34375l1.578125 0l0 1.3125l0.046875 0q0.375 -0.75 1.171875 -1.140625q0.8125 -0.390625 1.90625 -0.390625zm-3.171875 5.03125q0 1.671875 0.8125 2.671875q0.8125 0.984375 2.234375 0.984375q1.375 0 2.125 -0.984375q0.75 -0.984375 0.75 -2.75q0 -1.546875 -0.796875 -2.546875q-0.796875 -1.015625 -2.1875 -1.015625q-1.40625 0 -2.171875 1.015625q-0.765625 1.015625 -0.765625 2.625zm13.480804 -5.03125q2.078125 0 3.21875 1.5q1.15625 1.484375 1.15625 3.828125l0 0.1875l-7.234375 0l0 0.109375q0 1.390625 0.796875 2.234375q0.8125 0.828125 2.21875 0.828125q1.046875 0 1.671875 -0.484375q0.625 -0.5 0.828125 -1.40625l1.5625 0q-0.328125 1.609375 -1.40625 2.453125q-1.078125 0.84375 -2.71875 0.84375q-1.515625 0 -2.578125 -0.6875q-1.046875 -0.6875 -1.546875 -1.90625q-0.5 -1.234375 -0.5 -2.515625q0 -2.140625 1.28125 -3.5625q1.296875 -1.421875 3.25 -1.421875zm-2.859375 4.109375l5.546875 0q-0.078125 -1.171875 -0.859375 -1.9375q-0.765625 -0.78125 -1.9375 -0.78125q-1.09375 0 -1.875 0.734375q-0.765625 0.734375 -0.875 1.984375zm13.676697 -4.125q0.046875 0 0.09375 0q0.046875 0 0.125 0.015625l0 1.671875q-1.796875 0 -2.65625 0.953125q-0.84375 0.9375 -0.84375 2.921875l0 4.3125l-1.578125 0l0 -9.640625l1.484375 0l0 2.03125l0.046875 0q0.546875 -1.15625 1.359375 -1.703125q0.828125 -0.5625 1.96875 -0.5625zm4.7491455 -3.59375q0.203125 0 0.515625 0.046875q0.328125 0.046875 0.515625 0.109375l0 1.375q-0.171875 -0.0625 -0.4375 -0.09375q-0.265625 -0.03125 -0.453125 -0.03125q-0.65625 0 -0.9375 0.265625q-0.265625 0.265625 -0.265625 0.765625l0 1.390625l1.859375 0l0 1.390625l-1.859375 0l0 8.25l-1.59375 0l0 -8.25l-1.609375 0l0 -1.390625l1.609375 0l0 -1.515625q0 -1.0625 0.671875 -1.6875q0.671875 -0.625 1.984375 -0.625zm6.37973 3.609375q2.1875 0 3.421875 1.40625q1.25 1.40625 1.25 3.640625q0 2.25 -1.28125 3.65625q-1.265625 1.390625 -3.390625 1.390625q-2.09375 0 -3.390625 -1.375q-1.296875 -1.375 -1.296875 -3.671875q0 -2.296875 1.265625 -3.671875q1.265625 -1.375 3.421875 -1.375zm-3.015625 5.046875q0 1.65625 0.84375 2.65625q0.859375 0.984375 2.171875 0.984375q1.296875 0 2.140625 -0.984375q0.859375 -1.0 0.859375 -2.65625q0 -1.640625 -0.84375 -2.640625q-0.84375 -1.015625 -2.171875 -1.015625q-1.28125 0 -2.140625 0.984375q-0.859375 0.984375 -0.859375 2.671875zm14.369019 -5.0625q0.046875 0 0.09375 0q0.046875 0 0.125 0.015625l0 1.671875q-1.796875 0 -2.65625 0.953125q-0.84375 0.9375 -0.84375 2.921875l0 4.3125l-1.578125 0l0 -9.640625l1.484375 0l0 2.03125l0.046875 0q0.546875 -1.15625 1.359375 -1.703125q0.828125 -0.5625 1.96875 -0.5625zm6.056427 0.015625q1.046875 0 1.7187195 0.421875q0.671875 0.421875 0.921875 1.21875q0.5 -0.78125 1.28125 -1.203125q0.796875 -0.4375 1.765625 -0.4375q1.625 0 2.40625 0.734375q0.78125 0.734375 0.78125 2.0l0 7.125l-1.578125 0l0 -6.390625q0 -1.046875 -0.453125 -1.5625q-0.4375 -0.515625 -1.421875 -0.515625q-1.1875 0 -1.859375 0.6875q-0.65625 0.6875 -0.65625 1.71875l0 6.0625l-1.5937195 0l0 -6.390625q0 -1.046875 -0.4375 -1.5625q-0.4375 -0.515625 -1.359375 -0.515625q-0.765625 0 -1.34375 0.359375q-0.578125 0.359375 -0.90625 1.0q-0.328125 0.625 -0.328125 1.0625l0 6.046875l-1.59375 0l0 -9.640625l1.5 0l0 1.421875l0.03125 0q0.546875 -0.84375 1.3125 -1.234375q0.78125 -0.40625 1.8125 -0.40625zm15.211151 0q1.96875 0 2.78125 0.703125q0.828125 0.6875 0.828125 1.875q0 5.015625 0 5.5625q0 0.546875 0.5 0.546875q0.109375 0 0.234375 -0.03125q0.140625 -0.03125 0.25 -0.0625l0 1.234375q-0.21875 0.125 -0.5 0.1875q-0.28125 0.078125 -0.625 0.078125q-0.65625 0 -1.0 -0.375q-0.34375 -0.375 -0.34375 -1.125q-0.640625 0.75 -1.5 1.125q-0.84375 0.375 -1.90625 0.375q-1.484375 0 -2.34375 -0.703125q-0.84375 -0.71875 -0.84375 -2.015625q0 -1.296875 0.828125 -2.046875q0.828125 -0.765625 3.90625 -1.15625q1.03125 -0.140625 1.390625 -0.390625q0.375 -0.265625 0.375 -0.796875q0 -0.796875 -0.515625 -1.1875q-0.5 -0.40625 -1.625 -0.40625q-1.171875 0 -1.765625 0.453125q-0.59375 0.4375 -0.640625 1.375l-1.578125 0q0.078125 -1.609375 1.125 -2.40625q1.0625 -0.8125 2.96875 -0.8125zm-2.796875 7.265625q0 0.671875 0.484375 1.046875q0.5 0.375 1.390625 0.375q1.34375 0 2.140625 -0.65625q0.796875 -0.671875 0.796875 -1.5l0 -1.65625q-0.390625 0.28125 -1.03125 0.390625q-0.640625 0.09375 -1.703125 0.234375q-1.046875 0.15625 -1.5625 0.578125q-0.515625 0.421875 -0.515625 1.1875zm13.536072 -7.265625q1.75 0 2.53125 0.890625q0.796875 0.890625 0.796875 2.546875l0 6.421875l-1.59375 0l0 -6.59375q0 -0.8125 -0.53125 -1.34375q-0.515625 -0.53125 -1.4375 -0.53125q-1.34375 0 -2.09375 0.828125q-0.75 0.8125 -0.75 2.125l0 5.515625l-1.59375 0l0 -9.640625l1.5 0l0 1.53125l0.03125 0q0.53125 -0.90625 1.296875 -1.328125q0.78125 -0.421875 1.84375 -0.421875zm9.735107 0q1.765625 0 2.859375 0.84375q1.109375 0.828125 1.296875 2.46875l-1.625 0q-0.203125 -0.9375 -0.828125 -1.421875q-0.625 -0.5 -1.5625 -0.5q-1.484375 0 -2.25 0.984375q-0.765625 0.984375 -0.765625 2.78125q0 1.609375 0.75 2.578125q0.765625 0.953125 2.078125 0.953125q1.15625 0 1.8125 -0.625q0.671875 -0.625 0.828125 -1.734375l1.625 0q-0.265625 1.8125 -1.359375 2.796875q-1.09375 0.96875 -2.890625 0.96875q-2.109375 0 -3.3125 -1.328125q-1.203125 -1.328125 -1.203125 -3.609375q0 -2.359375 1.21875 -3.75q1.21875 -1.40625 3.328125 -1.40625zm10.004822 0q2.078125 0 3.21875 1.5q1.15625 1.484375 1.15625 3.828125l0 0.1875l-7.234375 0l0 0.109375q0 1.390625 0.796875 2.234375q0.8125 0.828125 2.21875 0.828125q1.046875 0 1.671875 -0.484375q0.625 -0.5 0.828125 -1.40625l1.5625 0q-0.328125 1.609375 -1.40625 2.453125q-1.078125 0.84375 -2.71875 0.84375q-1.515625 0 -2.578125 -0.6875q-1.046875 -0.6875 -1.546875 -1.90625q-0.5 -1.234375 -0.5 -2.515625q0 -2.140625 1.28125 -3.5625q1.296875 -1.421875 3.25 -1.421875zm-2.859375 4.109375l5.546875 0q-0.078125 -1.171875 -0.859375 -1.9375q-0.765625 -0.78125 -1.9375 -0.78125q-1.09375 0 -1.875 0.734375q-0.765625 0.734375 -0.875 1.984375z" fill-rule="nonzero"/></g></svg>