<svg version="1.1" viewBox="0.0 0.0 288.0 288.0" fill="none" stroke="none" stroke-linecap="square" stroke-miterlimit="10" xmlns:xlink="http://www.w3.org/1999/xlink" xmlns="http://www.w3.org/2000/svg"><clipPath id="ga841602e52_0_20.0"><path d="m0 0l288.0 0l0 288.0l-288.0 0l0 -288.0z" clip-rule="nonzero"/></clipPath><g clip-path="url(#ga841602e52_0_20.0)"><path fill="#ffffff" d="m0 0l288.0 0l0 288.0l-288.0 0z" fill-rule="evenodd"/><path fill="#000000" fill-opacity="0.0" d="m209.95276 111.14304l0.25196838 41.25985" fill-rule="evenodd"/><path stroke="#595959" stroke-width="3.0" stroke-linejoin="round" stroke-linecap="butt" stroke-dasharray="12.0,9.0" d="m209.95276 111.14304l0.25196838 41.25985" fill-rule="evenodd"/><path fill="#000000" fill-opacity="0.0" d="m61.489502 174.48163l149.76378 -22.078735" fill-rule="evenodd"/><path stroke="#93c47d" stroke-width="8.0" stroke-linejoin="round" stroke-linecap="butt" d="m61.489502 174.48163l149.76378 -22.078735" fill-rule="evenodd"/><path fill="#ff0000" d="m200.49606 184.02422l9.691254 -29.716705l9.489853 29.685196z" fill-rule="evenodd"/><path fill="#000000" fill-opacity="0.0" d="m44.03281 47.384514l73.102356 0l0 17.669289l-73.102356 0z" fill-rule="evenodd"/><path fill="#281e96" d="m49.329685 60.344513q-0.15625 0 -0.265625 -0.09375q-0.09375 -0.109375 -0.09375 -0.265625l0 -6.5625q0 -0.15625 0.09375 -0.25q0.109375 -0.109375 0.265625 -0.109375l1.859375 0q0.703125 0 1.234375 0.3125q0.53125 0.296875 0.828125 0.828125q0.296875 0.53125 0.296875 1.21875q0 0.6875 -0.296875 1.21875q-0.296875 0.515625 -0.828125 0.828125q-0.53125 0.296875 -1.234375 0.296875l-1.5 0l0 2.21875q0 0.15625 -0.109375 0.265625q-0.09375 0.09375 -0.25 0.09375zm0.359375 -3.28125l1.5 0q0.484375 0 0.859375 -0.203125q0.375 -0.203125 0.578125 -0.578125q0.203125 -0.375 0.203125 -0.859375q0 -0.484375 -0.203125 -0.859375q-0.203125 -0.375 -0.578125 -0.578125q-0.375 -0.21875 -0.859375 -0.21875l-1.5 0l0 3.296875zm5.1931915 0.140625q0.03125 -0.578125 0.296875 -1.03125q0.28125 -0.46875 0.71875 -0.71875q0.453125 -0.265625 0.984375 -0.265625q0.4375 0 0.671875 0.125q0.234375 0.109375 0.171875 0.34375q-0.03125 0.140625 -0.125 0.1875q-0.09375 0.046875 -0.21875 0.046875q-0.125 -0.015625 -0.28125 -0.03125q-0.53125 -0.046875 -0.9375 0.109375q-0.390625 0.15625 -0.640625 0.484375q-0.234375 0.3125 -0.234375 0.75l-0.40625 0zm0.046875 3.140625q-0.15625 0 -0.25 -0.09375q-0.09375 -0.09375 -0.09375 -0.265625l0 -4.390625q0 -0.171875 0.09375 -0.265625q0.09375 -0.09375 0.25 -0.09375q0.171875 0 0.265625 0.09375q0.09375 0.09375 0.09375 0.265625l0 4.390625q0 0.171875 -0.09375 0.265625q-0.09375 0.09375 -0.265625 0.09375zm5.867691 0.046875q-0.734375 0 -1.328125 -0.328125q-0.59375 -0.34375 -0.9375 -0.921875q-0.328125 -0.59375 -0.328125 -1.34375q0 -0.75 0.328125 -1.34375q0.34375 -0.59375 0.9375 -0.921875q0.59375 -0.34375 1.328125 -0.34375q0.75 0 1.328125 0.34375q0.59375 0.328125 0.921875 0.921875q0.34375 0.59375 0.34375 1.34375q0 0.75 -0.34375 1.34375q-0.328125 0.578125 -0.921875 0.921875q-0.578125 0.328125 -1.328125 0.328125zm0 -0.65625q0.546875 0 0.96875 -0.25q0.4375 -0.25 0.671875 -0.6875q0.25 -0.4375 0.25 -1.0q0 -0.5625 -0.25 -1.0q-0.234375 -0.453125 -0.671875 -0.703125q-0.421875 -0.25 -0.96875 -0.25q-0.53125 0 -0.96875 0.25q-0.421875 0.25 -0.671875 0.703125q-0.25 0.4375 -0.25 1.0q0 0.5625 0.25 1.0q0.25 0.4375 0.671875 0.6875q0.4375 0.25 0.96875 0.25zm6.315136 0.65625q-0.734375 0 -1.328125 -0.34375q-0.578125 -0.34375 -0.921875 -0.921875q-0.34375 -0.59375 -0.34375 -1.34375q0 -0.734375 0.328125 -1.3125q0.34375 -0.59375 0.90625 -0.9375q0.578125 -0.34375 1.296875 -0.34375q0.625 0 1.125 0.265625q0.5 0.265625 0.8125 0.71875l0 -2.75q0 -0.171875 0.09375 -0.265625q0.109375 -0.09375 0.265625 -0.09375q0.15625 0 0.25 0.09375q0.109375 0.09375 0.109375 0.265625l0 4.40625q-0.015625 0.71875 -0.359375 1.3125q-0.328125 0.578125 -0.921875 0.921875q-0.578125 0.328125 -1.3125 0.328125zm0 -0.65625q0.546875 0 0.96875 -0.25q0.421875 -0.265625 0.671875 -0.703125q0.25 -0.4375 0.25 -1.0q0 -0.546875 -0.25 -0.984375q-0.25 -0.453125 -0.671875 -0.703125q-0.421875 -0.25 -0.96875 -0.25q-0.53125 0 -0.96875 0.25q-0.421875 0.25 -0.671875 0.703125q-0.25 0.4375 -0.25 0.984375q0 0.5625 0.25 1.0q0.25 0.4375 0.671875 0.703125q0.4375 0.25 0.96875 0.25zm6.501236 0.671875q-0.671875 0 -1.1875 -0.28125q-0.515625 -0.28125 -0.828125 -0.8125q-0.296875 -0.53125 -0.296875 -1.296875l0 -2.421875q0 -0.140625 0.09375 -0.25q0.109375 -0.109375 0.25 -0.109375q0.171875 0 0.265625 0.109375q0.109375 0.109375 0.109375 0.25l0 2.421875q0 0.578125 0.21875 0.953125q0.21875 0.375 0.59375 0.5625q0.375 0.1875 0.859375 0.1875q0.453125 0 0.8125 -0.171875q0.375 -0.1875 0.578125 -0.484375q0.21875 -0.3125 0.21875 -0.703125l0.515625 0q-0.015625 0.578125 -0.3125 1.046875q-0.296875 0.46875 -0.796875 0.734375q-0.484375 0.265625 -1.09375 0.265625zm2.046875 -0.0625q-0.15625 0 -0.265625 -0.09375q-0.09375 -0.109375 -0.09375 -0.265625l0 -4.390625q0 -0.15625 0.09375 -0.25q0.109375 -0.109375 0.265625 -0.109375q0.15625 0 0.25 0.109375q0.109375 0.09375 0.109375 0.25l0 4.390625q0 0.15625 -0.109375 0.265625q-0.09375 0.09375 -0.25 0.09375zm4.31514 0.046875q-0.734375 0 -1.3125 -0.34375q-0.5625 -0.34375 -0.90625 -0.921875q-0.328125 -0.59375 -0.328125 -1.328125q0 -0.75 0.3125 -1.328125q0.328125 -0.59375 0.875 -0.9375q0.546875 -0.34375 1.265625 -0.34375q0.578125 0 1.046875 0.234375q0.484375 0.21875 0.859375 0.671875q0.09375 0.109375 0.0625 0.234375q-0.015625 0.125 -0.15625 0.21875q-0.09375 0.078125 -0.21875 0.0625q-0.125 -0.03125 -0.21875 -0.140625q-0.546875 -0.625 -1.375 -0.625q-0.515625 0 -0.921875 0.25q-0.390625 0.25 -0.609375 0.703125q-0.21875 0.4375 -0.21875 1.0q0 0.5625 0.234375 1.0q0.234375 0.4375 0.65625 0.6875q0.421875 0.25 0.953125 0.25q0.375 0 0.671875 -0.09375q0.296875 -0.09375 0.53125 -0.296875q0.125 -0.09375 0.234375 -0.109375q0.125 -0.015625 0.234375 0.078125q0.109375 0.09375 0.125 0.234375q0.015625 0.125 -0.09375 0.21875q-0.6875 0.625 -1.703125 0.625zm5.2783203 -0.046875q-0.484375 0 -0.875 -0.234375q-0.390625 -0.234375 -0.609375 -0.640625q-0.21875 -0.40625 -0.21875 -0.921875l0 -4.5625q0 -0.15625 0.09375 -0.25q0.09375 -0.109375 0.25 -0.109375q0.15625 0 0.265625 0.109375q0.109375 0.09375 0.109375 0.25l0 4.5625q0 0.46875 0.265625 0.78125q0.28125 0.296875 0.71875 0.296875l0.265625 0q0.140625 0 0.234375 0.109375q0.09375 0.09375 0.09375 0.25q0 0.15625 -0.109375 0.265625q-0.109375 0.09375 -0.28125 0.09375l-0.203125 0zm-2.3125 -4.296875q-0.140625 0 -0.234375 -0.078125q-0.09375 -0.09375 -0.09375 -0.21875q0 -0.140625 0.09375 -0.234375q0.09375 -0.09375 0.234375 -0.09375l2.375 0q0.140625 0 0.234375 0.09375q0.09375 0.09375 0.09375 0.234375q0 0.125 -0.09375 0.21875q-0.09375 0.078125 -0.234375 0.078125l-2.375 0zm4.5936584 4.296875q-0.171875 0 -0.28125 -0.09375q-0.09375 -0.109375 -0.09375 -0.265625l0 -4.375q0 -0.171875 0.09375 -0.265625q0.109375 -0.109375 0.28125 -0.109375q0.15625 0 0.25 0.109375q0.09375 0.09375 0.09375 0.265625l0 4.375q0 0.15625 -0.09375 0.265625q-0.09375 0.09375 -0.25 0.09375zm-0.015625 -6.078125q-0.203125 0 -0.359375 -0.140625q-0.140625 -0.15625 -0.140625 -0.359375q0 -0.234375 0.15625 -0.375q0.15625 -0.140625 0.359375 -0.140625q0.1875 0 0.34375 0.140625q0.15625 0.140625 0.15625 0.375q0 0.203125 -0.15625 0.359375q-0.140625 0.140625 -0.359375 0.140625zm3.9302063 6.078125q-0.21875 0 -0.328125 -0.25l-2.078125 -4.390625q-0.046875 -0.109375 0 -0.234375q0.046875 -0.125 0.1875 -0.1875q0.125 -0.0625 0.25 -0.015625q0.125 0.046875 0.1875 0.15625l1.984375 4.3125l-0.390625 0l1.96875 -4.3125q0.046875 -0.125 0.1875 -0.15625q0.140625 -0.046875 0.265625 0q0.125 0.0625 0.171875 0.203125q0.046875 0.125 0 0.234375l-2.046875 4.390625q-0.109375 0.25 -0.359375 0.25zm3.9396973 0q-0.171875 0 -0.28125 -0.09375q-0.09375 -0.109375 -0.09375 -0.265625l0 -4.375q0 -0.171875 0.09375 -0.265625q0.109375 -0.109375 0.28125 -0.109375q0.15625 0 0.25 0.109375q0.09375 0.09375 0.09375 0.265625l0 4.375q0 0.15625 -0.09375 0.265625q-0.09375 0.09375 -0.25 0.09375zm-0.015625 -6.078125q-0.203125 0 -0.359375 -0.140625q-0.140625 -0.15625 -0.140625 -0.359375q0 -0.234375 0.15625 -0.375q0.15625 -0.140625 0.359375 -0.140625q0.1875 0 0.34375 0.140625q0.15625 0.140625 0.15625 0.375q0 0.203125 -0.15625 0.359375q-0.140625 0.140625 -0.359375 0.140625zm4.1802063 6.078125q-0.484375 0 -0.875 -0.234375q-0.390625 -0.234375 -0.609375 -0.640625q-0.21875 -0.40625 -0.21875 -0.921875l0 -4.5625q0 -0.15625 0.09375 -0.25q0.09375 -0.109375 0.25 -0.109375q0.15625 0 0.265625 0.109375q0.109375 0.09375 0.109375 0.25l0 4.5625q0 0.46875 0.265625 0.78125q0.28125 0.296875 0.71875 0.296875l0.265625 0q0.140625 0 0.234375 0.109375q0.09375 0.09375 0.09375 0.25q0 0.15625 -0.109375 0.265625q-0.109375 0.09375 -0.28125 0.09375l-0.203125 0zm-2.3125 -4.296875q-0.140625 0 -0.234375 -0.078125q-0.09375 -0.09375 -0.09375 -0.21875q0 -0.140625 0.09375 -0.234375q0.09375 -0.09375 0.234375 -0.09375l2.375 0q0.140625 0 0.234375 0.09375q0.09375 0.09375 0.09375 0.234375q0 0.125 -0.09375 0.21875q-0.09375 0.078125 -0.234375 0.078125l-2.375 0zm4.9530334 6.515625q-0.078125 0 -0.171875 -0.03125q-0.3125 -0.140625 -0.171875 -0.453125l3.015625 -6.640625q0.140625 -0.296875 0.4375 -0.171875q0.328125 0.140625 0.1875 0.4375l-3.03125 6.640625q-0.09375 0.21875 -0.265625 0.21875zm1.03125 -2.375q-0.140625 0.0625 -0.265625 0.03125q-0.109375 -0.046875 -0.1875 -0.1875l-2.078125 -4.3125q-0.0625 -0.140625 -0.015625 -0.265625q0.046875 -0.125 0.171875 -0.1875q0.140625 -0.0625 0.265625 -0.015625q0.125 0.03125 0.1875 0.171875l2.046875 4.3125q0.078125 0.140625 0.046875 0.265625q-0.03125 0.125 -0.171875 0.1875z" fill-rule="nonzero"/><path fill="#000000" fill-opacity="0.0" d="m215.38733 261.68765l36.377945 0l0 17.669281l-36.377945 0z" fill-rule="evenodd"/><path fill="#281e96" d="m222.21545 274.64764q-0.484375 0 -0.875 -0.234375q-0.390625 -0.234375 -0.609375 -0.640625q-0.21875 -0.40625 -0.21875 -0.921875l0 -4.5625q0 -0.15625 0.09375 -0.25q0.09375 -0.109375 0.25 -0.109375q0.15625 0 0.265625 0.109375q0.109375 0.09375 0.109375 0.25l0 4.5625q0 0.46875 0.265625 0.78125q0.28125 0.296875 0.71875 0.296875l0.265625 0q0.140625 0 0.234375 0.109375q0.09375 0.09375 0.09375 0.25q0 0.15625 -0.109375 0.265625q-0.109375 0.09375 -0.28125 0.09375l-0.203125 0zm-2.3125 -4.296875q-0.140625 0 -0.234375 -0.078125q-0.09375 -0.09375 -0.09375 -0.21875q0 -0.140625 0.09375 -0.234375q0.09375 -0.09375 0.234375 -0.09375l2.375 0q0.140625 0 0.234375 0.09375q0.09375 0.09375 0.09375 0.234375q0 0.125 -0.09375 0.21875q-0.09375 0.078125 -0.234375 0.078125l-2.375 0zm4.5936584 4.296875q-0.171875 0 -0.28125 -0.09375q-0.09375 -0.109375 -0.09375 -0.265625l0 -4.375q0 -0.171875 0.09375 -0.265625q0.109375 -0.109375 0.28125 -0.109375q0.15625 0 0.25 0.109375q0.09375 0.09375 0.09375 0.265625l0 4.375q0 0.15625 -0.09375 0.265625q-0.09375 0.09375 -0.25 0.09375zm-0.015625 -6.078125q-0.203125 0 -0.359375 -0.140625q-0.140625 -0.15625 -0.140625 -0.359375q0 -0.234375 0.15625 -0.375q0.15625 -0.140625 0.359375 -0.140625q0.1875 0 0.34375 0.140625q0.15625 0.140625 0.15625 0.375q0 0.203125 -0.15625 0.359375q-0.140625 0.140625 -0.359375 0.140625zm9.086456 6.078125q-0.15625 0 -0.265625 -0.09375q-0.09375 -0.109375 -0.09375 -0.265625l0 -2.6875q0 -0.65625 -0.359375 -1.046875q-0.34375 -0.390625 -0.875 -0.390625q-0.578125 0 -0.953125 0.390625q-0.359375 0.390625 -0.359375 1.03125l-0.640625 0q0.015625 -0.625 0.265625 -1.09375q0.265625 -0.484375 0.71875 -0.734375q0.46875 -0.265625 1.046875 -0.265625q0.546875 0 0.96875 0.265625q0.421875 0.25 0.65625 0.734375q0.25 0.46875 0.25 1.109375l0 2.6875q0 0.15625 -0.109375 0.265625q-0.09375 0.09375 -0.25 0.09375zm-6.53125 0q-0.171875 0 -0.265625 -0.09375q-0.09375 -0.109375 -0.09375 -0.265625l0 -4.375q0 -0.15625 0.09375 -0.265625q0.09375 -0.109375 0.265625 -0.109375q0.15625 0 0.25 0.109375q0.109375 0.109375 0.109375 0.265625l0 4.375q0 0.15625 -0.109375 0.265625q-0.09375 0.09375 -0.25 0.09375zm3.28125 0q-0.171875 0 -0.28125 -0.09375q-0.09375 -0.109375 -0.09375 -0.265625l0 -2.6875q0 -0.65625 -0.34375 -1.046875q-0.34375 -0.390625 -0.890625 -0.390625q-0.578125 0 -0.953125 0.390625q-0.359375 0.375 -0.359375 0.984375l-0.515625 0q0.015625 -0.609375 0.265625 -1.0625q0.25 -0.46875 0.671875 -0.71875q0.4375 -0.265625 0.96875 -0.265625q0.546875 0 0.96875 0.265625q0.4375 0.25 0.671875 0.734375q0.234375 0.46875 0.234375 1.109375l0 2.6875q0 0.15625 -0.09375 0.265625q-0.09375 0.09375 -0.25 0.09375zm7.505615 0.046875q-0.765625 0 -1.34375 -0.328125q-0.578125 -0.328125 -0.921875 -0.921875q-0.328125 -0.59375 -0.328125 -1.34375q0 -0.765625 0.3125 -1.34375q0.3125 -0.59375 0.859375 -0.921875q0.5625 -0.34375 1.28125 -0.34375q0.703125 0 1.234375 0.328125q0.53125 0.328125 0.8125 0.890625q0.296875 0.5625 0.296875 1.296875q0 0.15625 -0.09375 0.25q-0.09375 0.078125 -0.25 0.078125l-3.96875 0l0 -0.59375l4.046875 0l-0.40625 0.28125q0.015625 -0.53125 -0.1875 -0.953125q-0.203125 -0.4375 -0.59375 -0.671875q-0.375 -0.25 -0.890625 -0.25q-0.53125 0 -0.9375 0.25q-0.40625 0.25 -0.625 0.703125q-0.21875 0.4375 -0.21875 1.0q0 0.5625 0.25 1.015625q0.25 0.4375 0.671875 0.6875q0.4375 0.25 1.0 0.25q0.328125 0 0.671875 -0.109375q0.34375 -0.125 0.546875 -0.296875q0.109375 -0.09375 0.234375 -0.09375q0.125 0 0.21875 0.0625q0.125 0.109375 0.125 0.25q0.015625 0.125 -0.109375 0.21875q-0.296875 0.265625 -0.78125 0.4375q-0.46875 0.171875 -0.90625 0.171875z" fill-rule="nonzero"/><path fill="#000000" fill-opacity="0.0" d="m60.43832 175.00787l151.33858 -66.99213" fill-rule="evenodd"/><path stroke="#00ff00" stroke-width="8.0" stroke-linejoin="round" stroke-linecap="butt" d="m60.43832 175.00787l151.33858 -66.99213" fill-rule="evenodd"/><path fill="#000000" fill-opacity="0.0" d="m179.29553 79.07874l49.385834 0l0 17.669289l-49.385834 0z" fill-rule="evenodd"/><path fill="#000000" fill-opacity="0.0" d="m97.55249 170.27821l73.10237 0l0 17.669296l-73.10237 0z" fill-rule="evenodd"/><path fill="#281e96" d="m105.849365 183.33197q-0.8125 0 -1.5 -0.28125q-0.671875 -0.28125 -1.171875 -0.78125q-0.5 -0.5 -0.78125 -1.171875q-0.265625 -0.6875 -0.265625 -1.5q0 -0.8125 0.265625 -1.484375q0.28125 -0.6875 0.78125 -1.1875q0.5 -0.5 1.171875 -0.78125q0.6875 -0.28125 1.5 -0.28125q0.8125 0 1.484375 0.28125q0.6875 0.28125 1.1875 0.78125q0.5 0.5 0.765625 1.1875q0.28125 0.671875 0.28125 1.484375q0 0.8125 -0.28125 1.5q-0.265625 0.671875 -0.765625 1.171875q-0.5 0.5 -1.1875 0.78125q-0.671875 0.28125 -1.484375 0.28125zm0 -0.6875q0.640625 0 1.1875 -0.21875q0.5625 -0.234375 0.96875 -0.65625q0.40625 -0.421875 0.625 -0.96875q0.21875 -0.5625 0.21875 -1.203125q0 -0.65625 -0.21875 -1.203125q-0.21875 -0.5625 -0.625 -0.96875q-0.40625 -0.421875 -0.96875 -0.640625q-0.546875 -0.234375 -1.1875 -0.234375q-0.65625 0 -1.203125 0.234375q-0.546875 0.21875 -0.953125 0.640625q-0.40625 0.40625 -0.640625 0.96875q-0.21875 0.546875 -0.21875 1.203125q0 0.640625 0.21875 1.203125q0.234375 0.546875 0.640625 0.96875q0.40625 0.421875 0.953125 0.65625q0.546875 0.21875 1.203125 0.21875zm5.434952 -2.546875q0.03125 -0.578125 0.296875 -1.03125q0.28125 -0.46875 0.71875 -0.71875q0.453125 -0.265625 0.984375 -0.265625q0.4375 0 0.671875 0.125q0.234375 0.109375 0.171875 0.34375q-0.03125 0.140625 -0.125 0.1875q-0.09375 0.046875 -0.21875 0.046875q-0.125 -0.015625 -0.28125 -0.03125q-0.53125 -0.046875 -0.9375 0.109375q-0.390625 0.15625 -0.640625 0.484375q-0.234375 0.3125 -0.234375 0.75l-0.40625 0zm0.046875 3.140625q-0.15625 0 -0.25 -0.09375q-0.09375 -0.09375 -0.09375 -0.265625l0 -4.390625q0 -0.171875 0.09375 -0.265625q0.09375 -0.09375 0.25 -0.09375q0.171875 0 0.265625 0.09375q0.09375 0.09375 0.09375 0.265625l0 4.390625q0 0.171875 -0.09375 0.265625q-0.09375 0.09375 -0.265625 0.09375zm4.444153 0q-0.171875 0 -0.28125 -0.09375q-0.09375 -0.109375 -0.09375 -0.265625l0 -4.375q0 -0.171875 0.09375 -0.265625q0.109375 -0.109375 0.28125 -0.109375q0.15625 0 0.25 0.109375q0.09375 0.09375 0.09375 0.265625l0 4.375q0 0.15625 -0.09375 0.265625q-0.09375 0.09375 -0.25 0.09375zm-0.015625 -6.078125q-0.203125 0 -0.359375 -0.140625q-0.140625 -0.15625 -0.140625 -0.359375q0 -0.234375 0.15625 -0.375q0.15625 -0.140625 0.359375 -0.140625q0.1875 0 0.34375 0.140625q0.15625 0.140625 0.15625 0.375q0 0.203125 -0.15625 0.359375q-0.140625 0.140625 -0.359375 0.140625zm4.4458313 6.125q-0.75 0 -1.3125 -0.328125q-0.5625 -0.328125 -0.890625 -0.921875q-0.328125 -0.59375 -0.328125 -1.34375q0 -0.765625 0.328125 -1.34375q0.34375 -0.59375 0.9375 -0.921875q0.59375 -0.34375 1.328125 -0.34375q0.765625 0 1.34375 0.34375q0.578125 0.328125 0.90625 0.921875q0.34375 0.578125 0.34375 1.34375l-0.421875 0.21875q0 0.703125 -0.296875 1.234375q-0.28125 0.53125 -0.796875 0.84375q-0.5 0.296875 -1.140625 0.296875zm0.09375 1.96875q-0.75 0 -1.3125 -0.28125q-0.546875 -0.265625 -0.921875 -0.75q-0.09375 -0.109375 -0.078125 -0.25q0.015625 -0.125 0.125 -0.203125q0.125 -0.078125 0.265625 -0.0625q0.15625 0.03125 0.25 0.140625q0.265625 0.34375 0.6875 0.546875q0.421875 0.203125 0.984375 0.203125q0.53125 0 0.9375 -0.25q0.421875 -0.25 0.671875 -0.71875q0.25 -0.453125 0.25 -1.0625l0 -1.421875l0.265625 -0.53125l0.4375 0.078125l0 1.90625q0 0.75 -0.34375 1.34375q-0.328125 0.609375 -0.90625 0.953125q-0.578125 0.359375 -1.3125 0.359375zm-0.03125 -2.625q0.5625 0 0.984375 -0.234375q0.421875 -0.25 0.65625 -0.6875q0.25 -0.453125 0.25 -1.015625q0 -0.5625 -0.25 -1.0q-0.234375 -0.453125 -0.65625 -0.703125q-0.421875 -0.25 -0.984375 -0.25q-0.546875 0 -0.984375 0.25q-0.421875 0.25 -0.671875 0.703125q-0.234375 0.4375 -0.234375 1.0q0 0.5625 0.234375 1.015625q0.25 0.4375 0.671875 0.6875q0.4375 0.234375 0.984375 0.234375zm4.518265 0.609375q-0.171875 0 -0.28125 -0.09375q-0.09375 -0.109375 -0.09375 -0.265625l0 -4.375q0 -0.171875 0.09375 -0.265625q0.109375 -0.109375 0.28125 -0.109375q0.15625 0 0.25 0.109375q0.09375 0.09375 0.09375 0.265625l0 4.375q0 0.15625 -0.09375 0.265625q-0.09375 0.09375 -0.25 0.09375zm-0.015625 -6.078125q-0.203125 0 -0.359375 -0.140625q-0.140625 -0.15625 -0.140625 -0.359375q0 -0.234375 0.15625 -0.375q0.15625 -0.140625 0.359375 -0.140625q0.1875 0 0.34375 0.140625q0.15625 0.140625 0.15625 0.375q0 0.203125 -0.15625 0.359375q-0.140625 0.140625 -0.359375 0.140625zm6.5708313 6.078125q-0.15625 0 -0.265625 -0.09375q-0.109375 -0.109375 -0.109375 -0.265625l0 -2.421875q0 -0.578125 -0.21875 -0.953125q-0.21875 -0.375 -0.59375 -0.5625q-0.375 -0.1875 -0.84375 -0.1875q-0.46875 0 -0.84375 0.1875q-0.359375 0.171875 -0.578125 0.484375q-0.203125 0.3125 -0.203125 0.703125l-0.515625 0q0.015625 -0.59375 0.3125 -1.046875q0.296875 -0.46875 0.796875 -0.734375q0.5 -0.265625 1.09375 -0.265625q0.671875 0 1.1875 0.28125q0.53125 0.265625 0.828125 0.796875q0.296875 0.53125 0.296875 1.296875l0 2.421875q0 0.15625 -0.109375 0.265625q-0.09375 0.09375 -0.234375 0.09375zm-4.015625 0q-0.171875 0 -0.265625 -0.09375q-0.09375 -0.109375 -0.09375 -0.265625l0 -4.375q0 -0.171875 0.09375 -0.265625q0.09375 -0.109375 0.265625 -0.109375q0.15625 0 0.25 0.109375q0.109375 0.09375 0.109375 0.265625l0 4.375q0 0.15625 -0.109375 0.265625q-0.09375 0.09375 -0.25 0.09375zm8.205765 0.046875q-0.71875 0 -1.296875 -0.34375q-0.5625 -0.34375 -0.90625 -0.921875q-0.328125 -0.59375 -0.328125 -1.328125q0 -0.75 0.34375 -1.328125q0.34375 -0.59375 0.921875 -0.9375q0.59375 -0.34375 1.328125 -0.34375q0.75 0 1.328125 0.34375q0.578125 0.34375 0.921875 0.9375q0.34375 0.578125 0.34375 1.328125l-0.28125 0.21875q0 0.671875 -0.3125 1.21875q-0.3125 0.53125 -0.859375 0.84375q-0.53125 0.3125 -1.203125 0.3125zm0.0625 -0.65625q0.546875 0 0.96875 -0.25q0.421875 -0.25 0.671875 -0.6875q0.25 -0.453125 0.25 -1.0q0 -0.5625 -0.25 -1.0q-0.25 -0.4375 -0.671875 -0.6875q-0.421875 -0.265625 -0.96875 -0.265625q-0.53125 0 -0.96875 0.265625q-0.421875 0.25 -0.671875 0.6875q-0.25 0.4375 -0.25 1.0q0 0.546875 0.25 1.0q0.25 0.4375 0.671875 0.6875q0.4375 0.25 0.96875 0.25zm2.234375 0.609375q-0.15625 0 -0.265625 -0.09375q-0.09375 -0.109375 -0.09375 -0.265625l0 -1.59375l0.171875 -0.734375l0.546875 0.140625l0 2.1875q0 0.15625 -0.109375 0.265625q-0.09375 0.09375 -0.25 0.09375zm2.8620148 0q-0.375 0 -0.671875 -0.203125q-0.28125 -0.203125 -0.453125 -0.5625q-0.15625 -0.375 -0.15625 -0.84375l0 -5.328125q0 -0.15625 0.09375 -0.25q0.09375 -0.09375 0.25 -0.09375q0.171875 0 0.265625 0.09375q0.09375 0.09375 0.09375 0.25l0 5.328125q0 0.390625 0.15625 0.65625q0.171875 0.25 0.421875 0.25l0.234375 0q0.140625 0 0.21875 0.09375q0.09375 0.09375 0.09375 0.25q0 0.15625 -0.125 0.265625q-0.109375 0.09375 -0.296875 0.09375l-0.125 0z" fill-rule="nonzero"/><path fill="#281e96" d="m102.755615 196.42572q-0.171875 0 -0.265625 -0.109375q-0.09375 -0.09375 -0.09375 -0.265625l0 -4.390625q0 -0.734375 0.34375 -1.3125q0.34375 -0.59375 0.921875 -0.921875q0.59375 -0.34375 1.3125 -0.34375q0.75 0 1.328125 0.34375q0.59375 0.34375 0.9375 0.9375q0.34375 0.578125 0.34375 1.328125q0 0.734375 -0.34375 1.328125q-0.328125 0.578125 -0.90625 0.921875q-0.5625 0.34375 -1.28125 0.34375q-0.625 0 -1.140625 -0.265625q-0.5 -0.265625 -0.796875 -0.703125l0 2.734375q0 0.171875 -0.109375 0.265625q-0.09375 0.109375 -0.25 0.109375zm2.21875 -2.796875q0.546875 0 0.96875 -0.25q0.4375 -0.25 0.671875 -0.6875q0.25 -0.453125 0.25 -1.0q0 -0.5625 -0.25 -1.0q-0.234375 -0.4375 -0.671875 -0.6875q-0.421875 -0.265625 -0.96875 -0.265625q-0.53125 0 -0.96875 0.265625q-0.421875 0.25 -0.671875 0.6875q-0.234375 0.4375 -0.234375 1.0q0 0.546875 0.234375 1.0q0.25 0.4375 0.671875 0.6875q0.4375 0.25 0.96875 0.25zm4.313736 -2.53125q0.03125 -0.578125 0.296875 -1.03125q0.28125 -0.46875 0.71875 -0.71875q0.453125 -0.265625 0.984375 -0.265625q0.4375 0 0.671875 0.125q0.234375 0.109375 0.171875 0.34375q-0.03125 0.140625 -0.125 0.1875q-0.09375 0.046875 -0.21875 0.046875q-0.125 -0.015625 -0.28125 -0.03125q-0.53125 -0.046875 -0.9375 0.109375q-0.390625 0.15625 -0.640625 0.484375q-0.234375 0.3125 -0.234375 0.75l-0.40625 0zm0.046875 3.140625q-0.15625 0 -0.25 -0.09375q-0.09375 -0.09375 -0.09375 -0.265625l0 -4.390625q0 -0.171875 0.09375 -0.265625q0.09375 -0.09375 0.25 -0.09375q0.171875 0 0.265625 0.09375q0.09375 0.09375 0.09375 0.265625l0 4.390625q0 0.171875 -0.09375 0.265625q-0.09375 0.09375 -0.265625 0.09375zm5.867691 0.046875q-0.734375 0 -1.328125 -0.328125q-0.59375 -0.34375 -0.9375 -0.921875q-0.328125 -0.59375 -0.328125 -1.34375q0 -0.75 0.328125 -1.34375q0.34375 -0.59375 0.9375 -0.921875q0.59375 -0.34375 1.328125 -0.34375q0.75 0 1.328125 0.34375q0.59375 0.328125 0.921875 0.921875q0.34375 0.59375 0.34375 1.34375q0 0.75 -0.34375 1.34375q-0.328125 0.578125 -0.921875 0.921875q-0.578125 0.328125 -1.328125 0.328125zm0 -0.65625q0.546875 0 0.96875 -0.25q0.4375 -0.25 0.671875 -0.6875q0.25 -0.4375 0.25 -1.0q0 -0.5625 -0.25 -1.0q-0.234375 -0.453125 -0.671875 -0.703125q-0.421875 -0.25 -0.96875 -0.25q-0.53125 0 -0.96875 0.25q-0.421875 0.25 -0.671875 0.703125q-0.25 0.4375 -0.25 1.0q0 0.5625 0.25 1.0q0.25 0.4375 0.671875 0.6875q0.4375 0.25 0.96875 0.25zm6.31514 0.65625q-0.734375 0 -1.328125 -0.34375q-0.578125 -0.34375 -0.921875 -0.921875q-0.34375 -0.59375 -0.34375 -1.34375q0 -0.734375 0.328125 -1.3125q0.34375 -0.59375 0.90625 -0.9375q0.578125 -0.34375 1.296875 -0.34375q0.625 0 1.125 0.265625q0.5 0.265625 0.8125 0.71875l0 -2.75q0 -0.171875 0.09375 -0.265625q0.109375 -0.09375 0.265625 -0.09375q0.15625 0 0.25 0.09375q0.109375 0.09375 0.109375 0.265625l0 4.40625q-0.015625 0.71875 -0.359375 1.3125q-0.328125 0.578125 -0.921875 0.921875q-0.578125 0.328125 -1.3125 0.328125zm0 -0.65625q0.546875 0 0.96875 -0.25q0.421875 -0.265625 0.671875 -0.703125q0.25 -0.4375 0.25 -1.0q0 -0.546875 -0.25 -0.984375q-0.25 -0.453125 -0.671875 -0.703125q-0.421875 -0.25 -0.96875 -0.25q-0.53125 0 -0.96875 0.25q-0.421875 0.25 -0.671875 0.703125q-0.25 0.4375 -0.25 0.984375q0 0.5625 0.25 1.0q0.25 0.4375 0.671875 0.703125q0.4375 0.25 0.96875 0.25zm6.501236 0.671875q-0.671875 0 -1.1875 -0.28125q-0.515625 -0.28125 -0.828125 -0.8125q-0.296875 -0.53125 -0.296875 -1.296875l0 -2.421875q0 -0.140625 0.09375 -0.25q0.109375 -0.109375 0.25 -0.109375q0.171875 0 0.265625 0.109375q0.109375 0.109375 0.109375 0.25l0 2.421875q0 0.578125 0.21875 0.953125q0.21875 0.375 0.59375 0.5625q0.375 0.1875 0.859375 0.1875q0.453125 0 0.8125 -0.171875q0.375 -0.1875 0.578125 -0.484375q0.21875 -0.3125 0.21875 -0.703125l0.515625 0q-0.015625 0.578125 -0.3125 1.046875q-0.296875 0.46875 -0.796875 0.734375q-0.484375 0.265625 -1.09375 0.265625zm2.046875 -0.0625q-0.15625 0 -0.265625 -0.09375q-0.09375 -0.109375 -0.09375 -0.265625l0 -4.390625q0 -0.15625 0.09375 -0.25q0.109375 -0.109375 0.265625 -0.109375q0.15625 0 0.25 0.109375q0.109375 0.09375 0.109375 0.25l0 4.390625q0 0.15625 -0.109375 0.265625q-0.09375 0.09375 -0.25 0.09375zm4.31514 0.046875q-0.734375 0 -1.3125 -0.34375q-0.5625 -0.34375 -0.90625 -0.921875q-0.328125 -0.59375 -0.328125 -1.328125q0 -0.75 0.3125 -1.328125q0.328125 -0.59375 0.875 -0.9375q0.546875 -0.34375 1.265625 -0.34375q0.578125 0 1.046875 0.234375q0.484375 0.21875 0.859375 0.671875q0.09375 0.109375 0.0625 0.234375q-0.015625 0.125 -0.15625 0.21875q-0.09375 0.078125 -0.21875 0.0625q-0.125 -0.03125 -0.21875 -0.140625q-0.546875 -0.625 -1.375 -0.625q-0.515625 0 -0.921875 0.25q-0.390625 0.25 -0.609375 0.703125q-0.21875 0.4375 -0.21875 1.0q0 0.5625 0.234375 1.0q0.234375 0.4375 0.65625 0.6875q0.421875 0.25 0.953125 0.25q0.375 0 0.671875 -0.09375q0.296875 -0.09375 0.53125 -0.296875q0.125 -0.09375 0.234375 -0.109375q0.125 -0.015625 0.234375 0.078125q0.109375 0.09375 0.125 0.234375q0.015625 0.125 -0.09375 0.21875q-0.6875 0.625 -1.703125 0.625zm5.2783203 -0.046875q-0.484375 0 -0.875 -0.234375q-0.390625 -0.234375 -0.609375 -0.640625q-0.21875 -0.40625 -0.21875 -0.921875l0 -4.5625q0 -0.15625 0.09375 -0.25q0.09375 -0.109375 0.25 -0.109375q0.15625 0 0.265625 0.109375q0.109375 0.09375 0.109375 0.25l0 4.5625q0 0.46875 0.265625 0.78125q0.28125 0.296875 0.71875 0.296875l0.265625 0q0.140625 0 0.234375 0.109375q0.09375 0.09375 0.09375 0.25q0 0.15625 -0.109375 0.265625q-0.109375 0.09375 -0.28125 0.09375l-0.203125 0zm-2.3125 -4.296875q-0.140625 0 -0.234375 -0.078125q-0.09375 -0.09375 -0.09375 -0.21875q0 -0.140625 0.09375 -0.234375q0.09375 -0.09375 0.234375 -0.09375l2.375 0q0.140625 0 0.234375 0.09375q0.09375 0.09375 0.09375 0.234375q0 0.125 -0.09375 0.21875q-0.09375 0.078125 -0.234375 0.078125l-2.375 0zm4.5936584 4.296875q-0.171875 0 -0.28125 -0.09375q-0.09375 -0.109375 -0.09375 -0.265625l0 -4.375q0 -0.171875 0.09375 -0.265625q0.109375 -0.109375 0.28125 -0.109375q0.15625 0 0.25 0.109375q0.09375 0.09375 0.09375 0.265625l0 4.375q0 0.15625 -0.09375 0.265625q-0.09375 0.09375 -0.25 0.09375zm-0.015625 -6.078125q-0.203125 0 -0.359375 -0.140625q-0.140625 -0.15625 -0.140625 -0.359375q0 -0.234375 0.15625 -0.375q0.15625 -0.140625 0.359375 -0.140625q0.1875 0 0.34375 0.140625q0.15625 0.140625 0.15625 0.375q0 0.203125 -0.15625 0.359375q-0.140625 0.140625 -0.359375 0.140625zm3.9302063 6.078125q-0.21875 0 -0.328125 -0.25l-2.078125 -4.390625q-0.046875 -0.109375 0 -0.234375q0.046875 -0.125 0.1875 -0.1875q0.125 -0.0625 0.25 -0.015625q0.125 0.046875 0.1875 0.15625l1.984375 4.3125l-0.390625 0l1.96875 -4.3125q0.046875 -0.125 0.1875 -0.15625q0.140625 -0.046875 0.265625 0q0.125 0.0625 0.171875 0.203125q0.046875 0.125 0 0.234375l-2.046875 4.390625q-0.109375 0.25 -0.359375 0.25zm3.9396973 0q-0.171875 0 -0.28125 -0.09375q-0.09375 -0.109375 -0.09375 -0.265625l0 -4.375q0 -0.171875 0.09375 -0.265625q0.109375 -0.109375 0.28125 -0.109375q0.15625 0 0.25 0.109375q0.09375 0.09375 0.09375 0.265625l0 4.375q0 0.15625 -0.09375 0.265625q-0.09375 0.09375 -0.25 0.09375zm-0.015625 -6.078125q-0.203125 0 -0.359375 -0.140625q-0.140625 -0.15625 -0.140625 -0.359375q0 -0.234375 0.15625 -0.375q0.15625 -0.140625 0.359375 -0.140625q0.1875 0 0.34375 0.140625q0.15625 0.140625 0.15625 0.375q0 0.203125 -0.15625 0.359375q-0.140625 0.140625 -0.359375 0.140625zm4.1802063 6.078125q-0.484375 0 -0.875 -0.234375q-0.390625 -0.234375 -0.609375 -0.640625q-0.21875 -0.40625 -0.21875 -0.921875l0 -4.5625q0 -0.15625 0.09375 -0.25q0.09375 -0.109375 0.25 -0.109375q0.15625 0 0.265625 0.109375q0.109375 0.09375 0.109375 0.25l0 4.5625q0 0.46875 0.265625 0.78125q0.28125 0.296875 0.71875 0.296875l0.265625 0q0.140625 0 0.234375 0.109375q0.09375 0.09375 0.09375 0.25q0 0.15625 -0.109375 0.265625q-0.109375 0.09375 -0.28125 0.09375l-0.203125 0zm-2.3125 -4.296875q-0.140625 0 -0.234375 -0.078125q-0.09375 -0.09375 -0.09375 -0.21875q0 -0.140625 0.09375 -0.234375q0.09375 -0.09375 0.234375 -0.09375l2.375 0q0.140625 0 0.234375 0.09375q0.09375 0.09375 0.09375 0.234375q0 0.125 -0.09375 0.21875q-0.09375 0.078125 -0.234375 0.078125l-2.375 0zm4.9530334 6.515625q-0.078125 0 -0.171875 -0.03125q-0.3125 -0.140625 -0.171875 -0.453125l3.015625 -6.640625q0.140625 -0.296875 0.4375 -0.171875q0.328125 0.140625 0.1875 0.4375l-3.03125 6.640625q-0.09375 0.21875 -0.265625 0.21875zm1.03125 -2.375q-0.140625 0.0625 -0.265625 0.03125q-0.109375 -0.046875 -0.1875 -0.1875l-2.078125 -4.3125q-0.0625 -0.140625 -0.015625 -0.265625q0.046875 -0.125 0.171875 -0.1875q0.140625 -0.0625 0.265625 -0.015625q0.125 0.03125 0.1875 0.171875l2.046875 4.3125q0.078125 0.140625 0.046875 0.265625q-0.03125 0.125 -0.171875 0.1875z" fill-rule="nonzero"/><path fill="#281e96" d="m104.661865 205.2851q-0.734375 0 -1.3125 -0.34375q-0.5625 -0.34375 -0.90625 -0.921875q-0.328125 -0.59375 -0.328125 -1.328125q0 -0.75 0.3125 -1.328125q0.328125 -0.59375 0.875 -0.9375q0.546875 -0.34375 1.265625 -0.34375q0.578125 0 1.046875 0.234375q0.484375 0.21875 0.859375 0.671875q0.09375 0.109375 0.0625 0.234375q-0.015625 0.125 -0.15625 0.21875q-0.09375 0.078125 -0.21875 0.0625q-0.125 -0.03125 -0.21875 -0.140625q-0.546875 -0.625 -1.375 -0.625q-0.515625 0 -0.921875 0.25q-0.390625 0.25 -0.609375 0.703125q-0.21875 0.4375 -0.21875 1.0q0 0.5625 0.234375 1.0q0.234375 0.4375 0.65625 0.6875q0.421875 0.25 0.953125 0.25q0.375 0 0.671875 -0.09375q0.296875 -0.09375 0.53125 -0.296875q0.125 -0.09375 0.234375 -0.109375q0.125 -0.015625 0.234375 0.078125q0.109375 0.09375 0.125 0.234375q0.015625 0.125 -0.09375 0.21875q-0.6875 0.625 -1.703125 0.625zm5.5126953 0.015625q-0.671875 0 -1.1875 -0.28125q-0.515625 -0.28125 -0.828125 -0.8125q-0.296875 -0.53125 -0.296875 -1.296875l0 -2.421875q0 -0.140625 0.09375 -0.25q0.109375 -0.109375 0.25 -0.109375q0.171875 0 0.265625 0.109375q0.109375 0.109375 0.109375 0.25l0 2.421875q0 0.578125 0.21875 0.953125q0.21875 0.375 0.59375 0.5625q0.375 0.1875 0.859375 0.1875q0.453125 0 0.8125 -0.171875q0.375 -0.1875 0.578125 -0.484375q0.21875 -0.3125 0.21875 -0.703125l0.515625 0q-0.015625 0.578125 -0.3125 1.046875q-0.296875 0.46875 -0.796875 0.734375q-0.484375 0.265625 -1.09375 0.265625zm2.046875 -0.0625q-0.15625 0 -0.265625 -0.09375q-0.09375 -0.109375 -0.09375 -0.265625l0 -4.390625q0 -0.15625 0.09375 -0.25q0.109375 -0.109375 0.265625 -0.109375q0.15625 0 0.25 0.109375q0.109375 0.09375 0.109375 0.25l0 4.390625q0 0.15625 -0.109375 0.265625q-0.09375 0.09375 -0.25 0.09375zm2.3463898 -3.140625q0.03125 -0.578125 0.296875 -1.03125q0.28125 -0.46875 0.71875 -0.71875q0.453125 -0.265625 0.984375 -0.265625q0.4375 0 0.671875 0.125q0.234375 0.109375 0.171875 0.34375q-0.03125 0.140625 -0.125 0.1875q-0.09375 0.046875 -0.21875 0.046875q-0.125 -0.015625 -0.28125 -0.03125q-0.53125 -0.046875 -0.9375 0.109375q-0.390625 0.15625 -0.640625 0.484375q-0.234375 0.3125 -0.234375 0.75l-0.40625 0zm0.046875 3.140625q-0.15625 0 -0.25 -0.09375q-0.09375 -0.09375 -0.09375 -0.265625l0 -4.390625q0 -0.171875 0.09375 -0.265625q0.09375 -0.09375 0.25 -0.09375q0.171875 0 0.265625 0.09375q0.09375 0.09375 0.09375 0.265625l0 4.390625q0 0.171875 -0.09375 0.265625q-0.09375 0.09375 -0.265625 0.09375zm5.662903 0q-0.21875 0 -0.328125 -0.25l-2.078125 -4.390625q-0.046875 -0.109375 0 -0.234375q0.046875 -0.125 0.1875 -0.1875q0.125 -0.0625 0.25 -0.015625q0.125 0.046875 0.1875 0.15625l1.984375 4.3125l-0.390625 0l1.96875 -4.3125q0.046875 -0.125 0.1875 -0.15625q0.140625 -0.046875 0.265625 0q0.125 0.0625 0.171875 0.203125q0.046875 0.125 0 0.234375l-2.046875 4.390625q-0.109375 0.25 -0.359375 0.25zm5.5499115 0.046875q-0.765625 0 -1.34375 -0.328125q-0.578125 -0.328125 -0.921875 -0.921875q-0.328125 -0.59375 -0.328125 -1.34375q0 -0.765625 0.3125 -1.34375q0.3125 -0.59375 0.859375 -0.921875q0.5625 -0.34375 1.28125 -0.34375q0.703125 0 1.234375 0.328125q0.53125 0.328125 0.8125 0.890625q0.296875 0.5625 0.296875 1.296875q0 0.15625 -0.09375 0.25q-0.09375 0.078125 -0.25 0.078125l-3.96875 0l0 -0.59375l4.046875 0l-0.40625 0.28125q0.015625 -0.53125 -0.1875 -0.953125q-0.203125 -0.4375 -0.59375 -0.671875q-0.375 -0.25 -0.890625 -0.25q-0.53125 0 -0.9375 0.25q-0.40625 0.25 -0.625 0.703125q-0.21875 0.4375 -0.21875 1.0q0 0.5625 0.25 1.015625q0.25 0.4375 0.671875 0.6875q0.4375 0.25 1.0 0.25q0.328125 0 0.671875 -0.109375q0.34375 -0.125 0.546875 -0.296875q0.109375 -0.09375 0.234375 -0.09375q0.125 0 0.21875 0.0625q0.125 0.109375 0.125 0.25q0.015625 0.125 -0.109375 0.21875q-0.296875 0.265625 -0.78125 0.4375q-0.46875 0.171875 -0.90625 0.171875z" fill-rule="nonzero"/><path fill="#000000" fill-opacity="0.0" d="m88.808395 101.43044l73.10237 0l0 17.669296l-73.10237 0z" fill-rule="evenodd"/><path fill="#281e96" d="m94.10527 114.39044q-0.15625 0 -0.265625 -0.09375q-0.09375 -0.109375 -0.09375 -0.265625l0 -6.5625q0 -0.15625 0.09375 -0.25q0.109375 -0.109375 0.265625 -0.109375q0.171875 0 0.28125 0.125l4.453125 5.859375l0 -5.625q0 -0.15625 0.09375 -0.25q0.109375 -0.109375 0.28125 -0.109375q0.140625 0 0.25 0.109375q0.109375 0.09375 0.109375 0.25l0 6.5625q0 0.15625 -0.109375 0.265625q-0.109375 0.09375 -0.25 0.09375q-0.078125 0 -0.15625 -0.03125q-0.078125 -0.03125 -0.125 -0.09375l-4.46875 -5.859375l0 5.625q0 0.15625 -0.109375 0.265625q-0.09375 0.09375 -0.25 0.09375zm9.555084 0.046875q-0.765625 0 -1.34375 -0.328125q-0.578125 -0.328125 -0.921875 -0.921875q-0.328125 -0.59375 -0.328125 -1.34375q0 -0.765625 0.3125 -1.34375q0.3125 -0.59375 0.859375 -0.921875q0.5625 -0.34375 1.28125 -0.34375q0.703125 0 1.234375 0.328125q0.53125 0.328125 0.8125 0.890625q0.296875 0.5625 0.296875 1.296875q0 0.15625 -0.09375 0.25q-0.09375 0.078125 -0.25 0.078125l-3.96875 0l0 -0.59375l4.046875 0l-0.40625 0.28125q0.015625 -0.53125 -0.1875 -0.953125q-0.203125 -0.4375 -0.59375 -0.671875q-0.375 -0.25 -0.890625 -0.25q-0.53125 0 -0.9375 0.25q-0.40625 0.25 -0.625 0.703125q-0.21875 0.4375 -0.21875 1.0q0 0.5625 0.25 1.015625q0.25 0.4375 0.671875 0.6875q0.4375 0.25 1.0 0.25q0.328125 0 0.671875 -0.109375q0.34375 -0.125 0.546875 -0.296875q0.109375 -0.09375 0.234375 -0.09375q0.125 0 0.21875 0.0625q0.125 0.109375 0.125 0.25q0.015625 0.125 -0.109375 0.21875q-0.296875 0.265625 -0.78125 0.4375q-0.46875 0.171875 -0.90625 0.171875zm4.384552 -0.046875q-0.125 0 -0.21875 -0.0625q-0.09375 -0.0625 -0.125 -0.171875l-1.453125 -4.359375q-0.0625 -0.234375 0 -0.375q0.0625 -0.140625 0.265625 -0.140625q0.125 0 0.21875 0.078125q0.09375 0.0625 0.140625 0.203125l1.296875 3.953125l-0.21875 0l1.203125 -3.953125q0.046875 -0.109375 0.125 -0.1875q0.09375 -0.09375 0.234375 -0.09375q0.140625 0 0.21875 0.078125q0.09375 0.078125 0.140625 0.203125l1.140625 3.875l-0.15625 0l1.265625 -3.875q0.09375 -0.28125 0.34375 -0.28125q0.203125 0 0.28125 0.15625q0.078125 0.15625 0 0.359375l-1.453125 4.359375q-0.03125 0.109375 -0.125 0.171875q-0.09375 0.0625 -0.203125 0.0625q-0.125 0 -0.234375 -0.0625q-0.09375 -0.0625 -0.109375 -0.171875l-1.1875 -3.890625l0.109375 0l-1.171875 3.890625q-0.03125 0.109375 -0.125 0.171875q-0.09375 0.0625 -0.203125 0.0625z" fill-rule="nonzero"/><path fill="#281e96" d="m94.01152 127.57794q-0.171875 0 -0.265625 -0.109375q-0.09375 -0.09375 -0.09375 -0.265625l0 -4.390625q0 -0.734375 0.34375 -1.3125q0.34375 -0.59375 0.921875 -0.921875q0.59375 -0.34375 1.3125 -0.34375q0.75 0 1.328125 0.34375q0.59375 0.34375 0.9375 0.9375q0.34375 0.578125 0.34375 1.328125q0 0.734375 -0.34375 1.328125q-0.328125 0.578125 -0.90625 0.921875q-0.5625 0.34375 -1.28125 0.34375q-0.625 0 -1.140625 -0.265625q-0.5 -0.265625 -0.796875 -0.703125l0 2.734375q0 0.171875 -0.109375 0.265625q-0.09375 0.109375 -0.25 0.109375zm2.21875 -2.796875q0.546875 0 0.96875 -0.25q0.4375 -0.25 0.671875 -0.6875q0.25 -0.453125 0.25 -1.0q0 -0.5625 -0.25 -1.0q-0.234375 -0.4375 -0.671875 -0.6875q-0.421875 -0.265625 -0.96875 -0.265625q-0.53125 0 -0.96875 0.265625q-0.421875 0.25 -0.671875 0.6875q-0.234375 0.4375 -0.234375 1.0q0 0.546875 0.234375 1.0q0.25 0.4375 0.671875 0.6875q0.4375 0.25 0.96875 0.25zm4.313736 -2.53125q0.03125 -0.578125 0.296875 -1.03125q0.28125 -0.46875 0.71875 -0.71875q0.453125 -0.265625 0.984375 -0.265625q0.4375 0 0.671875 0.125q0.234375 0.109375 0.171875 0.34375q-0.03125 0.140625 -0.125 0.1875q-0.09375 0.046875 -0.21875 0.046875q-0.125 -0.015625 -0.28125 -0.03125q-0.53125 -0.046875 -0.9375 0.109375q-0.390625 0.15625 -0.640625 0.484375q-0.234375 0.3125 -0.234375 0.75l-0.40625 0zm0.046875 3.140625q-0.15625 0 -0.25 -0.09375q-0.09375 -0.09375 -0.09375 -0.265625l0 -4.390625q0 -0.171875 0.09375 -0.265625q0.09375 -0.09375 0.25 -0.09375q0.171875 0 0.265625 0.09375q0.09375 0.09375 0.09375 0.265625l0 4.390625q0 0.171875 -0.09375 0.265625q-0.09375 0.09375 -0.265625 0.09375zm5.867691 0.046875q-0.734375 0 -1.328125 -0.328125q-0.59375 -0.34375 -0.9375 -0.921875q-0.328125 -0.59375 -0.328125 -1.34375q0 -0.75 0.328125 -1.34375q0.34375 -0.59375 0.9375 -0.921875q0.59375 -0.34375 1.328125 -0.34375q0.75 0 1.328125 0.34375q0.59375 0.328125 0.921875 0.921875q0.34375 0.59375 0.34375 1.34375q0 0.75 -0.34375 1.34375q-0.328125 0.578125 -0.921875 0.921875q-0.578125 0.328125 -1.328125 0.328125zm0 -0.65625q0.546875 0 0.96875 -0.25q0.4375 -0.25 0.671875 -0.6875q0.25 -0.4375 0.25 -1.0q0 -0.5625 -0.25 -1.0q-0.234375 -0.453125 -0.671875 -0.703125q-0.421875 -0.25 -0.96875 -0.25q-0.53125 0 -0.96875 0.25q-0.421875 0.25 -0.671875 0.703125q-0.25 0.4375 -0.25 1.0q0 0.5625 0.25 1.0q0.25 0.4375 0.671875 0.6875q0.4375 0.25 0.96875 0.25zm6.31514 0.65625q-0.734375 0 -1.328125 -0.34375q-0.578125 -0.34375 -0.921875 -0.921875q-0.34375 -0.59375 -0.34375 -1.34375q0 -0.734375 0.328125 -1.3125q0.34375 -0.59375 0.90625 -0.9375q0.578125 -0.34375 1.296875 -0.34375q0.625 0 1.125 0.265625q0.5 0.265625 0.8125 0.71875l0 -2.75q0 -0.171875 0.09375 -0.265625q0.109375 -0.09375 0.265625 -0.09375q0.15625 0 0.25 0.09375q0.109375 0.09375 0.109375 0.265625l0 4.40625q-0.015625 0.71875 -0.359375 1.3125q-0.328125 0.578125 -0.921875 0.921875q-0.578125 0.328125 -1.3125 0.328125zm0 -0.65625q0.546875 0 0.96875 -0.25q0.421875 -0.265625 0.671875 -0.703125q0.25 -0.4375 0.25 -1.0q0 -0.546875 -0.25 -0.984375q-0.25 -0.453125 -0.671875 -0.703125q-0.421875 -0.25 -0.96875 -0.25q-0.53125 0 -0.96875 0.25q-0.421875 0.25 -0.671875 0.703125q-0.25 0.4375 -0.25 0.984375q0 0.5625 0.25 1.0q0.25 0.4375 0.671875 0.703125q0.4375 0.25 0.96875 0.25zm6.501236 0.671875q-0.671875 0 -1.1875 -0.28125q-0.515625 -0.28125 -0.828125 -0.8125q-0.296875 -0.53125 -0.296875 -1.296875l0 -2.421875q0 -0.140625 0.09375 -0.25q0.109375 -0.109375 0.25 -0.109375q0.171875 0 0.265625 0.109375q0.109375 0.109375 0.109375 0.25l0 2.421875q0 0.578125 0.21875 0.953125q0.21875 0.375 0.59375 0.5625q0.375 0.1875 0.859375 0.1875q0.453125 0 0.8125 -0.171875q0.375 -0.1875 0.578125 -0.484375q0.21875 -0.3125 0.21875 -0.703125l0.515625 0q-0.015625 0.578125 -0.3125 1.046875q-0.296875 0.46875 -0.796875 0.734375q-0.484375 0.265625 -1.09375 0.265625zm2.046875 -0.0625q-0.15625 0 -0.265625 -0.09375q-0.09375 -0.109375 -0.09375 -0.265625l0 -4.390625q0 -0.15625 0.09375 -0.25q0.109375 -0.109375 0.265625 -0.109375q0.15625 0 0.25 0.109375q0.109375 0.09375 0.109375 0.25l0 4.390625q0 0.15625 -0.109375 0.265625q-0.09375 0.09375 -0.25 0.09375zm4.31514 0.046875q-0.734375 0 -1.3125 -0.34375q-0.5625 -0.34375 -0.90625 -0.921875q-0.328125 -0.59375 -0.328125 -1.328125q0 -0.75 0.3125 -1.328125q0.328125 -0.59375 0.875 -0.9375q0.546875 -0.34375 1.265625 -0.34375q0.578125 0 1.046875 0.234375q0.484375 0.21875 0.859375 0.671875q0.09375 0.109375 0.0625 0.234375q-0.015625 0.125 -0.15625 0.21875q-0.09375 0.078125 -0.21875 0.0625q-0.125 -0.03125 -0.21875 -0.140625q-0.546875 -0.625 -1.375 -0.625q-0.515625 0 -0.921875 0.25q-0.390625 0.25 -0.609375 0.703125q-0.21875 0.4375 -0.21875 1.0q0 0.5625 0.234375 1.0q0.234375 0.4375 0.65625 0.6875q0.421875 0.25 0.953125 0.25q0.375 0 0.671875 -0.09375q0.296875 -0.09375 0.53125 -0.296875q0.125 -0.09375 0.234375 -0.109375q0.125 -0.015625 0.234375 0.078125q0.109375 0.09375 0.125 0.234375q0.015625 0.125 -0.09375 0.21875q-0.6875 0.625 -1.703125 0.625zm5.2783203 -0.046875q-0.484375 0 -0.875 -0.234375q-0.390625 -0.234375 -0.609375 -0.640625q-0.21875 -0.40625 -0.21875 -0.921875l0 -4.5625q0 -0.15625 0.09375 -0.25q0.09375 -0.109375 0.25 -0.109375q0.15625 0 0.265625 0.109375q0.109375 0.09375 0.109375 0.25l0 4.5625q0 0.46875 0.265625 0.78125q0.28125 0.296875 0.71875 0.296875l0.265625 0q0.140625 0 0.234375 0.109375q0.09375 0.09375 0.09375 0.25q0 0.15625 -0.109375 0.265625q-0.109375 0.09375 -0.28125 0.09375l-0.203125 0zm-2.3125 -4.296875q-0.140625 0 -0.234375 -0.078125q-0.09375 -0.09375 -0.09375 -0.21875q0 -0.140625 0.09375 -0.234375q0.09375 -0.09375 0.234375 -0.09375l2.375 0q0.140625 0 0.234375 0.09375q0.09375 0.09375 0.09375 0.234375q0 0.125 -0.09375 0.21875q-0.09375 0.078125 -0.234375 0.078125l-2.375 0zm4.5936584 4.296875q-0.171875 0 -0.28125 -0.09375q-0.09375 -0.109375 -0.09375 -0.265625l0 -4.375q0 -0.171875 0.09375 -0.265625q0.109375 -0.109375 0.28125 -0.109375q0.15625 0 0.25 0.109375q0.09375 0.09375 0.09375 0.265625l0 4.375q0 0.15625 -0.09375 0.265625q-0.09375 0.09375 -0.25 0.09375zm-0.015625 -6.078125q-0.203125 0 -0.359375 -0.140625q-0.140625 -0.15625 -0.140625 -0.359375q0 -0.234375 0.15625 -0.375q0.15625 -0.140625 0.359375 -0.140625q0.1875 0 0.34375 0.140625q0.15625 0.140625 0.15625 0.375q0 0.203125 -0.15625 0.359375q-0.140625 0.140625 -0.359375 0.140625zm3.9302063 6.078125q-0.21875 0 -0.328125 -0.25l-2.078125 -4.390625q-0.046875 -0.109375 0 -0.234375q0.046875 -0.125 0.1875 -0.1875q0.125 -0.0625 0.25 -0.015625q0.125 0.046875 0.1875 0.15625l1.984375 4.3125l-0.390625 0l1.96875 -4.3125q0.046875 -0.125 0.1875 -0.15625q0.140625 -0.046875 0.265625 0q0.125 0.0625 0.171875 0.203125q0.046875 0.125 0 0.234375l-2.046875 4.390625q-0.109375 0.25 -0.359375 0.25zm3.9396973 0q-0.171875 0 -0.28125 -0.09375q-0.09375 -0.109375 -0.09375 -0.265625l0 -4.375q0 -0.171875 0.09375 -0.265625q0.109375 -0.109375 0.28125 -0.109375q0.15625 0 0.25 0.109375q0.09375 0.09375 0.09375 0.265625l0 4.375q0 0.15625 -0.09375 0.265625q-0.09375 0.09375 -0.25 0.09375zm-0.015625 -6.078125q-0.203125 0 -0.359375 -0.140625q-0.140625 -0.15625 -0.140625 -0.359375q0 -0.234375 0.15625 -0.375q0.15625 -0.140625 0.359375 -0.140625q0.1875 0 0.34375 0.140625q0.15625 0.140625 0.15625 0.375q0 0.203125 -0.15625 0.359375q-0.140625 0.140625 -0.359375 0.140625zm4.1802063 6.078125q-0.484375 0 -0.875 -0.234375q-0.390625 -0.234375 -0.609375 -0.640625q-0.21875 -0.40625 -0.21875 -0.921875l0 -4.5625q0 -0.15625 0.09375 -0.25q0.09375 -0.109375 0.25 -0.109375q0.15625 0 0.265625 0.109375q0.109375 0.09375 0.109375 0.25l0 4.5625q0 0.46875 0.265625 0.78125q0.28125 0.296875 0.71875 0.296875l0.265625 0q0.140625 0 0.234375 0.109375q0.09375 0.09375 0.09375 0.25q0 0.15625 -0.109375 0.265625q-0.109375 0.09375 -0.28125 0.09375l-0.203125 0zm-2.3125 -4.296875q-0.140625 0 -0.234375 -0.078125q-0.09375 -0.09375 -0.09375 -0.21875q0 -0.140625 0.09375 -0.234375q0.09375 -0.09375 0.234375 -0.09375l2.375 0q0.140625 0 0.234375 0.09375q0.09375 0.09375 0.09375 0.234375q0 0.125 -0.09375 0.21875q-0.09375 0.078125 -0.234375 0.078125l-2.375 0zm4.9530334 6.515625q-0.078125 0 -0.171875 -0.03125q-0.3125 -0.140625 -0.171875 -0.453125l3.015625 -6.640625q0.140625 -0.296875 0.4375 -0.171875q0.328125 0.140625 0.1875 0.4375l-3.03125 6.640625q-0.09375 0.21875 -0.265625 0.21875zm1.03125 -2.375q-0.140625 0.0625 -0.265625 0.03125q-0.109375 -0.046875 -0.1875 -0.1875l-2.078125 -4.3125q-0.0625 -0.140625 -0.015625 -0.265625q0.046875 -0.125 0.171875 -0.1875q0.140625 -0.0625 0.265625 -0.015625q0.125 0.03125 0.1875 0.171875l2.046875 4.3125q0.078125 0.140625 0.046875 0.265625q-0.03125 0.125 -0.171875 0.1875z" fill-rule="nonzero"/><path fill="#281e96" d="m95.91777 136.43732q-0.734375 0 -1.3125 -0.34375q-0.5625 -0.34375 -0.90625 -0.921875q-0.328125 -0.59375 -0.328125 -1.328125q0 -0.75 0.3125 -1.328125q0.328125 -0.59375 0.875 -0.9375q0.546875 -0.34375 1.265625 -0.34375q0.578125 0 1.046875 0.234375q0.484375 0.21875 0.859375 0.671875q0.09375 0.109375 0.0625 0.234375q-0.015625 0.125 -0.15625 0.21875q-0.09375 0.078125 -0.21875 0.0625q-0.125 -0.03125 -0.21875 -0.140625q-0.546875 -0.625 -1.375 -0.625q-0.515625 0 -0.921875 0.25q-0.390625 0.25 -0.609375 0.703125q-0.21875 0.4375 -0.21875 1.0q0 0.5625 0.234375 1.0q0.234375 0.4375 0.65625 0.6875q0.421875 0.25 0.953125 0.25q0.375 0 0.671875 -0.09375q0.296875 -0.09375 0.53125 -0.296875q0.125 -0.09375 0.234375 -0.109375q0.125 -0.015625 0.234375 0.078125q0.109375 0.09375 0.125 0.234375q0.015625 0.125 -0.09375 0.21875q-0.6875 0.625 -1.703125 0.625zm5.5126953 0.015625q-0.671875 0 -1.1875 -0.28125q-0.515625 -0.28125 -0.828125 -0.8125q-0.296875 -0.53125 -0.296875 -1.296875l0 -2.421875q0 -0.140625 0.09375 -0.25q0.109375 -0.109375 0.25 -0.109375q0.171875 0 0.265625 0.109375q0.109375 0.109375 0.109375 0.25l0 2.421875q0 0.578125 0.21875 0.953125q0.21875 0.375 0.59375 0.5625q0.375 0.1875 0.859375 0.1875q0.453125 0 0.8125 -0.171875q0.375 -0.1875 0.578125 -0.484375q0.21875 -0.3125 0.21875 -0.703125l0.515625 0q-0.015625 0.578125 -0.3125 1.046875q-0.296875 0.46875 -0.796875 0.734375q-0.484375 0.265625 -1.09375 0.265625zm2.046875 -0.0625q-0.15625 0 -0.265625 -0.09375q-0.09375 -0.109375 -0.09375 -0.265625l0 -4.390625q0 -0.15625 0.09375 -0.25q0.109375 -0.109375 0.265625 -0.109375q0.15625 0 0.25 0.109375q0.109375 0.09375 0.109375 0.25l0 4.390625q0 0.15625 -0.109375 0.265625q-0.09375 0.09375 -0.25 0.09375zm2.3463898 -3.140625q0.03125 -0.578125 0.296875 -1.03125q0.28125 -0.46875 0.71875 -0.71875q0.453125 -0.265625 0.984375 -0.265625q0.4375 0 0.671875 0.125q0.234375 0.109375 0.171875 0.34375q-0.03125 0.140625 -0.125 0.1875q-0.09375 0.046875 -0.21875 0.046875q-0.125 -0.015625 -0.28125 -0.03125q-0.53125 -0.046875 -0.9375 0.109375q-0.390625 0.15625 -0.640625 0.484375q-0.234375 0.3125 -0.234375 0.75l-0.40625 0zm0.046875 3.140625q-0.15625 0 -0.25 -0.09375q-0.09375 -0.09375 -0.09375 -0.265625l0 -4.390625q0 -0.171875 0.09375 -0.265625q0.09375 -0.09375 0.25 -0.09375q0.171875 0 0.265625 0.09375q0.09375 0.09375 0.09375 0.265625l0 4.390625q0 0.171875 -0.09375 0.265625q-0.09375 0.09375 -0.265625 0.09375zm5.662903 0q-0.21875 0 -0.328125 -0.25l-2.078125 -4.390625q-0.046875 -0.109375 0 -0.234375q0.046875 -0.125 0.1875 -0.1875q0.125 -0.0625 0.25 -0.015625q0.125 0.046875 0.1875 0.15625l1.984375 4.3125l-0.390625 0l1.96875 -4.3125q0.046875 -0.125 0.1875 -0.15625q0.140625 -0.046875 0.265625 0q0.125 0.0625 0.171875 0.203125q0.046875 0.125 0 0.234375l-2.046875 4.390625q-0.109375 0.25 -0.359375 0.25zm5.5499115 0.046875q-0.765625 0 -1.34375 -0.328125q-0.578125 -0.328125 -0.921875 -0.921875q-0.328125 -0.59375 -0.328125 -1.34375q0 -0.765625 0.3125 -1.34375q0.3125 -0.59375 0.859375 -0.921875q0.5625 -0.34375 1.28125 -0.34375q0.703125 0 1.234375 0.328125q0.53125 0.328125 0.8125 0.890625q0.296875 0.5625 0.296875 1.296875q0 0.15625 -0.09375 0.25q-0.09375 0.078125 -0.25 0.078125l-3.96875 0l0 -0.59375l4.046875 0l-0.40625 0.28125q0.015625 -0.53125 -0.1875 -0.953125q-0.203125 -0.4375 -0.59375 -0.671875q-0.375 -0.25 -0.890625 -0.25q-0.53125 0 -0.9375 0.25q-0.40625 0.25 -0.625 0.703125q-0.21875 0.4375 -0.21875 1.0q0 0.5625 0.25 1.015625q0.25 0.4375 0.671875 0.6875q0.4375 0.25 1.0 0.25q0.328125 0 0.671875 -0.109375q0.34375 -0.125 0.546875 -0.296875q0.109375 -0.09375 0.234375 -0.09375q0.125 0 0.21875 0.0625q0.125 0.109375 0.125 0.25q0.015625 0.125 -0.109375 0.21875q-0.296875 0.265625 -0.78125 0.4375q-0.46875 0.171875 -0.90625 0.171875z" fill-rule="nonzero"/><path fill="#000000" fill-opacity="0.0" d="m225.19685 152.14629l0.50393677 102.48819" fill-rule="evenodd"/><path stroke="#d9d9d9" stroke-width="1.0" stroke-linejoin="round" stroke-linecap="butt" d="m225.19685 152.14629l0.50393677 102.48819" fill-rule="evenodd"/><path fill="#000000" fill-opacity="0.0" d="m211.79265 152.43439l27.055115 -0.28346252" fill-rule="evenodd"/><path stroke="#d9d9d9" stroke-width="1.0" stroke-linejoin="round" stroke-linecap="butt" d="m211.79265 152.43439l27.055115 -0.28346252" fill-rule="evenodd"/><path fill="#000000" fill-opacity="0.0" d="m225.19681 196.69974l76.724396 0l0 16.53543l-76.724396 0z" fill-rule="evenodd"/><path fill="#4332ff" d="m229.71243 207.09973q-0.109375 0 -0.1875 -0.078125q-0.078125 -0.078125 -0.078125 -0.1875l0 -4.671875q0 -0.109375 0.078125 -0.1875q0.078125 -0.078125 0.1875 -0.078125l3.125 0q0.109375 0 0.171875 0.078125q0.078125 0.0625 0.078125 0.171875q0 0.109375 -0.078125 0.1875q-0.0625 0.0625 -0.171875 0.0625l-2.875 0l0 1.84375l2.09375 0q0.109375 0 0.171875 0.078125q0.078125 0.0625 0.078125 0.171875q0 0.109375 -0.078125 0.1875q-0.0625 0.0625 -0.171875 0.0625l-2.09375 0l0 2.09375q0 0.109375 -0.078125 0.1875q-0.0625 0.078125 -0.171875 0.078125zm4.6132355 0q-0.125 0 -0.203125 -0.0625q-0.0625 -0.078125 -0.0625 -0.203125l0 -3.109375q0 -0.125 0.0625 -0.1875q0.078125 -0.078125 0.203125 -0.078125q0.109375 0 0.171875 0.078125q0.078125 0.0625 0.078125 0.1875l0 3.109375q0 0.125 -0.078125 0.203125q-0.0625 0.0625 -0.171875 0.0625zm-0.015625 -4.328125q-0.140625 0 -0.25 -0.109375q-0.109375 -0.109375 -0.109375 -0.265625q0 -0.15625 0.109375 -0.25q0.109375 -0.109375 0.25 -0.109375q0.140625 0 0.25 0.109375q0.109375 0.09375 0.109375 0.25q0 0.15625 -0.109375 0.265625q-0.09375 0.109375 -0.25 0.109375zm4.6892548 4.328125q-0.109375 0 -0.1875 -0.0625q-0.0625 -0.078125 -0.0625 -0.1875l0 -1.734375q0 -0.40625 -0.171875 -0.671875q-0.15625 -0.265625 -0.421875 -0.390625q-0.265625 -0.140625 -0.609375 -0.140625q-0.328125 0 -0.59375 0.125q-0.25 0.125 -0.40625 0.34375q-0.15625 0.21875 -0.15625 0.5l-0.359375 0q0.015625 -0.421875 0.21875 -0.75q0.21875 -0.328125 0.5625 -0.515625q0.359375 -0.203125 0.796875 -0.203125q0.46875 0 0.84375 0.203125q0.375 0.203125 0.578125 0.578125q0.21875 0.375 0.21875 0.921875l0 1.734375q0 0.109375 -0.078125 0.1875q-0.0625 0.0625 -0.171875 0.0625zm-2.859375 0q-0.125 0 -0.203125 -0.0625q-0.0625 -0.078125 -0.0625 -0.1875l0 -3.125q0 -0.125 0.0625 -0.1875q0.078125 -0.078125 0.203125 -0.078125q0.109375 0 0.171875 0.078125q0.078125 0.0625 0.078125 0.1875l0 3.125q0 0.109375 -0.078125 0.1875q-0.0625 0.0625 -0.171875 0.0625zm5.8499756 0.03125q-0.515625 0 -0.921875 -0.234375q-0.40625 -0.25 -0.640625 -0.671875q-0.234375 -0.421875 -0.234375 -0.9375q0 -0.53125 0.234375 -0.953125q0.25 -0.421875 0.671875 -0.65625q0.421875 -0.25 0.9375 -0.25q0.53125 0 0.9375 0.25q0.421875 0.234375 0.65625 0.65625q0.25 0.421875 0.265625 0.953125l-0.203125 0.15625q0 0.484375 -0.234375 0.875q-0.21875 0.375 -0.609375 0.59375q-0.375 0.21875 -0.859375 0.21875zm0.046875 -0.46875q0.390625 0 0.6875 -0.171875q0.3125 -0.1875 0.484375 -0.5q0.171875 -0.3125 0.171875 -0.703125q0 -0.40625 -0.171875 -0.71875q-0.171875 -0.3125 -0.484375 -0.484375q-0.296875 -0.1875 -0.6875 -0.1875q-0.375 0 -0.6875 0.1875q-0.296875 0.171875 -0.484375 0.484375q-0.171875 0.3125 -0.171875 0.71875q0 0.390625 0.171875 0.703125q0.1875 0.3125 0.484375 0.5q0.3125 0.171875 0.6875 0.171875zm1.59375 0.4375q-0.109375 0 -0.1875 -0.0625q-0.0625 -0.078125 -0.0625 -0.1875l0 -1.140625l0.125 -0.53125l0.390625 0.109375l0 1.5625q0 0.109375 -0.078125 0.1875q-0.078125 0.0625 -0.1875 0.0625zm2.0531006 0q-0.265625 0 -0.484375 -0.140625q-0.203125 -0.15625 -0.328125 -0.40625q-0.109375 -0.265625 -0.109375 -0.609375l0 -3.796875q0 -0.109375 0.0625 -0.171875q0.078125 -0.078125 0.1875 -0.078125q0.109375 0 0.171875 0.078125q0.078125 0.0625 0.078125 0.171875l0 3.796875q0 0.296875 0.109375 0.484375q0.125 0.171875 0.3125 0.171875l0.15625 0q0.109375 0 0.15625 0.078125q0.0625 0.0625 0.0625 0.171875q0 0.109375 -0.078125 0.1875q-0.078125 0.0625 -0.21875 0.0625l-0.078125 0z" fill-rule="nonzero"/><path fill="#4332ff" d="m231.38431 215.1466q-0.484375 0 -0.859375 -0.203125q-0.359375 -0.203125 -0.578125 -0.578125q-0.21875 -0.375 -0.21875 -0.921875l0 -1.734375q0 -0.109375 0.0625 -0.171875q0.078125 -0.078125 0.1875 -0.078125q0.125 0 0.1875 0.078125q0.078125 0.0625 0.078125 0.171875l0 1.734375q0 0.40625 0.15625 0.671875q0.15625 0.265625 0.421875 0.40625q0.265625 0.125 0.609375 0.125q0.328125 0 0.59375 -0.125q0.265625 -0.125 0.40625 -0.34375q0.15625 -0.21875 0.15625 -0.5l0.375 0q-0.03125 0.421875 -0.234375 0.75q-0.203125 0.328125 -0.5625 0.53125q-0.359375 0.1875 -0.78125 0.1875zm1.453125 -0.046875q-0.109375 0 -0.1875 -0.0625q-0.0625 -0.078125 -0.0625 -0.203125l0 -3.125q0 -0.109375 0.0625 -0.171875q0.078125 -0.078125 0.1875 -0.078125q0.125 0 0.1875 0.078125q0.078125 0.0625 0.078125 0.171875l0 3.125q0 0.125 -0.078125 0.203125q-0.0625 0.0625 -0.1875 0.0625zm4.5843506 0q-0.109375 0 -0.1875 -0.0625q-0.0625 -0.078125 -0.0625 -0.1875l0 -1.734375q0 -0.40625 -0.171875 -0.671875q-0.15625 -0.265625 -0.421875 -0.390625q-0.265625 -0.140625 -0.609375 -0.140625q-0.328125 0 -0.59375 0.125q-0.25 0.125 -0.40625 0.34375q-0.15625 0.21875 -0.15625 0.5l-0.359375 0q0.015625 -0.421875 0.21875 -0.75q0.21875 -0.328125 0.5625 -0.515625q0.359375 -0.203125 0.796875 -0.203125q0.46875 0 0.84375 0.203125q0.375 0.203125 0.578125 0.578125q0.21875 0.375 0.21875 0.921875l0 1.734375q0 0.109375 -0.078125 0.1875q-0.0625 0.0625 -0.171875 0.0625zm-2.859375 0q-0.125 0 -0.203125 -0.0625q-0.0625 -0.078125 -0.0625 -0.1875l0 -3.125q0 -0.125 0.0625 -0.1875q0.078125 -0.078125 0.203125 -0.078125q0.109375 0 0.171875 0.078125q0.078125 0.0625 0.078125 0.1875l0 3.125q0 0.109375 -0.078125 0.1875q-0.0625 0.0625 -0.171875 0.0625zm5.8499756 0.03125q-0.515625 0 -0.921875 -0.234375q-0.40625 -0.25 -0.640625 -0.671875q-0.234375 -0.421875 -0.234375 -0.9375q0 -0.53125 0.234375 -0.953125q0.25 -0.421875 0.671875 -0.65625q0.421875 -0.25 0.9375 -0.25q0.53125 0 0.9375 0.25q0.421875 0.234375 0.65625 0.65625q0.25 0.421875 0.265625 0.953125l-0.203125 0.15625q0 0.484375 -0.234375 0.875q-0.21875 0.375 -0.609375 0.59375q-0.375 0.21875 -0.859375 0.21875zm0.046875 -0.46875q0.390625 0 0.6875 -0.171875q0.3125 -0.1875 0.484375 -0.5q0.171875 -0.3125 0.171875 -0.703125q0 -0.40625 -0.171875 -0.71875q-0.171875 -0.3125 -0.484375 -0.484375q-0.296875 -0.1875 -0.6875 -0.1875q-0.375 0 -0.6875 0.1875q-0.296875 0.171875 -0.484375 0.484375q-0.171875 0.3125 -0.171875 0.71875q0 0.390625 0.171875 0.703125q0.1875 0.3125 0.484375 0.5q0.3125 0.171875 0.6875 0.171875zm1.59375 0.4375q-0.109375 0 -0.1875 -0.0625q-0.0625 -0.078125 -0.0625 -0.1875l0 -1.140625l0.125 -0.53125l0.390625 0.109375l0 1.5625q0 0.109375 -0.078125 0.1875q-0.078125 0.0625 -0.1875 0.0625zm2.5374756 0.03125q-0.390625 0 -0.78125 -0.125q-0.390625 -0.140625 -0.625 -0.40625q-0.078125 -0.078125 -0.0625 -0.171875q0.015625 -0.109375 0.09375 -0.1875q0.09375 -0.0625 0.1875 -0.046875q0.109375 0.015625 0.171875 0.09375q0.171875 0.1875 0.421875 0.28125q0.265625 0.09375 0.59375 0.09375q0.484375 0 0.703125 -0.15625q0.21875 -0.171875 0.234375 -0.421875q0 -0.234375 -0.234375 -0.390625q-0.21875 -0.15625 -0.734375 -0.25q-0.671875 -0.09375 -0.984375 -0.359375q-0.3125 -0.28125 -0.3125 -0.640625q0 -0.34375 0.171875 -0.5625q0.1875 -0.234375 0.484375 -0.34375q0.296875 -0.109375 0.65625 -0.109375q0.4375 0 0.765625 0.15625q0.328125 0.140625 0.515625 0.40625q0.078125 0.09375 0.0625 0.1875q-0.015625 0.09375 -0.109375 0.140625q-0.078125 0.046875 -0.1875 0.03125q-0.09375 -0.015625 -0.171875 -0.09375q-0.171875 -0.1875 -0.390625 -0.28125q-0.21875 -0.09375 -0.5 -0.09375q-0.359375 0 -0.59375 0.15625q-0.21875 0.140625 -0.21875 0.375q0 0.15625 0.078125 0.265625q0.09375 0.109375 0.296875 0.203125q0.203125 0.078125 0.578125 0.140625q0.484375 0.078125 0.78125 0.234375q0.296875 0.15625 0.40625 0.375q0.125 0.203125 0.125 0.453125q0 0.3125 -0.1875 0.546875q-0.171875 0.234375 -0.5 0.375q-0.3125 0.125 -0.734375 0.125zm3.587677 0q-0.390625 0 -0.78125 -0.125q-0.390625 -0.140625 -0.625 -0.40625q-0.078125 -0.078125 -0.0625 -0.171875q0.015625 -0.109375 0.09375 -0.1875q0.09375 -0.0625 0.1875 -0.046875q0.109375 0.015625 0.171875 0.09375q0.171875 0.1875 0.421875 0.28125q0.265625 0.09375 0.59375 0.09375q0.484375 0 0.703125 -0.15625q0.21875 -0.171875 0.234375 -0.421875q0 -0.234375 -0.234375 -0.390625q-0.21875 -0.15625 -0.734375 -0.25q-0.671875 -0.09375 -0.984375 -0.359375q-0.3125 -0.28125 -0.3125 -0.640625q0 -0.34375 0.171875 -0.5625q0.1875 -0.234375 0.484375 -0.34375q0.296875 -0.109375 0.65625 -0.109375q0.4375 0 0.765625 0.15625q0.328125 0.140625 0.515625 0.40625q0.078125 0.09375 0.0625 0.1875q-0.015625 0.09375 -0.109375 0.140625q-0.078125 0.046875 -0.1875 0.03125q-0.09375 -0.015625 -0.171875 -0.09375q-0.171875 -0.1875 -0.390625 -0.28125q-0.21875 -0.09375 -0.5 -0.09375q-0.359375 0 -0.59375 0.15625q-0.21875 0.140625 -0.21875 0.375q0 0.15625 0.078125 0.265625q0.09375 0.109375 0.296875 0.203125q0.203125 0.078125 0.578125 0.140625q0.484375 0.078125 0.78125 0.234375q0.296875 0.15625 0.40625 0.375q0.125 0.203125 0.125 0.453125q0 0.3125 -0.1875 0.546875q-0.171875 0.234375 -0.5 0.375q-0.3125 0.125 -0.734375 0.125zm2.681427 -0.03125q-0.125 0 -0.203125 -0.0625q-0.0625 -0.078125 -0.0625 -0.203125l0 -3.109375q0 -0.125 0.0625 -0.1875q0.078125 -0.078125 0.203125 -0.078125q0.109375 0 0.171875 0.078125q0.078125 0.0625 0.078125 0.1875l0 3.109375q0 0.125 -0.078125 0.203125q-0.0625 0.0625 -0.171875 0.0625zm-0.015625 -4.328125q-0.140625 0 -0.25 -0.109375q-0.109375 -0.109375 -0.109375 -0.265625q0 -0.15625 0.109375 -0.25q0.109375 -0.109375 0.25 -0.109375q0.140625 0 0.25 0.109375q0.109375 0.09375 0.109375 0.25q0 0.15625 -0.109375 0.265625q-0.09375 0.109375 -0.25 0.109375zm2.8455048 4.359375q-0.390625 0 -0.78125 -0.125q-0.390625 -0.140625 -0.625 -0.40625q-0.078125 -0.078125 -0.0625 -0.171875q0.015625 -0.109375 0.09375 -0.1875q0.09375 -0.0625 0.1875 -0.046875q0.109375 0.015625 0.171875 0.09375q0.171875 0.1875 0.421875 0.28125q0.265625 0.09375 0.59375 0.09375q0.484375 0 0.703125 -0.15625q0.21875 -0.171875 0.234375 -0.421875q0 -0.234375 -0.234375 -0.390625q-0.21875 -0.15625 -0.734375 -0.25q-0.671875 -0.09375 -0.984375 -0.359375q-0.3125 -0.28125 -0.3125 -0.640625q0 -0.34375 0.171875 -0.5625q0.1875 -0.234375 0.484375 -0.34375q0.296875 -0.109375 0.65625 -0.109375q0.4375 0 0.765625 0.15625q0.328125 0.140625 0.515625 0.40625q0.078125 0.09375 0.0625 0.1875q-0.015625 0.09375 -0.109375 0.140625q-0.078125 0.046875 -0.1875 0.03125q-0.09375 -0.015625 -0.171875 -0.09375q-0.171875 -0.1875 -0.390625 -0.28125q-0.21875 -0.09375 -0.5 -0.09375q-0.359375 0 -0.59375 0.15625q-0.21875 0.140625 -0.21875 0.375q0 0.15625 0.078125 0.265625q0.09375 0.109375 0.296875 0.203125q0.203125 0.078125 0.578125 0.140625q0.484375 0.078125 0.78125 0.234375q0.296875 0.15625 0.40625 0.375q0.125 0.203125 0.125 0.453125q0 0.3125 -0.1875 0.546875q-0.171875 0.234375 -0.5 0.375q-0.3125 0.125 -0.734375 0.125zm3.7439117 -0.03125q-0.359375 0 -0.640625 -0.15625q-0.265625 -0.171875 -0.4375 -0.453125q-0.15625 -0.296875 -0.15625 -0.671875l0 -3.265625q0 -0.109375 0.0625 -0.171875q0.078125 -0.078125 0.1875 -0.078125q0.125 0 0.1875 0.078125q0.078125 0.0625 0.078125 0.171875l0 3.265625q0 0.34375 0.1875 0.5625q0.203125 0.203125 0.53125 0.203125l0.171875 0q0.109375 0 0.171875 0.078125q0.0625 0.078125 0.0625 0.1875q0 0.109375 -0.078125 0.1875q-0.078125 0.0625 -0.203125 0.0625l-0.125 0zm-1.6718597 -3.0625q-0.09375 0 -0.15625 -0.0625q-0.0625 -0.0625 -0.0625 -0.15625q0 -0.09375 0.0625 -0.15625q0.0625 -0.0625 0.15625 -0.0625l1.7031097 0q0.09375 0 0.15625 0.0625q0.078125 0.0625 0.078125 0.15625q0 0.09375 -0.078125 0.15625q-0.0625 0.0625 -0.15625 0.0625l-1.7031097 0zm4.566391 3.09375q-0.546875 0 -0.96875 -0.234375q-0.40625 -0.234375 -0.640625 -0.65625q-0.234375 -0.421875 -0.234375 -0.953125q0 -0.546875 0.21875 -0.953125q0.234375 -0.421875 0.625 -0.65625q0.390625 -0.25 0.90625 -0.25q0.5 0 0.875 0.234375q0.375 0.21875 0.578125 0.625q0.21875 0.40625 0.21875 0.921875q0 0.109375 -0.078125 0.171875q-0.0625 0.0625 -0.171875 0.0625l-2.828125 0l0 -0.421875l2.890625 0l-0.296875 0.203125q0.015625 -0.375 -0.140625 -0.6875q-0.140625 -0.3125 -0.421875 -0.484375q-0.265625 -0.171875 -0.625 -0.171875q-0.390625 0 -0.671875 0.1875q-0.28125 0.171875 -0.4375 0.5q-0.15625 0.3125 -0.15625 0.71875q0 0.40625 0.171875 0.71875q0.171875 0.3125 0.46875 0.5q0.3125 0.171875 0.71875 0.171875q0.234375 0 0.46875 -0.078125q0.25 -0.09375 0.40625 -0.21875q0.0625 -0.0625 0.15625 -0.0625q0.09375 0 0.171875 0.046875q0.078125 0.078125 0.078125 0.171875q0.015625 0.09375 -0.0625 0.15625q-0.234375 0.1875 -0.578125 0.3125q-0.328125 0.125 -0.640625 0.125zm3.9535522 0q-0.515625 0 -0.9375 -0.234375q-0.421875 -0.25 -0.671875 -0.671875q-0.234375 -0.421875 -0.234375 -0.953125q0 -0.515625 0.234375 -0.9375q0.234375 -0.421875 0.640625 -0.65625q0.40625 -0.25 0.921875 -0.25q0.453125 0 0.8125 0.1875q0.359375 0.1875 0.578125 0.5l0 -1.953125q0 -0.125 0.0625 -0.1875q0.078125 -0.078125 0.1875 -0.078125q0.109375 0 0.1875 0.078125q0.078125 0.0625 0.078125 0.1875l0 3.140625q-0.015625 0.515625 -0.265625 0.9375q-0.234375 0.40625 -0.65625 0.65625q-0.40625 0.234375 -0.9375 0.234375zm0 -0.46875q0.390625 0 0.6875 -0.171875q0.3125 -0.1875 0.484375 -0.5q0.171875 -0.3125 0.171875 -0.71875q0 -0.390625 -0.171875 -0.703125q-0.171875 -0.3125 -0.484375 -0.484375q-0.296875 -0.1875 -0.6875 -0.1875q-0.375 0 -0.6875 0.1875q-0.296875 0.171875 -0.484375 0.484375q-0.171875 0.3125 -0.171875 0.703125q0 0.40625 0.171875 0.71875q0.1875 0.3125 0.484375 0.5q0.3125 0.171875 0.6875 0.171875z" fill-rule="nonzero"/><path fill="#4332ff" d="m230.05618 224.66223q-0.125 0 -0.203125 -0.078125q-0.0625 -0.0625 -0.0625 -0.1875l0 -3.140625q0.015625 -0.515625 0.25 -0.921875q0.25 -0.421875 0.65625 -0.65625q0.421875 -0.25 0.9375 -0.25q0.53125 0 0.953125 0.25q0.421875 0.234375 0.65625 0.65625q0.25 0.421875 0.25 0.953125q0 0.515625 -0.234375 0.9375q-0.234375 0.421875 -0.640625 0.671875q-0.40625 0.234375 -0.921875 0.234375q-0.4375 0 -0.8125 -0.1875q-0.359375 -0.1875 -0.578125 -0.5l0 1.953125q0 0.125 -0.078125 0.1875q-0.0625 0.078125 -0.171875 0.078125zm1.578125 -2.0q0.390625 0 0.6875 -0.171875q0.3125 -0.1875 0.484375 -0.5q0.1875 -0.3125 0.1875 -0.703125q0 -0.40625 -0.1875 -0.71875q-0.171875 -0.3125 -0.484375 -0.484375q-0.296875 -0.1875 -0.6875 -0.1875q-0.375 0 -0.6875 0.1875q-0.296875 0.171875 -0.46875 0.484375q-0.171875 0.3125 -0.171875 0.71875q0 0.390625 0.171875 0.703125q0.171875 0.3125 0.46875 0.5q0.3125 0.171875 0.6875 0.171875zm3.0809174 -1.8125q0.015625 -0.40625 0.203125 -0.734375q0.203125 -0.328125 0.515625 -0.515625q0.328125 -0.1875 0.71875 -0.1875q0.296875 0 0.453125 0.09375q0.171875 0.09375 0.140625 0.25q-0.03125 0.109375 -0.09375 0.140625q-0.0625 0.03125 -0.15625 0.03125q-0.078125 -0.015625 -0.203125 -0.015625q-0.359375 -0.046875 -0.65625 0.0625q-0.296875 0.109375 -0.46875 0.34375q-0.15625 0.21875 -0.15625 0.53125l-0.296875 0zm0.046875 2.25q-0.125 0 -0.203125 -0.0625q-0.0625 -0.078125 -0.0625 -0.1875l0 -3.140625q0 -0.109375 0.0625 -0.171875q0.078125 -0.078125 0.203125 -0.078125q0.109375 0 0.171875 0.078125q0.078125 0.0625 0.078125 0.171875l0 3.140625q0 0.109375 -0.078125 0.1875q-0.0625 0.0625 -0.171875 0.0625zm4.1724854 0.03125q-0.53125 0 -0.953125 -0.234375q-0.40625 -0.25 -0.65625 -0.65625q-0.234375 -0.421875 -0.234375 -0.953125q0 -0.546875 0.234375 -0.953125q0.25 -0.421875 0.65625 -0.65625q0.421875 -0.25 0.953125 -0.25q0.53125 0 0.953125 0.25q0.421875 0.234375 0.65625 0.65625q0.234375 0.40625 0.25 0.953125q0 0.53125 -0.25 0.953125q-0.234375 0.40625 -0.65625 0.65625q-0.421875 0.234375 -0.953125 0.234375zm0 -0.46875q0.390625 0 0.6875 -0.171875q0.3125 -0.1875 0.484375 -0.5q0.171875 -0.3125 0.171875 -0.703125q0 -0.40625 -0.171875 -0.71875q-0.171875 -0.3125 -0.484375 -0.484375q-0.296875 -0.1875 -0.6875 -0.1875q-0.375 0 -0.6875 0.1875q-0.296875 0.171875 -0.484375 0.484375q-0.171875 0.3125 -0.171875 0.71875q0 0.390625 0.171875 0.703125q0.1875 0.3125 0.484375 0.5q0.3125 0.171875 0.6875 0.171875zm4.5062256 0.46875q-0.515625 0 -0.9375 -0.234375q-0.421875 -0.25 -0.671875 -0.671875q-0.234375 -0.421875 -0.234375 -0.953125q0 -0.515625 0.234375 -0.9375q0.234375 -0.421875 0.640625 -0.65625q0.40625 -0.25 0.921875 -0.25q0.453125 0 0.8125 0.1875q0.359375 0.1875 0.578125 0.5l0 -1.953125q0 -0.125 0.0625 -0.1875q0.078125 -0.078125 0.1875 -0.078125q0.109375 0 0.1875 0.078125q0.078125 0.0625 0.078125 0.1875l0 3.140625q-0.015625 0.515625 -0.265625 0.9375q-0.234375 0.40625 -0.65625 0.65625q-0.40625 0.234375 -0.9375 0.234375zm0 -0.46875q0.390625 0 0.6875 -0.171875q0.3125 -0.1875 0.484375 -0.5q0.171875 -0.3125 0.171875 -0.71875q0 -0.390625 -0.171875 -0.703125q-0.171875 -0.3125 -0.484375 -0.484375q-0.296875 -0.1875 -0.6875 -0.1875q-0.375 0 -0.6875 0.1875q-0.296875 0.171875 -0.484375 0.484375q-0.171875 0.3125 -0.171875 0.703125q0 0.40625 0.171875 0.71875q0.1875 0.3125 0.484375 0.5q0.3125 0.171875 0.6875 0.171875zm4.6434174 0.484375q-0.484375 0 -0.859375 -0.203125q-0.359375 -0.203125 -0.578125 -0.578125q-0.21875 -0.375 -0.21875 -0.921875l0 -1.734375q0 -0.109375 0.0625 -0.171875q0.078125 -0.078125 0.1875 -0.078125q0.125 0 0.1875 0.078125q0.078125 0.0625 0.078125 0.171875l0 1.734375q0 0.40625 0.15625 0.671875q0.15625 0.265625 0.421875 0.40625q0.265625 0.125 0.609375 0.125q0.328125 0 0.59375 -0.125q0.265625 -0.125 0.40625 -0.34375q0.15625 -0.21875 0.15625 -0.5l0.375 0q-0.03125 0.421875 -0.234375 0.75q-0.203125 0.328125 -0.5625 0.53125q-0.359375 0.1875 -0.78125 0.1875zm1.453125 -0.046875q-0.109375 0 -0.1875 -0.0625q-0.0625 -0.078125 -0.0625 -0.203125l0 -3.125q0 -0.109375 0.0625 -0.171875q0.078125 -0.078125 0.1875 -0.078125q0.125 0 0.1875 0.078125q0.078125 0.0625 0.078125 0.171875l0 3.125q0 0.125 -0.078125 0.203125q-0.0625 0.0625 -0.1875 0.0625zm3.0843506 0.03125q-0.515625 0 -0.9375 -0.234375q-0.40625 -0.25 -0.640625 -0.671875q-0.234375 -0.421875 -0.234375 -0.9375q0 -0.53125 0.21875 -0.953125q0.234375 -0.421875 0.625 -0.65625q0.390625 -0.25 0.90625 -0.25q0.40625 0 0.75 0.15625q0.34375 0.15625 0.59375 0.484375q0.078125 0.078125 0.0625 0.171875q-0.015625 0.078125 -0.109375 0.15625q-0.078125 0.046875 -0.171875 0.03125q-0.09375 -0.015625 -0.15625 -0.09375q-0.375 -0.4375 -0.96875 -0.4375q-0.375 0 -0.65625 0.1875q-0.28125 0.171875 -0.4375 0.484375q-0.15625 0.3125 -0.15625 0.71875q0 0.390625 0.15625 0.703125q0.171875 0.3125 0.46875 0.5q0.3125 0.171875 0.6875 0.171875q0.265625 0 0.484375 -0.0625q0.21875 -0.078125 0.375 -0.21875q0.078125 -0.0625 0.15625 -0.0625q0.09375 -0.015625 0.171875 0.046875q0.078125 0.0625 0.078125 0.15625q0.015625 0.09375 -0.046875 0.171875q-0.484375 0.4375 -1.21875 0.4375zm3.7795715 -0.03125q-0.359375 0 -0.640625 -0.15625q-0.265625 -0.171875 -0.4375 -0.453125q-0.15625 -0.296875 -0.15625 -0.671875l0 -3.265625q0 -0.109375 0.0625 -0.171875q0.078125 -0.078125 0.1875 -0.078125q0.125 0 0.1875 0.078125q0.078125 0.0625 0.078125 0.171875l0 3.265625q0 0.34375 0.1875 0.5625q0.203125 0.203125 0.53125 0.203125l0.171875 0q0.109375 0 0.171875 0.078125q0.0625 0.078125 0.0625 0.1875q0 0.109375 -0.078125 0.1875q-0.078125 0.0625 -0.203125 0.0625l-0.125 0zm-1.671875 -3.0625q-0.09375 0 -0.15625 -0.0625q-0.0625 -0.0625 -0.0625 -0.15625q0 -0.09375 0.0625 -0.15625q0.0625 -0.0625 0.15625 -0.0625l1.703125 0q0.09375 0 0.15625 0.0625q0.078125 0.0625 0.078125 0.15625q0 0.09375 -0.078125 0.15625q-0.0625 0.0625 -0.15625 0.0625l-1.703125 0zm3.2851562 3.0625q-0.125 0 -0.203125 -0.0625q-0.0625 -0.078125 -0.0625 -0.203125l0 -3.109375q0 -0.125 0.0625 -0.1875q0.078125 -0.078125 0.203125 -0.078125q0.109375 0 0.171875 0.078125q0.078125 0.0625 0.078125 0.1875l0 3.109375q0 0.125 -0.078125 0.203125q-0.0625 0.0625 -0.171875 0.0625zm-0.015625 -4.328125q-0.140625 0 -0.25 -0.109375q-0.109375 -0.109375 -0.109375 -0.265625q0 -0.15625 0.109375 -0.25q0.109375 -0.109375 0.25 -0.109375q0.140625 0 0.25 0.109375q0.109375 0.09375 0.109375 0.25q0 0.15625 -0.109375 0.265625q-0.09375 0.109375 -0.25 0.109375zm2.8142395 4.328125q-0.15625 0 -0.234375 -0.171875l-1.484375 -3.140625q-0.03125 -0.078125 0 -0.15625q0.03125 -0.09375 0.125 -0.140625q0.09375 -0.046875 0.171875 -0.015625q0.09375 0.03125 0.140625 0.125l1.421875 3.0625l-0.28125 0l1.40625 -3.0625q0.03125 -0.09375 0.125 -0.125q0.109375 -0.03125 0.203125 0q0.09375 0.046875 0.125 0.140625q0.03125 0.09375 -0.015625 0.171875l-1.453125 3.140625q-0.078125 0.171875 -0.25 0.171875zm2.8058777 0q-0.125 0 -0.203125 -0.0625q-0.0625 -0.078125 -0.0625 -0.203125l0 -3.109375q0 -0.125 0.0625 -0.1875q0.078125 -0.078125 0.203125 -0.078125q0.109375 0 0.171875 0.078125q0.078125 0.0625 0.078125 0.1875l0 3.109375q0 0.125 -0.078125 0.203125q-0.0625 0.0625 -0.171875 0.0625zm-0.015625 -4.328125q-0.140625 0 -0.25 -0.109375q-0.109375 -0.109375 -0.109375 -0.265625q0 -0.15625 0.109375 -0.25q0.109375 -0.109375 0.25 -0.109375q0.140625 0 0.25 0.109375q0.109375 0.09375 0.109375 0.25q0 0.15625 -0.109375 0.265625q-0.09375 0.109375 -0.25 0.109375zm3.0017395 4.328125q-0.359375 0 -0.640625 -0.15625q-0.265625 -0.171875 -0.4375 -0.453125q-0.15625 -0.296875 -0.15625 -0.671875l0 -3.265625q0 -0.109375 0.0625 -0.171875q0.078125 -0.078125 0.1875 -0.078125q0.125 0 0.1875 0.078125q0.078125 0.0625 0.078125 0.171875l0 3.265625q0 0.34375 0.1875 0.5625q0.203125 0.203125 0.53125 0.203125l0.171875 0q0.109375 0 0.171875 0.078125q0.0625 0.078125 0.0625 0.1875q0 0.109375 -0.078125 0.1875q-0.078125 0.0625 -0.203125 0.0625l-0.125 0zm-1.671875 -3.0625q-0.09375 0 -0.15625 -0.0625q-0.0625 -0.0625 -0.0625 -0.15625q0 -0.09375 0.0625 -0.15625q0.0625 -0.0625 0.15625 -0.0625l1.703125 0q0.09375 0 0.15625 0.0625q0.078125 0.0625 0.078125 0.15625q0 0.09375 -0.078125 0.15625q-0.0625 0.0625 -0.15625 0.0625l-1.703125 0zm3.5351562 4.640625q-0.046875 0 -0.109375 -0.015625q-0.234375 -0.109375 -0.125 -0.328125l2.140625 -4.734375q0.109375 -0.21875 0.328125 -0.125q0.21875 0.09375 0.125 0.3125l-2.15625 4.75q-0.078125 0.140625 -0.203125 0.140625zm0.75 -1.6875q-0.109375 0.046875 -0.203125 0.015625q-0.078125 -0.03125 -0.125 -0.125l-1.484375 -3.078125q-0.046875 -0.109375 -0.015625 -0.1875q0.03125 -0.09375 0.125 -0.140625q0.109375 -0.046875 0.1875 -0.015625q0.09375 0.03125 0.140625 0.140625l1.453125 3.0625q0.0625 0.109375 0.03125 0.203125q-0.015625 0.078125 -0.109375 0.125z" fill-rule="nonzero"/><path fill="#000000" fill-opacity="0.0" d="m38.417324 255.94226l0.4724388 -201.22835" fill-rule="evenodd"/><path stroke="#281e96" stroke-width="4.0" stroke-linejoin="round" stroke-linecap="butt" d="m38.417324 255.94226l0.41609573 -177.22842" fill-rule="evenodd"/><path fill="#281e96" stroke="#281e96" stroke-width="4.0" stroke-linecap="butt" d="m45.44033 78.729355l-6.5642967 -18.16785l-6.6495285 18.13683z" fill-rule="evenodd"/><path fill="#000000" fill-opacity="0.0" d="m38.965878 253.89503l227.84253 -0.06298828" fill-rule="evenodd"/><path stroke="#281e96" stroke-width="4.0" stroke-linejoin="round" stroke-linecap="butt" d="m38.965878 253.89503l203.84251 -0.056350708" fill-rule="evenodd"/><path fill="#281e96" stroke="#281e96" stroke-width="4.0" stroke-linecap="butt" d="m242.81023 260.44562l18.150558 -6.6119537l-18.154205 -6.6019135z" fill-rule="evenodd"/></g></svg>