<svg version="1.1" viewBox="0.0 0.0 288.0 288.0" fill="none" stroke="none" stroke-linecap="square" stroke-miterlimit="10" xmlns:xlink="http://www.w3.org/1999/xlink" xmlns="http://www.w3.org/2000/svg"><clipPath id="ge3b21e0954_2_0.0"><path d="m0 0l288.0 0l0 288.0l-288.0 0l0 -288.0z" clip-rule="nonzero"/></clipPath><g clip-path="url(#ge3b21e0954_2_0.0)"><path fill="#ffffff" d="m0 0l288.0 0l0 288.0l-288.0 0z" fill-rule="evenodd"/><path fill="#ff0000" d="m176.07217 156.43045l-29.71669 -20.321396l29.685196 -19.899078z" fill-rule="evenodd"/><path fill="#000000" fill-opacity="0.0" d="m168.2441 111.27821l50.92914 -0.5984268" fill-rule="evenodd"/><path stroke="#00ffff" stroke-width="8.0" stroke-linejoin="round" stroke-linecap="butt" d="m168.2441 111.27821l50.92914 -0.5984268" fill-rule="evenodd"/><path fill="#000000" fill-opacity="0.0" d="m169.75096 161.88715l49.196854 0" fill-rule="evenodd"/><path stroke="#ffff00" stroke-width="8.0" stroke-linejoin="round" stroke-linecap="butt" d="m169.75096 161.88715l49.196854 0" fill-rule="evenodd"/><path fill="#000000" fill-opacity="0.0" d="m134.44278 136.32805l36.37796 -25.543312" fill-rule="evenodd"/><path stroke="#00ffff" stroke-width="8.0" stroke-linejoin="round" stroke-linecap="butt" d="m134.44278 136.32805l36.37796 -25.543312" fill-rule="evenodd"/><path fill="#000000" fill-opacity="0.0" d="m134.44278 136.32805l36.409454 25.574799" fill-rule="evenodd"/><path stroke="#ffff00" stroke-width="8.0" stroke-linejoin="round" stroke-linecap="butt" d="m134.44278 136.32805l36.409454 25.574799" fill-rule="evenodd"/><path fill="#000000" fill-opacity="0.0" d="m42.56947 136.11679l92.031494 -0.18896484" fill-rule="evenodd"/><path stroke="#00ff00" stroke-width="8.0" stroke-linejoin="round" stroke-linecap="butt" d="m42.56947 136.11679l92.031494 -0.18896484" fill-rule="evenodd"/><path fill="#000000" fill-opacity="0.0" d="m31.553806 35.410763l16.818897 0l0 17.669289l-16.818897 0z" fill-rule="evenodd"/><path fill="#281e96" d="m37.03818 48.37076q-0.15625 0 -0.265625 -0.09375q-0.09375 -0.109375 -0.09375 -0.265625q0 -0.140625 0.09375 -0.25l5.109375 -6.53125q0.078125 -0.0625 0.140625 -0.109375q0.0625 -0.046875 0.15625 -0.046875q0.15625 0 0.25 0.109375q0.109375 0.109375 0.109375 0.265625q0 0.125 -0.0625 0.21875l-5.15625 6.578125q-0.125 0.125 -0.28125 0.125zm0.6875 -3.640625q-0.515625 0 -0.9375 -0.25q-0.40625 -0.25 -0.65625 -0.65625q-0.25 -0.421875 -0.25 -0.921875q0 -0.484375 0.25 -0.90625q0.25 -0.421875 0.65625 -0.671875q0.421875 -0.25 0.9375 -0.25q0.484375 0 0.890625 0.25q0.421875 0.25 0.671875 0.671875q0.25 0.421875 0.25 0.90625q0 0.5 -0.25 0.921875q-0.25 0.40625 -0.671875 0.65625q-0.40625 0.25 -0.890625 0.25zm0 -0.71875q0.296875 0 0.546875 -0.15625q0.25 -0.15625 0.40625 -0.40625q0.15625 -0.25 0.15625 -0.546875q0 -0.3125 -0.15625 -0.5625q-0.15625 -0.25 -0.421875 -0.390625q-0.25 -0.15625 -0.53125 -0.15625q-0.3125 0 -0.5625 0.15625q-0.25 0.140625 -0.40625 0.390625q-0.15625 0.25 -0.15625 0.5625q0 0.296875 0.15625 0.546875q0.15625 0.25 0.40625 0.40625q0.25 0.15625 0.5625 0.15625zm3.765625 4.359375q-0.484375 0 -0.90625 -0.25q-0.40625 -0.25 -0.65625 -0.65625q-0.25 -0.40625 -0.25 -0.90625q0 -0.5 0.25 -0.90625q0.25 -0.421875 0.65625 -0.671875q0.40625 -0.25 0.90625 -0.25q0.515625 0 0.921875 0.25q0.421875 0.234375 0.65625 0.65625q0.25 0.40625 0.25 0.921875q0 0.5 -0.25 0.90625q-0.234375 0.40625 -0.65625 0.65625q-0.40625 0.25 -0.921875 0.25zm0 -0.703125q0.3125 0 0.5625 -0.15625q0.25 -0.15625 0.40625 -0.40625q0.15625 -0.25 0.15625 -0.546875q0 -0.3125 -0.15625 -0.5625q-0.15625 -0.25 -0.421875 -0.390625q-0.25 -0.15625 -0.546875 -0.15625q-0.296875 0 -0.5625 0.15625q-0.25 0.140625 -0.40625 0.390625q-0.140625 0.25 -0.140625 0.5625q0 0.296875 0.140625 0.5625q0.15625 0.25 0.40625 0.40625q0.265625 0.140625 0.5625 0.140625z" fill-rule="nonzero"/><path fill="#000000" fill-opacity="0.0" d="m210.50218 203.79051l36.409454 0l0 17.669281l-36.409454 0z" fill-rule="evenodd"/><path fill="#281e96" d="m217.3303 216.7505q-0.484375 0 -0.875 -0.234375q-0.390625 -0.234375 -0.609375 -0.640625q-0.21875 -0.40625 -0.21875 -0.921875l0 -4.5625q0 -0.15625 0.09375 -0.25q0.09375 -0.109375 0.25 -0.109375q0.15625 0 0.265625 0.109375q0.109375 0.09375 0.109375 0.25l0 4.5625q0 0.46875 0.265625 0.78125q0.28125 0.296875 0.71875 0.296875l0.265625 0q0.140625 0 0.234375 0.109375q0.09375 0.09375 0.09375 0.25q0 0.15625 -0.109375 0.265625q-0.109375 0.09375 -0.28125 0.09375l-0.203125 0zm-2.3125 -4.296875q-0.140625 0 -0.234375 -0.078125q-0.09375 -0.09375 -0.09375 -0.21875q0 -0.140625 0.09375 -0.234375q0.09375 -0.09375 0.234375 -0.09375l2.375 0q0.140625 0 0.234375 0.09375q0.09375 0.09375 0.09375 0.234375q0 0.125 -0.09375 0.21875q-0.09375 0.078125 -0.234375 0.078125l-2.375 0zm4.5936584 4.296875q-0.171875 0 -0.28125 -0.09375q-0.09375 -0.109375 -0.09375 -0.265625l0 -4.375q0 -0.171875 0.09375 -0.265625q0.109375 -0.109375 0.28125 -0.109375q0.15625 0 0.25 0.109375q0.09375 0.09375 0.09375 0.265625l0 4.375q0 0.15625 -0.09375 0.265625q-0.09375 0.09375 -0.25 0.09375zm-0.015625 -6.078125q-0.203125 0 -0.359375 -0.140625q-0.140625 -0.15625 -0.140625 -0.359375q0 -0.234375 0.15625 -0.375q0.15625 -0.140625 0.359375 -0.140625q0.1875 0 0.34375 0.140625q0.15625 0.140625 0.15625 0.375q0 0.203125 -0.15625 0.359375q-0.140625 0.140625 -0.359375 0.140625zm9.086456 6.078125q-0.15625 0 -0.265625 -0.09375q-0.09375 -0.109375 -0.09375 -0.265625l0 -2.6875q0 -0.65625 -0.359375 -1.046875q-0.34375 -0.390625 -0.875 -0.390625q-0.578125 0 -0.953125 0.390625q-0.359375 0.390625 -0.359375 1.03125l-0.640625 0q0.015625 -0.625 0.265625 -1.09375q0.265625 -0.484375 0.71875 -0.734375q0.46875 -0.265625 1.046875 -0.265625q0.546875 0 0.96875 0.265625q0.421875 0.25 0.65625 0.734375q0.25 0.46875 0.25 1.109375l0 2.6875q0 0.15625 -0.109375 0.265625q-0.09375 0.09375 -0.25 0.09375zm-6.53125 0q-0.171875 0 -0.265625 -0.09375q-0.09375 -0.109375 -0.09375 -0.265625l0 -4.375q0 -0.15625 0.09375 -0.265625q0.09375 -0.109375 0.265625 -0.109375q0.15625 0 0.25 0.109375q0.109375 0.109375 0.109375 0.265625l0 4.375q0 0.15625 -0.109375 0.265625q-0.09375 0.09375 -0.25 0.09375zm3.28125 0q-0.171875 0 -0.28125 -0.09375q-0.09375 -0.109375 -0.09375 -0.265625l0 -2.6875q0 -0.65625 -0.34375 -1.046875q-0.34375 -0.390625 -0.890625 -0.390625q-0.578125 0 -0.953125 0.390625q-0.359375 0.375 -0.359375 0.984375l-0.515625 0q0.015625 -0.609375 0.265625 -1.0625q0.25 -0.46875 0.671875 -0.71875q0.4375 -0.265625 0.96875 -0.265625q0.546875 0 0.96875 0.265625q0.4375 0.25 0.671875 0.734375q0.234375 0.46875 0.234375 1.109375l0 2.6875q0 0.15625 -0.09375 0.265625q-0.09375 0.09375 -0.25 0.09375zm7.505615 0.046875q-0.765625 0 -1.34375 -0.328125q-0.578125 -0.328125 -0.921875 -0.921875q-0.328125 -0.59375 -0.328125 -1.34375q0 -0.765625 0.3125 -1.34375q0.3125 -0.59375 0.859375 -0.921875q0.5625 -0.34375 1.28125 -0.34375q0.703125 0 1.234375 0.328125q0.53125 0.328125 0.8125 0.890625q0.296875 0.5625 0.296875 1.296875q0 0.15625 -0.09375 0.25q-0.09375 0.078125 -0.25 0.078125l-3.96875 0l0 -0.59375l4.046875 0l-0.40625 0.28125q0.015625 -0.53125 -0.1875 -0.953125q-0.203125 -0.4375 -0.59375 -0.671875q-0.375 -0.25 -0.890625 -0.25q-0.53125 0 -0.9375 0.25q-0.40625 0.25 -0.625 0.703125q-0.21875 0.4375 -0.21875 1.0q0 0.5625 0.25 1.015625q0.25 0.4375 0.671875 0.6875q0.4375 0.25 1.0 0.25q0.328125 0 0.671875 -0.109375q0.34375 -0.125 0.546875 -0.296875q0.109375 -0.09375 0.234375 -0.09375q0.125 0 0.21875 0.0625q0.125 0.109375 0.125 0.25q0.015625 0.125 -0.109375 0.21875q-0.296875 0.265625 -0.78125 0.4375q-0.46875 0.171875 -0.90625 0.171875z" fill-rule="nonzero"/><path fill="#000000" fill-opacity="0.0" d="m217.66167 94.58268l49.417343 0l0 17.669289l-49.417343 0z" fill-rule="evenodd"/><path fill="#281e96" d="m224.14604 107.54268q-0.125 0 -0.21875 -0.078125q-0.09375 -0.09375 -0.140625 -0.21875l-1.90625 -6.46875q-0.0625 -0.21875 0.015625 -0.359375q0.09375 -0.15625 0.28125 -0.15625q0.125 0 0.21875 0.0625q0.09375 0.0625 0.140625 0.21875l1.734375 6.0l-0.21875 0l1.625 -5.84375q0.03125 -0.109375 0.125 -0.171875q0.109375 -0.0625 0.21875 -0.0625q0.125 0 0.21875 0.0625q0.109375 0.0625 0.125 0.171875l1.65625 5.84375l-0.21875 0l1.734375 -6.046875q0.0625 -0.234375 0.359375 -0.234375q0.1875 0 0.265625 0.15625q0.078125 0.140625 0.015625 0.359375l-1.90625 6.453125q-0.046875 0.15625 -0.140625 0.234375q-0.09375 0.078125 -0.234375 0.078125q-0.125 0 -0.234375 -0.078125q-0.09375 -0.09375 -0.125 -0.21875l-1.625 -5.921875l0.234375 0l-1.625 5.90625q-0.046875 0.140625 -0.140625 0.234375q-0.09375 0.078125 -0.234375 0.078125zm8.332489 0.046875q-0.71875 0 -1.296875 -0.34375q-0.5625 -0.34375 -0.90625 -0.921875q-0.328125 -0.59375 -0.328125 -1.328125q0 -0.75 0.34375 -1.328125q0.34375 -0.59375 0.921875 -0.9375q0.59375 -0.34375 1.328125 -0.34375q0.75 0 1.328125 0.34375q0.578125 0.34375 0.921875 0.9375q0.34375 0.578125 0.34375 1.328125l-0.28125 0.21875q0 0.671875 -0.3125 1.21875q-0.3125 0.53125 -0.859375 0.84375q-0.53125 0.3125 -1.203125 0.3125zm0.0625 -0.65625q0.546875 0 0.96875 -0.25q0.421875 -0.25 0.671875 -0.6875q0.25 -0.453125 0.25 -1.0q0 -0.5625 -0.25 -1.0q-0.25 -0.4375 -0.671875 -0.6875q-0.421875 -0.265625 -0.96875 -0.265625q-0.53125 0 -0.96875 0.265625q-0.421875 0.25 -0.671875 0.6875q-0.25 0.4375 -0.25 1.0q0 0.546875 0.25 1.0q0.25 0.4375 0.671875 0.6875q0.4375 0.25 0.96875 0.25zm2.234375 0.609375q-0.15625 0 -0.265625 -0.09375q-0.09375 -0.109375 -0.09375 -0.265625l0 -1.59375l0.171875 -0.734375l0.546875 0.140625l0 2.1875q0 0.15625 -0.109375 0.265625q-0.09375 0.09375 -0.25 0.09375zm4.018265 0.046875q-0.75 0 -1.3125 -0.328125q-0.5625 -0.328125 -0.890625 -0.921875q-0.328125 -0.59375 -0.328125 -1.34375q0 -0.765625 0.328125 -1.34375q0.34375 -0.59375 0.9375 -0.921875q0.59375 -0.34375 1.328125 -0.34375q0.765625 0 1.34375 0.34375q0.578125 0.328125 0.90625 0.921875q0.34375 0.578125 0.34375 1.34375l-0.421875 0.21875q0 0.703125 -0.296875 1.234375q-0.28125 0.53125 -0.796875 0.84375q-0.5 0.296875 -1.140625 0.296875zm0.09375 1.96875q-0.75 0 -1.3125 -0.28125q-0.546875 -0.265625 -0.921875 -0.75q-0.09375 -0.109375 -0.078125 -0.25q0.015625 -0.125 0.125 -0.203125q0.125 -0.078125 0.265625 -0.0625q0.15625 0.03125 0.25 0.140625q0.265625 0.34375 0.6875 0.546875q0.421875 0.203125 0.984375 0.203125q0.53125 0 0.9375 -0.25q0.421875 -0.25 0.671875 -0.71875q0.25 -0.453125 0.25 -1.0625l0 -1.421875l0.265625 -0.53125l0.4375 0.078125l0 1.90625q0 0.75 -0.34375 1.34375q-0.328125 0.609375 -0.90625 0.953125q-0.578125 0.359375 -1.3125 0.359375zm-0.03125 -2.625q0.5625 0 0.984375 -0.234375q0.421875 -0.25 0.65625 -0.6875q0.25 -0.453125 0.25 -1.015625q0 -0.5625 -0.25 -1.0q-0.234375 -0.453125 -0.65625 -0.703125q-0.421875 -0.25 -0.984375 -0.25q-0.546875 0 -0.984375 0.25q-0.421875 0.25 -0.671875 0.703125q-0.234375 0.4375 -0.234375 1.0q0 0.5625 0.234375 1.015625q0.25 0.4375 0.671875 0.6875q0.4375 0.234375 0.984375 0.234375zm6.31514 0.65625q-0.765625 0 -1.34375 -0.328125q-0.578125 -0.328125 -0.921875 -0.921875q-0.328125 -0.59375 -0.328125 -1.34375q0 -0.765625 0.3125 -1.34375q0.3125 -0.59375 0.859375 -0.921875q0.5625 -0.34375 1.28125 -0.34375q0.703125 0 1.234375 0.328125q0.53125 0.328125 0.8125 0.890625q0.296875 0.5625 0.296875 1.296875q0 0.15625 -0.09375 0.25q-0.09375 0.078125 -0.25 0.078125l-3.96875 0l0 -0.59375l4.046875 0l-0.40625 0.28125q0.015625 -0.53125 -0.1875 -0.953125q-0.203125 -0.4375 -0.59375 -0.671875q-0.375 -0.25 -0.890625 -0.25q-0.53125 0 -0.9375 0.25q-0.40625 0.25 -0.625 0.703125q-0.21875 0.4375 -0.21875 1.0q0 0.5625 0.25 1.015625q0.25 0.4375 0.671875 0.6875q0.4375 0.25 1.0 0.25q0.328125 0 0.671875 -0.109375q0.34375 -0.125 0.546875 -0.296875q0.109375 -0.09375 0.234375 -0.09375q0.125 0 0.21875 0.0625q0.125 0.109375 0.125 0.25q0.015625 0.125 -0.109375 0.21875q-0.296875 0.265625 -0.78125 0.4375q-0.46875 0.171875 -0.90625 0.171875z" fill-rule="nonzero"/><path fill="#281e96" d="m224.75542 118.589554q-0.75 0 -1.3125 -0.328125q-0.5625 -0.328125 -0.890625 -0.921875q-0.328125 -0.59375 -0.328125 -1.34375q0 -0.765625 0.328125 -1.34375q0.34375 -0.59375 0.9375 -0.921875q0.59375 -0.34375 1.328125 -0.34375q0.765625 0 1.34375 0.34375q0.578125 0.328125 0.90625 0.921875q0.34375 0.578125 0.34375 1.34375l-0.421875 0.21875q0 0.703125 -0.296875 1.234375q-0.28125 0.53125 -0.796875 0.84375q-0.5 0.296875 -1.140625 0.296875zm0.09375 1.96875q-0.75 0 -1.3125 -0.28125q-0.546875 -0.265625 -0.921875 -0.75q-0.09375 -0.109375 -0.078125 -0.25q0.015625 -0.125 0.125 -0.203125q0.125 -0.078125 0.265625 -0.0625q0.15625 0.03125 0.25 0.140625q0.265625 0.34375 0.6875 0.546875q0.421875 0.203125 0.984375 0.203125q0.53125 0 0.9375 -0.25q0.421875 -0.25 0.671875 -0.71875q0.25 -0.453125 0.25 -1.0625l0 -1.421875l0.265625 -0.53125l0.4375 0.078125l0 1.90625q0 0.75 -0.34375 1.34375q-0.328125 0.609375 -0.90625 0.953125q-0.578125 0.359375 -1.3125 0.359375zm-0.03125 -2.625q0.5625 0 0.984375 -0.234375q0.421875 -0.25 0.65625 -0.6875q0.25 -0.453125 0.25 -1.015625q0 -0.5625 -0.25 -1.0q-0.234375 -0.453125 -0.65625 -0.703125q-0.421875 -0.25 -0.984375 -0.25q-0.546875 0 -0.984375 0.25q-0.421875 0.25 -0.671875 0.703125q-0.234375 0.4375 -0.234375 1.0q0 0.5625 0.234375 1.015625q0.25 0.4375 0.671875 0.6875q0.4375 0.234375 0.984375 0.234375zm4.299515 -2.53125q0.03125 -0.578125 0.296875 -1.03125q0.28125 -0.46875 0.71875 -0.71875q0.453125 -0.265625 0.984375 -0.265625q0.4375 0 0.671875 0.125q0.234375 0.109375 0.171875 0.34375q-0.03125 0.140625 -0.125 0.1875q-0.09375 0.046875 -0.21875 0.046875q-0.125 -0.015625 -0.28125 -0.03125q-0.53125 -0.046875 -0.9375 0.109375q-0.390625 0.15625 -0.640625 0.484375q-0.234375 0.3125 -0.234375 0.75l-0.40625 0zm0.046875 3.140625q-0.15625 0 -0.25 -0.09375q-0.09375 -0.09375 -0.09375 -0.265625l0 -4.390625q0 -0.171875 0.09375 -0.265625q0.09375 -0.09375 0.25 -0.09375q0.171875 0 0.265625 0.09375q0.09375 0.09375 0.09375 0.265625l0 4.390625q0 0.171875 -0.09375 0.265625q-0.09375 0.09375 -0.265625 0.09375zm5.867691 0.046875q-0.734375 0 -1.328125 -0.328125q-0.59375 -0.34375 -0.9375 -0.921875q-0.328125 -0.59375 -0.328125 -1.34375q0 -0.75 0.328125 -1.34375q0.34375 -0.59375 0.9375 -0.921875q0.59375 -0.34375 1.328125 -0.34375q0.75 0 1.328125 0.34375q0.59375 0.328125 0.921875 0.921875q0.34375 0.59375 0.34375 1.34375q0 0.75 -0.34375 1.34375q-0.328125 0.578125 -0.921875 0.921875q-0.578125 0.328125 -1.328125 0.328125zm0 -0.65625q0.546875 0 0.96875 -0.25q0.4375 -0.25 0.671875 -0.6875q0.25 -0.4375 0.25 -1.0q0 -0.5625 -0.25 -1.0q-0.234375 -0.453125 -0.671875 -0.703125q-0.421875 -0.25 -0.96875 -0.25q-0.53125 0 -0.96875 0.25q-0.421875 0.25 -0.671875 0.703125q-0.25 0.4375 -0.25 1.0q0 0.5625 0.25 1.0q0.25 0.4375 0.671875 0.6875q0.4375 0.25 0.96875 0.25zm4.878891 0.609375q-0.125 0 -0.21875 -0.0625q-0.09375 -0.0625 -0.125 -0.171875l-1.453125 -4.359375q-0.0625 -0.234375 0 -0.375q0.0625 -0.140625 0.265625 -0.140625q0.125 0 0.21875 0.078125q0.09375 0.0625 0.140625 0.203125l1.296875 3.953125l-0.21875 0l1.203125 -3.953125q0.046875 -0.109375 0.125 -0.1875q0.09375 -0.09375 0.234375 -0.09375q0.140625 0 0.21875 0.078125q0.09375 0.078125 0.140625 0.203125l1.140625 3.875l-0.15625 0l1.265625 -3.875q0.09375 -0.28125 0.34375 -0.28125q0.203125 0 0.28125 0.15625q0.078125 0.15625 0 0.359375l-1.453125 4.359375q-0.03125 0.109375 -0.125 0.171875q-0.09375 0.0625 -0.203125 0.0625q-0.125 0 -0.234375 -0.0625q-0.09375 -0.0625 -0.109375 -0.171875l-1.1875 -3.890625l0.109375 0l-1.171875 3.890625q-0.03125 0.109375 -0.125 0.171875q-0.09375 0.0625 -0.203125 0.0625zm7.730942 0q-0.484375 0 -0.875 -0.234375q-0.390625 -0.234375 -0.609375 -0.640625q-0.21875 -0.40625 -0.21875 -0.921875l0 -4.5625q0 -0.15625 0.09375 -0.25q0.09375 -0.109375 0.25 -0.109375q0.15625 0 0.265625 0.109375q0.109375 0.09375 0.109375 0.25l0 4.5625q0 0.46875 0.265625 0.78125q0.28125 0.296875 0.71875 0.296875l0.265625 0q0.140625 0 0.234375 0.109375q0.09375 0.09375 0.09375 0.25q0 0.15625 -0.109375 0.265625q-0.109375 0.09375 -0.28125 0.09375l-0.203125 0zm-2.3125 -4.296875q-0.140625 0 -0.234375 -0.078125q-0.09375 -0.09375 -0.09375 -0.21875q0 -0.140625 0.09375 -0.234375q0.09375 -0.09375 0.234375 -0.09375l2.375 0q0.140625 0 0.234375 0.09375q0.09375 0.09375 0.09375 0.234375q0 0.125 -0.09375 0.21875q-0.09375 0.078125 -0.234375 0.078125l-2.375 0zm8.453033 4.296875q-0.15625 0 -0.265625 -0.09375q-0.109375 -0.109375 -0.109375 -0.265625l0 -2.421875q0 -0.578125 -0.21875 -0.953125q-0.21875 -0.375 -0.59375 -0.5625q-0.375 -0.1875 -0.84375 -0.1875q-0.46875 0 -0.84375 0.1875q-0.359375 0.171875 -0.578125 0.484375q-0.203125 0.3125 -0.203125 0.703125l-0.515625 0q0.015625 -0.59375 0.3125 -1.046875q0.296875 -0.46875 0.796875 -0.734375q0.5 -0.265625 1.09375 -0.265625q0.671875 0 1.1875 0.28125q0.53125 0.265625 0.828125 0.796875q0.296875 0.53125 0.296875 1.296875l0 2.421875q0 0.15625 -0.109375 0.265625q-0.09375 0.09375 -0.234375 0.09375zm-4.015625 0q-0.171875 0 -0.265625 -0.09375q-0.09375 -0.109375 -0.09375 -0.265625l0 -4.375q0 -0.171875 0.09375 -0.265625q0.09375 -0.109375 0.265625 -0.109375q0.15625 0 0.25 0.109375q0.109375 0.09375 0.109375 0.265625l0 4.375q0 0.15625 -0.109375 0.265625q-0.09375 0.09375 -0.25 0.09375zm0 -2.078125q-0.171875 0 -0.265625 -0.09375q-0.09375 -0.109375 -0.09375 -0.265625l0 -4.484375q0 -0.171875 0.09375 -0.265625q0.09375 -0.09375 0.265625 -0.09375q0.15625 0 0.25 0.09375q0.109375 0.09375 0.109375 0.265625l0 4.484375q0 0.15625 -0.109375 0.265625q-0.09375 0.09375 -0.25 0.09375z" fill-rule="nonzero"/><path fill="#000000" fill-opacity="0.0" d="m219.17087 151.72179l49.417328 0l0 17.669296l-49.417328 0z" fill-rule="evenodd"/><path fill="#281e96" d="m227.374 164.77553q-0.75 0 -1.40625 -0.28125q-0.65625 -0.296875 -1.15625 -0.8125q-0.5 -0.515625 -0.78125 -1.1875q-0.28125 -0.6875 -0.28125 -1.453125q0 -0.765625 0.265625 -1.4375q0.28125 -0.6875 0.78125 -1.203125q0.5 -0.515625 1.15625 -0.796875q0.65625 -0.296875 1.421875 -0.296875q0.671875 0 1.21875 0.203125q0.5625 0.1875 1.078125 0.609375q0.078125 0.0625 0.09375 0.15625q0.015625 0.09375 -0.03125 0.171875q-0.03125 0.078125 -0.109375 0.109375q-0.015625 0.078125 -0.09375 0.125q-0.078125 0.03125 -0.171875 0.03125q-0.09375 -0.015625 -0.1875 -0.09375q-0.359375 -0.3125 -0.796875 -0.46875q-0.421875 -0.15625 -1.0 -0.15625q-0.609375 0 -1.140625 0.25q-0.515625 0.234375 -0.921875 0.65625q-0.390625 0.421875 -0.625 0.96875q-0.234375 0.546875 -0.234375 1.171875q0 0.625 0.234375 1.1875q0.234375 0.546875 0.625 0.96875q0.40625 0.40625 0.921875 0.65625q0.53125 0.234375 1.140625 0.234375q0.515625 0 0.96875 -0.171875q0.46875 -0.171875 0.875 -0.484375q0.109375 -0.09375 0.234375 -0.078125q0.125 0.015625 0.21875 0.109375q0.09375 0.09375 0.09375 0.25q0 0.078125 -0.03125 0.140625q-0.015625 0.046875 -0.0625 0.125q-0.484375 0.4375 -1.078125 0.625q-0.578125 0.171875 -1.21875 0.171875zm4.285736 -0.09375q-0.15625 0 -0.265625 -0.09375q-0.09375 -0.109375 -0.09375 -0.265625l0 -6.5625q0 -0.15625 0.09375 -0.25q0.109375 -0.109375 0.265625 -0.109375l1.859375 0q0.703125 0 1.234375 0.3125q0.53125 0.296875 0.828125 0.828125q0.296875 0.53125 0.296875 1.21875q0 0.6875 -0.296875 1.21875q-0.296875 0.515625 -0.828125 0.828125q-0.53125 0.296875 -1.234375 0.296875l-1.5 0l0 2.21875q0 0.15625 -0.109375 0.265625q-0.09375 0.09375 -0.25 0.09375zm0.359375 -3.28125l1.5 0q0.484375 0 0.859375 -0.203125q0.375 -0.203125 0.578125 -0.578125q0.203125 -0.375 0.203125 -0.859375q0 -0.484375 -0.203125 -0.859375q-0.203125 -0.375 -0.578125 -0.578125q-0.375 -0.21875 -0.859375 -0.21875l-1.5 0l0 3.296875zm5.3494415 3.28125q-0.15625 0 -0.265625 -0.09375q-0.09375 -0.109375 -0.09375 -0.265625l0 -6.5625q0 -0.15625 0.09375 -0.25q0.109375 -0.109375 0.265625 -0.109375q0.15625 0 0.25 0.109375q0.109375 0.09375 0.109375 0.25l0 6.5625q0 0.15625 -0.109375 0.265625q-0.09375 0.09375 -0.25 0.09375z" fill-rule="nonzero"/><path fill="#000000" fill-opacity="0.0" d="m37.712597 216.93788l1.1653557 -162.20473" fill-rule="evenodd"/><path stroke="#281e96" stroke-width="4.0" stroke-linejoin="round" stroke-linecap="butt" d="m37.712597 216.9379l0.99293137 -138.20535" fill-rule="evenodd"/><path fill="#281e96" stroke="#281e96" stroke-width="4.0" stroke-linecap="butt" d="m45.31229 78.78001l-6.476349 -18.199387l-6.737171 18.104454z" fill-rule="evenodd"/><path fill="#000000" fill-opacity="0.0" d="m37.71391 214.94781l172.7874 0.15748596" fill-rule="evenodd"/><path stroke="#281e96" stroke-width="4.0" stroke-linejoin="round" stroke-linecap="butt" d="m37.71391 214.94781l148.78741 0.13560486" fill-rule="evenodd"/><path fill="#281e96" stroke="#281e96" stroke-width="4.0" stroke-linecap="butt" d="m186.4953 221.69035l18.158401 -6.590393l-18.146362 -6.623474z" fill-rule="evenodd"/><path fill="#00ff00" d="m133.93176 132.07874l8.755905 3.7795258l-8.755905 3.7795258z" fill-rule="evenodd"/><path stroke="#00ff00" stroke-width="1.0" stroke-linejoin="round" stroke-linecap="butt" d="m133.93176 132.07874l8.755905 3.7795258l-8.755905 3.7795258z" fill-rule="evenodd"/></g></svg>