<svg version="1.1" viewBox="0.0 0.0 576.0 576.0" fill="none" stroke="none" stroke-linecap="square" stroke-miterlimit="10" xmlns:xlink="http://www.w3.org/1999/xlink" xmlns="http://www.w3.org/2000/svg"><clipPath id="p.0"><path d="m0 0l576.0 0l0 576.0l-576.0 0l0 -576.0z" clip-rule="nonzero"/></clipPath><g clip-path="url(#p.0)"><path fill="#ffffff" d="m0 0l576.0 0l0 576.0l-576.0 0z" fill-rule="evenodd"/><path fill="#000000" fill-opacity="0.0" d="m269.60892 291.13123l0 73.35434" fill-rule="evenodd"/><path stroke="#e69138" stroke-width="4.0" stroke-linejoin="round" stroke-linecap="butt" d="m269.60892 291.13123l0 73.35434" fill-rule="evenodd"/><path fill="#000000" fill-opacity="0.0" d="m208.76115 333.78217l61.228348 -43.212616" fill-rule="evenodd"/><path stroke="#e69138" stroke-width="4.0" stroke-linejoin="round" stroke-linecap="butt" d="m208.76115 333.78217l61.228348 -43.212616" fill-rule="evenodd"/><path fill="#000000" fill-opacity="0.0" d="m201.13503 282.535l69.25984 8.0" fill-rule="evenodd"/><path stroke="#e69138" stroke-width="4.0" stroke-linejoin="round" stroke-linecap="butt" d="m201.13503 282.535l69.25984 8.0" fill-rule="evenodd"/><path fill="#000000" fill-opacity="0.0" d="m270.0 110.15223l-0.56692505 172.69293" fill-rule="evenodd"/><path stroke="#efefef" stroke-width="4.0" stroke-linejoin="round" stroke-linecap="butt" d="m270.0 110.15223l-0.56692505 172.69293" fill-rule="evenodd"/><path fill="#9900ff" d="m262.86328 108.924576l0 0c0 -4.1399612 3.2432861 -7.496063 7.24411 -7.496063l0 0c1.9212341 0 3.7638245 0.7897644 5.122345 2.195549c1.3585205 1.4057846 2.1217346 3.312439 2.1217346 5.300514l0 0c0 4.1399612 -3.2432861 7.496063 -7.2440796 7.496063l0 0c-4.000824 0 -7.24411 -3.356102 -7.24411 -7.496063z" fill-rule="evenodd"/><path fill="#000000" fill-opacity="0.0" d="m270.19662 290.34714l140.28348 -0.3779297" fill-rule="evenodd"/><path stroke="#cccccc" stroke-width="4.0" stroke-linejoin="round" stroke-linecap="butt" d="m270.19662 290.34714l140.28348 -0.3779297" fill-rule="evenodd"/><path fill="#0000ff" d="m196.5684 286.0999l0 0c-1.7133789 -2.348297 -1.1140747 -5.7114563 1.3385925 -7.5118103l0 0c1.1778107 -0.864563 2.6342316 -1.245758 4.048874 -1.0596924c1.4146423 0.18606567 2.6716309 0.9241333 3.4944305 2.0518188l0 0c1.7133789 2.348297 1.1140747 5.7114563 -1.3385773 7.5118103l0 0c-2.4526672 1.800354 -5.8299255 1.3561707 -7.5433197 -0.99212646z" fill-rule="evenodd"/><path fill="#0000ff" d="m203.6411 337.044l0 0c-1.6351166 -2.4004822 -0.92300415 -5.735443 1.5905457 -7.448822l0 0c1.2070465 -0.8227844 2.6765747 -1.1539612 4.085312 -0.9206543c1.4087524 0.23330688 2.6412964 1.0119934 3.4264984 2.1647644l0 0c1.6351166 2.4004822 0.92300415 5.7354126 -1.5905457 7.4487915l0 0c-2.5135498 1.7134094 -5.876709 1.1564026 -7.5118103 -1.2440796z" fill-rule="evenodd"/><path fill="#0000ff" d="m263.90546 364.4567l0 0c0 -2.9049377 2.467743 -5.259857 5.5118103 -5.259857l0 0c1.4618225 0 2.8638 0.5541687 3.897461 1.5405884c1.0336609 0.9864197 1.6143494 2.3242798 1.6143494 3.7192688l0 0c0 2.9049377 -2.4677124 5.2598267 -5.5118103 5.2598267l0 0c-3.0440674 0 -5.5118103 -2.354889 -5.5118103 -5.2598267z" fill-rule="evenodd"/><path fill="#9900ff" d="m262.17438 290.346l0 0c0 -4.1399536 3.2433167 -7.496063 7.24411 -7.496063l0 0c1.9212646 0 3.7638245 0.7897644 5.122345 2.1955566c1.3585205 1.4057922 2.1217346 3.312439 2.1217346 5.3005066l0 0c0 4.1399536 -3.2432861 7.496063 -7.2440796 7.496063l0 0c-4.0007935 0 -7.24411 -3.3561096 -7.24411 -7.496063z" fill-rule="evenodd"/><path fill="#9900ff" d="m402.3226 290.34714l0 0c0 -4.1399536 3.2432861 -7.496063 7.24411 -7.496063l0 0c1.9212341 0 3.763794 0.7897644 5.122345 2.1955566c1.3585205 1.4057922 2.1217346 3.312439 2.1217346 5.3005066l0 0c0 4.139984 -3.2432861 7.496063 -7.2440796 7.496063l0 0c-4.000824 0 -7.24411 -3.356079 -7.24411 -7.496063z" fill-rule="evenodd"/><path fill="#9fc5e8" d="m333.9803 290.34647l0 0c0 -2.9049377 2.4677124 -5.259857 5.5118103 -5.259857l0 0c1.4618225 0 2.8637695 0.5541687 3.8974304 1.5405884c1.0336609 0.98638916 1.6143799 2.3242493 1.6143799 3.7192688l0 0c0 2.9049072 -2.467743 5.2598267 -5.5118103 5.2598267l0 0c-3.044098 0 -5.5118103 -2.3549194 -5.5118103 -5.2598267z" fill-rule="evenodd"/><path fill="#0000ff" d="m8.133859 512.03674l0 0c0 -2.9049377 2.467721 -5.2598267 5.5118103 -5.2598267l0 0c1.4618235 0 2.8637743 0.5541382 3.897439 1.5405579c1.0336647 0.9864197 1.6143723 2.3242798 1.6143723 3.7192688l0 0c0 2.9049072 -2.467722 5.2598267 -5.5118113 5.2598267l0 0c-3.0440893 0 -5.5118103 -2.3549194 -5.5118103 -5.2598267z" fill-rule="evenodd"/><path fill="#9900ff" d="m6.4015746 481.22604l0 0c0 -4.139984 3.2432914 -7.496063 7.2440944 -7.496063l0 0c1.9212532 0 3.7638178 0.7897644 5.122348 2.1955261c1.358532 1.4057922 2.121746 3.312439 2.121746 5.300537l0 0c0 4.1399536 -3.24329 7.496063 -7.244094 7.496063l0 0c-4.000803 0 -7.2440944 -3.3561096 -7.2440944 -7.496063z" fill-rule="evenodd"/><path fill="#000000" fill-opacity="0.0" d="m16.832022 466.4141l205.13387 0l0 35.307068l-205.13387 0z" fill-rule="evenodd"/><path fill="#000000" d="m26.363272 484.37408q-0.21875 0 -0.3125 -0.171875q-0.09375 -0.1875 -0.015625 -0.34375l2.75 -6.515625q0.09375 -0.25 0.34375 -0.25q0.25 0 0.34375 0.25l2.765623 6.515625q0.078125 0.1875 -0.03125 0.359375q-0.109375 0.15625 -0.2968731 0.15625q-0.125 0 -0.21875 -0.046875q-0.078125 -0.0625 -0.125 -0.171875l-2.578125 -6.234375l0.296875 0l-2.578125 6.234375q-0.046875 0.109375 -0.140625 0.171875q-0.09375 0.046875 -0.203125 0.046875zm0.609375 -1.734375l0.28125 -0.625l3.796875 0l0.28125 0.625l-4.359375 0zm8.042051 1.78125q-0.546875 0 -1.09375 -0.1875q-0.546875 -0.1875 -0.875 -0.5625q-0.109375 -0.109375 -0.09375 -0.25q0.03125 -0.140625 0.140625 -0.234375q0.140625 -0.09375 0.28125 -0.078125q0.140625 0.015625 0.234375 0.125q0.21875 0.25 0.578125 0.390625q0.375 0.140625 0.828125 0.140625q0.6875 0 0.984375 -0.234375q0.3125 -0.234375 0.328125 -0.578125q0 -0.328125 -0.328125 -0.546875q-0.3125 -0.21875 -1.03125 -0.34375q-0.953125 -0.15625 -1.390625 -0.515625q-0.4375 -0.375 -0.4375 -0.890625q0 -0.484375 0.25 -0.796875q0.265625 -0.3125 0.671875 -0.46875q0.421875 -0.171875 0.9375 -0.171875q0.625 0 1.0625 0.21875q0.453125 0.21875 0.734375 0.578125q0.09375 0.125 0.078125 0.265625q-0.015625 0.125 -0.140625 0.203125q-0.125 0.0625 -0.265625 0.046875q-0.140625 -0.03125 -0.25 -0.140625q-0.234375 -0.265625 -0.546875 -0.390625q-0.296875 -0.125 -0.703125 -0.125q-0.5 0 -0.8125 0.21875q-0.3125 0.203125 -0.3125 0.515625q0 0.21875 0.109375 0.375q0.125 0.15625 0.40625 0.28125q0.28125 0.109375 0.796875 0.203125q0.703125 0.109375 1.109375 0.328125q0.40625 0.21875 0.578125 0.515625q0.171875 0.296875 0.171875 0.640625q0 0.4375 -0.265625 0.765625q-0.25 0.328125 -0.703125 0.515625q-0.453125 0.1875 -1.03125 0.1875zm5.0278625 0q-0.546875 0 -1.09375 -0.1875q-0.546875 -0.1875 -0.875 -0.5625q-0.109375 -0.109375 -0.09375 -0.25q0.03125 -0.140625 0.140625 -0.234375q0.140625 -0.09375 0.28125 -0.078125q0.140625 0.015625 0.234375 0.125q0.21875 0.25 0.578125 0.390625q0.375 0.140625 0.828125 0.140625q0.6875 0 0.984375 -0.234375q0.3125 -0.234375 0.328125 -0.578125q0 -0.328125 -0.328125 -0.546875q-0.3125 -0.21875 -1.03125 -0.34375q-0.953125 -0.15625 -1.390625 -0.515625q-0.4375 -0.375 -0.4375 -0.890625q0 -0.484375 0.25 -0.796875q0.265625 -0.3125 0.671875 -0.46875q0.421875 -0.171875 0.9375 -0.171875q0.625 0 1.0625 0.21875q0.453125 0.21875 0.734375 0.578125q0.09375 0.125 0.078125 0.265625q-0.015625 0.125 -0.140625 0.203125q-0.125 0.0625 -0.265625 0.046875q-0.140625 -0.03125 -0.25 -0.140625q-0.234375 -0.265625 -0.546875 -0.390625q-0.296875 -0.125 -0.703125 -0.125q-0.5 0 -0.8125 0.21875q-0.3125 0.203125 -0.3125 0.515625q0 0.21875 0.109375 0.375q0.125 0.15625 0.40625 0.28125q0.28125 0.109375 0.796875 0.203125q0.703125 0.109375 1.109375 0.328125q0.40625 0.21875 0.578125 0.515625q0.171875 0.296875 0.171875 0.640625q0 0.4375 -0.265625 0.765625q-0.25 0.328125 -0.703125 0.515625q-0.453125 0.1875 -1.03125 0.1875zm5.5591125 0q-0.765625 0 -1.34375 -0.328125q-0.578125 -0.328125 -0.921875 -0.921875q-0.328125 -0.59375 -0.328125 -1.34375q0 -0.765625 0.3125 -1.34375q0.3125 -0.59375 0.859375 -0.921875q0.5625 -0.34375 1.28125 -0.34375q0.703125 0 1.234375 0.328125q0.53125 0.328125 0.8125 0.890625q0.296875 0.5625 0.296875 1.296875q0 0.15625 -0.09375 0.25q-0.09375 0.078125 -0.25 0.078125l-3.96875 0l0 -0.59375l4.046875 0l-0.40625 0.28125q0.015625 -0.53125 -0.1875 -0.953125q-0.203125 -0.4375 -0.59375 -0.671875q-0.375 -0.25 -0.890625 -0.25q-0.53125 0 -0.9375 0.25q-0.40625 0.25 -0.625 0.703125q-0.21875 0.4375 -0.21875 1.0q0 0.5625 0.25 1.015625q0.25 0.4375 0.671875 0.6875q0.4375 0.25 1.0 0.25q0.328125 0 0.671875 -0.109375q0.34375 -0.125 0.546875 -0.296875q0.109375 -0.09375 0.234375 -0.09375q0.125 0 0.21875 0.0625q0.125 0.109375 0.125 0.25q0.015625 0.125 -0.109375 0.21875q-0.296875 0.265625 -0.78125 0.4375q-0.46875 0.171875 -0.90625 0.171875zm5.399338 -0.046875q-0.484375 0 -0.875 -0.234375q-0.390625 -0.234375 -0.609375 -0.640625q-0.21875 -0.40625 -0.21875 -0.921875l0 -4.5625q0 -0.15625 0.09375 -0.25q0.09375 -0.109375 0.25 -0.109375q0.15625 0 0.265625 0.109375q0.109375 0.09375 0.109375 0.25l0 4.5625q0 0.46875 0.265625 0.78125q0.28125 0.296875 0.71875 0.296875l0.265625 0q0.140625 0 0.234375 0.109375q0.09375 0.09375 0.09375 0.25q0 0.15625 -0.109375 0.265625q-0.109375 0.09375 -0.28125 0.09375l-0.203125 0zm-2.3125 -4.296875q-0.140625 0 -0.234375 -0.078125q-0.09375 -0.09375 -0.09375 -0.21875q0 -0.140625 0.09375 -0.234375q0.09375 -0.09375 0.234375 -0.09375l2.375 0q0.140625 0 0.234375 0.09375q0.09375 0.09375 0.09375 0.234375q0 0.125 -0.09375 0.21875q-0.09375 0.078125 -0.234375 0.078125l-2.375 0zm5.8592834 4.34375q-0.546875 0 -1.09375 -0.1875q-0.546875 -0.1875 -0.875 -0.5625q-0.109375 -0.109375 -0.09375 -0.25q0.03125 -0.140625 0.140625 -0.234375q0.140625 -0.09375 0.28125 -0.078125q0.140625 0.015625 0.234375 0.125q0.21875 0.25 0.578125 0.390625q0.375 0.140625 0.828125 0.140625q0.6875 0 0.984375 -0.234375q0.3125 -0.234375 0.328125 -0.578125q0 -0.328125 -0.328125 -0.546875q-0.3125 -0.21875 -1.03125 -0.34375q-0.953125 -0.15625 -1.390625 -0.515625q-0.4375 -0.375 -0.4375 -0.890625q0 -0.484375 0.25 -0.796875q0.265625 -0.3125 0.671875 -0.46875q0.421875 -0.171875 0.9375 -0.171875q0.625 0 1.0625 0.21875q0.453125 0.21875 0.734375 0.578125q0.09375 0.125 0.078125 0.265625q-0.015625 0.125 -0.140625 0.203125q-0.125 0.0625 -0.265625 0.046875q-0.140625 -0.03125 -0.25 -0.140625q-0.234375 -0.265625 -0.546875 -0.390625q-0.296875 -0.125 -0.703125 -0.125q-0.5 0 -0.8125 0.21875q-0.3125 0.203125 -0.3125 0.515625q0 0.21875 0.109375 0.375q0.125 0.15625 0.40625 0.28125q0.28125 0.109375 0.796875 0.203125q0.703125 0.109375 1.109375 0.328125q0.40625 0.21875 0.578125 0.515625q0.171875 0.296875 0.171875 0.640625q0 0.4375 -0.265625 0.765625q-0.25 0.328125 -0.703125 0.515625q-0.453125 0.1875 -1.03125 0.1875zm3.1528625 1.46875q-0.09375 0 -0.140625 -0.0625q-0.046875 -0.046875 -0.046875 -0.125q0 -0.140625 0.078125 -0.265625q0.09375 -0.109375 0.171875 -0.25q0.09375 -0.125 0.09375 -0.3125q0 -0.171875 -0.0625 -0.28125q-0.0625 -0.109375 -0.15625 -0.203125q-0.09375 -0.078125 -0.15625 -0.1875q-0.0625 -0.109375 -0.0625 -0.265625q0 -0.234375 0.15625 -0.375q0.15625 -0.140625 0.375 -0.140625q0.28125 0 0.453125 0.21875q0.1875 0.21875 0.1875 0.609375q0 0.265625 -0.078125 0.546875q-0.0625 0.296875 -0.203125 0.546875q-0.125 0.25 -0.28125 0.390625q-0.15625 0.15625 -0.328125 0.15625zm5.2944183 0.671875q-0.171875 0 -0.265625 -0.109375q-0.09375 -0.09375 -0.09375 -0.265625l0 -4.390625q0 -0.734375 0.34375 -1.3125q0.34375 -0.59375 0.921875 -0.921875q0.5937538 -0.34375 1.3125038 -0.34375q0.75 0 1.328125 0.34375q0.59375 0.34375 0.9375 0.9375q0.34375 0.578125 0.34375 1.328125q0 0.734375 -0.34375 1.328125q-0.328125 0.578125 -0.90625 0.921875q-0.5625 0.34375 -1.28125 0.34375q-0.625 0 -1.140625 -0.265625q-0.5000038 -0.265625 -0.7968788 -0.703125l0 2.734375q0 0.171875 -0.109375 0.265625q-0.09375 0.109375 -0.25 0.109375zm2.2187538 -2.796875q0.546875 0 0.96875 -0.25q0.4375 -0.25 0.671875 -0.6875q0.25 -0.453125 0.25 -1.0q0 -0.5625 -0.25 -1.0q-0.234375 -0.4375 -0.671875 -0.6875q-0.421875 -0.265625 -0.96875 -0.265625q-0.53125 0 -0.96875 0.265625q-0.4218788 0.25 -0.6718788 0.6875q-0.234375 0.4375 -0.234375 1.0q0 0.546875 0.234375 1.0q0.25 0.4375 0.6718788 0.6875q0.4375 0.25 0.96875 0.25zm4.313736 -2.53125q0.03125 -0.578125 0.296875 -1.03125q0.28125 -0.46875 0.71875 -0.71875q0.453125 -0.265625 0.984375 -0.265625q0.4375 0 0.671875 0.125q0.234375 0.109375 0.171875 0.34375q-0.03125 0.140625 -0.125 0.1875q-0.09375 0.046875 -0.21875 0.046875q-0.125 -0.015625 -0.28125 -0.03125q-0.53125 -0.046875 -0.9375 0.109375q-0.390625 0.15625 -0.640625 0.484375q-0.234375 0.3125 -0.234375 0.75l-0.40625 0zm0.046875 3.140625q-0.15625 0 -0.25 -0.09375q-0.09375 -0.09375 -0.09375 -0.265625l0 -4.390625q0 -0.171875 0.09375 -0.265625q0.09375 -0.09375 0.25 -0.09375q0.171875 0 0.265625 0.09375q0.09375 0.09375 0.09375 0.265625l0 4.390625q0 0.171875 -0.09375 0.265625q-0.09375 0.09375 -0.265625 0.09375zm5.867691 0.046875q-0.734375 0 -1.328125 -0.328125q-0.59375 -0.34375 -0.9375 -0.921875q-0.328125 -0.59375 -0.328125 -1.34375q0 -0.75 0.328125 -1.34375q0.34375 -0.59375 0.9375 -0.921875q0.59375 -0.34375 1.328125 -0.34375q0.75 0 1.328125 0.34375q0.59375 0.328125 0.921875 0.921875q0.34375 0.59375 0.34375 1.34375q0 0.75 -0.34375 1.34375q-0.328125 0.578125 -0.921875 0.921875q-0.578125 0.328125 -1.328125 0.328125zm0 -0.65625q0.546875 0 0.96875 -0.25q0.4375 -0.25 0.671875 -0.6875q0.25 -0.4375 0.25 -1.0q0 -0.5625 -0.25 -1.0q-0.234375 -0.453125 -0.671875 -0.703125q-0.421875 -0.25 -0.96875 -0.25q-0.53125 0 -0.96875 0.25q-0.421875 0.25 -0.671875 0.703125q-0.25 0.4375 -0.25 1.0q0 0.5625 0.25 1.0q0.25 0.4375 0.671875 0.6875q0.4375 0.25 0.96875 0.25zm6.268265 0.65625q-0.734375 0 -1.3125 -0.34375q-0.5625 -0.34375 -0.90625 -0.921875q-0.328125 -0.59375 -0.328125 -1.328125q0 -0.75 0.3125 -1.328125q0.328125 -0.59375 0.875 -0.9375q0.546875 -0.34375 1.265625 -0.34375q0.578125 0 1.046875 0.234375q0.484375 0.21875 0.859375 0.671875q0.09375 0.109375 0.0625 0.234375q-0.015625 0.125 -0.15625 0.21875q-0.09375 0.078125 -0.21875 0.0625q-0.125 -0.03125 -0.21875 -0.140625q-0.546875 -0.625 -1.375 -0.625q-0.515625 0 -0.921875 0.25q-0.390625 0.25 -0.609375 0.703125q-0.21875 0.4375 -0.21875 1.0q0 0.5625 0.234375 1.0q0.234375 0.4375 0.65625 0.6875q0.421875 0.25 0.953125 0.25q0.375 0 0.671875 -0.09375q0.296875 -0.09375 0.53125 -0.296875q0.125 -0.09375 0.234375 -0.109375q0.125 -0.015625 0.234375 0.078125q0.109375 0.09375 0.125 0.234375q0.015625 0.125 -0.09375 0.21875q-0.6875 0.625 -1.703125 0.625zm5.6064453 0q-0.765625 0 -1.34375 -0.328125q-0.578125 -0.328125 -0.921875 -0.921875q-0.328125 -0.59375 -0.328125 -1.34375q0 -0.765625 0.3125 -1.34375q0.3125 -0.59375 0.859375 -0.921875q0.5625 -0.34375 1.28125 -0.34375q0.703125 0 1.234375 0.328125q0.53125 0.328125 0.8125 0.890625q0.296875 0.5625 0.296875 1.296875q0 0.15625 -0.09375 0.25q-0.09375 0.078125 -0.25 0.078125l-3.96875 0l0 -0.59375l4.046875 0l-0.40625 0.28125q0.015625 -0.53125 -0.1875 -0.953125q-0.203125 -0.4375 -0.59375 -0.671875q-0.375 -0.25 -0.890625 -0.25q-0.53125 0 -0.9375 0.25q-0.40625 0.25 -0.625 0.703125q-0.21875 0.4375 -0.21875 1.0q0 0.5625 0.25 1.015625q0.25 0.4375 0.671875 0.6875q0.4375 0.25 1.0 0.25q0.328125 0 0.671875 -0.109375q0.34375 -0.125 0.546875 -0.296875q0.109375 -0.09375 0.234375 -0.09375q0.125 0 0.21875 0.0625q0.125 0.109375 0.125 0.25q0.015625 0.125 -0.109375 0.21875q-0.296875 0.265625 -0.78125 0.4375q-0.46875 0.171875 -0.90625 0.171875zm5.196213 0q-0.546875 0 -1.09375 -0.1875q-0.546875 -0.1875 -0.875 -0.5625q-0.109375 -0.109375 -0.09375 -0.25q0.03125 -0.140625 0.140625 -0.234375q0.140625 -0.09375 0.28125 -0.078125q0.140625 0.015625 0.234375 0.125q0.21875 0.25 0.578125 0.390625q0.375 0.140625 0.828125 0.140625q0.6875 0 0.984375 -0.234375q0.3125 -0.234375 0.328125 -0.578125q0 -0.328125 -0.328125 -0.546875q-0.3125 -0.21875 -1.03125 -0.34375q-0.953125 -0.15625 -1.390625 -0.515625q-0.4375 -0.375 -0.4375 -0.890625q0 -0.484375 0.25 -0.796875q0.265625 -0.3125 0.671875 -0.46875q0.421875 -0.171875 0.9375 -0.171875q0.625 0 1.0625 0.21875q0.453125 0.21875 0.734375 0.578125q0.09375 0.125 0.078125 0.265625q-0.015625 0.125 -0.140625 0.203125q-0.125 0.0625 -0.265625 0.046875q-0.140625 -0.03125 -0.25 -0.140625q-0.234375 -0.265625 -0.546875 -0.390625q-0.296875 -0.125 -0.703125 -0.125q-0.5 0 -0.8125 0.21875q-0.3125 0.203125 -0.3125 0.515625q0 0.21875 0.109375 0.375q0.125 0.15625 0.40625 0.28125q0.28125 0.109375 0.796875 0.203125q0.703125 0.109375 1.109375 0.328125q0.40625 0.21875 0.578125 0.515625q0.171875 0.296875 0.171875 0.640625q0 0.4375 -0.265625 0.765625q-0.25 0.328125 -0.703125 0.515625q-0.453125 0.1875 -1.03125 0.1875zm5.0278625 0q-0.546875 0 -1.09375 -0.1875q-0.546875 -0.1875 -0.875 -0.5625q-0.109375 -0.109375 -0.09375 -0.25q0.03125 -0.140625 0.140625 -0.234375q0.140625 -0.09375 0.28125 -0.078125q0.140625 0.015625 0.234375 0.125q0.21875 0.25 0.578125 0.390625q0.375 0.140625 0.828125 0.140625q0.6875 0 0.984375 -0.234375q0.3125 -0.234375 0.328125 -0.578125q0 -0.328125 -0.328125 -0.546875q-0.3125 -0.21875 -1.03125 -0.34375q-0.953125 -0.15625 -1.390625 -0.515625q-0.4375 -0.375 -0.4375 -0.890625q0 -0.484375 0.25 -0.796875q0.265625 -0.3125 0.671875 -0.46875q0.421875 -0.171875 0.9375 -0.171875q0.625 0 1.0625 0.21875q0.453125 0.21875 0.734375 0.578125q0.09375 0.125 0.078125 0.265625q-0.015625 0.125 -0.140625 0.203125q-0.125 0.0625 -0.265625 0.046875q-0.140625 -0.03125 -0.25 -0.140625q-0.234375 -0.265625 -0.546875 -0.390625q-0.296875 -0.125 -0.703125 -0.125q-0.5 0 -0.8125 0.21875q-0.3125 0.203125 -0.3125 0.515625q0 0.21875 0.109375 0.375q0.125 0.15625 0.40625 0.28125q0.28125 0.109375 0.796875 0.203125q0.703125 0.109375 1.109375 0.328125q0.40625 0.21875 0.578125 0.515625q0.171875 0.296875 0.171875 0.640625q0 0.4375 -0.265625 0.765625q-0.25 0.328125 -0.703125 0.515625q-0.453125 0.1875 -1.03125 0.1875zm5.5591125 0q-0.765625 0 -1.34375 -0.328125q-0.578125 -0.328125 -0.921875 -0.921875q-0.328125 -0.59375 -0.328125 -1.34375q0 -0.765625 0.3125 -1.34375q0.3125 -0.59375 0.859375 -0.921875q0.5625 -0.34375 1.28125 -0.34375q0.703125 0 1.234375 0.328125q0.53125 0.328125 0.8125 0.890625q0.296875 0.5625 0.296875 1.296875q0 0.15625 -0.09375 0.25q-0.09375 0.078125 -0.25 0.078125l-3.96875 0l0 -0.59375l4.046875 0l-0.40625 0.28125q0.015625 -0.53125 -0.1875 -0.953125q-0.203125 -0.4375 -0.59375 -0.671875q-0.375 -0.25 -0.890625 -0.25q-0.53125 0 -0.9375 0.25q-0.40625 0.25 -0.625 0.703125q-0.21875 0.4375 -0.21875 1.0q0 0.5625 0.25 1.015625q0.25 0.4375 0.671875 0.6875q0.4375 0.25 1.0 0.25q0.328125 0 0.671875 -0.109375q0.34375 -0.125 0.546875 -0.296875q0.109375 -0.09375 0.234375 -0.09375q0.125 0 0.21875 0.0625q0.125 0.109375 0.125 0.25q0.015625 0.125 -0.109375 0.21875q-0.296875 0.265625 -0.78125 0.4375q-0.46875 0.171875 -0.90625 0.171875zm5.196213 0q-0.546875 0 -1.09375 -0.1875q-0.546875 -0.1875 -0.875 -0.5625q-0.109375 -0.109375 -0.09375 -0.25q0.03125 -0.140625 0.140625 -0.234375q0.140625 -0.09375 0.28125 -0.078125q0.140625 0.015625 0.234375 0.125q0.21875 0.25 0.578125 0.390625q0.375 0.140625 0.828125 0.140625q0.6875 0 0.984375 -0.234375q0.3125 -0.234375 0.328125 -0.578125q0 -0.328125 -0.328125 -0.546875q-0.3125 -0.21875 -1.03125 -0.34375q-0.953125 -0.15625 -1.390625 -0.515625q-0.4375 -0.375 -0.4375 -0.890625q0 -0.484375 0.25 -0.796875q0.265625 -0.3125 0.671875 -0.46875q0.421875 -0.171875 0.9375 -0.171875q0.625 0 1.0625 0.21875q0.453125 0.21875 0.734375 0.578125q0.09375 0.125 0.078125 0.265625q-0.015625 0.125 -0.140625 0.203125q-0.125 0.0625 -0.265625 0.046875q-0.140625 -0.03125 -0.25 -0.140625q-0.234375 -0.265625 -0.546875 -0.390625q-0.296875 -0.125 -0.703125 -0.125q-0.5 0 -0.8125 0.21875q-0.3125 0.203125 -0.3125 0.515625q0 0.21875 0.109375 0.375q0.125 0.15625 0.40625 0.28125q0.28125 0.109375 0.796875 0.203125q0.703125 0.109375 1.109375 0.328125q0.40625 0.21875 0.578125 0.515625q0.171875 0.296875 0.171875 0.640625q0 0.4375 -0.265625 0.765625q-0.25 0.328125 -0.703125 0.515625q-0.453125 0.1875 -1.03125 0.1875zm3.1528625 1.46875q-0.09375 0 -0.140625 -0.0625q-0.046875 -0.046875 -0.046875 -0.125q0 -0.140625 0.078125 -0.265625q0.09375 -0.109375 0.171875 -0.25q0.09375 -0.125 0.09375 -0.3125q0 -0.171875 -0.0625 -0.28125q-0.0625 -0.109375 -0.15625 -0.203125q-0.09375 -0.078125 -0.15625 -0.1875q-0.0625 -0.109375 -0.0625 -0.265625q0 -0.234375 0.15625 -0.375q0.15625 -0.140625 0.375 -0.140625q0.28125 0 0.453125 0.21875q0.1875 0.21875 0.1875 0.609375q0 0.265625 -0.078125 0.546875q-0.0625 0.296875 -0.203125 0.546875q-0.125 0.25 -0.28125 0.390625q-0.15625 0.15625 -0.328125 0.15625zm5.2944183 0.671875q-0.171875 0 -0.265625 -0.109375q-0.09375 -0.09375 -0.09375 -0.265625l0 -4.390625q0 -0.734375 0.34375 -1.3125q0.34375 -0.59375 0.921875 -0.921875q0.59375 -0.34375 1.3125 -0.34375q0.75 0 1.328125 0.34375q0.59375 0.34375 0.9375 0.9375q0.34375 0.578125 0.34375 1.328125q0 0.734375 -0.34375 1.328125q-0.328125 0.578125 -0.90625 0.921875q-0.5625 0.34375 -1.28125 0.34375q-0.625 0 -1.140625 -0.265625q-0.5 -0.265625 -0.796875 -0.703125l0 2.734375q0 0.171875 -0.109375 0.265625q-0.09375 0.109375 -0.25 0.109375zm2.21875 -2.796875q0.546875 0 0.96875 -0.25q0.4375 -0.25 0.671875 -0.6875q0.25 -0.453125 0.25 -1.0q0 -0.5625 -0.25 -1.0q-0.234375 -0.4375 -0.671875 -0.6875q-0.421875 -0.265625 -0.96875 -0.265625q-0.53125 0 -0.96875 0.265625q-0.421875 0.25 -0.671875 0.6875q-0.234375 0.4375 -0.234375 1.0q0 0.546875 0.234375 1.0q0.25 0.4375 0.671875 0.6875q0.4375 0.25 0.96875 0.25zm6.329361 0.65625q-0.765625 0 -1.34375 -0.328125q-0.578125 -0.328125 -0.921875 -0.921875q-0.328125 -0.59375 -0.328125 -1.34375q0 -0.765625 0.3125 -1.34375q0.3125 -0.59375 0.859375 -0.921875q0.5625 -0.34375 1.28125 -0.34375q0.703125 0 1.234375 0.328125q0.53125 0.328125 0.8125 0.890625q0.296875 0.5625 0.296875 1.296875q0 0.15625 -0.09375 0.25q-0.09375 0.078125 -0.25 0.078125l-3.96875 0l0 -0.59375l4.046875 0l-0.40625 0.28125q0.015625 -0.53125 -0.1875 -0.953125q-0.203125 -0.4375 -0.59375 -0.671875q-0.375 -0.25 -0.890625 -0.25q-0.53125 0 -0.9375 0.25q-0.40625 0.25 -0.625 0.703125q-0.21875 0.4375 -0.21875 1.0q0 0.5625 0.25 1.015625q0.25 0.4375 0.671875 0.6875q0.4375 0.25 1.0 0.25q0.328125 0 0.671875 -0.109375q0.34375 -0.125 0.546875 -0.296875q0.109375 -0.09375 0.234375 -0.09375q0.125 0 0.21875 0.0625q0.125 0.109375 0.125 0.25q0.015625 0.125 -0.109375 0.21875q-0.296875 0.265625 -0.78125 0.4375q-0.46875 0.171875 -0.90625 0.171875zm5.5407944 0q-0.734375 0 -1.328125 -0.328125q-0.59375 -0.34375 -0.9375 -0.921875q-0.328125 -0.59375 -0.328125 -1.34375q0 -0.75 0.328125 -1.34375q0.34375 -0.59375 0.9375 -0.921875q0.59375 -0.34375 1.328125 -0.34375q0.75 0 1.328125 0.34375q0.59375 0.328125 0.921875 0.921875q0.34375 0.59375 0.34375 1.34375q0 0.75 -0.34375 1.34375q-0.328125 0.578125 -0.921875 0.921875q-0.578125 0.328125 -1.328125 0.328125zm0 -0.65625q0.546875 0 0.96875 -0.25q0.4375 -0.25 0.671875 -0.6875q0.25 -0.4375 0.25 -1.0q0 -0.5625 -0.25 -1.0q-0.234375 -0.453125 -0.671875 -0.703125q-0.421875 -0.25 -0.96875 -0.25q-0.53125 0 -0.96875 0.25q-0.421875 0.25 -0.671875 0.703125q-0.25 0.4375 -0.25 1.0q0 0.5625 0.25 1.0q0.25 0.4375 0.671875 0.6875q0.4375 0.25 0.96875 0.25zm4.362015 2.796875q-0.171875 0 -0.265625 -0.109375q-0.09375 -0.09375 -0.09375 -0.265625l0 -4.390625q0 -0.734375 0.34375 -1.3125q0.34375 -0.59375 0.921875 -0.921875q0.59375 -0.34375 1.3125 -0.34375q0.75 0 1.328125 0.34375q0.59375 0.34375 0.9375 0.9375q0.34375 0.578125 0.34375 1.328125q0 0.734375 -0.34375 1.328125q-0.328125 0.578125 -0.90625 0.921875q-0.5625 0.34375 -1.28125 0.34375q-0.625 0 -1.140625 -0.265625q-0.5 -0.265625 -0.796875 -0.703125l0 2.734375q0 0.171875 -0.109375 0.265625q-0.09375 0.109375 -0.25 0.109375zm2.21875 -2.796875q0.546875 0 0.96875 -0.25q0.4375 -0.25 0.671875 -0.6875q0.25 -0.453125 0.25 -1.0q0 -0.5625 -0.25 -1.0q-0.234375 -0.4375 -0.671875 -0.6875q-0.421875 -0.265625 -0.96875 -0.265625q-0.53125 0 -0.96875 0.265625q-0.421875 0.25 -0.671875 0.6875q-0.234375 0.4375 -0.234375 1.0q0 0.546875 0.234375 1.0q0.25 0.4375 0.671875 0.6875q0.4375 0.25 0.96875 0.25zm5.110611 0.609375q-0.375 0 -0.671875 -0.203125q-0.28125 -0.203125 -0.453125 -0.5625q-0.15625 -0.375 -0.15625 -0.84375l0 -5.328125q0 -0.15625 0.09375 -0.25q0.09375 -0.09375 0.25 -0.09375q0.171875 0 0.265625 0.09375q0.09375 0.09375 0.09375 0.25l0 5.328125q0 0.390625 0.15625 0.65625q0.171875 0.25 0.421875 0.25l0.234375 0q0.140625 0 0.21875 0.09375q0.09375 0.09375 0.09375 0.25q0 0.15625 -0.125 0.265625q-0.109375 0.09375 -0.296875 0.09375l-0.125 0zm3.5692902 0.046875q-0.765625 0 -1.34375 -0.328125q-0.578125 -0.328125 -0.921875 -0.921875q-0.328125 -0.59375 -0.328125 -1.34375q0 -0.765625 0.3125 -1.34375q0.3125 -0.59375 0.859375 -0.921875q0.5625 -0.34375 1.28125 -0.34375q0.703125 0 1.234375 0.328125q0.53125 0.328125 0.8125 0.890625q0.296875 0.5625 0.296875 1.296875q0 0.15625 -0.09375 0.25q-0.09375 0.078125 -0.25 0.078125l-3.96875 0l0 -0.59375l4.046875 0l-0.40625 0.28125q0.015625 -0.53125 -0.1875 -0.953125q-0.203125 -0.4375 -0.59375 -0.671875q-0.375 -0.25 -0.890625 -0.25q-0.53125 0 -0.9375 0.25q-0.40625 0.25 -0.625 0.703125q-0.21875 0.4375 -0.21875 1.0q0 0.5625 0.25 1.015625q0.25 0.4375 0.671875 0.6875q0.4375 0.25 1.0 0.25q0.328125 0 0.671875 -0.109375q0.34375 -0.125 0.546875 -0.296875q0.109375 -0.09375 0.234375 -0.09375q0.125 0 0.21875 0.0625q0.125 0.109375 0.125 0.25q0.015625 0.125 -0.109375 0.21875q-0.296875 0.265625 -0.78125 0.4375q-0.46875 0.171875 -0.90625 0.171875z" fill-rule="nonzero"/><path fill="#000000" fill-opacity="0.0" d="m16.832022 495.9344l302.70865 0l0 35.307068l-302.70865 0z" fill-rule="evenodd"/><path fill="#000000" d="m27.128897 513.8944q-0.15625 0 -0.265625 -0.09375q-0.09375 -0.109375 -0.09375 -0.265625l0 -6.5625305q0 -0.15625 0.09375 -0.25q0.109375 -0.109375 0.265625 -0.109375q0.15625 0 0.25 0.109375q0.109375 0.09375 0.109375 0.25l0 6.5625305q0 0.15625 -0.109375 0.265625q-0.09375 0.09375 -0.25 0.09375zm3.921341 0.046875q-0.546875 0 -1.09375 -0.1875q-0.546875 -0.1875 -0.875 -0.5625q-0.109375 -0.109375 -0.09375 -0.25q0.03125 -0.140625 0.140625 -0.234375q0.140625 -0.09375 0.28125 -0.078125q0.140625 0.015625 0.234375 0.125q0.21875 0.25 0.578125 0.390625q0.375 0.140625 0.828125 0.140625q0.6875 0 0.9843731 -0.234375q0.3125 -0.234375 0.328125 -0.578125q0 -0.328125 -0.328125 -0.5469055q-0.3124981 -0.21875 -1.0312481 -0.34375q-0.953125 -0.15625 -1.390625 -0.515625q-0.4375 -0.375 -0.4375 -0.890625q0 -0.484375 0.25 -0.796875q0.265625 -0.3125 0.671875 -0.46875q0.421875 -0.171875 0.9375 -0.171875q0.625 0 1.0624981 0.21875q0.453125 0.21875 0.734375 0.578125q0.09375 0.125 0.078125 0.265625q-0.015625 0.125 -0.140625 0.203125q-0.125 0.0625 -0.265625 0.046875q-0.140625 -0.03125 -0.25 -0.140625q-0.234375 -0.265625 -0.5468731 -0.390625q-0.296875 -0.125 -0.703125 -0.125q-0.5 0 -0.8125 0.21875q-0.3125 0.203125 -0.3125 0.515625q0 0.21875 0.109375 0.375q0.125 0.15625 0.40625 0.28125q0.28125 0.109375 0.796875 0.203125q0.703125 0.109375 1.1093731 0.328125q0.40625 0.21875 0.578125 0.515625q0.171875 0.29690552 0.171875 0.6406555q0 0.4375 -0.265625 0.765625q-0.25 0.328125 -0.703125 0.515625q-0.4531231 0.1875 -1.0312481 0.1875zm5.0278606 0q-0.546875 0 -1.09375 -0.1875q-0.546875 -0.1875 -0.875 -0.5625q-0.109375 -0.109375 -0.09375 -0.25q0.03125 -0.140625 0.140625 -0.234375q0.140625 -0.09375 0.28125 -0.078125q0.140625 0.015625 0.234375 0.125q0.21875 0.25 0.578125 0.390625q0.375 0.140625 0.828125 0.140625q0.6875 0 0.984375 -0.234375q0.3125 -0.234375 0.328125 -0.578125q0 -0.328125 -0.328125 -0.5469055q-0.3125 -0.21875 -1.03125 -0.34375q-0.953125 -0.15625 -1.390625 -0.515625q-0.4375 -0.375 -0.4375 -0.890625q0 -0.484375 0.25 -0.796875q0.265625 -0.3125 0.671875 -0.46875q0.421875 -0.171875 0.9375 -0.171875q0.625 0 1.0625 0.21875q0.453125 0.21875 0.734375 0.578125q0.09375 0.125 0.078125 0.265625q-0.015625 0.125 -0.140625 0.203125q-0.125 0.0625 -0.265625 0.046875q-0.140625 -0.03125 -0.25 -0.140625q-0.234375 -0.265625 -0.546875 -0.390625q-0.296875 -0.125 -0.703125 -0.125q-0.5 0 -0.8125 0.21875q-0.3125 0.203125 -0.3125 0.515625q0 0.21875 0.109375 0.375q0.125 0.15625 0.40625 0.28125q0.28125 0.109375 0.796875 0.203125q0.703125 0.109375 1.109375 0.328125q0.40625 0.21875 0.578125 0.515625q0.171875 0.29690552 0.171875 0.6406555q0 0.4375 -0.265625 0.765625q-0.25 0.328125 -0.703125 0.515625q-0.453125 0.1875 -1.03125 0.1875zm5.4653625 0.015625q-0.671875 0 -1.1875 -0.28125q-0.515625 -0.28125 -0.828125 -0.8125q-0.296875 -0.53125 -0.296875 -1.2969055l0 -2.421875q0 -0.140625 0.09375 -0.25q0.109375 -0.109375 0.25 -0.109375q0.171875 0 0.265625 0.109375q0.109375 0.109375 0.109375 0.25l0 2.421875q0 0.5781555 0.21875 0.9531555q0.21875 0.375 0.59375 0.5625q0.375 0.1875 0.859375 0.1875q0.453125 0 0.8125 -0.171875q0.375 -0.1875 0.578125 -0.484375q0.21875 -0.3125 0.21875 -0.7031555l0.515625 0q-0.015625 0.5781555 -0.3125 1.0469055q-0.296875 0.46875 -0.796875 0.734375q-0.484375 0.265625 -1.09375 0.265625zm2.046875 -0.0625q-0.15625 0 -0.265625 -0.09375q-0.09375 -0.109375 -0.09375 -0.265625l0 -4.3906555q0 -0.15625 0.09375 -0.25q0.109375 -0.109375 0.265625 -0.109375q0.15625 0 0.25 0.109375q0.109375 0.09375 0.109375 0.25l0 4.3906555q0 0.15625 -0.109375 0.265625q-0.09375 0.09375 -0.25 0.09375zm4.362015 0.046875q-0.765625 0 -1.34375 -0.328125q-0.578125 -0.328125 -0.921875 -0.921875q-0.328125 -0.59375 -0.328125 -1.3437805q0 -0.765625 0.3125 -1.34375q0.3125 -0.59375 0.859375 -0.921875q0.5625 -0.34375 1.28125 -0.34375q0.703125 0 1.234375 0.328125q0.53125 0.328125 0.8125 0.890625q0.296875 0.5625 0.296875 1.296875q0 0.15625 -0.09375 0.25q-0.09375 0.078125 -0.25 0.078125l-3.96875 0l0 -0.59375l4.046875 0l-0.40625 0.28125q0.015625 -0.53125 -0.1875 -0.953125q-0.203125 -0.4375 -0.59375 -0.671875q-0.375 -0.25 -0.890625 -0.25q-0.53125 0 -0.9375 0.25q-0.40625 0.25 -0.625 0.703125q-0.21875 0.4375 -0.21875 1.0q0 0.5625 0.25 1.0156555q0.25 0.4375 0.671875 0.6875q0.4375 0.25 1.0 0.25q0.328125 0 0.671875 -0.109375q0.34375 -0.125 0.546875 -0.296875q0.109375 -0.09375 0.234375 -0.09375q0.125 0 0.21875 0.0625q0.125 0.109375 0.125 0.25q0.015625 0.125 -0.109375 0.21875q-0.296875 0.265625 -0.78125 0.4375q-0.46875 0.171875 -0.90625 0.171875zm5.196213 0q-0.546875 0 -1.09375 -0.1875q-0.546875 -0.1875 -0.875 -0.5625q-0.109375 -0.109375 -0.09375 -0.25q0.03125 -0.140625 0.140625 -0.234375q0.140625 -0.09375 0.28125 -0.078125q0.140625 0.015625 0.234375 0.125q0.21875 0.25 0.578125 0.390625q0.375 0.140625 0.828125 0.140625q0.6875 0 0.984375 -0.234375q0.3125 -0.234375 0.328125 -0.578125q0 -0.328125 -0.328125 -0.5469055q-0.3125 -0.21875 -1.03125 -0.34375q-0.953125 -0.15625 -1.390625 -0.515625q-0.4375 -0.375 -0.4375 -0.890625q0 -0.484375 0.25 -0.796875q0.265625 -0.3125 0.671875 -0.46875q0.421875 -0.171875 0.9375 -0.171875q0.625 0 1.0625 0.21875q0.453125 0.21875 0.734375 0.578125q0.09375 0.125 0.078125 0.265625q-0.015625 0.125 -0.140625 0.203125q-0.125 0.0625 -0.265625 0.046875q-0.140625 -0.03125 -0.25 -0.140625q-0.234375 -0.265625 -0.546875 -0.390625q-0.296875 -0.125 -0.703125 -0.125q-0.5 0 -0.8125 0.21875q-0.3125 0.203125 -0.3125 0.515625q0 0.21875 0.109375 0.375q0.125 0.15625 0.40625 0.28125q0.28125 0.109375 0.796875 0.203125q0.703125 0.109375 1.109375 0.328125q0.40625 0.21875 0.578125 0.515625q0.171875 0.29690552 0.171875 0.6406555q0 0.4375 -0.265625 0.765625q-0.25 0.328125 -0.703125 0.515625q-0.453125 0.1875 -1.03125 0.1875zm7.0735016 -0.046875q-0.375 0 -0.671875 -0.203125q-0.28125 -0.203125 -0.453125 -0.5625q-0.15625 -0.375 -0.15625 -0.84375l0 -5.3281555q0 -0.15625 0.09375 -0.25q0.09375 -0.09375 0.25 -0.09375q0.171875 0 0.265625 0.09375q0.09375 0.09375 0.09375 0.25l0 5.3281555q0 0.390625 0.15625 0.65625q0.171875 0.25 0.421875 0.25l0.234375 0q0.140625 0 0.21875 0.09375q0.09375 0.09375 0.09375 0.25q0 0.15625 -0.125 0.265625q-0.109375 0.09375 -0.296875 0.09375l-0.125 0zm2.052414 0q-0.171875 0 -0.28125 -0.09375q-0.09375 -0.109375 -0.09375 -0.265625l0 -4.3750305q0 -0.171875 0.09375 -0.265625q0.109375 -0.109375 0.28125 -0.109375q0.15625 0 0.25 0.109375q0.09375 0.09375 0.09375 0.265625l0 4.3750305q0 0.15625 -0.09375 0.265625q-0.09375 0.09375 -0.25 0.09375zm0.015625 -6.0781555q-0.203125 0 -0.359375 -0.140625q-0.140625 -0.15625 -0.140625 -0.359375q0 -0.234375 0.15625 -0.375q0.15625 -0.140625 0.359375 -0.140625q0.1875 0 0.34375 0.140625q0.15625 0.140625 0.15625 0.375q0 0.203125 -0.15625 0.359375q-0.140625 0.140625 -0.359375 0.140625zm9.05521 6.0781555q-0.15625 0 -0.265625 -0.09375q-0.09375 -0.109375 -0.09375 -0.265625l0 -2.6875305q0 -0.65625 -0.359375 -1.046875q-0.34375 -0.390625 -0.875 -0.390625q-0.578125 0 -0.953125 0.390625q-0.359375 0.390625 -0.359375 1.03125l-0.640625 0q0.015625 -0.625 0.265625 -1.09375q0.265625 -0.484375 0.71875 -0.734375q0.46875 -0.265625 1.046875 -0.265625q0.546875 0 0.96875 0.265625q0.421875 0.25 0.65625 0.734375q0.25 0.46875 0.25 1.109375l0 2.6875305q0 0.15625 -0.109375 0.265625q-0.09375 0.09375 -0.25 0.09375zm-6.53125 0q-0.171875 0 -0.265625 -0.09375q-0.09375 -0.109375 -0.09375 -0.265625l0 -4.3750305q0 -0.15625 0.09375 -0.265625q0.09375 -0.109375 0.265625 -0.109375q0.15625 0 0.25 0.109375q0.109375 0.109375 0.109375 0.265625l0 4.3750305q0 0.15625 -0.109375 0.265625q-0.09375 0.09375 -0.25 0.09375zm3.28125 0q-0.171875 0 -0.28125 -0.09375q-0.09375 -0.109375 -0.09375 -0.265625l0 -2.6875305q0 -0.65625 -0.34375 -1.046875q-0.34375 -0.390625 -0.890625 -0.390625q-0.578125 0 -0.953125 0.390625q-0.359375 0.375 -0.359375 0.984375l-0.515625 0q0.015625 -0.609375 0.265625 -1.0625q0.25 -0.46875 0.671875 -0.71875q0.4375 -0.265625 0.96875 -0.265625q0.546875 0 0.96875 0.265625q0.4375 0.25 0.671875 0.734375q0.234375 0.46875 0.234375 1.109375l0 2.6875305q0 0.15625 -0.09375 0.265625q-0.09375 0.09375 -0.25 0.09375zm5.70874 0q-0.171875 0 -0.28125 -0.09375q-0.09375 -0.109375 -0.09375 -0.265625l0 -4.3750305q0 -0.171875 0.09375 -0.265625q0.109375 -0.109375 0.28125 -0.109375q0.15625 0 0.25 0.109375q0.09375 0.09375 0.09375 0.265625l0 4.3750305q0 0.15625 -0.09375 0.265625q-0.09375 0.09375 -0.25 0.09375zm0.015625 -6.0781555q-0.203125 0 -0.359375 -0.140625q-0.140625 -0.15625 -0.140625 -0.359375q0 -0.234375 0.15625 -0.375q0.15625 -0.140625 0.359375 -0.140625q0.1875 0 0.34375 0.140625q0.15625 0.140625 0.15625 0.375q0 0.203125 -0.15625 0.359375q-0.140625 0.140625 -0.359375 0.140625zm4.1489563 6.0781555q-0.484375 0 -0.875 -0.234375q-0.390625 -0.234375 -0.609375 -0.640625q-0.21875 -0.40625 -0.21875 -0.921875l0 -4.5625305q0 -0.15625 0.09375 -0.25q0.09375 -0.109375 0.25 -0.109375q0.15625 0 0.265625 0.109375q0.109375 0.09375 0.109375 0.25l0 4.5625305q0 0.46875 0.265625 0.78125q0.28125 0.296875 0.71875 0.296875l0.265625 0q0.140625 0 0.234375 0.109375q0.09375 0.09375 0.09375 0.25q0 0.15625 -0.109375 0.265625q-0.109375 0.09375 -0.28125 0.09375l-0.203125 0zm-2.3125 -4.2969055q-0.140625 0 -0.234375 -0.078125q-0.09375 -0.09375 -0.09375 -0.21875q0 -0.140625 0.09375 -0.234375q0.09375 -0.09375 0.234375 -0.09375l2.375 0q0.140625 0 0.234375 0.09375q0.09375 0.09375 0.09375 0.234375q0 0.125 -0.09375 0.21875q-0.09375 0.078125 -0.234375 0.078125l-2.375 0zm4.5936584 4.2969055q-0.171875 0 -0.28125 -0.09375q-0.09375 -0.109375 -0.09375 -0.265625l0 -4.3750305q0 -0.171875 0.09375 -0.265625q0.109375 -0.109375 0.28125 -0.109375q0.15625 0 0.25 0.109375q0.09375 0.09375 0.09375 0.265625l0 4.3750305q0 0.15625 -0.09375 0.265625q-0.09375 0.09375 -0.25 0.09375zm0.015625 -6.0781555q-0.203125 0 -0.359375 -0.140625q-0.140625 -0.15625 -0.140625 -0.359375q0 -0.234375 0.15625 -0.375q0.15625 -0.140625 0.359375 -0.140625q0.1875 0 0.34375 0.140625q0.15625 0.140625 0.15625 0.375q0 0.203125 -0.15625 0.359375q-0.140625 0.140625 -0.359375 0.140625zm6.5395813 6.0781555q-0.15625 0 -0.265625 -0.09375q-0.109375 -0.109375 -0.109375 -0.265625l0 -2.4219055q0 -0.578125 -0.21875 -0.953125q-0.21875 -0.375 -0.59375 -0.5625q-0.375 -0.1875 -0.84375 -0.1875q-0.46875 0 -0.84375 0.1875q-0.359375 0.171875 -0.578125 0.484375q-0.203125 0.3125 -0.203125 0.703125l-0.515625 0q0.015625 -0.59375 0.3125 -1.046875q0.296875 -0.46875 0.796875 -0.734375q0.5 -0.265625 1.09375 -0.265625q0.671875 0 1.1875 0.28125q0.53125 0.265625 0.828125 0.796875q0.296875 0.53125 0.296875 1.296875l0 2.4219055q0 0.15625 -0.109375 0.265625q-0.09375 0.09375 -0.234375 0.09375zm-4.015625 0q-0.171875 0 -0.265625 -0.09375q-0.09375 -0.109375 -0.09375 -0.265625l0 -4.3750305q0 -0.171875 0.09375 -0.265625q0.09375 -0.109375 0.265625 -0.109375q0.15625 0 0.25 0.109375q0.109375 0.09375 0.109375 0.265625l0 4.3750305q0 0.15625 -0.109375 0.265625q-0.09375 0.09375 -0.25 0.09375zm8.205765 0.046875q-0.75 0 -1.3125 -0.328125q-0.5625 -0.328125 -0.890625 -0.921875q-0.328125 -0.59375 -0.328125 -1.3437805q0 -0.765625 0.328125 -1.34375q0.34375 -0.59375 0.9375 -0.921875q0.59375 -0.34375 1.328125 -0.34375q0.765625 0 1.34375 0.34375q0.578125 0.328125 0.90625 0.921875q0.34375 0.578125 0.34375 1.34375l-0.421875 0.21875q0 0.7031555 -0.296875 1.2344055q-0.28125 0.53125 -0.796875 0.84375q-0.5 0.296875 -1.140625 0.296875zm0.09375 1.96875q-0.75 0 -1.3125 -0.28125q-0.546875 -0.265625 -0.921875 -0.75q-0.09375 -0.109375 -0.078125 -0.25q0.015625 -0.125 0.125 -0.203125q0.125 -0.078125 0.265625 -0.0625q0.15625 0.03125 0.25 0.140625q0.265625 0.34375 0.6875 0.546875q0.421875 0.203125 0.984375 0.203125q0.53125 0 0.9375 -0.25q0.421875 -0.25 0.671875 -0.71875q0.25 -0.453125 0.25 -1.0625l0 -1.4219055l0.265625 -0.53125l0.4375 0.078125l0 1.9062805q0 0.75 -0.34375 1.34375q-0.328125 0.609375 -0.90625 0.953125q-0.578125 0.359375 -1.3125 0.359375zm-0.03125 -2.625q0.5625 0 0.984375 -0.234375q0.421875 -0.25 0.65625 -0.6875q0.25 -0.45315552 0.25 -1.0156555q0 -0.5625 -0.25 -1.0q-0.234375 -0.453125 -0.65625 -0.703125q-0.421875 -0.25 -0.984375 -0.25q-0.546875 0 -0.984375 0.25q-0.421875 0.25 -0.671875 0.703125q-0.234375 0.4375 -0.234375 1.0q0 0.5625 0.234375 1.0156555q0.25 0.4375 0.671875 0.6875q0.4375 0.234375 0.984375 0.234375zm9.048279 0.65625q-0.734375 0 -1.328125 -0.328125q-0.59375 -0.34375 -0.9375 -0.921875q-0.328125 -0.59375 -0.328125 -1.3437805q0 -0.75 0.328125 -1.34375q0.34375 -0.59375 0.9375 -0.921875q0.59375 -0.34375 1.328125 -0.34375q0.75 0 1.328125 0.34375q0.59375 0.328125 0.921875 0.921875q0.34375 0.59375 0.34375 1.34375q0 0.7500305 -0.34375 1.3437805q-0.328125 0.578125 -0.921875 0.921875q-0.578125 0.328125 -1.328125 0.328125zm0 -0.65625q0.546875 0 0.96875 -0.25q0.4375 -0.25 0.671875 -0.6875q0.25 -0.43753052 0.25 -1.0000305q0 -0.5625 -0.25 -1.0q-0.234375 -0.453125 -0.671875 -0.703125q-0.421875 -0.25 -0.96875 -0.25q-0.53125 0 -0.96875 0.25q-0.421875 0.25 -0.671875 0.703125q-0.25 0.4375 -0.25 1.0q0 0.5625 0.25 1.0000305q0.25 0.4375 0.671875 0.6875q0.4375 0.25 0.96875 0.25zm4.362015 2.796875q-0.171875 0 -0.265625 -0.109375q-0.09375 -0.09375 -0.09375 -0.265625l0 -4.3906555q0 -0.734375 0.34375 -1.3125q0.34375 -0.59375 0.921875 -0.921875q0.59375 -0.34375 1.3125 -0.34375q0.75 0 1.328125 0.34375q0.59375 0.34375 0.9375 0.9375q0.34375 0.578125 0.34375 1.328125q0 0.7344055 -0.34375 1.3281555q-0.328125 0.578125 -0.90625 0.921875q-0.5625 0.34375 -1.28125 0.34375q-0.625 0 -1.140625 -0.265625q-0.5 -0.265625 -0.796875 -0.703125l0 2.734375q0 0.171875 -0.109375 0.265625q-0.09375 0.109375 -0.25 0.109375zm2.21875 -2.796875q0.546875 0 0.96875 -0.25q0.4375 -0.25 0.671875 -0.6875q0.25 -0.45315552 0.25 -1.0000305q0 -0.5625 -0.25 -1.0q-0.234375 -0.4375 -0.671875 -0.6875q-0.421875 -0.265625 -0.96875 -0.265625q-0.53125 0 -0.96875 0.265625q-0.421875 0.25 -0.671875 0.6875q-0.234375 0.4375 -0.234375 1.0q0 0.546875 0.234375 1.0000305q0.25 0.4375 0.671875 0.6875q0.4375 0.25 0.96875 0.25zm6.001236 0.609375q-0.484375 0 -0.875 -0.234375q-0.390625 -0.234375 -0.609375 -0.640625q-0.21875 -0.40625 -0.21875 -0.921875l0 -4.5625305q0 -0.15625 0.09375 -0.25q0.09375 -0.109375 0.25 -0.109375q0.15625 0 0.265625 0.109375q0.109375 0.09375 0.109375 0.25l0 4.5625305q0 0.46875 0.265625 0.78125q0.28125 0.296875 0.71875 0.296875l0.265625 0q0.140625 0 0.234375 0.109375q0.09375 0.09375 0.09375 0.25q0 0.15625 -0.109375 0.265625q-0.109375 0.09375 -0.28125 0.09375l-0.203125 0zm-2.3125 -4.2969055q-0.140625 0 -0.234375 -0.078125q-0.09375 -0.09375 -0.09375 -0.21875q0 -0.140625 0.09375 -0.234375q0.09375 -0.09375 0.234375 -0.09375l2.375 0q0.140625 0 0.234375 0.09375q0.09375 0.09375 0.09375 0.234375q0 0.125 -0.09375 0.21875q-0.09375 0.078125 -0.234375 0.078125l-2.375 0zm4.5936584 4.2969055q-0.171875 0 -0.28125 -0.09375q-0.09375 -0.109375 -0.09375 -0.265625l0 -4.3750305q0 -0.171875 0.09375 -0.265625q0.109375 -0.109375 0.28125 -0.109375q0.15625 0 0.25 0.109375q0.09375 0.09375 0.09375 0.265625l0 4.3750305q0 0.15625 -0.09375 0.265625q-0.09375 0.09375 -0.25 0.09375zm0.015625 -6.0781555q-0.203125 0 -0.359375 -0.140625q-0.140625 -0.15625 -0.140625 -0.359375q0 -0.234375 0.15625 -0.375q0.15625 -0.140625 0.359375 -0.140625q0.1875 0 0.34375 0.140625q0.15625 0.140625 0.15625 0.375q0 0.203125 -0.15625 0.359375q-0.140625 0.140625 -0.359375 0.140625zm9.055206 6.0781555q-0.15625 0 -0.265625 -0.09375q-0.09375 -0.109375 -0.09375 -0.265625l0 -2.6875305q0 -0.65625 -0.359375 -1.046875q-0.34375 -0.390625 -0.875 -0.390625q-0.578125 0 -0.953125 0.390625q-0.359375 0.390625 -0.359375 1.03125l-0.640625 0q0.015625 -0.625 0.265625 -1.09375q0.265625 -0.484375 0.71875 -0.734375q0.46875 -0.265625 1.046875 -0.265625q0.546875 0 0.96875 0.265625q0.421875 0.25 0.65625 0.734375q0.25 0.46875 0.25 1.109375l0 2.6875305q0 0.15625 -0.109375 0.265625q-0.09375 0.09375 -0.25 0.09375zm-6.53125 0q-0.171875 0 -0.265625 -0.09375q-0.09375 -0.109375 -0.09375 -0.265625l0 -4.3750305q0 -0.15625 0.09375 -0.265625q0.09375 -0.109375 0.265625 -0.109375q0.15625 0 0.25 0.109375q0.109375 0.109375 0.109375 0.265625l0 4.3750305q0 0.15625 -0.109375 0.265625q-0.09375 0.09375 -0.25 0.09375zm3.28125 0q-0.171875 0 -0.28125 -0.09375q-0.09375 -0.109375 -0.09375 -0.265625l0 -2.6875305q0 -0.65625 -0.34375 -1.046875q-0.34375 -0.390625 -0.890625 -0.390625q-0.578125 0 -0.953125 0.390625q-0.359375 0.375 -0.359375 0.984375l-0.515625 0q0.015625 -0.609375 0.265625 -1.0625q0.25 -0.46875 0.671875 -0.71875q0.4375 -0.265625 0.96875 -0.265625q0.546875 0 0.96875 0.265625q0.4375 0.25 0.671875 0.734375q0.234375 0.46875 0.234375 1.109375l0 2.6875305q0 0.15625 -0.09375 0.265625q-0.09375 0.09375 -0.25 0.09375zm7.4431076 0.046875q-0.7187424 0 -1.2968674 -0.34375q-0.5625 -0.34375 -0.90625 -0.921875q-0.328125 -0.59375 -0.328125 -1.3281555q0 -0.75 0.34375 -1.328125q0.34375 -0.59375 0.921875 -0.9375q0.59375 -0.34375 1.3281174 -0.34375q0.75 0 1.328125 0.34375q0.578125 0.34375 0.921875 0.9375q0.34375 0.578125 0.34375 1.328125l-0.28125 0.21875q0 0.6719055 -0.3125 1.2187805q-0.3125 0.53125 -0.859375 0.84375q-0.53125 0.3125 -1.203125 0.3125zm0.0625 -0.65625q0.546875 0 0.96875 -0.25q0.421875 -0.25 0.671875 -0.6875q0.25 -0.45315552 0.25 -1.0000305q0 -0.5625 -0.25 -1.0q-0.25 -0.4375 -0.671875 -0.6875q-0.421875 -0.265625 -0.96875 -0.265625q-0.5312424 0 -0.9687424 0.265625q-0.421875 0.25 -0.671875 0.6875q-0.25 0.4375 -0.25 1.0q0 0.546875 0.25 1.0000305q0.25 0.4375 0.671875 0.6875q0.4375 0.25 0.9687424 0.25zm2.234375 0.609375q-0.15625 0 -0.265625 -0.09375q-0.09375 -0.109375 -0.09375 -0.265625l0 -1.5937805l0.171875 -0.734375l0.546875 0.140625l0 2.1875305q0 0.15625 -0.109375 0.265625q-0.09375 0.09375 -0.25 0.09375zm2.8620148 0q-0.375 0 -0.671875 -0.203125q-0.28125 -0.203125 -0.453125 -0.5625q-0.15625 -0.375 -0.15625 -0.84375l0 -5.3281555q0 -0.15625 0.09375 -0.25q0.09375 -0.09375 0.25 -0.09375q0.171875 0 0.265625 0.09375q0.09375 0.09375 0.09375 0.25l0 5.3281555q0 0.390625 0.15625 0.65625q0.171875 0.25 0.421875 0.25l0.234375 0q0.140625 0 0.21875 0.09375q0.09375 0.09375 0.09375 0.25q0 0.15625 -0.125 0.265625q-0.109375 0.09375 -0.296875 0.09375l-0.125 0zm4.629303 2.1875q-0.171875 0 -0.265625 -0.109375q-0.09375 -0.09375 -0.09375 -0.265625l0 -4.3906555q0 -0.734375 0.34375 -1.3125q0.34375 -0.59375 0.921875 -0.921875q0.59375 -0.34375 1.3125 -0.34375q0.75 0 1.328125 0.34375q0.59375 0.34375 0.9375 0.9375q0.34375 0.578125 0.34375 1.328125q0 0.7344055 -0.34375 1.3281555q-0.328125 0.578125 -0.90625 0.921875q-0.5625 0.34375 -1.28125 0.34375q-0.625 0 -1.140625 -0.265625q-0.5 -0.265625 -0.796875 -0.703125l0 2.734375q0 0.171875 -0.109375 0.265625q-0.09375 0.109375 -0.25 0.109375zm2.21875 -2.796875q0.546875 0 0.96875 -0.25q0.4375 -0.25 0.671875 -0.6875q0.25 -0.45315552 0.25 -1.0000305q0 -0.5625 -0.25 -1.0q-0.234375 -0.4375 -0.671875 -0.6875q-0.421875 -0.265625 -0.96875 -0.265625q-0.53125 0 -0.96875 0.265625q-0.421875 0.25 -0.671875 0.6875q-0.234375 0.4375 -0.234375 1.0q0 0.546875 0.234375 1.0000305q0.25 0.4375 0.671875 0.6875q0.4375 0.25 0.96875 0.25zm4.313736 -2.5312805q0.03125 -0.578125 0.296875 -1.03125q0.28125 -0.46875 0.71875 -0.71875q0.453125 -0.265625 0.984375 -0.265625q0.4375 0 0.671875 0.125q0.234375 0.109375 0.171875 0.34375q-0.03125 0.140625 -0.125 0.1875q-0.09375 0.046875 -0.21875 0.046875q-0.125 -0.015625 -0.28125 -0.03125q-0.53125 -0.046875 -0.9375 0.109375q-0.390625 0.15625 -0.640625 0.484375q-0.234375 0.3125 -0.234375 0.75l-0.40625 0zm0.046875 3.1406555q-0.15625 0 -0.25 -0.09375q-0.09375 -0.09375 -0.09375 -0.265625l0 -4.3906555q0 -0.171875 0.09375 -0.265625q0.09375 -0.09375 0.25 -0.09375q0.171875 0 0.265625 0.09375q0.09375 0.09375 0.09375 0.265625l0 4.3906555q0 0.171875 -0.09375 0.265625q-0.09375 0.09375 -0.265625 0.09375zm5.867691 0.046875q-0.734375 0 -1.328125 -0.328125q-0.59375 -0.34375 -0.9375 -0.921875q-0.328125 -0.59375 -0.328125 -1.3437805q0 -0.75 0.328125 -1.34375q0.34375 -0.59375 0.9375 -0.921875q0.59375 -0.34375 1.328125 -0.34375q0.75 0 1.328125 0.34375q0.59375 0.328125 0.921875 0.921875q0.34375 0.59375 0.34375 1.34375q0 0.7500305 -0.34375 1.3437805q-0.328125 0.578125 -0.921875 0.921875q-0.578125 0.328125 -1.328125 0.328125zm0 -0.65625q0.546875 0 0.96875 -0.25q0.4375 -0.25 0.671875 -0.6875q0.25 -0.43753052 0.25 -1.0000305q0 -0.5625 -0.25 -1.0q-0.234375 -0.453125 -0.671875 -0.703125q-0.421875 -0.25 -0.96875 -0.25q-0.53125 0 -0.96875 0.25q-0.421875 0.25 -0.671875 0.703125q-0.25 0.4375 -0.25 1.0q0 0.5625 0.25 1.0000305q0.25 0.4375 0.671875 0.6875q0.4375 0.25 0.96875 0.25zm6.31514 0.65625q-0.734375 0 -1.328125 -0.34375q-0.578125 -0.34375 -0.921875 -0.921875q-0.34375 -0.59375 -0.34375 -1.3437805q0 -0.734375 0.328125 -1.3125q0.34375 -0.59375 0.90625 -0.9375q0.578125 -0.34375 1.296875 -0.34375q0.625 0 1.125 0.265625q0.5 0.265625 0.8125 0.71875l0 -2.75q0 -0.171875 0.09375 -0.265625q0.109375 -0.09375 0.265625 -0.09375q0.15625 0 0.25 0.09375q0.109375 0.09375 0.109375 0.265625l0 4.40625q-0.015625 0.7187805 -0.359375 1.3125305q-0.328125 0.578125 -0.921875 0.921875q-0.578125 0.328125 -1.3125 0.328125zm0 -0.65625q0.546875 0 0.96875 -0.25q0.421875 -0.265625 0.671875 -0.703125q0.25 -0.43753052 0.25 -1.0000305q0 -0.546875 -0.25 -0.984375q-0.25 -0.453125 -0.671875 -0.703125q-0.421875 -0.25 -0.96875 -0.25q-0.53125 0 -0.96875 0.25q-0.421875 0.25 -0.671875 0.703125q-0.25 0.4375 -0.25 0.984375q0 0.5625 0.25 1.0000305q0.25 0.4375 0.671875 0.703125q0.4375 0.25 0.96875 0.25zm6.501236 0.671875q-0.671875 0 -1.1875 -0.28125q-0.515625 -0.28125 -0.828125 -0.8125q-0.296875 -0.53125 -0.296875 -1.2969055l0 -2.421875q0 -0.140625 0.09375 -0.25q0.109375 -0.109375 0.25 -0.109375q0.171875 0 0.265625 0.109375q0.109375 0.109375 0.109375 0.25l0 2.421875q0 0.5781555 0.21875 0.9531555q0.21875 0.375 0.59375 0.5625q0.375 0.1875 0.859375 0.1875q0.453125 0 0.8125 -0.171875q0.375 -0.1875 0.578125 -0.484375q0.21875 -0.3125 0.21875 -0.7031555l0.515625 0q-0.015625 0.5781555 -0.3125 1.0469055q-0.296875 0.46875 -0.796875 0.734375q-0.484375 0.265625 -1.09375 0.265625zm2.046875 -0.0625q-0.15625 0 -0.265625 -0.09375q-0.09375 -0.109375 -0.09375 -0.265625l0 -4.3906555q0 -0.15625 0.09375 -0.25q0.109375 -0.109375 0.265625 -0.109375q0.15625 0 0.25 0.109375q0.109375 0.09375 0.109375 0.25l0 4.3906555q0 0.15625 -0.109375 0.265625q-0.09375 0.09375 -0.25 0.09375zm4.31514 0.046875q-0.734375 0 -1.3125 -0.34375q-0.5625 -0.34375 -0.90625 -0.921875q-0.328125 -0.59375 -0.328125 -1.3281555q0 -0.75 0.3125 -1.328125q0.328125 -0.59375 0.875 -0.9375q0.546875 -0.34375 1.265625 -0.34375q0.578125 0 1.046875 0.234375q0.484375 0.21875 0.859375 0.671875q0.09375 0.109375 0.0625 0.234375q-0.015625 0.125 -0.15625 0.21875q-0.09375 0.078125 -0.21875 0.0625q-0.125 -0.03125 -0.21875 -0.140625q-0.546875 -0.625 -1.375 -0.625q-0.515625 0 -0.921875 0.25q-0.390625 0.25 -0.609375 0.703125q-0.21875 0.4375 -0.21875 1.0q0 0.5625 0.234375 1.0000305q0.234375 0.4375 0.65625 0.6875q0.421875 0.25 0.953125 0.25q0.375 0 0.671875 -0.09375q0.296875 -0.09375 0.53125 -0.296875q0.125 -0.09375 0.234375 -0.109375q0.125 -0.015625 0.234375 0.078125q0.109375 0.09375 0.125 0.234375q0.015625 0.125 -0.09375 0.21875q-0.6875 0.625 -1.703125 0.625zm5.2783203 -0.046875q-0.484375 0 -0.875 -0.234375q-0.390625 -0.234375 -0.609375 -0.640625q-0.21875 -0.40625 -0.21875 -0.921875l0 -4.5625305q0 -0.15625 0.09375 -0.25q0.09375 -0.109375 0.25 -0.109375q0.15625 0 0.265625 0.109375q0.109375 0.09375 0.109375 0.25l0 4.5625305q0 0.46875 0.265625 0.78125q0.28125 0.296875 0.71875 0.296875l0.265625 0q0.140625 0 0.234375 0.109375q0.09375 0.09375 0.09375 0.25q0 0.15625 -0.109375 0.265625q-0.109375 0.09375 -0.28125 0.09375l-0.203125 0zm-2.3125 -4.2969055q-0.140625 0 -0.234375 -0.078125q-0.09375 -0.09375 -0.09375 -0.21875q0 -0.140625 0.09375 -0.234375q0.09375 -0.09375 0.234375 -0.09375l2.375 0q0.140625 0 0.234375 0.09375q0.09375 0.09375 0.09375 0.234375q0 0.125 -0.09375 0.21875q-0.09375 0.078125 -0.234375 0.078125l-2.375 0zm4.5936584 4.2969055q-0.171875 0 -0.28125 -0.09375q-0.09375 -0.109375 -0.09375 -0.265625l0 -4.3750305q0 -0.171875 0.09375 -0.265625q0.109375 -0.109375 0.28125 -0.109375q0.15625 0 0.25 0.109375q0.09375 0.09375 0.09375 0.265625l0 4.3750305q0 0.15625 -0.09375 0.265625q-0.09375 0.09375 -0.25 0.09375zm0.015625 -6.0781555q-0.203125 0 -0.359375 -0.140625q-0.140625 -0.15625 -0.140625 -0.359375q0 -0.234375 0.15625 -0.375q0.15625 -0.140625 0.359375 -0.140625q0.1875 0 0.34375 0.140625q0.15625 0.140625 0.15625 0.375q0 0.203125 -0.15625 0.359375q-0.140625 0.140625 -0.359375 0.140625zm3.8989563 6.0781555q-0.21875 0 -0.328125 -0.25l-2.078125 -4.3906555q-0.046875 -0.109375 0 -0.234375q0.046875 -0.125 0.1875 -0.1875q0.125 -0.0625 0.25 -0.015625q0.125 0.046875 0.1875 0.15625l1.984375 4.3125305l-0.390625 0l1.96875 -4.3125305q0.046875 -0.125 0.1875 -0.15625q0.140625 -0.046875 0.265625 0q0.125 0.0625 0.171875 0.203125q0.046875 0.125 0 0.234375l-2.046875 4.3906555q-0.109375 0.25 -0.359375 0.25zm3.9396973 0q-0.171875 0 -0.28125 -0.09375q-0.09375 -0.109375 -0.09375 -0.265625l0 -4.3750305q0 -0.171875 0.09375 -0.265625q0.109375 -0.109375 0.28125 -0.109375q0.15625 0 0.25 0.109375q0.09375 0.09375 0.09375 0.265625l0 4.3750305q0 0.15625 -0.09375 0.265625q-0.09375 0.09375 -0.25 0.09375zm0.015625 -6.0781555q-0.203125 0 -0.359375 -0.140625q-0.140625 -0.15625 -0.140625 -0.359375q0 -0.234375 0.15625 -0.375q0.15625 -0.140625 0.359375 -0.140625q0.1875 0 0.34375 0.140625q0.15625 0.140625 0.15625 0.375q0 0.203125 -0.15625 0.359375q-0.140625 0.140625 -0.359375 0.140625zm4.1489563 6.0781555q-0.484375 0 -0.875 -0.234375q-0.390625 -0.234375 -0.609375 -0.640625q-0.21875 -0.40625 -0.21875 -0.921875l0 -4.5625305q0 -0.15625 0.09375 -0.25q0.09375 -0.109375 0.25 -0.109375q0.15625 0 0.265625 0.109375q0.109375 0.09375 0.109375 0.25l0 4.5625305q0 0.46875 0.265625 0.78125q0.28125 0.296875 0.71875 0.296875l0.265625 0q0.140625 0 0.234375 0.109375q0.09375 0.09375 0.09375 0.25q0 0.15625 -0.109375 0.265625q-0.109375 0.09375 -0.28125 0.09375l-0.203125 0zm-2.3125 -4.2969055q-0.140625 0 -0.234375 -0.078125q-0.09375 -0.09375 -0.09375 -0.21875q0 -0.140625 0.09375 -0.234375q0.09375 -0.09375 0.234375 -0.09375l2.375 0q0.140625 0 0.234375 0.09375q0.09375 0.09375 0.09375 0.234375q0 0.125 -0.09375 0.21875q-0.09375 0.078125 -0.234375 0.078125l-2.375 0zm4.9530334 6.5156555q-0.078125 0 -0.171875 -0.03125q-0.3125 -0.140625 -0.171875 -0.453125l3.015625 -6.6406555q0.140625 -0.296875 0.4375 -0.171875q0.328125 0.140625 0.1875 0.4375l-3.03125 6.6406555q-0.09375 0.21875 -0.265625 0.21875zm1.03125 -2.375q-0.140625 0.0625 -0.265625 0.03125q-0.109375 -0.046875 -0.1875 -0.1875l-2.078125 -4.3125305q-0.0625 -0.140625 -0.015625 -0.265625q0.046875 -0.125 0.171875 -0.1875q0.140625 -0.0625 0.265625 -0.015625q0.125 0.03125 0.1875 0.171875l2.046875 4.3125305q0.078125 0.140625 0.046875 0.265625q-0.03125 0.125 -0.171875 0.1875z" fill-rule="nonzero"/><defs><linearGradient id="p.1" gradientUnits="userSpaceOnUse" gradientTransform="matrix(-13.5648070427068 -0.01625362031179667 -0.01625362031179667 13.5648070427068 0.0 0.0)" spreadMethod="pad" x1="-14.312594335714424" y1="41.86105618727086" x2="-0.7477872930076274" y2="41.86105618727086"><stop offset="0.0" stop-color="#ff9900"/><stop offset="1.0" stop-color="#737373"/></linearGradient></defs><path fill="url(#p.1)" d="m193.4672 564.7312l-184.0 -0.22045898l0 3.338562l184.0 0.22045898z" fill-rule="evenodd"/><path fill="#000000" fill-opacity="0.0" d="m129.92293 528.85846l75.74803 0l0 35.307068l-75.74803 0z" fill-rule="evenodd"/><path fill="#000000" d="m140.2198 546.8184q-0.15625 0 -0.265625 -0.09375q-0.09375 -0.109375 -0.09375 -0.265625l0 -6.5625q0 -0.15625 0.09375 -0.25q0.109375 -0.109375 0.265625 -0.109375q0.15625 0 0.25 0.109375q0.109375 0.09375 0.109375 0.25l0 2.90625l4.5625 0l0 -2.90625q0 -0.15625 0.09375 -0.25q0.109375 -0.109375 0.265625 -0.109375q0.15625 0 0.25 0.109375q0.109375 0.09375 0.109375 0.25l0 6.5625q0 0.15625 -0.109375 0.265625q-0.09375 0.09375 -0.25 0.09375q-0.15625 0 -0.265625 -0.09375q-0.09375 -0.109375 -0.09375 -0.265625l0 -3.0l-4.5625 0l0 3.0q0 0.15625 -0.109375 0.265625q-0.09375 0.09375 -0.25 0.09375zm7.93544 0q-0.171875 0 -0.28125 -0.09375q-0.09375 -0.109375 -0.09375 -0.265625l0 -4.375q0 -0.171875 0.09375 -0.265625q0.109375 -0.109375 0.28125 -0.109375q0.15625 0 0.25 0.109375q0.09375 0.09375 0.09375 0.265625l0 4.375q0 0.15625 -0.09375 0.265625q-0.09375 0.09375 -0.25 0.09375zm0.015625 -6.078125q-0.203125 0 -0.359375 -0.140625q-0.140625 -0.15625 -0.140625 -0.359375q0 -0.234375 0.15625 -0.375q0.15625 -0.140625 0.359375 -0.140625q0.1875 0 0.34375 0.140625q0.15625 0.140625 0.15625 0.375q0 0.203125 -0.15625 0.359375q-0.140625 0.140625 -0.359375 0.140625zm4.4145813 6.125q-0.75 0 -1.3125 -0.328125q-0.5625 -0.328125 -0.890625 -0.921875q-0.328125 -0.59375 -0.328125 -1.34375q0 -0.765625 0.328125 -1.34375q0.34375 -0.59375 0.9375 -0.921875q0.59375 -0.34375 1.328125 -0.34375q0.765625 0 1.34375 0.34375q0.578125 0.328125 0.90625 0.921875q0.34375 0.578125 0.34375 1.34375l-0.421875 0.21875q0 0.703125 -0.296875 1.234375q-0.28125 0.53125 -0.796875 0.84375q-0.5 0.296875 -1.140625 0.296875zm0.09375 1.96875q-0.75 0 -1.3125 -0.28125q-0.546875 -0.265625 -0.921875 -0.75q-0.09375 -0.109375 -0.078125 -0.25q0.015625 -0.125 0.125 -0.203125q0.125 -0.078125 0.265625 -0.0625q0.15625 0.03125 0.25 0.140625q0.265625 0.34375 0.6875 0.546875q0.421875 0.203125 0.984375 0.203125q0.53125 0 0.9375 -0.25q0.421875 -0.25 0.671875 -0.71875q0.25 -0.453125 0.25 -1.0625l0 -1.421875l0.265625 -0.53125l0.4375 0.078125l0 1.90625q0 0.75 -0.34375 1.34375q-0.328125 0.609375 -0.90625 0.953125q-0.578125 0.359375 -1.3125 0.359375zm-0.03125 -2.625q0.5625 0 0.984375 -0.234375q0.421875 -0.25 0.65625 -0.6875q0.25 -0.453125 0.25 -1.015625q0 -0.5625 -0.25 -1.0q-0.234375 -0.453125 -0.65625 -0.703125q-0.421875 -0.25 -0.984375 -0.25q-0.546875 0 -0.984375 0.25q-0.421875 0.25 -0.671875 0.703125q-0.234375 0.4375 -0.234375 1.0q0 0.5625 0.234375 1.015625q0.25 0.4375 0.671875 0.6875q0.4375 0.234375 0.984375 0.234375zm8.37764 0.609375q-0.15625 0 -0.265625 -0.09375q-0.109375 -0.109375 -0.109375 -0.265625l0 -2.421875q0 -0.578125 -0.21875 -0.953125q-0.21875 -0.375 -0.59375 -0.5625q-0.375 -0.1875 -0.84375 -0.1875q-0.46875 0 -0.84375 0.1875q-0.359375 0.171875 -0.578125 0.484375q-0.203125 0.3125 -0.203125 0.703125l-0.515625 0q0.015625 -0.59375 0.3125 -1.046875q0.296875 -0.46875 0.796875 -0.734375q0.5 -0.265625 1.09375 -0.265625q0.671875 0 1.1875 0.28125q0.53125 0.265625 0.828125 0.796875q0.296875 0.53125 0.296875 1.296875l0 2.421875q0 0.15625 -0.109375 0.265625q-0.09375 0.09375 -0.234375 0.09375zm-4.015625 0q-0.171875 0 -0.265625 -0.09375q-0.09375 -0.109375 -0.09375 -0.265625l0 -4.375q0 -0.171875 0.09375 -0.265625q0.09375 -0.109375 0.265625 -0.109375q0.15625 0 0.25 0.109375q0.109375 0.09375 0.109375 0.265625l0 4.375q0 0.15625 -0.109375 0.265625q-0.09375 0.09375 -0.25 0.09375zm0 -2.078125q-0.171875 0 -0.265625 -0.09375q-0.09375 -0.109375 -0.09375 -0.265625l0 -4.484375q0 -0.171875 0.09375 -0.265625q0.09375 -0.09375 0.265625 -0.09375q0.15625 0 0.25 0.09375q0.109375 0.09375 0.109375 0.265625l0 4.484375q0 0.15625 -0.109375 0.265625q-0.09375 0.09375 -0.25 0.09375zm7.049515 2.078125q-0.375 0 -0.671875 -0.203125q-0.28125 -0.203125 -0.453125 -0.5625q-0.15625 -0.375 -0.15625 -0.84375l0 -5.328125q0 -0.15625 0.09375 -0.25q0.09375 -0.09375 0.25 -0.09375q0.171875 0 0.265625 0.09375q0.09375 0.09375 0.09375 0.25l0 5.328125q0 0.390625 0.15625 0.65625q0.171875 0.25 0.421875 0.25l0.234375 0q0.140625 0 0.21875 0.09375q0.09375 0.09375 0.09375 0.25q0 0.15625 -0.125 0.265625q-0.109375 0.09375 -0.296875 0.09375l-0.125 0zm2.411789 2.21875q-0.078125 0 -0.171875 -0.03125q-0.3125 -0.140625 -0.171875 -0.453125l3.015625 -6.640625q0.140625 -0.296875 0.4375 -0.171875q0.328125 0.140625 0.1875 0.4375l-3.03125 6.640625q-0.09375 0.21875 -0.265625 0.21875zm1.03125 -2.375q-0.140625 0.0625 -0.265625 0.03125q-0.109375 -0.046875 -0.1875 -0.1875l-2.078125 -4.3125q-0.0625 -0.140625 -0.015625 -0.265625q0.046875 -0.125 0.171875 -0.1875q0.140625 -0.0625 0.265625 -0.015625q0.125 0.03125 0.1875 0.171875l2.046875 4.3125q0.078125 0.140625 0.046875 0.265625q-0.03125 0.125 -0.171875 0.1875z" fill-rule="nonzero"/><path fill="#000000" d="m140.12605 560.0059q-0.171875 0 -0.265625 -0.109375q-0.09375 -0.09375 -0.09375 -0.265625l0 -4.390625q0 -0.734375 0.34375 -1.3125q0.34375 -0.59375 0.921875 -0.921875q0.59375 -0.34375 1.3125 -0.34375q0.75 0 1.328125 0.34375q0.59375 0.34375 0.9375 0.9375q0.34375 0.578125 0.34375 1.328125q0 0.734375 -0.34375 1.328125q-0.328125 0.578125 -0.90625 0.921875q-0.5625 0.34375 -1.28125 0.34375q-0.625 0 -1.140625 -0.265625q-0.5 -0.265625 -0.796875 -0.703125l0 2.734375q0 0.171875 -0.109375 0.265625q-0.09375 0.109375 -0.25 0.109375zm2.21875 -2.796875q0.546875 0 0.96875 -0.25q0.4375 -0.25 0.671875 -0.6875q0.25 -0.453125 0.25 -1.0q0 -0.5625 -0.25 -1.0q-0.234375 -0.4375 -0.671875 -0.6875q-0.421875 -0.265625 -0.96875 -0.265625q-0.53125 0 -0.96875 0.265625q-0.421875 0.25 -0.671875 0.6875q-0.234375 0.4375 -0.234375 1.0q0 0.546875 0.234375 1.0q0.25 0.4375 0.671875 0.6875q0.4375 0.25 0.96875 0.25zm4.313736 -2.53125q0.03125 -0.578125 0.296875 -1.03125q0.28125 -0.46875 0.71875 -0.71875q0.453125 -0.265625 0.984375 -0.265625q0.4375 0 0.671875 0.125q0.234375 0.109375 0.171875 0.34375q-0.03125 0.140625 -0.125 0.1875q-0.09375 0.046875 -0.21875 0.046875q-0.125 -0.015625 -0.28125 -0.03125q-0.53125 -0.046875 -0.9375 0.109375q-0.390625 0.15625 -0.640625 0.484375q-0.234375 0.3125 -0.234375 0.75l-0.40625 0zm0.046875 3.140625q-0.15625 0 -0.25 -0.09375q-0.09375 -0.09375 -0.09375 -0.265625l0 -4.390625q0 -0.171875 0.09375 -0.265625q0.09375 -0.09375 0.25 -0.09375q0.171875 0 0.265625 0.09375q0.09375 0.09375 0.09375 0.265625l0 4.390625q0 0.171875 -0.09375 0.265625q-0.09375 0.09375 -0.265625 0.09375zm5.867691 0.046875q-0.734375 0 -1.328125 -0.328125q-0.59375 -0.34375 -0.9375 -0.921875q-0.328125 -0.59375 -0.328125 -1.34375q0 -0.75 0.328125 -1.34375q0.34375 -0.59375 0.9375 -0.921875q0.59375 -0.34375 1.328125 -0.34375q0.75 0 1.328125 0.34375q0.59375 0.328125 0.921875 0.921875q0.34375 0.59375 0.34375 1.34375q0 0.75 -0.34375 1.34375q-0.328125 0.578125 -0.921875 0.921875q-0.578125 0.328125 -1.328125 0.328125zm0 -0.65625q0.546875 0 0.96875 -0.25q0.4375 -0.25 0.671875 -0.6875q0.25 -0.4375 0.25 -1.0q0 -0.5625 -0.25 -1.0q-0.234375 -0.453125 -0.671875 -0.703125q-0.421875 -0.25 -0.96875 -0.25q-0.53125 0 -0.96875 0.25q-0.421875 0.25 -0.671875 0.703125q-0.25 0.4375 -0.25 1.0q0 0.5625 0.25 1.0q0.25 0.4375 0.671875 0.6875q0.4375 0.25 0.96875 0.25zm6.31514 0.65625q-0.734375 0 -1.328125 -0.34375q-0.578125 -0.34375 -0.921875 -0.921875q-0.34375 -0.59375 -0.34375 -1.34375q0 -0.734375 0.328125 -1.3125q0.34375 -0.59375 0.90625 -0.9375q0.578125 -0.34375 1.296875 -0.34375q0.625 0 1.125 0.265625q0.5 0.265625 0.8125 0.71875l0 -2.75q0 -0.171875 0.09375 -0.265625q0.109375 -0.09375 0.265625 -0.09375q0.15625 0 0.25 0.09375q0.109375 0.09375 0.109375 0.265625l0 4.40625q-0.015625 0.71875 -0.359375 1.3125q-0.328125 0.578125 -0.921875 0.921875q-0.578125 0.328125 -1.3125 0.328125zm0 -0.65625q0.546875 0 0.96875 -0.25q0.421875 -0.265625 0.671875 -0.703125q0.25 -0.4375 0.25 -1.0q0 -0.546875 -0.25 -0.984375q-0.25 -0.453125 -0.671875 -0.703125q-0.421875 -0.25 -0.96875 -0.25q-0.53125 0 -0.96875 0.25q-0.421875 0.25 -0.671875 0.703125q-0.25 0.4375 -0.25 0.984375q0 0.5625 0.25 1.0q0.25 0.4375 0.671875 0.703125q0.4375 0.25 0.96875 0.25zm6.501236 0.671875q-0.671875 0 -1.1875 -0.28125q-0.515625 -0.28125 -0.828125 -0.8125q-0.296875 -0.53125 -0.296875 -1.296875l0 -2.421875q0 -0.140625 0.09375 -0.25q0.109375 -0.109375 0.25 -0.109375q0.171875 0 0.265625 0.109375q0.109375 0.109375 0.109375 0.25l0 2.421875q0 0.578125 0.21875 0.953125q0.21875 0.375 0.59375 0.5625q0.375 0.1875 0.859375 0.1875q0.453125 0 0.8125 -0.171875q0.375 -0.1875 0.578125 -0.484375q0.21875 -0.3125 0.21875 -0.703125l0.515625 0q-0.015625 0.578125 -0.3125 1.046875q-0.296875 0.46875 -0.796875 0.734375q-0.484375 0.265625 -1.09375 0.265625zm2.046875 -0.0625q-0.15625 0 -0.265625 -0.09375q-0.09375 -0.109375 -0.09375 -0.265625l0 -4.390625q0 -0.15625 0.09375 -0.25q0.109375 -0.109375 0.265625 -0.109375q0.15625 0 0.25 0.109375q0.109375 0.09375 0.109375 0.25l0 4.390625q0 0.15625 -0.109375 0.265625q-0.09375 0.09375 -0.25 0.09375zm4.31514 0.046875q-0.734375 0 -1.3125 -0.34375q-0.5625 -0.34375 -0.90625 -0.921875q-0.328125 -0.59375 -0.328125 -1.328125q0 -0.75 0.3125 -1.328125q0.328125 -0.59375 0.875 -0.9375q0.546875 -0.34375 1.265625 -0.34375q0.578125 0 1.046875 0.234375q0.484375 0.21875 0.859375 0.671875q0.09375 0.109375 0.0625 0.234375q-0.015625 0.125 -0.15625 0.21875q-0.09375 0.078125 -0.21875 0.0625q-0.125 -0.03125 -0.21875 -0.140625q-0.546875 -0.625 -1.375 -0.625q-0.515625 0 -0.921875 0.25q-0.390625 0.25 -0.609375 0.703125q-0.21875 0.4375 -0.21875 1.0q0 0.5625 0.234375 1.0q0.234375 0.4375 0.65625 0.6875q0.421875 0.25 0.953125 0.25q0.375 0 0.671875 -0.09375q0.296875 -0.09375 0.53125 -0.296875q0.125 -0.09375 0.234375 -0.109375q0.125 -0.015625 0.234375 0.078125q0.109375 0.09375 0.125 0.234375q0.015625 0.125 -0.09375 0.21875q-0.6875 0.625 -1.703125 0.625zm5.2783203 -0.046875q-0.484375 0 -0.875 -0.234375q-0.390625 -0.234375 -0.609375 -0.640625q-0.21875 -0.40625 -0.21875 -0.921875l0 -4.5625q0 -0.15625 0.09375 -0.25q0.09375 -0.109375 0.25 -0.109375q0.15625 0 0.265625 0.109375q0.109375 0.09375 0.109375 0.25l0 4.5625q0 0.46875 0.265625 0.78125q0.28125 0.296875 0.71875 0.296875l0.265625 0q0.140625 0 0.234375 0.109375q0.09375 0.09375 0.09375 0.25q0 0.15625 -0.109375 0.265625q-0.109375 0.09375 -0.28125 0.09375l-0.203125 0zm-2.3125 -4.296875q-0.140625 0 -0.234375 -0.078125q-0.09375 -0.09375 -0.09375 -0.21875q0 -0.140625 0.09375 -0.234375q0.09375 -0.09375 0.234375 -0.09375l2.375 0q0.140625 0 0.234375 0.09375q0.09375 0.09375 0.09375 0.234375q0 0.125 -0.09375 0.21875q-0.09375 0.078125 -0.234375 0.078125l-2.375 0zm4.5936584 4.296875q-0.171875 0 -0.28125 -0.09375q-0.09375 -0.109375 -0.09375 -0.265625l0 -4.375q0 -0.171875 0.09375 -0.265625q0.109375 -0.109375 0.28125 -0.109375q0.15625 0 0.25 0.109375q0.09375 0.09375 0.09375 0.265625l0 4.375q0 0.15625 -0.09375 0.265625q-0.09375 0.09375 -0.25 0.09375zm0.015625 -6.078125q-0.203125 0 -0.359375 -0.140625q-0.140625 -0.15625 -0.140625 -0.359375q0 -0.234375 0.15625 -0.375q0.15625 -0.140625 0.359375 -0.140625q0.1875 0 0.34375 0.140625q0.15625 0.140625 0.15625 0.375q0 0.203125 -0.15625 0.359375q-0.140625 0.140625 -0.359375 0.140625zm3.8989563 6.078125q-0.21875 0 -0.328125 -0.25l-2.078125 -4.390625q-0.046875 -0.109375 0 -0.234375q0.046875 -0.125 0.1875 -0.1875q0.125 -0.0625 0.25 -0.015625q0.125 0.046875 0.1875 0.15625l1.984375 4.3125l-0.390625 0l1.96875 -4.3125q0.046875 -0.125 0.1875 -0.15625q0.140625 -0.046875 0.265625 0q0.125 0.0625 0.171875 0.203125q0.046875 0.125 0 0.234375l-2.046875 4.390625q-0.109375 0.25 -0.359375 0.25zm5.5499115 0.046875q-0.765625 0 -1.34375 -0.328125q-0.578125 -0.328125 -0.921875 -0.921875q-0.328125 -0.59375 -0.328125 -1.34375q0 -0.765625 0.3125 -1.34375q0.3125 -0.59375 0.859375 -0.921875q0.5625 -0.34375 1.28125 -0.34375q0.703125 0 1.234375 0.328125q0.53125 0.328125 0.8125 0.890625q0.296875 0.5625 0.296875 1.296875q0 0.15625 -0.09375 0.25q-0.09375 0.078125 -0.25 0.078125l-3.96875 0l0 -0.59375l4.046875 0l-0.40625 0.28125q0.015625 -0.53125 -0.1875 -0.953125q-0.203125 -0.4375 -0.59375 -0.671875q-0.375 -0.25 -0.890625 -0.25q-0.53125 0 -0.9375 0.25q-0.40625 0.25 -0.625 0.703125q-0.21875 0.4375 -0.21875 1.0q0 0.5625 0.25 1.015625q0.25 0.4375 0.671875 0.6875q0.4375 0.25 1.0 0.25q0.328125 0 0.671875 -0.109375q0.34375 -0.125 0.546875 -0.296875q0.109375 -0.09375 0.234375 -0.09375q0.125 0 0.21875 0.0625q0.125 0.109375 0.125 0.25q0.015625 0.125 -0.109375 0.21875q-0.296875 0.265625 -0.78125 0.4375q-0.46875 0.171875 -0.90625 0.171875z" fill-rule="nonzero"/><path fill="#000000" fill-opacity="0.0" d="m-0.0010540682 528.85846l84.661415 0l0 35.307068l-84.661415 0z" fill-rule="evenodd"/><path fill="#000000" d="m10.295821 546.8184q-0.15625 0 -0.265625 -0.09375q-0.09375 -0.109375 -0.09375 -0.265625l0 -6.5625q0 -0.15625 0.09375 -0.25q0.109375 -0.109375 0.265625 -0.109375q0.15625 0 0.25 0.109375q0.109375 0.09375 0.109375 0.25l0 6.234375l3.65625 0q0.140625 0 0.25 0.09375q0.109375 0.09375 0.109375 0.25q0 0.140625 -0.109375 0.25q-0.109375 0.09375 -0.25 0.09375l-4.015625 0zm7.764083 0.046875q-0.734375 0 -1.328125 -0.328125q-0.59375 -0.34375 -0.93749905 -0.921875q-0.328125 -0.59375 -0.328125 -1.34375q0 -0.75 0.328125 -1.34375q0.34374905 -0.59375 0.93749905 -0.921875q0.59375 -0.34375 1.328125 -0.34375q0.75 0 1.328125 0.34375q0.59375 0.328125 0.921875 0.921875q0.34375 0.59375 0.34375 1.34375q0 0.75 -0.34375 1.34375q-0.328125 0.578125 -0.921875 0.921875q-0.578125 0.328125 -1.328125 0.328125zm0 -0.65625q0.546875 0 0.96875 -0.25q0.4375 -0.25 0.671875 -0.6875q0.25 -0.4375 0.25 -1.0q0 -0.5625 -0.25 -1.0q-0.234375 -0.453125 -0.671875 -0.703125q-0.421875 -0.25 -0.96875 -0.25q-0.53125 0 -0.96875 0.25q-0.421875 0.25 -0.671875 0.703125q-0.25 0.4375 -0.25 1.0q0 0.5625 0.25 1.0q0.25 0.4375 0.671875 0.6875q0.4375 0.25 0.96875 0.25zm4.878891 0.609375q-0.125 0 -0.21875 -0.0625q-0.09375 -0.0625 -0.125 -0.171875l-1.453125 -4.359375q-0.0625 -0.234375 0 -0.375q0.0625 -0.140625 0.265625 -0.140625q0.125 0 0.21875 0.078125q0.09375 0.0625 0.140625 0.203125l1.296875 3.953125l-0.21875 0l1.203125 -3.953125q0.046875 -0.109375 0.125 -0.1875q0.09375 -0.09375 0.234375 -0.09375q0.140625 0 0.21875 0.078125q0.09375 0.078125 0.140625 0.203125l1.140625 3.875l-0.15625 0l1.265625 -3.875q0.09375 -0.28125 0.34375 -0.28125q0.203125 0 0.28125 0.15625q0.078125 0.15625 0 0.359375l-1.453125 4.359375q-0.03125 0.109375 -0.125 0.171875q-0.09375 0.0625 -0.203125 0.0625q-0.125 0 -0.234375 -0.0625q-0.09375 -0.0625 -0.109375 -0.171875l-1.1875 -3.890625l0.109375 0l-1.171875 3.890625q-0.03125 0.109375 -0.125 0.171875q-0.09375 0.0625 -0.203125 0.0625z" fill-rule="nonzero"/><path fill="#000000" d="m10.202071 560.0059q-0.171875 0 -0.265625 -0.109375q-0.09375 -0.09375 -0.09375 -0.265625l0 -4.390625q0 -0.734375 0.34375 -1.3125q0.34375 -0.59375 0.921875 -0.921875q0.59375 -0.34375 1.3125 -0.34375q0.75 0 1.328125 0.34375q0.59375 0.34375 0.9375 0.9375q0.34375 0.578125 0.34375 1.328125q0 0.734375 -0.34375 1.328125q-0.328125 0.578125 -0.90625 0.921875q-0.5625 0.34375 -1.28125 0.34375q-0.625 0 -1.140625 -0.265625q-0.5 -0.265625 -0.796875 -0.703125l0 2.734375q0 0.171875 -0.109375 0.265625q-0.09375 0.109375 -0.25 0.109375zm2.21875 -2.796875q0.546875 0 0.96875 -0.25q0.4375 -0.25 0.671875 -0.6875q0.25 -0.453125 0.25 -1.0q0 -0.5625 -0.25 -1.0q-0.234375 -0.4375 -0.671875 -0.6875q-0.421875 -0.265625 -0.96875 -0.265625q-0.53125 0 -0.96875 0.265625q-0.421875 0.25 -0.671875 0.6875q-0.234375 0.4375 -0.234375 1.0q0 0.546875 0.234375 1.0q0.25 0.4375 0.671875 0.6875q0.4375 0.25 0.96875 0.25zm4.313735 -2.53125q0.03125 -0.578125 0.296875 -1.03125q0.28125 -0.46875 0.71875 -0.71875q0.453125 -0.265625 0.984375 -0.265625q0.4375 0 0.671875 0.125q0.234375 0.109375 0.171875 0.34375q-0.03125 0.140625 -0.125 0.1875q-0.09375 0.046875 -0.21875 0.046875q-0.125 -0.015625 -0.28125 -0.03125q-0.53125 -0.046875 -0.9375 0.109375q-0.390625 0.15625 -0.640625 0.484375q-0.234375 0.3125 -0.234375 0.75l-0.40625 0zm0.046875 3.140625q-0.15625 0 -0.25 -0.09375q-0.09375 -0.09375 -0.09375 -0.265625l0 -4.390625q0 -0.171875 0.09375 -0.265625q0.09375 -0.09375 0.25 -0.09375q0.171875 0 0.265625 0.09375q0.09375 0.09375 0.09375 0.265625l0 4.390625q0 0.171875 -0.09375 0.265625q-0.09375 0.09375 -0.265625 0.09375zm5.867691 0.046875q-0.734375 0 -1.328125 -0.328125q-0.59375 -0.34375 -0.9375 -0.921875q-0.328125 -0.59375 -0.328125 -1.34375q0 -0.75 0.328125 -1.34375q0.34375 -0.59375 0.9375 -0.921875q0.59375 -0.34375 1.328125 -0.34375q0.75 0 1.328125 0.34375q0.59375 0.328125 0.921875 0.921875q0.34375 0.59375 0.34375 1.34375q0 0.75 -0.34375 1.34375q-0.328125 0.578125 -0.921875 0.921875q-0.578125 0.328125 -1.328125 0.328125zm0 -0.65625q0.546875 0 0.96875 -0.25q0.4375 -0.25 0.671875 -0.6875q0.25 -0.4375 0.25 -1.0q0 -0.5625 -0.25 -1.0q-0.234375 -0.453125 -0.671875 -0.703125q-0.421875 -0.25 -0.96875 -0.25q-0.53125 0 -0.96875 0.25q-0.421875 0.25 -0.671875 0.703125q-0.25 0.4375 -0.25 1.0q0 0.5625 0.25 1.0q0.25 0.4375 0.671875 0.6875q0.4375 0.25 0.96875 0.25zm6.31514 0.65625q-0.734375 0 -1.328125 -0.34375q-0.578125 -0.34375 -0.921875 -0.921875q-0.34375 -0.59375 -0.34375 -1.34375q0 -0.734375 0.328125 -1.3125q0.34375 -0.59375 0.90625 -0.9375q0.578125 -0.34375 1.296875 -0.34375q0.625 0 1.125 0.265625q0.5 0.265625 0.8125 0.71875l0 -2.75q0 -0.171875 0.09375 -0.265625q0.109375 -0.09375 0.265625 -0.09375q0.15625 0 0.25 0.09375q0.109375 0.09375 0.109375 0.265625l0 4.40625q-0.015625 0.71875 -0.359375 1.3125q-0.328125 0.578125 -0.921875 0.921875q-0.578125 0.328125 -1.3125 0.328125zm0 -0.65625q0.546875 0 0.96875 -0.25q0.421875 -0.265625 0.671875 -0.703125q0.25 -0.4375 0.25 -1.0q0 -0.546875 -0.25 -0.984375q-0.25 -0.453125 -0.671875 -0.703125q-0.421875 -0.25 -0.96875 -0.25q-0.53125 0 -0.96875 0.25q-0.421875 0.25 -0.671875 0.703125q-0.25 0.4375 -0.25 0.984375q0 0.5625 0.25 1.0q0.25 0.4375 0.671875 0.703125q0.4375 0.25 0.96875 0.25zm6.501238 0.671875q-0.671875 0 -1.1875 -0.28125q-0.515625 -0.28125 -0.828125 -0.8125q-0.296875 -0.53125 -0.296875 -1.296875l0 -2.421875q0 -0.140625 0.09375 -0.25q0.109375 -0.109375 0.25 -0.109375q0.171875 0 0.265625 0.109375q0.109375 0.109375 0.109375 0.25l0 2.421875q0 0.578125 0.21875 0.953125q0.21875 0.375 0.59375 0.5625q0.375 0.1875 0.859375 0.1875q0.453125 0 0.8125 -0.171875q0.375 -0.1875 0.578125 -0.484375q0.21875 -0.3125 0.21875 -0.703125l0.515625 0q-0.015625 0.578125 -0.3125 1.046875q-0.296875 0.46875 -0.796875 0.734375q-0.484375 0.265625 -1.09375 0.265625zm2.046875 -0.0625q-0.15625 0 -0.265625 -0.09375q-0.09375 -0.109375 -0.09375 -0.265625l0 -4.390625q0 -0.15625 0.09375 -0.25q0.109375 -0.109375 0.265625 -0.109375q0.15625 0 0.25 0.109375q0.109375 0.09375 0.109375 0.25l0 4.390625q0 0.15625 -0.109375 0.265625q-0.09375 0.09375 -0.25 0.09375zm4.31514 0.046875q-0.734375 0 -1.3125 -0.34375q-0.5625 -0.34375 -0.90625 -0.921875q-0.328125 -0.59375 -0.328125 -1.328125q0 -0.75 0.3125 -1.328125q0.328125 -0.59375 0.875 -0.9375q0.546875 -0.34375 1.265625 -0.34375q0.578125 0 1.046875 0.234375q0.484375 0.21875 0.859375 0.671875q0.09375 0.109375 0.0625 0.234375q-0.015625 0.125 -0.15625 0.21875q-0.09375 0.078125 -0.21875 0.0625q-0.125 -0.03125 -0.21875 -0.140625q-0.546875 -0.625 -1.375 -0.625q-0.515625 0 -0.921875 0.25q-0.390625 0.25 -0.609375 0.703125q-0.21875 0.4375 -0.21875 1.0q0 0.5625 0.234375 1.0q0.234375 0.4375 0.65625 0.6875q0.421875 0.25 0.953125 0.25q0.375 0 0.671875 -0.09375q0.296875 -0.09375 0.53125 -0.296875q0.125 -0.09375 0.234375 -0.109375q0.125 -0.015625 0.234375 0.078125q0.109375 0.09375 0.125 0.234375q0.015625 0.125 -0.09375 0.21875q-0.6875 0.625 -1.703125 0.625zm5.2783203 -0.046875q-0.484375 0 -0.875 -0.234375q-0.390625 -0.234375 -0.609375 -0.640625q-0.21875 -0.40625 -0.21875 -0.921875l0 -4.5625q0 -0.15625 0.09375 -0.25q0.09375 -0.109375 0.25 -0.109375q0.15625 0 0.265625 0.109375q0.109375 0.09375 0.109375 0.25l0 4.5625q0 0.46875 0.265625 0.78125q0.28125 0.296875 0.71875 0.296875l0.265625 0q0.140625 0 0.234375 0.109375q0.09375 0.09375 0.09375 0.25q0 0.15625 -0.109375 0.265625q-0.109375 0.09375 -0.28125 0.09375l-0.203125 0zm-2.3125 -4.296875q-0.140625 0 -0.234375 -0.078125q-0.09375 -0.09375 -0.09375 -0.21875q0 -0.140625 0.09375 -0.234375q0.09375 -0.09375 0.234375 -0.09375l2.375 0q0.140625 0 0.234375 0.09375q0.09375 0.09375 0.09375 0.234375q0 0.125 -0.09375 0.21875q-0.09375 0.078125 -0.234375 0.078125l-2.375 0zm4.5936584 4.296875q-0.171875 0 -0.28125 -0.09375q-0.09375 -0.109375 -0.09375 -0.265625l0 -4.375q0 -0.171875 0.09375 -0.265625q0.109375 -0.109375 0.28125 -0.109375q0.15625 0 0.25 0.109375q0.09375 0.09375 0.09375 0.265625l0 4.375q0 0.15625 -0.09375 0.265625q-0.09375 0.09375 -0.25 0.09375zm0.015625 -6.078125q-0.203125 0 -0.359375 -0.140625q-0.140625 -0.15625 -0.140625 -0.359375q0 -0.234375 0.15625 -0.375q0.15625 -0.140625 0.359375 -0.140625q0.1875 0 0.34375 0.140625q0.15625 0.140625 0.15625 0.375q0 0.203125 -0.15625 0.359375q-0.140625 0.140625 -0.359375 0.140625zm3.8989563 6.078125q-0.21875 0 -0.328125 -0.25l-2.078125 -4.390625q-0.046875 -0.109375 0 -0.234375q0.046875 -0.125 0.1875 -0.1875q0.125 -0.0625 0.25 -0.015625q0.125 0.046875 0.1875 0.15625l1.984375 4.3125l-0.390625 0l1.96875 -4.3125q0.046875 -0.125 0.1875 -0.15625q0.140625 -0.046875 0.265625 0q0.125 0.0625 0.171875 0.203125q0.046875 0.125 0 0.234375l-2.046875 4.390625q-0.109375 0.25 -0.359375 0.25zm3.9396973 0q-0.171875 0 -0.28125 -0.09375q-0.09375 -0.109375 -0.09375 -0.265625l0 -4.375q0 -0.171875 0.09375 -0.265625q0.109375 -0.109375 0.28125 -0.109375q0.15625 0 0.25 0.109375q0.09375 0.09375 0.09375 0.265625l0 4.375q0 0.15625 -0.09375 0.265625q-0.09375 0.09375 -0.25 0.09375zm0.015625 -6.078125q-0.203125 0 -0.359375 -0.140625q-0.140625 -0.15625 -0.140625 -0.359375q0 -0.234375 0.15625 -0.375q0.15625 -0.140625 0.359375 -0.140625q0.1875 0 0.34375 0.140625q0.15625 0.140625 0.15625 0.375q0 0.203125 -0.15625 0.359375q-0.140625 0.140625 -0.359375 0.140625zm4.1489563 6.078125q-0.484375 0 -0.875 -0.234375q-0.390625 -0.234375 -0.609375 -0.640625q-0.21875 -0.40625 -0.21875 -0.921875l0 -4.5625q0 -0.15625 0.09375 -0.25q0.09375 -0.109375 0.25 -0.109375q0.15625 0 0.265625 0.109375q0.109375 0.09375 0.109375 0.25l0 4.5625q0 0.46875 0.265625 0.78125q0.28125 0.296875 0.71875 0.296875l0.265625 0q0.140625 0 0.234375 0.109375q0.09375 0.09375 0.09375 0.25q0 0.15625 -0.109375 0.265625q-0.109375 0.09375 -0.28125 0.09375l-0.203125 0zm-2.3125 -4.296875q-0.140625 0 -0.234375 -0.078125q-0.09375 -0.09375 -0.09375 -0.21875q0 -0.140625 0.09375 -0.234375q0.09375 -0.09375 0.234375 -0.09375l2.375 0q0.140625 0 0.234375 0.09375q0.09375 0.09375 0.09375 0.234375q0 0.125 -0.09375 0.21875q-0.09375 0.078125 -0.234375 0.078125l-2.375 0zm4.9530334 6.515625q-0.078125 0 -0.171875 -0.03125q-0.3125 -0.140625 -0.171875 -0.453125l3.015625 -6.640625q0.140625 -0.296875 0.4375 -0.171875q0.328125 0.140625 0.1875 0.4375l-3.03125 6.640625q-0.09375 0.21875 -0.265625 0.21875zm1.03125 -2.375q-0.140625 0.0625 -0.265625 0.03125q-0.109375 -0.046875 -0.1875 -0.1875l-2.078125 -4.3125q-0.0625 -0.140625 -0.015625 -0.265625q0.046875 -0.125 0.171875 -0.1875q0.140625 -0.0625 0.265625 -0.015625q0.125 0.03125 0.1875 0.171875l2.046875 4.3125q0.078125 0.140625 0.046875 0.265625q-0.03125 0.125 -0.171875 0.1875z" fill-rule="nonzero"/><path fill="#0000ff" d="m264.5951 207.1319l0 0c0 -2.9049377 2.467743 -5.259857 5.5118103 -5.259857l0 0c1.4618225 0 2.8637695 0.5541687 3.897461 1.5405731c1.0336609 0.9864197 1.6143494 2.3242798 1.6143494 3.719284l0 0c0 2.9049225 -2.4677124 5.259842 -5.5118103 5.259842l0 0c-3.0440674 0 -5.5118103 -2.3549194 -5.5118103 -5.259842z" fill-rule="evenodd"/></g></svg>