<svg version="1.1" viewBox="0.0 0.0 576.0 576.0" fill="none" stroke="none" stroke-linecap="square" stroke-miterlimit="10" xmlns:xlink="http://www.w3.org/1999/xlink" xmlns="http://www.w3.org/2000/svg"><clipPath id="gb316f53133_0_58.0"><path d="m0 0l576.0 0l0 576.0l-576.0 0l0 -576.0z" clip-rule="nonzero"/></clipPath><g clip-path="url(#gb316f53133_0_58.0)"><path fill="#ffffff" d="m0 0l576.0 0l0 576.0l-576.0 0z" fill-rule="evenodd"/><path fill="#000000" fill-opacity="0.0" d="m11.062992 326.74802l162.23622 -247.59055l162.23622 247.59055z" fill-rule="evenodd"/><path stroke="#000000" stroke-width="8.0" stroke-linejoin="round" stroke-linecap="butt" d="m11.062992 326.74802l162.23622 -247.59055l162.23622 247.59055z" fill-rule="evenodd"/><path fill="#000000" fill-opacity="0.0" d="m337.0105 196.73753l117.02362 -138.61417l117.02362 138.61417z" fill-rule="evenodd"/><path stroke="#000000" stroke-width="8.0" stroke-linejoin="round" stroke-linecap="butt" d="m337.0105 196.73753l117.02362 -138.61417l117.02362 138.61417z" fill-rule="evenodd"/><path fill="#000000" fill-opacity="0.0" d="m235.86876 118.220474l61.87401 -99.11811l61.874023 99.11811z" fill-rule="evenodd"/><path stroke="#000000" stroke-width="8.0" stroke-linejoin="round" stroke-linecap="butt" d="m235.86876 118.220474l61.87401 -99.11811l61.874023 99.11811z" fill-rule="evenodd"/><path fill="#000000" fill-opacity="0.0" d="m145.04987 35.737534l154.51968 40.472443" fill-rule="evenodd"/><path stroke="#cccccc" stroke-width="2.0" stroke-linejoin="round" stroke-linecap="butt" d="m145.04987 35.737534l154.51968 40.472443" fill-rule="evenodd"/><path fill="#000000" fill-opacity="0.0" d="m45.721786 161.86876l253.32283 -60.944878" fill-rule="evenodd"/><path stroke="#cccccc" stroke-width="2.0" stroke-linejoin="round" stroke-linecap="butt" d="m45.721786 161.86876l253.32283 -60.944878" fill-rule="evenodd"/><path fill="#ff0000" d="m12.868767 510.2217l0 0c0 -4.139984 3.2432919 -7.496063 7.244095 -7.496063l0 0c1.9212532 0 3.7638168 0.7897339 5.122347 2.1955261c1.358532 1.4057922 2.121746 3.312439 2.121746 5.300537l0 0c0 4.139923 -3.24329 7.496063 -7.244093 7.496063l0 0c-4.000803 0 -7.244095 -3.3561401 -7.244095 -7.496063z" fill-rule="evenodd"/><path fill="#000000" fill-opacity="0.0" d="m23.299213 495.9353l264.6929 0l0 35.307068l-264.6929 0z" fill-rule="evenodd"/><path fill="#000000" d="m32.830463 513.8953q-0.21875 0 -0.3125 -0.171875q-0.09375 -0.1875 -0.015625 -0.34375l2.75 -6.5156555q0.09375 -0.25 0.34375 -0.25q0.25 0 0.34375 0.25l2.765625 6.5156555q0.078125 0.1875 -0.03125 0.359375q-0.109375 0.15625 -0.296875 0.15625q-0.125 0 -0.21875 -0.046875q-0.078125 -0.0625 -0.125 -0.171875l-2.578125 -6.2344055l0.296875 0l-2.578125 6.2344055q-0.046875 0.109375 -0.140625 0.171875q-0.09375 0.046875 -0.203125 0.046875zm0.609375 -1.734375l0.28125 -0.6250305l3.796875 0l0.28125 0.6250305l-4.359375 0zm8.042053 1.78125q-0.546875 0 -1.09375 -0.1875q-0.546875 -0.1875 -0.875 -0.5625q-0.109375 -0.109375 -0.09375 -0.25q0.03125 -0.140625 0.140625 -0.234375q0.140625 -0.09375 0.28125 -0.078125q0.140625 0.015625 0.234375 0.125q0.21875 0.25 0.578125 0.390625q0.375 0.140625 0.828125 0.140625q0.6875 0 0.984375 -0.234375q0.3125 -0.234375 0.328125 -0.578125q0 -0.328125 -0.328125 -0.5469055q-0.3125 -0.21875 -1.03125 -0.34375q-0.953125 -0.15625 -1.390625 -0.515625q-0.4375 -0.375 -0.4375 -0.890625q0 -0.484375 0.25 -0.796875q0.265625 -0.3125 0.671875 -0.46875q0.421875 -0.171875 0.9375 -0.171875q0.625 0 1.0625 0.21875q0.453125 0.21875 0.734375 0.578125q0.09375 0.125 0.078125 0.265625q-0.015625 0.125 -0.140625 0.203125q-0.125 0.0625 -0.265625 0.046875q-0.140625 -0.03125 -0.25 -0.140625q-0.234375 -0.265625 -0.546875 -0.390625q-0.296875 -0.125 -0.703125 -0.125q-0.5 0 -0.8125 0.21875q-0.3125 0.203125 -0.3125 0.515625q0 0.21875 0.109375 0.375q0.125 0.15625 0.40625 0.28125q0.28125 0.109375 0.796875 0.203125q0.703125 0.109375 1.109375 0.328125q0.40625 0.21875 0.578125 0.515625q0.171875 0.29690552 0.171875 0.6406555q0 0.4375 -0.265625 0.765625q-0.25 0.328125 -0.703125 0.515625q-0.453125 0.1875 -1.03125 0.1875zm5.0278625 0q-0.546875 0 -1.09375 -0.1875q-0.546875 -0.1875 -0.875 -0.5625q-0.109375 -0.109375 -0.09375 -0.25q0.03125 -0.140625 0.140625 -0.234375q0.140625 -0.09375 0.28125 -0.078125q0.140625 0.015625 0.234375 0.125q0.21875 0.25 0.578125 0.390625q0.375 0.140625 0.828125 0.140625q0.6875 0 0.984375 -0.234375q0.3125 -0.234375 0.328125 -0.578125q0 -0.328125 -0.328125 -0.5469055q-0.3125 -0.21875 -1.03125 -0.34375q-0.953125 -0.15625 -1.390625 -0.515625q-0.4375 -0.375 -0.4375 -0.890625q0 -0.484375 0.25 -0.796875q0.265625 -0.3125 0.671875 -0.46875q0.421875 -0.171875 0.9375 -0.171875q0.625 0 1.0625 0.21875q0.453125 0.21875 0.734375 0.578125q0.09375 0.125 0.078125 0.265625q-0.015625 0.125 -0.140625 0.203125q-0.125 0.0625 -0.265625 0.046875q-0.140625 -0.03125 -0.25 -0.140625q-0.234375 -0.265625 -0.546875 -0.390625q-0.296875 -0.125 -0.703125 -0.125q-0.5 0 -0.8125 0.21875q-0.3125 0.203125 -0.3125 0.515625q0 0.21875 0.109375 0.375q0.125 0.15625 0.40625 0.28125q0.28125 0.109375 0.796875 0.203125q0.703125 0.109375 1.109375 0.328125q0.40625 0.21875 0.578125 0.515625q0.171875 0.29690552 0.171875 0.6406555q0 0.4375 -0.265625 0.765625q-0.25 0.328125 -0.703125 0.515625q-0.453125 0.1875 -1.03125 0.1875zm5.5591125 0q-0.765625 0 -1.34375 -0.328125q-0.578125 -0.328125 -0.921875 -0.921875q-0.328125 -0.59375 -0.328125 -1.3437805q0 -0.765625 0.3125 -1.34375q0.3125 -0.59375 0.859375 -0.921875q0.5625 -0.34375 1.28125 -0.34375q0.703125 0 1.234375 0.328125q0.53125 0.328125 0.8125 0.890625q0.296875 0.5625 0.296875 1.296875q0 0.15625 -0.09375 0.25q-0.09375 0.078125 -0.25 0.078125l-3.96875 0l0 -0.59375l4.046875 0l-0.40625 0.28125q0.015625 -0.53125 -0.1875 -0.953125q-0.203125 -0.4375 -0.59375 -0.671875q-0.375 -0.25 -0.890625 -0.25q-0.53125 0 -0.9375 0.25q-0.40625 0.25 -0.625 0.703125q-0.21875 0.4375 -0.21875 1.0q0 0.5625 0.25 1.0156555q0.25 0.4375 0.671875 0.6875q0.4375 0.25 1.0 0.25q0.328125 0 0.671875 -0.109375q0.34375 -0.125 0.546875 -0.296875q0.109375 -0.09375 0.234375 -0.09375q0.125 0 0.21875 0.0625q0.125 0.109375 0.125 0.25q0.015625 0.125 -0.109375 0.21875q-0.296875 0.265625 -0.78125 0.4375q-0.46875 0.171875 -0.90625 0.171875zm5.399338 -0.046875q-0.484375 0 -0.875 -0.234375q-0.390625 -0.234375 -0.609375 -0.640625q-0.21875 -0.40625 -0.21875 -0.921875l0 -4.5625305q0 -0.15625 0.09375 -0.25q0.09375 -0.109375 0.25 -0.109375q0.15625 0 0.265625 0.109375q0.109375 0.09375 0.109375 0.25l0 4.5625305q0 0.46875 0.265625 0.78125q0.28125 0.296875 0.71875 0.296875l0.265625 0q0.140625 0 0.234375 0.109375q0.09375 0.09375 0.09375 0.25q0 0.15625 -0.109375 0.265625q-0.109375 0.09375 -0.28125 0.09375l-0.203125 0zm-2.3125 -4.2969055q-0.140625 0 -0.234375 -0.078125q-0.09375 -0.09375 -0.09375 -0.21875q0 -0.140625 0.09375 -0.234375q0.09375 -0.09375 0.234375 -0.09375l2.375 0q0.140625 0 0.234375 0.09375q0.09375 0.09375 0.09375 0.234375q0 0.125 -0.09375 0.21875q-0.09375 0.078125 -0.234375 0.078125l-2.375 0zm5.8592834 4.3437805q-0.546875 0 -1.09375 -0.1875q-0.546875 -0.1875 -0.875 -0.5625q-0.109375 -0.109375 -0.09375 -0.25q0.03125 -0.140625 0.140625 -0.234375q0.140625 -0.09375 0.28125 -0.078125q0.140625 0.015625 0.234375 0.125q0.21875 0.25 0.578125 0.390625q0.375 0.140625 0.828125 0.140625q0.6875 0 0.984375 -0.234375q0.3125 -0.234375 0.328125 -0.578125q0 -0.328125 -0.328125 -0.5469055q-0.3125 -0.21875 -1.03125 -0.34375q-0.953125 -0.15625 -1.390625 -0.515625q-0.4375 -0.375 -0.4375 -0.890625q0 -0.484375 0.25 -0.796875q0.265625 -0.3125 0.671875 -0.46875q0.421875 -0.171875 0.9375 -0.171875q0.625 0 1.0625 0.21875q0.453125 0.21875 0.734375 0.578125q0.09375 0.125 0.078125 0.265625q-0.015625 0.125 -0.140625 0.203125q-0.125 0.0625 -0.265625 0.046875q-0.140625 -0.03125 -0.25 -0.140625q-0.234375 -0.265625 -0.546875 -0.390625q-0.296875 -0.125 -0.703125 -0.125q-0.5 0 -0.8125 0.21875q-0.3125 0.203125 -0.3125 0.515625q0 0.21875 0.109375 0.375q0.125 0.15625 0.40625 0.28125q0.28125 0.109375 0.796875 0.203125q0.703125 0.109375 1.109375 0.328125q0.40625 0.21875 0.578125 0.515625q0.171875 0.29690552 0.171875 0.6406555q0 0.4375 -0.265625 0.765625q-0.25 0.328125 -0.703125 0.515625q-0.453125 0.1875 -1.03125 0.1875zm3.1528587 1.46875q-0.09375 0 -0.140625 -0.0625q-0.046871185 -0.046875 -0.046871185 -0.125q0 -0.140625 0.078121185 -0.265625q0.09375 -0.109375 0.171875 -0.25q0.09375 -0.125 0.09375 -0.3125q0 -0.171875 -0.0625 -0.28125q-0.0625 -0.109375 -0.15625 -0.203125q-0.09375 -0.078125 -0.15624619 -0.1875q-0.0625 -0.109375 -0.0625 -0.265625q0 -0.234375 0.15624619 -0.375q0.15625 -0.140625 0.375 -0.140625q0.28125 0 0.453125 0.21875q0.1875 0.21875 0.1875 0.609375q0 0.265625 -0.078125 0.546875q-0.0625 0.296875 -0.203125 0.546875q-0.125 0.25 -0.28125 0.390625q-0.15625 0.15625 -0.328125 0.15625zm5.2944183 0.671875q-0.171875 0 -0.265625 -0.109375q-0.09375 -0.09375 -0.09375 -0.265625l0 -4.3906555q0 -0.734375 0.34375 -1.3125q0.34375 -0.59375 0.921875 -0.921875q0.59375 -0.34375 1.3125 -0.34375q0.75 0 1.328125 0.34375q0.59375 0.34375 0.9375 0.9375q0.34375 0.578125 0.34375 1.328125q0 0.7344055 -0.34375 1.3281555q-0.328125 0.578125 -0.90625 0.921875q-0.5625 0.34375 -1.28125 0.34375q-0.625 0 -1.140625 -0.265625q-0.5 -0.265625 -0.796875 -0.703125l0 2.734375q0 0.171875 -0.109375 0.265625q-0.09375 0.109375 -0.25 0.109375zm2.21875 -2.796875q0.546875 0 0.96875 -0.25q0.4375 -0.25 0.671875 -0.6875q0.25 -0.45315552 0.25 -1.0000305q0 -0.5625 -0.25 -1.0q-0.234375 -0.4375 -0.671875 -0.6875q-0.421875 -0.265625 -0.96875 -0.265625q-0.53125 0 -0.96875 0.265625q-0.421875 0.25 -0.671875 0.6875q-0.234375 0.4375 -0.234375 1.0q0 0.546875 0.234375 1.0000305q0.25 0.4375 0.671875 0.6875q0.4375 0.25 0.96875 0.25zm4.313736 -2.5312805q0.03125 -0.578125 0.296875 -1.03125q0.28125 -0.46875 0.71875 -0.71875q0.453125 -0.265625 0.984375 -0.265625q0.4375 0 0.671875 0.125q0.234375 0.109375 0.171875 0.34375q-0.03125 0.140625 -0.125 0.1875q-0.09375 0.046875 -0.21875 0.046875q-0.125 -0.015625 -0.28125 -0.03125q-0.53125 -0.046875 -0.9375 0.109375q-0.390625 0.15625 -0.640625 0.484375q-0.234375 0.3125 -0.234375 0.75l-0.40625 0zm0.046875 3.1406555q-0.15625 0 -0.25 -0.09375q-0.09375 -0.09375 -0.09375 -0.265625l0 -4.3906555q0 -0.171875 0.09375 -0.265625q0.09375 -0.09375 0.25 -0.09375q0.171875 0 0.265625 0.09375q0.09375 0.09375 0.09375 0.265625l0 4.3906555q0 0.171875 -0.09375 0.265625q-0.09375 0.09375 -0.265625 0.09375zm5.867691 0.046875q-0.734375 0 -1.328125 -0.328125q-0.59375 -0.34375 -0.9375 -0.921875q-0.328125 -0.59375 -0.328125 -1.3437805q0 -0.75 0.328125 -1.34375q0.34375 -0.59375 0.9375 -0.921875q0.59375 -0.34375 1.328125 -0.34375q0.75 0 1.328125 0.34375q0.59375 0.328125 0.921875 0.921875q0.34375 0.59375 0.34375 1.34375q0 0.7500305 -0.34375 1.3437805q-0.328125 0.578125 -0.921875 0.921875q-0.578125 0.328125 -1.328125 0.328125zm0 -0.65625q0.546875 0 0.96875 -0.25q0.4375 -0.25 0.671875 -0.6875q0.25 -0.43753052 0.25 -1.0000305q0 -0.5625 -0.25 -1.0q-0.234375 -0.453125 -0.671875 -0.703125q-0.421875 -0.25 -0.96875 -0.25q-0.53125 0 -0.96875 0.25q-0.421875 0.25 -0.671875 0.703125q-0.25 0.4375 -0.25 1.0q0 0.5625 0.25 1.0000305q0.25 0.4375 0.671875 0.6875q0.4375 0.25 0.96875 0.25zm6.268265 0.65625q-0.734375 0 -1.3125 -0.34375q-0.5625 -0.34375 -0.90625 -0.921875q-0.328125 -0.59375 -0.328125 -1.3281555q0 -0.75 0.3125 -1.328125q0.328125 -0.59375 0.875 -0.9375q0.546875 -0.34375 1.265625 -0.34375q0.578125 0 1.046875 0.234375q0.484375 0.21875 0.859375 0.671875q0.09375 0.109375 0.0625 0.234375q-0.015625 0.125 -0.15625 0.21875q-0.09375 0.078125 -0.21875 0.0625q-0.125 -0.03125 -0.21875 -0.140625q-0.546875 -0.625 -1.375 -0.625q-0.515625 0 -0.921875 0.25q-0.390625 0.25 -0.609375 0.703125q-0.21875 0.4375 -0.21875 1.0q0 0.5625 0.234375 1.0000305q0.234375 0.4375 0.65625 0.6875q0.421875 0.25 0.953125 0.25q0.375 0 0.671875 -0.09375q0.296875 -0.09375 0.53125 -0.296875q0.125 -0.09375 0.234375 -0.109375q0.125 -0.015625 0.234375 0.078125q0.109375 0.09375 0.125 0.234375q0.015625 0.125 -0.09375 0.21875q-0.6875 0.625 -1.703125 0.625zm5.6064453 0q-0.765625 0 -1.34375 -0.328125q-0.578125 -0.328125 -0.921875 -0.921875q-0.328125 -0.59375 -0.328125 -1.3437805q0 -0.765625 0.3125 -1.34375q0.3125 -0.59375 0.859375 -0.921875q0.5625 -0.34375 1.28125 -0.34375q0.703125 0 1.234375 0.328125q0.53125 0.328125 0.8125 0.890625q0.296875 0.5625 0.296875 1.296875q0 0.15625 -0.09375 0.25q-0.09375 0.078125 -0.25 0.078125l-3.96875 0l0 -0.59375l4.046875 0l-0.40625 0.28125q0.015625 -0.53125 -0.1875 -0.953125q-0.203125 -0.4375 -0.59375 -0.671875q-0.375 -0.25 -0.890625 -0.25q-0.53125 0 -0.9375 0.25q-0.40625 0.25 -0.625 0.703125q-0.21875 0.4375 -0.21875 1.0q0 0.5625 0.25 1.0156555q0.25 0.4375 0.671875 0.6875q0.4375 0.25 1.0 0.25q0.328125 0 0.671875 -0.109375q0.34375 -0.125 0.546875 -0.296875q0.109375 -0.09375 0.234375 -0.09375q0.125 0 0.21875 0.0625q0.125 0.109375 0.125 0.25q0.015625 0.125 -0.109375 0.21875q-0.296875 0.265625 -0.78125 0.4375q-0.46875 0.171875 -0.90625 0.171875zm5.196213 0q-0.546875 0 -1.09375 -0.1875q-0.546875 -0.1875 -0.875 -0.5625q-0.109375 -0.109375 -0.09375 -0.25q0.03125 -0.140625 0.140625 -0.234375q0.140625 -0.09375 0.28125 -0.078125q0.140625 0.015625 0.234375 0.125q0.21875 0.25 0.578125 0.390625q0.375 0.140625 0.828125 0.140625q0.6875 0 0.984375 -0.234375q0.3125 -0.234375 0.328125 -0.578125q0 -0.328125 -0.328125 -0.5469055q-0.3125 -0.21875 -1.03125 -0.34375q-0.953125 -0.15625 -1.390625 -0.515625q-0.4375 -0.375 -0.4375 -0.890625q0 -0.484375 0.25 -0.796875q0.265625 -0.3125 0.671875 -0.46875q0.421875 -0.171875 0.9375 -0.171875q0.625 0 1.0625 0.21875q0.453125 0.21875 0.734375 0.578125q0.09375 0.125 0.078125 0.265625q-0.015625 0.125 -0.140625 0.203125q-0.125 0.0625 -0.265625 0.046875q-0.140625 -0.03125 -0.25 -0.140625q-0.234375 -0.265625 -0.546875 -0.390625q-0.296875 -0.125 -0.703125 -0.125q-0.5 0 -0.8125 0.21875q-0.3125 0.203125 -0.3125 0.515625q0 0.21875 0.109375 0.375q0.125 0.15625 0.40625 0.28125q0.28125 0.109375 0.796875 0.203125q0.703125 0.109375 1.109375 0.328125q0.40625 0.21875 0.578125 0.515625q0.171875 0.29690552 0.171875 0.6406555q0 0.4375 -0.265625 0.765625q-0.25 0.328125 -0.703125 0.515625q-0.453125 0.1875 -1.03125 0.1875zm5.0278625 0q-0.546875 0 -1.09375 -0.1875q-0.546875 -0.1875 -0.875 -0.5625q-0.109375 -0.109375 -0.09375 -0.25q0.03125 -0.140625 0.140625 -0.234375q0.140625 -0.09375 0.28125 -0.078125q0.140625 0.015625 0.234375 0.125q0.21875 0.25 0.578125 0.390625q0.375 0.140625 0.828125 0.140625q0.6875 0 0.984375 -0.234375q0.3125 -0.234375 0.328125 -0.578125q0 -0.328125 -0.328125 -0.5469055q-0.3125 -0.21875 -1.03125 -0.34375q-0.953125 -0.15625 -1.390625 -0.515625q-0.4375 -0.375 -0.4375 -0.890625q0 -0.484375 0.25 -0.796875q0.265625 -0.3125 0.671875 -0.46875q0.421875 -0.171875 0.9375 -0.171875q0.625 0 1.0625 0.21875q0.453125 0.21875 0.734375 0.578125q0.09375 0.125 0.078125 0.265625q-0.015625 0.125 -0.140625 0.203125q-0.125 0.0625 -0.265625 0.046875q-0.140625 -0.03125 -0.25 -0.140625q-0.234375 -0.265625 -0.546875 -0.390625q-0.296875 -0.125 -0.703125 -0.125q-0.5 0 -0.8125 0.21875q-0.3125 0.203125 -0.3125 0.515625q0 0.21875 0.109375 0.375q0.125 0.15625 0.40625 0.28125q0.28125 0.109375 0.796875 0.203125q0.703125 0.109375 1.109375 0.328125q0.40625 0.21875 0.578125 0.515625q0.171875 0.29690552 0.171875 0.6406555q0 0.4375 -0.265625 0.765625q-0.25 0.328125 -0.703125 0.515625q-0.453125 0.1875 -1.03125 0.1875zm5.5591125 0q-0.765625 0 -1.34375 -0.328125q-0.578125 -0.328125 -0.921875 -0.921875q-0.328125 -0.59375 -0.328125 -1.3437805q0 -0.765625 0.3125 -1.34375q0.3125 -0.59375 0.859375 -0.921875q0.5625 -0.34375 1.28125 -0.34375q0.703125 0 1.234375 0.328125q0.53125 0.328125 0.8125 0.890625q0.296875 0.5625 0.296875 1.296875q0 0.15625 -0.09375 0.25q-0.09375 0.078125 -0.25 0.078125l-3.96875 0l0 -0.59375l4.046875 0l-0.40625 0.28125q0.015625 -0.53125 -0.1875 -0.953125q-0.203125 -0.4375 -0.59375 -0.671875q-0.375 -0.25 -0.890625 -0.25q-0.53125 0 -0.9375 0.25q-0.40625 0.25 -0.625 0.703125q-0.21875 0.4375 -0.21875 1.0q0 0.5625 0.25 1.0156555q0.25 0.4375 0.671875 0.6875q0.4375 0.25 1.0 0.25q0.328125 0 0.671875 -0.109375q0.34375 -0.125 0.546875 -0.296875q0.109375 -0.09375 0.234375 -0.09375q0.125 0 0.21875 0.0625q0.125 0.109375 0.125 0.25q0.015625 0.125 -0.109375 0.21875q-0.296875 0.265625 -0.78125 0.4375q-0.46875 0.171875 -0.90625 0.171875zm5.196213 0q-0.546875 0 -1.09375 -0.1875q-0.546875 -0.1875 -0.875 -0.5625q-0.109375 -0.109375 -0.09375 -0.25q0.03125 -0.140625 0.140625 -0.234375q0.140625 -0.09375 0.28125 -0.078125q0.140625 0.015625 0.234375 0.125q0.21875 0.25 0.578125 0.390625q0.375 0.140625 0.828125 0.140625q0.6875 0 0.984375 -0.234375q0.3125 -0.234375 0.328125 -0.578125q0 -0.328125 -0.328125 -0.5469055q-0.3125 -0.21875 -1.03125 -0.34375q-0.953125 -0.15625 -1.390625 -0.515625q-0.4375 -0.375 -0.4375 -0.890625q0 -0.484375 0.25 -0.796875q0.265625 -0.3125 0.671875 -0.46875q0.421875 -0.171875 0.9375 -0.171875q0.625 0 1.0625 0.21875q0.453125 0.21875 0.734375 0.578125q0.09375 0.125 0.078125 0.265625q-0.015625 0.125 -0.140625 0.203125q-0.125 0.0625 -0.265625 0.046875q-0.140625 -0.03125 -0.25 -0.140625q-0.234375 -0.265625 -0.546875 -0.390625q-0.296875 -0.125 -0.703125 -0.125q-0.5 0 -0.8125 0.21875q-0.3125 0.203125 -0.3125 0.515625q0 0.21875 0.109375 0.375q0.125 0.15625 0.40625 0.28125q0.28125 0.109375 0.796875 0.203125q0.703125 0.109375 1.109375 0.328125q0.40625 0.21875 0.578125 0.515625q0.171875 0.29690552 0.171875 0.6406555q0 0.4375 -0.265625 0.765625q-0.25 0.328125 -0.703125 0.515625q-0.453125 0.1875 -1.03125 0.1875zm3.1528625 1.46875q-0.09375 0 -0.140625 -0.0625q-0.046875 -0.046875 -0.046875 -0.125q0 -0.140625 0.078125 -0.265625q0.09375 -0.109375 0.171875 -0.25q0.09375 -0.125 0.09375 -0.3125q0 -0.171875 -0.0625 -0.28125q-0.0625 -0.109375 -0.15625 -0.203125q-0.09375 -0.078125 -0.15625 -0.1875q-0.0625 -0.109375 -0.0625 -0.265625q0 -0.234375 0.15625 -0.375q0.15625 -0.140625 0.375 -0.140625q0.28125 0 0.453125 0.21875q0.1875 0.21875 0.1875 0.609375q0 0.265625 -0.078125 0.546875q-0.0625 0.296875 -0.203125 0.546875q-0.125 0.25 -0.28125 0.390625q-0.15625 0.15625 -0.328125 0.15625zm7.2475433 -1.46875q-0.734375 0 -1.328125 -0.328125q-0.59375 -0.34375 -0.9375 -0.921875q-0.328125 -0.59375 -0.328125 -1.3437805q0 -0.75 0.328125 -1.34375q0.34375 -0.59375 0.9375 -0.921875q0.59375 -0.34375 1.328125 -0.34375q0.75 0 1.328125 0.34375q0.59375 0.328125 0.921875 0.921875q0.34375 0.59375 0.34375 1.34375q0 0.7500305 -0.34375 1.3437805q-0.328125 0.578125 -0.921875 0.921875q-0.578125 0.328125 -1.328125 0.328125zm0 -0.65625q0.546875 0 0.96875 -0.25q0.4375 -0.25 0.671875 -0.6875q0.25 -0.43753052 0.25 -1.0000305q0 -0.5625 -0.25 -1.0q-0.234375 -0.453125 -0.671875 -0.703125q-0.421875 -0.25 -0.96875 -0.25q-0.53125 0 -0.96875 0.25q-0.421875 0.25 -0.671875 0.703125q-0.25 0.4375 -0.25 1.0q0 0.5625 0.25 1.0000305q0.25 0.4375 0.671875 0.6875q0.4375 0.25 0.96875 0.25zm5.987015 0.609375q-0.484375 0 -0.875 -0.234375q-0.390625 -0.234375 -0.609375 -0.640625q-0.21875 -0.40625 -0.21875 -0.921875l0 -4.5625305q0 -0.15625 0.09375 -0.25q0.09375 -0.109375 0.25 -0.109375q0.15625 0 0.265625 0.109375q0.109375 0.09375 0.109375 0.25l0 4.5625305q0 0.46875 0.265625 0.78125q0.28125 0.296875 0.71875 0.296875l0.265625 0q0.140625 0 0.234375 0.109375q0.09375 0.09375 0.09375 0.25q0 0.15625 -0.109375 0.265625q-0.109375 0.09375 -0.28125 0.09375l-0.203125 0zm-2.3125 -4.2969055q-0.140625 0 -0.234375 -0.078125q-0.09375 -0.09375 -0.09375 -0.21875q0 -0.140625 0.09375 -0.234375q0.09375 -0.09375 0.234375 -0.09375l2.375 0q0.140625 0 0.234375 0.09375q0.09375 0.09375 0.09375 0.234375q0 0.125 -0.09375 0.21875q-0.09375 0.078125 -0.234375 0.078125l-2.375 0zm8.453033 4.2969055q-0.15625 0 -0.265625 -0.09375q-0.109375 -0.109375 -0.109375 -0.265625l0 -2.4219055q0 -0.578125 -0.21875 -0.953125q-0.21875 -0.375 -0.59375 -0.5625q-0.375 -0.1875 -0.84375 -0.1875q-0.46875 0 -0.84375 0.1875q-0.359375 0.171875 -0.578125 0.484375q-0.203125 0.3125 -0.203125 0.703125l-0.515625 0q0.015625 -0.59375 0.3125 -1.046875q0.296875 -0.46875 0.796875 -0.734375q0.5 -0.265625 1.09375 -0.265625q0.671875 0 1.1875 0.28125q0.53125 0.265625 0.828125 0.796875q0.296875 0.53125 0.296875 1.296875l0 2.4219055q0 0.15625 -0.109375 0.265625q-0.09375 0.09375 -0.234375 0.09375zm-4.015625 0q-0.171875 0 -0.265625 -0.09375q-0.09375 -0.109375 -0.09375 -0.265625l0 -4.3750305q0 -0.171875 0.09375 -0.265625q0.09375 -0.109375 0.265625 -0.109375q0.15625 0 0.25 0.109375q0.109375 0.09375 0.109375 0.265625l0 4.3750305q0 0.15625 -0.109375 0.265625q-0.09375 0.09375 -0.25 0.09375zm0 -2.0781555q-0.171875 0 -0.265625 -0.09375q-0.09375 -0.109375 -0.09375 -0.265625l0 -4.484375q0 -0.171875 0.09375 -0.265625q0.09375 -0.09375 0.265625 -0.09375q0.15625 0 0.25 0.09375q0.109375 0.09375 0.109375 0.265625l0 4.484375q0 0.15625 -0.109375 0.265625q-0.09375 0.09375 -0.25 0.09375zm8.268265 2.1250305q-0.765625 0 -1.34375 -0.328125q-0.578125 -0.328125 -0.921875 -0.921875q-0.328125 -0.59375 -0.328125 -1.3437805q0 -0.765625 0.3125 -1.34375q0.3125 -0.59375 0.859375 -0.921875q0.5625 -0.34375 1.28125 -0.34375q0.703125 0 1.234375 0.328125q0.53125 0.328125 0.8125 0.890625q0.296875 0.5625 0.296875 1.296875q0 0.15625 -0.09375 0.25q-0.09375 0.078125 -0.25 0.078125l-3.96875 0l0 -0.59375l4.046875 0l-0.40625 0.28125q0.015625 -0.53125 -0.1875 -0.953125q-0.203125 -0.4375 -0.59375 -0.671875q-0.375 -0.25 -0.890625 -0.25q-0.53125 0 -0.9375 0.25q-0.40625 0.25 -0.625 0.703125q-0.21875 0.4375 -0.21875 1.0q0 0.5625 0.25 1.0156555q0.25 0.4375 0.671875 0.6875q0.4375 0.25 1.0 0.25q0.328125 0 0.671875 -0.109375q0.34375 -0.125 0.546875 -0.296875q0.109375 -0.09375 0.234375 -0.09375q0.125 0 0.21875 0.0625q0.125 0.109375 0.125 0.25q0.015625 0.125 -0.109375 0.21875q-0.296875 0.265625 -0.78125 0.4375q-0.46875 0.171875 -0.90625 0.171875zm3.7118378 -3.1875305q0.03125 -0.578125 0.296875 -1.03125q0.28125 -0.46875 0.71875 -0.71875q0.453125 -0.265625 0.984375 -0.265625q0.4375 0 0.671875 0.125q0.234375 0.109375 0.171875 0.34375q-0.03125 0.140625 -0.125 0.1875q-0.09375 0.046875 -0.21875 0.046875q-0.125 -0.015625 -0.28125 -0.03125q-0.53125 -0.046875 -0.9375 0.109375q-0.390625 0.15625 -0.640625 0.484375q-0.234375 0.3125 -0.234375 0.75l-0.40625 0zm0.046875 3.1406555q-0.15625 0 -0.25 -0.09375q-0.09375 -0.09375 -0.09375 -0.265625l0 -4.3906555q0 -0.171875 0.09375 -0.265625q0.09375 -0.09375 0.25 -0.09375q0.171875 0 0.265625 0.09375q0.09375 0.09375 0.09375 0.265625l0 4.3906555q0 0.171875 -0.09375 0.265625q-0.09375 0.09375 -0.265625 0.09375zm7.021042 2.1875q-0.171875 0 -0.265625 -0.109375q-0.09375 -0.09375 -0.09375 -0.265625l0 -4.3906555q0 -0.734375 0.34375 -1.3125q0.34375 -0.59375 0.921875 -0.921875q0.59375 -0.34375 1.3125 -0.34375q0.75 0 1.328125 0.34375q0.59375 0.34375 0.9375 0.9375q0.34375 0.578125 0.34375 1.328125q0 0.7344055 -0.34375 1.3281555q-0.328125 0.578125 -0.90625 0.921875q-0.5625 0.34375 -1.28125 0.34375q-0.625 0 -1.140625 -0.265625q-0.5 -0.265625 -0.796875 -0.703125l0 2.734375q0 0.171875 -0.109375 0.265625q-0.09375 0.109375 -0.25 0.109375zm2.21875 -2.796875q0.546875 0 0.96875 -0.25q0.4375 -0.25 0.671875 -0.6875q0.25 -0.45315552 0.25 -1.0000305q0 -0.5625 -0.25 -1.0q-0.234375 -0.4375 -0.671875 -0.6875q-0.421875 -0.265625 -0.96875 -0.265625q-0.53125 0 -0.96875 0.265625q-0.421875 0.25 -0.671875 0.6875q-0.234375 0.4375 -0.234375 1.0q0 0.546875 0.234375 1.0000305q0.25 0.4375 0.671875 0.6875q0.4375 0.25 0.96875 0.25zm6.329361 0.65625q-0.765625 0 -1.34375 -0.328125q-0.578125 -0.328125 -0.921875 -0.921875q-0.328125 -0.59375 -0.328125 -1.3437805q0 -0.765625 0.3125 -1.34375q0.3125 -0.59375 0.859375 -0.921875q0.5625 -0.34375 1.28125 -0.34375q0.703125 0 1.234375 0.328125q0.53125 0.328125 0.8125 0.890625q0.296875 0.5625 0.296875 1.296875q0 0.15625 -0.09375 0.25q-0.09375 0.078125 -0.25 0.078125l-3.96875 0l0 -0.59375l4.046875 0l-0.40625 0.28125q0.015625 -0.53125 -0.1875 -0.953125q-0.203125 -0.4375 -0.59375 -0.671875q-0.375 -0.25 -0.890625 -0.25q-0.53125 0 -0.9375 0.25q-0.40625 0.25 -0.625 0.703125q-0.21875 0.4375 -0.21875 1.0q0 0.5625 0.25 1.0156555q0.25 0.4375 0.671875 0.6875q0.4375 0.25 1.0 0.25q0.328125 0 0.671875 -0.109375q0.34375 -0.125 0.546875 -0.296875q0.109375 -0.09375 0.234375 -0.09375q0.125 0 0.21875 0.0625q0.125 0.109375 0.125 0.25q0.015625 0.125 -0.109375 0.21875q-0.296875 0.265625 -0.78125 0.4375q-0.46875 0.171875 -0.90625 0.171875zm5.540802 0q-0.734375 0 -1.328125 -0.328125q-0.59375 -0.34375 -0.9375 -0.921875q-0.328125 -0.59375 -0.328125 -1.3437805q0 -0.75 0.328125 -1.34375q0.34375 -0.59375 0.9375 -0.921875q0.59375 -0.34375 1.328125 -0.34375q0.75 0 1.328125 0.34375q0.59375 0.328125 0.921875 0.921875q0.34375 0.59375 0.34375 1.34375q0 0.7500305 -0.34375 1.3437805q-0.328125 0.578125 -0.921875 0.921875q-0.578125 0.328125 -1.328125 0.328125zm0 -0.65625q0.546875 0 0.96875 -0.25q0.4375 -0.25 0.671875 -0.6875q0.25 -0.43753052 0.25 -1.0000305q0 -0.5625 -0.25 -1.0q-0.234375 -0.453125 -0.671875 -0.703125q-0.421875 -0.25 -0.96875 -0.25q-0.53125 0 -0.96875 0.25q-0.421875 0.25 -0.671875 0.703125q-0.25 0.4375 -0.25 1.0q0 0.5625 0.25 1.0000305q0.25 0.4375 0.671875 0.6875q0.4375 0.25 0.96875 0.25zm4.362015 2.796875q-0.171875 0 -0.265625 -0.109375q-0.09375 -0.09375 -0.09375 -0.265625l0 -4.3906555q0 -0.734375 0.34375 -1.3125q0.34375 -0.59375 0.921875 -0.921875q0.59375 -0.34375 1.3125 -0.34375q0.75 0 1.328125 0.34375q0.59375 0.34375 0.9375 0.9375q0.34375 0.578125 0.34375 1.328125q0 0.7344055 -0.34375 1.3281555q-0.328125 0.578125 -0.90625 0.921875q-0.5625 0.34375 -1.28125 0.34375q-0.625 0 -1.140625 -0.265625q-0.5 -0.265625 -0.796875 -0.703125l0 2.734375q0 0.171875 -0.109375 0.265625q-0.09375 0.109375 -0.25 0.109375zm2.21875 -2.796875q0.546875 0 0.96875 -0.25q0.4375 -0.25 0.671875 -0.6875q0.25 -0.45315552 0.25 -1.0000305q0 -0.5625 -0.25 -1.0q-0.234375 -0.4375 -0.671875 -0.6875q-0.421875 -0.265625 -0.96875 -0.265625q-0.53125 0 -0.96875 0.265625q-0.421875 0.25 -0.671875 0.6875q-0.234375 0.4375 -0.234375 1.0q0 0.546875 0.234375 1.0000305q0.25 0.4375 0.671875 0.6875q0.4375 0.25 0.96875 0.25zm5.110611 0.609375q-0.375 0 -0.671875 -0.203125q-0.28125 -0.203125 -0.453125 -0.5625q-0.15625 -0.375 -0.15625 -0.84375l0 -5.3281555q0 -0.15625 0.09375 -0.25q0.09375 -0.09375 0.25 -0.09375q0.171875 0 0.265625 0.09375q0.09375 0.09375 0.09375 0.25l0 5.3281555q0 0.390625 0.15625 0.65625q0.171875 0.25 0.421875 0.25l0.234375 0q0.140625 0 0.21875 0.09375q0.09375 0.09375 0.09375 0.25q0 0.15625 -0.125 0.265625q-0.109375 0.09375 -0.296875 0.09375l-0.125 0zm3.5692902 0.046875q-0.765625 0 -1.34375 -0.328125q-0.578125 -0.328125 -0.921875 -0.921875q-0.328125 -0.59375 -0.328125 -1.3437805q0 -0.765625 0.3125 -1.34375q0.3125 -0.59375 0.859375 -0.921875q0.5625 -0.34375 1.28125 -0.34375q0.703125 0 1.234375 0.328125q0.53125 0.328125 0.8125 0.890625q0.296875 0.5625 0.296875 1.296875q0 0.15625 -0.09375 0.25q-0.09375 0.078125 -0.25 0.078125l-3.96875 0l0 -0.59375l4.046875 0l-0.40625 0.28125q0.015625 -0.53125 -0.1875 -0.953125q-0.203125 -0.4375 -0.59375 -0.671875q-0.375 -0.25 -0.890625 -0.25q-0.53125 0 -0.9375 0.25q-0.40625 0.25 -0.625 0.703125q-0.21875 0.4375 -0.21875 1.0q0 0.5625 0.25 1.0156555q0.25 0.4375 0.671875 0.6875q0.4375 0.25 1.0 0.25q0.328125 0 0.671875 -0.109375q0.34375 -0.125 0.546875 -0.296875q0.109375 -0.09375 0.234375 -0.09375q0.125 0 0.21875 0.0625q0.125 0.109375 0.125 0.25q0.015625 0.125 -0.109375 0.21875q-0.296875 0.265625 -0.78125 0.4375q-0.46875 0.171875 -0.90625 0.171875zm7.694977 0.015625q-0.609375 0 -1.046875 -0.21875q-0.4375 -0.21875 -0.6875 -0.609375q-0.234375 -0.390625 -0.234375 -0.90625q0 -0.5937805 0.375 -1.0937805q0.375 -0.515625 1.125 -1.109375l0.78125 -0.609375q0.40625 -0.3125 0.59375 -0.640625q0.203125 -0.34375 0.203125 -0.703125q0 -0.375 -0.265625 -0.65625q-0.25 -0.28125 -0.71875 -0.28125q-0.421875 0 -0.703125 0.265625q-0.265625 0.265625 -0.265625 0.609375q0 0.296875 0.109375 0.546875q0.109375 0.234375 0.359375 0.484375l4.1875 4.1719055q0.109375 0.125 0.125 0.234375q0.03125 0.09375 -0.09375 0.21875q-0.234375 0.25 -0.46875 0l-4.234375 -4.2344055q-0.296875 -0.296875 -0.46875 -0.65625q-0.171875 -0.359375 -0.171875 -0.75q0 -0.4375 0.203125 -0.765625q0.21875 -0.34375 0.578125 -0.53125q0.375 -0.203125 0.84375 -0.203125q0.46875 0 0.84375 0.21875q0.375 0.203125 0.578125 0.546875q0.21875 0.34375 0.21875 0.796875q0 0.359375 -0.140625 0.671875q-0.140625 0.296875 -0.390625 0.578125q-0.25 0.265625 -0.609375 0.546875l-0.765625 0.59375q-0.40625 0.3125 -0.65625 0.609375q-0.25 0.296875 -0.375 0.578125q-0.109375 0.28125 -0.109375 0.5625305q0 0.5 0.328125 0.8125q0.34375 0.296875 0.96875 0.296875q0.46875 0 0.859375 -0.234375q0.40625 -0.25 0.828125 -0.703125l1.421875 -1.5000305q0.109375 -0.109375 0.203125 -0.125q0.109375 -0.03125 0.234375 0.078125q0.109375 0.109375 0.109375 0.234375q0.015625 0.109375 -0.109375 0.234375l-1.40625 1.5000305q-0.484375 0.53125 -1.015625 0.84375q-0.515625 0.296875 -1.140625 0.296875zm10.215012 -0.015625q-0.734375 0 -1.328125 -0.328125q-0.59375 -0.34375 -0.9375 -0.921875q-0.328125 -0.59375 -0.328125 -1.3437805q0 -0.75 0.328125 -1.34375q0.34375 -0.59375 0.9375 -0.921875q0.59375 -0.34375 1.328125 -0.34375q0.75 0 1.328125 0.34375q0.59375 0.328125 0.921875 0.921875q0.34375 0.59375 0.34375 1.34375q0 0.7500305 -0.34375 1.3437805q-0.328125 0.578125 -0.921875 0.921875q-0.578125 0.328125 -1.328125 0.328125zm0 -0.65625q0.546875 0 0.96875 -0.25q0.4375 -0.25 0.671875 -0.6875q0.25 -0.43753052 0.25 -1.0000305q0 -0.5625 -0.25 -1.0q-0.234375 -0.453125 -0.671875 -0.703125q-0.421875 -0.25 -0.96875 -0.25q-0.53125 0 -0.96875 0.25q-0.421875 0.25 -0.671875 0.703125q-0.25 0.4375 -0.25 1.0q0 0.5625 0.25 1.0000305q0.25 0.4375 0.671875 0.6875q0.4375 0.25 0.96875 0.25zm4.299515 -2.5312805q0.03125 -0.578125 0.296875 -1.03125q0.28125 -0.46875 0.71875 -0.71875q0.453125 -0.265625 0.984375 -0.265625q0.4375 0 0.671875 0.125q0.234375 0.109375 0.171875 0.34375q-0.03125 0.140625 -0.125 0.1875q-0.09375 0.046875 -0.21875 0.046875q-0.125 -0.015625 -0.28125 -0.03125q-0.53125 -0.046875 -0.9375 0.109375q-0.390625 0.15625 -0.640625 0.484375q-0.234375 0.3125 -0.234375 0.75l-0.40625 0zm0.046875 3.1406555q-0.15625 0 -0.25 -0.09375q-0.09375 -0.09375 -0.09375 -0.265625l0 -4.3906555q0 -0.171875 0.09375 -0.265625q0.09375 -0.09375 0.25 -0.09375q0.171875 0 0.265625 0.09375q0.09375 0.09375 0.09375 0.265625l0 4.3906555q0 0.171875 -0.09375 0.265625q-0.09375 0.09375 -0.265625 0.09375zm5.805191 0.046875q-0.75 0 -1.3125 -0.328125q-0.5625 -0.328125 -0.890625 -0.921875q-0.328125 -0.59375 -0.328125 -1.3437805q0 -0.765625 0.328125 -1.34375q0.34375 -0.59375 0.9375 -0.921875q0.59375 -0.34375 1.328125 -0.34375q0.765625 0 1.34375 0.34375q0.578125 0.328125 0.90625 0.921875q0.34375 0.578125 0.34375 1.34375l-0.421875 0.21875q0 0.7031555 -0.296875 1.2344055q-0.28125 0.53125 -0.796875 0.84375q-0.5 0.296875 -1.140625 0.296875zm0.09375 1.96875q-0.75 0 -1.3125 -0.28125q-0.546875 -0.265625 -0.921875 -0.75q-0.09375 -0.109375 -0.078125 -0.25q0.015625 -0.125 0.125 -0.203125q0.125 -0.078125 0.265625 -0.0625q0.15625 0.03125 0.25 0.140625q0.265625 0.34375 0.6875 0.546875q0.421875 0.203125 0.984375 0.203125q0.53125 0 0.9375 -0.25q0.421875 -0.25 0.671875 -0.71875q0.25 -0.453125 0.25 -1.0625l0 -1.4219055l0.265625 -0.53125l0.4375 0.078125l0 1.9062805q0 0.75 -0.34375 1.34375q-0.328125 0.609375 -0.90625 0.953125q-0.578125 0.359375 -1.3125 0.359375zm-0.03125 -2.625q0.5625 0 0.984375 -0.234375q0.421875 -0.25 0.65625 -0.6875q0.25 -0.45315552 0.25 -1.0156555q0 -0.5625 -0.25 -1.0q-0.234375 -0.453125 -0.65625 -0.703125q-0.421875 -0.25 -0.984375 -0.25q-0.546875 0 -0.984375 0.25q-0.421875 0.25 -0.671875 0.703125q-0.234375 0.4375 -0.234375 1.0q0 0.5625 0.234375 1.0156555q0.25 0.4375 0.671875 0.6875q0.4375 0.234375 0.984375 0.234375zm6.25264 0.65625q-0.71875 0 -1.296875 -0.34375q-0.5625 -0.34375 -0.90625 -0.921875q-0.328125 -0.59375 -0.328125 -1.3281555q0 -0.75 0.34375 -1.328125q0.34375 -0.59375 0.921875 -0.9375q0.59375 -0.34375 1.328125 -0.34375q0.75 0 1.328125 0.34375q0.578125 0.34375 0.921875 0.9375q0.34375 0.578125 0.34375 1.328125l-0.28125 0.21875q0 0.6719055 -0.3125 1.2187805q-0.3125 0.53125 -0.859375 0.84375q-0.53125 0.3125 -1.203125 0.3125zm0.0625 -0.65625q0.546875 0 0.96875 -0.25q0.421875 -0.25 0.671875 -0.6875q0.25 -0.45315552 0.25 -1.0000305q0 -0.5625 -0.25 -1.0q-0.25 -0.4375 -0.671875 -0.6875q-0.421875 -0.265625 -0.96875 -0.265625q-0.53125 0 -0.96875 0.265625q-0.421875 0.25 -0.671875 0.6875q-0.25 0.4375 -0.25 1.0q0 0.546875 0.25 1.0000305q0.25 0.4375 0.671875 0.6875q0.4375 0.25 0.96875 0.25zm2.234375 0.609375q-0.15625 0 -0.265625 -0.09375q-0.09375 -0.109375 -0.09375 -0.265625l0 -1.5937805l0.171875 -0.734375l0.546875 0.140625l0 2.1875305q0 0.15625 -0.109375 0.265625q-0.09375 0.09375 -0.25 0.09375zm6.143265 0q-0.15625 0 -0.265625 -0.09375q-0.109375 -0.109375 -0.109375 -0.265625l0 -2.4219055q0 -0.578125 -0.21875 -0.953125q-0.21875 -0.375 -0.59375 -0.5625q-0.375 -0.1875 -0.84375 -0.1875q-0.46875 0 -0.84375 0.1875q-0.359375 0.171875 -0.578125 0.484375q-0.203125 0.3125 -0.203125 0.703125l-0.515625 0q0.015625 -0.59375 0.3125 -1.046875q0.296875 -0.46875 0.796875 -0.734375q0.5 -0.265625 1.09375 -0.265625q0.671875 0 1.1875 0.28125q0.53125 0.265625 0.828125 0.796875q0.296875 0.53125 0.296875 1.296875l0 2.4219055q0 0.15625 -0.109375 0.265625q-0.09375 0.09375 -0.234375 0.09375zm-4.015625 0q-0.171875 0 -0.265625 -0.09375q-0.09375 -0.109375 -0.09375 -0.265625l0 -4.3750305q0 -0.171875 0.09375 -0.265625q0.09375 -0.109375 0.265625 -0.109375q0.15625 0 0.25 0.109375q0.109375 0.09375 0.109375 0.265625l0 4.3750305q0 0.15625 -0.109375 0.265625q-0.09375 0.09375 -0.25 0.09375zm6.47139 0q-0.171875 0 -0.28125 -0.09375q-0.09375 -0.109375 -0.09375 -0.265625l0 -4.3750305q0 -0.171875 0.09375 -0.265625q0.109375 -0.109375 0.28125 -0.109375q0.15625 0 0.25 0.109375q0.09375 0.09375 0.09375 0.265625l0 4.3750305q0 0.15625 -0.09375 0.265625q-0.09375 0.09375 -0.25 0.09375zm0.015625 -6.0781555q-0.203125 0 -0.359375 -0.140625q-0.140625 -0.15625 -0.140625 -0.359375q0 -0.234375 0.15625 -0.375q0.15625 -0.140625 0.359375 -0.140625q0.1875 0 0.34375 0.140625q0.15625 0.140625 0.15625 0.375q0 0.203125 -0.15625 0.359375q-0.140625 0.140625 -0.359375 0.140625zm3.9458313 6.1250305q-0.546875 0 -1.09375 -0.1875q-0.546875 -0.1875 -0.875 -0.5625q-0.109375 -0.109375 -0.09375 -0.25q0.03125 -0.140625 0.140625 -0.234375q0.140625 -0.09375 0.28125 -0.078125q0.140625 0.015625 0.234375 0.125q0.21875 0.25 0.578125 0.390625q0.375 0.140625 0.828125 0.140625q0.6875 0 0.984375 -0.234375q0.3125 -0.234375 0.328125 -0.578125q0 -0.328125 -0.328125 -0.5469055q-0.3125 -0.21875 -1.03125 -0.34375q-0.953125 -0.15625 -1.390625 -0.515625q-0.4375 -0.375 -0.4375 -0.890625q0 -0.484375 0.25 -0.796875q0.265625 -0.3125 0.671875 -0.46875q0.421875 -0.171875 0.9375 -0.171875q0.625 0 1.0625 0.21875q0.453125 0.21875 0.734375 0.578125q0.09375 0.125 0.078125 0.265625q-0.015625 0.125 -0.140625 0.203125q-0.125 0.0625 -0.265625 0.046875q-0.140625 -0.03125 -0.25 -0.140625q-0.234375 -0.265625 -0.546875 -0.390625q-0.296875 -0.125 -0.703125 -0.125q-0.5 0 -0.8125 0.21875q-0.3125 0.203125 -0.3125 0.515625q0 0.21875 0.109375 0.375q0.125 0.15625 0.40625 0.28125q0.28125 0.109375 0.796875 0.203125q0.703125 0.109375 1.109375 0.328125q0.40625 0.21875 0.578125 0.515625q0.171875 0.29690552 0.171875 0.6406555q0 0.4375 -0.265625 0.765625q-0.25 0.328125 -0.703125 0.515625q-0.453125 0.1875 -1.03125 0.1875zm5.4966125 0q-0.71875 0 -1.296875 -0.34375q-0.5625 -0.34375 -0.90625 -0.921875q-0.328125 -0.59375 -0.328125 -1.3281555q0 -0.75 0.34375 -1.328125q0.34375 -0.59375 0.921875 -0.9375q0.59375 -0.34375 1.328125 -0.34375q0.75 0 1.328125 0.34375q0.578125 0.34375 0.921875 0.9375q0.34375 0.578125 0.34375 1.328125l-0.28125 0.21875q0 0.6719055 -0.3125 1.2187805q-0.3125 0.53125 -0.859375 0.84375q-0.53125 0.3125 -1.203125 0.3125zm0.0625 -0.65625q0.546875 0 0.96875 -0.25q0.421875 -0.25 0.671875 -0.6875q0.25 -0.45315552 0.25 -1.0000305q0 -0.5625 -0.25 -1.0q-0.25 -0.4375 -0.671875 -0.6875q-0.421875 -0.265625 -0.96875 -0.265625q-0.53125 0 -0.96875 0.265625q-0.421875 0.25 -0.671875 0.6875q-0.25 0.4375 -0.25 1.0q0 0.546875 0.25 1.0000305q0.25 0.4375 0.671875 0.6875q0.4375 0.25 0.96875 0.25zm2.234375 0.609375q-0.15625 0 -0.265625 -0.09375q-0.09375 -0.109375 -0.09375 -0.265625l0 -1.5937805l0.171875 -0.734375l0.546875 0.140625l0 2.1875305q0 0.15625 -0.109375 0.265625q-0.09375 0.09375 -0.25 0.09375zm3.7526398 0q-0.484375 0 -0.875 -0.234375q-0.390625 -0.234375 -0.609375 -0.640625q-0.21875 -0.40625 -0.21875 -0.921875l0 -4.5625305q0 -0.15625 0.09375 -0.25q0.09375 -0.109375 0.25 -0.109375q0.15625 0 0.265625 0.109375q0.109375 0.09375 0.109375 0.25l0 4.5625305q0 0.46875 0.265625 0.78125q0.28125 0.296875 0.71875 0.296875l0.265625 0q0.140625 0 0.234375 0.109375q0.09375 0.09375 0.09375 0.25q0 0.15625 -0.109375 0.265625q-0.109375 0.09375 -0.28125 0.09375l-0.203125 0zm-2.3125 -4.2969055q-0.140625 0 -0.234375 -0.078125q-0.09375 -0.09375 -0.09375 -0.21875q0 -0.140625 0.09375 -0.234375q0.09375 -0.09375 0.234375 -0.09375l2.375 0q0.140625 0 0.234375 0.09375q0.09375 0.09375 0.09375 0.234375q0 0.125 -0.09375 0.21875q-0.09375 0.078125 -0.234375 0.078125l-2.375 0zm4.5936584 4.2969055q-0.171875 0 -0.28125 -0.09375q-0.09375 -0.109375 -0.09375 -0.265625l0 -4.3750305q0 -0.171875 0.09375 -0.265625q0.109375 -0.109375 0.28125 -0.109375q0.15625 0 0.25 0.109375q0.09375 0.09375 0.09375 0.265625l0 4.3750305q0 0.15625 -0.09375 0.265625q-0.09375 0.09375 -0.25 0.09375zm0.015625 -6.0781555q-0.203125 0 -0.359375 -0.140625q-0.140625 -0.15625 -0.140625 -0.359375q0 -0.234375 0.15625 -0.375q0.15625 -0.140625 0.359375 -0.140625q0.1875 0 0.34375 0.140625q0.15625 0.140625 0.15625 0.375q0 0.203125 -0.15625 0.359375q-0.140625 0.140625 -0.359375 0.140625zm4.4770813 6.1250305q-0.734375 0 -1.328125 -0.328125q-0.59375 -0.34375 -0.9375 -0.921875q-0.328125 -0.59375 -0.328125 -1.3437805q0 -0.75 0.328125 -1.34375q0.34375 -0.59375 0.9375 -0.921875q0.59375 -0.34375 1.328125 -0.34375q0.75 0 1.328125 0.34375q0.59375 0.328125 0.921875 0.921875q0.34375 0.59375 0.34375 1.34375q0 0.7500305 -0.34375 1.3437805q-0.328125 0.578125 -0.921875 0.921875q-0.578125 0.328125 -1.328125 0.328125zm0 -0.65625q0.546875 0 0.96875 -0.25q0.4375 -0.25 0.671875 -0.6875q0.25 -0.43753052 0.25 -1.0000305q0 -0.5625 -0.25 -1.0q-0.234375 -0.453125 -0.671875 -0.703125q-0.421875 -0.25 -0.96875 -0.25q-0.53125 0 -0.96875 0.25q-0.421875 0.25 -0.671875 0.703125q-0.25 0.4375 -0.25 1.0q0 0.5625 0.25 1.0000305q0.25 0.4375 0.671875 0.6875q0.4375 0.25 0.96875 0.25zm8.377655 0.609375q-0.15625 0 -0.265625 -0.09375q-0.109375 -0.109375 -0.109375 -0.265625l0 -2.4219055q0 -0.578125 -0.21875 -0.953125q-0.21875 -0.375 -0.59375 -0.5625q-0.375 -0.1875 -0.84376526 -0.1875q-0.46875 0 -0.84375 0.1875q-0.359375 0.171875 -0.578125 0.484375q-0.203125 0.3125 -0.203125 0.703125l-0.515625 0q0.015625 -0.59375 0.3125 -1.046875q0.296875 -0.46875 0.796875 -0.734375q0.5 -0.265625 1.09375 -0.265625q0.67189026 0 1.1875153 0.28125q0.53125 0.265625 0.828125 0.796875q0.296875 0.53125 0.296875 1.296875l0 2.4219055q0 0.15625 -0.109375 0.265625q-0.09375 0.09375 -0.234375 0.09375zm-4.0156403 0q-0.171875 0 -0.265625 -0.09375q-0.09375 -0.109375 -0.09375 -0.265625l0 -4.3750305q0 -0.171875 0.09375 -0.265625q0.09375 -0.109375 0.265625 -0.109375q0.15625 0 0.25 0.109375q0.109375 0.09375 0.109375 0.265625l0 4.3750305q0 0.15625 -0.109375 0.265625q-0.09375 0.09375 -0.25 0.09375zm7.737015 0.046875q-0.546875 0 -1.09375 -0.1875q-0.546875 -0.1875 -0.875 -0.5625q-0.109375 -0.109375 -0.09375 -0.25q0.03125 -0.140625 0.140625 -0.234375q0.140625 -0.09375 0.28125 -0.078125q0.140625 0.015625 0.234375 0.125q0.21875 0.25 0.578125 0.390625q0.375 0.140625 0.828125 0.140625q0.6875 0 0.984375 -0.234375q0.3125 -0.234375 0.328125 -0.578125q0 -0.328125 -0.328125 -0.5469055q-0.3125 -0.21875 -1.03125 -0.34375q-0.953125 -0.15625 -1.390625 -0.515625q-0.4375 -0.375 -0.4375 -0.890625q0 -0.484375 0.25 -0.796875q0.265625 -0.3125 0.671875 -0.46875q0.421875 -0.171875 0.9375 -0.171875q0.625 0 1.0625 0.21875q0.453125 0.21875 0.734375 0.578125q0.09375 0.125 0.078125 0.265625q-0.015625 0.125 -0.140625 0.203125q-0.125 0.0625 -0.265625 0.046875q-0.140625 -0.03125 -0.25 -0.140625q-0.234375 -0.265625 -0.546875 -0.390625q-0.296875 -0.125 -0.703125 -0.125q-0.5 0 -0.8125 0.21875q-0.3125 0.203125 -0.3125 0.515625q0 0.21875 0.109375 0.375q0.125 0.15625 0.40625 0.28125q0.28125 0.109375 0.796875 0.203125q0.703125 0.109375 1.109375 0.328125q0.40625 0.21875 0.578125 0.515625q0.171875 0.29690552 0.171875 0.6406555q0 0.4375 -0.265625 0.765625q-0.25 0.328125 -0.703125 0.515625q-0.453125 0.1875 -1.03125 0.1875z" fill-rule="nonzero"/><path fill="#ff0000" d="m412.10953 31.789474l0 0c2.5309448 -3.2702217 7.149109 -3.9329815 10.314972 -1.4803162l0 0c1.5202942 1.1778126 2.495514 2.9312286 2.71109 4.8745193c0.21560669 1.9432907 -0.34606934 3.9172707 -1.5614929 5.487686l0 0c-2.5309448 3.2702217 -7.149109 3.9329796 -10.314941 1.4803162l0 0c-3.165863 -2.4526672 -3.680542 -7.091984 -1.1496277 -10.3622055z" fill-rule="evenodd"/><path fill="#ff0000" d="m355.9045 259.84406l0 0c4.053009 -0.8262634 7.9872437 1.6837463 8.787415 5.6062927l0 0c0.38424683 1.883667 -0.02041626 3.8477783 -1.124939 5.4602966c-1.1045532 1.6125183 -2.818512 2.741333 -4.7648315 3.1381226l0 0c-4.0529785 0.8262634 -7.9872437 -1.6837769 -8.787384 -5.6062927l0 0c-0.8001709 -3.9225464 1.8367615 -7.7721863 5.88974 -8.598419z" fill-rule="evenodd"/><path fill="#ff0000" d="m140.60246 42.706093l0 0c-3.7050781 -1.8612442 -5.2562256 -6.267891 -3.4645538 -9.842522l0 0c0.8603821 -1.7165985 2.392334 -3.0078278 4.258835 -3.589634c1.8665009 -0.5818043 3.9146729 -0.40652847 5.6939087 0.48727226l0 0c3.7050934 1.8612423 5.256241 6.267889 3.464569 9.84252l0 0c-1.7916565 3.5746307 -6.2476654 4.963604 -9.952759 3.1023636z" fill-rule="evenodd"/><path fill="#000000" fill-opacity="0.0" d="m299.01968 101.4249l-249.10236 -1.5748062" fill-rule="evenodd"/><path stroke="#cccccc" stroke-width="2.0" stroke-linejoin="round" stroke-linecap="butt" d="m299.01968 101.4249l-249.10236 -1.5748062" fill-rule="evenodd"/><path fill="#000000" fill-opacity="0.0" d="m51.91114 162.39308l131.49606 -6.834656" fill-rule="evenodd"/><path stroke="#cccccc" stroke-width="2.0" stroke-linejoin="round" stroke-linecap="butt" d="m51.91114 162.39308l131.49606 -6.834656" fill-rule="evenodd"/><path fill="#000000" fill-opacity="0.0" d="m44.671917 163.4462l188.6614 107.212585" fill-rule="evenodd"/><path stroke="#cccccc" stroke-width="2.0" stroke-linejoin="round" stroke-linecap="butt" d="m44.671917 163.4462l188.6614 107.212585" fill-rule="evenodd"/><path fill="#000000" fill-opacity="0.0" d="m45.721786 163.4462l73.07086 109.85828" fill-rule="evenodd"/><path stroke="#cccccc" stroke-width="2.0" stroke-linejoin="round" stroke-linecap="butt" d="m45.721786 163.4462l73.07086 109.85828" fill-rule="evenodd"/><path fill="#000000" fill-opacity="0.0" d="m324.26248 219.15224l-25.763794 -116.69292" fill-rule="evenodd"/><path stroke="#cccccc" stroke-width="2.0" stroke-linejoin="round" stroke-linecap="butt" d="m324.26248 219.15224l-25.763794 -116.69292" fill-rule="evenodd"/><path fill="#000000" fill-opacity="0.0" d="m324.26248 220.20473l-141.88979 -63.055115" fill-rule="evenodd"/><path stroke="#cccccc" stroke-width="2.0" stroke-linejoin="round" stroke-linecap="butt" d="m324.26248 220.20473l-141.88979 -63.055115" fill-rule="evenodd"/><path fill="#000000" fill-opacity="0.0" d="m323.2126 219.15224l-90.92912 52.03148" fill-rule="evenodd"/><path stroke="#cccccc" stroke-width="2.0" stroke-linejoin="round" stroke-linecap="butt" d="m323.2126 219.15224l-90.92912 52.03148" fill-rule="evenodd"/><path fill="#000000" fill-opacity="0.0" d="m410.54803 37.27716l-110.99213 63.11811" fill-rule="evenodd"/><path stroke="#cccccc" stroke-width="2.0" stroke-linejoin="round" stroke-linecap="butt" d="m410.54803 37.27716l-110.99213 63.11811" fill-rule="evenodd"/><path fill="#000000" fill-opacity="0.0" d="m351.1397 262.98215l-168.25197 -82.20473" fill-rule="evenodd"/><path stroke="#cccccc" stroke-width="2.0" stroke-linejoin="round" stroke-linecap="butt" d="m351.1397 262.98215l-168.25197 -82.20473" fill-rule="evenodd"/><path fill="#000000" fill-opacity="0.0" d="m456.17584 283.7953l-223.9055 8.913361" fill-rule="evenodd"/><path stroke="#cccccc" stroke-width="2.0" stroke-linejoin="round" stroke-linecap="butt" d="m456.17584 283.7953l-223.9055 8.913361" fill-rule="evenodd"/><path fill="#000000" fill-opacity="0.0" d="m229.29881 294.10065l160.40944 155.77954" fill-rule="evenodd"/><path stroke="#cccccc" stroke-width="2.0" stroke-linejoin="round" stroke-linecap="butt" d="m229.29881 294.10065l160.40944 155.77954" fill-rule="evenodd"/><path fill="#000000" fill-opacity="0.0" d="m119.29921 298.5118l270.6457 151.3386" fill-rule="evenodd"/><path stroke="#cccccc" stroke-width="2.0" stroke-linejoin="round" stroke-linecap="butt" d="m119.29921 298.5118l270.6457 151.3386" fill-rule="evenodd"/><path fill="#000000" fill-opacity="0.0" d="m145.04987 464.58267l36.7874 -282.2362" fill-rule="evenodd"/><path stroke="#cccccc" stroke-width="2.0" stroke-linejoin="round" stroke-linecap="butt" d="m145.04987 464.58267l36.7874 -282.2362" fill-rule="evenodd"/><path fill="#000000" fill-opacity="0.0" d="m144.52493 464.58267l-24.69291 -164.50394" fill-rule="evenodd"/><path stroke="#cccccc" stroke-width="2.0" stroke-linejoin="round" stroke-linecap="butt" d="m144.52493 464.58267l-24.69291 -164.50394" fill-rule="evenodd"/><path fill="#000000" fill-opacity="0.0" d="m144.52493 464.05774l18.929138 -200.22046" fill-rule="evenodd"/><path stroke="#cccccc" stroke-width="2.0" stroke-linejoin="round" stroke-linecap="butt" d="m144.52493 464.05774l18.929138 -200.22046" fill-rule="evenodd"/><path fill="#000000" fill-opacity="0.0" d="m13.305375 539.8261l14.866141 0" fill-rule="evenodd"/><path stroke="#000000" stroke-width="8.0" stroke-linejoin="round" stroke-linecap="butt" d="m13.305375 539.8261l14.866141 0" fill-rule="evenodd"/><path fill="#000000" fill-opacity="0.0" d="m22.516603 525.3444l302.70865 0l0 35.307068l-302.70865 0z" fill-rule="evenodd"/><path fill="#000000" d="m35.81348 543.39813q-0.8125 0 -1.5 -0.28125q-0.671875 -0.28125 -1.171875 -0.78125q-0.5 -0.5 -0.78125 -1.171875q-0.265625 -0.6875 -0.265625 -1.5q0 -0.8125 0.265625 -1.484375q0.28125 -0.6875 0.78125 -1.1875q0.5 -0.5 1.171875 -0.78125q0.6875 -0.28125 1.5 -0.28125q0.8125 0 1.484375 0.28125q0.6875 0.28125 1.1875 0.78125q0.5 0.5 0.765625 1.1875q0.28125 0.671875 0.28125 1.484375q0 0.8125 -0.28125 1.5q-0.265625 0.671875 -0.765625 1.171875q-0.5 0.5 -1.1875 0.78125q-0.671875 0.28125 -1.484375 0.28125zm0 -0.6875q0.640625 0 1.1875 -0.21875q0.5625 -0.234375 0.96875 -0.65625q0.40625 -0.421875 0.625 -0.96875q0.21875 -0.5625 0.21875 -1.203125q0 -0.65625 -0.21875 -1.203125q-0.21875 -0.5625 -0.625 -0.96875q-0.40625 -0.421875 -0.96875 -0.640625q-0.546875 -0.234375 -1.1875 -0.234375q-0.65625 0 -1.203125 0.234375q-0.546875 0.21875 -0.953125 0.640625q-0.40625 0.40625 -0.640625 0.96875q-0.21875 0.546875 -0.21875 1.203125q0 0.640625 0.21875 1.203125q0.234375 0.546875 0.640625 0.96875q0.40625 0.421875 0.953125 0.65625q0.546875 0.21875 1.203125 0.21875zm5.434952 -2.546875q0.03125 -0.578125 0.296875 -1.03125q0.28125 -0.46875 0.71875 -0.71875q0.453125 -0.265625 0.984375 -0.265625q0.4375 0 0.671875 0.125q0.234375 0.109375 0.171875 0.34375q-0.03125 0.140625 -0.125 0.1875q-0.09375 0.046875 -0.21875 0.046875q-0.125 -0.015625 -0.28125 -0.03125q-0.53125 -0.046875 -0.9375 0.109375q-0.390625 0.15625 -0.640625 0.484375q-0.234375 0.3125 -0.234375 0.75l-0.40625 0zm0.046875 3.140625q-0.15625 0 -0.25 -0.09375q-0.09375 -0.09375 -0.09375 -0.265625l0 -4.390625q0 -0.171875 0.09375 -0.265625q0.09375 -0.09375 0.25 -0.09375q0.171875 0 0.265625 0.09375q0.09375 0.09375 0.09375 0.265625l0 4.390625q0 0.171875 -0.09375 0.265625q-0.09375 0.09375 -0.265625 0.09375zm5.805191 0.046875q-0.75 0 -1.3125 -0.328125q-0.5625 -0.328125 -0.890625 -0.921875q-0.328125 -0.59375 -0.328125 -1.34375q0 -0.765625 0.328125 -1.34375q0.34375 -0.59375 0.9375 -0.921875q0.59375 -0.34375 1.328125 -0.34375q0.765625 0 1.34375 0.34375q0.578125 0.328125 0.90625 0.921875q0.34375 0.578125 0.34375 1.34375l-0.421875 0.21875q0 0.703125 -0.296875 1.234375q-0.28125 0.53125 -0.796875 0.84375q-0.5 0.296875 -1.140625 0.296875zm0.09375 1.96875q-0.75 0 -1.3125 -0.28125q-0.546875 -0.265625 -0.921875 -0.75q-0.09375 -0.109375 -0.078125 -0.25q0.015625 -0.125 0.125 -0.203125q0.125 -0.078125 0.265625 -0.0625q0.15625 0.03125 0.25 0.140625q0.265625 0.34375 0.6875 0.546875q0.421875 0.203125 0.984375 0.203125q0.53125 0 0.9375 -0.25q0.421875 -0.25 0.671875 -0.71875q0.25 -0.453125 0.25 -1.0625l0 -1.421875l0.265625 -0.53125l0.4375 0.078125l0 1.90625q0 0.75 -0.34375 1.34375q-0.328125 0.609375 -0.90625 0.953125q-0.578125 0.359375 -1.3125 0.359375zm-0.03125 -2.625q0.5625 0 0.984375 -0.234375q0.421875 -0.25 0.65625 -0.6875q0.25 -0.453125 0.25 -1.015625q0 -0.5625 -0.25 -1.0q-0.234375 -0.453125 -0.65625 -0.703125q-0.421875 -0.25 -0.984375 -0.25q-0.546875 0 -0.984375 0.25q-0.421875 0.25 -0.671875 0.703125q-0.234375 0.4375 -0.234375 1.0q0 0.5625 0.234375 1.015625q0.25 0.4375 0.671875 0.6875q0.4375 0.234375 0.984375 0.234375zm6.25264 0.65625q-0.71875 0 -1.296875 -0.34375q-0.5625 -0.34375 -0.90625 -0.921875q-0.328125 -0.59375 -0.328125 -1.328125q0 -0.75 0.34375 -1.328125q0.34375 -0.59375 0.921875 -0.9375q0.59375 -0.34375 1.328125 -0.34375q0.75 0 1.328125 0.34375q0.578125 0.34375 0.921875 0.9375q0.34375 0.578125 0.34375 1.328125l-0.28125 0.21875q0 0.671875 -0.3125 1.21875q-0.3125 0.53125 -0.859375 0.84375q-0.53125 0.3125 -1.203125 0.3125zm0.0625 -0.65625q0.546875 0 0.96875 -0.25q0.421875 -0.25 0.671875 -0.6875q0.25 -0.453125 0.25 -1.0q0 -0.5625 -0.25 -1.0q-0.25 -0.4375 -0.671875 -0.6875q-0.421875 -0.265625 -0.96875 -0.265625q-0.53125 0 -0.96875 0.265625q-0.421875 0.25 -0.671875 0.6875q-0.25 0.4375 -0.25 1.0q0 0.546875 0.25 1.0q0.25 0.4375 0.671875 0.6875q0.4375 0.25 0.96875 0.25zm2.234375 0.609375q-0.15625 0 -0.265625 -0.09375q-0.09375 -0.109375 -0.09375 -0.265625l0 -1.59375l0.171875 -0.734375l0.546875 0.140625l0 2.1875q0 0.15625 -0.109375 0.265625q-0.09375 0.09375 -0.25 0.09375zm6.143265 0q-0.15625 0 -0.265625 -0.09375q-0.109375 -0.109375 -0.109375 -0.265625l0 -2.421875q0 -0.578125 -0.21875 -0.953125q-0.21875 -0.375 -0.59375 -0.5625q-0.375 -0.1875 -0.84375 -0.1875q-0.46875 0 -0.84375 0.1875q-0.359375 0.171875 -0.578125 0.484375q-0.203125 0.3125 -0.203125 0.703125l-0.515625 0q0.015625 -0.59375 0.3125 -1.046875q0.296875 -0.46875 0.796875 -0.734375q0.5 -0.265625 1.09375 -0.265625q0.671875 0 1.1875 0.28125q0.53125 0.265625 0.828125 0.796875q0.296875 0.53125 0.296875 1.296875l0 2.421875q0 0.15625 -0.109375 0.265625q-0.09375 0.09375 -0.234375 0.09375zm-4.015625 0q-0.171875 0 -0.265625 -0.09375q-0.09375 -0.109375 -0.09375 -0.265625l0 -4.375q0 -0.171875 0.09375 -0.265625q0.09375 -0.109375 0.265625 -0.109375q0.15625 0 0.25 0.109375q0.109375 0.09375 0.109375 0.265625l0 4.375q0 0.15625 -0.109375 0.265625q-0.09375 0.09375 -0.25 0.09375zm6.471386 0q-0.171875 0 -0.28125 -0.09375q-0.093746185 -0.109375 -0.093746185 -0.265625l0 -4.375q0 -0.171875 0.093746185 -0.265625q0.109375 -0.109375 0.28125 -0.109375q0.15625 0 0.25 0.109375q0.09375 0.09375 0.09375 0.265625l0 4.375q0 0.15625 -0.09375 0.265625q-0.09375 0.09375 -0.25 0.09375zm0.015625 -6.078125q-0.203125 0 -0.3593712 -0.140625q-0.140625 -0.15625 -0.140625 -0.359375q0 -0.234375 0.15625 -0.375q0.15624619 -0.140625 0.3593712 -0.140625q0.1875 0 0.34375 0.140625q0.15625 0.140625 0.15625 0.375q0 0.203125 -0.15625 0.359375q-0.140625 0.140625 -0.359375 0.140625zm3.9458313 6.125q-0.546875 0 -1.09375 -0.1875q-0.546875 -0.1875 -0.875 -0.5625q-0.109375 -0.109375 -0.09375 -0.25q0.03125 -0.140625 0.140625 -0.234375q0.140625 -0.09375 0.28125 -0.078125q0.140625 0.015625 0.234375 0.125q0.21875 0.25 0.578125 0.390625q0.375 0.140625 0.828125 0.140625q0.6875 0 0.984375 -0.234375q0.3125 -0.234375 0.328125 -0.578125q0 -0.328125 -0.328125 -0.546875q-0.3125 -0.21875 -1.03125 -0.34375q-0.953125 -0.15625 -1.390625 -0.515625q-0.4375 -0.375 -0.4375 -0.890625q0 -0.484375 0.25 -0.796875q0.265625 -0.3125 0.671875 -0.46875q0.421875 -0.171875 0.9375 -0.171875q0.625 0 1.0625 0.21875q0.453125 0.21875 0.734375 0.578125q0.09375 0.125 0.078125 0.265625q-0.015625 0.125 -0.140625 0.203125q-0.125 0.0625 -0.265625 0.046875q-0.140625 -0.03125 -0.25 -0.140625q-0.234375 -0.265625 -0.546875 -0.390625q-0.296875 -0.125 -0.703125 -0.125q-0.5 0 -0.8125 0.21875q-0.3125 0.203125 -0.3125 0.515625q0 0.21875 0.109375 0.375q0.125 0.15625 0.40625 0.28125q0.28125 0.109375 0.796875 0.203125q0.703125 0.109375 1.109375 0.328125q0.40625 0.21875 0.578125 0.515625q0.171875 0.296875 0.171875 0.640625q0 0.4375 -0.265625 0.765625q-0.25 0.328125 -0.703125 0.515625q-0.453125 0.1875 -1.03125 0.1875zm5.4966125 0q-0.71875 0 -1.296875 -0.34375q-0.5625 -0.34375 -0.90625 -0.921875q-0.328125 -0.59375 -0.328125 -1.328125q0 -0.75 0.34375 -1.328125q0.34375 -0.59375 0.921875 -0.9375q0.59375 -0.34375 1.328125 -0.34375q0.75 0 1.328125 0.34375q0.578125 0.34375 0.921875 0.9375q0.34375 0.578125 0.34375 1.328125l-0.28125 0.21875q0 0.671875 -0.3125 1.21875q-0.3125 0.53125 -0.859375 0.84375q-0.53125 0.3125 -1.203125 0.3125zm0.0625 -0.65625q0.546875 0 0.96875 -0.25q0.421875 -0.25 0.671875 -0.6875q0.25 -0.453125 0.25 -1.0q0 -0.5625 -0.25 -1.0q-0.25 -0.4375 -0.671875 -0.6875q-0.421875 -0.265625 -0.96875 -0.265625q-0.53125 0 -0.96875 0.265625q-0.421875 0.25 -0.671875 0.6875q-0.25 0.4375 -0.25 1.0q0 0.546875 0.25 1.0q0.25 0.4375 0.671875 0.6875q0.4375 0.25 0.96875 0.25zm2.234375 0.609375q-0.15625 0 -0.265625 -0.09375q-0.09375 -0.109375 -0.09375 -0.265625l0 -1.59375l0.171875 -0.734375l0.546875 0.140625l0 2.1875q0 0.15625 -0.109375 0.265625q-0.09375 0.09375 -0.25 0.09375zm3.7526398 0q-0.484375 0 -0.875 -0.234375q-0.390625 -0.234375 -0.609375 -0.640625q-0.21875 -0.40625 -0.21875 -0.921875l0 -4.5625q0 -0.15625 0.09375 -0.25q0.09375 -0.109375 0.25 -0.109375q0.15625 0 0.265625 0.109375q0.109375 0.09375 0.109375 0.25l0 4.5625q0 0.46875 0.265625 0.78125q0.28125 0.296875 0.71875 0.296875l0.265625 0q0.140625 0 0.234375 0.109375q0.09375 0.09375 0.09375 0.25q0 0.15625 -0.109375 0.265625q-0.109375 0.09375 -0.28125 0.09375l-0.203125 0zm-2.3125 -4.296875q-0.140625 0 -0.234375 -0.078125q-0.09375 -0.09375 -0.09375 -0.21875q0 -0.140625 0.09375 -0.234375q0.09375 -0.09375 0.234375 -0.09375l2.375 0q0.140625 0 0.234375 0.09375q0.09375 0.09375 0.09375 0.234375q0 0.125 -0.09375 0.21875q-0.09375 0.078125 -0.234375 0.078125l-2.375 0zm4.5936584 4.296875q-0.171875 0 -0.28125 -0.09375q-0.09375 -0.109375 -0.09375 -0.265625l0 -4.375q0 -0.171875 0.09375 -0.265625q0.109375 -0.109375 0.28125 -0.109375q0.15625 0 0.25 0.109375q0.09375 0.09375 0.09375 0.265625l0 4.375q0 0.15625 -0.09375 0.265625q-0.09375 0.09375 -0.25 0.09375zm0.015625 -6.078125q-0.203125 0 -0.359375 -0.140625q-0.140625 -0.15625 -0.140625 -0.359375q0 -0.234375 0.15625 -0.375q0.15625 -0.140625 0.359375 -0.140625q0.1875 0 0.34375 0.140625q0.15625 0.140625 0.15625 0.375q0 0.203125 -0.15625 0.359375q-0.140625 0.140625 -0.359375 0.140625zm4.4770813 6.125q-0.734375 0 -1.328125 -0.328125q-0.59375 -0.34375 -0.9375 -0.921875q-0.328125 -0.59375 -0.328125 -1.34375q0 -0.75 0.328125 -1.34375q0.34375 -0.59375 0.9375 -0.921875q0.59375 -0.34375 1.328125 -0.34375q0.75 0 1.328125 0.34375q0.59375 0.328125 0.921875 0.921875q0.34375 0.59375 0.34375 1.34375q0 0.75 -0.34375 1.34375q-0.328125 0.578125 -0.921875 0.921875q-0.578125 0.328125 -1.328125 0.328125zm0 -0.65625q0.546875 0 0.96875 -0.25q0.4375 -0.25 0.671875 -0.6875q0.25 -0.4375 0.25 -1.0q0 -0.5625 -0.25 -1.0q-0.234375 -0.453125 -0.671875 -0.703125q-0.421875 -0.25 -0.96875 -0.25q-0.53125 0 -0.96875 0.25q-0.421875 0.25 -0.671875 0.703125q-0.25 0.4375 -0.25 1.0q0 0.5625 0.25 1.0q0.25 0.4375 0.671875 0.6875q0.4375 0.25 0.96875 0.25zm8.37764 0.609375q-0.15625 0 -0.265625 -0.09375q-0.109375 -0.109375 -0.109375 -0.265625l0 -2.421875q0 -0.578125 -0.21875 -0.953125q-0.21875 -0.375 -0.59375 -0.5625q-0.375 -0.1875 -0.84375 -0.1875q-0.46875 0 -0.84375 0.1875q-0.359375 0.171875 -0.578125 0.484375q-0.203125 0.3125 -0.203125 0.703125l-0.515625 0q0.015625 -0.59375 0.3125 -1.046875q0.296875 -0.46875 0.796875 -0.734375q0.5 -0.265625 1.09375 -0.265625q0.671875 0 1.1875 0.28125q0.53125 0.265625 0.828125 0.796875q0.296875 0.53125 0.296875 1.296875l0 2.421875q0 0.15625 -0.109375 0.265625q-0.09375 0.09375 -0.234375 0.09375zm-4.015625 0q-0.171875 0 -0.265625 -0.09375q-0.09375 -0.109375 -0.09375 -0.265625l0 -4.375q0 -0.171875 0.09375 -0.265625q0.09375 -0.109375 0.265625 -0.109375q0.15625 0 0.25 0.109375q0.109375 0.09375 0.109375 0.265625l0 4.375q0 0.15625 -0.109375 0.265625q-0.09375 0.09375 -0.25 0.09375zm8.205765 0.046875q-0.71875 0 -1.296875 -0.34375q-0.5625 -0.34375 -0.90625 -0.921875q-0.328125 -0.59375 -0.328125 -1.328125q0 -0.75 0.34375 -1.328125q0.34375 -0.59375 0.921875 -0.9375q0.59375 -0.34375 1.328125 -0.34375q0.75 0 1.328125 0.34375q0.578125 0.34375 0.921875 0.9375q0.34375 0.578125 0.34375 1.328125l-0.28125 0.21875q0 0.671875 -0.3125 1.21875q-0.3125 0.53125 -0.859375 0.84375q-0.53125 0.3125 -1.203125 0.3125zm0.0625 -0.65625q0.546875 0 0.96875 -0.25q0.421875 -0.25 0.671875 -0.6875q0.25 -0.453125 0.25 -1.0q0 -0.5625 -0.25 -1.0q-0.25 -0.4375 -0.671875 -0.6875q-0.421875 -0.265625 -0.96875 -0.265625q-0.53125 0 -0.96875 0.265625q-0.421875 0.25 -0.671875 0.6875q-0.25 0.4375 -0.25 1.0q0 0.546875 0.25 1.0q0.25 0.4375 0.671875 0.6875q0.4375 0.25 0.96875 0.25zm2.234375 0.609375q-0.15625 0 -0.265625 -0.09375q-0.09375 -0.109375 -0.09375 -0.265625l0 -1.59375l0.171875 -0.734375l0.546875 0.140625l0 2.1875q0 0.15625 -0.109375 0.265625q-0.09375 0.09375 -0.25 0.09375zm2.8620148 0q-0.375 0 -0.671875 -0.203125q-0.28125 -0.203125 -0.453125 -0.5625q-0.15625 -0.375 -0.15625 -0.84375l0 -5.328125q0 -0.15625 0.09375 -0.25q0.09375 -0.09375 0.25 -0.09375q0.171875 0 0.265625 0.09375q0.09375 0.09375 0.09375 0.25l0 5.328125q0 0.390625 0.15625 0.65625q0.171875 0.25 0.421875 0.25l0.234375 0q0.140625 0 0.21875 0.09375q0.09375 0.09375 0.09375 0.25q0 0.15625 -0.125 0.265625q-0.109375 0.09375 -0.296875 0.09375l-0.125 0zm6.848053 0.046875q-0.71875 0 -1.3125 -0.328125q-0.578125 -0.34375 -0.921875 -0.921875q-0.34375 -0.59375 -0.34375 -1.3125l0 -4.40625q0 -0.171875 0.09375 -0.265625q0.09375 -0.09375 0.265625 -0.09375q0.15625 0 0.25 0.09375q0.109375 0.09375 0.109375 0.265625l0 2.75q0.296875 -0.453125 0.796875 -0.71875q0.515625 -0.265625 1.140625 -0.265625q0.71875 0 1.28125 0.34375q0.578125 0.34375 0.90625 0.9375q0.34375 0.578125 0.34375 1.3125q0 0.75 -0.34375 1.34375q-0.34375 0.578125 -0.9375 0.921875q-0.578125 0.34375 -1.328125 0.34375zm0 -0.65625q0.546875 0 0.96875 -0.25q0.4375 -0.265625 0.671875 -0.703125q0.25 -0.4375 0.25 -1.0q0 -0.546875 -0.25 -0.984375q-0.234375 -0.453125 -0.671875 -0.703125q-0.421875 -0.25 -0.96875 -0.25q-0.53125 0 -0.96875 0.25q-0.421875 0.25 -0.671875 0.703125q-0.234375 0.4375 -0.234375 0.984375q0 0.5625 0.234375 1.0q0.25 0.4375 0.671875 0.703125q0.4375 0.25 0.96875 0.25zm6.329361 0.65625q-0.734375 0 -1.328125 -0.328125q-0.59375 -0.34375 -0.9375 -0.921875q-0.328125 -0.59375 -0.328125 -1.34375q0 -0.75 0.328125 -1.34375q0.34375 -0.59375 0.9375 -0.921875q0.59375 -0.34375 1.328125 -0.34375q0.75 0 1.328125 0.34375q0.59375 0.328125 0.921875 0.921875q0.34375 0.59375 0.34375 1.34375q0 0.75 -0.34375 1.34375q-0.328125 0.578125 -0.921875 0.921875q-0.578125 0.328125 -1.328125 0.328125zm0 -0.65625q0.546875 0 0.96875 -0.25q0.4375 -0.25 0.671875 -0.6875q0.25 -0.4375 0.25 -1.0q0 -0.5625 -0.25 -1.0q-0.234375 -0.453125 -0.671875 -0.703125q-0.421875 -0.25 -0.96875 -0.25q-0.53125 0 -0.96875 0.25q-0.421875 0.25 -0.671875 0.703125q-0.25 0.4375 -0.25 1.0q0 0.5625 0.25 1.0q0.25 0.4375 0.671875 0.6875q0.4375 0.25 0.96875 0.25zm6.22139 0.671875q-0.671875 0 -1.1875 -0.28125q-0.515625 -0.28125 -0.828125 -0.8125q-0.296875 -0.53125 -0.296875 -1.296875l0 -2.421875q0 -0.140625 0.09375 -0.25q0.109375 -0.109375 0.25 -0.109375q0.171875 0 0.265625 0.109375q0.109375 0.109375 0.109375 0.25l0 2.421875q0 0.578125 0.21875 0.953125q0.21875 0.375 0.59375 0.5625q0.375 0.1875 0.859375 0.1875q0.453125 0 0.8125 -0.171875q0.375 -0.1875 0.578125 -0.484375q0.21875 -0.3125 0.21875 -0.703125l0.515625 0q-0.015625 0.578125 -0.3125 1.046875q-0.296875 0.46875 -0.796875 0.734375q-0.484375 0.265625 -1.09375 0.265625zm2.046875 -0.0625q-0.15625 0 -0.265625 -0.09375q-0.09375 -0.109375 -0.09375 -0.265625l0 -4.390625q0 -0.15625 0.09375 -0.25q0.109375 -0.109375 0.265625 -0.109375q0.15625 0 0.25 0.109375q0.109375 0.09375 0.109375 0.25l0 4.390625q0 0.15625 -0.109375 0.265625q-0.09375 0.09375 -0.25 0.09375zm6.424515 0q-0.15625 0 -0.265625 -0.09375q-0.109375 -0.109375 -0.109375 -0.265625l0 -2.421875q0 -0.578125 -0.21875 -0.953125q-0.21875 -0.375 -0.59375 -0.5625q-0.375 -0.1875 -0.84375 -0.1875q-0.46875 0 -0.84375 0.1875q-0.359375 0.171875 -0.578125 0.484375q-0.203125 0.3125 -0.203125 0.703125l-0.515625 0q0.015625 -0.59375 0.3125 -1.046875q0.296875 -0.46875 0.796875 -0.734375q0.5 -0.265625 1.09375 -0.265625q0.671875 0 1.1875 0.28125q0.53125 0.265625 0.828125 0.796875q0.296875 0.53125 0.296875 1.296875l0 2.421875q0 0.15625 -0.109375 0.265625q-0.09375 0.09375 -0.234375 0.09375zm-4.015625 0q-0.171875 0 -0.265625 -0.09375q-0.09375 -0.109375 -0.09375 -0.265625l0 -4.375q0 -0.171875 0.09375 -0.265625q0.09375 -0.109375 0.265625 -0.109375q0.15625 0 0.25 0.109375q0.109375 0.09375 0.109375 0.265625l0 4.375q0 0.15625 -0.109375 0.265625q-0.09375 0.09375 -0.25 0.09375zm8.268265 0.046875q-0.734375 0 -1.328125 -0.34375q-0.578125 -0.34375 -0.921875 -0.921875q-0.34375 -0.59375 -0.34375 -1.34375q0 -0.734375 0.328125 -1.3125q0.34375 -0.59375 0.90625 -0.9375q0.578125 -0.34375 1.296875 -0.34375q0.625 0 1.125 0.265625q0.5 0.265625 0.8125 0.71875l0 -2.75q0 -0.171875 0.09375 -0.265625q0.109375 -0.09375 0.265625 -0.09375q0.15625 0 0.25 0.09375q0.109375 0.09375 0.109375 0.265625l0 4.40625q-0.015625 0.71875 -0.359375 1.3125q-0.328125 0.578125 -0.921875 0.921875q-0.578125 0.328125 -1.3125 0.328125zm0 -0.65625q0.546875 0 0.96875 -0.25q0.421875 -0.265625 0.671875 -0.703125q0.25 -0.4375 0.25 -1.0q0 -0.546875 -0.25 -0.984375q-0.25 -0.453125 -0.671875 -0.703125q-0.421875 -0.25 -0.96875 -0.25q-0.53125 0 -0.96875 0.25q-0.421875 0.25 -0.671875 0.703125q-0.25 0.4375 -0.25 0.984375q0 0.5625 0.25 1.0q0.25 0.4375 0.671875 0.703125q0.4375 0.25 0.96875 0.25zm6.532486 0.65625q-0.71875 0 -1.296875 -0.34375q-0.5625 -0.34375 -0.90625 -0.921875q-0.328125 -0.59375 -0.328125 -1.328125q0 -0.75 0.34375 -1.328125q0.34375 -0.59375 0.921875 -0.9375q0.59375 -0.34375 1.328125 -0.34375q0.75 0 1.328125 0.34375q0.578125 0.34375 0.921875 0.9375q0.34375 0.578125 0.34375 1.328125l-0.28125 0.21875q0 0.671875 -0.3125 1.21875q-0.3125 0.53125 -0.859375 0.84375q-0.53125 0.3125 -1.203125 0.3125zm0.0625 -0.65625q0.546875 0 0.96875 -0.25q0.421875 -0.25 0.671875 -0.6875q0.25 -0.453125 0.25 -1.0q0 -0.5625 -0.25 -1.0q-0.25 -0.4375 -0.671875 -0.6875q-0.421875 -0.265625 -0.96875 -0.265625q-0.53125 0 -0.96875 0.265625q-0.421875 0.25 -0.671875 0.6875q-0.25 0.4375 -0.25 1.0q0 0.546875 0.25 1.0q0.25 0.4375 0.671875 0.6875q0.4375 0.25 0.96875 0.25zm2.234375 0.609375q-0.15625 0 -0.265625 -0.09375q-0.09375 -0.109375 -0.09375 -0.265625l0 -1.59375l0.171875 -0.734375l0.546875 0.140625l0 2.1875q0 0.15625 -0.109375 0.265625q-0.09375 0.09375 -0.25 0.09375zm2.0651398 -3.140625q0.03125 -0.578125 0.296875 -1.03125q0.28125 -0.46875 0.71875 -0.71875q0.453125 -0.265625 0.984375 -0.265625q0.4375 0 0.671875 0.125q0.234375 0.109375 0.171875 0.34375q-0.03125 0.140625 -0.125 0.1875q-0.09375 0.046875 -0.21875 0.046875q-0.125 -0.015625 -0.28125 -0.03125q-0.53125 -0.046875 -0.9375 0.109375q-0.390625 0.15625 -0.640625 0.484375q-0.234375 0.3125 -0.234375 0.75l-0.40625 0zm0.046875 3.140625q-0.15625 0 -0.25 -0.09375q-0.09375 -0.09375 -0.09375 -0.265625l0 -4.390625q0 -0.171875 0.09375 -0.265625q0.09375 -0.09375 0.25 -0.09375q0.171875 0 0.265625 0.09375q0.09375 0.09375 0.09375 0.265625l0 4.390625q0 0.171875 -0.09375 0.265625q-0.09375 0.09375 -0.265625 0.09375zm4.803528 2.21875q-0.078125 0 -0.171875 -0.03125q-0.3125 -0.140625 -0.171875 -0.453125l3.015625 -6.640625q0.140625 -0.296875 0.4375 -0.171875q0.328125 0.140625 0.1875 0.4375l-3.03125 6.640625q-0.09375 0.21875 -0.265625 0.21875zm1.03125 -2.375q-0.140625 0.0625 -0.265625 0.03125q-0.109375 -0.046875 -0.1875 -0.1875l-2.078125 -4.3125q-0.0625 -0.140625 -0.015625 -0.265625q0.046875 -0.125 0.171875 -0.1875q0.140625 -0.0625 0.265625 -0.015625q0.125 0.03125 0.1875 0.171875l2.046875 4.3125q0.078125 0.140625 0.046875 0.265625q-0.03125 0.125 -0.171875 0.1875z" fill-rule="nonzero"/><path fill="#000000" fill-opacity="0.0" d="m461.44333 139.27562l-53.102356 19.968506" fill-rule="evenodd"/><path stroke="#cccccc" stroke-width="2.0" stroke-linejoin="round" stroke-linecap="butt" d="m461.44333 139.27562l-53.102356 19.968506" fill-rule="evenodd"/><path fill="#000000" fill-opacity="0.0" d="m504.0 359.47507l-271.1811 -64.62991" fill-rule="evenodd"/><path stroke="#cccccc" stroke-width="2.0" stroke-linejoin="round" stroke-linecap="butt" d="m504.0 359.47507l-271.1811 -64.62991" fill-rule="evenodd"/><path fill="#000000" fill-opacity="0.0" d="m507.22925 367.4458l18.236206 48.850403" fill-rule="evenodd"/><path stroke="#cccccc" stroke-width="2.0" stroke-linejoin="round" stroke-linecap="butt" d="m507.22925 367.4458l18.236206 48.850403" fill-rule="evenodd"/><path fill="#000000" fill-opacity="0.0" d="m441.45932 455.6509l86.70865 -1.5747986" fill-rule="evenodd"/><path stroke="#cccccc" stroke-width="2.0" stroke-linejoin="round" stroke-linecap="butt" d="m441.45932 455.6509l86.70865 -1.5747986" fill-rule="evenodd"/><path fill="#000000" fill-opacity="0.0" d="m351.59055 540.7874l117.19687 -1.5748291" fill-rule="evenodd"/><path stroke="#cccccc" stroke-width="2.0" stroke-linejoin="round" stroke-linecap="butt" d="m351.59055 540.7874l117.19687 -1.5748291" fill-rule="evenodd"/><path fill="#000000" fill-opacity="0.0" d="m354.21783 514.51184l87.24411 -55.716553" fill-rule="evenodd"/><path stroke="#cccccc" stroke-width="2.0" stroke-linejoin="round" stroke-linecap="butt" d="m354.21783 514.51184l87.24411 -55.716553" fill-rule="evenodd"/><path fill="#000000" fill-opacity="0.0" d="m469.31497 514.51184l58.33072 -59.40161" fill-rule="evenodd"/><path stroke="#cccccc" stroke-width="2.0" stroke-linejoin="round" stroke-linecap="butt" d="m469.31497 514.51184l58.33072 -59.40161" fill-rule="evenodd"/><path fill="#000000" fill-opacity="0.0" d="m442.5118 432.0l60.409454 -70.92914" fill-rule="evenodd"/><path stroke="#cccccc" stroke-width="2.0" stroke-linejoin="round" stroke-linecap="butt" d="m442.5118 432.0l60.409454 -70.92914" fill-rule="evenodd"/><path fill="#000000" fill-opacity="0.0" d="m423.5741 40.671364l43.40158 68.40945" fill-rule="evenodd"/><path stroke="#cccccc" stroke-width="2.0" stroke-linejoin="round" stroke-linecap="butt" d="m423.5741 40.671364l43.40158 68.40945" fill-rule="evenodd"/><path fill="#000000" fill-opacity="0.0" d="m461.95538 141.3727l-6.834656 142.42522" fill-rule="evenodd"/><path stroke="#cccccc" stroke-width="2.0" stroke-linejoin="round" stroke-linecap="butt" d="m461.95538 141.3727l-6.834656 142.42522" fill-rule="evenodd"/><path fill="#000000" fill-opacity="0.0" d="m462.48294 141.3727l41.007874 192.34645" fill-rule="evenodd"/><path stroke="#cccccc" stroke-width="2.0" stroke-linejoin="round" stroke-linecap="butt" d="m462.48294 141.3727l41.007874 192.34645" fill-rule="evenodd"/><path fill="#000000" fill-opacity="0.0" d="m427.41718 434.63925l-30.677155 13.007874" fill-rule="evenodd"/><path stroke="#cccccc" stroke-width="2.0" stroke-linejoin="round" stroke-linecap="butt" d="m427.41718 434.63925l-30.677155 13.007874" fill-rule="evenodd"/><path fill="#000000" fill-opacity="0.0" d="m353.16992 513.4621l32.188965 -58.64566" fill-rule="evenodd"/><path stroke="#cccccc" stroke-width="2.0" stroke-linejoin="round" stroke-linecap="butt" d="m353.16992 513.4621l32.188965 -58.64566" fill-rule="evenodd"/><path fill="#3c78d8" d="m218.98347 284.92075l23.7771 0l0 0c2.6021118 0 5.0976562 1.0336914 6.937622 2.8736572c1.8399811 1.8399963 2.8736725 4.3355103 2.8736725 6.9376526l0 6.336914c0 1.9188232 -1.555542 3.4743652 -3.4743805 3.4743652l-36.450928 0c-1.9188385 0 -3.4743652 -1.555542 -3.4743652 -3.4743652l0 -6.336914l0 0c0 -5.41864 4.3926544 -9.81131 9.811279 -9.81131z" fill-rule="evenodd"/><path fill="#6d9eeb" d="m217.12396 269.40497l0 0c0 -7.5731506 6.1552124 -13.712387 13.748062 -13.712387l0 0c3.6462097 0 7.1430817 1.4446869 9.721344 4.0162506c2.5782623 2.5715942 4.026718 6.059387 4.026718 9.696136l0 0c0 7.57312 -6.1552124 13.712372 -13.748062 13.712372l0 0c-7.5928497 0 -13.748062 -6.1392517 -13.748062 -13.712372z" fill-rule="evenodd"/><path fill="#3c78d8" d="m169.46904 170.7331l23.7771 0l0 0c2.6021118 0 5.0976562 1.0336761 6.937622 2.8736572c1.8399811 1.8399658 2.8736725 4.3355103 2.8736725 6.937622l0 6.336914c0 1.9188538 -1.555542 3.4743805 -3.4743805 3.4743805l-36.450928 0c-1.9188385 0 -3.4743652 -1.5555267 -3.4743652 -3.4743805l0 -6.336914l0 0c0 -5.418625 4.3926544 -9.811279 9.811279 -9.811279z" fill-rule="evenodd"/><path fill="#6d9eeb" d="m167.60953 155.2173l0 0c0 -7.5731354 6.1552124 -13.712387 13.748062 -13.712387l0 0c3.6462097 0 7.1430817 1.4447021 9.721344 4.016266c2.5782623 2.571579 4.026718 6.059372 4.026718 9.696121l0 0c0 7.5731354 -6.1552124 13.712372 -13.748062 13.712372l0 0c-7.5928497 0 -13.748062 -6.1392365 -13.748062 -13.712372z" fill-rule="evenodd"/><path fill="#3c78d8" d="m105.93361 287.57825l23.7771 0l0 0c2.6021118 0 5.0976562 1.0336609 6.937622 2.8736572c1.8399811 1.8399658 2.8736572 4.3355103 2.8736572 6.937622l0 6.336914c0 1.9188538 -1.5555267 3.4743652 -3.4743652 3.4743652l-36.450928 0c-1.9188461 0 -3.4743729 -1.5555115 -3.4743729 -3.4743652l0 -6.336914l0 0c0 -5.41864 4.392662 -9.811279 9.811287 -9.811279z" fill-rule="evenodd"/><path fill="#6d9eeb" d="m104.0741 272.06244l0 0c0 -7.57312 6.15522 -13.712372 13.748062 -13.712372l0 0c3.6462097 0 7.1430817 1.4447021 9.721344 4.016266c2.5782623 2.5715637 4.026718 6.0593567 4.026718 9.696106l0 0c0 7.5731506 -6.15522 13.712372 -13.748062 13.712372l0 0c-7.592842 0 -13.748062 -6.139221 -13.748062 -13.712372z" fill-rule="evenodd"/><path fill="#3c78d8" d="m455.52417 528.9824l23.7771 0l0 0c2.6021118 0 5.0976562 1.0336914 6.937622 2.8736572c1.8399658 1.8399658 2.8736572 4.3355103 2.8736572 6.937622l0 6.336914c0 1.9188843 -1.555542 3.4744263 -3.4743652 3.4744263l-36.450928 0c-1.9188538 0 -3.4743958 -1.555542 -3.4743958 -3.4744263l0 -6.336914l0 0c0 -5.418579 4.3926697 -9.811279 9.81131 -9.811279z" fill-rule="evenodd"/><path fill="#6d9eeb" d="m453.66464 513.4666l0 0c0 -7.57312 6.1552124 -13.712341 13.748077 -13.712341l0 0c3.6462097 0 7.1430664 1.4446716 9.721344 4.016266c2.578247 2.5715637 4.026703 6.0593567 4.026703 9.696075l0 0c0 7.573181 -6.1552124 13.712402 -13.748047 13.712402l0 0c-7.592865 0 -13.748077 -6.139221 -13.748077 -13.712402z" fill-rule="evenodd"/><path fill="#3c78d8" d="m340.7945 528.9824l23.7771 0l0 0c2.6021118 0 5.0976562 1.0336914 6.937622 2.8736572c1.8399963 1.8399658 2.8736572 4.3355103 2.8736572 6.937622l0 6.336914c0 1.9188843 -1.5555115 3.4744263 -3.4743652 3.4744263l-36.450928 0c-1.9188232 0 -3.4743652 -1.555542 -3.4743652 -3.4744263l0 -6.336914l0 0c0 -5.418579 4.3926697 -9.811279 9.811279 -9.811279z" fill-rule="evenodd"/><path fill="#6d9eeb" d="m338.935 513.4666l0 0c0 -7.57312 6.1552124 -13.712341 13.748047 -13.712341l0 0c3.6462097 0 7.143097 1.4446716 9.721344 4.016266c2.5782776 2.5715637 4.0267334 6.0593567 4.0267334 9.696075l0 0c0 7.573181 -6.155243 13.712402 -13.748077 13.712402l0 0c-7.5928345 0 -13.748047 -6.139221 -13.748047 -13.712402z" fill-rule="evenodd"/><path fill="#3c78d8" d="m428.763 445.947l23.7771 0l0 0c2.6021118 0 5.0976562 1.0336914 6.937622 2.8736572c1.8399963 1.8399963 2.8736572 4.3355103 2.8736572 6.9376526l0 6.336914c0 1.9188232 -1.5555115 3.4743652 -3.4743652 3.4743652l-36.450928 0c-1.9188538 0 -3.4743652 -1.555542 -3.4743652 -3.4743652l0 -6.336914l0 0c0 -5.41864 4.3926697 -9.81131 9.811279 -9.81131z" fill-rule="evenodd"/><path fill="#6d9eeb" d="m426.9035 430.4312l0 0c0 -7.5731506 6.1552124 -13.712372 13.748047 -13.712372l0 0c3.6462097 0 7.143097 1.4446716 9.721344 4.0162354c2.5782776 2.5715942 4.0267334 6.059387 4.0267334 9.696136l0 0c0 7.57312 -6.155243 13.712372 -13.748077 13.712372l0 0c-7.5928345 0 -13.748047 -6.1392517 -13.748047 -13.712372z" fill-rule="evenodd"/><path fill="#3c78d8" d="m515.1646 442.95355l23.777039 0l0 0c2.6021118 0 5.0976562 1.0336914 6.937683 2.8736572c1.8399658 1.8399963 2.8736572 4.3355103 2.8736572 6.9376526l0 6.336914c0 1.9188232 -1.555542 3.4743652 -3.4744263 3.4743652l-36.450897 0c-1.9188538 0 -3.4743652 -1.555542 -3.4743652 -3.4743652l0 -6.336914l0 0c0 -5.41864 4.392639 -9.81131 9.81131 -9.81131z" fill-rule="evenodd"/><path fill="#6d9eeb" d="m513.30505 427.43777l0 0c0 -7.5731506 6.1552124 -13.712372 13.748047 -13.712372l0 0c3.6462402 0 7.1431274 1.4446716 9.7213745 4.0162354c2.578247 2.5715942 4.0267334 6.059387 4.0267334 9.696136l0 0c0 7.57312 -6.1552124 13.712372 -13.748108 13.712372l0 0c-7.5928345 0 -13.748047 -6.1392517 -13.748047 -13.712372z" fill-rule="evenodd"/><path fill="#3c78d8" d="m490.10947 348.54935l23.77707 0l0 0c2.6021118 0 5.0976562 1.0336914 6.937622 2.8736877c1.8400269 1.8399658 2.8737183 4.3355103 2.8737183 6.937622l0 6.336914c0 1.9188538 -1.555542 3.4743652 -3.4744263 3.4743652l-36.450897 0c-1.9188538 0 -3.4743652 -1.5555115 -3.4743652 -3.4743652l0 -6.336914l0 0c0 -5.41864 4.392639 -9.81131 9.811279 -9.81131z" fill-rule="evenodd"/><path fill="#6d9eeb" d="m488.24994 333.03357l0 0c0 -7.5731506 6.1552124 -13.712372 13.748077 -13.712372l0 0c3.6462097 0 7.1430664 1.4446716 9.721344 4.016266c2.578247 2.5715637 4.0267334 6.0593567 4.0267334 9.696106l0 0c0 7.5731506 -6.155243 13.712372 -13.748077 13.712372l0 0c-7.592865 0 -13.748077 -6.139221 -13.748077 -13.712372z" fill-rule="evenodd"/><path fill="#3c78d8" d="m449.35092 131.65172l23.7771 0l0 0c2.6021118 0 5.0976562 1.0336914 6.937622 2.8736725c1.8399963 1.8399658 2.8736877 4.3355103 2.8736877 6.937622l0 6.336914c0 1.9188385 -1.555542 3.4743805 -3.4743958 3.4743805l-36.450928 0c-1.9188232 0 -3.4743652 -1.555542 -3.4743652 -3.4743805l0 -6.336914l0 0c0 -5.418625 4.3926697 -9.811295 9.811279 -9.811295z" fill-rule="evenodd"/><path fill="#6d9eeb" d="m447.49142 116.13593l0 0c0 -7.5731354 6.1552124 -13.712379 13.748047 -13.712379l0 0c3.6462097 0 7.143097 1.4446945 9.721344 4.016266c2.5782776 2.5715637 4.0267334 6.0593643 4.0267334 9.696114l0 0c0 7.573143 -6.1552124 13.712379 -13.748077 13.712379l0 0c-7.5928345 0 -13.748047 -6.1392365 -13.748047 -13.712379z" fill-rule="evenodd"/><path fill="#3c78d8" d="m397.1659 170.7331l23.7771 0l0 0c2.6021118 0 5.0976562 1.0336761 6.937622 2.8736572c1.8399658 1.8399658 2.8736572 4.3355103 2.8736572 6.937622l0 6.336914c0 1.9188538 -1.5555115 3.4743805 -3.4743652 3.4743805l-36.450928 0c-1.9188538 0 -3.4743652 -1.5555267 -3.4743652 -3.4743805l0 -6.336914l0 0c0 -5.418625 4.392639 -9.811279 9.811279 -9.811279z" fill-rule="evenodd"/><path fill="#6d9eeb" d="m395.30637 155.2173l0 0c0 -7.5731354 6.155243 -13.712387 13.748077 -13.712387l0 0c3.6462097 0 7.143097 1.4447021 9.721344 4.016266c2.578247 2.571579 4.026703 6.059372 4.026703 9.696121l0 0c0 7.5731354 -6.1552124 13.712372 -13.748047 13.712372l0 0c-7.5928345 0 -13.748077 -6.1392365 -13.748077 -13.712372z" fill-rule="evenodd"/><path fill="#3c78d8" d="m286.52023 90.41813l23.7771 0l0 0c2.6021118 0 5.0976257 1.0336838 6.937622 2.8736572c1.8399658 1.8399734 2.8736572 4.335518 2.8736572 6.9376297l0 6.336914c0 1.9188461 -1.555542 3.4743805 -3.4743652 3.4743805l-36.450928 0c-1.9188538 0 -3.4743958 -1.5555344 -3.4743958 -3.4743805l0 -6.336914l0 0c0 -5.418625 4.3926697 -9.811287 9.81131 -9.811287z" fill-rule="evenodd"/><path fill="#6d9eeb" d="m284.6607 74.902336l0 0c0 -7.5731354 6.1552124 -13.712379 13.748077 -13.712379l0 0c3.6462097 0 7.1430664 1.4446945 9.721344 4.016266c2.578247 2.5715714 4.026703 6.0593643 4.026703 9.696114l0 0c0 7.573143 -6.1552124 13.712379 -13.748047 13.712379l0 0c-7.592865 0 -13.748077 -6.1392365 -13.748077 -13.712379z" fill-rule="evenodd"/><path fill="#3c78d8" d="m152.11734 252.92206l23.777084 0l0 0c2.602127 0 5.0976562 1.0336914 6.9376373 2.8736725c1.8399658 1.8399811 2.8736572 4.335495 2.8736572 6.9376373l0 6.336914c0 1.9188232 -1.5555267 3.4743652 -3.4743652 3.4743652l-36.450928 0c-1.9188538 0 -3.4743805 -1.555542 -3.4743805 -3.4743652l0 -6.336914l0 0c0 -5.41864 4.3926697 -9.81131 9.811295 -9.81131z" fill-rule="evenodd"/><path fill="#6d9eeb" d="m150.25783 237.40628l0 0c0 -7.5731506 6.1552124 -13.712387 13.748062 -13.712387l0 0c3.6462097 0 7.1430817 1.4446869 9.721344 4.016266c2.5782623 2.5715637 4.026703 6.059372 4.026703 9.696121l0 0c0 7.5731354 -6.1552124 13.712372 -13.748047 13.712372l0 0c-7.5928497 0 -13.748062 -6.1392365 -13.748062 -13.712372z" fill-rule="evenodd"/><path fill="#ff0000" d="m450.06635 288.48947l0 0c-3.4615479 -2.2700195 -4.4909363 -6.8247375 -2.2991943 -10.173248l0 0c1.0524902 -1.6080017 2.7222595 -2.717102 4.6419067 -3.083313c1.9196777 -0.36621094 3.9320068 0.04046631 5.5942993 1.1305847l0 0c3.4615784 2.2700195 4.490967 6.824707 2.2992249 10.173218l0 0c-2.191742 3.3484802 -6.774658 4.2227783 -10.236237 1.9527588z" fill-rule="evenodd"/><path fill="#ff0000" d="m382.4408 449.91483l0 0c-0.6436157 -4.0877686 2.0356445 -7.90921 5.984253 -8.535431l0 0c1.8961792 -0.3007202 3.837494 0.19067383 5.3968506 1.3661194c1.5593567 1.175415 2.6090393 2.938568 2.9181213 4.9016113l0 0c0.6435852 4.0877686 -2.0356445 7.90921 -5.984253 8.535431l0 0c-3.948639 0.6261902 -7.671356 -2.1799622 -8.314972 -6.2677307z" fill-rule="evenodd"/><path fill="#ff0000" d="m44.047398 106.13664l0 0c-3.426773 -2.330902 -4.3786087 -6.8997116 -2.1259842 -10.204727l0 0c1.0817528 -1.58712 2.7729034 -2.6645813 4.7014275 -2.9953537c1.928524 -0.3307724 3.9364433 0.11223602 5.582039 1.231575l0 0c3.426773 2.330902 4.3786087 6.899719 2.1259842 10.204727l0 0c-2.2526245 3.305008 -6.8566895 4.094681 -10.283466 1.7637787z" fill-rule="evenodd"/><path fill="#ff0000" d="m329.3379 214.5986l0 0c2.330902 3.4180756 1.5412292 8.0221405 -1.763794 10.283463l0 0c-1.5871277 1.0859222 -3.553894 1.4753265 -5.4676514 1.0825348c-1.9137573 -0.39279175 -3.6177368 -1.5355988 -4.7370605 -3.1770172l0 0c-2.330902 -3.4180756 -1.5412292 -8.0221405 1.7637634 -10.283463l0 0c3.3050232 -2.261322 7.8738403 -1.3235931 10.204742 2.0944824z" fill-rule="evenodd"/><path fill="#ff0000" d="m143.16298 471.29846l0 0c-4.113861 -0.38269043 -7.145645 -3.9220886 -6.771652 -7.9055176l0 0c0.17959595 -1.9129028 1.1366119 -3.6744385 2.6605377 -4.8971252c1.5239105 -1.2226868 3.4898987 -1.8063354 5.465454 -1.6225586l0 0c4.113861 0.38269043 7.14563 3.9221191 6.771652 7.9055176l0 0c-0.37399292 3.9833984 -4.0121155 6.9023743 -8.125992 6.519684z" fill-rule="evenodd"/><path fill="#ff0000" d="m37.42295 162.39308l0 0c0 -4.139969 3.2432938 -7.496063 7.244095 -7.496063l0 0c1.9212532 0 3.7638168 0.7897644 5.122349 2.1955414c1.358532 1.4057922 2.121746 3.312439 2.121746 5.300522l0 0c0 4.1399536 -3.24329 7.496063 -7.244095 7.496063l0 0c-4.000801 0 -7.244095 -3.3561096 -7.244095 -7.496063z" fill-rule="evenodd"/></g></svg>