<svg version="1.1" viewBox="0.0 0.0 576.0 576.0" fill="none" stroke="none" stroke-linecap="square" stroke-miterlimit="10" xmlns:xlink="http://www.w3.org/1999/xlink" xmlns="http://www.w3.org/2000/svg"><clipPath id="gb316f53133_0_193.0"><path d="m0 0l576.0 0l0 576.0l-576.0 0l0 -576.0z" clip-rule="nonzero"/></clipPath><g clip-path="url(#gb316f53133_0_193.0)"><path fill="#ffffff" d="m0 0l576.0 0l0 576.0l-576.0 0z" fill-rule="evenodd"/><path fill="#000000" fill-opacity="0.0" d="m231.76656 34.014l-123.779526 162.48819" fill-rule="evenodd"/><path stroke="#cccccc" stroke-width="4.0" stroke-linejoin="round" stroke-linecap="butt" d="m231.76656 34.014l-123.779526 162.48819" fill-rule="evenodd"/><path fill="#000000" fill-opacity="0.0" d="m233.94751 32.70866l278.86615 227.27559" fill-rule="evenodd"/><path stroke="#cccccc" stroke-width="4.0" stroke-linejoin="round" stroke-linecap="butt" d="m233.94751 32.70866l278.86615 227.27559" fill-rule="evenodd"/><path fill="#000000" fill-opacity="0.0" d="m185.75066 174.0l71.464554 369.29132" fill-rule="evenodd"/><path stroke="#cccccc" stroke-width="4.0" stroke-linejoin="round" stroke-linecap="butt" d="m185.75066 174.0l71.464554 369.29132" fill-rule="evenodd"/><path fill="#000000" fill-opacity="0.0" d="m381.9543 68.76903l-148.94487 -36.031494" fill-rule="evenodd"/><path stroke="#cccccc" stroke-width="4.0" stroke-linejoin="round" stroke-linecap="butt" d="m381.9543 68.76903l-148.94487 -36.031494" fill-rule="evenodd"/><path fill="#000000" fill-opacity="0.0" d="m29.937008 359.23883l124.18898 16.063019" fill-rule="evenodd"/><path stroke="#cccccc" stroke-width="4.0" stroke-linejoin="round" stroke-linecap="butt" d="m29.937008 359.23883l124.18898 16.063019" fill-rule="evenodd"/><path fill="#000000" fill-opacity="0.0" d="m539.98627 522.79114l-283.30707 19.937012" fill-rule="evenodd"/><path stroke="#cccccc" stroke-width="4.0" stroke-linejoin="round" stroke-linecap="butt" d="m539.98627 522.79114l-283.30707 19.937012" fill-rule="evenodd"/><path fill="#000000" fill-opacity="0.0" d="m511.6929 260.55905l-255.02362 282.17325" fill-rule="evenodd"/><path stroke="#cccccc" stroke-width="4.0" stroke-linejoin="round" stroke-linecap="butt" d="m511.6929 260.55905l-255.02362 282.17325" fill-rule="evenodd"/><path fill="#000000" fill-opacity="0.0" d="m107.54855 196.24934l-78.14173 163.55907" fill-rule="evenodd"/><path stroke="#cccccc" stroke-width="4.0" stroke-linejoin="round" stroke-linecap="butt" d="m107.54855 196.24934l-78.14173 163.55907" fill-rule="evenodd"/><path fill="#000000" fill-opacity="0.0" d="m185.71654 172.96588l-77.07087 22.740158" fill-rule="evenodd"/><path stroke="#cccccc" stroke-width="4.0" stroke-linejoin="round" stroke-linecap="butt" d="m185.71654 172.96588l-77.07087 22.740158" fill-rule="evenodd"/><path fill="#000000" fill-opacity="0.0" d="m108.10499 196.80577l46.01574 177.95277" fill-rule="evenodd"/><path stroke="#cccccc" stroke-width="4.0" stroke-linejoin="round" stroke-linecap="butt" d="m108.10499 196.80577l46.01574 177.95277" fill-rule="evenodd"/><path fill="#000000" fill-opacity="0.0" d="m511.6929 259.44882l26.015778 258.77164" fill-rule="evenodd"/><path stroke="#cccccc" stroke-width="4.0" stroke-linejoin="round" stroke-linecap="butt" d="m511.6929 259.44882l26.015778 258.77164" fill-rule="evenodd"/><path fill="#000000" fill-opacity="0.0" d="m108.10499 195.14174l188.50394 80.94487" fill-rule="evenodd"/><path stroke="#cccccc" stroke-width="4.0" stroke-linejoin="round" stroke-linecap="butt" d="m108.10499 195.14174l188.50394 80.94487" fill-rule="evenodd"/><path fill="#000000" fill-opacity="0.0" d="m186.82677 173.51968l109.76378 102.01575" fill-rule="evenodd"/><path stroke="#cccccc" stroke-width="4.0" stroke-linejoin="round" stroke-linecap="butt" d="m186.82677 173.51968l109.76378 102.01575" fill-rule="evenodd"/><path fill="#000000" fill-opacity="0.0" d="m381.9685 69.85302l-85.921265 205.66928" fill-rule="evenodd"/><path stroke="#cccccc" stroke-width="4.0" stroke-linejoin="round" stroke-linecap="butt" d="m381.9685 69.85302l-85.921265 205.66928" fill-rule="evenodd"/><path fill="#000000" fill-opacity="0.0" d="m233.3937 33.262466l62.078735 242.26772" fill-rule="evenodd"/><path stroke="#cccccc" stroke-width="4.0" stroke-linejoin="round" stroke-linecap="butt" d="m233.3937 33.262466l62.078735 242.26772" fill-rule="evenodd"/><path fill="#000000" fill-opacity="0.0" d="m294.37534 320.43045l-139.14961 56.0" fill-rule="evenodd"/><path stroke="#cccccc" stroke-width="4.0" stroke-linejoin="round" stroke-linecap="butt" d="m294.37534 320.43045l-139.14961 56.0" fill-rule="evenodd"/><path fill="#000000" fill-opacity="0.0" d="m296.59317 320.43045l243.37009 203.46457" fill-rule="evenodd"/><path stroke="#cccccc" stroke-width="4.0" stroke-linejoin="round" stroke-linecap="butt" d="m296.59317 320.43045l243.37009 203.46457" fill-rule="evenodd"/><path fill="#000000" fill-opacity="0.0" d="m512.2467 260.00262l-214.55118 59.874023" fill-rule="evenodd"/><path stroke="#cccccc" stroke-width="4.0" stroke-linejoin="round" stroke-linecap="butt" d="m512.2467 260.00262l-214.55118 59.874023" fill-rule="evenodd"/><path fill="#000000" fill-opacity="0.0" d="m296.03937 319.87665l-266.11023 39.905518" fill-rule="evenodd"/><path stroke="#cccccc" stroke-width="4.0" stroke-linejoin="round" stroke-linecap="butt" d="m296.03937 319.87665l-266.11023 39.905518" fill-rule="evenodd"/><path fill="#ff0000" d="m18.081366 466.3074l0 0c0 -4.1399536 3.24329 -7.496063 7.244093 -7.496063l0 0c1.9212532 0 3.7638187 0.7897644 5.122349 2.1955261c1.358532 1.4057922 2.121746 3.312439 2.121746 5.300537l0 0c0 4.1399536 -3.2432919 7.496063 -7.244095 7.496063l0 0c-4.000803 0 -7.244093 -3.3561096 -7.244093 -7.496063z" fill-rule="evenodd"/><path fill="#000000" fill-opacity="0.0" d="m28.51181 452.021l205.13387 0l0 35.3071l-205.13387 0z" fill-rule="evenodd"/><path fill="#000000" d="m38.04306 469.981q-0.21875 0 -0.3125 -0.171875q-0.09375 -0.1875 -0.015625 -0.34375l2.75 -6.515625q0.09375 -0.25 0.34375 -0.25q0.25 0 0.34375 0.25l2.765625 6.515625q0.078125 0.1875 -0.03125 0.359375q-0.109375 0.15625 -0.296875 0.15625q-0.125 0 -0.21875 -0.046875q-0.078125 -0.0625 -0.125 -0.171875l-2.578125 -6.234375l0.296875 0l-2.578125 6.234375q-0.046875 0.109375 -0.140625 0.171875q-0.09375 0.046875 -0.203125 0.046875zm0.609375 -1.734375l0.28125 -0.625l3.796875 0l0.28125 0.625l-4.359375 0zm8.042053 1.78125q-0.546875 0 -1.09375 -0.1875q-0.546875 -0.1875 -0.875 -0.5625q-0.109375 -0.109375 -0.09375 -0.25q0.03125 -0.140625 0.140625 -0.234375q0.140625 -0.09375 0.28125 -0.078125q0.140625 0.015625 0.234375 0.125q0.21875 0.25 0.578125 0.390625q0.375 0.140625 0.828125 0.140625q0.6875 0 0.984375 -0.234375q0.3125 -0.234375 0.328125 -0.578125q0 -0.328125 -0.328125 -0.546875q-0.3125 -0.21875 -1.03125 -0.34375q-0.953125 -0.15625 -1.390625 -0.515625q-0.4375 -0.375 -0.4375 -0.890625q0 -0.484375 0.25 -0.796875q0.265625 -0.3125 0.671875 -0.46875q0.421875 -0.171875 0.9375 -0.171875q0.625 0 1.0625 0.21875q0.453125 0.21875 0.734375 0.578125q0.09375 0.125 0.078125 0.265625q-0.015625 0.125 -0.140625 0.203125q-0.125 0.0625 -0.265625 0.046875q-0.140625 -0.03125 -0.25 -0.140625q-0.234375 -0.265625 -0.546875 -0.390625q-0.296875 -0.125 -0.703125 -0.125q-0.5 0 -0.8125 0.21875q-0.3125 0.203125 -0.3125 0.515625q0 0.21875 0.109375 0.375q0.125 0.15625 0.40625 0.28125q0.28125 0.109375 0.796875 0.203125q0.703125 0.109375 1.109375 0.328125q0.40625 0.21875 0.578125 0.515625q0.171875 0.296875 0.171875 0.640625q0 0.4375 -0.265625 0.765625q-0.25 0.328125 -0.703125 0.515625q-0.453125 0.1875 -1.03125 0.1875zm5.0278625 0q-0.546875 0 -1.09375 -0.1875q-0.546875 -0.1875 -0.875 -0.5625q-0.109375 -0.109375 -0.09375 -0.25q0.03125 -0.140625 0.140625 -0.234375q0.140625 -0.09375 0.28125 -0.078125q0.140625 0.015625 0.234375 0.125q0.21875 0.25 0.578125 0.390625q0.375 0.140625 0.828125 0.140625q0.6875 0 0.984375 -0.234375q0.3125 -0.234375 0.328125 -0.578125q0 -0.328125 -0.328125 -0.546875q-0.3125 -0.21875 -1.03125 -0.34375q-0.953125 -0.15625 -1.390625 -0.515625q-0.4375 -0.375 -0.4375 -0.890625q0 -0.484375 0.25 -0.796875q0.265625 -0.3125 0.671875 -0.46875q0.421875 -0.171875 0.9375 -0.171875q0.625 0 1.0625 0.21875q0.453125 0.21875 0.734375 0.578125q0.09375 0.125 0.078125 0.265625q-0.015625 0.125 -0.140625 0.203125q-0.125 0.0625 -0.265625 0.046875q-0.140625 -0.03125 -0.25 -0.140625q-0.234375 -0.265625 -0.546875 -0.390625q-0.296875 -0.125 -0.703125 -0.125q-0.5 0 -0.8125 0.21875q-0.3125 0.203125 -0.3125 0.515625q0 0.21875 0.109375 0.375q0.125 0.15625 0.40625 0.28125q0.28125 0.109375 0.796875 0.203125q0.703125 0.109375 1.109375 0.328125q0.40625 0.21875 0.578125 0.515625q0.171875 0.296875 0.171875 0.640625q0 0.4375 -0.265625 0.765625q-0.25 0.328125 -0.703125 0.515625q-0.453125 0.1875 -1.03125 0.1875zm5.5591125 0q-0.765625 0 -1.34375 -0.328125q-0.578125 -0.328125 -0.921875 -0.921875q-0.328125 -0.59375 -0.328125 -1.34375q0 -0.765625 0.3125 -1.34375q0.3125 -0.59375 0.859375 -0.921875q0.5625 -0.34375 1.28125 -0.34375q0.703125 0 1.234375 0.328125q0.53125 0.328125 0.8125 0.890625q0.296875 0.5625 0.296875 1.296875q0 0.15625 -0.09375 0.25q-0.09375 0.078125 -0.25 0.078125l-3.96875 0l0 -0.59375l4.046875 0l-0.40625 0.28125q0.015625 -0.53125 -0.1875 -0.953125q-0.203125 -0.4375 -0.59375 -0.671875q-0.375 -0.25 -0.890625 -0.25q-0.53125 0 -0.9375 0.25q-0.40625 0.25 -0.625 0.703125q-0.21875 0.4375 -0.21875 1.0q0 0.5625 0.25 1.015625q0.25 0.4375 0.671875 0.6875q0.4375 0.25 1.0 0.25q0.328125 0 0.671875 -0.109375q0.34375 -0.125 0.546875 -0.296875q0.109375 -0.09375 0.234375 -0.09375q0.125 0 0.21875 0.0625q0.125 0.109375 0.125 0.25q0.015625 0.125 -0.109375 0.21875q-0.296875 0.265625 -0.78125 0.4375q-0.46875 0.171875 -0.90625 0.171875zm5.399338 -0.046875q-0.484375 0 -0.875 -0.234375q-0.390625 -0.234375 -0.609375 -0.640625q-0.21875 -0.40625 -0.21875 -0.921875l0 -4.5625q0 -0.15625 0.09375 -0.25q0.09375 -0.109375 0.25 -0.109375q0.15625 0 0.265625 0.109375q0.109375 0.09375 0.109375 0.25l0 4.5625q0 0.46875 0.265625 0.78125q0.28125 0.296875 0.71875 0.296875l0.265625 0q0.140625 0 0.234375 0.109375q0.09375 0.09375 0.09375 0.25q0 0.15625 -0.109375 0.265625q-0.109375 0.09375 -0.28125 0.09375l-0.203125 0zm-2.3125 -4.296875q-0.140625 0 -0.234375 -0.078125q-0.09375 -0.09375 -0.09375 -0.21875q0 -0.140625 0.09375 -0.234375q0.09375 -0.09375 0.234375 -0.09375l2.375 0q0.140625 0 0.234375 0.09375q0.09375 0.09375 0.09375 0.234375q0 0.125 -0.09375 0.21875q-0.09375 0.078125 -0.234375 0.078125l-2.375 0zm5.8592834 4.34375q-0.546875 0 -1.09375 -0.1875q-0.546875 -0.1875 -0.875 -0.5625q-0.109375 -0.109375 -0.09375 -0.25q0.03125 -0.140625 0.140625 -0.234375q0.140625 -0.09375 0.28125 -0.078125q0.140625 0.015625 0.234375 0.125q0.21875 0.25 0.578125 0.390625q0.375 0.140625 0.828125 0.140625q0.6875 0 0.984375 -0.234375q0.3125 -0.234375 0.328125 -0.578125q0 -0.328125 -0.328125 -0.546875q-0.3125 -0.21875 -1.03125 -0.34375q-0.953125 -0.15625 -1.390625 -0.515625q-0.4375 -0.375 -0.4375 -0.890625q0 -0.484375 0.25 -0.796875q0.265625 -0.3125 0.671875 -0.46875q0.421875 -0.171875 0.9375 -0.171875q0.625 0 1.0625 0.21875q0.453125 0.21875 0.734375 0.578125q0.09375 0.125 0.078125 0.265625q-0.015625 0.125 -0.140625 0.203125q-0.125 0.0625 -0.265625 0.046875q-0.140625 -0.03125 -0.25 -0.140625q-0.234375 -0.265625 -0.546875 -0.390625q-0.296875 -0.125 -0.703125 -0.125q-0.5 0 -0.8125 0.21875q-0.3125 0.203125 -0.3125 0.515625q0 0.21875 0.109375 0.375q0.125 0.15625 0.40625 0.28125q0.28125 0.109375 0.796875 0.203125q0.703125 0.109375 1.109375 0.328125q0.40625 0.21875 0.578125 0.515625q0.171875 0.296875 0.171875 0.640625q0 0.4375 -0.265625 0.765625q-0.25 0.328125 -0.703125 0.515625q-0.453125 0.1875 -1.03125 0.1875zm3.1528625 1.46875q-0.09375 0 -0.140625 -0.0625q-0.046875 -0.046875 -0.046875 -0.125q0 -0.140625 0.078125 -0.265625q0.09375 -0.109375 0.171875 -0.25q0.09375 -0.125 0.09375 -0.3125q0 -0.171875 -0.0625 -0.28125q-0.0625 -0.109375 -0.15625 -0.203125q-0.09375 -0.078125 -0.15625 -0.1875q-0.0625 -0.109375 -0.0625 -0.265625q0 -0.234375 0.15625 -0.375q0.15625 -0.140625 0.375 -0.140625q0.28125 0 0.453125 0.21875q0.1875 0.21875 0.1875 0.609375q0 0.265625 -0.078125 0.546875q-0.0625 0.296875 -0.203125 0.546875q-0.125 0.25 -0.28125 0.390625q-0.15625 0.15625 -0.328125 0.15625zm5.2944183 0.671875q-0.171875 0 -0.265625 -0.109375q-0.09375 -0.09375 -0.09375 -0.265625l0 -4.390625q0 -0.734375 0.34375 -1.3125q0.34375 -0.59375 0.921875 -0.921875q0.59375 -0.34375 1.3125 -0.34375q0.75 0 1.328125 0.34375q0.59375 0.34375 0.9375 0.9375q0.34375 0.578125 0.34375 1.328125q0 0.734375 -0.34375 1.328125q-0.328125 0.578125 -0.90625 0.921875q-0.5625 0.34375 -1.28125 0.34375q-0.625 0 -1.140625 -0.265625q-0.5 -0.265625 -0.796875 -0.703125l0 2.734375q0 0.171875 -0.109375 0.265625q-0.09375 0.109375 -0.25 0.109375zm2.21875 -2.796875q0.546875 0 0.96875 -0.25q0.4375 -0.25 0.671875 -0.6875q0.25 -0.453125 0.25 -1.0q0 -0.5625 -0.25 -1.0q-0.234375 -0.4375 -0.671875 -0.6875q-0.421875 -0.265625 -0.96875 -0.265625q-0.53125 0 -0.96875 0.265625q-0.421875 0.25 -0.671875 0.6875q-0.234375 0.4375 -0.234375 1.0q0 0.546875 0.234375 1.0q0.25 0.4375 0.671875 0.6875q0.4375 0.25 0.96875 0.25zm4.313736 -2.53125q0.03125 -0.578125 0.296875 -1.03125q0.28125 -0.46875 0.71875 -0.71875q0.453125 -0.265625 0.984375 -0.265625q0.4375 0 0.671875 0.125q0.234375 0.109375 0.171875 0.34375q-0.03125 0.140625 -0.125 0.1875q-0.09375 0.046875 -0.21875 0.046875q-0.125 -0.015625 -0.28125 -0.03125q-0.53125 -0.046875 -0.9375 0.109375q-0.390625 0.15625 -0.640625 0.484375q-0.234375 0.3125 -0.234375 0.75l-0.40625 0zm0.046875 3.140625q-0.15625 0 -0.25 -0.09375q-0.09375 -0.09375 -0.09375 -0.265625l0 -4.390625q0 -0.171875 0.09375 -0.265625q0.09375 -0.09375 0.25 -0.09375q0.171875 0 0.265625 0.09375q0.09375 0.09375 0.09375 0.265625l0 4.390625q0 0.171875 -0.09375 0.265625q-0.09375 0.09375 -0.265625 0.09375zm5.867691 0.046875q-0.734375 0 -1.328125 -0.328125q-0.59375 -0.34375 -0.9375 -0.921875q-0.328125 -0.59375 -0.328125 -1.34375q0 -0.75 0.328125 -1.34375q0.34375 -0.59375 0.9375 -0.921875q0.59375 -0.34375 1.328125 -0.34375q0.75 0 1.328125 0.34375q0.59375 0.328125 0.921875 0.921875q0.34375 0.59375 0.34375 1.34375q0 0.75 -0.34375 1.34375q-0.328125 0.578125 -0.921875 0.921875q-0.578125 0.328125 -1.328125 0.328125zm0 -0.65625q0.546875 0 0.96875 -0.25q0.4375 -0.25 0.671875 -0.6875q0.25 -0.4375 0.25 -1.0q0 -0.5625 -0.25 -1.0q-0.234375 -0.453125 -0.671875 -0.703125q-0.421875 -0.25 -0.96875 -0.25q-0.53125 0 -0.96875 0.25q-0.421875 0.25 -0.671875 0.703125q-0.25 0.4375 -0.25 1.0q0 0.5625 0.25 1.0q0.25 0.4375 0.671875 0.6875q0.4375 0.25 0.96875 0.25zm6.268265 0.65625q-0.734375 0 -1.3125 -0.34375q-0.5625 -0.34375 -0.90625 -0.921875q-0.328125 -0.59375 -0.328125 -1.328125q0 -0.75 0.3125 -1.328125q0.328125 -0.59375 0.875 -0.9375q0.546875 -0.34375 1.265625 -0.34375q0.578125 0 1.046875 0.234375q0.484375 0.21875 0.859375 0.671875q0.09375 0.109375 0.0625 0.234375q-0.015625 0.125 -0.15625 0.21875q-0.09375 0.078125 -0.21875 0.0625q-0.125 -0.03125 -0.21875 -0.140625q-0.546875 -0.625 -1.375 -0.625q-0.515625 0 -0.921875 0.25q-0.390625 0.25 -0.609375 0.703125q-0.21875 0.4375 -0.21875 1.0q0 0.5625 0.234375 1.0q0.234375 0.4375 0.65625 0.6875q0.421875 0.25 0.953125 0.25q0.375 0 0.671875 -0.09375q0.296875 -0.09375 0.53125 -0.296875q0.125 -0.09375 0.234375 -0.109375q0.125 -0.015625 0.234375 0.078125q0.109375 0.09375 0.125 0.234375q0.015625 0.125 -0.09375 0.21875q-0.6875 0.625 -1.703125 0.625zm5.6064453 0q-0.765625 0 -1.34375 -0.328125q-0.578125 -0.328125 -0.921875 -0.921875q-0.328125 -0.59375 -0.328125 -1.34375q0 -0.765625 0.3125 -1.34375q0.3125 -0.59375 0.859375 -0.921875q0.5625 -0.34375 1.28125 -0.34375q0.703125 0 1.234375 0.328125q0.53125 0.328125 0.8125 0.890625q0.296875 0.5625 0.296875 1.296875q0 0.15625 -0.09375 0.25q-0.09375 0.078125 -0.25 0.078125l-3.96875 0l0 -0.59375l4.046875 0l-0.40625 0.28125q0.015625 -0.53125 -0.1875 -0.953125q-0.203125 -0.4375 -0.59375 -0.671875q-0.375 -0.25 -0.890625 -0.25q-0.53125 0 -0.9375 0.25q-0.40625 0.25 -0.625 0.703125q-0.21875 0.4375 -0.21875 1.0q0 0.5625 0.25 1.015625q0.25 0.4375 0.671875 0.6875q0.4375 0.25 1.0 0.25q0.328125 0 0.671875 -0.109375q0.34375 -0.125 0.546875 -0.296875q0.109375 -0.09375 0.234375 -0.09375q0.125 0 0.21875 0.0625q0.125 0.109375 0.125 0.25q0.015625 0.125 -0.109375 0.21875q-0.296875 0.265625 -0.78125 0.4375q-0.46875 0.171875 -0.90625 0.171875zm5.196213 0q-0.546875 0 -1.09375 -0.1875q-0.546875 -0.1875 -0.875 -0.5625q-0.109375 -0.109375 -0.09375 -0.25q0.03125 -0.140625 0.140625 -0.234375q0.140625 -0.09375 0.28125 -0.078125q0.140625 0.015625 0.234375 0.125q0.21875 0.25 0.578125 0.390625q0.375 0.140625 0.828125 0.140625q0.6875 0 0.984375 -0.234375q0.3125 -0.234375 0.328125 -0.578125q0 -0.328125 -0.328125 -0.546875q-0.3125 -0.21875 -1.03125 -0.34375q-0.953125 -0.15625 -1.390625 -0.515625q-0.4375 -0.375 -0.4375 -0.890625q0 -0.484375 0.25 -0.796875q0.265625 -0.3125 0.671875 -0.46875q0.421875 -0.171875 0.9375 -0.171875q0.625 0 1.0625 0.21875q0.453125 0.21875 0.734375 0.578125q0.09375 0.125 0.078125 0.265625q-0.015625 0.125 -0.140625 0.203125q-0.125 0.0625 -0.265625 0.046875q-0.140625 -0.03125 -0.25 -0.140625q-0.234375 -0.265625 -0.546875 -0.390625q-0.296875 -0.125 -0.703125 -0.125q-0.5 0 -0.8125 0.21875q-0.3125 0.203125 -0.3125 0.515625q0 0.21875 0.109375 0.375q0.125 0.15625 0.40625 0.28125q0.28125 0.109375 0.796875 0.203125q0.703125 0.109375 1.109375 0.328125q0.40625 0.21875 0.578125 0.515625q0.171875 0.296875 0.171875 0.640625q0 0.4375 -0.265625 0.765625q-0.25 0.328125 -0.703125 0.515625q-0.453125 0.1875 -1.03125 0.1875zm5.0278625 0q-0.546875 0 -1.09375 -0.1875q-0.546875 -0.1875 -0.875 -0.5625q-0.109375 -0.109375 -0.09375 -0.25q0.03125 -0.140625 0.140625 -0.234375q0.140625 -0.09375 0.28125 -0.078125q0.140625 0.015625 0.234375 0.125q0.21875 0.25 0.578125 0.390625q0.375 0.140625 0.828125 0.140625q0.6875 0 0.984375 -0.234375q0.3125 -0.234375 0.328125 -0.578125q0 -0.328125 -0.328125 -0.546875q-0.3125 -0.21875 -1.03125 -0.34375q-0.953125 -0.15625 -1.390625 -0.515625q-0.4375 -0.375 -0.4375 -0.890625q0 -0.484375 0.25 -0.796875q0.265625 -0.3125 0.671875 -0.46875q0.421875 -0.171875 0.9375 -0.171875q0.625 0 1.0625 0.21875q0.453125 0.21875 0.734375 0.578125q0.09375 0.125 0.078125 0.265625q-0.015625 0.125 -0.140625 0.203125q-0.125 0.0625 -0.265625 0.046875q-0.140625 -0.03125 -0.25 -0.140625q-0.234375 -0.265625 -0.546875 -0.390625q-0.296875 -0.125 -0.703125 -0.125q-0.5 0 -0.8125 0.21875q-0.3125 0.203125 -0.3125 0.515625q0 0.21875 0.109375 0.375q0.125 0.15625 0.40625 0.28125q0.28125 0.109375 0.796875 0.203125q0.703125 0.109375 1.109375 0.328125q0.40625 0.21875 0.578125 0.515625q0.171875 0.296875 0.171875 0.640625q0 0.4375 -0.265625 0.765625q-0.25 0.328125 -0.703125 0.515625q-0.453125 0.1875 -1.03125 0.1875zm5.5591125 0q-0.765625 0 -1.34375 -0.328125q-0.578125 -0.328125 -0.921875 -0.921875q-0.328125 -0.59375 -0.328125 -1.34375q0 -0.765625 0.3125 -1.34375q0.3125 -0.59375 0.859375 -0.921875q0.5625 -0.34375 1.28125 -0.34375q0.703125 0 1.234375 0.328125q0.53125 0.328125 0.8125 0.890625q0.296875 0.5625 0.296875 1.296875q0 0.15625 -0.09375 0.25q-0.09375 0.078125 -0.25 0.078125l-3.96875 0l0 -0.59375l4.046875 0l-0.40625 0.28125q0.015625 -0.53125 -0.1875 -0.953125q-0.203125 -0.4375 -0.59375 -0.671875q-0.375 -0.25 -0.890625 -0.25q-0.53125 0 -0.9375 0.25q-0.40625 0.25 -0.625 0.703125q-0.21875 0.4375 -0.21875 1.0q0 0.5625 0.25 1.015625q0.25 0.4375 0.671875 0.6875q0.4375 0.25 1.0 0.25q0.328125 0 0.671875 -0.109375q0.34375 -0.125 0.546875 -0.296875q0.109375 -0.09375 0.234375 -0.09375q0.125 0 0.21875 0.0625q0.125 0.109375 0.125 0.25q0.015625 0.125 -0.109375 0.21875q-0.296875 0.265625 -0.78125 0.4375q-0.46875 0.171875 -0.90625 0.171875zm5.196213 0q-0.546875 0 -1.09375 -0.1875q-0.546875 -0.1875 -0.875 -0.5625q-0.109375 -0.109375 -0.09375 -0.25q0.03125 -0.140625 0.140625 -0.234375q0.140625 -0.09375 0.28125 -0.078125q0.140625 0.015625 0.234375 0.125q0.21875 0.25 0.578125 0.390625q0.375 0.140625 0.828125 0.140625q0.6875 0 0.984375 -0.234375q0.3125 -0.234375 0.328125 -0.578125q0 -0.328125 -0.328125 -0.546875q-0.3125 -0.21875 -1.03125 -0.34375q-0.953125 -0.15625 -1.390625 -0.515625q-0.4375 -0.375 -0.4375 -0.890625q0 -0.484375 0.25 -0.796875q0.265625 -0.3125 0.671875 -0.46875q0.421875 -0.171875 0.9375 -0.171875q0.625 0 1.0625 0.21875q0.453125 0.21875 0.734375 0.578125q0.09375 0.125 0.078125 0.265625q-0.015625 0.125 -0.140625 0.203125q-0.125 0.0625 -0.265625 0.046875q-0.140625 -0.03125 -0.25 -0.140625q-0.234375 -0.265625 -0.546875 -0.390625q-0.296875 -0.125 -0.703125 -0.125q-0.5 0 -0.8125 0.21875q-0.3125 0.203125 -0.3125 0.515625q0 0.21875 0.109375 0.375q0.125 0.15625 0.40625 0.28125q0.28125 0.109375 0.796875 0.203125q0.703125 0.109375 1.109375 0.328125q0.40625 0.21875 0.578125 0.515625q0.171875 0.296875 0.171875 0.640625q0 0.4375 -0.265625 0.765625q-0.25 0.328125 -0.703125 0.515625q-0.453125 0.1875 -1.03125 0.1875zm3.1528625 1.46875q-0.09375 0 -0.140625 -0.0625q-0.046875 -0.046875 -0.046875 -0.125q0 -0.140625 0.078125 -0.265625q0.09375 -0.109375 0.171875 -0.25q0.09375 -0.125 0.09375 -0.3125q0 -0.171875 -0.0625 -0.28125q-0.0625 -0.109375 -0.15625 -0.203125q-0.09375 -0.078125 -0.15625 -0.1875q-0.0625 -0.109375 -0.0625 -0.265625q0 -0.234375 0.15625 -0.375q0.15625 -0.140625 0.375 -0.140625q0.28125 0 0.453125 0.21875q0.1875 0.21875 0.1875 0.609375q0 0.265625 -0.078125 0.546875q-0.0625 0.296875 -0.203125 0.546875q-0.125 0.25 -0.28125 0.390625q-0.15625 0.15625 -0.328125 0.15625zm5.2944183 0.671875q-0.171875 0 -0.265625 -0.109375q-0.09375 -0.09375 -0.09375 -0.265625l0 -4.390625q0 -0.734375 0.34375 -1.3125q0.34375 -0.59375 0.921875 -0.921875q0.59375 -0.34375 1.3125 -0.34375q0.75 0 1.328125 0.34375q0.59375 0.34375 0.9375 0.9375q0.34375 0.578125 0.34375 1.328125q0 0.734375 -0.34375 1.328125q-0.328125 0.578125 -0.90625 0.921875q-0.5625 0.34375 -1.28125 0.34375q-0.625 0 -1.140625 -0.265625q-0.5 -0.265625 -0.796875 -0.703125l0 2.734375q0 0.171875 -0.109375 0.265625q-0.09375 0.109375 -0.25 0.109375zm2.21875 -2.796875q0.546875 0 0.96875 -0.25q0.4375 -0.25 0.671875 -0.6875q0.25 -0.453125 0.25 -1.0q0 -0.5625 -0.25 -1.0q-0.234375 -0.4375 -0.671875 -0.6875q-0.421875 -0.265625 -0.96875 -0.265625q-0.53125 0 -0.96875 0.265625q-0.421875 0.25 -0.671875 0.6875q-0.234375 0.4375 -0.234375 1.0q0 0.546875 0.234375 1.0q0.25 0.4375 0.671875 0.6875q0.4375 0.25 0.96875 0.25zm6.329361 0.65625q-0.765625 0 -1.34375 -0.328125q-0.578125 -0.328125 -0.921875 -0.921875q-0.328125 -0.59375 -0.328125 -1.34375q0 -0.765625 0.3125 -1.34375q0.3125 -0.59375 0.859375 -0.921875q0.5625 -0.34375 1.28125 -0.34375q0.703125 0 1.234375 0.328125q0.53125 0.328125 0.8125 0.890625q0.296875 0.5625 0.296875 1.296875q0 0.15625 -0.09375 0.25q-0.09375 0.078125 -0.25 0.078125l-3.96875 0l0 -0.59375l4.046875 0l-0.40625 0.28125q0.015625 -0.53125 -0.1875 -0.953125q-0.203125 -0.4375 -0.59375 -0.671875q-0.375 -0.25 -0.890625 -0.25q-0.53125 0 -0.9375 0.25q-0.40625 0.25 -0.625 0.703125q-0.21875 0.4375 -0.21875 1.0q0 0.5625 0.25 1.015625q0.25 0.4375 0.671875 0.6875q0.4375 0.25 1.0 0.25q0.328125 0 0.671875 -0.109375q0.34375 -0.125 0.546875 -0.296875q0.109375 -0.09375 0.234375 -0.09375q0.125 0 0.21875 0.0625q0.125 0.109375 0.125 0.25q0.015625 0.125 -0.109375 0.21875q-0.296875 0.265625 -0.78125 0.4375q-0.46875 0.171875 -0.90625 0.171875zm5.540802 0q-0.734375 0 -1.328125 -0.328125q-0.59375 -0.34375 -0.9375 -0.921875q-0.328125 -0.59375 -0.328125 -1.34375q0 -0.75 0.328125 -1.34375q0.34375 -0.59375 0.9375 -0.921875q0.59375 -0.34375 1.328125 -0.34375q0.75 0 1.328125 0.34375q0.59375 0.328125 0.921875 0.921875q0.34375 0.59375 0.34375 1.34375q0 0.75 -0.34375 1.34375q-0.328125 0.578125 -0.921875 0.921875q-0.578125 0.328125 -1.328125 0.328125zm0 -0.65625q0.546875 0 0.96875 -0.25q0.4375 -0.25 0.671875 -0.6875q0.25 -0.4375 0.25 -1.0q0 -0.5625 -0.25 -1.0q-0.234375 -0.453125 -0.671875 -0.703125q-0.421875 -0.25 -0.96875 -0.25q-0.53125 0 -0.96875 0.25q-0.421875 0.25 -0.671875 0.703125q-0.25 0.4375 -0.25 1.0q0 0.5625 0.25 1.0q0.25 0.4375 0.671875 0.6875q0.4375 0.25 0.96875 0.25zm4.362015 2.796875q-0.171875 0 -0.265625 -0.109375q-0.09375 -0.09375 -0.09375 -0.265625l0 -4.390625q0 -0.734375 0.34375 -1.3125q0.34375 -0.59375 0.921875 -0.921875q0.59375 -0.34375 1.3125 -0.34375q0.75 0 1.328125 0.34375q0.59375 0.34375 0.9375 0.9375q0.34375 0.578125 0.34375 1.328125q0 0.734375 -0.34375 1.328125q-0.328125 0.578125 -0.90625 0.921875q-0.5625 0.34375 -1.28125 0.34375q-0.625 0 -1.140625 -0.265625q-0.5 -0.265625 -0.796875 -0.703125l0 2.734375q0 0.171875 -0.109375 0.265625q-0.09375 0.109375 -0.25 0.109375zm2.21875 -2.796875q0.546875 0 0.96875 -0.25q0.4375 -0.25 0.671875 -0.6875q0.25 -0.453125 0.25 -1.0q0 -0.5625 -0.25 -1.0q-0.234375 -0.4375 -0.671875 -0.6875q-0.421875 -0.265625 -0.96875 -0.265625q-0.53125 0 -0.96875 0.265625q-0.421875 0.25 -0.671875 0.6875q-0.234375 0.4375 -0.234375 1.0q0 0.546875 0.234375 1.0q0.25 0.4375 0.671875 0.6875q0.4375 0.25 0.96875 0.25zm5.110611 0.609375q-0.375 0 -0.671875 -0.203125q-0.28125 -0.203125 -0.453125 -0.5625q-0.15625 -0.375 -0.15625 -0.84375l0 -5.328125q0 -0.15625 0.09375 -0.25q0.09375 -0.09375 0.25 -0.09375q0.171875 0 0.265625 0.09375q0.09375 0.09375 0.09375 0.25l0 5.328125q0 0.390625 0.15625 0.65625q0.171875 0.25 0.421875 0.25l0.234375 0q0.140625 0 0.21875 0.09375q0.09375 0.09375 0.09375 0.25q0 0.15625 -0.125 0.265625q-0.109375 0.09375 -0.296875 0.09375l-0.125 0zm3.5692902 0.046875q-0.765625 0 -1.34375 -0.328125q-0.578125 -0.328125 -0.921875 -0.921875q-0.328125 -0.59375 -0.328125 -1.34375q0 -0.765625 0.3125 -1.34375q0.3125 -0.59375 0.859375 -0.921875q0.5625 -0.34375 1.28125 -0.34375q0.703125 0 1.234375 0.328125q0.53125 0.328125 0.8125 0.890625q0.296875 0.5625 0.296875 1.296875q0 0.15625 -0.09375 0.25q-0.09375 0.078125 -0.25 0.078125l-3.96875 0l0 -0.59375l4.046875 0l-0.40625 0.28125q0.015625 -0.53125 -0.1875 -0.953125q-0.203125 -0.4375 -0.59375 -0.671875q-0.375 -0.25 -0.890625 -0.25q-0.53125 0 -0.9375 0.25q-0.40625 0.25 -0.625 0.703125q-0.21875 0.4375 -0.21875 1.0q0 0.5625 0.25 1.015625q0.25 0.4375 0.671875 0.6875q0.4375 0.25 1.0 0.25q0.328125 0 0.671875 -0.109375q0.34375 -0.125 0.546875 -0.296875q0.109375 -0.09375 0.234375 -0.09375q0.125 0 0.21875 0.0625q0.125 0.109375 0.125 0.25q0.015625 0.125 -0.109375 0.21875q-0.296875 0.265625 -0.78125 0.4375q-0.46875 0.171875 -0.90625 0.171875z" fill-rule="nonzero"/><path fill="#3c78d8" d="m273.5525 301.38586l41.165344 0l0 0c4.5483704 0 8.910431 1.8068237 12.126617 5.0230103c3.2161865 3.216156 5.0230103 7.5782166 5.0230103 12.126587l0 11.076599c0 3.3540344 -2.7189941 6.072998 -6.0730286 6.072998l-63.318542 0l0 0c-3.3540344 0 -6.072998 -2.7189636 -6.072998 -6.072998l0 -11.076599l0 0c0 -9.471466 7.678131 -17.149597 17.149597 -17.149597z" fill-rule="evenodd"/><path fill="#6d9eeb" d="m270.22964 274.2651l0 0c0 -13.237457 10.702881 -23.968521 23.905518 -23.968521l0 0c6.340149 0 12.420593 2.5252533 16.903748 7.020218c4.4831543 4.4949646 7.00177 10.591461 7.00177 16.948303l0 0c0 13.237427 -10.70285 23.968475 -23.905518 23.968475l0 0c-13.202637 0 -23.905518 -10.731049 -23.905518 -23.968475z" fill-rule="evenodd"/><path fill="#ff0000" d="m100.3135 196.00743l0 0c0 -4.139969 3.2432938 -7.496063 7.244095 -7.496063l0 0c1.9212494 0 3.7638168 0.7897644 5.122345 2.1955414c1.3585358 1.4057922 2.1217499 3.312439 2.1217499 5.300522l0 0c0 4.1399536 -3.2432938 7.496063 -7.244095 7.496063l0 0c-4.000801 0 -7.244095 -3.3561096 -7.244095 -7.496063z" fill-rule="evenodd"/><path fill="#ff0000" d="m178.45384 172.51514l0 0c0 -4.139969 3.2432861 -7.496063 7.244095 -7.496063l0 0c1.9212494 0 3.7638092 0.78974915 5.122345 2.1955414c1.3585358 1.405777 2.1217499 3.312439 2.1217499 5.300522l0 0c0 4.1399536 -3.2433014 7.496063 -7.244095 7.496063l0 0c-4.0008087 0 -7.244095 -3.3561096 -7.244095 -7.496063z" fill-rule="evenodd"/><path fill="#ff0000" d="m21.54593 359.5961l0 0c0 -4.1399536 3.2432919 -7.496063 7.244095 -7.496063l0 0c1.9212532 0 3.7638187 0.7897644 5.1223507 2.1955566c1.3585281 1.4057922 2.121746 3.312439 2.121746 5.3005066l0 0c0 4.139984 -3.2432938 7.496063 -7.2440968 7.496063l0 0c-4.000803 0 -7.244095 -3.356079 -7.244095 -7.496063z" fill-rule="evenodd"/><path fill="#ff0000" d="m248.42723 543.01166l0 0c0 -4.1399536 3.2432861 -7.4960938 7.244095 -7.4960938l0 0c1.9212646 0 3.7638245 0.7897949 5.122345 2.1955566c1.358551 1.4057617 2.1217651 3.312439 2.1217651 5.300537l0 0c0 4.1399536 -3.2433167 7.4960327 -7.24411 7.4960327l0 0c-4.0008087 0 -7.244095 -3.356079 -7.244095 -7.4960327z" fill-rule="evenodd"/><path fill="#ff0000" d="m503.68805 260.34583l0 0c0 -4.1399536 3.2432861 -7.496048 7.2440796 -7.496048l0 0c1.9212646 0 3.763855 0.78974915 5.1223755 2.1955414c1.3585205 1.4057922 2.121704 3.312439 2.121704 5.3005066l0 0c0 4.139984 -3.2432861 7.496063 -7.2440796 7.496063l0 0c-4.0007935 0 -7.2440796 -3.356079 -7.2440796 -7.496063z" fill-rule="evenodd"/><path fill="#ff0000" d="m225.10393 32.989502l0 0c0 -4.1399612 3.2433014 -7.496063 7.244095 -7.496063l0 0c1.9212494 0 3.7638245 0.7897606 5.122345 2.1955452c1.3585358 1.4057846 2.1217499 3.312437 2.1217499 5.300518l0 0c0 4.1399612 -3.2432861 7.496063 -7.244095 7.496063l0 0c-4.0007935 0 -7.244095 -3.356102 -7.244095 -7.496063z" fill-rule="evenodd"/><path fill="#ff0000" d="m373.64355 69.16389l0 0c0 -4.1399612 3.2432861 -7.496067 7.2440796 -7.496067l0 0c1.9212646 0 3.7638245 0.7897644 5.122345 2.195549c1.358551 1.4057808 2.1217651 3.3124352 2.1217651 5.300518l0 0c0 4.1399612 -3.2433167 7.496063 -7.24411 7.496063l0 0c-4.0007935 0 -7.2440796 -3.356102 -7.2440796 -7.496063z" fill-rule="evenodd"/><path fill="#ff0000" d="m145.90834 374.91577l0 0c0 -4.1399536 3.2433014 -7.4960327 7.244095 -7.4960327l0 0c1.9212646 0 3.7638245 0.7897339 5.12236 2.1955261c1.3585205 1.4057922 2.1217346 3.312439 2.1217346 5.3005066l0 0c0 4.139984 -3.2432861 7.496063 -7.244095 7.496063l0 0c-4.0007935 0 -7.244095 -3.356079 -7.244095 -7.496063z" fill-rule="evenodd"/><path fill="#ff0000" d="m531.569 523.5375l0 0c0 -4.1399536 3.2432861 -7.4960938 7.2440796 -7.4960938l0 0c1.9212646 0 3.763855 0.7897949 5.1223755 2.1955566c1.3585205 1.4057617 2.121704 3.312439 2.121704 5.300537l0 0c0 4.1399536 -3.2432861 7.4960327 -7.2440796 7.4960327l0 0c-4.0007935 0 -7.2440796 -3.356079 -7.2440796 -7.4960327z" fill-rule="evenodd"/><path fill="#0000ff" d="m121.17319 268.3071l0 0c0 -2.9049377 2.46772 -5.259857 5.5118103 -5.259857l0 0c1.4618225 0 2.8637695 0.5541687 3.8974304 1.5405884c1.0336761 0.98638916 1.6143799 2.3242493 1.6143799 3.7192688l0 0c0 2.9049072 -2.4677277 5.2598267 -5.5118103 5.2598267l0 0c-3.0440903 0 -5.5118103 -2.3549194 -5.5118103 -5.2598267z" fill-rule="evenodd"/><path fill="#0000ff" d="m124.594055 280.6319l0 0c0 -2.9049377 2.46772 -5.259857 5.5118103 -5.259857l0 0c1.4618225 0 2.8637695 0.5541687 3.8974304 1.5405884c1.0336761 0.98638916 1.6143799 2.3242798 1.6143799 3.7192688l0 0c0 2.9049377 -2.4677277 5.2598267 -5.5118103 5.2598267l0 0c-3.0440903 0 -5.5118103 -2.354889 -5.5118103 -5.2598267z" fill-rule="evenodd"/><path fill="#0000ff" d="m128.01492 292.9567l0 0c0 -2.9049377 2.4677124 -5.259857 5.5118103 -5.259857l0 0c1.4618225 0 2.8637695 0.5541687 3.8974304 1.5405884c1.0336761 0.9864197 1.6143799 2.3242798 1.6143799 3.7192688l0 0c0 2.9049377 -2.4677277 5.2598267 -5.5118103 5.2598267l0 0c-3.044098 0 -5.5118103 -2.354889 -5.5118103 -5.2598267z" fill-rule="evenodd"/><path fill="#0000ff" d="m59.05429 287.39667l0 0c0 -2.9049377 2.46772 -5.2598267 5.5118103 -5.2598267l0 0c1.4618225 0 2.8637772 0.5541382 3.897438 1.5405579c1.0336685 0.9864197 1.6143723 2.3242798 1.6143723 3.7192688l0 0c0 2.9049377 -2.46772 5.259857 -5.5118103 5.259857l0 0c-3.0440903 0 -5.5118103 -2.3549194 -5.5118103 -5.259857z" fill-rule="evenodd"/><path fill="#0000ff" d="m64.41365 276.0528l0 0c0 -2.9049377 2.46772 -5.2598267 5.5118103 -5.2598267l0 0c1.4618225 0 2.8637772 0.5541382 3.897438 1.5405579c1.0336685 0.9864197 1.6143723 2.3242798 1.6143723 3.7192688l0 0c0 2.9049377 -2.46772 5.259857 -5.5118103 5.259857l0 0c-3.0440903 0 -5.5118103 -2.3549194 -5.5118103 -5.259857z" fill-rule="evenodd"/><path fill="#0000ff" d="m69.77301 264.70892l0 0c0 -2.9049377 2.46772 -5.2598267 5.5118103 -5.2598267l0 0c1.4618225 0 2.8637695 0.5541382 3.897438 1.5405579c1.0336685 0.9864197 1.6143723 2.3242798 1.6143723 3.7192688l0 0c0 2.9049377 -2.46772 5.259857 -5.5118103 5.259857l0 0c-3.0440903 0 -5.5118103 -2.3549194 -5.5118103 -5.259857z" fill-rule="evenodd"/><path fill="#0000ff" d="m74.64944 365.8812l0 0c0 -2.9049377 2.46772 -5.259857 5.5118103 -5.259857l0 0c1.4618225 0 2.8637695 0.5541687 3.897438 1.5405884c1.0336609 0.9864197 1.6143723 2.3242798 1.6143723 3.7192688l0 0c0 2.9049377 -2.46772 5.2598267 -5.5118103 5.2598267l0 0c-3.0440903 0 -5.5118103 -2.354889 -5.5118103 -5.2598267z" fill-rule="evenodd"/><path fill="#0000ff" d="m87.383095 367.5778l0 0c0 -2.9049072 2.46772 -5.2598267 5.5118103 -5.2598267l0 0c1.4618225 0 2.8637772 0.5541687 3.897438 1.5405579c1.0336685 0.9864197 1.6143723 2.3242798 1.6143723 3.7192688l0 0c0 2.9049377 -2.46772 5.259857 -5.5118103 5.259857l0 0c-3.0440903 0 -5.5118103 -2.3549194 -5.5118103 -5.259857z" fill-rule="evenodd"/><path fill="#0000ff" d="m128.0164 343.94348l0 0c0 -2.9049377 2.4677277 -5.2598267 5.5118103 -5.2598267l0 0c1.4618225 0 2.8637695 0.5541382 3.8974457 1.5405579c1.0336609 0.9864197 1.6143646 2.3242798 1.6143646 3.7192688l0 0c0 2.9049377 -2.4677124 5.259857 -5.5118103 5.259857l0 0c-3.0440826 0 -5.5118103 -2.3549194 -5.5118103 -5.259857z" fill-rule="evenodd"/><path fill="#0000ff" d="m103.79655 347.93054l0 0c0 -2.9049377 2.46772 -5.259857 5.5118103 -5.259857l0 0c1.4618225 0 2.8637695 0.5541687 3.897438 1.5405884c1.0336609 0.98638916 1.6143723 2.3242493 1.6143723 3.7192688l0 0c0 2.9049072 -2.46772 5.2598267 -5.5118103 5.2598267l0 0c-3.0440903 0 -5.5118103 -2.3549194 -5.5118103 -5.2598267z" fill-rule="evenodd"/><path fill="#0000ff" d="m115.90647 345.937l0 0c0 -2.9049377 2.4677277 -5.259857 5.511818 -5.259857l0 0c1.4618225 0 2.8637695 0.5541687 3.897438 1.5405884c1.0336609 0.9864197 1.6143723 2.3242798 1.6143723 3.7192688l0 0c0 2.9049377 -2.4677277 5.2598267 -5.5118103 5.2598267l0 0c-3.0440903 0 -5.511818 -2.354889 -5.511818 -5.2598267z" fill-rule="evenodd"/><path fill="#0000ff" d="m100.11675 369.2744l0 0c0 -2.9049377 2.4677277 -5.259857 5.5118103 -5.259857l0 0c1.4618225 0 2.8637772 0.5541687 3.8974457 1.5405884c1.0336609 0.98638916 1.6143646 2.3242798 1.6143646 3.7192688l0 0c0 2.9049377 -2.46772 5.2598267 -5.5118103 5.2598267l0 0c-3.0440826 0 -5.5118103 -2.354889 -5.5118103 -5.2598267z" fill-rule="evenodd"/><path fill="#0000ff" d="m171.41142 106.10761l0 0c0 -2.90493 2.4677124 -5.259842 5.5118103 -5.259842l0 0c1.4618225 0 2.8637695 0.5541611 3.8974304 1.5405731c1.0336761 0.98641205 1.6143799 2.3242722 1.6143799 3.7192688l0 0c0 2.90493 -2.4677277 5.259842 -5.5118103 5.259842l0 0c-3.044098 0 -5.5118103 -2.3549118 -5.5118103 -5.259842z" fill-rule="evenodd"/><path fill="#0000ff" d="m156.8871 125.24672l0 0c0 -2.90493 2.4677124 -5.259842 5.5118103 -5.259842l0 0c1.4618225 0 2.8637695 0.5541611 3.8974304 1.5405731c1.0336761 0.98641205 1.6143799 2.3242722 1.6143799 3.7192688l0 0c0 2.9049377 -2.4677277 5.259842 -5.5118103 5.259842l0 0c-3.044098 0 -5.5118103 -2.3549042 -5.5118103 -5.259842z" fill-rule="evenodd"/><path fill="#0000ff" d="m164.14926 115.67716l0 0c0 -2.90493 2.4677124 -5.259842 5.5118103 -5.259842l0 0c1.4618225 0 2.8637695 0.5541611 3.8974304 1.5405731c1.0336761 0.98641205 1.6143799 2.3242722 1.6143799 3.7192688l0 0c0 2.9049377 -2.4677277 5.259842 -5.5118103 5.259842l0 0c-3.044098 0 -5.5118103 -2.3549042 -5.5118103 -5.259842z" fill-rule="evenodd"/><path fill="#0000ff" d="m288.7296 47.62651l0 0c0 -2.90493 2.4677124 -5.259842 5.5118103 -5.259842l0 0c1.4618225 0 2.8637695 0.5541611 3.8974304 1.5405731c1.0336609 0.98641205 1.6143799 2.3242722 1.6143799 3.7192688l0 0c0 2.90493 -2.4677124 5.259842 -5.5118103 5.259842l0 0c-3.044098 0 -5.5118103 -2.3549118 -5.5118103 -5.259842z" fill-rule="evenodd"/><path fill="#0000ff" d="m314.4593 53.092476l0 0c0 -2.90493 2.4677124 -5.259842 5.5118103 -5.259842l0 0c1.4618225 0 2.8637695 0.5541611 3.8974304 1.5405731c1.0336609 0.98641205 1.6143799 2.3242722 1.6143799 3.7192688l0 0c0 2.90493 -2.467743 5.259842 -5.5118103 5.259842l0 0c-3.044098 0 -5.5118103 -2.3549118 -5.5118103 -5.259842z" fill-rule="evenodd"/><path fill="#0000ff" d="m301.59445 50.359493l0 0c0 -2.90493 2.4677124 -5.259842 5.5118103 -5.259842l0 0c1.4618225 0 2.8637695 0.5541611 3.8974304 1.5405731c1.0336609 0.98641205 1.6143799 2.3242722 1.6143799 3.7192688l0 0c0 2.90493 -2.4677124 5.259842 -5.5118103 5.259842l0 0c-3.044098 0 -5.5118103 -2.3549118 -5.5118103 -5.259842z" fill-rule="evenodd"/><path fill="#0000ff" d="m253.65875 133.6273l0 0c0 -2.9049377 2.4677124 -5.259857 5.5118103 -5.259857l0 0c1.4618225 0 2.8637695 0.5541687 3.8974304 1.5405731c1.0336609 0.9864197 1.6143799 2.3242798 1.6143799 3.719284l0 0c0 2.9049225 -2.4677124 5.259842 -5.5118103 5.259842l0 0c-3.044098 0 -5.5118103 -2.3549194 -5.5118103 -5.259842z" fill-rule="evenodd"/><path fill="#0000ff" d="m260.12726 156.42126l0 0c0 -2.9049377 2.4677124 -5.259842 5.5118103 -5.259842l0 0c1.4618225 0 2.8637695 0.55415344 3.8974304 1.5405731c1.0336609 0.9864044 1.6143799 2.3242645 1.6143799 3.7192688l0 0c0 2.9049225 -2.4677124 5.259842 -5.5118103 5.259842l0 0c-3.044098 0 -5.5118103 -2.3549194 -5.5118103 -5.259842z" fill-rule="evenodd"/><path fill="#0000ff" d="m256.893 145.02428l0 0c0 -2.9049225 2.4677124 -5.259842 5.5118103 -5.259842l0 0c1.4618225 0 2.8637695 0.5541687 3.8974304 1.5405731c1.0336609 0.9864044 1.6143799 2.3242798 1.6143799 3.7192688l0 0c0 2.9049377 -2.4677124 5.259842 -5.5118103 5.259842l0 0c-3.044098 0 -5.5118103 -2.3549042 -5.5118103 -5.259842z" fill-rule="evenodd"/><path fill="#0000ff" d="m380.90878 157.36728l0 0c0 -2.9049225 2.467743 -5.259842 5.5118103 -5.259842l0 0c1.4618225 0 2.8637695 0.5541687 3.897461 1.5405731c1.0336609 0.9864197 1.6143494 2.3242798 1.6143494 3.7192688l0 0c0 2.9049377 -2.4677124 5.259842 -5.5118103 5.259842l0 0c-3.0440674 0 -5.5118103 -2.3549042 -5.5118103 -5.259842z" fill-rule="evenodd"/><path fill="#0000ff" d="m361.3766 140.61655l0 0c0 -2.9049377 2.467743 -5.259842 5.5118103 -5.259842l0 0c1.4618225 0 2.8638 0.55415344 3.897461 1.5405579c1.0336609 0.9864197 1.6143494 2.3242798 1.6143494 3.719284l0 0c0 2.9049225 -2.4677124 5.259842 -5.5118103 5.259842l0 0c-3.0440674 0 -5.5118103 -2.3549194 -5.5118103 -5.259842z" fill-rule="evenodd"/><path fill="#0000ff" d="m371.1427 148.99191l0 0c0 -2.9049377 2.4677124 -5.259842 5.5118103 -5.259842l0 0c1.4618225 0 2.8637695 0.55415344 3.8974304 1.5405731c1.0336609 0.9864044 1.6143799 2.3242645 1.6143799 3.7192688l0 0c0 2.9049225 -2.4677124 5.259842 -5.5118103 5.259842l0 0c-3.044098 0 -5.5118103 -2.3549194 -5.5118103 -5.259842z" fill-rule="evenodd"/><path fill="#0000ff" d="m240.8976 228.70604l0 0c0 -2.9049377 2.4677124 -5.259842 5.5118103 -5.259842l0 0c1.4618225 0 2.8637695 0.55415344 3.8974304 1.5405731c1.0336761 0.9864044 1.6143799 2.3242645 1.6143799 3.7192688l0 0c0 2.9049225 -2.4677277 5.259842 -5.5118103 5.259842l0 0c-3.044098 0 -5.5118103 -2.3549194 -5.5118103 -5.259842z" fill-rule="evenodd"/><path fill="#0000ff" d="m222.45403 211.96194l0 0c0 -2.9049377 2.4677277 -5.259842 5.5118103 -5.259842l0 0c1.4618225 0 2.8637695 0.55415344 3.8974457 1.5405731c1.0336609 0.9864044 1.6143646 2.3242645 1.6143646 3.7192688l0 0c0 2.9049225 -2.4677277 5.259842 -5.5118103 5.259842l0 0c-3.0440826 0 -5.5118103 -2.3549194 -5.5118103 -5.259842z" fill-rule="evenodd"/><path fill="#0000ff" d="m231.67581 220.33398l0 0c0 -2.9049225 2.4677277 -5.259842 5.5118103 -5.259842l0 0c1.4618225 0 2.8637695 0.5541687 3.8974304 1.5405731c1.0336761 0.9864197 1.6143799 2.3242798 1.6143799 3.7192688l0 0c0 2.9049377 -2.4677277 5.259842 -5.5118103 5.259842l0 0c-3.0440826 0 -5.5118103 -2.3549042 -5.5118103 -5.259842z" fill-rule="evenodd"/><path fill="#0000ff" d="m152.51964 182.02362l0 0c0 -2.9049225 2.4677277 -5.259842 5.5118103 -5.259842l0 0c1.4618225 0 2.8637848 0.5541687 3.8974457 1.5405731c1.0336609 0.9864044 1.6143646 2.3242798 1.6143646 3.7192688l0 0c0 2.9049377 -2.4677124 5.259842 -5.5118103 5.259842l0 0c-3.0440826 0 -5.5118103 -2.3549042 -5.5118103 -5.259842z" fill-rule="evenodd"/><path fill="#0000ff" d="m128.76373 188.13255l0 0c0 -2.9049377 2.4677277 -5.259857 5.5118103 -5.259857l0 0c1.4618225 0 2.8637848 0.5541687 3.8974457 1.5405731c1.0336609 0.9864197 1.6143646 2.3242798 1.6143646 3.719284l0 0c0 2.9049225 -2.4677124 5.259842 -5.5118103 5.259842l0 0c-3.0440826 0 -5.5118103 -2.3549194 -5.5118103 -5.259842z" fill-rule="evenodd"/><path fill="#0000ff" d="m140.6417 185.07808l0 0c0 -2.9049225 2.4677124 -5.259842 5.5118103 -5.259842l0 0c1.4618225 0 2.8637695 0.5541687 3.8974304 1.5405731c1.0336761 0.9864197 1.6143799 2.3242798 1.6143799 3.7192688l0 0c0 2.9049377 -2.4677277 5.259842 -5.5118103 5.259842l0 0c-3.044098 0 -5.5118103 -2.3549042 -5.5118103 -5.259842z" fill-rule="evenodd"/><path fill="#0000ff" d="m178.75192 228.20604l0 0c0 -2.9049377 2.4677277 -5.259842 5.5118103 -5.259842l0 0c1.4618225 0 2.8637848 0.55415344 3.8974457 1.5405731c1.0336609 0.9864044 1.6143646 2.3242645 1.6143646 3.7192688l0 0c0 2.9049225 -2.4677124 5.259842 -5.5118103 5.259842l0 0c-3.0440826 0 -5.5118103 -2.3549194 -5.5118103 -5.259842z" fill-rule="evenodd"/><path fill="#0000ff" d="m156.92122 218.09973l0 0c0 -2.9049225 2.4677124 -5.259842 5.5118103 -5.259842l0 0c1.4618225 0 2.8637695 0.5541687 3.8974304 1.5405731c1.0336761 0.9864197 1.6143799 2.3242798 1.6143799 3.7192688l0 0c0 2.9049377 -2.4677277 5.259842 -5.5118103 5.259842l0 0c-3.044098 0 -5.5118103 -2.3549042 -5.5118103 -5.259842z" fill-rule="evenodd"/><path fill="#0000ff" d="m167.83658 223.1529l0 0c0 -2.9049377 2.4677124 -5.259842 5.5118103 -5.259842l0 0c1.4618225 0 2.8637695 0.55415344 3.8974304 1.5405731c1.0336609 0.9864044 1.6143799 2.3242645 1.6143799 3.7192688l0 0c0 2.9049225 -2.4677277 5.259842 -5.5118103 5.259842l0 0c-3.044098 0 -5.5118103 -2.3549194 -5.5118103 -5.259842z" fill-rule="evenodd"/><path fill="#0000ff" d="m325.33722 193.23097l0 0c0 -2.9049377 2.467743 -5.259842 5.5118103 -5.259842l0 0c1.4618225 0 2.8637695 0.55415344 3.897461 1.5405731c1.0336609 0.9864044 1.6143494 2.3242645 1.6143494 3.7192688l0 0c0 2.9049225 -2.4677124 5.259842 -5.5118103 5.259842l0 0c-3.0440674 0 -5.5118103 -2.3549194 -5.5118103 -5.259842z" fill-rule="evenodd"/><path fill="#0000ff" d="m334.6863 170.84908l0 0c0 -2.9049225 2.4677124 -5.259842 5.5118103 -5.259842l0 0c1.4618225 0 2.8637695 0.5541687 3.8974304 1.5405731c1.0336609 0.9864197 1.6143799 2.3242798 1.6143799 3.7192688l0 0c0 2.9049377 -2.4677124 5.259842 -5.5118103 5.259842l0 0c-3.044098 0 -5.5118103 -2.3549042 -5.5118103 -5.259842z" fill-rule="evenodd"/><path fill="#0000ff" d="m330.01178 182.04002l0 0c0 -2.9049225 2.4677124 -5.259842 5.5118103 -5.259842l0 0c1.4618225 0 2.8637695 0.5541687 3.8974304 1.5405731c1.0336609 0.9864197 1.6143799 2.3242798 1.6143799 3.7192688l0 0c0 2.9049377 -2.467743 5.259842 -5.5118103 5.259842l0 0c-3.044098 0 -5.5118103 -2.3549042 -5.5118103 -5.259842z" fill-rule="evenodd"/><path fill="#0000ff" d="m521.3208 404.5861l0 0c0 -2.9049377 2.4677124 -5.259857 5.51178 -5.259857l0 0c1.461853 0 2.8637695 0.5541687 3.897461 1.5405884c1.0336304 0.9864197 1.6143799 2.3242798 1.6143799 3.7192688l0 0c0 2.9049377 -2.4677124 5.2598267 -5.511841 5.2598267l0 0c-3.0440674 0 -5.51178 -2.354889 -5.51178 -5.2598267z" fill-rule="evenodd"/><path fill="#0000ff" d="m519.5075 392.25104l0 0c0 -2.9049072 2.4677124 -5.2598267 5.51178 -5.2598267l0 0c1.461853 0 2.8637695 0.5541687 3.897461 1.5405579c1.0336304 0.9864197 1.6143799 2.3242798 1.6143799 3.7192688l0 0c0 2.9049377 -2.4677734 5.259857 -5.511841 5.259857l0 0c-3.0440674 0 -5.51178 -2.3549194 -5.51178 -5.259857z" fill-rule="evenodd"/><path fill="#0000ff" d="m517.69415 379.91602l0 0c0 -2.9049377 2.4677734 -5.259857 5.511841 -5.259857l0 0c1.461853 0 2.8637695 0.5541687 3.897461 1.5405884c1.0336304 0.9864197 1.6143799 2.3242798 1.6143799 3.7192688l0 0c0 2.9049377 -2.4677734 5.2598267 -5.511841 5.2598267l0 0c-3.0440674 0 -5.511841 -2.354889 -5.511841 -5.2598267z" fill-rule="evenodd"/><path fill="#0000ff" d="m403.9317 531.7664l0 0c0 -2.9049683 2.467743 -5.2598267 5.5118103 -5.2598267l0 0c1.4618225 0 2.8638 0.5541382 3.897461 1.5405273c1.0336609 0.9864502 1.6143799 2.3242798 1.6143799 3.7192993l0 0c0 2.9049072 -2.467743 5.2598267 -5.511841 5.2598267l0 0c-3.0440674 0 -5.5118103 -2.3549194 -5.5118103 -5.2598267z" fill-rule="evenodd"/><path fill="#0000ff" d="m391.46585 532.9055l0 0c0 -2.9049072 2.4677124 -5.2598267 5.5118103 -5.2598267l0 0c1.4618225 0 2.8637695 0.5541382 3.8974304 1.5405273c1.0336609 0.9864502 1.6143799 2.3242798 1.6143799 3.7192993l0 0c0 2.9049072 -2.467743 5.2598267 -5.5118103 5.2598267l0 0c-3.044098 0 -5.5118103 -2.3549194 -5.5118103 -5.2598267z" fill-rule="evenodd"/><path fill="#0000ff" d="m378.99997 534.0446l0 0c0 -2.9049072 2.4677124 -5.2598267 5.5118103 -5.2598267l0 0c1.4618225 0 2.8637695 0.5541382 3.8974304 1.5405884c1.0336609 0.98638916 1.6143799 2.3242188 1.6143799 3.7192383l0 0c0 2.9049072 -2.467743 5.2598267 -5.5118103 5.2598267l0 0c-3.044098 0 -5.5118103 -2.3549194 -5.5118103 -5.2598267z" fill-rule="evenodd"/><path fill="#0000ff" d="m415.27887 285.9063l0 0c0 -2.9049377 2.4677124 -5.259857 5.5118103 -5.259857l0 0c1.4618225 0 2.8637695 0.5541687 3.8974304 1.5405579c1.0336609 0.9864197 1.6143799 2.3242798 1.6143799 3.7192993l0 0c0 2.9049072 -2.4677124 5.2598267 -5.5118103 5.2598267l0 0c-3.044098 0 -5.5118103 -2.3549194 -5.5118103 -5.2598267z" fill-rule="evenodd"/><path fill="#0000ff" d="m390.1325 292.59973l0 0c0 -2.9049377 2.4677124 -5.2598267 5.5118103 -5.2598267l0 0c1.4618225 0 2.8637695 0.5541382 3.8974304 1.5405579c1.0336609 0.9864197 1.6143799 2.3242798 1.6143799 3.7192688l0 0c0 2.9049377 -2.4677124 5.259857 -5.5118103 5.259857l0 0c-3.044098 0 -5.5118103 -2.3549194 -5.5118103 -5.259857z" fill-rule="evenodd"/><path fill="#0000ff" d="m402.7057 289.25302l0 0c0 -2.9049377 2.4677124 -5.259857 5.5118103 -5.259857l0 0c1.4618225 0 2.8637695 0.5541687 3.8974304 1.5405884c1.0336609 0.9864197 1.6143799 2.3242798 1.6143799 3.7192688l0 0c0 2.9049377 -2.4677124 5.2598267 -5.5118103 5.2598267l0 0c-3.044098 0 -5.5118103 -2.354889 -5.5118103 -5.2598267z" fill-rule="evenodd"/><path fill="#0000ff" d="m413.1089 422.41208l0 0c0 -2.9049377 2.4677124 -5.259857 5.5118103 -5.259857l0 0c1.4618225 0 2.8637695 0.5541687 3.8974304 1.5405884c1.0336609 0.9864197 1.6143799 2.3242798 1.6143799 3.7192688l0 0c0 2.9049377 -2.4677124 5.2598267 -5.5118103 5.2598267l0 0c-3.044098 0 -5.5118103 -2.354889 -5.5118103 -5.2598267z" fill-rule="evenodd"/><path fill="#0000ff" d="m393.7269 406.2546l0 0c0 -2.9049377 2.467743 -5.259857 5.5118103 -5.259857l0 0c1.4618225 0 2.8637695 0.5541687 3.897461 1.5405579c1.0336609 0.9864197 1.6143494 2.3242798 1.6143494 3.7192993l0 0c0 2.9049072 -2.4677124 5.2598267 -5.5118103 5.2598267l0 0c-3.0440674 0 -5.5118103 -2.3549194 -5.5118103 -5.2598267z" fill-rule="evenodd"/><path fill="#0000ff" d="m403.4179 414.33334l0 0c0 -2.9049377 2.4677124 -5.259857 5.5118103 -5.259857l0 0c1.4618225 0 2.8637695 0.5541687 3.8974304 1.5405884c1.0336609 0.98638916 1.6143799 2.3242493 1.6143799 3.7192688l0 0c0 2.9049072 -2.467743 5.2598267 -5.5118103 5.2598267l0 0c-3.044098 0 -5.5118103 -2.3549194 -5.5118103 -5.2598267z" fill-rule="evenodd"/><path fill="#0000ff" d="m338.74405 445.81146l0 0c0 -2.9049377 2.4677124 -5.2598267 5.5118103 -5.2598267l0 0c1.4618225 0 2.8637695 0.5541382 3.8974304 1.5405579c1.0336914 0.9864197 1.6143799 2.3242798 1.6143799 3.7192688l0 0c0 2.9049377 -2.4677124 5.259857 -5.5118103 5.259857l0 0c-3.044098 0 -5.5118103 -2.3549194 -5.5118103 -5.259857z" fill-rule="evenodd"/><path fill="#0000ff" d="m322.0669 464.79135l0 0c0 -2.9049377 2.4677124 -5.259857 5.5118103 -5.259857l0 0c1.4618225 0 2.8637695 0.5541687 3.8974304 1.5405884c1.0336609 0.98638916 1.6143799 2.3242493 1.6143799 3.7192688l0 0c0 2.9049072 -2.467743 5.2598267 -5.5118103 5.2598267l0 0c-3.044098 0 -5.5118103 -2.3549194 -5.5118103 -5.2598267z" fill-rule="evenodd"/><path fill="#0000ff" d="m330.16934 455.12784l0 0c0 -2.9049377 2.4677124 -5.259857 5.5118103 -5.259857l0 0c1.4618225 0 2.8637695 0.5541687 3.8974304 1.5405579c1.0336609 0.9864197 1.6143799 2.3242798 1.6143799 3.7192993l0 0c0 2.9049072 -2.467743 5.2598267 -5.5118103 5.2598267l0 0c-3.044098 0 -5.5118103 -2.3549194 -5.5118103 -5.2598267z" fill-rule="evenodd"/><path fill="#0000ff" d="m222.60757 394.85828l0 0c0 -2.9049377 2.4677124 -5.259857 5.5118103 -5.259857l0 0c1.4618225 0 2.8637695 0.5541687 3.8974304 1.5405884c1.0336609 0.98638916 1.6143799 2.3242493 1.6143799 3.7192688l0 0c0 2.9049072 -2.4677277 5.2598267 -5.5118103 5.2598267l0 0c-3.044098 0 -5.5118103 -2.3549194 -5.5118103 -5.2598267z" fill-rule="evenodd"/><path fill="#0000ff" d="m220.22699 382.69028l0 0c0 -2.9049072 2.4677277 -5.2598267 5.5118103 -5.2598267l0 0c1.4618225 0 2.8637695 0.5541687 3.8974457 1.5405579c1.0336609 0.9864197 1.6143646 2.3242798 1.6143646 3.7192688l0 0c0 2.9049377 -2.4677124 5.259857 -5.5118103 5.259857l0 0c-3.0440826 0 -5.5118103 -2.3549194 -5.5118103 -5.259857z" fill-rule="evenodd"/><path fill="#0000ff" d="m217.84642 370.5223l0 0c0 -2.9049377 2.4677124 -5.2598267 5.5118103 -5.2598267l0 0c1.4618225 0 2.8637695 0.5541382 3.8974304 1.5405579c1.0336609 0.9864197 1.6143799 2.3242798 1.6143799 3.7192688l0 0c0 2.9049377 -2.4677277 5.259857 -5.5118103 5.259857l0 0c-3.044098 0 -5.5118103 -2.3549194 -5.5118103 -5.259857z" fill-rule="evenodd"/><path fill="#0000ff" d="m19.813648 497.1181l0 0c0 -2.9049377 2.467722 -5.2598267 5.5118103 -5.2598267l0 0c1.4618244 0 2.8637753 0.5541382 3.89744 1.5405579c1.0336647 0.9864197 1.6143723 2.3242798 1.6143723 3.7192688l0 0c0 2.9049377 -2.467722 5.259857 -5.511812 5.259857l0 0c-3.0440884 0 -5.5118103 -2.3549194 -5.5118103 -5.259857z" fill-rule="evenodd"/><path fill="#000000" fill-opacity="0.0" d="m28.51181 481.01575l302.70865 0l0 35.307068l-302.70865 0z" fill-rule="evenodd"/><path fill="#000000" d="m38.808685 498.97574q-0.15625 0 -0.265625 -0.09375q-0.09375 -0.109375 -0.09375 -0.265625l0 -6.5625q0 -0.15625 0.09375 -0.25q0.109375 -0.109375 0.265625 -0.109375q0.15625 0 0.25 0.109375q0.109375 0.09375 0.109375 0.25l0 6.5625q0 0.15625 -0.109375 0.265625q-0.09375 0.09375 -0.25 0.09375zm3.921341 0.046875q-0.546875 0 -1.09375 -0.1875q-0.546875 -0.1875 -0.875 -0.5625q-0.109375 -0.109375 -0.09375 -0.25q0.03125 -0.140625 0.140625 -0.234375q0.140625 -0.09375 0.28125 -0.078125q0.140625 0.015625 0.234375 0.125q0.21875 0.25 0.578125 0.390625q0.375 0.140625 0.828125 0.140625q0.6875 0 0.984375 -0.234375q0.3125 -0.234375 0.328125 -0.578125q0 -0.328125 -0.328125 -0.546875q-0.3125 -0.21875 -1.03125 -0.34375q-0.953125 -0.15625 -1.390625 -0.515625q-0.4375 -0.375 -0.4375 -0.890625q0 -0.484375 0.25 -0.796875q0.265625 -0.3125 0.671875 -0.46875q0.421875 -0.171875 0.9375 -0.171875q0.625 0 1.0625 0.21875q0.453125 0.21875 0.734375 0.578125q0.09375 0.125 0.078125 0.265625q-0.015625 0.125 -0.140625 0.203125q-0.125 0.0625 -0.265625 0.046875q-0.140625 -0.03125 -0.25 -0.140625q-0.234375 -0.265625 -0.546875 -0.390625q-0.296875 -0.125 -0.703125 -0.125q-0.5 0 -0.8125 0.21875q-0.3125 0.203125 -0.3125 0.515625q0 0.21875 0.109375 0.375q0.125 0.15625 0.40625 0.28125q0.28125 0.109375 0.796875 0.203125q0.703125 0.109375 1.109375 0.328125q0.40625 0.21875 0.578125 0.515625q0.171875 0.296875 0.171875 0.640625q0 0.4375 -0.265625 0.765625q-0.25 0.328125 -0.703125 0.515625q-0.453125 0.1875 -1.03125 0.1875zm5.0278625 0q-0.546875 0 -1.09375 -0.1875q-0.546875 -0.1875 -0.875 -0.5625q-0.109375 -0.109375 -0.09375 -0.25q0.03125 -0.140625 0.140625 -0.234375q0.140625 -0.09375 0.28125 -0.078125q0.140625 0.015625 0.234375 0.125q0.21875 0.25 0.578125 0.390625q0.375 0.140625 0.828125 0.140625q0.6875 0 0.984375 -0.234375q0.3125 -0.234375 0.328125 -0.578125q0 -0.328125 -0.328125 -0.546875q-0.3125 -0.21875 -1.03125 -0.34375q-0.953125 -0.15625 -1.390625 -0.515625q-0.4375 -0.375 -0.4375 -0.890625q0 -0.484375 0.25 -0.796875q0.265625 -0.3125 0.671875 -0.46875q0.421875 -0.171875 0.9375 -0.171875q0.625 0 1.0625 0.21875q0.453125 0.21875 0.734375 0.578125q0.09375 0.125 0.078125 0.265625q-0.015625 0.125 -0.140625 0.203125q-0.125 0.0625 -0.265625 0.046875q-0.140625 -0.03125 -0.25 -0.140625q-0.234375 -0.265625 -0.546875 -0.390625q-0.296875 -0.125 -0.703125 -0.125q-0.5 0 -0.8125 0.21875q-0.3125 0.203125 -0.3125 0.515625q0 0.21875 0.109375 0.375q0.125 0.15625 0.40625 0.28125q0.28125 0.109375 0.796875 0.203125q0.703125 0.109375 1.109375 0.328125q0.40625 0.21875 0.578125 0.515625q0.171875 0.296875 0.171875 0.640625q0 0.4375 -0.265625 0.765625q-0.25 0.328125 -0.703125 0.515625q-0.453125 0.1875 -1.03125 0.1875zm5.4653625 0.015625q-0.671875 0 -1.1875 -0.28125q-0.515625 -0.28125 -0.828125 -0.8125q-0.296875 -0.53125 -0.296875 -1.296875l0 -2.421875q0 -0.140625 0.09375 -0.25q0.109375 -0.109375 0.25 -0.109375q0.171875 0 0.265625 0.109375q0.109375 0.109375 0.109375 0.25l0 2.421875q0 0.578125 0.21875 0.953125q0.21875 0.375 0.59375 0.5625q0.375 0.1875 0.859375 0.1875q0.453125 0 0.8125 -0.171875q0.375 -0.1875 0.578125 -0.484375q0.21875 -0.3125 0.21875 -0.703125l0.515625 0q-0.015625 0.578125 -0.3125 1.046875q-0.296875 0.46875 -0.796875 0.734375q-0.484375 0.265625 -1.09375 0.265625zm2.046875 -0.0625q-0.15625 0 -0.265625 -0.09375q-0.09375 -0.109375 -0.09375 -0.265625l0 -4.390625q0 -0.15625 0.09375 -0.25q0.109375 -0.109375 0.265625 -0.109375q0.15625 0 0.25 0.109375q0.109375 0.09375 0.109375 0.25l0 4.390625q0 0.15625 -0.109375 0.265625q-0.09375 0.09375 -0.25 0.09375zm4.362015 0.046875q-0.765625 0 -1.34375 -0.328125q-0.578125 -0.328125 -0.921875 -0.921875q-0.328125 -0.59375 -0.328125 -1.34375q0 -0.765625 0.3125 -1.34375q0.3125 -0.59375 0.859375 -0.921875q0.5625 -0.34375 1.28125 -0.34375q0.703125 0 1.234375 0.328125q0.53125 0.328125 0.8125 0.890625q0.296875 0.5625 0.296875 1.296875q0 0.15625 -0.09375 0.25q-0.09375 0.078125 -0.25 0.078125l-3.96875 0l0 -0.59375l4.046875 0l-0.40625 0.28125q0.015625 -0.53125 -0.1875 -0.953125q-0.203125 -0.4375 -0.59375 -0.671875q-0.375 -0.25 -0.890625 -0.25q-0.53125 0 -0.9375 0.25q-0.40625 0.25 -0.625 0.703125q-0.21875 0.4375 -0.21875 1.0q0 0.5625 0.25 1.015625q0.25 0.4375 0.671875 0.6875q0.4375 0.25 1.0 0.25q0.328125 0 0.671875 -0.109375q0.34375 -0.125 0.546875 -0.296875q0.109375 -0.09375 0.234375 -0.09375q0.125 0 0.21875 0.0625q0.125 0.109375 0.125 0.25q0.015625 0.125 -0.109375 0.21875q-0.296875 0.265625 -0.78125 0.4375q-0.46875 0.171875 -0.90625 0.171875zm5.196213 0q-0.546875 0 -1.09375 -0.1875q-0.546875 -0.1875 -0.875 -0.5625q-0.109375 -0.109375 -0.09375 -0.25q0.03125 -0.140625 0.140625 -0.234375q0.140625 -0.09375 0.28125 -0.078125q0.140625 0.015625 0.234375 0.125q0.21875 0.25 0.578125 0.390625q0.375 0.140625 0.828125 0.140625q0.6875 0 0.984375 -0.234375q0.3125 -0.234375 0.328125 -0.578125q0 -0.328125 -0.328125 -0.546875q-0.3125 -0.21875 -1.03125 -0.34375q-0.953125 -0.15625 -1.390625 -0.515625q-0.4375 -0.375 -0.4375 -0.890625q0 -0.484375 0.25 -0.796875q0.265625 -0.3125 0.671875 -0.46875q0.421875 -0.171875 0.9375 -0.171875q0.625 0 1.0625 0.21875q0.453125 0.21875 0.734375 0.578125q0.09375 0.125 0.078125 0.265625q-0.015625 0.125 -0.140625 0.203125q-0.125 0.0625 -0.265625 0.046875q-0.140625 -0.03125 -0.25 -0.140625q-0.234375 -0.265625 -0.546875 -0.390625q-0.296875 -0.125 -0.703125 -0.125q-0.5 0 -0.8125 0.21875q-0.3125 0.203125 -0.3125 0.515625q0 0.21875 0.109375 0.375q0.125 0.15625 0.40625 0.28125q0.28125 0.109375 0.796875 0.203125q0.703125 0.109375 1.109375 0.328125q0.40625 0.21875 0.578125 0.515625q0.171875 0.296875 0.171875 0.640625q0 0.4375 -0.265625 0.765625q-0.25 0.328125 -0.703125 0.515625q-0.453125 0.1875 -1.03125 0.1875zm7.0735016 -0.046875q-0.375 0 -0.671875 -0.203125q-0.28125 -0.203125 -0.453125 -0.5625q-0.15625 -0.375 -0.15625 -0.84375l0 -5.328125q0 -0.15625 0.09375 -0.25q0.09375 -0.09375 0.25 -0.09375q0.171875 0 0.265625 0.09375q0.09375 0.09375 0.09375 0.25l0 5.328125q0 0.390625 0.15625 0.65625q0.171875 0.25 0.421875 0.25l0.234375 0q0.140625 0 0.21875 0.09375q0.09375 0.09375 0.09375 0.25q0 0.15625 -0.125 0.265625q-0.109375 0.09375 -0.296875 0.09375l-0.125 0zm2.052414 0q-0.171875 0 -0.28125 -0.09375q-0.09375 -0.109375 -0.09375 -0.265625l0 -4.375q0 -0.171875 0.09375 -0.265625q0.109375 -0.109375 0.28125 -0.109375q0.15625 0 0.25 0.109375q0.09375 0.09375 0.09375 0.265625l0 4.375q0 0.15625 -0.09375 0.265625q-0.09375 0.09375 -0.25 0.09375zm0.015625 -6.078125q-0.203125 0 -0.359375 -0.140625q-0.140625 -0.15625 -0.140625 -0.359375q0 -0.234375 0.15625 -0.375q0.15625 -0.140625 0.359375 -0.140625q0.1875 0 0.34375 0.140625q0.15625 0.140625 0.15625 0.375q0 0.203125 -0.15625 0.359375q-0.140625 0.140625 -0.359375 0.140625zm9.055206 6.078125q-0.15625 0 -0.265625 -0.09375q-0.09375 -0.109375 -0.09375 -0.265625l0 -2.6875q0 -0.65625 -0.359375 -1.046875q-0.34375 -0.390625 -0.875 -0.390625q-0.578125 0 -0.953125 0.390625q-0.359375 0.390625 -0.359375 1.03125l-0.640625 0q0.015625 -0.625 0.265625 -1.09375q0.265625 -0.484375 0.71875 -0.734375q0.46875 -0.265625 1.046875 -0.265625q0.546875 0 0.96875 0.265625q0.421875 0.25 0.65625 0.734375q0.25 0.46875 0.25 1.109375l0 2.6875q0 0.15625 -0.109375 0.265625q-0.09375 0.09375 -0.25 0.09375zm-6.53125 0q-0.171875 0 -0.265625 -0.09375q-0.09375 -0.109375 -0.09375 -0.265625l0 -4.375q0 -0.15625 0.09375 -0.265625q0.09375 -0.109375 0.265625 -0.109375q0.15625 0 0.25 0.109375q0.109375 0.109375 0.109375 0.265625l0 4.375q0 0.15625 -0.109375 0.265625q-0.09375 0.09375 -0.25 0.09375zm3.28125 0q-0.171875 0 -0.28125 -0.09375q-0.09375 -0.109375 -0.09375 -0.265625l0 -2.6875q0 -0.65625 -0.34375 -1.046875q-0.34375 -0.390625 -0.890625 -0.390625q-0.578125 0 -0.953125 0.390625q-0.359375 0.375 -0.359375 0.984375l-0.515625 0q0.015625 -0.609375 0.265625 -1.0625q0.25 -0.46875 0.671875 -0.71875q0.4375 -0.265625 0.96875 -0.265625q0.546875 0 0.96875 0.265625q0.4375 0.25 0.671875 0.734375q0.234375 0.46875 0.234375 1.109375l0 2.6875q0 0.15625 -0.09375 0.265625q-0.09375 0.09375 -0.25 0.09375zm5.70874 0q-0.171875 0 -0.28125 -0.09375q-0.09375 -0.109375 -0.09375 -0.265625l0 -4.375q0 -0.171875 0.09375 -0.265625q0.109375 -0.109375 0.28125 -0.109375q0.15625 0 0.25 0.109375q0.09375 0.09375 0.09375 0.265625l0 4.375q0 0.15625 -0.09375 0.265625q-0.09375 0.09375 -0.25 0.09375zm0.015625 -6.078125q-0.203125 0 -0.359375 -0.140625q-0.140625 -0.15625 -0.140625 -0.359375q0 -0.234375 0.15625 -0.375q0.15625 -0.140625 0.359375 -0.140625q0.1875 0 0.34375 0.140625q0.15625 0.140625 0.15625 0.375q0 0.203125 -0.15625 0.359375q-0.140625 0.140625 -0.359375 0.140625zm4.1489563 6.078125q-0.484375 0 -0.875 -0.234375q-0.390625 -0.234375 -0.609375 -0.640625q-0.21875 -0.40625 -0.21875 -0.921875l0 -4.5625q0 -0.15625 0.09375 -0.25q0.09375 -0.109375 0.25 -0.109375q0.15625 0 0.265625 0.109375q0.109375 0.09375 0.109375 0.25l0 4.5625q0 0.46875 0.265625 0.78125q0.28125 0.296875 0.71875 0.296875l0.265625 0q0.140625 0 0.234375 0.109375q0.09375 0.09375 0.09375 0.25q0 0.15625 -0.109375 0.265625q-0.109375 0.09375 -0.28125 0.09375l-0.203125 0zm-2.3125 -4.296875q-0.140625 0 -0.234375 -0.078125q-0.09375 -0.09375 -0.09375 -0.21875q0 -0.140625 0.09375 -0.234375q0.09375 -0.09375 0.234375 -0.09375l2.375 0q0.140625 0 0.234375 0.09375q0.09375 0.09375 0.09375 0.234375q0 0.125 -0.09375 0.21875q-0.09375 0.078125 -0.234375 0.078125l-2.375 0zm4.5936584 4.296875q-0.171875 0 -0.28125 -0.09375q-0.09375 -0.109375 -0.09375 -0.265625l0 -4.375q0 -0.171875 0.09375 -0.265625q0.109375 -0.109375 0.28125 -0.109375q0.15625 0 0.25 0.109375q0.09375 0.09375 0.09375 0.265625l0 4.375q0 0.15625 -0.09375 0.265625q-0.09375 0.09375 -0.25 0.09375zm0.015625 -6.078125q-0.203125 0 -0.359375 -0.140625q-0.140625 -0.15625 -0.140625 -0.359375q0 -0.234375 0.15625 -0.375q0.15625 -0.140625 0.359375 -0.140625q0.1875 0 0.34375 0.140625q0.15625 0.140625 0.15625 0.375q0 0.203125 -0.15625 0.359375q-0.140625 0.140625 -0.359375 0.140625zm6.5395813 6.078125q-0.15625 0 -0.265625 -0.09375q-0.109375 -0.109375 -0.109375 -0.265625l0 -2.421875q0 -0.578125 -0.21875 -0.953125q-0.21875 -0.375 -0.59375 -0.5625q-0.375 -0.1875 -0.84375 -0.1875q-0.46875 0 -0.84375 0.1875q-0.359375 0.171875 -0.578125 0.484375q-0.203125 0.3125 -0.203125 0.703125l-0.515625 0q0.015625 -0.59375 0.3125 -1.046875q0.296875 -0.46875 0.796875 -0.734375q0.5 -0.265625 1.09375 -0.265625q0.671875 0 1.1875 0.28125q0.53125 0.265625 0.828125 0.796875q0.296875 0.53125 0.296875 1.296875l0 2.421875q0 0.15625 -0.109375 0.265625q-0.09375 0.09375 -0.234375 0.09375zm-4.015625 0q-0.171875 0 -0.265625 -0.09375q-0.09375 -0.109375 -0.09375 -0.265625l0 -4.375q0 -0.171875 0.09375 -0.265625q0.09375 -0.109375 0.265625 -0.109375q0.15625 0 0.25 0.109375q0.109375 0.09375 0.109375 0.265625l0 4.375q0 0.15625 -0.109375 0.265625q-0.09375 0.09375 -0.25 0.09375zm8.205765 0.046875q-0.75 0 -1.3125 -0.328125q-0.5625 -0.328125 -0.890625 -0.921875q-0.328125 -0.59375 -0.328125 -1.34375q0 -0.765625 0.328125 -1.34375q0.34375 -0.59375 0.9375 -0.921875q0.59375 -0.34375 1.328125 -0.34375q0.765625 0 1.34375 0.34375q0.578125 0.328125 0.90625 0.921875q0.34375 0.578125 0.34375 1.34375l-0.421875 0.21875q0 0.703125 -0.296875 1.234375q-0.28125 0.53125 -0.796875 0.84375q-0.5 0.296875 -1.140625 0.296875zm0.09375 1.96875q-0.75 0 -1.3125 -0.28125q-0.546875 -0.265625 -0.921875 -0.75q-0.09375 -0.109375 -0.078125 -0.25q0.015625 -0.125 0.125 -0.203125q0.125 -0.078125 0.265625 -0.0625q0.15625 0.03125 0.25 0.140625q0.265625 0.34375 0.6875 0.546875q0.421875 0.203125 0.984375 0.203125q0.53125 0 0.9375 -0.25q0.421875 -0.25 0.671875 -0.71875q0.25 -0.453125 0.25 -1.0625l0 -1.421875l0.265625 -0.53125l0.4375 0.078125l0 1.90625q0 0.75 -0.34375 1.34375q-0.328125 0.609375 -0.90625 0.953125q-0.578125 0.359375 -1.3125 0.359375zm-0.03125 -2.625q0.5625 0 0.984375 -0.234375q0.421875 -0.25 0.65625 -0.6875q0.25 -0.453125 0.25 -1.015625q0 -0.5625 -0.25 -1.0q-0.234375 -0.453125 -0.65625 -0.703125q-0.421875 -0.25 -0.984375 -0.25q-0.546875 0 -0.984375 0.25q-0.421875 0.25 -0.671875 0.703125q-0.234375 0.4375 -0.234375 1.0q0 0.5625 0.234375 1.015625q0.25 0.4375 0.671875 0.6875q0.4375 0.234375 0.984375 0.234375zm9.048279 0.65625q-0.734375 0 -1.328125 -0.328125q-0.59375 -0.34375 -0.9375 -0.921875q-0.328125 -0.59375 -0.328125 -1.34375q0 -0.75 0.328125 -1.34375q0.34375 -0.59375 0.9375 -0.921875q0.59375 -0.34375 1.328125 -0.34375q0.75 0 1.328125 0.34375q0.59375 0.328125 0.921875 0.921875q0.34375 0.59375 0.34375 1.34375q0 0.75 -0.34375 1.34375q-0.328125 0.578125 -0.921875 0.921875q-0.578125 0.328125 -1.328125 0.328125zm0 -0.65625q0.546875 0 0.96875 -0.25q0.4375 -0.25 0.671875 -0.6875q0.25 -0.4375 0.25 -1.0q0 -0.5625 -0.25 -1.0q-0.234375 -0.453125 -0.671875 -0.703125q-0.421875 -0.25 -0.96875 -0.25q-0.53125 0 -0.96875 0.25q-0.421875 0.25 -0.671875 0.703125q-0.25 0.4375 -0.25 1.0q0 0.5625 0.25 1.0q0.25 0.4375 0.671875 0.6875q0.4375 0.25 0.96875 0.25zm4.362015 2.796875q-0.171875 0 -0.265625 -0.109375q-0.09375 -0.09375 -0.09375 -0.265625l0 -4.390625q0 -0.734375 0.34375 -1.3125q0.34375 -0.59375 0.921875 -0.921875q0.59375 -0.34375 1.3125 -0.34375q0.75 0 1.328125 0.34375q0.59375 0.34375 0.9375 0.9375q0.34375 0.578125 0.34375 1.328125q0 0.734375 -0.34375 1.328125q-0.328125 0.578125 -0.90625 0.921875q-0.5625 0.34375 -1.28125 0.34375q-0.625 0 -1.140625 -0.265625q-0.5 -0.265625 -0.796875 -0.703125l0 2.734375q0 0.171875 -0.109375 0.265625q-0.09375 0.109375 -0.25 0.109375zm2.21875 -2.796875q0.546875 0 0.96875 -0.25q0.4375 -0.25 0.671875 -0.6875q0.25 -0.453125 0.25 -1.0q0 -0.5625 -0.25 -1.0q-0.234375 -0.4375 -0.671875 -0.6875q-0.421875 -0.265625 -0.96875 -0.265625q-0.53125 0 -0.96875 0.265625q-0.421875 0.25 -0.671875 0.6875q-0.234375 0.4375 -0.234375 1.0q0 0.546875 0.234375 1.0q0.25 0.4375 0.671875 0.6875q0.4375 0.25 0.96875 0.25zm6.001236 0.609375q-0.484375 0 -0.875 -0.234375q-0.390625 -0.234375 -0.609375 -0.640625q-0.21875 -0.40625 -0.21875 -0.921875l0 -4.5625q0 -0.15625 0.09375 -0.25q0.09375 -0.109375 0.25 -0.109375q0.15625 0 0.265625 0.109375q0.109375 0.09375 0.109375 0.25l0 4.5625q0 0.46875 0.265625 0.78125q0.28125 0.296875 0.71875 0.296875l0.265625 0q0.140625 0 0.234375 0.109375q0.09375 0.09375 0.09375 0.25q0 0.15625 -0.109375 0.265625q-0.109375 0.09375 -0.28125 0.09375l-0.203125 0zm-2.3125 -4.296875q-0.140625 0 -0.234375 -0.078125q-0.09375 -0.09375 -0.09375 -0.21875q0 -0.140625 0.09375 -0.234375q0.09375 -0.09375 0.234375 -0.09375l2.375 0q0.140625 0 0.234375 0.09375q0.09375 0.09375 0.09375 0.234375q0 0.125 -0.09375 0.21875q-0.09375 0.078125 -0.234375 0.078125l-2.375 0zm4.5936584 4.296875q-0.171875 0 -0.28125 -0.09375q-0.09375 -0.109375 -0.09375 -0.265625l0 -4.375q0 -0.171875 0.09375 -0.265625q0.109375 -0.109375 0.28125 -0.109375q0.15625 0 0.25 0.109375q0.09375 0.09375 0.09375 0.265625l0 4.375q0 0.15625 -0.09375 0.265625q-0.09375 0.09375 -0.25 0.09375zm0.015625 -6.078125q-0.203125 0 -0.359375 -0.140625q-0.140625 -0.15625 -0.140625 -0.359375q0 -0.234375 0.15625 -0.375q0.15625 -0.140625 0.359375 -0.140625q0.1875 0 0.34375 0.140625q0.15625 0.140625 0.15625 0.375q0 0.203125 -0.15625 0.359375q-0.140625 0.140625 -0.359375 0.140625zm9.055206 6.078125q-0.15625 0 -0.265625 -0.09375q-0.09375 -0.109375 -0.09375 -0.265625l0 -2.6875q0 -0.65625 -0.359375 -1.046875q-0.34375 -0.390625 -0.875 -0.390625q-0.578125 0 -0.953125 0.390625q-0.359375 0.390625 -0.359375 1.03125l-0.640625 0q0.015625 -0.625 0.265625 -1.09375q0.265625 -0.484375 0.71875 -0.734375q0.46875 -0.265625 1.046875 -0.265625q0.546875 0 0.96875 0.265625q0.421875 0.25 0.65625 0.734375q0.25 0.46875 0.25 1.109375l0 2.6875q0 0.15625 -0.109375 0.265625q-0.09375 0.09375 -0.25 0.09375zm-6.53125 0q-0.171875 0 -0.265625 -0.09375q-0.09375 -0.109375 -0.09375 -0.265625l0 -4.375q0 -0.15625 0.09375 -0.265625q0.09375 -0.109375 0.265625 -0.109375q0.15625 0 0.25 0.109375q0.109375 0.109375 0.109375 0.265625l0 4.375q0 0.15625 -0.109375 0.265625q-0.09375 0.09375 -0.25 0.09375zm3.28125 0q-0.171875 0 -0.28125 -0.09375q-0.09375 -0.109375 -0.09375 -0.265625l0 -2.6875q0 -0.65625 -0.34375 -1.046875q-0.34375 -0.390625 -0.890625 -0.390625q-0.578125 0 -0.953125 0.390625q-0.359375 0.375 -0.359375 0.984375l-0.515625 0q0.015625 -0.609375 0.265625 -1.0625q0.25 -0.46875 0.671875 -0.71875q0.4375 -0.265625 0.96875 -0.265625q0.546875 0 0.96875 0.265625q0.4375 0.25 0.671875 0.734375q0.234375 0.46875 0.234375 1.109375l0 2.6875q0 0.15625 -0.09375 0.265625q-0.09375 0.09375 -0.25 0.09375zm7.443115 0.046875q-0.71875 0 -1.296875 -0.34375q-0.5625 -0.34375 -0.90625 -0.921875q-0.328125 -0.59375 -0.328125 -1.328125q0 -0.75 0.34375 -1.328125q0.34375 -0.59375 0.921875 -0.9375q0.59375 -0.34375 1.328125 -0.34375q0.75 0 1.328125 0.34375q0.578125 0.34375 0.921875 0.9375q0.34375 0.578125 0.34375 1.328125l-0.28125 0.21875q0 0.671875 -0.3125 1.21875q-0.3125 0.53125 -0.859375 0.84375q-0.53125 0.3125 -1.203125 0.3125zm0.0625 -0.65625q0.546875 0 0.96875 -0.25q0.421875 -0.25 0.671875 -0.6875q0.25 -0.453125 0.25 -1.0q0 -0.5625 -0.25 -1.0q-0.25 -0.4375 -0.671875 -0.6875q-0.421875 -0.265625 -0.96875 -0.265625q-0.53125 0 -0.96875 0.265625q-0.421875 0.25 -0.671875 0.6875q-0.25 0.4375 -0.25 1.0q0 0.546875 0.25 1.0q0.25 0.4375 0.671875 0.6875q0.4375 0.25 0.96875 0.25zm2.234375 0.609375q-0.15625 0 -0.265625 -0.09375q-0.09375 -0.109375 -0.09375 -0.265625l0 -1.59375l0.171875 -0.734375l0.546875 0.140625l0 2.1875q0 0.15625 -0.109375 0.265625q-0.09375 0.09375 -0.25 0.09375zm2.8620148 0q-0.375 0 -0.671875 -0.203125q-0.28125 -0.203125 -0.453125 -0.5625q-0.15625 -0.375 -0.15625 -0.84375l0 -5.328125q0 -0.15625 0.09375 -0.25q0.09375 -0.09375 0.25 -0.09375q0.171875 0 0.265625 0.09375q0.09375 0.09375 0.09375 0.25l0 5.328125q0 0.390625 0.15625 0.65625q0.171875 0.25 0.421875 0.25l0.234375 0q0.140625 0 0.21875 0.09375q0.09375 0.09375 0.09375 0.25q0 0.15625 -0.125 0.265625q-0.109375 0.09375 -0.296875 0.09375l-0.125 0zm4.629303 2.1875q-0.171875 0 -0.265625 -0.109375q-0.09375 -0.09375 -0.09375 -0.265625l0 -4.390625q0 -0.734375 0.34375 -1.3125q0.34375 -0.59375 0.921875 -0.921875q0.59375 -0.34375 1.3125 -0.34375q0.75 0 1.328125 0.34375q0.59375 0.34375 0.9375 0.9375q0.34375 0.578125 0.34375 1.328125q0 0.734375 -0.34375 1.328125q-0.328125 0.578125 -0.90625 0.921875q-0.5625 0.34375 -1.28125 0.34375q-0.625 0 -1.140625 -0.265625q-0.5 -0.265625 -0.796875 -0.703125l0 2.734375q0 0.171875 -0.109375 0.265625q-0.09375 0.109375 -0.25 0.109375zm2.21875 -2.796875q0.546875 0 0.96875 -0.25q0.4375 -0.25 0.671875 -0.6875q0.25 -0.453125 0.25 -1.0q0 -0.5625 -0.25 -1.0q-0.234375 -0.4375 -0.671875 -0.6875q-0.421875 -0.265625 -0.96875 -0.265625q-0.53125 0 -0.96875 0.265625q-0.421875 0.25 -0.671875 0.6875q-0.234375 0.4375 -0.234375 1.0q0 0.546875 0.234375 1.0q0.25 0.4375 0.671875 0.6875q0.4375 0.25 0.96875 0.25zm4.313736 -2.53125q0.03125 -0.578125 0.296875 -1.03125q0.28125 -0.46875 0.71875 -0.71875q0.453125 -0.265625 0.984375 -0.265625q0.4375 0 0.671875 0.125q0.234375 0.109375 0.171875 0.34375q-0.03125 0.140625 -0.125 0.1875q-0.09375 0.046875 -0.21875 0.046875q-0.125 -0.015625 -0.28125 -0.03125q-0.53125 -0.046875 -0.9375 0.109375q-0.390625 0.15625 -0.640625 0.484375q-0.234375 0.3125 -0.234375 0.75l-0.40625 0zm0.046875 3.140625q-0.15625 0 -0.25 -0.09375q-0.09375 -0.09375 -0.09375 -0.265625l0 -4.390625q0 -0.171875 0.09375 -0.265625q0.09375 -0.09375 0.25 -0.09375q0.171875 0 0.265625 0.09375q0.09375 0.09375 0.09375 0.265625l0 4.390625q0 0.171875 -0.09375 0.265625q-0.09375 0.09375 -0.265625 0.09375zm5.867691 0.046875q-0.734375 0 -1.328125 -0.328125q-0.59375 -0.34375 -0.9375 -0.921875q-0.328125 -0.59375 -0.328125 -1.34375q0 -0.75 0.328125 -1.34375q0.34375 -0.59375 0.9375 -0.921875q0.59375 -0.34375 1.328125 -0.34375q0.75 0 1.328125 0.34375q0.59375 0.328125 0.921875 0.921875q0.34375 0.59375 0.34375 1.34375q0 0.75 -0.34375 1.34375q-0.328125 0.578125 -0.921875 0.921875q-0.578125 0.328125 -1.328125 0.328125zm0 -0.65625q0.546875 0 0.96875 -0.25q0.4375 -0.25 0.671875 -0.6875q0.25 -0.4375 0.25 -1.0q0 -0.5625 -0.25 -1.0q-0.234375 -0.453125 -0.671875 -0.703125q-0.421875 -0.25 -0.96875 -0.25q-0.53125 0 -0.96875 0.25q-0.421875 0.25 -0.671875 0.703125q-0.25 0.4375 -0.25 1.0q0 0.5625 0.25 1.0q0.25 0.4375 0.671875 0.6875q0.4375 0.25 0.96875 0.25zm6.31514 0.65625q-0.734375 0 -1.328125 -0.34375q-0.578125 -0.34375 -0.921875 -0.921875q-0.34375 -0.59375 -0.34375 -1.34375q0 -0.734375 0.328125 -1.3125q0.34375 -0.59375 0.90625 -0.9375q0.578125 -0.34375 1.296875 -0.34375q0.625 0 1.125 0.265625q0.5 0.265625 0.8125 0.71875l0 -2.75q0 -0.171875 0.09375 -0.265625q0.109375 -0.09375 0.265625 -0.09375q0.15625 0 0.25 0.09375q0.109375 0.09375 0.109375 0.265625l0 4.40625q-0.015625 0.71875 -0.359375 1.3125q-0.328125 0.578125 -0.921875 0.921875q-0.578125 0.328125 -1.3125 0.328125zm0 -0.65625q0.546875 0 0.96875 -0.25q0.421875 -0.265625 0.671875 -0.703125q0.25 -0.4375 0.25 -1.0q0 -0.546875 -0.25 -0.984375q-0.25 -0.453125 -0.671875 -0.703125q-0.421875 -0.25 -0.96875 -0.25q-0.53125 0 -0.96875 0.25q-0.421875 0.25 -0.671875 0.703125q-0.25 0.4375 -0.25 0.984375q0 0.5625 0.25 1.0q0.25 0.4375 0.671875 0.703125q0.4375 0.25 0.96875 0.25zm6.501236 0.671875q-0.671875 0 -1.1875 -0.28125q-0.515625 -0.28125 -0.828125 -0.8125q-0.296875 -0.53125 -0.296875 -1.296875l0 -2.421875q0 -0.140625 0.09375 -0.25q0.109375 -0.109375 0.25 -0.109375q0.171875 0 0.265625 0.109375q0.109375 0.109375 0.109375 0.25l0 2.421875q0 0.578125 0.21875 0.953125q0.21875 0.375 0.59375 0.5625q0.375 0.1875 0.859375 0.1875q0.453125 0 0.8125 -0.171875q0.375 -0.1875 0.578125 -0.484375q0.21875 -0.3125 0.21875 -0.703125l0.515625 0q-0.015625 0.578125 -0.3125 1.046875q-0.296875 0.46875 -0.796875 0.734375q-0.484375 0.265625 -1.09375 0.265625zm2.046875 -0.0625q-0.15625 0 -0.265625 -0.09375q-0.09375 -0.109375 -0.09375 -0.265625l0 -4.390625q0 -0.15625 0.09375 -0.25q0.109375 -0.109375 0.265625 -0.109375q0.15625 0 0.25 0.109375q0.109375 0.09375 0.109375 0.25l0 4.390625q0 0.15625 -0.109375 0.265625q-0.09375 0.09375 -0.25 0.09375zm4.31514 0.046875q-0.734375 0 -1.3125 -0.34375q-0.5625 -0.34375 -0.90625 -0.921875q-0.328125 -0.59375 -0.328125 -1.328125q0 -0.75 0.3125 -1.328125q0.328125 -0.59375 0.875 -0.9375q0.546875 -0.34375 1.265625 -0.34375q0.578125 0 1.046875 0.234375q0.484375 0.21875 0.859375 0.671875q0.09375 0.109375 0.0625 0.234375q-0.015625 0.125 -0.15625 0.21875q-0.09375 0.078125 -0.21875 0.0625q-0.125 -0.03125 -0.21875 -0.140625q-0.546875 -0.625 -1.375 -0.625q-0.515625 0 -0.921875 0.25q-0.390625 0.25 -0.609375 0.703125q-0.21875 0.4375 -0.21875 1.0q0 0.5625 0.234375 1.0q0.234375 0.4375 0.65625 0.6875q0.421875 0.25 0.953125 0.25q0.375 0 0.671875 -0.09375q0.296875 -0.09375 0.53125 -0.296875q0.125 -0.09375 0.234375 -0.109375q0.125 -0.015625 0.234375 0.078125q0.109375 0.09375 0.125 0.234375q0.015625 0.125 -0.09375 0.21875q-0.6875 0.625 -1.703125 0.625zm5.2783203 -0.046875q-0.484375 0 -0.875 -0.234375q-0.390625 -0.234375 -0.609375 -0.640625q-0.21875 -0.40625 -0.21875 -0.921875l0 -4.5625q0 -0.15625 0.09375 -0.25q0.09375 -0.109375 0.25 -0.109375q0.15625 0 0.265625 0.109375q0.109375 0.09375 0.109375 0.25l0 4.5625q0 0.46875 0.265625 0.78125q0.28125 0.296875 0.71875 0.296875l0.265625 0q0.140625 0 0.234375 0.109375q0.09375 0.09375 0.09375 0.25q0 0.15625 -0.109375 0.265625q-0.109375 0.09375 -0.28125 0.09375l-0.203125 0zm-2.3125 -4.296875q-0.140625 0 -0.234375 -0.078125q-0.09375 -0.09375 -0.09375 -0.21875q0 -0.140625 0.09375 -0.234375q0.09375 -0.09375 0.234375 -0.09375l2.375 0q0.140625 0 0.234375 0.09375q0.09375 0.09375 0.09375 0.234375q0 0.125 -0.09375 0.21875q-0.09375 0.078125 -0.234375 0.078125l-2.375 0zm4.5936584 4.296875q-0.171875 0 -0.28125 -0.09375q-0.09375 -0.109375 -0.09375 -0.265625l0 -4.375q0 -0.171875 0.09375 -0.265625q0.109375 -0.109375 0.28125 -0.109375q0.15625 0 0.25 0.109375q0.09375 0.09375 0.09375 0.265625l0 4.375q0 0.15625 -0.09375 0.265625q-0.09375 0.09375 -0.25 0.09375zm0.015625 -6.078125q-0.203125 0 -0.359375 -0.140625q-0.140625 -0.15625 -0.140625 -0.359375q0 -0.234375 0.15625 -0.375q0.15625 -0.140625 0.359375 -0.140625q0.1875 0 0.34375 0.140625q0.15625 0.140625 0.15625 0.375q0 0.203125 -0.15625 0.359375q-0.140625 0.140625 -0.359375 0.140625zm3.8989563 6.078125q-0.21875 0 -0.328125 -0.25l-2.078125 -4.390625q-0.046875 -0.109375 0 -0.234375q0.046875 -0.125 0.1875 -0.1875q0.125 -0.0625 0.25 -0.015625q0.125 0.046875 0.1875 0.15625l1.984375 4.3125l-0.390625 0l1.96875 -4.3125q0.046875 -0.125 0.1875 -0.15625q0.140625 -0.046875 0.265625 0q0.125 0.0625 0.171875 0.203125q0.046875 0.125 0 0.234375l-2.046875 4.390625q-0.109375 0.25 -0.359375 0.25zm3.9396973 0q-0.171875 0 -0.28125 -0.09375q-0.09375 -0.109375 -0.09375 -0.265625l0 -4.375q0 -0.171875 0.09375 -0.265625q0.109375 -0.109375 0.28125 -0.109375q0.15625 0 0.25 0.109375q0.09375 0.09375 0.09375 0.265625l0 4.375q0 0.15625 -0.09375 0.265625q-0.09375 0.09375 -0.25 0.09375zm0.015625 -6.078125q-0.203125 0 -0.359375 -0.140625q-0.140625 -0.15625 -0.140625 -0.359375q0 -0.234375 0.15625 -0.375q0.15625 -0.140625 0.359375 -0.140625q0.1875 0 0.34375 0.140625q0.15625 0.140625 0.15625 0.375q0 0.203125 -0.15625 0.359375q-0.140625 0.140625 -0.359375 0.140625zm4.1489563 6.078125q-0.484375 0 -0.875 -0.234375q-0.390625 -0.234375 -0.609375 -0.640625q-0.21875 -0.40625 -0.21875 -0.921875l0 -4.5625q0 -0.15625 0.09375 -0.25q0.09375 -0.109375 0.25 -0.109375q0.15625 0 0.265625 0.109375q0.109375 0.09375 0.109375 0.25l0 4.5625q0 0.46875 0.265625 0.78125q0.28125 0.296875 0.71875 0.296875l0.265625 0q0.140625 0 0.234375 0.109375q0.09375 0.09375 0.09375 0.25q0 0.15625 -0.109375 0.265625q-0.109375 0.09375 -0.28125 0.09375l-0.203125 0zm-2.3125 -4.296875q-0.140625 0 -0.234375 -0.078125q-0.09375 -0.09375 -0.09375 -0.21875q0 -0.140625 0.09375 -0.234375q0.09375 -0.09375 0.234375 -0.09375l2.375 0q0.140625 0 0.234375 0.09375q0.09375 0.09375 0.09375 0.234375q0 0.125 -0.09375 0.21875q-0.09375 0.078125 -0.234375 0.078125l-2.375 0zm4.9530334 6.515625q-0.078125 0 -0.171875 -0.03125q-0.3125 -0.140625 -0.171875 -0.453125l3.015625 -6.640625q0.140625 -0.296875 0.4375 -0.171875q0.328125 0.140625 0.1875 0.4375l-3.03125 6.640625q-0.09375 0.21875 -0.265625 0.21875zm1.03125 -2.375q-0.140625 0.0625 -0.265625 0.03125q-0.109375 -0.046875 -0.1875 -0.1875l-2.078125 -4.3125q-0.0625 -0.140625 -0.015625 -0.265625q0.046875 -0.125 0.171875 -0.1875q0.140625 -0.0625 0.265625 -0.015625q0.125 0.03125 0.1875 0.171875l2.046875 4.3125q0.078125 0.140625 0.046875 0.265625q-0.03125 0.125 -0.171875 0.1875z" fill-rule="nonzero"/></g></svg>