<svg version="1.1" viewBox="0.0 0.0 288.0 288.0" fill="none" stroke="none" stroke-linecap="square" stroke-miterlimit="10" xmlns:xlink="http://www.w3.org/1999/xlink" xmlns="http://www.w3.org/2000/svg"><clipPath id="ga6f16b1fd0_0_14.0"><path d="m0 0l288.0 0l0 288.0l-288.0 0l0 -288.0z" clip-rule="nonzero"/></clipPath><g clip-path="url(#ga6f16b1fd0_0_14.0)"><path fill="#ffffff" d="m0 0l288.0 0l0 288.0l-288.0 0z" fill-rule="evenodd"/><path fill="#000000" fill-opacity="0.0" d="m50.37008 217.7594l1.1653557 -162.20471" fill-rule="evenodd"/><path stroke="#281e96" stroke-width="4.0" stroke-linejoin="round" stroke-linecap="butt" d="m50.37008 217.75941l0.99293137 -138.20535" fill-rule="evenodd"/><path fill="#281e96" stroke="#281e96" stroke-width="4.0" stroke-linecap="butt" d="m57.96977 79.601524l-6.476345 -18.199383l-6.737171 18.104458z" fill-rule="evenodd"/><path fill="#000000" fill-opacity="0.0" d="m48.562992 217.31847l173.13387 0.44093323" fill-rule="evenodd"/><path stroke="#281e96" stroke-width="4.0" stroke-linejoin="round" stroke-linecap="butt" d="m48.562992 217.31847l149.13394 0.37982178" fill-rule="evenodd"/><path fill="#281e96" stroke="#281e96" stroke-width="4.0" stroke-linecap="butt" d="m197.6801 224.30519l18.169159 -6.560669l-18.135498 -6.653137z" fill-rule="evenodd"/><path fill="#d9d9d9" d="m80.625984 188.66142l0 0c0 -3.1223755 2.5311813 -5.653549 5.6535416 -5.653549l0 0c1.4994125 0 2.937416 0.5956421 3.9976578 1.6558838c1.0602493 1.0602417 1.6558838 2.4982452 1.6558838 3.9976654l0 0c0 3.1223602 -2.5311737 5.653534 -5.6535416 5.653534l0 0c-3.1223602 0 -5.6535416 -2.5311737 -5.6535416 -5.653534z" fill-rule="evenodd"/><path fill="#0000ff" d="m97.96719 124.36352l0 0c0 -3.1223679 2.5311737 -5.6535416 5.6535416 -5.6535416l0 0c1.4994125 0 2.937416 0.59563446 3.9976578 1.6558838c1.0602493 1.0602417 1.6558838 2.4982452 1.6558838 3.9976578l0 0c0 3.1223679 -2.5311737 5.6535416 -5.6535416 5.6535416l0 0c-3.1223679 0 -5.6535416 -2.5311737 -5.6535416 -5.6535416z" fill-rule="evenodd"/><path fill="#6d9eeb" d="m122.35827 170.979l0 0c0 -3.1223602 2.5311737 -5.653549 5.6535416 -5.653549l0 0c1.4994202 0 2.9374084 0.5956421 3.9976654 1.6558838c1.0602417 1.060257 1.6558838 2.4982452 1.6558838 3.9976654l0 0c0 3.1223602 -2.531189 5.653549 -5.653549 5.653549l0 0c-3.1223679 0 -5.6535416 -2.531189 -5.6535416 -5.653549z" fill-rule="evenodd"/><path fill="#cccccc" d="m148.47638 194.79002l0 0c0 -3.1223602 2.5311737 -5.653534 5.653549 -5.653534l0 0c1.4994049 0 2.9374084 0.59562683 3.9976501 1.6558838c1.0602417 1.0602417 1.6558838 2.4982452 1.6558838 3.9976501l0 0c0 3.1223755 -2.5311737 5.653549 -5.653534 5.653549l0 0c-3.1223755 0 -5.653549 -2.5311737 -5.653549 -5.653549z" fill-rule="evenodd"/><path fill="#0000ff" d="m131.88321 124.36352l0 0c0 -3.1223679 2.5311737 -5.6535416 5.653534 -5.6535416l0 0c1.4994202 0 2.9374084 0.59563446 3.9976654 1.6558838c1.0602417 1.0602417 1.6558838 2.4982452 1.6558838 3.9976578l0 0c0 3.1223679 -2.5311737 5.6535416 -5.653549 5.6535416l0 0c-3.1223602 0 -5.653534 -2.5311737 -5.653534 -5.6535416z" fill-rule="evenodd"/><path fill="#ff0000" d="m190.03543 131.14436l0 0c0 -3.1223755 2.5311737 -5.653549 5.653549 -5.653549l0 0c1.4994049 0 2.9374084 0.5956421 3.9976501 1.6558838c1.060257 1.0602417 1.6558838 2.4982452 1.6558838 3.9976654l0 0c0 3.1223602 -2.5311737 5.653534 -5.653534 5.653534l0 0c-3.1223755 0 -5.653549 -2.5311737 -5.653549 -5.653534z" fill-rule="evenodd"/><path fill="#ff0000" d="m168.83595 97.215225l0 0c0 -3.1223679 2.531189 -5.653549 5.653549 -5.653549l0 0c1.4994049 0 2.9374084 0.5956421 3.9976654 1.6558914c1.0602417 1.0602417 1.6558838 2.4982452 1.6558838 3.9976578l0 0c0 3.1223602 -2.531189 5.6535416 -5.653549 5.6535416l0 0c-3.1223602 0 -5.653549 -2.5311813 -5.653549 -5.6535416z" fill-rule="evenodd"/><path fill="#0000ff" d="m170.98032 167.51312l0 0c0 -3.1223602 2.5311737 -5.653549 5.653549 -5.653549l0 0c1.4994049 0 2.9374084 0.5956421 3.9976501 1.6558838c1.0602417 1.060257 1.6558838 2.4982605 1.6558838 3.9976654l0 0c0 3.1223602 -2.5311737 5.653549 -5.653534 5.653549l0 0c-3.1223755 0 -5.653549 -2.531189 -5.653549 -5.653549z" fill-rule="evenodd"/><path fill="#000000" fill-opacity="0.0" d="m25.039623 27.07823l130.92912 0l0 33.102364l-130.92912 0z" fill-rule="evenodd"/><path fill="#4332ff" d="m38.352123 47.59823q-0.296875 0 -0.4375 -0.296875l-3.5625 -8.34375q-0.125 -0.328125 -0.015625 -0.53125q0.109375 -0.203125 0.40625 -0.203125q0.296875 0 0.421875 0.296875l3.3125 7.921875l-0.265625 0l3.296875 -7.890625q0.078125 -0.1875 0.1875 -0.25q0.109375 -0.078125 0.28125 -0.078125q0.28125 0 0.375 0.21875q0.09375 0.203125 -0.015625 0.46875l-3.5625 8.390625q-0.078125 0.171875 -0.1875 0.234375q-0.109375 0.0625 -0.234375 0.0625zm6.928299 0.0625q-0.921875 0 -1.65625 -0.4375q-0.734375 -0.4375 -1.15625 -1.1875q-0.421875 -0.765625 -0.421875 -1.71875q0 -0.953125 0.4375 -1.703125q0.4375 -0.765625 1.1875 -1.203125q0.765625 -0.4375 1.703125 -0.4375q0.953125 0 1.703125 0.4375q0.75 0.4375 1.1875 1.203125q0.4375 0.75 0.453125 1.703125l-0.375 0.296875q0 0.859375 -0.40625 1.546875q-0.390625 0.6875 -1.09375 1.09375q-0.6875 0.40625 -1.5625 0.40625zm0.09375 -0.84375q0.703125 0 1.25 -0.3125q0.546875 -0.328125 0.859375 -0.890625q0.3125 -0.578125 0.3125 -1.296875q0 -0.71875 -0.3125 -1.28125q-0.3125 -0.5625 -0.859375 -0.890625q-0.546875 -0.328125 -1.25 -0.328125q-0.671875 0 -1.234375 0.328125q-0.546875 0.328125 -0.875 0.890625q-0.328125 0.5625 -0.328125 1.28125q0 0.71875 0.328125 1.296875q0.328125 0.5625 0.875 0.890625q0.5625 0.3125 1.234375 0.3125zm2.875 0.78125q-0.203125 0 -0.34375 -0.125q-0.125 -0.125 -0.125 -0.328125l0 -2.0625l0.234375 -0.9375l0.703125 0.171875l0 2.828125q0 0.203125 -0.140625 0.328125q-0.125 0.125 -0.328125 0.125zm3.686554 0q-0.484375 0 -0.859375 -0.265625q-0.375 -0.265625 -0.59375 -0.734375q-0.203125 -0.46875 -0.203125 -1.078125l0 -6.84375q0 -0.203125 0.125 -0.328125q0.125 -0.125 0.328125 -0.125q0.203125 0 0.328125 0.125q0.125 0.125 0.125 0.328125l0 6.84375q0 0.515625 0.203125 0.84375q0.21875 0.328125 0.546875 0.328125l0.296875 0q0.171875 0 0.28125 0.125q0.109375 0.125 0.109375 0.328125q0 0.203125 -0.15625 0.328125q-0.140625 0.125 -0.375 0.125l-0.15625 0zm4.821518 0.078125q-0.859375 0 -1.53125 -0.359375q-0.671875 -0.359375 -1.0625 -1.03125q-0.390625 -0.6875 -0.390625 -1.671875l0 -3.125q0 -0.1875 0.125 -0.3125q0.140625 -0.140625 0.34375 -0.140625q0.203125 0 0.328125 0.140625q0.140625 0.125 0.140625 0.3125l0 3.125q0 0.734375 0.28125 1.21875q0.28125 0.484375 0.765625 0.734375q0.484375 0.234375 1.09375 0.234375q0.59375 0 1.0625 -0.234375q0.46875 -0.234375 0.75 -0.625q0.28125 -0.390625 0.28125 -0.90625l0.65625 0q-0.03125 0.765625 -0.421875 1.359375q-0.375 0.59375 -1.015625 0.9375q-0.625 0.34375 -1.40625 0.34375zm2.640625 -0.078125q-0.203125 0 -0.328125 -0.125q-0.125 -0.125 -0.125 -0.34375l0 -5.640625q0 -0.203125 0.125 -0.328125q0.125 -0.125 0.328125 -0.125q0.203125 0 0.328125 0.125q0.140625 0.125 0.140625 0.328125l0 5.640625q0 0.21875 -0.140625 0.34375q-0.125 0.125 -0.328125 0.125zm5.608433 0.0625q-0.984375 0 -1.7343788 -0.421875q-0.75 -0.4375 -1.171875 -1.1875q-0.421875 -0.75 -0.421875 -1.734375q0 -0.984375 0.390625 -1.734375q0.40625 -0.75 1.109375 -1.171875q0.71875 -0.4375 1.6406288 -0.4375q0.90625 0 1.578125 0.421875q0.6875 0.40625 1.0625 1.140625q0.375 0.734375 0.375 1.671875q0 0.1875 -0.125 0.3125q-0.125 0.109375 -0.3125 0.109375l-5.093754 0l0 -0.78125l5.187504 0l-0.515625 0.375q0.015625 -0.6875 -0.25 -1.234375q-0.265625 -0.5625 -0.75 -0.875q-0.484375 -0.3125 -1.15625 -0.3125q-0.6875 0 -1.2031288 0.328125q-0.515625 0.328125 -0.796875 0.890625q-0.28125 0.5625 -0.28125 1.296875q0 0.734375 0.3125 1.296875q0.328125 0.5625 0.875 0.890625q0.5625038 0.328125 1.2812538 0.328125q0.421875 0 0.859375 -0.140625q0.4375 -0.15625 0.703125 -0.390625q0.140625 -0.109375 0.296875 -0.109375q0.171875 -0.015625 0.296875 0.09375q0.15625 0.140625 0.15625 0.3125q0.015625 0.15625 -0.140625 0.28125q-0.390625 0.328125 -1.0 0.5625q-0.609375 0.21875 -1.171875 0.21875z" fill-rule="nonzero"/><path fill="#000000" fill-opacity="0.0" d="m126.92913 201.47375l136.97638 0l0 33.102356l-136.97638 0z" fill-rule="evenodd"/><path fill="#4332ff" d="m228.88718 221.99376q-0.1875 0 -0.328125 -0.140625q-0.140625 -0.140625 -0.140625 -0.328125l0 -8.90625l0.9375 0l0 8.90625q0 0.1875 -0.140625 0.328125q-0.125 0.140625 -0.328125 0.140625zm-3.3125 -8.515625q-0.1875 0 -0.3125 -0.125q-0.109375 -0.125 -0.109375 -0.296875q0 -0.1875 0.109375 -0.3125q0.125 -0.125 0.3125 -0.125l6.640625 0q0.1875 0 0.3125 0.125q0.125 0.125 0.125 0.3125q0 0.171875 -0.125 0.296875q-0.125 0.125 -0.3125 0.125l-6.640625 0zm8.865067 8.515625q-0.203125 0 -0.34375 -0.125q-0.125 -0.125 -0.125 -0.34375l0 -5.625q0 -0.21875 0.125 -0.34375q0.140625 -0.125 0.34375 -0.125q0.203125 0 0.328125 0.125q0.140625 0.125 0.140625 0.34375l0 5.625q0 0.21875 -0.140625 0.34375q-0.125 0.125 -0.328125 0.125zm0.046875 -7.8125q-0.265625 0 -0.46875 -0.1875q-0.1875 -0.203125 -0.1875 -0.46875q0 -0.296875 0.203125 -0.46875q0.203125 -0.1875 0.453125 -0.1875q0.265625 0 0.453125 0.1875q0.203125 0.171875 0.203125 0.46875q0 0.265625 -0.203125 0.46875q-0.1875 0.1875 -0.453125 0.1875zm11.639893 7.8125q-0.203125 0 -0.34375 -0.125q-0.125 -0.125 -0.125 -0.328125l0 -3.453125q0 -0.859375 -0.453125 -1.359375q-0.4375 -0.5 -1.140625 -0.5q-0.734375 0 -1.21875 0.5q-0.46875 0.5 -0.453125 1.328125l-0.828125 0q0.015625 -0.796875 0.34375 -1.40625q0.34375 -0.625 0.921875 -0.953125q0.59375 -0.34375 1.328125 -0.34375q0.71875 0 1.265625 0.34375q0.546875 0.328125 0.84375 0.953125q0.3125 0.609375 0.3125 1.4375l0 3.453125q0 0.203125 -0.125 0.328125q-0.125 0.125 -0.328125 0.125zm-8.40625 0q-0.21875 0 -0.34375 -0.125q-0.125 -0.125 -0.125 -0.328125l0 -5.640625q0 -0.203125 0.125 -0.328125q0.125 -0.140625 0.34375 -0.140625q0.203125 0 0.328125 0.140625q0.125 0.125 0.125 0.328125l0 5.640625q0 0.203125 -0.125 0.328125q-0.125 0.125 -0.328125 0.125zm4.21875 0q-0.203125 0 -0.34375 -0.125q-0.125 -0.125 -0.125 -0.328125l0 -3.453125q0 -0.859375 -0.453125 -1.359375q-0.4375 -0.5 -1.140625 -0.5q-0.734375 0 -1.21875 0.5q-0.484375 0.484375 -0.484375 1.25l-0.65625 0q0.03125 -0.765625 0.34375 -1.359375q0.3125 -0.59375 0.859375 -0.921875q0.5625 -0.34375 1.25 -0.34375q0.71875 0 1.265625 0.34375q0.546875 0.328125 0.84375 0.953125q0.3125 0.609375 0.3125 1.4375l0 3.453125q0 0.203125 -0.125 0.328125q-0.125 0.125 -0.328125 0.125zm9.66095 0.0625q-0.984375 0 -1.734375 -0.421875q-0.75 -0.4375 -1.171875 -1.1875q-0.421875 -0.75 -0.421875 -1.734375q0 -0.984375 0.390625 -1.734375q0.40625 -0.75 1.109375 -1.171875q0.71875 -0.4375 1.640625 -0.4375q0.90625 0 1.578125 0.421875q0.6875 0.40625 1.0625 1.140625q0.375 0.734375 0.375 1.671875q0 0.1875 -0.125 0.3125q-0.125 0.109375 -0.3125 0.109375l-5.09375 0l0 -0.78125l5.1875 0l-0.515625 0.375q0.015625 -0.6875 -0.25 -1.234375q-0.265625 -0.5625 -0.75 -0.875q-0.484375 -0.3125 -1.15625 -0.3125q-0.6875 0 -1.203125 0.328125q-0.515625 0.328125 -0.796875 0.890625q-0.28125 0.5625 -0.28125 1.296875q0 0.734375 0.3125 1.296875q0.328125 0.5625 0.875 0.890625q0.5625 0.328125 1.28125 0.328125q0.421875 0 0.859375 -0.140625q0.4375 -0.15625 0.703125 -0.390625q0.140625 -0.109375 0.296875 -0.109375q0.171875 -0.015625 0.296875 0.09375q0.15625 0.140625 0.15625 0.3125q0.015625 0.15625 -0.140625 0.28125q-0.390625 0.328125 -1.0 0.5625q-0.609375 0.21875 -1.171875 0.21875z" fill-rule="nonzero"/></g></svg>