<svg version="1.1" viewBox="0.0 0.0 540.4803149606299 540.0" fill="none" stroke="none" stroke-linecap="square" stroke-miterlimit="10" xmlns:xlink="http://www.w3.org/1999/xlink" xmlns="http://www.w3.org/2000/svg"><clipPath id="p.0"><path d="m0 0l540.4803 0l0 540.0l-540.4803 0l0 -540.0z" clip-rule="nonzero"/></clipPath><g clip-path="url(#p.0)"><path fill="#ffffff" d="m0 0l540.4803 0l0 540.0l-540.4803 0z" fill-rule="evenodd"/><path fill="#000000" fill-opacity="0.0" d="m54.19685 423.72177l-0.18897629 -325.00787" fill-rule="evenodd"/><path stroke="#281e96" stroke-width="4.0" stroke-linejoin="round" stroke-linecap="butt" d="m54.19685 423.72177l-0.17502213 -301.00787" fill-rule="evenodd"/><path fill="#281e96" stroke="#281e96" stroke-width="4.0" stroke-linecap="butt" d="m60.628757 122.71007l-6.617485 -18.148552l-6.5963707 18.156235z" fill-rule="evenodd"/><path fill="#000000" fill-opacity="0.0" d="m52.52977 423.72266l402.74017 1.4803162" fill-rule="evenodd"/><path stroke="#281e96" stroke-width="4.0" stroke-linejoin="round" stroke-linecap="butt" d="m52.529774 423.72266l378.7403 1.3920898" fill-rule="evenodd"/><path fill="#281e96" stroke="#281e96" stroke-width="4.0" stroke-linecap="butt" d="m431.24582 431.72162l18.176544 -6.540161l-18.12799 -6.673584z" fill-rule="evenodd"/><path fill="#000000" fill-opacity="0.0" d="m81.780846 244.66667l122.20472 0l0 33.10237l-122.20472 0z" fill-rule="evenodd"/><path fill="#4332ff" d="m92.45272 265.18668q-0.203125 0 -0.34375 -0.140625q-0.125 -0.140625 -0.125 -0.328125l0 -8.4375q0 -0.203125 0.125 -0.32814026q0.140625 -0.140625 0.34375 -0.140625q0.28125 0 0.421875 0.25001526l4.03125 8.03125l-0.40625 0l3.984375 -8.03125q0.140625 -0.25001526 0.40625 -0.25001526q0.203125 0 0.328125 0.140625q0.140625 0.12501526 0.140625 0.32814026l0 8.4375q0 0.1875 -0.140625 0.328125q-0.125 0.140625 -0.328125 0.140625q-0.203125 0 -0.34375 -0.140625q-0.125 -0.140625 -0.125 -0.328125l0 -7.21875l0.203125 0l-3.546875 7.25q-0.125 0.21875 -0.40625 0.21875q-0.296875 0 -0.4375 -0.28125l-3.5625 -7.125l0.25 -0.0625l0 7.21875q0 0.1875 -0.140625 0.328125q-0.140625 0.140625 -0.328125 0.140625zm11.834579 0q-0.203125 0 -0.34375 -0.125q-0.125 -0.125 -0.125 -0.34375l0 -5.625q0 -0.21875 0.125 -0.34375q0.140625 -0.125 0.34375 -0.125q0.203125 0 0.328125 0.125q0.140625 0.125 0.140625 0.34375l0 5.625q0 0.21875 -0.140625 0.34375q-0.125 0.125 -0.328125 0.125zm0.046875 -7.8125q-0.265625 0 -0.46875 -0.1875q-0.1875 -0.203125 -0.1875 -0.46875q0 -0.296875 0.203125 -0.46875q0.203125 -0.1875 0.453125 -0.1875q0.265625 0 0.453125 0.1875q0.203125 0.171875 0.203125 0.46875q0 0.265625 -0.203125 0.46875q-0.1875 0.1875 -0.453125 0.1875zm8.389893 7.8125q-0.203125 0 -0.34375 -0.125q-0.125 -0.140625 -0.125 -0.328125l0 -3.125q0 -0.734375 -0.28125 -1.21875q-0.28125 -0.484375 -0.765625 -0.71875q-0.484375 -0.25 -1.09375 -0.25q-0.59375 0 -1.0625 0.234375q-0.46875 0.234375 -0.75 0.625q-0.28125 0.390625 -0.28125 0.890625l-0.65625 0q0.03125 -0.75 0.40625 -1.34375q0.390625 -0.59375 1.015625 -0.9375q0.640625 -0.34375 1.421875 -0.34375q0.859375 0 1.53125 0.359375q0.671875 0.359375 1.046875 1.046875q0.390625 0.671875 0.390625 1.65625l0 3.125q0 0.1875 -0.125 0.328125q-0.125 0.125 -0.328125 0.125zm-5.15625 0q-0.21875 0 -0.34375 -0.125q-0.125 -0.125 -0.125 -0.328125l0 -5.640625q0 -0.21875 0.125 -0.34375q0.125 -0.125 0.34375 -0.125q0.203125 0 0.328125 0.125q0.125 0.125 0.125 0.34375l0 5.640625q0 0.203125 -0.125 0.328125q-0.125 0.125 -0.328125 0.125zm8.311554 0q-0.203125 0 -0.34375 -0.125q-0.125 -0.125 -0.125 -0.34375l0 -5.625q0 -0.21875 0.125 -0.34375q0.140625 -0.125 0.34375 -0.125q0.203125 0 0.328125 0.125q0.140625 0.125 0.140625 0.34375l0 5.625q0 0.21875 -0.140625 0.34375q-0.125 0.125 -0.328125 0.125zm0.046875 -7.8125q-0.265625 0 -0.46875 -0.1875q-0.1875 -0.203125 -0.1875 -0.46875q0 -0.296875 0.203125 -0.46875q0.203125 -0.1875 0.453125 -0.1875q0.265625 0 0.453125 0.1875q0.203125 0.171875 0.203125 0.46875q0 0.265625 -0.203125 0.46875q-0.1875 0.1875 -0.453125 0.1875zm11.639893 7.8125q-0.203125 0 -0.34375 -0.125q-0.125 -0.125 -0.125 -0.328125l0 -3.453125q0 -0.859375 -0.453125 -1.359375q-0.4375 -0.5 -1.140625 -0.5q-0.734375 0 -1.21875 0.5q-0.46875 0.5 -0.453125 1.328125l-0.828125 0q0.015625 -0.796875 0.34375 -1.40625q0.34375 -0.625 0.921875 -0.953125q0.59375 -0.34375 1.328125 -0.34375q0.71875 0 1.265625 0.34375q0.546875 0.328125 0.84375 0.953125q0.31249237 0.609375 0.31249237 1.4375l0 3.453125q0 0.203125 -0.12499237 0.328125q-0.125 0.125 -0.328125 0.125zm-8.40625 0q-0.21875 0 -0.34375 -0.125q-0.125 -0.125 -0.125 -0.328125l0 -5.640625q0 -0.203125 0.125 -0.328125q0.125 -0.140625 0.34375 -0.140625q0.203125 0 0.328125 0.140625q0.125 0.125 0.125 0.328125l0 5.640625q0 0.203125 -0.125 0.328125q-0.125 0.125 -0.328125 0.125zm4.21875 0q-0.203125 0 -0.34375 -0.125q-0.125 -0.125 -0.125 -0.328125l0 -3.453125q0 -0.859375 -0.453125 -1.359375q-0.4375 -0.5 -1.140625 -0.5q-0.734375 0 -1.21875 0.5q-0.484375 0.484375 -0.484375 1.25l-0.65625 0q0.03125 -0.765625 0.34375 -1.359375q0.3125 -0.59375 0.859375 -0.921875q0.5625 -0.34375 1.25 -0.34375q0.71875 0 1.265625 0.34375q0.546875 0.328125 0.84375 0.953125q0.3125 0.609375 0.3125 1.4375l0 3.453125q0 0.203125 -0.125 0.328125q-0.125 0.125 -0.328125 0.125zm9.535942 0.078125q-0.859375 0 -1.53125 -0.359375q-0.671875 -0.359375 -1.0625 -1.03125q-0.390625 -0.6875 -0.390625 -1.671875l0 -3.125q0 -0.1875 0.125 -0.3125q0.140625 -0.140625 0.34375 -0.140625q0.203125 0 0.328125 0.140625q0.140625 0.125 0.140625 0.3125l0 3.125q0 0.734375 0.28125 1.21875q0.28125 0.484375 0.765625 0.734375q0.484375 0.234375 1.09375 0.234375q0.59375 0 1.0625 -0.234375q0.46875 -0.234375 0.75 -0.625q0.28125 -0.390625 0.28125 -0.90625l0.65625 0q-0.03125 0.765625 -0.421875 1.359375q-0.375 0.59375 -1.015625 0.9375q-0.625 0.34375 -1.40625 0.34375zm2.640625 -0.078125q-0.203125 0 -0.328125 -0.125q-0.125 -0.125 -0.125 -0.34375l0 -5.640625q0 -0.203125 0.125 -0.328125q0.125 -0.125 0.328125 -0.125q0.203125 0 0.328125 0.125q0.140625 0.125 0.140625 0.328125l0 5.640625q0 0.21875 -0.140625 0.34375q-0.125 0.125 -0.328125 0.125zm11.499054 0q-0.203125 0 -0.34375 -0.125q-0.125 -0.125 -0.125 -0.328125l0 -3.453125q0 -0.859375 -0.453125 -1.359375q-0.4375 -0.5 -1.140625 -0.5q-0.734375 0 -1.21875 0.5q-0.46875 0.5 -0.453125 1.328125l-0.828125 0q0.015625 -0.796875 0.34375 -1.40625q0.34375 -0.625 0.921875 -0.953125q0.59375 -0.34375 1.328125 -0.34375q0.71875 0 1.265625 0.34375q0.546875 0.328125 0.84375 0.953125q0.3125 0.609375 0.3125 1.4375l0 3.453125q0 0.203125 -0.125 0.328125q-0.125 0.125 -0.328125 0.125zm-8.40625 0q-0.21875 0 -0.34375 -0.125q-0.125 -0.125 -0.125 -0.328125l0 -5.640625q0 -0.203125 0.125 -0.328125q0.125 -0.140625 0.34375 -0.140625q0.203125 0 0.328125 0.140625q0.125 0.125 0.125 0.328125l0 5.640625q0 0.203125 -0.125 0.328125q-0.125 0.125 -0.328125 0.125zm4.21875 0q-0.203125 0 -0.34375 -0.125q-0.125 -0.125 -0.125 -0.328125l0 -3.453125q0 -0.859375 -0.453125 -1.359375q-0.4375 -0.5 -1.140625 -0.5q-0.734375 0 -1.21875 0.5q-0.484375 0.484375 -0.484375 1.25l-0.65625 0q0.03125 -0.765625 0.34375 -1.359375q0.3125 -0.59375 0.859375 -0.921875q0.5625 -0.34375 1.25 -0.34375q0.71875 0 1.265625 0.34375q0.546875 0.328125 0.84375 0.953125q0.3125 0.609375 0.3125 1.4375l0 3.453125q0 0.203125 -0.125 0.328125q-0.125 0.125 -0.328125 0.125zm13.176971 0.0625q-0.953125 0 -1.71875 -0.421875q-0.75 -0.4375 -1.1875 -1.1875q-0.421875 -0.765625 -0.421875 -1.734375q0 -0.96875 0.421875 -1.71875q0.4375 -0.765625 1.1875 -1.1875q0.765625 -0.4375 1.71875 -0.4375q0.96875 0 1.71875 0.4375q0.75 0.421875 1.171875 1.1875q0.4375 0.75 0.453125 1.71875q0 0.96875 -0.4375 1.734375q-0.4375 0.75 -1.1875 1.1875q-0.75 0.421875 -1.71875 0.421875zm0 -0.84375q0.703125 0 1.25 -0.3125q0.5625 -0.328125 0.859375 -0.890625q0.3125 -0.578125 0.3125 -1.296875q0 -0.71875 -0.3125 -1.28125q-0.296875 -0.578125 -0.859375 -0.890625q-0.546875 -0.328125 -1.25 -0.328125q-0.6875 0 -1.25 0.328125q-0.546875 0.3125 -0.875 0.890625q-0.3125 0.5625 -0.3125 1.28125q0 0.71875 0.3125 1.296875q0.328125 0.5625 0.875 0.890625q0.5625 0.3125 1.25 0.3125zm7.999054 0.859375q-0.859375 0 -1.53125 -0.359375q-0.671875 -0.359375 -1.0625 -1.03125q-0.390625 -0.6875 -0.390625 -1.671875l0 -3.125q0 -0.1875 0.125 -0.3125q0.140625 -0.140625 0.34375 -0.140625q0.203125 0 0.328125 0.140625q0.140625 0.125 0.140625 0.3125l0 3.125q0 0.734375 0.28125 1.21875q0.28125 0.484375 0.765625 0.734375q0.484375 0.234375 1.09375 0.234375q0.59375 0 1.0625 -0.234375q0.46875 -0.234375 0.75 -0.625q0.28125 -0.390625 0.28125 -0.90625l0.65625 0q-0.03125 0.765625 -0.421875 1.359375q-0.375 0.59375 -1.015625 0.9375q-0.625 0.34375 -1.40625 0.34375zm2.640625 -0.078125q-0.203125 0 -0.328125 -0.125q-0.125 -0.125 -0.125 -0.34375l0 -5.640625q0 -0.203125 0.125 -0.328125q0.125 -0.125 0.328125 -0.125q0.203125 0 0.328125 0.125q0.140625 0.125 0.140625 0.328125l0 5.640625q0 0.21875 -0.140625 0.34375q-0.125 0.125 -0.328125 0.125zm5.186554 0q-0.625 0 -1.125 -0.296875q-0.5 -0.296875 -0.796875 -0.8125q-0.28125 -0.53125 -0.28125 -1.203125l0 -5.875q0 -0.203125 0.125 -0.328125q0.125 -0.140625 0.328125 -0.140625q0.203125 0 0.328125 0.140625q0.140625 0.125 0.140625 0.328125l0 5.875q0 0.609375 0.359375 1.0q0.359375 0.390625 0.921875 0.390625l0.328125 0q0.1875 0 0.3125 0.140625q0.125 0.125 0.125 0.328125q0 0.203125 -0.15625 0.328125q-0.140625 0.125 -0.34375 0.125l-0.265625 0zm-2.984375 -5.515625q-0.171875 0 -0.296875 -0.109375q-0.125 -0.125 -0.125 -0.296875q0 -0.171875 0.125 -0.28125q0.125 -0.125 0.296875 -0.125l3.0625 0q0.1875 0 0.296875 0.125q0.125 0.109375 0.125 0.28125q0 0.171875 -0.125 0.296875q-0.109375 0.109375 -0.296875 0.109375l-3.0625 0zm5.7146606 8.328125q-0.21875 0 -0.34375 -0.125q-0.125 -0.125 -0.125 -0.34375l0 -5.671875q0.015625 -0.9375 0.453125 -1.6875q0.4375 -0.75 1.1875 -1.171875q0.75 -0.4375 1.6875 -0.4375q0.953125 0 1.703125 0.4375q0.765625 0.4375 1.203125 1.203125q0.4375 0.75 0.4375 1.703125q0 0.953125 -0.421875 1.71875q-0.421875 0.75 -1.15625 1.1875q-0.734375 0.4375 -1.65625 0.4375q-0.8125 0 -1.46875 -0.34375q-0.640625 -0.34375 -1.046875 -0.90625l0 3.53125q0 0.21875 -0.125 0.34375q-0.125 0.125 -0.328125 0.125zm2.859375 -3.59375q0.6875 0 1.234375 -0.3125q0.5625 -0.328125 0.875 -0.890625q0.328125 -0.578125 0.328125 -1.296875q0 -0.71875 -0.328125 -1.28125q-0.3125 -0.5625 -0.875 -0.890625q-0.546875 -0.328125 -1.234375 -0.328125q-0.6875 0 -1.25 0.328125q-0.546875 0.328125 -0.859375 0.890625q-0.3125 0.5625 -0.3125 1.28125q0 0.71875 0.3125 1.296875q0.3125 0.5625 0.859375 0.890625q0.5625 0.3125 1.25 0.3125zm8.015305 0.859375q-0.859375 0 -1.53125 -0.359375q-0.671875 -0.359375 -1.0625 -1.03125q-0.390625 -0.6875 -0.390625 -1.671875l0 -3.125q0 -0.1875 0.125 -0.3125q0.140625 -0.140625 0.34375 -0.140625q0.203125 0 0.328125 0.140625q0.140625 0.125 0.140625 0.3125l0 3.125q0 0.734375 0.28125 1.21875q0.28125 0.484375 0.765625 0.734375q0.484375 0.234375 1.09375 0.234375q0.59375 0 1.0625 -0.234375q0.46875 -0.234375 0.75 -0.625q0.28125 -0.390625 0.28125 -0.90625l0.65625 0q-0.03125 0.765625 -0.421875 1.359375q-0.375 0.59375 -1.015625 0.9375q-0.625 0.34375 -1.40625 0.34375zm2.640625 -0.078125q-0.203125 0 -0.328125 -0.125q-0.125 -0.125 -0.125 -0.34375l0 -5.640625q0 -0.203125 0.125 -0.328125q0.125 -0.125 0.328125 -0.125q0.203125 0 0.328125 0.125q0.140625 0.125 0.140625 0.328125l0 5.640625q0 0.21875 -0.140625 0.34375q-0.125 0.125 -0.328125 0.125zm5.186554 0q-0.625 0 -1.125 -0.296875q-0.5 -0.296875 -0.796875 -0.8125q-0.28125 -0.53125 -0.28125 -1.203125l0 -5.875q0 -0.203125 0.125 -0.328125q0.125 -0.140625 0.328125 -0.140625q0.203125 0 0.328125 0.140625q0.140625 0.125 0.140625 0.328125l0 5.875q0 0.609375 0.359375 1.0q0.359375 0.390625 0.921875 0.390625l0.328125 0q0.1875 0 0.3125 0.140625q0.125 0.125 0.125 0.328125q0 0.203125 -0.15625 0.328125q-0.140625 0.125 -0.34375 0.125l-0.265625 0zm-2.984375 -5.515625q-0.171875 0 -0.296875 -0.109375q-0.125 -0.125 -0.125 -0.296875q0 -0.171875 0.125 -0.28125q0.125 -0.125 0.296875 -0.125l3.0625 0q0.1875 0 0.296875 0.125q0.125 0.109375 0.125 0.28125q0 0.171875 -0.125 0.296875q-0.109375 0.109375 -0.296875 0.109375l-3.0625 0z" fill-rule="nonzero"/><path fill="#4332ff" d="m92.67147 279.18668q-0.171875 0 -0.3125 -0.125q-0.125 -0.125 -0.125 -0.34375l0 -6.078125q0 -0.84375 0.28125 -1.46875q0.296875 -0.640625 0.859375 -1.0q0.5625 -0.359375 1.375 -0.359375q0.203125 0 0.328125 0.125q0.140625 0.125 0.140625 0.296875q0 0.1875 -0.140625 0.3125q-0.125 0.109375 -0.328125 0.109375q-0.53125 0 -0.890625 0.25q-0.359375 0.234375 -0.53125 0.6875q-0.171875 0.4375 -0.171875 1.0l0 6.125q0 0.21875 -0.125 0.34375q-0.125 0.125 -0.359375 0.125zm-1.203125 -5.515625q-0.203125 0 -0.3125 -0.109375q-0.109375 -0.125 -0.109375 -0.296875q0 -0.171875 0.109375 -0.28125q0.109375 -0.125 0.3125 -0.125l3.125 0q0.203125 0 0.3125 0.125q0.109375 0.109375 0.109375 0.28125q0 0.171875 -0.109375 0.296875q-0.109375 0.109375 -0.3125 0.109375l-3.125 0zm7.5270233 5.578125q-0.953125 0 -1.71875 -0.421875q-0.75 -0.4375 -1.1875 -1.1875q-0.421875 -0.765625 -0.421875 -1.734375q0 -0.96875 0.421875 -1.71875q0.4375 -0.765625 1.1875 -1.1875q0.765625 -0.4375 1.71875 -0.4375q0.96875 0 1.71875 0.4375q0.75 0.421875 1.171875 1.1875q0.4375 0.75 0.453125 1.71875q0 0.96875 -0.4375 1.734375q-0.4375 0.75 -1.1875 1.1875q-0.75 0.421875 -1.71875 0.421875zm0 -0.84375q0.703125 0 1.25 -0.3125q0.5625 -0.328125 0.859375 -0.890625q0.3125 -0.578125 0.3125 -1.296875q0 -0.71875 -0.3125 -1.28125q-0.296875 -0.578125 -0.859375 -0.890625q-0.546875 -0.328125 -1.25 -0.328125q-0.6875 0 -1.25 0.328125q-0.546875 0.3125 -0.875 0.890625q-0.3125 0.5625 -0.3125 1.28125q0 0.71875 0.3125 1.296875q0.328125 0.5625 0.875 0.890625q0.5625 0.3125 1.25 0.3125zm5.530304 -3.265625q0.03125 -0.734375 0.375 -1.328125q0.359375 -0.59375 0.921875 -0.921875q0.578125 -0.34375 1.28125 -0.34375q0.546875 0 0.84375 0.15625q0.3125 0.15625 0.234375 0.453125q-0.046875 0.1875 -0.171875 0.25q-0.109375 0.0625 -0.265625 0.046875q-0.15625 -0.015625 -0.375 -0.03125q-0.671875 -0.046875 -1.1875 0.15625q-0.515625 0.1875 -0.828125 0.59375q-0.3125 0.40625 -0.3125 0.96875l-0.515625 0zm0.0625 4.046875q-0.21875 0 -0.34375 -0.109375q-0.109375 -0.125 -0.109375 -0.34375l0 -5.65625q0 -0.21875 0.109375 -0.328125q0.125 -0.125 0.34375 -0.125q0.21875 0 0.328125 0.125q0.125 0.109375 0.125 0.328125l0 5.65625q0 0.21875 -0.125 0.34375q-0.109375 0.109375 -0.328125 0.109375zm11.543304 0.0625q-0.953125 0 -1.71875 -0.421875q-0.75 -0.4375 -1.1875 -1.1875q-0.421875 -0.765625 -0.421875 -1.734375q0 -0.96875 0.421875 -1.71875q0.4375 -0.765625 1.1875 -1.1875q0.765625 -0.4375 1.71875 -0.4375q0.96875 0 1.71875 0.4375q0.75 0.421875 1.171875 1.1875q0.4375 0.75 0.453125 1.71875q0 0.96875 -0.4375 1.734375q-0.4375 0.75 -1.1875 1.1875q-0.75 0.421875 -1.71875 0.421875zm0 -0.84375q0.703125 0 1.25 -0.3125q0.5625 -0.328125 0.859375 -0.890625q0.3125 -0.578125 0.3125 -1.296875q0 -0.71875 -0.3125 -1.28125q-0.296875 -0.578125 -0.859375 -0.890625q-0.546875 -0.328125 -1.25 -0.328125q-0.6875 0 -1.25 0.328125q-0.546875 0.3125 -0.875 0.890625q-0.3125 0.5625 -0.3125 1.28125q0 0.71875 0.3125 1.296875q0.328125 0.5625 0.875 0.890625q0.5625 0.3125 1.25 0.3125zm10.764679 0.78125q-0.203125 0 -0.34375 -0.125q-0.125 -0.140625 -0.125 -0.328125l0 -3.125q0 -0.734375 -0.28125 -1.21875q-0.28125 -0.484375 -0.765625 -0.71875q-0.484375 -0.25 -1.09375 -0.25q-0.59375 0 -1.0625 0.234375q-0.46875 0.234375 -0.75 0.625q-0.28125 0.390625 -0.28125 0.890625l-0.65625 0q0.03125 -0.75 0.40625 -1.34375q0.390625 -0.59375 1.015625 -0.9375q0.640625 -0.34375 1.421875 -0.34375q0.859375 0 1.53125 0.359375q0.671875 0.359375 1.046875 1.046875q0.390625 0.671875 0.390625 1.65625l0 3.125q0 0.1875 -0.125 0.328125q-0.125 0.125 -0.328125 0.125zm-5.15625 0q-0.21875 0 -0.34375 -0.125q-0.125 -0.125 -0.125 -0.328125l0 -5.640625q0 -0.21875 0.125 -0.34375q0.125 -0.125 0.34375 -0.125q0.203125 0 0.328125 0.125q0.125 0.125 0.125 0.34375l0 5.640625q0 0.203125 -0.125 0.328125q-0.125 0.125 -0.328125 0.125zm10.545921 0.0625q-0.9375 0 -1.671875 -0.421875q-0.734375 -0.4375 -1.15625 -1.1875q-0.40625 -0.75 -0.40625 -1.734375q0 -0.984375 0.421875 -1.734375q0.4375 -0.75 1.1875 -1.171875q0.765625 -0.4375 1.71875 -0.4375q0.984375 0 1.734375 0.4375q0.75 0.421875 1.171875 1.171875q0.421875 0.75 0.4375 1.734375l-0.546875 0.296875q0 0.890625 -0.375 1.578125q-0.359375 0.6875 -1.015625 1.078125q-0.65625 0.390625 -1.5 0.390625zm0.125 2.53125q-0.953125 0 -1.671875 -0.359375q-0.71875 -0.34375 -1.1875 -0.96875q-0.125 -0.140625 -0.109375 -0.3125q0.015625 -0.15625 0.171875 -0.265625q0.15625 -0.109375 0.34375 -0.078125q0.203125 0.03125 0.296875 0.1875q0.359375 0.421875 0.90625 0.6875q0.546875 0.265625 1.265625 0.265625q0.671875 0 1.203125 -0.328125q0.546875 -0.3125 0.859375 -0.90625q0.3125 -0.59375 0.3125 -1.375l0 -1.828125l0.359375 -0.703125l0.5625 0.109375l0 2.453125q0 0.96875 -0.4375 1.734375q-0.421875 0.78125 -1.171875 1.234375q-0.75 0.453125 -1.703125 0.453125zm-0.03125 -3.375q0.71875 0 1.265625 -0.3125q0.546875 -0.328125 0.84375 -0.890625q0.3125 -0.5625 0.3125 -1.296875q0 -0.734375 -0.3125 -1.296875q-0.296875 -0.5625 -0.84375 -0.875q-0.546875 -0.328125 -1.265625 -0.328125q-0.703125 0 -1.265625 0.328125q-0.546875 0.3125 -0.859375 0.875q-0.3125 0.5625 -0.3125 1.296875q0 0.734375 0.3125 1.296875q0.3125 0.5625 0.859375 0.890625q0.5625 0.3125 1.265625 0.3125zm8.124054 0.84375q-0.953125 0 -1.71875 -0.421875q-0.75 -0.4375 -1.1875 -1.1875q-0.421875 -0.765625 -0.421875 -1.734375q0 -0.96875 0.421875 -1.71875q0.4375 -0.765625 1.1875 -1.1875q0.765625 -0.4375 1.71875 -0.4375q0.96875 0 1.71875 0.4375q0.75 0.421875 1.171875 1.1875q0.4375 0.75 0.453125 1.71875q0 0.96875 -0.4375 1.734375q-0.4375 0.75 -1.1875 1.1875q-0.75 0.421875 -1.71875 0.421875zm0 -0.84375q0.703125 0 1.25 -0.3125q0.5625 -0.328125 0.859375 -0.890625q0.3125 -0.578125 0.3125 -1.296875q0 -0.71875 -0.3125 -1.28125q-0.296875 -0.578125 -0.859375 -0.890625q-0.546875 -0.328125 -1.25 -0.328125q-0.6875 0 -1.25 0.328125q-0.546875 0.3125 -0.875 0.890625q-0.3125 0.5625 -0.3125 1.28125q0 0.71875 0.3125 1.296875q0.328125 0.5625 0.875 0.890625q0.5625 0.3125 1.25 0.3125zm5.795929 0.78125q-0.203125 0 -0.34375 -0.125q-0.125 -0.125 -0.125 -0.34375l0 -5.625q0 -0.21875 0.125 -0.34375q0.140625 -0.125 0.34375 -0.125q0.203125 0 0.328125 0.125q0.140625 0.125 0.140625 0.34375l0 5.625q0 0.21875 -0.140625 0.34375q-0.125 0.125 -0.328125 0.125zm0.046875 -7.8125q-0.265625 0 -0.46875 -0.1875q-0.1875 -0.203125 -0.1875 -0.46875q0 -0.296875 0.203125 -0.46875q0.203125 -0.1875 0.453125 -0.1875q0.265625 0 0.453125 0.1875q0.203125 0.171875 0.203125 0.46875q0 0.265625 -0.203125 0.46875q-0.1875 0.1875 -0.453125 0.1875zm8.389893 7.8125q-0.203125 0 -0.34375 -0.125q-0.125 -0.140625 -0.125 -0.328125l0 -3.125q0 -0.734375 -0.28125 -1.21875q-0.28125 -0.484375 -0.765625 -0.71875q-0.484375 -0.25 -1.09375 -0.25q-0.59375 0 -1.0625 0.234375q-0.46875 0.234375 -0.75 0.625q-0.28125 0.390625 -0.28125 0.890625l-0.65625 0q0.03125 -0.75 0.40625 -1.34375q0.390625 -0.59375 1.015625 -0.9375q0.640625 -0.34375 1.421875 -0.34375q0.859375 0 1.53125 0.359375q0.671875 0.359375 1.046875 1.046875q0.390625 0.671875 0.390625 1.65625l0 3.125q0 0.1875 -0.125 0.328125q-0.125 0.125 -0.328125 0.125zm-5.15625 0q-0.21875 0 -0.34375 -0.125q-0.125 -0.125 -0.125 -0.328125l0 -5.640625q0 -0.21875 0.125 -0.34375q0.125 -0.125 0.34375 -0.125q0.203125 0 0.328125 0.125q0.125 0.125 0.125 0.34375l0 5.640625q0 0.203125 -0.125 0.328125q-0.125 0.125 -0.328125 0.125zm10.545929 0.0625q-0.9375 0 -1.671875 -0.421875q-0.734375 -0.4375 -1.15625 -1.1875q-0.40625 -0.75 -0.40625 -1.734375q0 -0.984375 0.421875 -1.734375q0.4375 -0.75 1.1875 -1.171875q0.765625 -0.4375 1.71875 -0.4375q0.984375 0 1.734375 0.4375q0.75 0.421875 1.171875 1.171875q0.421875 0.75 0.4375 1.734375l-0.546875 0.296875q0 0.890625 -0.375 1.578125q-0.359375 0.6875 -1.015625 1.078125q-0.65625 0.390625 -1.5 0.390625zm0.125 2.53125q-0.953125 0 -1.671875 -0.359375q-0.71875 -0.34375 -1.1875 -0.96875q-0.125 -0.140625 -0.109375 -0.3125q0.015625 -0.15625 0.171875 -0.265625q0.15625 -0.109375 0.34375 -0.078125q0.203125 0.03125 0.296875 0.1875q0.359375 0.421875 0.90625 0.6875q0.546875 0.265625 1.265625 0.265625q0.671875 0 1.203125 -0.328125q0.546875 -0.3125 0.859375 -0.90625q0.3125 -0.59375 0.3125 -1.375l0 -1.828125l0.359375 -0.703125l0.5625 0.109375l0 2.453125q0 0.96875 -0.4375 1.734375q-0.421875 0.78125 -1.171875 1.234375q-0.75 0.453125 -1.703125 0.453125zm-0.03125 -3.375q0.71875 0 1.265625 -0.3125q0.546875 -0.328125 0.84375 -0.890625q0.3125 -0.5625 0.3125 -1.296875q0 -0.734375 -0.3125 -1.296875q-0.296875 -0.5625 -0.84375 -0.875q-0.546875 -0.328125 -1.265625 -0.328125q-0.703125 0 -1.265625 0.328125q-0.546875 0.3125 -0.859375 0.875q-0.3125 0.5625 -0.3125 1.296875q0 0.734375 0.3125 1.296875q0.3125 0.5625 0.859375 0.890625q0.5625 0.3125 1.265625 0.3125z" fill-rule="nonzero"/><path fill="#4332ff" d="m94.843346 293.24918q-0.984375 0 -1.734375 -0.421875q-0.75 -0.4375 -1.171875 -1.1875q-0.421875 -0.75 -0.421875 -1.734375q0 -0.984375 0.390625 -1.734375q0.40625 -0.75 1.109375 -1.171875q0.71875 -0.4375 1.640625 -0.4375q0.90625 0 1.578125 0.421875q0.6875 0.40625 1.0625 1.140625q0.375 0.734375 0.375 1.671875q0 0.1875 -0.125 0.3125q-0.125 0.109375 -0.3125 0.109375l-5.09375 0l0 -0.78125l5.1875 0l-0.515625 0.375q0.015625 -0.6875 -0.25 -1.234375q-0.265625 -0.5625 -0.75 -0.875q-0.484375 -0.3125 -1.15625 -0.3125q-0.6875 0 -1.203125 0.328125q-0.515625 0.328125 -0.796875 0.890625q-0.28125 0.5625 -0.28125 1.296875q0 0.734375 0.3125 1.296875q0.328125 0.5625 0.875 0.890625q0.5625 0.328125 1.28125 0.328125q0.421875 0 0.859375 -0.140625q0.4375 -0.15625 0.703125 -0.390625q0.140625 -0.109375 0.296875 -0.109375q0.171875 -0.015625 0.296875 0.09375q0.15625 0.140625 0.15625 0.3125q0.015625 0.15625 -0.140625 0.28125q-0.390625 0.328125 -1.0 0.5625q-0.609375 0.21875 -1.171875 0.21875zm10.008682 -0.0625q-0.203125 0 -0.34375 -0.125q-0.125 -0.140625 -0.125 -0.328125l0 -3.125q0 -0.734375 -0.28125 -1.21875q-0.28125 -0.484375 -0.765625 -0.71875q-0.484375 -0.25 -1.09375 -0.25q-0.59375 0 -1.0625 0.234375q-0.46875 0.234375 -0.75 0.625q-0.28125 0.390625 -0.28125 0.890625l-0.65625 0q0.03125 -0.75 0.40625 -1.34375q0.390625 -0.59375 1.015625 -0.9375q0.640625 -0.34375 1.421875 -0.34375q0.859375 0 1.53125 0.359375q0.671875 0.359375 1.046875 1.046875q0.390625 0.671875 0.390625 1.65625l0 3.125q0 0.1875 -0.125 0.328125q-0.125 0.125 -0.328125 0.125zm-5.15625 0q-0.21875 0 -0.34375 -0.125q-0.125 -0.125 -0.125 -0.328125l0 -5.640625q0 -0.21875 0.125 -0.34375q0.125 -0.125 0.34375 -0.125q0.203125 0 0.328125 0.125q0.125 0.125 0.125 0.34375l0 5.640625q0 0.203125 -0.125 0.328125q-0.125 0.125 -0.328125 0.125zm10.545929 0.0625q-0.9375 0 -1.671875 -0.421875q-0.734375 -0.4375 -1.15625 -1.1875q-0.40625 -0.75 -0.40625 -1.734375q0 -0.984375 0.421875 -1.734375q0.4375 -0.75 1.1875 -1.171875q0.765625 -0.4375 1.71875 -0.4375q0.984375 0 1.734375 0.4375q0.75 0.421875 1.171875 1.171875q0.421875 0.75 0.4375 1.734375l-0.546875 0.296875q0 0.890625 -0.375 1.578125q-0.359375 0.6875 -1.015625 1.078125q-0.65625 0.390625 -1.5 0.390625zm0.125 2.53125q-0.953125 0 -1.671875 -0.359375q-0.71875 -0.34375 -1.1875 -0.96875q-0.125 -0.140625 -0.109375 -0.3125q0.015625 -0.15625 0.171875 -0.265625q0.15625 -0.109375 0.34375 -0.078125q0.203125 0.03125 0.296875 0.1875q0.359375 0.421875 0.90625 0.6875q0.546875 0.265625 1.265625 0.265625q0.671875 0 1.203125 -0.328125q0.546875 -0.3125 0.859375 -0.90625q0.3125 -0.59375 0.3125 -1.375l0 -1.828125l0.359375 -0.703125l0.5625 0.109375l0 2.453125q0 0.96875 -0.4375 1.734375q-0.421875 0.78125 -1.171875 1.234375q-0.75 0.453125 -1.703125 0.453125zm-0.03125 -3.375q0.71875 0 1.265625 -0.3125q0.546875 -0.328125 0.84375 -0.890625q0.3125 -0.5625 0.3125 -1.296875q0 -0.734375 -0.3125 -1.296875q-0.296875 -0.5625 -0.84375 -0.875q-0.546875 -0.328125 -1.265625 -0.328125q-0.703125 0 -1.265625 0.328125q-0.546875 0.3125 -0.859375 0.875q-0.3125 0.5625 -0.3125 1.296875q0 0.734375 0.3125 1.296875q0.3125 0.5625 0.859375 0.890625q0.5625 0.3125 1.265625 0.3125zm8.030304 0.84375q-0.921875 0 -1.65625 -0.4375q-0.734375 -0.4375 -1.15625 -1.1875q-0.421875 -0.765625 -0.421875 -1.71875q0 -0.953125 0.4375 -1.703125q0.4375 -0.765625 1.1875 -1.203125q0.765625 -0.4375 1.703125 -0.4375q0.953125 0 1.703125 0.4375q0.75 0.4375 1.1875 1.203125q0.4375 0.75 0.453125 1.703125l-0.375 0.296875q0 0.859375 -0.40625 1.546875q-0.390625 0.6875 -1.09375 1.09375q-0.6875 0.40625 -1.5625 0.40625zm0.09375 -0.84375q0.703125 0 1.25 -0.3125q0.546875 -0.328125 0.859375 -0.890625q0.3125 -0.578125 0.3125 -1.296875q0 -0.71875 -0.3125 -1.28125q-0.3125 -0.5625 -0.859375 -0.890625q-0.546875 -0.328125 -1.25 -0.328125q-0.671875 0 -1.234375 0.328125q-0.546875 0.328125 -0.875 0.890625q-0.328125 0.5625 -0.328125 1.28125q0 0.71875 0.328125 1.296875q0.328125 0.5625 0.875 0.890625q0.5625 0.3125 1.234375 0.3125zm2.875 0.78125q-0.203125 0 -0.34375 -0.125q-0.125 -0.125 -0.125 -0.328125l0 -2.0625l0.234375 -0.9375l0.703125 0.171875l0 2.828125q0 0.203125 -0.140625 0.328125q-0.125 0.125 -0.328125 0.125zm5.155304 0.0625q-0.9375 0 -1.671875 -0.421875q-0.734375 -0.4375 -1.15625 -1.1875q-0.40625 -0.75 -0.40625 -1.734375q0 -0.984375 0.421875 -1.734375q0.4375 -0.75 1.1875 -1.171875q0.765625 -0.4375 1.71875 -0.4375q0.984375 0 1.7343674 0.4375q0.75 0.421875 1.171875 1.171875q0.421875 0.75 0.4375 1.734375l-0.546875 0.296875q0 0.890625 -0.375 1.578125q-0.359375 0.6875 -1.0156174 1.078125q-0.65625 0.390625 -1.5 0.390625zm0.125 2.53125q-0.953125 0 -1.671875 -0.359375q-0.71875 -0.34375 -1.1875 -0.96875q-0.125 -0.140625 -0.109375 -0.3125q0.015625 -0.15625 0.171875 -0.265625q0.15625 -0.109375 0.34375 -0.078125q0.203125 0.03125 0.296875 0.1875q0.359375 0.421875 0.90625 0.6875q0.546875 0.265625 1.265625 0.265625q0.671875 0 1.203125 -0.328125q0.5468674 -0.3125 0.8593674 -0.90625q0.3125 -0.59375 0.3125 -1.375l0 -1.828125l0.359375 -0.703125l0.5625 0.109375l0 2.453125q0 0.96875 -0.4375 1.734375q-0.421875 0.78125 -1.171875 1.234375q-0.7499924 0.453125 -1.7031174 0.453125zm-0.03125 -3.375q0.71875 0 1.265625 -0.3125q0.5468674 -0.328125 0.8437424 -0.890625q0.3125 -0.5625 0.3125 -1.296875q0 -0.734375 -0.3125 -1.296875q-0.296875 -0.5625 -0.8437424 -0.875q-0.546875 -0.328125 -1.265625 -0.328125q-0.703125 0 -1.265625 0.328125q-0.546875 0.3125 -0.859375 0.875q-0.3125 0.5625 -0.3125 1.296875q0 0.734375 0.3125 1.296875q0.3125 0.5625 0.859375 0.890625q0.5625 0.3125 1.265625 0.3125zm8.124046 0.84375q-0.984375 0 -1.734375 -0.421875q-0.75 -0.4375 -1.171875 -1.1875q-0.421875 -0.75 -0.421875 -1.734375q0 -0.984375 0.390625 -1.734375q0.40625 -0.75 1.109375 -1.171875q0.71875 -0.4375 1.640625 -0.4375q0.90625 0 1.578125 0.421875q0.6875 0.40625 1.0625 1.140625q0.375 0.734375 0.375 1.671875q0 0.1875 -0.125 0.3125q-0.125 0.109375 -0.3125 0.109375l-5.09375 0l0 -0.78125l5.1875 0l-0.515625 0.375q0.015625 -0.6875 -0.25 -1.234375q-0.265625 -0.5625 -0.75 -0.875q-0.484375 -0.3125 -1.15625 -0.3125q-0.6875 0 -1.203125 0.328125q-0.515625 0.328125 -0.796875 0.890625q-0.28125 0.5625 -0.28125 1.296875q0 0.734375 0.3125 1.296875q0.328125 0.5625 0.875 0.890625q0.5625 0.328125 1.28125 0.328125q0.421875 0 0.859375 -0.140625q0.4375 -0.15625 0.703125 -0.390625q0.140625 -0.109375 0.296875 -0.109375q0.171875 -0.015625 0.296875 0.09375q0.15625 0.140625 0.15625 0.3125q0.015625 0.15625 -0.140625 0.28125q-0.390625 0.328125 -1.0 0.5625q-0.609375 0.21875 -1.171875 0.21875zm13.258682 -0.0625q-0.203125 0 -0.34375 -0.125q-0.125 -0.125 -0.125 -0.328125l0 -3.453125q0 -0.859375 -0.453125 -1.359375q-0.4375 -0.5 -1.140625 -0.5q-0.734375 0 -1.21875 0.5q-0.46875 0.5 -0.453125 1.328125l-0.828125 0q0.015625 -0.796875 0.34375 -1.40625q0.34375 -0.625 0.921875 -0.953125q0.59375 -0.34375 1.328125 -0.34375q0.71875 0 1.265625 0.34375q0.546875 0.328125 0.84375 0.953125q0.3125 0.609375 0.3125 1.4375l0 3.453125q0 0.203125 -0.125 0.328125q-0.125 0.125 -0.328125 0.125zm-8.40625 0q-0.21875 0 -0.34375 -0.125q-0.125 -0.125 -0.125 -0.328125l0 -5.640625q0 -0.203125 0.125 -0.328125q0.125 -0.140625 0.34375 -0.140625q0.203125 0 0.328125 0.140625q0.125 0.125 0.125 0.328125l0 5.640625q0 0.203125 -0.125 0.328125q-0.125 0.125 -0.328125 0.125zm4.21875 0q-0.203125 0 -0.34375 -0.125q-0.125 -0.125 -0.125 -0.328125l0 -3.453125q0 -0.859375 -0.453125 -1.359375q-0.4375 -0.5 -1.140625 -0.5q-0.734375 0 -1.21875 0.5q-0.484375 0.484375 -0.484375 1.25l-0.65625 0q0.03125 -0.765625 0.34375 -1.359375q0.3125 -0.59375 0.859375 -0.921875q0.5625 -0.34375 1.25 -0.34375q0.71875 0 1.265625 0.34375q0.546875 0.328125 0.84375 0.953125q0.3125 0.609375 0.3125 1.4375l0 3.453125q0 0.203125 -0.125 0.328125q-0.125 0.125 -0.328125 0.125zm9.66095 0.0625q-0.984375 0 -1.734375 -0.421875q-0.75 -0.4375 -1.171875 -1.1875q-0.421875 -0.75 -0.421875 -1.734375q0 -0.984375 0.390625 -1.734375q0.40625 -0.75 1.109375 -1.171875q0.71875 -0.4375 1.640625 -0.4375q0.90625 0 1.578125 0.421875q0.6875 0.40625 1.0625 1.140625q0.375 0.734375 0.375 1.671875q0 0.1875 -0.125 0.3125q-0.125 0.109375 -0.3125 0.109375l-5.09375 0l0 -0.78125l5.1875 0l-0.515625 0.375q0.015625 -0.6875 -0.25 -1.234375q-0.265625 -0.5625 -0.75 -0.875q-0.484375 -0.3125 -1.15625 -0.3125q-0.6875 0 -1.203125 0.328125q-0.515625 0.328125 -0.796875 0.890625q-0.28125 0.5625 -0.28125 1.296875q0 0.734375 0.3125 1.296875q0.328125 0.5625 0.875 0.890625q0.5625 0.328125 1.28125 0.328125q0.421875 0 0.859375 -0.140625q0.4375 -0.15625 0.703125 -0.390625q0.140625 -0.109375 0.296875 -0.109375q0.171875 -0.015625 0.296875 0.09375q0.15625 0.140625 0.15625 0.3125q0.015625 0.15625 -0.140625 0.28125q-0.390625 0.328125 -1.0 0.5625q-0.609375 0.21875 -1.171875 0.21875zm10.008682 -0.0625q-0.203125 0 -0.34375 -0.125q-0.125 -0.140625 -0.125 -0.328125l0 -3.125q0 -0.734375 -0.28125 -1.21875q-0.28125 -0.484375 -0.765625 -0.71875q-0.484375 -0.25 -1.09375 -0.25q-0.59375 0 -1.0625 0.234375q-0.46875 0.234375 -0.75 0.625q-0.28125 0.390625 -0.28125 0.890625l-0.65625 0q0.03125 -0.75 0.40625 -1.34375q0.390625 -0.59375 1.015625 -0.9375q0.640625 -0.34375 1.421875 -0.34375q0.859375 0 1.53125 0.359375q0.671875 0.359375 1.046875 1.046875q0.390625 0.671875 0.390625 1.65625l0 3.125q0 0.1875 -0.125 0.328125q-0.125 0.125 -0.328125 0.125zm-5.15625 0q-0.21875 0 -0.34375 -0.125q-0.125 -0.125 -0.125 -0.328125l0 -5.640625q0 -0.21875 0.125 -0.34375q0.125 -0.125 0.34375 -0.125q0.203125 0 0.328125 0.125q0.125 0.125 0.125 0.34375l0 5.640625q0 0.203125 -0.125 0.328125q-0.125 0.125 -0.328125 0.125zm10.217804 0q-0.625 0 -1.125 -0.296875q-0.5 -0.296875 -0.796875 -0.8125q-0.28125 -0.53125 -0.28125 -1.203125l0 -5.875q0 -0.203125 0.125 -0.328125q0.125 -0.140625 0.328125 -0.140625q0.203125 0 0.328125 0.140625q0.140625 0.125 0.140625 0.328125l0 5.875q0 0.609375 0.359375 1.0q0.359375 0.390625 0.921875 0.390625l0.328125 0q0.1875 0 0.3125 0.140625q0.125 0.125 0.125 0.328125q0 0.203125 -0.15625 0.328125q-0.140625 0.125 -0.34375 0.125l-0.265625 0zm-2.984375 -5.515625q-0.171875 0 -0.296875 -0.109375q-0.125 -0.125 -0.125 -0.296875q0 -0.171875 0.125 -0.28125q0.125 -0.125 0.296875 -0.125l3.0625 0q0.1875 0 0.296875 0.125q0.125 0.109375 0.125 0.28125q0 0.171875 -0.125 0.296875q-0.109375 0.109375 -0.296875 0.109375l-3.0625 0zm8.605682 6.453125q-0.25 0 -0.390625 -0.203125q-0.140625 -0.1875 -0.03125 -0.453125l3.765625 -9.40625q0.046875 -0.125 0.171875 -0.1875q0.125 -0.078125 0.265625 -0.078125q0.265625 0 0.375 0.21875q0.125 0.203125 0.046875 0.4375l-3.765625 9.40625q-0.0625 0.140625 -0.1875 0.203125q-0.109375 0.0625 -0.25 0.0625z" fill-rule="nonzero"/><path fill="#4332ff" d="m94.843346 307.24918q-0.984375 0 -1.734375 -0.421875q-0.75 -0.4375 -1.171875 -1.1875q-0.421875 -0.75 -0.421875 -1.734375q0 -0.984375 0.390625 -1.734375q0.40625 -0.75 1.109375 -1.171875q0.71875 -0.4375 1.640625 -0.4375q0.90625 0 1.578125 0.421875q0.6875 0.40625 1.0625 1.140625q0.375 0.734375 0.375 1.671875q0 0.1875 -0.125 0.3125q-0.125 0.109375 -0.3125 0.109375l-5.09375 0l0 -0.78125l5.1875 0l-0.515625 0.375q0.015625 -0.6875 -0.25 -1.234375q-0.265625 -0.5625 -0.75 -0.875q-0.484375 -0.3125 -1.15625 -0.3125q-0.6875 0 -1.203125 0.328125q-0.515625 0.328125 -0.796875 0.890625q-0.28125 0.5625 -0.28125 1.296875q0 0.734375 0.3125 1.296875q0.328125 0.5625 0.875 0.890625q0.5625 0.328125 1.28125 0.328125q0.421875 0 0.859375 -0.140625q0.4375 -0.15625 0.703125 -0.390625q0.140625 -0.109375 0.296875 -0.109375q0.171875 -0.015625 0.296875 0.09375q0.15625 0.140625 0.15625 0.3125q0.015625 0.15625 -0.140625 0.28125q-0.390625 0.328125 -1.0 0.5625q-0.609375 0.21875 -1.171875 0.21875zm13.258682 -0.0625q-0.203125 0 -0.34375 -0.125q-0.125 -0.125 -0.125 -0.328125l0 -3.453125q0 -0.859375 -0.453125 -1.359375q-0.4375 -0.5 -1.140625 -0.5q-0.734375 0 -1.21875 0.5q-0.46875 0.5 -0.453125 1.328125l-0.828125 0q0.015625 -0.796875 0.34375 -1.40625q0.34375 -0.625 0.921875 -0.953125q0.59375 -0.34375 1.328125 -0.34375q0.71875 0 1.265625 0.34375q0.546875 0.328125 0.84375 0.953125q0.3125 0.609375 0.3125 1.4375l0 3.453125q0 0.203125 -0.125 0.328125q-0.125 0.125 -0.328125 0.125zm-8.40625 0q-0.21875 0 -0.34375 -0.125q-0.125 -0.125 -0.125 -0.328125l0 -5.640625q0 -0.203125 0.125 -0.328125q0.125 -0.140625 0.34375 -0.140625q0.203125 0 0.328125 0.140625q0.125 0.125 0.125 0.328125l0 5.640625q0 0.203125 -0.125 0.328125q-0.125 0.125 -0.328125 0.125zm4.21875 0q-0.203125 0 -0.34375 -0.125q-0.125 -0.125 -0.125 -0.328125l0 -3.453125q0 -0.859375 -0.453125 -1.359375q-0.4375 -0.5 -1.140625 -0.5q-0.734375 0 -1.21875 0.5q-0.484375 0.484375 -0.484375 1.25l-0.65625 0q0.03125 -0.765625 0.34375 -1.359375q0.3125 -0.59375 0.859375 -0.921875q0.5625 -0.34375 1.25 -0.34375q0.71875 0 1.265625 0.34375q0.546875 0.328125 0.84375 0.953125q0.3125 0.609375 0.3125 1.4375l0 3.453125q0 0.203125 -0.125 0.328125q-0.125 0.125 -0.328125 0.125zm7.1453247 2.8125q-0.21875 0 -0.34375 -0.125q-0.125 -0.125 -0.125 -0.34375l0 -5.671875q0.015625 -0.9375 0.453125 -1.6875q0.4375 -0.75 1.1875 -1.171875q0.75 -0.4375 1.6875 -0.4375q0.953125 0 1.703125 0.4375q0.765625 0.4375 1.203125 1.203125q0.4375 0.75 0.4375 1.703125q0 0.953125 -0.421875 1.71875q-0.421875 0.75 -1.15625 1.1875q-0.734375 0.4375 -1.65625 0.4375q-0.8125 0 -1.46875 -0.34375q-0.640625 -0.34375 -1.046875 -0.90625l0 3.53125q0 0.21875 -0.125 0.34375q-0.125 0.125 -0.328125 0.125zm2.859375 -3.59375q0.6875 0 1.234375 -0.3125q0.5625 -0.328125 0.875 -0.890625q0.328125 -0.578125 0.328125 -1.296875q0 -0.71875 -0.328125 -1.28125q-0.3125 -0.5625 -0.875 -0.890625q-0.546875 -0.328125 -1.234375 -0.328125q-0.6875 0 -1.25 0.328125q-0.546875 0.328125 -0.859375 0.890625q-0.3125 0.5625 -0.3125 1.28125q0 0.71875 0.3125 1.296875q0.3125 0.5625 0.859375 0.890625q0.5625 0.3125 1.25 0.3125zm6.5778046 0.78125q-0.484375 0 -0.859375 -0.265625q-0.375 -0.265625 -0.59375 -0.734375q-0.203125 -0.46875 -0.203125 -1.078125l0 -6.84375q0 -0.203125 0.125 -0.328125q0.125 -0.125 0.328125 -0.125q0.203125 0 0.328125 0.125q0.125 0.125 0.125 0.328125l0 6.84375q0 0.515625 0.203125 0.84375q0.21875 0.328125 0.546875 0.328125l0.296875 0q0.171875 0 0.28125 0.125q0.109375 0.125 0.109375 0.328125q0 0.203125 -0.15625 0.328125q-0.140625 0.125 -0.375 0.125l-0.15625 0zm4.5865173 0.0625q-0.953125 0 -1.71875 -0.421875q-0.75 -0.4375 -1.1875 -1.1875q-0.421875 -0.765625 -0.421875 -1.734375q0 -0.96875 0.421875 -1.71875q0.4375 -0.765625 1.1875 -1.1875q0.765625 -0.4375 1.71875 -0.4375q0.96875 0 1.71875 0.4375q0.75 0.421875 1.171875 1.1875q0.43749237 0.75 0.45311737 1.71875q0 0.96875 -0.43749237 1.734375q-0.4375 0.75 -1.1875 1.1875q-0.75 0.421875 -1.71875 0.421875zm0 -0.84375q0.703125 0 1.25 -0.3125q0.5625 -0.328125 0.859375 -0.890625q0.3125 -0.578125 0.3125 -1.296875q0 -0.71875 -0.3125 -1.28125q-0.296875 -0.578125 -0.859375 -0.890625q-0.546875 -0.328125 -1.25 -0.328125q-0.6875 0 -1.25 0.328125q-0.546875 0.3125 -0.875 0.890625q-0.3125 0.5625 -0.3125 1.28125q0 0.71875 0.3125 1.296875q0.328125 0.5625 0.875 0.890625q0.5625 0.3125 1.25 0.3125zm5.9046707 3.640625q-0.09375 0 -0.21875 -0.046875q-0.40625 -0.1875 -0.21875 -0.578125l3.875 -8.546875q0.171875 -0.390625 0.578125 -0.21875q0.40625 0.171875 0.21875 0.5625l-3.875 8.546875q-0.125 0.28125 -0.359375 0.28125zm1.34375 -3.0625q-0.1875 0.078125 -0.34375 0.03125q-0.15625 -0.0625 -0.25 -0.234375l-2.671875 -5.546875q-0.09375 -0.171875 -0.03125 -0.328125q0.0625 -0.15625 0.234375 -0.25q0.1875 -0.078125 0.34375 -0.015625q0.15625 0.046875 0.234375 0.21875l2.640625 5.546875q0.09375 0.1875 0.046875 0.34375q-0.03125 0.15625 -0.203125 0.234375zm12.9823 0.203125q-0.203125 0 -0.34375 -0.125q-0.125 -0.125 -0.125 -0.328125l0 -3.453125q0 -0.859375 -0.453125 -1.359375q-0.4375 -0.5 -1.140625 -0.5q-0.734375 0 -1.21875 0.5q-0.46875 0.5 -0.453125 1.328125l-0.828125 0q0.015625 -0.796875 0.34375 -1.40625q0.34375 -0.625 0.921875 -0.953125q0.59375 -0.34375 1.328125 -0.34375q0.71875 0 1.265625 0.34375q0.546875 0.328125 0.84375 0.953125q0.3125 0.609375 0.3125 1.4375l0 3.453125q0 0.203125 -0.125 0.328125q-0.125 0.125 -0.328125 0.125zm-8.40625 0q-0.21875 0 -0.34375 -0.125q-0.125 -0.125 -0.125 -0.328125l0 -5.640625q0 -0.203125 0.125 -0.328125q0.125 -0.140625 0.34375 -0.140625q0.203125 0 0.328125 0.140625q0.125 0.125 0.125 0.328125l0 5.640625q0 0.203125 -0.125 0.328125q-0.125 0.125 -0.328125 0.125zm4.21875 0q-0.203125 0 -0.34375 -0.125q-0.125 -0.125 -0.125 -0.328125l0 -3.453125q0 -0.859375 -0.453125 -1.359375q-0.4375 -0.5 -1.140625 -0.5q-0.734375 0 -1.21875 0.5q-0.484375 0.484375 -0.484375 1.25l-0.65625 0q0.03125 -0.765625 0.34375 -1.359375q0.3125 -0.59375 0.859375 -0.921875q0.5625 -0.34375 1.25 -0.34375q0.71875 0 1.265625 0.34375q0.546875 0.328125 0.84375 0.953125q0.3125 0.609375 0.3125 1.4375l0 3.453125q0 0.203125 -0.125 0.328125q-0.125 0.125 -0.328125 0.125zm9.66095 0.0625q-0.984375 0 -1.734375 -0.421875q-0.75 -0.4375 -1.171875 -1.1875q-0.421875 -0.75 -0.421875 -1.734375q0 -0.984375 0.390625 -1.734375q0.40625 -0.75 1.109375 -1.171875q0.71875 -0.4375 1.640625 -0.4375q0.90625 0 1.578125 0.421875q0.6875 0.40625 1.0625 1.140625q0.375 0.734375 0.375 1.671875q0 0.1875 -0.125 0.3125q-0.125 0.109375 -0.3125 0.109375l-5.09375 0l0 -0.78125l5.1875 0l-0.515625 0.375q0.015625 -0.6875 -0.25 -1.234375q-0.265625 -0.5625 -0.75 -0.875q-0.484375 -0.3125 -1.15625 -0.3125q-0.6875 0 -1.203125 0.328125q-0.515625 0.328125 -0.796875 0.890625q-0.28125 0.5625 -0.28125 1.296875q0 0.734375 0.3125 1.296875q0.328125 0.5625 0.875 0.890625q0.5625 0.328125 1.28125 0.328125q0.421875 0 0.859375 -0.140625q0.4375 -0.15625 0.703125 -0.390625q0.140625 -0.109375 0.296875 -0.109375q0.171875 -0.015625 0.296875 0.09375q0.15625 0.140625 0.15625 0.3125q0.015625 0.15625 -0.140625 0.28125q-0.390625 0.328125 -1.0 0.5625q-0.609375 0.21875 -1.171875 0.21875zm10.008682 -0.0625q-0.203125 0 -0.34375 -0.125q-0.125 -0.140625 -0.125 -0.328125l0 -3.125q0 -0.734375 -0.28125 -1.21875q-0.28125 -0.484375 -0.765625 -0.71875q-0.484375 -0.25 -1.09375 -0.25q-0.59375 0 -1.0625 0.234375q-0.46875 0.234375 -0.75 0.625q-0.28125 0.390625 -0.28125 0.890625l-0.65625 0q0.03125 -0.75 0.40625 -1.34375q0.390625 -0.59375 1.015625 -0.9375q0.640625 -0.34375 1.421875 -0.34375q0.859375 0 1.53125 0.359375q0.671875 0.359375 1.046875 1.046875q0.390625 0.671875 0.390625 1.65625l0 3.125q0 0.1875 -0.125 0.328125q-0.125 0.125 -0.328125 0.125zm-5.15625 0q-0.21875 0 -0.34375 -0.125q-0.125 -0.125 -0.125 -0.328125l0 -5.640625q0 -0.21875 0.125 -0.34375q0.125 -0.125 0.34375 -0.125q0.203125 0 0.328125 0.125q0.125 0.125 0.125 0.34375l0 5.640625q0 0.203125 -0.125 0.328125q-0.125 0.125 -0.328125 0.125zm10.217804 0q-0.625 0 -1.125 -0.296875q-0.5 -0.296875 -0.796875 -0.8125q-0.28125 -0.53125 -0.28125 -1.203125l0 -5.875q0 -0.203125 0.125 -0.328125q0.125 -0.140625 0.328125 -0.140625q0.203125 0 0.328125 0.140625q0.140625 0.125 0.140625 0.328125l0 5.875q0 0.609375 0.359375 1.0q0.359375 0.390625 0.921875 0.390625l0.328125 0q0.1875 0 0.3125 0.140625q0.125 0.125 0.125 0.328125q0 0.203125 -0.15625 0.328125q-0.140625 0.125 -0.34375 0.125l-0.265625 0zm-2.984375 -5.515625q-0.171875 0 -0.296875 -0.109375q-0.125 -0.125 -0.125 -0.296875q0 -0.171875 0.125 -0.28125q0.125 -0.125 0.296875 -0.125l3.0625 0q0.1875 0 0.296875 0.125q0.125 0.109375 0.125 0.28125q0 0.171875 -0.125 0.296875q-0.109375 0.109375 -0.296875 0.109375l-3.0625 0z" fill-rule="nonzero"/><path fill="#000000" fill-opacity="0.0" d="m25.264822 65.61155l64.566925 0l0 33.102364l-64.566925 0z" fill-rule="evenodd"/><path fill="#281e96" d="m35.9367 86.131546q-0.203125 0 -0.34375 -0.125q-0.125 -0.140625 -0.125 -0.34375l0 -8.4375q0 -0.203125 0.125 -0.328125q0.140625 -0.140625 0.34375 -0.140625l2.234375 0q0.875 0 1.5625 0.375q0.6875 0.359375 1.078125 1.015625q0.390625 0.65625 0.390625 1.5q0 0.828125 -0.390625 1.46875q-0.390625 0.625 -1.078125 0.984375q-0.6875 0.359375 -1.5625 0.359375l-1.765625 0l0 3.203125q0 0.203125 -0.140625 0.34375q-0.125 0.125 -0.328125 0.125zm5.015625 0q-0.15625 0 -0.25 -0.0625q-0.09375 -0.0625 -0.15625 -0.171875l-2.3125 -3.671875l0.9375 -0.25l2.15625 3.4375q0.171875 0.28125 0.0625 0.5q-0.109375 0.21875 -0.4375 0.21875zm-4.546875 -4.578125l1.765625 0q0.625 0 1.09375 -0.234375q0.46875 -0.25 0.75 -0.671875q0.28125 -0.4375 0.28125 -1.0q0 -0.578125 -0.28125 -1.03125q-0.28125 -0.453125 -0.75 -0.703125q-0.46875 -0.25 -1.09375 -0.25l-1.765625 0l0 3.890625zm9.337921 4.640625q-0.984375 0 -1.734375 -0.421875q-0.75 -0.4375 -1.171875 -1.1875q-0.421875 -0.75 -0.421875 -1.734375q0 -0.984375 0.390625 -1.734375q0.40625 -0.75 1.109375 -1.171875q0.71875 -0.4375 1.640625 -0.4375q0.90625 0 1.578125 0.421875q0.6875 0.40625 1.0625 1.140625q0.375 0.734375 0.375 1.671875q0 0.1875 -0.125 0.3125q-0.125 0.109375 -0.3125 0.109375l-5.09375 0l0 -0.78125l5.1875 0l-0.515625 0.375q0.015625 -0.6875 -0.25 -1.234375q-0.265625 -0.5625 -0.75 -0.875q-0.484375 -0.3125 -1.15625 -0.3125q-0.6875 0 -1.203125 0.328125q-0.515625 0.328125 -0.796875 0.890625q-0.28125 0.5625 -0.28125 1.296875q0 0.734375 0.3125 1.296875q0.328125 0.5625 0.875 0.890625q0.5625 0.328125 1.28125 0.328125q0.421875 0 0.859375 -0.140625q0.4375 -0.15625 0.703125 -0.390625q0.140625 -0.109375 0.296875 -0.109375q0.171875 -0.015625 0.296875 0.09375q0.15625 0.140625 0.15625 0.3125q0.015625 0.15625 -0.140625 0.28125q-0.390625 0.328125 -1.0 0.5625q-0.609375 0.21875 -1.171875 0.21875zm5.6280518 -0.0625q-0.15625 0 -0.28125 -0.078125q-0.109375 -0.09375 -0.15625 -0.21875l-1.875 -5.625q-0.0625 -0.296875 0.015625 -0.46875q0.078125 -0.171875 0.328125 -0.171875q0.15625 0 0.28125 0.09375q0.125 0.078125 0.1875 0.25l1.65625 5.109375l-0.265625 0l1.5625 -5.09375q0.046875 -0.15625 0.15625 -0.25q0.109375 -0.109375 0.296875 -0.109375q0.171875 0 0.28125 0.09375q0.125 0.09375 0.171875 0.265625l1.46875 4.96875l-0.203125 0l1.640625 -4.984375q0.109375 -0.34375 0.4375 -0.34375q0.265625 0 0.359375 0.203125q0.09375 0.1875 0 0.4375l-1.875 5.625q-0.046875 0.125 -0.15625 0.21875q-0.109375 0.078125 -0.265625 0.078125q-0.15625 0 -0.28125 -0.078125q-0.125 -0.09375 -0.171875 -0.21875l-1.5 -5.015625l0.140625 0l-1.515625 5.015625q-0.046875 0.140625 -0.171875 0.21875q-0.109375 0.078125 -0.265625 0.078125zm10.04631 0.0625q-0.921875 0 -1.65625 -0.4375q-0.734375 -0.4375 -1.15625 -1.1875q-0.421875 -0.765625 -0.421875 -1.71875q0 -0.953125 0.4375 -1.703125q0.4375 -0.765625 1.1875 -1.203125q0.765625 -0.4375 1.703125 -0.4375q0.953125 0 1.703125 0.4375q0.75 0.4375 1.1875 1.203125q0.4375 0.75 0.453125 1.703125l-0.375 0.296875q0 0.859375 -0.40625 1.546875q-0.390625 0.6875 -1.09375 1.09375q-0.6875 0.40625 -1.5625 0.40625zm0.09375 -0.84375q0.703125 0 1.25 -0.3125q0.546875 -0.328125 0.859375 -0.890625q0.3125 -0.578125 0.3125 -1.296875q0 -0.71875 -0.3125 -1.28125q-0.3125 -0.5625 -0.859375 -0.890625q-0.546875 -0.328125 -1.25 -0.328125q-0.671875 0 -1.234375 0.328125q-0.546875 0.328125 -0.875 0.890625q-0.328125 0.5625 -0.328125 1.28125q0 0.71875 0.328125 1.296875q0.328125 0.5625 0.875 0.890625q0.5625 0.3125 1.234375 0.3125zm2.875 0.78125q-0.203125 0 -0.34375 -0.125q-0.125 -0.125 -0.125 -0.328125l0 -2.0625l0.234375 -0.9375l0.703125 0.171875l0 2.828125q0 0.203125 -0.140625 0.328125q-0.125 0.125 -0.328125 0.125zm2.655304 -4.046875q0.03125 -0.734375 0.375 -1.328125q0.359375 -0.59375 0.921875 -0.921875q0.578125 -0.34375 1.28125 -0.34375q0.546875 0 0.84375 0.15625q0.3125 0.15625 0.234375 0.453125q-0.046875 0.1875 -0.171875 0.25q-0.109375 0.0625 -0.265625 0.046875q-0.15625 -0.015625 -0.375 -0.03125q-0.671875 -0.046875 -1.1875 0.15625q-0.515625 0.1875 -0.828125 0.59375q-0.3125 0.40625 -0.3125 0.96875l-0.515625 0zm0.0625 4.046875q-0.21875 0 -0.34375 -0.109375q-0.109375 -0.125 -0.109375 -0.34375l0 -5.65625q0 -0.21875 0.109375 -0.328125q0.125 -0.125 0.34375 -0.125q0.21875 0 0.328125 0.125q0.125 0.109375 0.125 0.328125l0 5.65625q0 0.21875 -0.125 0.34375q-0.109375 0.109375 -0.328125 0.109375zm7.547287 0.0625q-0.9375 0 -1.703125 -0.4375q-0.75 -0.4375 -1.1875 -1.1875q-0.4375 -0.765625 -0.4375 -1.71875q0 -0.953125 0.421875 -1.703125q0.421875 -0.765625 1.15625 -1.203125q0.734375 -0.4375 1.65625 -0.4375q0.8125 0 1.453125 0.34375q0.65625 0.34375 1.046875 0.90625l0 -3.53125q0 -0.21875 0.125 -0.34375q0.140625 -0.125 0.34375 -0.125q0.203125 0 0.328125 0.125q0.140625 0.125 0.140625 0.34375l0 5.671875q-0.03125 0.9375 -0.46875 1.6875q-0.4375 0.75 -1.1875 1.1875q-0.75 0.421875 -1.6875 0.421875zm0 -0.84375q0.703125 0 1.25 -0.328125q0.546875 -0.328125 0.859375 -0.890625q0.3125 -0.5625 0.3125 -1.28125q0 -0.71875 -0.3125 -1.28125q-0.3125 -0.578125 -0.859375 -0.890625q-0.546875 -0.328125 -1.25 -0.328125q-0.671875 0 -1.234375 0.328125q-0.546875 0.3125 -0.875 0.890625q-0.328125 0.5625 -0.328125 1.28125q0 0.71875 0.328125 1.28125q0.328125 0.5625 0.875 0.890625q0.5625 0.328125 1.234375 0.328125z" fill-rule="nonzero"/><path fill="#000000" fill-opacity="0.0" d="m424.0942 437.83466l64.566956 0l0 33.102356l-64.566956 0z" fill-rule="evenodd"/><path fill="#281e96" d="m434.76608 458.35464q-0.203125 0 -0.34375 -0.125q-0.125 -0.140625 -0.125 -0.34375l0 -8.4375q0 -0.203125 0.125 -0.328125q0.140625 -0.140625 0.34375 -0.140625l2.234375 0q0.875 0 1.5625 0.375q0.6875 0.359375 1.078125 1.015625q0.390625 0.65625 0.390625 1.5q0 0.828125 -0.390625 1.46875q-0.390625 0.625 -1.078125 0.984375q-0.6875 0.359375 -1.5625 0.359375l-1.765625 0l0 3.203125q0 0.203125 -0.140625 0.34375q-0.125 0.125 -0.328125 0.125zm5.015625 0q-0.15625 0 -0.25 -0.0625q-0.09375 -0.0625 -0.15625 -0.171875l-2.3125 -3.671875l0.9375 -0.25l2.15625 3.4375q0.171875 0.28125 0.0625 0.5q-0.109375 0.21875 -0.4375 0.21875zm-4.546875 -4.578125l1.765625 0q0.625 0 1.09375 -0.234375q0.46875 -0.25 0.75 -0.671875q0.28125 -0.4375 0.28125 -1.0q0 -0.578125 -0.28125 -1.03125q-0.28125 -0.453125 -0.75 -0.703125q-0.46875 -0.25 -1.09375 -0.25l-1.765625 0l0 3.890625zm7.009796 4.578125q-0.203125 0 -0.34375 -0.125q-0.125 -0.125 -0.125 -0.34375l0 -5.625q0 -0.21875 0.125 -0.34375q0.140625 -0.125 0.34375 -0.125q0.203125 0 0.328125 0.125q0.140625 0.125 0.140625 0.34375l0 5.625q0 0.21875 -0.140625 0.34375q-0.125 0.125 -0.328125 0.125zm0.046875 -7.8125q-0.265625 0 -0.46875 -0.1875q-0.1875 -0.203125 -0.1875 -0.46875q0 -0.296875 0.203125 -0.46875q0.203125 -0.1875 0.453125 -0.1875q0.265625 0 0.453125 0.1875q0.203125 0.171875 0.203125 0.46875q0 0.265625 -0.203125 0.46875q-0.1875 0.1875 -0.453125 0.1875zm5.0617676 7.875q-0.71875 0 -1.421875 -0.234375q-0.6875 -0.25 -1.109375 -0.734375q-0.140625 -0.140625 -0.125 -0.3125q0.03125 -0.1875 0.1875 -0.3125q0.171875 -0.125 0.34375 -0.09375q0.1875 0.015625 0.3125 0.15625q0.28125 0.328125 0.75 0.515625q0.484375 0.171875 1.0625 0.171875q0.890625 0 1.28125 -0.296875q0.390625 -0.3125 0.40625 -0.75q0 -0.421875 -0.40625 -0.703125q-0.40625 -0.28125 -1.34375 -0.4375q-1.21875 -0.203125 -1.78125 -0.671875q-0.5625 -0.484375 -0.5625 -1.140625q0 -0.625 0.328125 -1.03125q0.328125 -0.40625 0.859375 -0.609375q0.546875 -0.203125 1.1875 -0.203125q0.8125 0 1.390625 0.28125q0.578125 0.265625 0.9375 0.734375q0.125 0.15625 0.09375 0.328125q-0.015625 0.171875 -0.1875 0.28125q-0.140625 0.078125 -0.328125 0.046875q-0.1875 -0.03125 -0.3125 -0.171875q-0.3125 -0.34375 -0.703125 -0.5q-0.390625 -0.171875 -0.90625 -0.171875q-0.671875 0 -1.0625 0.28125q-0.390625 0.265625 -0.390625 0.671875q0 0.265625 0.140625 0.484375q0.15625 0.203125 0.515625 0.359375q0.375 0.140625 1.03125 0.25q0.90625 0.15625 1.421875 0.4375q0.53125 0.28125 0.75 0.65625q0.21875 0.375 0.21875 0.8125q0 0.578125 -0.328125 1.0q-0.328125 0.421875 -0.921875 0.671875q-0.578125 0.234375 -1.328125 0.234375zm4.936798 -2.265625l-0.578125 -0.609375l4.109375 -3.703125q0.140625 -0.125 0.296875 -0.125q0.15625 0 0.296875 0.15625q0.125 0.140625 0.109375 0.296875q0 0.15625 -0.140625 0.28125l-4.09375 3.703125zm-0.3125 2.203125q-0.203125 0 -0.328125 -0.125q-0.125 -0.125 -0.125 -0.328125l0 -8.46875q0 -0.203125 0.125 -0.328125q0.125 -0.125 0.328125 -0.125q0.203125 0 0.328125 0.125q0.125 0.125 0.125 0.328125l0 8.46875q0 0.203125 -0.125 0.328125q-0.125 0.125 -0.328125 0.125zm4.4375 -0.0625q-0.15625 0.140625 -0.328125 0.109375q-0.15625 -0.015625 -0.28125 -0.171875l-2.671875 -3.28125l0.65625 -0.578125l2.6875 3.328125q0.125 0.140625 0.109375 0.3125q-0.015625 0.15625 -0.171875 0.28125z" fill-rule="nonzero"/><path fill="#000000" fill-opacity="0.0" d="m87.70079 392.6824c40.66057 -9.52536 190.42549 -17.407684 243.96342 -57.15222c53.537964 -39.744537 64.3869 -151.0958 77.26428 -181.31496" fill-rule="evenodd"/><path stroke="#ff0000" stroke-width="12.0" stroke-linejoin="round" stroke-linecap="butt" d="m87.70079 392.6824c40.66057 -9.52536 190.42549 -17.407684 243.96342 -57.15222c53.537964 -39.744537 64.3869 -151.0958 77.26428 -181.31496" fill-rule="evenodd"/><path fill="#000000" fill-opacity="0.0" d="m89.83138 335.68048l338.83463 0.34646606" fill-rule="evenodd"/><path stroke="#4332ff" stroke-width="3.0" stroke-linejoin="round" stroke-linecap="butt" d="m89.83138 335.68048l338.83463 0.34646606" fill-rule="evenodd"/><path fill="#000000" fill-opacity="0.0" d="m419.78217 155.19948l77.102356 -0.15748596" fill-rule="evenodd"/><path stroke="#6aa84f" stroke-width="3.0" stroke-linejoin="round" stroke-linecap="butt" d="m419.78217 155.19948l77.102356 -0.15748596" fill-rule="evenodd"/><path fill="#000000" fill-opacity="0.0" d="m419.78217 336.16797l77.102356 -0.1574707" fill-rule="evenodd"/><path stroke="#6aa84f" stroke-width="3.0" stroke-linejoin="round" stroke-linecap="butt" d="m419.78217 336.16797l77.102356 -0.1574707" fill-rule="evenodd"/><path fill="#000000" fill-opacity="0.0" d="m456.24146 156.6798l-0.50393677 180.31496" fill-rule="evenodd"/><path stroke="#6aa84f" stroke-width="3.0" stroke-linejoin="round" stroke-linecap="butt" d="m456.24146 156.6798l-0.50393677 180.31496" fill-rule="evenodd"/><path fill="#000000" fill-opacity="0.0" d="m453.01706 217.47507l122.20474 0l0 33.102356l-122.20474 0z" fill-rule="evenodd"/><path fill="#6aa84f" d="m466.95456 238.18257q-1.09375 0 -1.953125 -0.40625q-0.84375 -0.421875 -1.3125 -1.171875q-0.46875 -0.75 -0.46875 -1.703125l0 -5.8125q0 -0.203125 0.125 -0.328125q0.140625 -0.140625 0.34375 -0.140625q0.203125 0 0.328125 0.140625q0.140625 0.125 0.140625 0.328125l0 5.8125q0 0.703125 0.34375 1.25q0.359375 0.53125 0.984375 0.84375q0.640625 0.296875 1.46875 0.296875q0.796875 0 1.421875 -0.296875q0.625 -0.3125 0.96875 -0.84375q0.359375 -0.546875 0.359375 -1.25l0 -5.8125q0 -0.203125 0.125 -0.328125q0.140625 -0.140625 0.34375 -0.140625q0.21875 0 0.34375 0.140625q0.125 0.125 0.125 0.328125l0 5.8125q0 0.953125 -0.46875 1.703125q-0.46875 0.75 -1.3125 1.171875q-0.828125 0.40625 -1.90625 0.40625zm11.593689 -0.1875q-0.203125 0 -0.34375 -0.125q-0.125 -0.140625 -0.125 -0.328125l0 -3.125q0 -0.734375 -0.28125 -1.21875q-0.28125 -0.484375 -0.765625 -0.71875q-0.484375 -0.25 -1.09375 -0.25q-0.59375 0 -1.0625 0.234375q-0.46875 0.234375 -0.75 0.625q-0.28125 0.390625 -0.28125 0.890625l-0.65625 0q0.03125 -0.75 0.40625 -1.34375q0.390625 -0.59375 1.015625 -0.9375q0.640625 -0.34375 1.421875 -0.34375q0.859375 0 1.53125 0.359375q0.671875 0.359375 1.046875 1.046875q0.390625 0.671875 0.390625 1.65625l0 3.125q0 0.1875 -0.125 0.328125q-0.125 0.125 -0.328125 0.125zm-5.15625 0q-0.21875 0 -0.34375 -0.125q-0.125 -0.125 -0.125 -0.328125l0 -5.640625q0 -0.21875 0.125 -0.34375q0.125 -0.125 0.34375 -0.125q0.203125 0 0.328125 0.125q0.125 0.125 0.125 0.34375l0 5.640625q0 0.203125 -0.125 0.328125q-0.125 0.125 -0.328125 0.125zm10.217804 0q-0.625 0 -1.125 -0.296875q-0.5 -0.296875 -0.796875 -0.8125q-0.28125 -0.53125 -0.28125 -1.203125l0 -5.875q0 -0.203125 0.125 -0.328125q0.125 -0.140625 0.328125 -0.140625q0.203125 0 0.328125 0.140625q0.140625 0.125 0.140625 0.328125l0 5.875q0 0.609375 0.359375 1.0q0.359375 0.390625 0.921875 0.390625l0.328125 0q0.1875 0 0.3125 0.140625q0.125 0.125 0.125 0.328125q0 0.203125 -0.15625 0.328125q-0.140625 0.125 -0.34375 0.125l-0.265625 0zm-2.984375 -5.515625q-0.171875 0 -0.296875 -0.109375q-0.125 -0.125 -0.125 -0.296875q0 -0.171875 0.125 -0.28125q0.125 -0.125 0.296875 -0.125l3.0625 0q0.1875 0 0.296875 0.125q0.125 0.109375 0.125 0.28125q0 0.171875 -0.125 0.296875q-0.109375 0.109375 -0.296875 0.109375l-3.0625 0zm8.136536 5.578125q-0.921875 0 -1.65625 -0.4375q-0.734375 -0.4375 -1.15625 -1.1875q-0.421875 -0.765625 -0.421875 -1.71875q0 -0.953125 0.4375 -1.703125q0.4375 -0.765625 1.1875 -1.203125q0.765625 -0.4375 1.703125 -0.4375q0.953125 0 1.703125 0.4375q0.75 0.4375 1.1875 1.203125q0.4375 0.75 0.453125 1.703125l-0.375 0.296875q0 0.859375 -0.40625 1.546875q-0.390625 0.6875 -1.09375 1.09375q-0.6875 0.40625 -1.5625 0.40625zm0.09375 -0.84375q0.703125 0 1.25 -0.3125q0.546875 -0.328125 0.859375 -0.890625q0.3125 -0.578125 0.3125 -1.296875q0 -0.71875 -0.3125 -1.28125q-0.3125 -0.5625 -0.859375 -0.890625q-0.546875 -0.328125 -1.25 -0.328125q-0.671875 0 -1.234375 0.328125q-0.546875 0.328125 -0.875 0.890625q-0.328125 0.5625 -0.328125 1.28125q0 0.71875 0.328125 1.296875q0.328125 0.5625 0.875 0.890625q0.5625 0.3125 1.234375 0.3125zm2.875 0.78125q-0.203125 0 -0.34375 -0.125q-0.125 -0.125 -0.125 -0.328125l0 -2.0625l0.234375 -0.9375l0.703125 0.171875l0 2.828125q0 0.203125 -0.140625 0.328125q-0.125 0.125 -0.328125 0.125zm2.733429 2.8125q-0.21875 0 -0.34375 -0.125q-0.125 -0.125 -0.125 -0.34375l0 -5.671875q0.015625 -0.9375 0.453125 -1.6875q0.4375 -0.75 1.1875 -1.171875q0.75 -0.4375 1.6875 -0.4375q0.953125 0 1.703125 0.4375q0.765625 0.4375 1.203125 1.203125q0.4375 0.75 0.4375 1.703125q0 0.953125 -0.421875 1.71875q-0.421875 0.75 -1.15625 1.1875q-0.734375 0.4375 -1.65625 0.4375q-0.8125 0 -1.46875 -0.34375q-0.640625 -0.34375 -1.046875 -0.90625l0 3.53125q0 0.21875 -0.125 0.34375q-0.125 0.125 -0.328125 0.125zm2.859375 -3.59375q0.6875 0 1.234375 -0.3125q0.5625 -0.328125 0.875 -0.890625q0.328125 -0.578125 0.328125 -1.296875q0 -0.71875 -0.328125 -1.28125q-0.3125 -0.5625 -0.875 -0.890625q-0.546875 -0.328125 -1.234375 -0.328125q-0.6875 0 -1.25 0.328125q-0.546875 0.328125 -0.859375 0.890625q-0.3125 0.5625 -0.3125 1.28125q0 0.71875 0.3125 1.296875q0.3125 0.5625 0.859375 0.890625q0.5625 0.3125 1.25 0.3125zm5.624695 3.59375q-0.21875 0 -0.34375 -0.125q-0.125 -0.125 -0.125 -0.34375l0 -5.671875q0.015625 -0.9375 0.453125 -1.6875q0.4375 -0.75 1.1875 -1.171875q0.75 -0.4375 1.6875 -0.4375q0.953125 0 1.703125 0.4375q0.765625 0.4375 1.203125 1.203125q0.4375 0.75 0.4375 1.703125q0 0.953125 -0.421875 1.71875q-0.421875 0.75 -1.15625 1.1875q-0.734375 0.4375 -1.65625 0.4375q-0.8125 0 -1.46875 -0.34375q-0.640625 -0.34375 -1.046875 -0.90625l0 3.53125q0 0.21875 -0.125 0.34375q-0.125 0.125 -0.328125 0.125zm2.859375 -3.59375q0.6875 0 1.234375 -0.3125q0.5625 -0.328125 0.875 -0.890625q0.328125 -0.578125 0.328125 -1.296875q0 -0.71875 -0.328125 -1.28125q-0.3125 -0.5625 -0.875 -0.890625q-0.546875 -0.328125 -1.234375 -0.328125q-0.6875 0 -1.25 0.328125q-0.546875 0.328125 -0.859375 0.890625q-0.3125 0.5625 -0.3125 1.28125q0 0.71875 0.3125 1.296875q0.3125 0.5625 0.859375 0.890625q0.5625 0.3125 1.25 0.3125zm8.140289 0.84375q-0.984375 0 -1.734375 -0.421875q-0.75 -0.4375 -1.171875 -1.1875q-0.421875 -0.75 -0.421875 -1.734375q0 -0.984375 0.390625 -1.734375q0.40625 -0.75 1.109375 -1.171875q0.71875 -0.4375 1.640625 -0.4375q0.90625 0 1.578125 0.421875q0.6875 0.40625 1.0625 1.140625q0.375 0.734375 0.375 1.671875q0 0.1875 -0.125 0.3125q-0.125 0.109375 -0.3125 0.109375l-5.09375 0l0 -0.78125l5.1875 0l-0.515625 0.375q0.015625 -0.6875 -0.25 -1.234375q-0.265625 -0.5625 -0.75 -0.875q-0.484375 -0.3125 -1.15625 -0.3125q-0.6875 0 -1.203125 0.328125q-0.515625 0.328125 -0.796875 0.890625q-0.28125 0.5625 -0.28125 1.296875q0 0.734375 0.3125 1.296875q0.328125 0.5625 0.875 0.890625q0.5625 0.328125 1.28125 0.328125q0.421875 0 0.859375 -0.140625q0.4375 -0.15625 0.703125 -0.390625q0.140625 -0.109375 0.296875 -0.109375q0.171875 -0.015625 0.296875 0.09375q0.15625 0.140625 0.15625 0.3125q0.015625 0.15625 -0.140625 0.28125q-0.390625 0.328125 -1.0 0.5625q-0.609375 0.21875 -1.171875 0.21875zm7.1280518 0q-0.9375 0 -1.703125 -0.4375q-0.75 -0.4375 -1.1875 -1.1875q-0.4375 -0.765625 -0.4375 -1.71875q0 -0.953125 0.421875 -1.703125q0.421875 -0.765625 1.15625 -1.203125q0.734375 -0.4375 1.65625 -0.4375q0.8125 0 1.453125 0.34375q0.65625 0.34375 1.046875 0.90625l0 -3.53125q0 -0.21875 0.125 -0.34375q0.140625 -0.125 0.34375 -0.125q0.203125 0 0.328125 0.125q0.140625 0.125 0.140625 0.34375l0 5.671875q-0.03125 0.9375 -0.46875 1.6875q-0.4375 0.75 -1.1875 1.1875q-0.75 0.421875 -1.6875 0.421875zm0 -0.84375q0.703125 0 1.25 -0.328125q0.546875 -0.328125 0.859375 -0.890625q0.3125 -0.5625 0.3125 -1.28125q0 -0.71875 -0.3125 -1.28125q-0.3125 -0.578125 -0.859375 -0.890625q-0.546875 -0.328125 -1.25 -0.328125q-0.671875 0 -1.234375 0.328125q-0.546875 0.3125 -0.875 0.890625q-0.328125 0.5625 -0.328125 1.28125q0 0.71875 0.328125 1.28125q0.328125 0.5625 0.875 0.890625q0.5625 0.328125 1.234375 0.328125z" fill-rule="nonzero"/><path fill="#6aa84f" d="m466.4233 252.05757q-0.9375 0 -1.6875 -0.421875q-0.75 -0.4375 -1.1875 -1.1875q-0.4375 -0.75 -0.453125 -1.6875l0 -5.671875q0 -0.21875 0.125 -0.34375q0.125 -0.125 0.34375 -0.125q0.203125 0 0.328125 0.125q0.125 0.125 0.125 0.34375l0 3.53125q0.40625 -0.5625 1.046875 -0.90625q0.65625 -0.34375 1.46875 -0.34375q0.921875 0 1.65625 0.4375q0.734375 0.4375 1.15625 1.203125q0.421875 0.75 0.421875 1.703125q0 0.953125 -0.4375 1.71875q-0.4375 0.75 -1.203125 1.1875q-0.75 0.4375 -1.703125 0.4375zm0 -0.84375q0.6875 0 1.234375 -0.328125q0.5625 -0.328125 0.875 -0.890625q0.328125 -0.5625 0.328125 -1.28125q0 -0.71875 -0.328125 -1.28125q-0.3125 -0.578125 -0.875 -0.890625q-0.546875 -0.328125 -1.234375 -0.328125q-0.6875 0 -1.25 0.328125q-0.546875 0.3125 -0.859375 0.890625q-0.3125 0.5625 -0.3125 1.28125q0 0.71875 0.3125 1.28125q0.3125 0.5625 0.859375 0.890625q0.5625 0.328125 1.25 0.328125zm8.14032 0.84375q-0.984375 0 -1.734375 -0.421875q-0.75 -0.4375 -1.171875 -1.1875q-0.421875 -0.75 -0.421875 -1.734375q0 -0.984375 0.390625 -1.734375q0.40625 -0.75 1.109375 -1.171875q0.71875 -0.4375 1.640625 -0.4375q0.90625 0 1.578125 0.421875q0.6875 0.40625 1.0625 1.140625q0.375 0.734375 0.375 1.671875q0 0.1875 -0.125 0.3125q-0.125 0.109375 -0.3125 0.109375l-5.09375 0l0 -0.78125l5.1875 0l-0.515625 0.375q0.015625 -0.6875 -0.25 -1.234375q-0.265625 -0.5625 -0.75 -0.875q-0.484375 -0.3125 -1.15625 -0.3125q-0.6875 0 -1.203125 0.328125q-0.515625 0.328125 -0.796875 0.890625q-0.28125 0.5625 -0.28125 1.296875q0 0.734375 0.3125 1.296875q0.328125 0.5625 0.875 0.890625q0.5625 0.328125 1.28125 0.328125q0.421875 0 0.859375 -0.140625q0.4375 -0.15625 0.703125 -0.390625q0.140625 -0.109375 0.296875 -0.109375q0.171875 -0.015625 0.296875 0.09375q0.15625 0.140625 0.15625 0.3125q0.015625 0.15625 -0.140625 0.28125q-0.390625 0.328125 -1.0 0.5625q-0.609375 0.21875 -1.171875 0.21875zm10.008667 -0.0625q-0.203125 0 -0.34375 -0.125q-0.125 -0.140625 -0.125 -0.328125l0 -3.125q0 -0.734375 -0.28125 -1.21875q-0.28125 -0.484375 -0.765625 -0.71875q-0.484375 -0.25 -1.09375 -0.25q-0.59375 0 -1.0625 0.234375q-0.46875 0.234375 -0.75 0.625q-0.28125 0.390625 -0.28125 0.890625l-0.65625 0q0.03125 -0.75 0.40625 -1.34375q0.390625 -0.59375 1.015625 -0.9375q0.640625 -0.34375 1.421875 -0.34375q0.859375 0 1.53125 0.359375q0.671875 0.359375 1.046875 1.046875q0.390625 0.671875 0.390625 1.65625l0 3.125q0 0.1875 -0.125 0.328125q-0.125 0.125 -0.328125 0.125zm-5.15625 0q-0.21875 0 -0.34375 -0.125q-0.125 -0.125 -0.125 -0.328125l0 -5.640625q0 -0.21875 0.125 -0.34375q0.125 -0.125 0.34375 -0.125q0.203125 0 0.328125 0.125q0.125 0.125 0.125 0.34375l0 5.640625q0 0.203125 -0.125 0.328125q-0.125 0.125 -0.328125 0.125zm10.639679 0.0625q-0.984375 0 -1.734375 -0.421875q-0.75 -0.4375 -1.171875 -1.1875q-0.421875 -0.75 -0.421875 -1.734375q0 -0.984375 0.390625 -1.734375q0.40625 -0.75 1.109375 -1.171875q0.71875 -0.4375 1.640625 -0.4375q0.90625 0 1.578125 0.421875q0.6875 0.40625 1.0625 1.140625q0.375 0.734375 0.375 1.671875q0 0.1875 -0.125 0.3125q-0.125 0.109375 -0.3125 0.109375l-5.09375 0l0 -0.78125l5.1875 0l-0.515625 0.375q0.015625 -0.6875 -0.25 -1.234375q-0.265625 -0.5625 -0.75 -0.875q-0.484375 -0.3125 -1.15625 -0.3125q-0.6875 0 -1.203125 0.328125q-0.515625 0.328125 -0.796875 0.890625q-0.28125 0.5625 -0.28125 1.296875q0 0.734375 0.3125 1.296875q0.328125 0.5625 0.875 0.890625q0.5625 0.328125 1.28125 0.328125q0.421875 0 0.859375 -0.140625q0.4375 -0.15625 0.703125 -0.390625q0.140625 -0.109375 0.296875 -0.109375q0.171875 -0.015625 0.296875 0.09375q0.15625 0.140625 0.15625 0.3125q0.015625 0.15625 -0.140625 0.28125q-0.390625 0.328125 -1.0 0.5625q-0.609375 0.21875 -1.171875 0.21875zm5.2118225 -0.0625q-0.1875 0 -0.328125 -0.125q-0.125 -0.140625 -0.125 -0.34375l0 -6.15625q0 -0.796875 0.28125 -1.421875q0.28125 -0.625 0.90625 -0.984375q0.625 -0.375 1.671875 -0.375q0.46875 0 0.90625 0.109375q0.4375 0.109375 0.703125 0.3125q0.265625 0.1875 0.265625 0.46875q0 0.53125 -0.578125 0.53125q-0.203125 0 -0.375 -0.109375q-0.171875 -0.109375 -0.34375 -0.234375q-0.171875 -0.140625 -0.375 -0.234375q-0.203125 -0.109375 -0.5 -0.109375q-0.46875 0 -0.84375 0.1875q-0.375 0.1875 -0.59375 0.640625q-0.203125 0.453125 -0.203125 1.21875l0 6.15625q0 0.203125 -0.140625 0.34375q-0.125 0.125 -0.328125 0.125zm-1.21875 -5.515625q-0.203125 0 -0.3125 -0.109375q-0.109375 -0.125 -0.109375 -0.296875q0 -0.171875 0.109375 -0.28125q0.109375 -0.125 0.3125 -0.125l3.140625 0q0.1875 0 0.296875 0.125q0.125 0.109375 0.125 0.28125q0 0.171875 -0.125 0.296875q-0.109375 0.109375 -0.296875 0.109375l-3.140625 0zm4.9375 5.515625q-0.21875 0 -0.34375 -0.125q-0.125 -0.125 -0.125 -0.34375l0 -5.625q0 -0.21875 0.125 -0.34375q0.125 -0.125 0.34375 -0.125q0.203125 0 0.328125 0.125q0.125 0.125 0.125 0.34375l0 5.625q0 0.21875 -0.125 0.34375q-0.125 0.125 -0.328125 0.125zm5.2876587 0q-0.625 0 -1.125 -0.296875q-0.5 -0.296875 -0.796875 -0.8125q-0.28125 -0.53125 -0.28125 -1.203125l0 -5.875q0 -0.203125 0.125 -0.328125q0.125 -0.140625 0.328125 -0.140625q0.203125 0 0.328125 0.140625q0.140625 0.125 0.140625 0.328125l0 5.875q0 0.609375 0.359375 1.0q0.359375 0.390625 0.921875 0.390625l0.328125 0q0.1875 0 0.3125 0.140625q0.125 0.125 0.125 0.328125q0 0.203125 -0.15625 0.328125q-0.140625 0.125 -0.34375 0.125l-0.265625 0zm-2.984375 -5.515625q-0.171875 0 -0.296875 -0.109375q-0.125 -0.125 -0.125 -0.296875q0 -0.171875 0.125 -0.28125q0.125 -0.125 0.296875 -0.125l3.0625 0q0.1875 0 0.296875 0.125q0.125 0.109375 0.125 0.28125q0 0.171875 -0.125 0.296875q-0.109375 0.109375 -0.296875 0.109375l-3.0625 0zm7.5427856 5.578125q-0.71875 0 -1.421875 -0.234375q-0.6875 -0.25 -1.109375 -0.734375q-0.140625 -0.140625 -0.125 -0.3125q0.03125 -0.1875 0.1875 -0.3125q0.171875 -0.125 0.34375 -0.09375q0.1875 0.015625 0.3125 0.15625q0.28125 0.328125 0.75 0.515625q0.484375 0.171875 1.0625 0.171875q0.890625 0 1.28125 -0.296875q0.390625 -0.3125 0.40625 -0.75q0 -0.421875 -0.40625 -0.703125q-0.40625 -0.28125 -1.34375 -0.4375q-1.21875 -0.203125 -1.78125 -0.671875q-0.5625 -0.484375 -0.5625 -1.140625q0 -0.625 0.328125 -1.03125q0.328125 -0.40625 0.859375 -0.609375q0.546875 -0.203125 1.1875 -0.203125q0.8125 0 1.390625 0.28125q0.578125 0.265625 0.9375 0.734375q0.125 0.15625 0.09375 0.328125q-0.015625 0.171875 -0.1875 0.28125q-0.140625 0.078125 -0.328125 0.046875q-0.1875 -0.03125 -0.3125 -0.171875q-0.3125 -0.34375 -0.703125 -0.5q-0.390625 -0.171875 -0.90625 -0.171875q-0.671875 0 -1.0625 0.28125q-0.390625 0.265625 -0.390625 0.671875q0 0.265625 0.140625 0.484375q0.15625 0.203125 0.515625 0.359375q0.375 0.140625 1.03125 0.25q0.90625 0.15625 1.421875 0.4375q0.53125 0.28125 0.75 0.65625q0.21875 0.375 0.21875 0.8125q0 0.578125 -0.328125 1.0q-0.328125 0.421875 -0.921875 0.671875q-0.578125 0.234375 -1.328125 0.234375z" fill-rule="nonzero"/></g></svg>