<svg version="1.1" viewBox="0.0 0.0 576.0 576.0" fill="none" stroke="none" stroke-linecap="square" stroke-miterlimit="10" xmlns:xlink="http://www.w3.org/1999/xlink" xmlns="http://www.w3.org/2000/svg"><clipPath id="gadb9abb0a7_0_0.0"><path d="m0 0l576.0 0l0 576.0l-576.0 0l0 -576.0z" clip-rule="nonzero"/></clipPath><g clip-path="url(#gadb9abb0a7_0_0.0)"><path fill="#ffffff" d="m0 0l576.0 0l0 576.0l-576.0 0z" fill-rule="evenodd"/><path fill="#000000" fill-opacity="0.0" d="m477.83762 288.26773l-387.84253 -0.5354614" fill-rule="evenodd"/><path stroke="#cccccc" stroke-width="4.0" stroke-linejoin="round" stroke-linecap="butt" d="m477.83762 288.26773l-387.84253 -0.5354614" fill-rule="evenodd"/><path fill="#3c78d8" d="m154.6273 288.0l0 0c0 -2.9049377 2.4677124 -5.259857 5.5118103 -5.259857l0 0c1.4618225 0 2.8637695 0.5541687 3.8974304 1.5405884c1.0336609 0.9864197 1.6143799 2.3242798 1.6143799 3.7192688l0 0c0 2.9049377 -2.4677277 5.259857 -5.5118103 5.259857l0 0c-3.044098 0 -5.5118103 -2.3549194 -5.5118103 -5.259857z" fill-rule="evenodd"/><path fill="#3c78d8" d="m389.521 288.0l0 0c0 -2.9049377 2.4677124 -5.259857 5.5118103 -5.259857l0 0c1.4618225 0 2.8637695 0.5541687 3.8974304 1.5405884c1.0336609 0.9864197 1.6143799 2.3242798 1.6143799 3.7192688l0 0c0 2.9049377 -2.4677124 5.259857 -5.5118103 5.259857l0 0c-3.044098 0 -5.5118103 -2.3549194 -5.5118103 -5.259857z" fill-rule="evenodd"/><path fill="#3c78d8" d="m185.88518 288.0l0 0c0 -2.9049377 2.4677124 -5.259857 5.5118103 -5.259857l0 0c1.4618225 0 2.8637695 0.5541687 3.8974304 1.5405884c1.0336609 0.9864197 1.6143799 2.3242798 1.6143799 3.7192688l0 0c0 2.9049377 -2.4677277 5.259857 -5.5118103 5.259857l0 0c-3.044098 0 -5.5118103 -2.3549194 -5.5118103 -5.259857z" fill-rule="evenodd"/><path fill="#3c78d8" d="m361.9206 288.0l0 0c0 -2.9049377 2.467743 -5.259857 5.5118103 -5.259857l0 0c1.4618225 0 2.8638 0.5541687 3.897461 1.5405884c1.0336609 0.9864197 1.6143494 2.3242798 1.6143494 3.7192688l0 0c0 2.9049377 -2.4677124 5.259857 -5.5118103 5.259857l0 0c-3.0440674 0 -5.5118103 -2.3549194 -5.5118103 -5.259857z" fill-rule="evenodd"/><path fill="#3c78d8" d="m414.7244 288.0l0 0c0 -2.9049377 2.467743 -5.259857 5.5118103 -5.259857l0 0c1.4618225 0 2.8638 0.5541687 3.897461 1.5405884c1.0336609 0.9864197 1.6143494 2.3242798 1.6143494 3.7192688l0 0c0 2.9049377 -2.4677124 5.259857 -5.5118103 5.259857l0 0c-3.0440674 0 -5.5118103 -2.3549194 -5.5118103 -5.259857z" fill-rule="evenodd"/><path fill="#3c78d8" d="m457.0761 281.69818l41.165344 0l0 0c4.5483704 0 8.910431 1.8068542 12.126617 5.0230103c3.216156 3.2161865 5.0229797 7.578247 5.0229797 12.126617l0 11.076569c0 3.3540344 -2.718933 6.0730286 -6.072998 6.0730286l-63.318512 0l0 0c-3.354065 0 -6.0730286 -2.7189941 -6.0730286 -6.0730286l0 -11.076569l0 0c0 -9.471466 7.678131 -17.149628 17.149597 -17.149628z" fill-rule="evenodd"/><path fill="#6d9eeb" d="m453.7533 254.57742l0 0c0 -13.237442 10.70285 -23.968506 23.905487 -23.968506l0 0c6.340149 0 12.420593 2.5252533 16.903748 7.020218c4.4831543 4.4949646 7.00177 10.591446 7.00177 16.948288l0 0c0 13.237457 -10.70285 23.968506 -23.905518 23.968506l0 0c-13.202637 0 -23.905487 -10.731049 -23.905487 -23.968506z" fill-rule="evenodd"/><path fill="#3c78d8" d="m76.07874 281.69818l41.16535 0l0 0c4.548355 0 8.910431 1.8068542 12.126602 5.0230103c3.2161713 3.2161865 5.0230103 7.578247 5.0230103 12.126617l0 11.076569c0 3.3540344 -2.7189941 6.0730286 -6.0730286 6.0730286l-63.318527 0l0 0c-3.3540344 0 -6.073017 -2.7189941 -6.073017 -6.0730286l0 -11.076569l0 0c0 -9.471466 7.6781425 -17.149628 17.149609 -17.149628z" fill-rule="evenodd"/><path fill="#6d9eeb" d="m72.755905 254.57742l0 0c0 -13.237442 10.702866 -23.968506 23.90551 -23.968506l0 0c6.3401413 0 12.420601 2.5252533 16.903755 7.020218c4.4831467 4.4949646 7.0017624 10.591446 7.0017624 16.948288l0 0c0 13.237457 -10.702866 23.968506 -23.905518 23.968506l0 0c-13.202644 0 -23.90551 -10.731049 -23.90551 -23.968506z" fill-rule="evenodd"/></g></svg>