<svg version="1.1" viewBox="0.0 0.0 384.0 192.0" fill="none" stroke="none" stroke-linecap="square" stroke-miterlimit="10" xmlns:xlink="http://www.w3.org/1999/xlink" xmlns="http://www.w3.org/2000/svg"><clipPath id="p.0"><path d="m0 0l384.0 0l0 192.0l-384.0 0l0 -192.0z" clip-rule="nonzero"/></clipPath><g clip-path="url(#p.0)"><path fill="#ffffff" d="m0 0l384.0 0l0 192.0l-384.0 0z" fill-rule="evenodd"/><path fill="#e3e0ff" d="m0 0l384.0 0l0 192.0l-384.0 0z" fill-rule="evenodd"/><path fill="#000000" fill-opacity="0.0" d="m320.2644 44.427162l-184.85039 53.007874" fill-rule="evenodd"/><path stroke="#efefef" stroke-width="4.0" stroke-linejoin="round" stroke-linecap="butt" d="m320.2644 44.427162l-184.85039 53.007874" fill-rule="evenodd"/><path fill="#9900ff" d="m314.55423 39.23945l0 0c2.9397278 -2.9136276 7.607239 -2.9770813 10.425201 -0.14173126l0 0c1.353241 1.3615837 2.0902405 3.2232208 2.0488892 5.175373c-0.04135132 1.9521484 -0.857666 3.8349037 -2.2693481 5.2340775l0 0c-2.9397278 2.9136276 -7.6072693 2.9770813 -10.425201 0.14173126l0 0c-2.8179626 -2.83535 -2.7192688 -7.495819 0.22045898 -10.409451z" fill-rule="evenodd"/><path fill="#000000" fill-opacity="0.0" d="m135.78148 98.78674l183.52757 26.20472" fill-rule="evenodd"/><path stroke="#cccccc" stroke-width="4.0" stroke-linejoin="round" stroke-linecap="butt" d="m135.78148 98.78674l183.52757 26.20472" fill-rule="evenodd"/><path fill="#0000ff" d="m86.085236 43.506977l0 0c0.4609604 -2.870144 3.2741623 -4.809067 6.2834625 -4.3307114l0 0c1.4451218 0.22971725 2.7431107 0.99754715 3.6084366 2.1345787c0.8653259 1.1370316 1.2271042 2.5501251 1.0057373 3.9284134l0 0c-0.4609604 2.870144 -3.2741623 4.809067 -6.2834625 4.3307114l0 0c-3.0093002 -0.47835922 -5.0751343 -3.192852 -4.614174 -6.062992z" fill-rule="evenodd"/><path fill="#0000ff" d="m54.910336 84.41019l0 0c0.5479355 -2.8527527 3.4175415 -4.700012 6.4094467 -4.125984l0 0c1.4367638 0.27565765 2.7101555 1.0842285 3.5400429 2.247841c0.82987976 1.1636124 1.1482849 2.5869446 0.8851547 3.9568787l0 0c-0.5479355 2.852745 -3.4175453 4.700012 -6.4094505 4.125984l0 0c-2.9919014 -0.574028 -4.9731293 -3.3519745 -4.425194 -6.2047195z" fill-rule="evenodd"/><path fill="#0000ff" d="m77.88721 146.49283l0 0c2.061287 -2.0438843 5.4667435 -1.9451752 7.6063004 0.22047424l0 0c1.0274506 1.0399933 1.619606 2.4272766 1.6461868 3.8566895c0.026573181 1.4294128 -0.5145874 2.783844 -1.5044556 3.7653656l0 0c-2.0612793 2.0438843 -5.466736 1.9451752 -7.6063004 -0.22047424l0 0c-2.139557 -2.1656494 -2.2030106 -5.5781555 -0.14173126 -7.622055z" fill-rule="evenodd"/><path fill="#9900ff" d="m312.74188 127.21106l0 0c-1.2089539 -3.9573212 0.91329956 -8.110146 4.740143 -9.275597l0 0c1.837738 -0.5596695 3.8308105 -0.3414917 5.5407715 0.6065216c1.7099915 0.94802094 2.9967957 2.548233 3.577362 4.448601l0 0c1.2089233 3.9573135 -0.9133301 8.110138 -4.7401733 9.275589l0 0c-3.8268433 1.165451 -7.9091797 -1.0978088 -9.118103 -5.0551147z" fill-rule="evenodd"/><path fill="#9fc5e8" d="m223.8047 107.096436l0 0c2.0612793 -2.0438843 5.466736 -1.9451752 7.606308 0.22047424l0 0c1.0274506 1.0399857 1.6195984 2.4272766 1.6461792 3.8566818c0.02658081 1.4294128 -0.5145874 2.7838516 -1.5044556 3.7653656l0 0c-2.0612793 2.0438843 -5.466736 1.9451752 -7.6062927 -0.22047424l0 0c-2.139557 -2.1656494 -2.2030182 -5.5781555 -0.14173889 -7.6220474z" fill-rule="evenodd"/><path fill="#000000" fill-opacity="0.0" d="m133.08331 99.558395l-51.08661 51.055115" fill-rule="evenodd"/><path stroke="#e69138" stroke-width="4.0" stroke-linejoin="round" stroke-linecap="butt" d="m133.08331 99.558395l-51.08661 51.055115" fill-rule="evenodd"/><path fill="#000000" fill-opacity="0.0" d="m60.39314 85.67213l74.23622 12.724403" fill-rule="evenodd"/><path stroke="#e69138" stroke-width="4.0" stroke-linejoin="round" stroke-linecap="butt" d="m60.39314 85.67213l74.23622 12.724403" fill-rule="evenodd"/><path fill="#000000" fill-opacity="0.0" d="m91.60738 43.650646l42.425194 53.795277" fill-rule="evenodd"/><path stroke="#e69138" stroke-width="4.0" stroke-linejoin="round" stroke-linecap="butt" d="m91.60738 43.650646l42.425194 53.795277" fill-rule="evenodd"/><path fill="#0000ff" d="m227.10878 67.00868l0 0c2.0612793 -2.0438843 5.466736 -1.9451752 7.606308 0.22047424l0 0c1.0274506 1.0399857 1.6195984 2.4272766 1.6461792 3.8566818c0.02658081 1.4294128 -0.5145874 2.7838593 -1.5044556 3.7653656l0 0c-2.0612793 2.043892 -5.466736 1.9451828 -7.6062927 -0.22047424l0 0c-2.1395721 -2.1656494 -2.2030182 -5.5781555 -0.14173889 -7.6220474z" fill-rule="evenodd"/><path fill="#0000ff" d="m225.10956 70.9311l0 0c0 -3.191948 2.6298828 -5.7795258 5.8740234 -5.7795258l0 0c1.5578766 0 3.0519562 0.6089096 4.153549 1.6927795c1.101593 1.0838776 1.720459 2.553917 1.720459 4.086746l0 0c0 3.191948 -2.6298828 5.7795258 -5.874008 5.7795258l0 0c-3.2441406 0 -5.8740234 -2.5875778 -5.8740234 -5.7795258z" fill-rule="evenodd"/><path stroke="#0000ff" stroke-width="1.0" stroke-linejoin="round" stroke-linecap="butt" d="m225.10956 70.9311l0 0c0 -3.191948 2.6298828 -5.7795258 5.8740234 -5.7795258l0 0c1.5578766 0 3.0519562 0.6089096 4.153549 1.6927795c1.101593 1.0838776 1.720459 2.553917 1.720459 4.086746l0 0c0 3.191948 -2.6298828 5.7795258 -5.874008 5.7795258l0 0c-3.2441406 0 -5.8740234 -2.5875778 -5.8740234 -5.7795258z" fill-rule="evenodd"/><path fill="#0000ff" d="m85.66074 44.372044l0 0c0 -3.1919441 2.6298828 -5.7795296 5.874016 -5.7795296l0 0c1.5578842 0 3.0519638 0.6089134 4.153557 1.6927872c1.101593 1.0838699 1.720459 2.553917 1.720459 4.0867424l0 0c0 3.1919441 -2.6298904 5.7795258 -5.874016 5.7795258l0 0c-3.244133 0 -5.874016 -2.5875816 -5.874016 -5.7795258z" fill-rule="evenodd"/><path stroke="#0000ff" stroke-width="1.0" stroke-linejoin="round" stroke-linecap="butt" d="m85.66074 44.372044l0 0c0 -3.1919441 2.6298828 -5.7795296 5.874016 -5.7795296l0 0c1.5578842 0 3.0519638 0.6089134 4.153557 1.6927872c1.101593 1.0838699 1.720459 2.553917 1.720459 4.0867424l0 0c0 3.1919441 -2.6298904 5.7795258 -5.874016 5.7795258l0 0c-3.244133 0 -5.874016 -2.5875816 -5.874016 -5.7795258z" fill-rule="evenodd"/><path fill="#0000ff" d="m54.453392 85.45078l0 0c0 -3.191948 2.6298866 -5.7795258 5.874016 -5.7795258l0 0c1.557888 0 3.0519676 0.6089096 4.153557 1.6927795c1.101593 1.0838776 1.720459 2.553917 1.720459 4.086746l0 0c0 3.191948 -2.6298866 5.7795258 -5.874016 5.7795258l0 0c-3.2441292 0 -5.874016 -2.5875778 -5.874016 -5.7795258z" fill-rule="evenodd"/><path stroke="#0000ff" stroke-width="1.0" stroke-linejoin="round" stroke-linecap="butt" d="m54.453392 85.45078l0 0c0 -3.191948 2.6298866 -5.7795258 5.874016 -5.7795258l0 0c1.557888 0 3.0519676 0.6089096 4.153557 1.6927795c1.101593 1.0838776 1.720459 2.553917 1.720459 4.086746l0 0c0 3.191948 -2.6298866 5.7795258 -5.874016 5.7795258l0 0c-3.2441292 0 -5.874016 -2.5875778 -5.874016 -5.7795258z" fill-rule="evenodd"/><path fill="#0000ff" d="m75.88647 150.41403l0 0c0 -3.1919403 2.6298828 -5.7795258 5.874016 -5.7795258l0 0c1.5578842 0 3.0519638 0.60891724 4.153557 1.6927948c1.1015854 1.0838623 1.720459 2.5539093 1.720459 4.086731l0 0c0 3.1919556 -2.6298904 5.7795258 -5.874016 5.7795258l0 0c-3.244133 0 -5.874016 -2.5875702 -5.874016 -5.7795258z" fill-rule="evenodd"/><path stroke="#0000ff" stroke-width="1.0" stroke-linejoin="round" stroke-linecap="butt" d="m75.88647 150.41403l0 0c0 -3.1919403 2.6298828 -5.7795258 5.874016 -5.7795258l0 0c1.5578842 0 3.0519638 0.60891724 4.153557 1.6927948c1.1015854 1.0838623 1.720459 2.5539093 1.720459 4.086731l0 0c0 3.1919556 -2.6298904 5.7795258 -5.874016 5.7795258l0 0c-3.244133 0 -5.874016 -2.5875702 -5.874016 -5.7795258z" fill-rule="evenodd"/><path fill="#6d9eeb" d="m221.8051 111.017715l0 0c0 -3.191948 2.6298828 -5.7795334 5.8740234 -5.7795334l0 0c1.5578766 0 3.0519562 0.60891724 4.153549 1.6927872c1.101593 1.0838699 1.720459 2.553917 1.720459 4.086746l0 0c0 3.1919403 -2.6298828 5.7795258 -5.874008 5.7795258l0 0c-3.2441406 0 -5.8740234 -2.5875854 -5.8740234 -5.7795258z" fill-rule="evenodd"/><path stroke="#6d9eeb" stroke-width="1.0" stroke-linejoin="round" stroke-linecap="butt" d="m221.8051 111.017715l0 0c0 -3.191948 2.6298828 -5.7795334 5.8740234 -5.7795334l0 0c1.5578766 0 3.0519562 0.60891724 4.153549 1.6927872c1.101593 1.0838699 1.720459 2.553917 1.720459 4.086746l0 0c0 3.1919403 -2.6298828 5.7795258 -5.874008 5.7795258l0 0c-3.2441406 0 -5.8740234 -2.5875854 -5.8740234 -5.7795258z" fill-rule="evenodd"/><path fill="#9900ff" d="m129.27667 93.06797l0 0c2.9397278 -2.9136276 7.607239 -2.977089 10.425201 -0.14173889l0 0c1.3532257 1.3615875 2.0902405 3.2232208 2.0488892 5.175377c-0.04133606 1.9521484 -0.85765076 3.8349 -2.2693634 5.2340775l0 0c-2.9397125 2.9136276 -7.607239 2.9770813 -10.425201 0.14173126l0 0c-2.8179474 -2.83535 -2.7192383 -7.495819 0.22047424 -10.409447z" fill-rule="evenodd"/></g></svg>