<?xml version="1.0" encoding="utf-8"?>
<!-- Generator: Adobe Illustrator 25.3.1, SVG Export Plug-In . SVG Version: 6.00 Build 0)  -->
<svg version="1.1" id="Layer_1" xmlns="http://www.w3.org/2000/svg" xmlns:xlink="http://www.w3.org/1999/xlink" x="0px" y="0px"
	 viewBox="0 0 216 216" style="enable-background:new 0 0 216 216;" xml:space="preserve">
<style type="text/css">
	.st0{fill:#FFFFFF;}
	.st1{opacity:0.7;fill:#41499E;}
	.st2{opacity:0.6;fill:#41499E;}
	.st3{opacity:0.5;fill:#41499E;}
	.st4{opacity:0.4;fill:#BE1E2D;}
	.st5{opacity:0.8;fill:#BE1E2D;}
	.st6{opacity:0.6;fill:#BE1E2D;}
	.st7{opacity:0.5;fill:#BE1E2D;}
	.st8{opacity:0.9;fill:#BE1E2D;}
	.st9{fill:#BE1E2D;}
	.st10{opacity:0.9;fill:#41499E;}
	.st11{opacity:0.8;fill:#41499E;}
</style>
<g>
	<rect class="st0" width="216" height="216"/>
	<polygon class="st1" points="50.32,48 50.32,5.42 7.74,5.42 	"/>
	<polygon class="st2" points="50.32,102.19 50.32,59.61 7.74,59.61 	"/>
	<polygon class="st3" points="50.32,156.39 50.32,113.81 7.74,113.81 	"/>
	<polygon class="st4" points="50.32,210.58 50.32,168 7.74,168 	"/>
	<polygon class="st5" points="102.97,48 102.97,5.42 60.39,5.42 	"/>
	<polygon class="st1" points="102.97,102.19 102.97,59.61 60.39,59.61 	"/>
	<polygon class="st6" points="102.97,156.39 102.97,113.81 60.39,113.81 	"/>
	<polygon class="st7" points="102.97,210.58 102.97,168 60.39,168 	"/>
	<polygon class="st8" points="155.61,48 155.61,5.42 113.03,5.42 	"/>
	<polygon class="st5" points="155.61,102.19 155.61,59.61 113.03,59.61 	"/>
	<polygon class="st1" points="155.61,156.39 155.61,113.81 113.03,113.81 	"/>
	<polygon class="st6" points="155.61,210.58 155.61,168 113.03,168 	"/>
	<polygon class="st9" points="208.26,48 208.26,5.42 165.68,5.42 	"/>
	<polygon class="st10" points="208.26,102.19 208.26,59.61 165.68,59.61 	"/>
	<polygon class="st11" points="208.26,156.39 208.26,113.81 165.68,113.81 	"/>
	<polygon class="st1" points="208.26,210.58 208.26,168 165.68,168 	"/>
</g>
</svg>
