<?xml version="1.0" encoding="utf-8"?>
<!-- Generator: Adobe Illustrator 25.3.1, SVG Export Plug-In . SVG Version: 6.00 Build 0)  -->
<svg version="1.1" id="Layer_1" xmlns="http://www.w3.org/2000/svg" xmlns:xlink="http://www.w3.org/1999/xlink" x="0px" y="0px"
	 viewBox="0 0 216 216" style="enable-background:new 0 0 216 216;" xml:space="preserve">
<style type="text/css">
	.st0{fill:#FFFFFF;}
	.st1{opacity:0.7;fill:#414042;}
	.st2{opacity:0.6;fill:#414042;}
	.st3{opacity:0.5;fill:#414042;}
	.st4{opacity:0.4;fill:#414042;}
	.st5{opacity:0.8;fill:#414042;}
	.st6{opacity:0.9;fill:#414042;}
	.st7{fill:#414042;}
</style>
<rect x="-0.3" y="0.13" class="st0" width="216" height="216"/>
<polygon class="st1" points="50.02,48.13 50.02,5.55 7.44,5.55 "/>
<polygon class="st2" points="50.02,102.32 50.02,59.74 7.44,59.74 "/>
<polygon class="st3" points="50.02,156.51 50.02,113.93 7.44,113.93 "/>
<polygon class="st4" points="50.02,210.71 50.02,168.13 7.44,168.13 "/>
<polygon class="st5" points="102.67,48.13 102.67,5.55 60.08,5.55 "/>
<polygon class="st1" points="102.67,102.32 102.67,59.74 60.08,59.74 "/>
<polygon class="st2" points="102.67,156.51 102.67,113.93 60.08,113.93 "/>
<polygon class="st3" points="102.67,210.71 102.67,168.13 60.08,168.13 "/>
<polygon class="st6" points="155.31,48.13 155.31,5.55 112.73,5.55 "/>
<polygon class="st5" points="155.31,102.32 155.31,59.74 112.73,59.74 "/>
<polygon class="st1" points="155.31,156.51 155.31,113.93 112.73,113.93 "/>
<polygon class="st2" points="155.31,210.71 155.31,168.13 112.73,168.13 "/>
<polygon class="st7" points="207.96,48.13 207.96,5.55 165.38,5.55 "/>
<polygon class="st6" points="207.96,102.32 207.96,59.74 165.38,59.74 "/>
<polygon class="st5" points="207.96,156.51 207.96,113.93 165.38,113.93 "/>
<polygon class="st1" points="207.96,210.71 207.96,168.13 165.38,168.13 "/>
</svg>
