<svg version="1.1" viewBox="0.0 0.0 576.0 288.0" fill="none" stroke="none" stroke-linecap="square" stroke-miterlimit="10" xmlns:xlink="http://www.w3.org/1999/xlink" xmlns="http://www.w3.org/2000/svg"><clipPath id="ga53302c448_0_0.0"><path d="m0 0l576.0 0l0 288.0l-576.0 0l0 -288.0z" clip-rule="nonzero"/></clipPath><g clip-path="url(#ga53302c448_0_0.0)"><path fill="#ffffff" d="m0 0l576.0 0l0 288.0l-576.0 0z" fill-rule="evenodd"/><path fill="#0000ff" d="m17.401575 -9.186352E-6l271.7674 285.25983l269.42947 -285.25983z" fill-rule="evenodd"/><path fill="#000000" fill-opacity="0.0" d="m-3.5223098 65.3937l576.0 0l0 26.299217l-576.0 0z" fill-rule="evenodd"/><path fill="#ffffff" d="m248.27826 83.59307l0 26.640625l-5.875 0l0 -26.640625l5.875 0zm10.977631 0l11.109375 17.875l0.078125 0l0 -17.875l5.484375 0l0 26.640625l-5.84375 0l-11.109375 -17.84375l-0.0625 0l0 17.84375l-5.5 0l0 -26.640625l5.84375 0zm41.589905 0l0 4.921875l-8.0 0l0 21.71875l-5.859375 0l0 -21.71875l-7.984375 0l0 -4.921875l21.84375 0zm13.765045 -0.640625q5.9375 0 9.515625 3.984375q3.578125 3.984375 3.578125 10.078125q0 5.96875 -3.59375 9.921875q-3.59375 3.9375 -9.5 3.9375q-3.84375 0 -6.84375 -1.765625q-3.0 -1.765625 -4.640625 -4.96875q-1.625 -3.203125 -1.625 -7.125q0 -6.15625 3.59375 -10.109375q3.609375 -3.953125 9.515625 -3.953125zm-7.265625 14.0625q0 3.9375 1.890625 6.4375q1.890625 2.484375 5.375 2.484375q3.4375 0 5.328125 -2.453125q1.90625 -2.453125 1.90625 -6.46875q0 -4.203125 -1.921875 -6.671875q-1.921875 -2.46875 -5.359375 -2.46875q-3.40625 0 -5.3125 2.5q-1.90625 2.484375 -1.90625 6.640625z" fill-rule="nonzero"/></g></svg>