<svg version="1.1" viewBox="0.0 0.0 960.0 288.0" fill="none" stroke="none" stroke-linecap="square" stroke-miterlimit="10" xmlns:xlink="http://www.w3.org/1999/xlink" xmlns="http://www.w3.org/2000/svg"><clipPath id="g93cc7c0f99_0_59.0"><path d="m0 0l960.0 0l0 288.0l-960.0 0l0 -288.0z" clip-rule="nonzero"/></clipPath><g clip-path="url(#g93cc7c0f99_0_59.0)"><path fill="#ffffff" d="m0 0l960.0 0l0 288.0l-960.0 0z" fill-rule="evenodd"/><path fill="#3c78d8" d="m440.55737 165.71744l50.80316 0l0 0c5.108032 0 10.006836 2.0291443 13.618744 5.6410675c3.6119385 3.6119232 5.641083 8.510742 5.641083 13.618774l0 12.439545c0 3.766739 -3.0535583 6.8202972 -6.820282 6.8202972l-75.68225 0c-3.7667542 0 -6.820282 -3.0535583 -6.820282 -6.8202972l0 -12.439545l0 0c0 -10.636917 8.622925 -19.259842 19.259827 -19.259842z" fill-rule="evenodd"/><path fill="#6d9eeb" d="m437.66568 135.25757l0 0c0 -14.863853 12.669983 -26.913383 28.299194 -26.913383l0 0c7.505432 0 14.70343 2.8355103 20.01056 7.882744c5.307129 5.047241 8.288666 11.892761 8.288666 19.03064l0 0c0 14.863861 -12.669983 26.913391 -28.299225 26.913391l0 0c-15.629211 0 -28.299194 -12.04953 -28.299194 -26.913391z" fill-rule="evenodd"/><path fill="#000000" fill-opacity="0.0" d="m10.459317 101.65039l389.19684 0l0 61.480316l-389.19684 0z" fill-rule="evenodd"/><path fill="#38761d" d="m83.78116 171.8254q0 -1.25 -0.3125 -2.1875q0 -2.8125 3.75 -5.0q2.5 -1.25 3.75 -1.25q1.5625 0.3125 2.1875 1.875q1.875 4.375 2.5 5.9375q0.625 1.25 1.25 1.25q0.625 0 1.25 -0.9375q10.625 -18.75 19.0625 -29.0625q6.5625 -7.8125 8.125 -9.0625q5.0 -3.75 11.875 -4.0625l0.3125 1.5625q-5.3125 5.3125 -18.4375 23.75q-12.8125 18.4375 -18.4375 29.0625q-1.25 2.8125 -3.125 3.4375q-0.9375 0.9375 -4.0625 0.625q-2.1875 0.3125 -3.125 -0.625q-0.9375 -0.625 -1.875 -2.5q-3.125 -7.5 -4.6875 -12.8125zm80.0 0q0 -1.25 -0.3125 -2.1875q0 -2.8125 3.75 -5.0q2.5 -1.25 3.75 -1.25q1.5625 0.3125 2.1875 1.875q1.875 4.375 2.5 5.9375q0.625 1.25 1.25 1.25q0.625 0 1.25 -0.9375q10.625 -18.75 19.0625 -29.0625q6.5625 -7.8125 8.125 -9.0625q5.0 -3.75 11.875 -4.0625l0.3125 1.5625q-5.3125 5.3125 -18.4375 23.75q-12.8125 18.4375 -18.4375 29.0625q-1.25 2.8125 -3.125 3.4375q-0.9375 0.9375 -4.0625 0.625q-2.1875 0.3125 -3.125 -0.625q-0.9375 -0.625 -1.875 -2.5q-3.125 -7.5 -4.6875 -12.8125z" fill-rule="nonzero"/><path fill="#6aa84f" d="m243.78116 171.8254q0 -1.25 -0.3125 -2.1875q0 -2.8125 3.75 -5.0q2.5 -1.25 3.75 -1.25q1.5625 0.3125 2.1875 1.875q1.875 4.375 2.5 5.9375q0.625 1.25 1.25 1.25q0.625 0 1.25 -0.9375q10.625 -18.75 19.0625 -29.0625q6.5625 -7.8125 8.125 -9.0625q5.0 -3.75 11.875 -4.0625l0.3125 1.5625q-5.3125 5.3125 -18.4375 23.75q-12.8125 18.4375 -18.4375 29.0625q-1.25 2.8125 -3.125 3.4375q-0.9375 0.9375 -4.0625 0.625q-2.1875 0.3125 -3.125 -0.625q-0.9375 -0.625 -1.875 -2.5q-3.125 -7.5 -4.6875 -12.8125z" fill-rule="nonzero"/><path fill="#93c47d" d="m323.78116 171.8254q0 -1.25 -0.3125 -2.1875q0 -2.8125 3.75 -5.0q2.5 -1.25 3.75 -1.25q1.5625 0.3125 2.1875 1.875q1.875 4.375 2.5 5.9375q0.625 1.25 1.25 1.25q0.625 0 1.25 -0.9375q10.625 -18.75 19.0625 -29.0625q6.5625 -7.8125 8.125 -9.0625q5.0 -3.75 11.875 -4.0625l0.3125 1.5625q-5.3125 5.3125 -18.4375 23.75q-12.8125 18.4375 -18.4375 29.0625q-1.25 2.8125 -3.125 3.4375q-0.9375 0.9375 -4.0625 0.625q-2.1875 0.3125 -3.125 -0.625q-0.9375 -0.625 -1.875 -2.5q-3.125 -7.5 -4.6875 -12.8125z" fill-rule="nonzero"/><path fill="#000000" fill-opacity="0.0" d="m562.0761 101.65039l389.19684 0l0 61.480316l-389.19684 0z" fill-rule="evenodd"/><path fill="#666666" d="m584.2011 171.8254q0 -1.25 -0.3125 -2.1875q0 -2.8125 3.75 -5.0q2.5 -1.25 3.75 -1.25q1.5625 0.3125 2.1875 1.875q1.875 4.375 2.5 5.9375q0.625 1.25 1.25 1.25q0.625 0 1.25 -0.9375q10.625 -18.75 19.0625 -29.0625q6.5625 -7.8125 8.125 -9.0625q5.0 -3.75 11.875 -4.0625l0.3125 1.5625q-5.3125 5.3125 -18.4375 23.75q-12.8125 18.4375 -18.4375 29.0625q-1.25 2.8125 -3.125 3.4375q-0.9375 0.9375 -4.0625 0.625q-2.1875 0.3125 -3.125 -0.625q-0.9375 -0.625 -1.875 -2.5q-3.125 -7.5 -4.6875 -12.8125z" fill-rule="nonzero"/><path fill="#999999" d="m664.2011 171.8254q0 -1.25 -0.3125 -2.1875q0 -2.8125 3.75 -5.0q2.5 -1.25 3.75 -1.25q1.5625 0.3125 2.1875 1.875q1.875 4.375 2.5 5.9375q0.625 1.25 1.25 1.25q0.625 0 1.25 -0.9375q10.625 -18.75 19.0625 -29.0625q6.5625 -7.8125 8.125 -9.0625q5.0 -3.75 11.875 -4.0625l0.3125 1.5625q-5.3125 5.3125 -18.4375 23.75q-12.8125 18.4375 -18.4375 29.0625q-1.25 2.8125 -3.125 3.4375q-0.9375 0.9375 -4.0625 0.625q-2.1875 0.3125 -3.125 -0.625q-0.9375 -0.625 -1.875 -2.5q-3.125 -7.5 -4.6875 -12.8125z" fill-rule="nonzero"/><path fill="#b7b7b7" d="m744.2011 171.8254q0 -1.25 -0.3125 -2.1875q0 -2.8125 3.75 -5.0q2.5 -1.25 3.75 -1.25q1.5625 0.3125 2.1875 1.875q1.875 4.375 2.5 5.9375q0.625 1.25 1.25 1.25q0.625 0 1.25 -0.9375q10.625 -18.75 19.0625 -29.0625q6.5625 -7.8125 8.125 -9.0625q5.0 -3.75 11.875 -4.0625l0.3125 1.5625q-5.3125 5.3125 -18.4375 23.75q-12.8125 18.4375 -18.4375 29.0625q-1.25 2.8125 -3.125 3.4375q-0.9375 0.9375 -4.0625 0.625q-2.1875 0.3125 -3.125 -0.625q-0.9375 -0.625 -1.875 -2.5q-3.125 -7.5 -4.6875 -12.8125z" fill-rule="nonzero"/><path fill="#cccccc" d="m824.2011 171.8254q0 -1.25 -0.3125 -2.1875q0 -2.8125 3.75 -5.0q2.5 -1.25 3.75 -1.25q1.5625 0.3125 2.1875 1.875q1.875 4.375 2.5 5.9375q0.625 1.25 1.25 1.25q0.625 0 1.25 -0.9375q10.625 -18.75 19.0625 -29.0625q6.5625 -7.8125 8.125 -9.0625q5.0 -3.75 11.875 -4.0625l0.3125 1.5625q-5.3125 5.3125 -18.4375 23.75q-12.8125 18.4375 -18.4375 29.0625q-1.25 2.8125 -3.125 3.4375q-0.9375 0.9375 -4.0625 0.625q-2.1875 0.3125 -3.125 -0.625q-0.9375 -0.625 -1.875 -2.5q-3.125 -7.5 -4.6875 -12.8125z" fill-rule="nonzero"/></g></svg>